<svg width="51" height="50" viewBox="0 0 51 50" fill="none" xmlns="http://www.w3.org/2000/svg">
<rect x="0.5" width="50" height="50" rx="25" fill="#DBE9FE"/>
<g clip-path="url(#clip0_12262_142167)">
<path d="M41 34H10C9.86739 34 9.74022 34.0527 9.64645 34.1465C9.55269 34.2402 9.50001 34.3674 9.5 34.5V35.5C9.50043 35.8977 9.65861 36.279 9.93982 36.5602C10.221 36.8414 10.6023 36.9996 11 37H40C40.3977 36.9996 40.779 36.8414 41.0602 36.5602C41.3414 36.279 41.4996 35.8977 41.5 35.5V34.5C41.5 34.3674 41.4473 34.2402 41.3535 34.1465C41.2598 34.0527 41.1326 34 41 34ZM40.5 35.5C40.4999 35.6326 40.4471 35.7597 40.3534 35.8534C40.2597 35.9471 40.1326 35.9999 40 36H11C10.8674 35.9999 10.7403 35.9471 10.6466 35.8534C10.5529 35.7597 10.5001 35.6326 10.5 35.5V35H40.5V35.5ZM22 18H30C30.1326 18 30.2598 17.9473 30.3536 17.8536C30.4473 17.7598 30.5 17.6326 30.5 17.5C30.5 17.3674 30.4473 17.2402 30.3536 17.1464C30.2598 17.0527 30.1326 17 30 17H22C21.8674 17 21.7402 17.0527 21.6464 17.1464C21.5527 17.2402 21.5 17.3674 21.5 17.5C21.5 17.6326 21.5527 17.7598 21.6464 17.8536C21.7402 17.9473 21.8674 18 22 18ZM28.5 23C28.5 23.6922 28.7053 24.3689 29.0899 24.9445C29.4744 25.5201 30.0211 25.9687 30.6606 26.2336C31.3001 26.4985 32.0039 26.5678 32.6828 26.4327C33.3617 26.2977 33.9854 25.9644 34.4749 25.4749C34.9644 24.9854 35.2977 24.3618 35.4327 23.6828C35.5678 23.0039 35.4985 22.3001 35.2336 21.6606C34.9687 21.0211 34.5201 20.4744 33.9445 20.0899C33.3689 19.7053 32.6922 19.5 32 19.5C31.0721 19.501 30.1824 19.8701 29.5263 20.5263C28.8701 21.1824 28.501 22.0721 28.5 23ZM34.5 23C34.5 23.4945 34.3534 23.9778 34.0787 24.3889C33.804 24.8 33.4135 25.1205 32.9567 25.3097C32.4999 25.4989 31.9972 25.5484 31.5123 25.452C31.0273 25.3555 30.5819 25.1174 30.2322 24.7678C29.8826 24.4181 29.6445 23.9727 29.548 23.4877C29.4516 23.0028 29.5011 22.5001 29.6903 22.0433C29.8795 21.5865 30.2 21.196 30.6111 20.9213C31.0222 20.6466 31.5055 20.5 32 20.5C32.6628 20.5007 33.2983 20.7644 33.767 21.233C34.2356 21.7017 34.4993 22.3372 34.5 23ZM16.75 24.5226C16.4008 24.5818 16.0839 24.7626 15.8551 25.033C15.6264 25.3033 15.5006 25.6459 15.5 26V28.5C15.5004 28.8977 15.6586 29.279 15.9398 29.5602C16.221 29.8414 16.6023 29.9996 17 30H20.5C20.8977 29.9996 21.279 29.8414 21.5602 29.5602C21.8414 29.279 21.9996 28.8977 22 28.5V26C21.9994 25.6459 21.8736 25.3033 21.6449 25.033C21.4161 24.7626 21.0992 24.5818 20.75 24.5226V23.6168C20.7644 23.0712 20.5621 22.5421 20.1872 22.1453C19.8124 21.7486 19.2956 21.5165 18.75 21.5C18.2044 21.5165 17.6876 21.7486 17.3128 22.1453C16.9379 22.5421 16.7356 23.0712 16.75 23.6168V24.5226ZM17.75 23.6168C17.7357 23.3364 17.8328 23.0617 18.0201 22.8525C18.2074 22.6433 18.4697 22.5166 18.75 22.5C19.0303 22.5166 19.2926 22.6433 19.4799 22.8525C19.6672 23.0617 19.7643 23.3364 19.75 23.6168V24.5H17.75V23.6168ZM20.5 25.5C20.6326 25.5001 20.7597 25.5529 20.8534 25.6466C20.9471 25.7403 20.9999 25.8674 21 26V28.5C20.9999 28.6326 20.9471 28.7597 20.8534 28.8534C20.7597 28.9471 20.6326 28.9999 20.5 29H17C16.8674 28.9999 16.7403 28.9471 16.6466 28.8534C16.5529 28.7597 16.5001 28.6326 16.5 28.5V26C16.5001 25.8674 16.5529 25.7403 16.6466 25.6466C16.7403 25.5529 16.8674 25.5001 17 25.5H20.5Z" fill="url(#paint0_linear_12262_142167)"/>
<path d="M18.75 28C18.8826 28 19.0098 27.9473 19.1035 27.8535C19.1973 27.7598 19.25 27.6326 19.25 27.5V27C19.25 26.8674 19.1973 26.7402 19.1036 26.6464C19.0098 26.5527 18.8826 26.5 18.75 26.5C18.6174 26.5 18.4902 26.5527 18.3964 26.6464C18.3027 26.7402 18.25 26.8674 18.25 27V27.5C18.25 27.6326 18.3027 27.7598 18.3965 27.8535C18.4902 27.9473 18.6174 28 18.75 28ZM38.5 18.25V33H39.5V18.25C39.4996 17.8523 39.3414 17.471 39.0602 17.1898C38.779 16.9086 38.3977 16.7504 38 16.75H34.75V17.75H38C38.1326 17.7501 38.2597 17.8029 38.3534 17.8966C38.4471 17.9903 38.4999 18.1174 38.5 18.25ZM12.5 18.25C12.5001 18.1174 12.5529 17.9903 12.6466 17.8966C12.7403 17.8029 12.8674 17.7501 13 17.75H17.25V16.75H13C12.6023 16.7504 12.221 16.9086 11.9398 17.1898C11.6586 17.471 11.5004 17.8523 11.5 18.25V33H12.5V18.25ZM22 20H28.6554C29.0219 19.5909 29.4598 19.252 29.9478 19H22C21.8674 19 21.7402 19.0527 21.6464 19.1464C21.5527 19.2402 21.5 19.3674 21.5 19.5C21.5 19.6326 21.5527 19.7598 21.6464 19.8536C21.7402 19.9473 21.8674 20 22 20Z" fill="url(#paint1_linear_12262_142167)"/>
<path d="M19.25 20.5469V14.5C19.2501 14.3674 19.3029 14.2403 19.3966 14.1466C19.4903 14.0529 19.6174 14.0001 19.75 14H32.25C32.3826 14.0001 32.5097 14.0529 32.6034 14.1466C32.6971 14.2403 32.7499 14.3674 32.75 14.5V18.5677C33.0934 18.6239 33.429 18.7201 33.75 18.8542V14.5C33.7496 14.1023 33.5914 13.721 33.3102 13.4398C33.029 13.1586 32.6477 13.0004 32.25 13H19.75C19.3523 13.0004 18.971 13.1586 18.6898 13.4398C18.4086 13.721 18.2504 14.1023 18.25 14.5V20.5469C18.5804 20.4844 18.9196 20.4844 19.25 20.5469ZM28.7988 31.9578C28.8878 31.9963 28.986 32.0084 29.0817 31.9925C29.1773 31.9766 29.2664 31.9335 29.3381 31.8683L31.3734 30H32.25C32.6477 29.9996 33.029 29.8414 33.3102 29.5602C33.5914 29.279 33.7496 28.8977 33.75 28.5V27.1458C33.429 27.2799 33.0934 27.3761 32.75 27.4323V28.5C32.7499 28.6326 32.6971 28.7597 32.6034 28.8534C32.5097 28.9471 32.3826 28.9999 32.25 29H31.1787C31.0535 29 30.9328 29.047 30.8406 29.1317L29.5 30.3623V29.5C29.5 29.3674 29.4473 29.2402 29.3535 29.1465C29.2598 29.0527 29.1326 29 29 29H22.9496C22.8746 29.363 22.7194 29.7047 22.4952 30H28.5V31.5C28.5 31.5971 28.5282 31.6921 28.5813 31.7733C28.6344 31.8546 28.71 31.9187 28.7988 31.9578ZM22 22H27.6159C27.6952 21.6535 27.8158 21.3178 27.9748 21H22C21.8674 21 21.7402 21.0527 21.6464 21.1464C21.5527 21.2402 21.5 21.3674 21.5 21.5C21.5 21.6326 21.5527 21.7598 21.6464 21.8536C21.7402 21.9473 21.8674 22 22 22ZM31.2927 22.9406C31.1867 22.8611 31.0534 22.827 30.9222 22.8457C30.791 22.8645 30.6726 22.9346 30.593 23.0406C30.5135 23.1466 30.4792 23.2798 30.4979 23.411C30.5165 23.5422 30.5865 23.6607 30.6924 23.7404L31.3663 24.2463C31.4673 24.3187 31.5911 24.352 31.7148 24.3398C31.8384 24.3277 31.9534 24.2711 32.0385 24.1805L33.2243 22.8606C33.3129 22.7619 33.3587 22.6321 33.3516 22.4997C33.3445 22.3673 33.2851 22.2432 33.1864 22.1545C33.0878 22.0659 32.958 22.0201 32.8255 22.0272C32.6931 22.0343 32.569 22.0937 32.4804 22.1924L31.6006 23.1716L31.2927 22.9406ZM21.9901 23.999C21.9935 23.9991 21.9966 24 22 24H27.6159C27.5399 23.6721 27.501 23.3366 27.5 23H22C21.8937 23.0002 21.7902 23.0347 21.705 23.0982C21.7339 23.2696 21.749 23.443 21.75 23.6168V23.8383C21.833 23.8872 21.9132 23.9409 21.9901 23.999ZM28.6554 26C28.3847 25.6987 28.1558 25.3624 27.9748 25H22.7887C22.928 25.315 22.9999 25.6556 23 26H28.6554Z" fill="url(#paint2_linear_12262_142167)"/>
</g>
<defs>
<linearGradient id="paint0_linear_12262_142167" x1="9.5" y1="32.6" x2="34.6484" y2="14.0908" gradientUnits="userSpaceOnUse">
<stop stop-color="#0575E6"/>
<stop offset="1" stop-color="#021B79"/>
</linearGradient>
<linearGradient id="paint1_linear_12262_142167" x1="11.5" y1="29.425" x2="32.3353" y2="12.9106" gradientUnits="userSpaceOnUse">
<stop stop-color="#0575E6"/>
<stop offset="1" stop-color="#021B79"/>
</linearGradient>
<linearGradient id="paint2_linear_12262_142167" x1="18.25" y1="27.8194" x2="34.7115" y2="21.6418" gradientUnits="userSpaceOnUse">
<stop stop-color="#0575E6"/>
<stop offset="1" stop-color="#021B79"/>
</linearGradient>
<clipPath id="clip0_12262_142167">
<rect width="32" height="32" fill="white" transform="translate(9.5 9)"/>
</clipPath>
</defs>
</svg>
