<svg width="51" height="50" viewBox="0 0 51 50" fill="none" xmlns="http://www.w3.org/2000/svg">
<rect x="0.5" width="50" height="50" rx="25" fill="#DBE9FE"/>
<path d="M17.0893 34.8546C17.2843 35.0496 17.5402 35.1476 17.7962 35.1476C18.0522 35.1476 18.3083 35.0496 18.5033 34.8546L23.7992 29.5586C24.1902 29.1676 24.1902 28.5356 23.7992 28.1446C23.4082 27.7536 22.7763 27.7536 22.3853 28.1446L18.7962 31.7336V15.8516C18.7962 15.2996 18.3482 14.8516 17.7962 14.8516C17.2442 14.8516 16.7962 15.2996 16.7962 15.8516V31.7336L13.2072 28.1446C12.8162 27.7536 12.1842 27.7536 11.7932 28.1446C11.4022 28.5356 11.4022 29.1676 11.7932 29.5586L17.0893 34.8546Z" fill="url(#paint0_linear_12262_141963)"/>
<path d="M29.3511 14.8516C23.7551 14.8516 19.2031 19.4036 19.2031 24.9996C19.2031 26.0016 19.3491 26.9926 19.6371 27.9436C19.7971 28.4726 20.3581 28.7706 20.8841 28.6106C21.4131 28.4506 21.7121 27.8926 21.5511 27.3636C21.3201 26.5996 21.2031 25.8046 21.2031 24.9986C21.2031 20.5056 24.8581 16.8506 29.3511 16.8506C33.8441 16.8516 37.4991 20.5066 37.4991 24.9996C37.4991 29.4926 33.8441 33.1476 29.3511 33.1476C27.4841 33.1476 25.7281 32.5336 24.2731 31.3726C23.8411 31.0296 23.2131 31.0996 22.8671 31.5306C22.5231 31.9626 22.5931 32.5916 23.0251 32.9366C24.8121 34.3626 27.0591 35.1486 29.3511 35.1486C34.9471 35.1476 39.4991 30.5956 39.4991 24.9996C39.4991 19.4036 34.9471 14.8516 29.3511 14.8516Z" fill="url(#paint1_linear_12262_141963)"/>
<path d="M30.3066 28.262H28.3946C27.7716 28.262 27.2656 27.755 27.2656 27.133C27.2656 26.581 26.8176 26.133 26.2656 26.133C25.7136 26.133 25.2656 26.581 25.2656 27.133C25.2656 28.844 26.6466 30.234 28.3506 30.258V30.633C28.3506 31.185 28.7986 31.633 29.3506 31.633C29.9026 31.633 30.3506 31.185 30.3506 30.633V30.258C32.0556 30.234 33.4356 28.844 33.4356 27.133C33.4356 25.407 32.0316 24.004 30.3066 24.004H28.3946C27.7716 24.004 27.2656 23.497 27.2656 22.875C27.2656 22.253 27.7726 21.746 28.3946 21.746H30.3066C30.9296 21.746 31.4356 22.253 31.4356 22.875C31.4356 23.427 31.8836 23.875 32.4356 23.875C32.9876 23.875 33.4356 23.427 33.4356 22.875C33.4356 21.165 32.0556 19.775 30.3506 19.75V19.375C30.3506 18.823 29.9026 18.375 29.3506 18.375C28.7986 18.375 28.3506 18.823 28.3506 19.375V19.75C26.6456 19.774 25.2656 21.164 25.2656 22.875C25.2656 24.601 26.6696 26.004 28.3946 26.004H30.3066C30.9296 26.004 31.4356 26.511 31.4356 27.133C31.4356 27.755 30.9286 28.262 30.3066 28.262Z" fill="url(#paint2_linear_12262_141963)"/>
<defs>
<linearGradient id="paint0_linear_12262_141963" x1="11.5" y1="30.6824" x2="25.6079" y2="26.656" gradientUnits="userSpaceOnUse">
<stop stop-color="#0575E6"/>
<stop offset="1" stop-color="#021B79"/>
</linearGradient>
<linearGradient id="paint1_linear_12262_141963" x1="19.2031" y1="30.6832" x2="39.4995" y2="21.3474" gradientUnits="userSpaceOnUse">
<stop stop-color="#0575E6"/>
<stop offset="1" stop-color="#021B79"/>
</linearGradient>
<linearGradient id="paint2_linear_12262_141963" x1="25.2656" y1="28.7162" x2="34.4282" y2="26.119" gradientUnits="userSpaceOnUse">
<stop stop-color="#0575E6"/>
<stop offset="1" stop-color="#021B79"/>
</linearGradient>
</defs>
</svg>
