<svg width="51" height="50" viewBox="0 0 51 50" fill="none" xmlns="http://www.w3.org/2000/svg">
<rect x="0.5" width="50" height="50" rx="25" fill="#DBE9FE"/>
<path d="M15.6873 18.4804C15.6842 18.4924 15.6826 18.504 15.6843 18.5167C15.6844 18.5198 15.6846 18.5228 15.6847 18.5259C15.8856 23.5598 22.6949 23.5561 22.8941 18.5259C22.8942 18.5228 22.8944 18.5198 22.8945 18.5167C22.8942 18.4345 22.8726 18.3523 22.8424 18.2751L20.0997 12.8088H25.0013V24.78H22.5914C22.3153 24.78 22.0914 25.0039 22.0914 25.28V26.3999H20.8414C20.5653 26.3999 20.3414 26.6238 20.3414 26.8999V28.3301C20.3442 28.9835 21.3386 28.9842 21.3414 28.33L21.3414 27.3999C21.9298 27.3995 23.1162 27.4002 23.7013 27.3999C24.3549 27.3971 24.3553 26.4027 23.7012 26.3999L23.0914 26.3999V25.78H27.9112V26.8999C27.9112 27.176 28.1351 27.3999 28.4112 27.3999H29.6612V28.73H29.1014C28.448 28.7324 28.4473 29.7274 29.1014 29.73L30.1612 29.73C30.4374 29.73 30.6612 29.5061 30.6612 29.23V26.8999C30.6612 26.6238 30.4374 26.3999 30.1612 26.3999H28.9112V25.28C28.9112 25.0039 28.6874 24.78 28.4112 24.78H26.0013V12.8088H30.9029L28.1603 18.2751C28.13 18.3523 28.1084 18.4345 28.1081 18.5167C28.1082 18.5198 28.1084 18.5228 28.1086 18.5259C28.3094 23.5598 35.1187 23.5561 35.3179 18.5259C35.3181 18.5228 35.3182 18.5198 35.3184 18.5167C35.3181 18.4345 35.2964 18.3523 35.2662 18.2751L32.1603 12.0847C32.1387 12.0417 32.1107 12.0045 32.0783 11.9724C31.987 11.8732 31.8587 11.8088 31.7132 11.8088H26.0013V11H27.5013C28.1539 10.9974 28.1561 10.0028 27.5013 10L23.5013 10C22.8487 10.0027 22.8465 10.9971 23.5013 11L25.0013 11V11.8088H19.2894C19.1439 11.8088 19.0157 11.8732 18.9243 11.9724C18.8919 12.0045 18.864 12.0417 18.8424 12.0847L15.7364 18.2751C15.7119 18.341 15.6887 18.4098 15.6873 18.4804ZM31.7132 21.3271C30.4334 21.3271 29.3663 20.321 29.148 18.9993H34.2784C34.0602 20.321 32.993 21.3271 31.7132 21.3271ZM29.4176 17.9993L31.7132 13.4238L34.0089 17.9993H29.4176ZM19.2894 21.3271C18.0096 21.3271 16.9425 20.321 16.7242 18.9993H21.8546C21.6363 20.321 20.5692 21.3271 19.2894 21.3271ZM19.2894 13.4238L21.5851 17.9993H16.9937L19.2894 13.4238Z" fill="url(#paint0_linear_12262_142037)"/>
<path d="M36.4906 29.1986C36.4628 29.0665 36.3827 28.9512 36.2685 28.8792C35.3041 28.2694 34.0063 28.3914 33.1828 29.171L31.684 30.5916L26.9833 33.4298C26.9047 33.4775 26.8143 33.5024 26.7223 33.502L25.2809 33.4959C24.4604 33.4116 24.7898 32.4097 25.3935 32.1947C27.2593 31.4311 28.3924 28.6892 27.009 27.7283C26.5827 27.44 26.0536 27.4051 25.5944 27.6351L18.7778 31.0433C18.7397 31.0623 18.7043 31.0863 18.672 31.1143L14.672 34.6143C14.1865 35.0445 14.8322 35.7965 15.3308 35.3667L19.2824 31.909L26.0417 28.5296C26.2323 28.4332 26.3898 28.5169 26.4489 28.5567C26.506 28.5955 26.6376 28.7076 26.6208 28.9122C26.5292 30.0277 25.9755 30.8262 24.9758 31.286C24.3918 31.5545 23.9728 32.0443 23.8261 32.6297C23.5723 33.5409 24.331 34.5175 25.2768 34.4959L26.7182 34.502C27.0116 34.5167 27.2651 34.4285 27.5007 34.2857L32.2472 31.4197C32.278 31.4012 32.3066 31.3795 32.3327 31.3546L33.8703 29.897C34.2377 29.5496 34.7634 29.4195 35.2487 29.5257L32.6938 33.3309C32.8216 33.5047 27.6665 37.0897 27.4758 37.276C27.1159 37.5386 26.6681 37.6834 26.2148 37.6834H20.1242C19.5627 37.6834 19.0532 37.9586 18.7609 38.4197L18.2438 39.2357C17.9003 39.7858 18.7305 40.3245 19.0886 39.7708L19.6056 38.9549C19.7133 38.785 19.9072 38.6834 20.1242 38.6834H26.2148C26.8783 38.6834 27.5356 38.4703 28.0654 38.0836L32.8307 34.6065C33.113 34.4017 33.3486 34.1566 33.5273 33.8834L36.4164 29.5806C36.4919 29.4686 36.5185 29.3306 36.4906 29.1986Z" fill="url(#paint1_linear_12262_142037)"/>
<defs>
<linearGradient id="paint0_linear_12262_142037" x1="15.6836" y1="25.3894" x2="35.3514" y2="16.3858" gradientUnits="userSpaceOnUse">
<stop stop-color="#0575E6"/>
<stop offset="1" stop-color="#021B79"/>
</linearGradient>
<linearGradient id="paint1_linear_12262_142037" x1="14.5" y1="37.2492" x2="30.621" y2="24.2166" gradientUnits="userSpaceOnUse">
<stop stop-color="#0575E6"/>
<stop offset="1" stop-color="#021B79"/>
</linearGradient>
</defs>
</svg>
