<svg width="51" height="50" viewBox="0 0 51 50" fill="none" xmlns="http://www.w3.org/2000/svg">
<rect x="0.5" width="50" height="50" rx="25" fill="#DBE9FE"/>
<g clip-path="url(#clip0_12262_142201)">
<path d="M39.2506 40.9999H11.0006C10.1603 40.9999 9.47656 40.3271 9.47656 39.4999V18.7499C9.47656 17.9226 10.1601 17.2499 11.0006 17.2499H39.2506C40.0908 17.2499 40.7746 17.9226 40.7746 18.7499V39.4999C40.7746 40.3271 40.0908 40.9999 39.2506 40.9999ZM11.0006 18.2499C10.7118 18.2499 10.4766 18.4741 10.4766 18.7499V39.4999C10.4766 39.7756 10.7116 39.9999 11.0006 39.9999H39.2506C39.5393 39.9999 39.7746 39.7756 39.7746 39.4999V18.7499C39.7746 18.4741 39.5396 18.2499 39.2506 18.2499H11.0006ZM28.4823 11.6004C28.4425 11.4738 28.3541 11.3683 28.2366 11.3069C28.119 11.2455 27.9819 11.2332 27.8553 11.2729L12.3511 16.1394C12.2809 16.1618 12.2166 16.1996 12.1628 16.2499H29.9413L28.4823 11.6004ZM36.4073 16.2499L35.7558 12.5724C35.7444 12.5077 35.7203 12.4459 35.685 12.3906C35.6497 12.3352 35.6038 12.2873 35.55 12.2497C35.4962 12.2121 35.4355 12.1854 35.3714 12.1712C35.3073 12.1571 35.241 12.1557 35.1763 12.1671L30.4846 12.9984L31.3538 15.7796L31.5461 16.2499H36.4073Z" fill="url(#paint0_linear_12262_142201)"/>
<path d="M40.5907 25.75H33.1593C32.657 25.75 32.25 26.27 32.25 26.9112V30.5893C32.25 31.2303 32.657 31.75 33.1593 31.75H40.591C41.0932 31.75 41.5003 31.2303 41.5003 30.589V26.9112C41.5 26.27 41.093 25.75 40.5907 25.75ZM34.75 29.75C34.4848 29.75 34.2304 29.6446 34.0429 29.4571C33.8554 29.2696 33.75 29.0152 33.75 28.75C33.75 28.4848 33.8554 28.2304 34.0429 28.0429C34.2304 27.8554 34.4848 27.75 34.75 27.75C35.0152 27.75 35.2696 27.8554 35.4571 28.0429C35.6446 28.2304 35.75 28.4848 35.75 28.75C35.75 29.0152 35.6446 29.2696 35.4571 29.4571C35.2696 29.6446 35.0152 29.75 34.75 29.75Z" fill="url(#paint1_linear_12262_142201)"/>
</g>
<defs>
<linearGradient id="paint0_linear_12262_142201" x1="9.47656" y1="34.4549" x2="40.2016" y2="19.5859" gradientUnits="userSpaceOnUse">
<stop stop-color="#0575E6"/>
<stop offset="1" stop-color="#021B79"/>
</linearGradient>
<linearGradient id="paint1_linear_12262_142201" x1="32.25" y1="30.43" x2="39.7071" y2="25.1415" gradientUnits="userSpaceOnUse">
<stop stop-color="#0575E6"/>
<stop offset="1" stop-color="#021B79"/>
</linearGradient>
<clipPath id="clip0_12262_142201">
<rect width="32" height="32" fill="white" transform="translate(9.5 9)"/>
</clipPath>
</defs>
</svg>
