<svg width="51" height="50" viewBox="0 0 51 50" fill="none" xmlns="http://www.w3.org/2000/svg">
<rect x="0.5" width="50" height="50" rx="25" fill="#DBE9FE"/>
<path d="M38.919 33.3035C39.579 32.7525 40 31.925 40 31C40 29.5165 38.9165 28.2845 37.5 28.045V25C37.5 24.7235 37.276 24.5 37 24.5H27.5V24C27.5 23.7235 27.276 23.5 27 23.5H26V21.9745C28.523 21.7225 30.5 19.588 30.5 17C30.5 14.243 28.257 12 25.5 12C22.743 12 20.5 14.243 20.5 17C20.5 19.588 22.477 21.723 25 21.9745V23.5H24C23.724 23.5 23.5 23.7235 23.5 24V24.5H14C13.724 24.5 13.5 24.7235 13.5 25V28.045C12.0835 28.2845 11 29.5165 11 31C11 31.925 11.421 32.7525 12.081 33.3035C10.857 33.849 10 35.0755 10 36.5V40C10 40.2765 10.224 40.5 10.5 40.5H17.5C17.776 40.5 18 40.2765 18 40V36.5C18 35.0755 17.143 33.849 15.919 33.3035C16.579 32.7525 17 31.925 17 31C17 29.5165 15.9165 28.2845 14.5 28.045V25.5H23.5V26C23.5 26.2765 23.724 26.5 24 26.5H25V28.045C23.5835 28.284 22.5 29.516 22.5 31C22.5 31.925 22.921 32.7525 23.581 33.3035C22.357 33.849 21.5 35.0755 21.5 36.5V40C21.5 40.2765 21.724 40.5 22 40.5H29C29.276 40.5 29.5 40.2765 29.5 40V36.5C29.5 35.0755 28.643 33.849 27.419 33.3035C28.079 32.7525 28.5 31.925 28.5 31C28.5 29.5165 27.4165 28.2845 26 28.045V26.5H27C27.276 26.5 27.5 26.2765 27.5 26V25.5H36.5V28.045C35.0835 28.284 34 29.516 34 31C34 31.925 34.421 32.7525 35.081 33.3035C33.857 33.849 33 35.0755 33 36.5V40C33 40.2765 33.224 40.5 33.5 40.5H40.5C40.776 40.5 41 40.2765 41 40V36.5C41 35.0755 40.143 33.849 38.919 33.3035ZM21.5 17C21.5 16.8305 21.514 16.664 21.5345 16.5H22.521C22.5125 16.6665 22.5 16.832 22.5 17C22.5 17.168 22.5125 17.3335 22.521 17.5H21.5345C21.514 17.336 21.5 17.1695 21.5 17ZM23.5 17C23.5 16.832 23.5115 16.666 23.521 16.5H25V17.5H23.521C23.5115 17.334 23.5 17.168 23.5 17ZM25 14.4025V15.5H23.634C23.7045 15.104 23.807 14.7155 23.934 14.335C24.2845 14.3715 24.641 14.391 25 14.4025ZM27.066 14.335C27.193 14.7155 27.2955 15.104 27.366 15.5H26V14.4025C26.359 14.391 26.7155 14.3715 27.066 14.335ZM29.5 17C29.5 17.1695 29.486 17.336 29.4655 17.5H28.479C28.4875 17.3335 28.5 17.168 28.5 17C28.5 16.832 28.4875 16.6665 28.479 16.5H29.4655C29.486 16.664 29.5 16.8305 29.5 17ZM27.5 17C27.5 17.168 27.4885 17.334 27.479 17.5H26V16.5H27.479C27.4885 16.666 27.5 16.832 27.5 17ZM26 19.599V18.5H27.366C27.295 18.8965 27.193 19.285 27.0655 19.6665C26.7135 19.63 26.3575 19.6105 26 19.599ZM25 18.5V19.599C24.6425 19.6105 24.2865 19.63 23.9345 19.6665C23.807 19.2855 23.705 18.897 23.634 18.5H25ZM27.075 20.6755C26.5915 20.884 26.059 21 25.5 21C24.941 21 24.4085 20.884 23.925 20.6755C24.961 20.5605 26.039 20.5605 27.075 20.6755ZM28.299 19.853C28.222 19.838 28.1445 19.8235 28.067 19.81C28.201 19.3815 28.3075 18.945 28.378 18.5005H29.2055C28.9975 19.012 28.6875 19.4715 28.299 19.853ZM29.2055 15.5H28.378C28.3075 15.055 28.2005 14.619 28.067 14.1905C28.1445 14.177 28.222 14.162 28.299 14.147C28.6875 14.5285 28.9975 14.988 29.2055 15.5ZM27.075 13.324C26.039 13.439 24.961 13.439 23.925 13.324C24.409 13.116 24.941 13 25.5 13C26.059 13 26.591 13.116 27.075 13.324ZM22.701 14.1475C22.778 14.1625 22.8555 14.177 22.933 14.191C22.799 14.6195 22.6925 15.0555 22.622 15.5005H21.7945C22.0025 14.988 22.3125 14.5285 22.701 14.1475ZM21.7945 18.5H22.622C22.6925 18.945 22.7995 19.381 22.933 19.8095C22.855 19.823 22.778 19.8375 22.701 19.8525C22.3125 19.4715 22.0025 19.012 21.7945 18.5ZM14.09 34L14.476 35.9295L14 36.882L13.524 35.93L13.91 34H14.09ZM17 36.5V39.5H11V36.5C11 35.3395 11.7985 34.37 12.872 34.0895L12.51 35.902C12.488 36.011 12.5035 36.124 12.553 36.224L13.553 38.224C13.6375 38.393 13.8105 38.5 14 38.5C14.1895 38.5 14.3625 38.393 14.4475 38.2235L15.4475 36.2235C15.497 36.124 15.5125 36.0105 15.4905 35.9015L15.128 34.0895C16.2015 34.37 17 35.3395 17 36.5ZM14 33C12.897 33 12 32.103 12 31C12 30.9145 12.015 30.833 12.025 30.7505C12.664 30.9145 13.3255 31 14 31C14.6745 31 15.336 30.9145 15.975 30.7505C15.985 30.833 16 30.9145 16 31C16 32.103 15.103 33 14 33ZM15.6005 29.813C14.5575 30.057 13.442 30.057 12.399 29.813C12.764 29.3225 13.343 29 14 29C14.657 29 15.236 29.3225 15.6005 29.813ZM25.59 34L25.976 35.9295L25.5 36.882L25.024 35.93L25.41 34H25.59ZM28.5 36.5V39.5H22.5V36.5C22.5 35.3395 23.2985 34.37 24.372 34.0895L24.0095 35.9015C23.9875 36.0105 24.003 36.1235 24.0525 36.2235L25.0525 38.2235C25.1375 38.393 25.3105 38.5 25.5 38.5C25.6895 38.5 25.8625 38.393 25.9475 38.2235L26.9475 36.2235C26.997 36.124 27.0125 36.0105 26.9905 35.9015L26.628 34.0895C27.7015 34.37 28.5 35.3395 28.5 36.5ZM25.5 33C24.397 33 23.5 32.103 23.5 31C23.5 30.9145 23.515 30.833 23.525 30.7505C24.164 30.9145 24.8255 31 25.5 31C26.1745 31 26.836 30.9145 27.475 30.7505C27.485 30.833 27.5 30.9145 27.5 31C27.5 32.103 26.603 33 25.5 33ZM27.1005 29.813C26.0575 30.057 24.942 30.057 23.899 29.813C24.264 29.3225 24.843 29 25.5 29C26.157 29 26.736 29.3225 27.1005 29.813ZM26.5 25.5H24.5V24.5H26.5V25.5ZM37.476 35.9295L37 36.882L36.524 35.93L36.91 34H37.0905L37.476 35.9295ZM37 29C37.657 29 38.236 29.3225 38.6005 29.813C37.5575 30.057 36.442 30.057 35.399 29.813C35.764 29.3225 36.343 29 37 29ZM35.025 30.7505C35.664 30.9145 36.3255 31 37 31C37.6745 31 38.336 30.9145 38.975 30.7505C38.985 30.833 39 30.9145 39 31C39 32.103 38.103 33 37 33C35.897 33 35 32.103 35 31C35 30.9145 35.015 30.833 35.025 30.7505ZM40 39.5H34V36.5C34 35.3395 34.7985 34.37 35.872 34.0895L35.5095 35.9015C35.4875 36.0105 35.503 36.1235 35.5525 36.2235L36.5525 38.2235C36.6375 38.393 36.8105 38.5 37 38.5C37.1895 38.5 37.3625 38.393 37.4475 38.2235L38.4475 36.2235C38.497 36.124 38.5125 36.0105 38.4905 35.9015L38.128 34.0895C39.2015 34.37 40 35.3395 40 36.5V39.5Z" fill="url(#paint0_linear_12262_142151)"/>
<path d="M26 9.5H25V11H26V9.5Z" fill="url(#paint1_linear_12262_142151)"/>
<path d="M33 16.5H31.5V17.5H33V16.5Z" fill="url(#paint2_linear_12262_142151)"/>
<path d="M19.5 16.5H18V17.5H19.5V16.5Z" fill="url(#paint3_linear_12262_142151)"/>
<path d="M30.0977 20.8866L29.3906 21.5938L30.4513 22.6544L31.1584 21.9473L30.0977 20.8866Z" fill="url(#paint4_linear_12262_142151)"/>
<path d="M20.5508 11.3398L19.8438 12.0469L20.9044 13.1075L21.6115 12.4004L20.5508 11.3398Z" fill="url(#paint5_linear_12262_142151)"/>
<path d="M30.4513 11.3456L29.3906 12.4062L30.0977 13.1133L31.1584 12.0527L30.4513 11.3456Z" fill="url(#paint6_linear_12262_142151)"/>
<path d="M20.9044 20.8924L19.8438 21.9531L20.5509 22.6602L21.6115 21.5995L20.9044 20.8924Z" fill="url(#paint7_linear_12262_142151)"/>
<defs>
<linearGradient id="paint0_linear_12262_142151" x1="10" y1="34.23" x2="40.0392" y2="19.1998" gradientUnits="userSpaceOnUse">
<stop stop-color="#0575E6"/>
<stop offset="1" stop-color="#021B79"/>
</linearGradient>
<linearGradient id="paint1_linear_12262_142151" x1="25" y1="10.67" x2="26.1075" y2="10.3304" gradientUnits="userSpaceOnUse">
<stop stop-color="#0575E6"/>
<stop offset="1" stop-color="#021B79"/>
</linearGradient>
<linearGradient id="paint2_linear_12262_142151" x1="31.5" y1="17.28" x2="32.7312" y2="16.4305" gradientUnits="userSpaceOnUse">
<stop stop-color="#0575E6"/>
<stop offset="1" stop-color="#021B79"/>
</linearGradient>
<linearGradient id="paint3_linear_12262_142151" x1="18" y1="17.28" x2="19.2312" y2="16.4305" gradientUnits="userSpaceOnUse">
<stop stop-color="#0575E6"/>
<stop offset="1" stop-color="#021B79"/>
</linearGradient>
<linearGradient id="paint4_linear_12262_142151" x1="30.218" y1="22.4211" x2="30.7609" y2="21.3978" gradientUnits="userSpaceOnUse">
<stop stop-color="#0575E6"/>
<stop offset="1" stop-color="#021B79"/>
</linearGradient>
<linearGradient id="paint5_linear_12262_142151" x1="20.6711" y1="12.8742" x2="21.214" y2="11.8509" gradientUnits="userSpaceOnUse">
<stop stop-color="#0575E6"/>
<stop offset="1" stop-color="#021B79"/>
</linearGradient>
<linearGradient id="paint6_linear_12262_142151" x1="29.9422" y1="12.9578" x2="30.212" y2="11.4865" gradientUnits="userSpaceOnUse">
<stop stop-color="#0575E6"/>
<stop offset="1" stop-color="#021B79"/>
</linearGradient>
<linearGradient id="paint7_linear_12262_142151" x1="20.3953" y1="22.5047" x2="20.6652" y2="21.0333" gradientUnits="userSpaceOnUse">
<stop stop-color="#0575E6"/>
<stop offset="1" stop-color="#021B79"/>
</linearGradient>
</defs>
</svg>
