<svg width="51" height="50" viewBox="0 0 51 50" fill="none" xmlns="http://www.w3.org/2000/svg">
<rect x="0.5" width="50" height="50" rx="25" fill="#DBE9FE"/>
<path d="M24.4571 22.2971C24.4178 22.2087 24.3537 22.1336 24.2726 22.0808C24.1915 22.0281 24.0968 22 24.0001 22C23.9033 22 23.8086 22.0281 23.7275 22.0808C23.6464 22.1336 23.5823 22.2087 23.5431 22.2971L21.5431 26.7971C21.4892 26.9183 21.4857 27.056 21.5334 27.1797C21.581 27.3035 21.6759 27.4033 21.7971 27.4571C21.9183 27.511 22.0559 27.5145 22.1797 27.4668C22.3034 27.4192 22.4032 27.3243 22.4571 27.2031L22.9921 26.0001H23.0001H25.0001H25.0081L25.5431 27.2046C25.5969 27.3258 25.6967 27.4207 25.8205 27.4683C25.9442 27.516 26.0819 27.5125 26.2031 27.4586C26.3243 27.4048 26.4191 27.305 26.4667 27.1812C26.5144 27.0575 26.5109 26.9198 26.4571 26.7986L24.4571 22.2971ZM23.4361 25.0001L24.0001 23.7311L24.5641 25.0001H23.4361ZM28.0001 22.0001C27.8675 22.0001 27.7403 22.0528 27.6465 22.1466C27.5527 22.2404 27.5001 22.3675 27.5001 22.5001V27.0001C27.5001 27.1328 27.5527 27.2599 27.6465 27.3537C27.7403 27.4475 27.8675 27.5001 28.0001 27.5001C28.1327 27.5001 28.2598 27.4475 28.3536 27.3537C28.4474 27.2599 28.5001 27.1328 28.5001 27.0001V22.5001C28.5001 22.3675 28.4474 22.2404 28.3536 22.1466C28.2598 22.0528 28.1327 22.0001 28.0001 22.0001Z" fill="url(#paint0_linear_12262_142095)"/>
<path d="M37.7484 23.4984C37.4393 23.4997 37.1381 23.5964 36.886 23.7754C36.634 23.9544 36.4434 24.2069 36.3404 24.4984H32.7484V22.9984H33.2484C33.6462 22.9984 34.0278 22.8404 34.3091 22.5591C34.5904 22.2778 34.7484 21.8962 34.7484 21.4984V20.4064C35.082 20.2885 35.3632 20.0564 35.5422 19.7512C35.7213 19.446 35.7866 19.0873 35.7268 18.7385C35.667 18.3898 35.4858 18.0734 35.2152 17.8453C34.9447 17.6173 34.6022 17.4922 34.2484 17.4922C33.8946 17.4922 33.5521 17.6173 33.2816 17.8453C33.011 18.0734 32.8298 18.3898 32.77 18.7385C32.7102 19.0873 32.7755 19.446 32.9546 19.7512C33.1336 20.0564 33.4148 20.2885 33.7484 20.4064V21.4984C33.7484 21.631 33.6957 21.7582 33.602 21.852C33.5082 21.9457 33.381 21.9984 33.2484 21.9984H32.7484V21.7484C32.7472 20.6879 32.3254 19.6712 31.5755 18.9213C30.8256 18.1714 29.8089 17.7496 28.7484 17.7484H28.4984V17.2484C28.4984 17.1158 28.5511 16.9886 28.6448 16.8948C28.7386 16.8011 28.8658 16.7484 28.9984 16.7484H30.0904C30.2083 17.082 30.4404 17.3632 30.7456 17.5422C31.0508 17.7213 31.4095 17.7866 31.7583 17.7268C32.107 17.667 32.4234 17.4858 32.6515 17.2152C32.8795 16.9447 33.0046 16.6022 33.0046 16.2484C33.0046 15.8946 32.8795 15.5521 32.6515 15.2816C32.4234 15.011 32.107 14.8298 31.7583 14.77C31.4095 14.7102 31.0508 14.7755 30.7456 14.9546C30.4404 15.1336 30.2083 15.4148 30.0904 15.7484H28.9984C28.6006 15.7484 28.219 15.9064 27.9377 16.1877C27.6564 16.469 27.4984 16.8506 27.4984 17.2484V17.7484H25.9984V14.1564C26.332 14.0385 26.6132 13.8064 26.7922 13.5012C26.9713 13.196 27.0366 12.8373 26.9768 12.4885C26.917 12.1398 26.7358 11.8234 26.4652 11.5953C26.1947 11.3673 25.8522 11.2422 25.4984 11.2422C25.1446 11.2422 24.8021 11.3673 24.5316 11.5953C24.261 11.8234 24.0798 12.1398 24.02 12.4885C23.9602 12.8373 24.0255 13.196 24.2046 13.5012C24.3836 13.8064 24.6648 14.0385 24.9984 14.1564V17.7484H23.4984V17.2484C23.4984 16.8506 23.3404 16.469 23.0591 16.1877C22.7778 15.9064 22.3962 15.7484 21.9984 15.7484H20.9064C20.7885 15.4148 20.5564 15.1336 20.2512 14.9546C19.946 14.7755 19.5873 14.7102 19.2385 14.77C18.8898 14.8298 18.5734 15.011 18.3453 15.2816C18.1173 15.5521 17.9922 15.8946 17.9922 16.2484C17.9922 16.6022 18.1173 16.9447 18.3453 17.2152C18.5734 17.4858 18.8898 17.667 19.2385 17.7268C19.5873 17.7866 19.946 17.7213 20.2512 17.5422C20.5564 17.3632 20.7885 17.082 20.9064 16.7484H21.9984C22.131 16.7484 22.2582 16.8011 22.352 16.8948C22.4457 16.9886 22.4984 17.1158 22.4984 17.2484V17.7484H22.2484C21.1879 17.7496 20.1712 18.1714 19.4213 18.9213C18.6714 19.6712 18.2496 20.6879 18.2484 21.7484V21.9984H17.4984C17.3658 21.9984 17.2386 21.9457 17.1448 21.852C17.0511 21.7582 16.9984 21.631 16.9984 21.4984V20.4064C17.332 20.2885 17.6132 20.0564 17.7922 19.7512C17.9713 19.446 18.0366 19.0873 17.9768 18.7385C17.917 18.3898 17.7358 18.0734 17.4652 17.8453C17.1947 17.6173 16.8522 17.4922 16.4984 17.4922C16.1446 17.4922 15.8021 17.6173 15.5316 17.8453C15.261 18.0734 15.0798 18.3898 15.02 18.7385C14.9602 19.0873 15.0255 19.446 15.2046 19.7512C15.3836 20.0564 15.6648 20.2885 15.9984 20.4064V21.4984C15.9984 21.8962 16.1564 22.2778 16.4377 22.5591C16.719 22.8404 17.1006 22.9984 17.4984 22.9984H18.2484V24.4984H14.4064C14.2885 24.1648 14.0564 23.8836 13.7512 23.7046C13.446 23.5255 13.0873 23.4602 12.7385 23.52C12.3898 23.5798 12.0734 23.761 11.8453 24.0316C11.6173 24.3021 11.4922 24.6446 11.4922 24.9984C11.4922 25.3522 11.6173 25.6947 11.8453 25.9652C12.0734 26.2358 12.3898 26.417 12.7385 26.4768C13.0873 26.5366 13.446 26.4713 13.7512 26.2922C14.0564 26.1132 14.2885 25.832 14.4064 25.4984H18.2484V26.9984H17.4984C17.1006 26.9984 16.719 27.1564 16.4377 27.4377C16.1564 27.719 15.9984 28.1006 15.9984 28.4984V29.5904C15.6648 29.7083 15.3836 29.9404 15.2046 30.2456C15.0255 30.5508 14.9602 30.9095 15.02 31.2583C15.0798 31.607 15.261 31.9234 15.5316 32.1515C15.8021 32.3795 16.1446 32.5046 16.4984 32.5046C16.8522 32.5046 17.1947 32.3795 17.4652 32.1515C17.7358 31.9234 17.917 31.607 17.9768 31.2583C18.0366 30.9095 17.9713 30.5508 17.7922 30.2456C17.6132 29.9404 17.332 29.7083 16.9984 29.5904V28.4984C16.9984 28.3658 17.0511 28.2386 17.1448 28.1448C17.2386 28.0511 17.3658 27.9984 17.4984 27.9984H18.2484V28.2484C18.2496 29.3089 18.6714 30.3256 19.4213 31.0755C20.1712 31.8254 21.1879 32.2472 22.2484 32.2484H22.4984V32.7484C22.4984 32.881 22.4457 33.0082 22.352 33.102C22.2582 33.1957 22.131 33.2484 21.9984 33.2484H20.9064C20.7885 32.9148 20.5564 32.6336 20.2512 32.4546C19.946 32.2755 19.5873 32.2102 19.2385 32.27C18.8898 32.3298 18.5734 32.511 18.3453 32.7816C18.1173 33.0521 17.9922 33.3946 17.9922 33.7484C17.9922 34.1022 18.1173 34.4447 18.3453 34.7152C18.5734 34.9858 18.8898 35.167 19.2385 35.2268C19.5873 35.2866 19.946 35.2213 20.2512 35.0422C20.5564 34.8632 20.7885 34.582 20.9064 34.2484H21.9984C22.3962 34.2484 22.7778 34.0904 23.0591 33.8091C23.3404 33.5278 23.4984 33.1462 23.4984 32.7484V32.2484H24.9984V35.8404C24.6648 35.9583 24.3836 36.1904 24.2046 36.4956C24.0255 36.8008 23.9602 37.1595 24.02 37.5083C24.0798 37.857 24.261 38.1734 24.5316 38.4015C24.8021 38.6295 25.1446 38.7546 25.4984 38.7546C25.8522 38.7546 26.1947 38.6295 26.4652 38.4015C26.7358 38.1734 26.917 37.857 26.9768 37.5083C27.0366 37.1595 26.9713 36.8008 26.7922 36.4956C26.6132 36.1904 26.332 35.9583 25.9984 35.8404V32.2484H27.4984V32.7484C27.4984 33.1462 27.6564 33.5278 27.9377 33.8091C28.219 34.0904 28.6006 34.2484 28.9984 34.2484H30.0904C30.2083 34.582 30.4404 34.8632 30.7456 35.0422C31.0508 35.2213 31.4095 35.2866 31.7583 35.2268C32.107 35.167 32.4234 34.9858 32.6515 34.7152C32.8795 34.4447 33.0046 34.1022 33.0046 33.7484C33.0046 33.3946 32.8795 33.0521 32.6515 32.7816C32.4234 32.511 32.107 32.3298 31.7583 32.27C31.4095 32.2102 31.0508 32.2755 30.7456 32.4546C30.4404 32.6336 30.2083 32.9148 30.0904 33.2484H28.9984C28.8658 33.2484 28.7386 33.1957 28.6448 33.102C28.5511 33.0082 28.4984 32.881 28.4984 32.7484V32.2484H28.7484C29.8089 32.2472 30.8256 31.8254 31.5755 31.0755C32.3254 30.3256 32.7472 29.3089 32.7484 28.2484V27.9984H33.2484C33.381 27.9984 33.5082 28.0511 33.602 28.1448C33.6957 28.2386 33.7484 28.3658 33.7484 28.4984V29.5904C33.4148 29.7083 33.1336 29.9404 32.9546 30.2456C32.7755 30.5508 32.7102 30.9095 32.77 31.2583C32.8298 31.607 33.011 31.9234 33.2816 32.1515C33.5521 32.3795 33.8946 32.5046 34.2484 32.5046C34.6022 32.5046 34.9447 32.3795 35.2152 32.1515C35.4858 31.9234 35.667 31.607 35.7268 31.2583C35.7866 30.9095 35.7213 30.5508 35.5422 30.2456C35.3632 29.9404 35.082 29.7083 34.7484 29.5904V28.4984C34.7484 28.1006 34.5904 27.719 34.3091 27.4377C34.0278 27.1564 33.6462 26.9984 33.2484 26.9984H32.7484V25.4984H36.3404C36.4325 25.757 36.5939 25.9853 36.807 26.1583C37.0201 26.3314 37.2766 26.4425 37.5486 26.4797C37.8206 26.5168 38.0976 26.4784 38.3492 26.3688C38.6009 26.2591 38.8175 26.0824 38.9756 25.8579C39.1336 25.6335 39.2269 25.3699 39.2452 25.096C39.2636 24.8221 39.2063 24.5485 39.0796 24.3049C38.953 24.0614 38.7618 23.8574 38.527 23.7151C38.2923 23.5729 38.0229 23.4979 37.7484 23.4984ZM34.2484 18.4984C34.3473 18.4984 34.444 18.5277 34.5262 18.5827C34.6084 18.6376 34.6725 18.7157 34.7103 18.8071C34.7482 18.8984 34.7581 18.999 34.7388 19.0959C34.7195 19.1929 34.6719 19.282 34.602 19.352C34.532 19.4219 34.4429 19.4695 34.3459 19.4888C34.249 19.5081 34.1484 19.4982 34.0571 19.4603C33.9657 19.4225 33.8876 19.3584 33.8327 19.2762C33.7777 19.194 33.7484 19.0973 33.7484 18.9984C33.7484 18.8658 33.8011 18.7386 33.8948 18.6448C33.9886 18.5511 34.1158 18.4984 34.2484 18.4984ZM31.4984 15.7484C31.5973 15.7484 31.694 15.7777 31.7762 15.8327C31.8584 15.8876 31.9225 15.9657 31.9603 16.0571C31.9982 16.1484 32.0081 16.249 31.9888 16.3459C31.9695 16.4429 31.9219 16.532 31.852 16.602C31.782 16.6719 31.6929 16.7195 31.5959 16.7388C31.499 16.7581 31.3984 16.7482 31.3071 16.7103C31.2157 16.6725 31.1376 16.6084 31.0827 16.5262C31.0277 16.444 30.9984 16.3473 30.9984 16.2484C30.9984 16.1158 31.0511 15.9886 31.1448 15.8948C31.2386 15.8011 31.3658 15.7484 31.4984 15.7484ZM25.4984 12.2484C25.5973 12.2484 25.694 12.2777 25.7762 12.3327C25.8584 12.3876 25.9225 12.4657 25.9603 12.5571C25.9982 12.6484 26.0081 12.749 25.9888 12.8459C25.9695 12.9429 25.9219 13.032 25.852 13.102C25.782 13.1719 25.6929 13.2195 25.5959 13.2388C25.499 13.2581 25.3984 13.2482 25.3071 13.2103C25.2157 13.1725 25.1376 13.1084 25.0827 13.0262C25.0277 12.944 24.9984 12.8473 24.9984 12.7484C24.9984 12.6158 25.0511 12.4886 25.1448 12.3948C25.2386 12.3011 25.3658 12.2484 25.4984 12.2484ZM19.4984 16.7484C19.3995 16.7484 19.3028 16.7191 19.2206 16.6641C19.1384 16.6092 19.0743 16.5311 19.0365 16.4397C18.9986 16.3484 18.9887 16.2478 19.008 16.1509C19.0273 16.0539 19.0749 15.9648 19.1448 15.8948C19.2148 15.8249 19.3039 15.7773 19.4009 15.758C19.4978 15.7387 19.5984 15.7486 19.6897 15.7865C19.7811 15.8243 19.8592 15.8884 19.9141 15.9706C19.9691 16.0528 19.9984 16.1495 19.9984 16.2484C19.9984 16.381 19.9457 16.5082 19.852 16.602C19.7582 16.6957 19.631 16.7484 19.4984 16.7484ZM16.4984 18.4984C16.5973 18.4984 16.694 18.5277 16.7762 18.5827C16.8584 18.6376 16.9225 18.7157 16.9603 18.8071C16.9982 18.8984 17.0081 18.999 16.9888 19.0959C16.9695 19.1929 16.9219 19.282 16.852 19.352C16.782 19.4219 16.6929 19.4695 16.5959 19.4888C16.499 19.5081 16.3984 19.4982 16.3071 19.4603C16.2157 19.4225 16.1376 19.3584 16.0827 19.2762C16.0277 19.194 15.9984 19.0973 15.9984 18.9984C15.9984 18.8658 16.0511 18.7386 16.1448 18.6448C16.2386 18.5511 16.3658 18.4984 16.4984 18.4984ZM12.9984 25.4984C12.8995 25.4984 12.8028 25.4691 12.7206 25.4141C12.6384 25.3592 12.5743 25.2811 12.5365 25.1897C12.4986 25.0984 12.4887 24.9978 12.508 24.9009C12.5273 24.8039 12.5749 24.7148 12.6448 24.6448C12.7148 24.5749 12.8039 24.5273 12.9009 24.508C12.9978 24.4887 13.0984 24.4986 13.1897 24.5365C13.2811 24.5743 13.3592 24.6384 13.4141 24.7206C13.4691 24.8028 13.4984 24.8995 13.4984 24.9984C13.4984 25.131 13.4457 25.2582 13.352 25.352C13.2582 25.4457 13.131 25.4984 12.9984 25.4984ZM16.4984 31.4984C16.3995 31.4984 16.3028 31.4691 16.2206 31.4141C16.1384 31.3592 16.0743 31.2811 16.0365 31.1897C15.9986 31.0984 15.9887 30.9978 16.008 30.9009C16.0273 30.8039 16.0749 30.7148 16.1448 30.6448C16.2148 30.5749 16.3039 30.5273 16.4009 30.508C16.4978 30.4887 16.5984 30.4986 16.6897 30.5365C16.7811 30.5743 16.8592 30.6384 16.9141 30.7206C16.9691 30.8028 16.9984 30.8995 16.9984 30.9984C16.9984 31.131 16.9457 31.2582 16.852 31.352C16.7582 31.4457 16.631 31.4984 16.4984 31.4984ZM19.4984 34.2484C19.3995 34.2484 19.3028 34.2191 19.2206 34.1641C19.1384 34.1092 19.0743 34.0311 19.0365 33.9397C18.9986 33.8484 18.9887 33.7478 19.008 33.6509C19.0273 33.5539 19.0749 33.4648 19.1448 33.3948C19.2148 33.3249 19.3039 33.2773 19.4009 33.258C19.4978 33.2387 19.5984 33.2486 19.6897 33.2865C19.7811 33.3243 19.8592 33.3884 19.9141 33.4706C19.9691 33.5528 19.9984 33.6495 19.9984 33.7484C19.9984 33.881 19.9457 34.0082 19.852 34.102C19.7582 34.1957 19.631 34.2484 19.4984 34.2484ZM25.4984 37.7484C25.3995 37.7484 25.3028 37.7191 25.2206 37.6641C25.1384 37.6092 25.0743 37.5311 25.0365 37.4397C24.9986 37.3484 24.9887 37.2478 25.008 37.1509C25.0273 37.0539 25.0749 36.9648 25.1448 36.8948C25.2148 36.8249 25.3039 36.7773 25.4009 36.758C25.4978 36.7387 25.5984 36.7486 25.6897 36.7865C25.7811 36.8243 25.8592 36.8884 25.9141 36.9706C25.9691 37.0528 25.9984 37.1495 25.9984 37.2484C25.9984 37.381 25.9457 37.5082 25.852 37.602C25.7582 37.6957 25.631 37.7484 25.4984 37.7484ZM31.4984 33.2484C31.5973 33.2484 31.694 33.2777 31.7762 33.3327C31.8584 33.3876 31.9225 33.4657 31.9603 33.5571C31.9982 33.6484 32.0081 33.749 31.9888 33.8459C31.9695 33.9429 31.9219 34.032 31.852 34.102C31.782 34.1719 31.6929 34.2195 31.5959 34.2388C31.499 34.2581 31.3984 34.2482 31.3071 34.2103C31.2157 34.1725 31.1376 34.1084 31.0827 34.0262C31.0277 33.944 30.9984 33.8473 30.9984 33.7484C30.9984 33.6158 31.0511 33.4886 31.1448 33.3948C31.2386 33.3011 31.3658 33.2484 31.4984 33.2484ZM34.2484 31.4984C34.1495 31.4984 34.0528 31.4691 33.9706 31.4141C33.8884 31.3592 33.8243 31.2811 33.7865 31.1897C33.7486 31.0984 33.7387 30.9978 33.758 30.9009C33.7773 30.8039 33.8249 30.7148 33.8948 30.6448C33.9648 30.5749 34.0539 30.5273 34.1509 30.508C34.2478 30.4887 34.3484 30.4986 34.4397 30.5365C34.5311 30.5743 34.6092 30.6384 34.6641 30.7206C34.7191 30.8028 34.7484 30.8995 34.7484 30.9984C34.7484 31.131 34.6957 31.2582 34.602 31.352C34.5082 31.4457 34.381 31.4984 34.2484 31.4984ZM31.7484 28.2484C31.7476 29.0438 31.4313 29.8064 30.8688 30.3688C30.3064 30.9313 29.5438 31.2476 28.7484 31.2484H22.2484C21.453 31.2476 20.6904 30.9313 20.128 30.3688C19.5655 29.8064 19.2492 29.0438 19.2484 28.2484V21.7484C19.2492 20.953 19.5655 20.1904 20.128 19.628C20.6904 19.0655 21.453 18.7492 22.2484 18.7484H28.7484C29.5438 18.7492 30.3064 19.0655 30.8688 19.628C31.4313 20.1904 31.7476 20.953 31.7484 21.7484V28.2484ZM37.7484 25.4984C37.6495 25.4984 37.5528 25.4691 37.4706 25.4141C37.3884 25.3592 37.3243 25.2811 37.2865 25.1897C37.2486 25.0984 37.2387 24.9978 37.258 24.9009C37.2773 24.8039 37.3249 24.7148 37.3948 24.6448C37.4648 24.5749 37.5539 24.5273 37.6509 24.508C37.7478 24.4887 37.8484 24.4986 37.9397 24.5365C38.0311 24.5743 38.1092 24.6384 38.1641 24.7206C38.2191 24.8028 38.2484 24.8995 38.2484 24.9984C38.2484 25.131 38.1957 25.2582 38.102 25.352C38.0082 25.4457 37.881 25.4984 37.7484 25.4984Z" fill="url(#paint1_linear_12262_142095)"/>
<defs>
<linearGradient id="paint0_linear_12262_142095" x1="21.5" y1="26.2913" x2="27.8173" y2="22.594" gradientUnits="userSpaceOnUse">
<stop stop-color="#0575E6"/>
<stop offset="1" stop-color="#021B79"/>
</linearGradient>
<linearGradient id="paint1_linear_12262_142095" x1="11.4922" y1="32.7019" x2="39.1625" y2="19.8607" gradientUnits="userSpaceOnUse">
<stop stop-color="#0575E6"/>
<stop offset="1" stop-color="#021B79"/>
</linearGradient>
</defs>
</svg>
