<svg width="51" height="50" viewBox="0 0 51 50" fill="none" xmlns="http://www.w3.org/2000/svg">
<rect x="0.5" width="50" height="50" rx="25" fill="#DBE9FE"/>
<path d="M31.5013 38.3307C30.0509 38.3307 28.6331 37.9006 27.4271 37.0948C26.2212 36.289 25.2812 35.1437 24.7262 33.8037C24.1711 32.4638 24.0259 30.9893 24.3089 29.5667C24.5918 28.1442 25.2903 26.8375 26.3159 25.8119C27.3414 24.7864 28.6481 24.0879 30.0706 23.805C31.4932 23.522 32.9677 23.6672 34.3076 24.2223C35.6476 24.7773 36.7929 25.7173 37.5987 26.9232C38.4045 28.1292 38.8346 29.547 38.8346 30.9974C38.8323 32.9416 38.059 34.8055 36.6842 36.1803C35.3095 37.5551 33.4455 38.3284 31.5013 38.3307ZM31.5013 24.9974C30.3146 24.9974 29.1546 25.3493 28.1679 26.0086C27.1812 26.6679 26.4122 27.6049 25.958 28.7013C25.5039 29.7977 25.3851 31.0041 25.6166 32.1679C25.8481 33.3318 26.4195 34.4009 27.2587 35.24C28.0978 36.0792 29.1669 36.6506 30.3308 36.8821C31.4946 37.1136 32.701 36.9948 33.7974 36.5407C34.8938 36.0865 35.8308 35.3175 36.4901 34.3308C37.1494 33.3441 37.5013 32.1841 37.5013 30.9974C37.4994 29.4067 36.8666 27.8817 35.7418 26.7569C34.617 25.6321 33.092 24.9993 31.5013 24.9974Z" fill="url(#paint0_linear_12262_142086)"/>
<path d="M31.501 31.6661C31.0527 31.6661 30.6145 31.5332 30.2417 31.2841C29.869 31.0351 29.5785 30.6811 29.4069 30.2669C29.2354 29.8527 29.1905 29.397 29.2779 28.9573C29.3654 28.5176 29.5813 28.1137 29.8983 27.7967C30.2153 27.4797 30.6191 27.2638 31.0588 27.1764C31.4985 27.0889 31.9543 27.1338 32.3685 27.3054C32.7826 27.4769 33.1366 27.7674 33.3857 28.1402C33.6348 28.5129 33.7677 28.9512 33.7677 29.3995C33.7677 29.5763 33.6975 29.7459 33.5724 29.8709C33.4474 29.9959 33.2779 30.0661 33.101 30.0661C32.9242 30.0661 32.7547 29.9959 32.6296 29.8709C32.5046 29.7459 32.4344 29.5763 32.4344 29.3995C32.4344 29.2149 32.3796 29.0344 32.2771 28.8809C32.1745 28.7275 32.0288 28.6078 31.8582 28.5372C31.6877 28.4666 31.5 28.4481 31.319 28.4841C31.1379 28.5201 30.9716 28.609 30.8411 28.7395C30.7105 28.87 30.6217 29.0363 30.5856 29.2174C30.5496 29.3984 30.5681 29.5861 30.6388 29.7567C30.7094 29.9272 30.829 30.073 30.9825 30.1755C31.136 30.2781 31.3164 30.3328 31.501 30.3328C31.6779 30.3328 31.8474 30.4031 31.9724 30.5281C32.0975 30.6531 32.1677 30.8227 32.1677 30.9995C32.1677 31.1763 32.0975 31.3459 31.9724 31.4709C31.8474 31.5959 31.6779 31.6661 31.501 31.6661Z" fill="url(#paint1_linear_12262_142086)"/>
<path d="M31.501 34.8693C30.8999 34.8693 30.3233 34.6305 29.8983 34.2054C29.4732 33.7803 29.2344 33.2038 29.2344 32.6026C29.2344 32.4258 29.3046 32.2562 29.4296 32.1312C29.5547 32.0062 29.7242 31.9359 29.901 31.9359C30.0779 31.9359 30.2474 32.0062 30.3724 32.1312C30.4975 32.2562 30.5677 32.4258 30.5677 32.6026C30.5677 32.7872 30.6224 32.9677 30.725 33.1211C30.8276 33.2746 30.9733 33.3943 31.1439 33.4649C31.3144 33.5355 31.5021 33.554 31.6831 33.518C31.8642 33.482 32.0305 33.3931 32.161 33.2626C32.2915 33.132 32.3804 32.9657 32.4164 32.7847C32.4525 32.6036 32.434 32.416 32.3633 32.2454C32.2927 32.0749 32.1731 31.9291 32.0196 31.8266C31.8661 31.724 31.6856 31.6693 31.501 31.6693C31.3242 31.6693 31.1547 31.599 31.0296 31.474C30.9046 31.349 30.8344 31.1794 30.8344 31.0026C30.8344 30.8258 30.9046 30.6562 31.0296 30.5312C31.1547 30.4062 31.3242 30.3359 31.501 30.3359C32.1022 30.3359 32.6787 30.5747 33.1038 30.9998C33.5289 31.4249 33.7677 32.0014 33.7677 32.6026C33.7677 33.2038 33.5289 33.7803 33.1038 34.2054C32.6787 34.6305 32.1022 34.8693 31.501 34.8693ZM31.501 28.4693C31.3242 28.4693 31.1547 28.399 31.0296 28.274C30.9046 28.149 30.8344 27.9794 30.8344 27.8026V27.0026C30.8344 26.8258 30.9046 26.6562 31.0296 26.5312C31.1547 26.4062 31.3242 26.3359 31.501 26.3359C31.6779 26.3359 31.8474 26.4062 31.9724 26.5312C32.0975 26.6562 32.1677 26.8258 32.1677 27.0026V27.8026C32.1677 27.9794 32.0975 28.149 31.9724 28.274C31.8474 28.399 31.6779 28.4693 31.501 28.4693Z" fill="url(#paint2_linear_12262_142086)"/>
<path d="M31.5015 35.6641C31.3247 35.6641 31.1552 35.5938 31.0301 35.4688C30.9051 35.3438 30.8349 35.1742 30.8349 34.9974V34.1974C30.8349 34.0206 30.9051 33.851 31.0301 33.726C31.1552 33.601 31.3247 33.5307 31.5015 33.5307C31.6784 33.5307 31.8479 33.601 31.9729 33.726C32.098 33.851 32.1682 34.0206 32.1682 34.1974V34.9974C32.1682 35.1742 32.098 35.3438 31.9729 35.4688C31.8479 35.5938 31.6784 35.6641 31.5015 35.6641ZM22.1682 31.6641C20.0662 31.6641 18.0176 31.0018 16.3135 29.7712C14.6094 28.5406 13.3364 26.8042 12.6753 24.8089C12.0143 22.8135 11.9988 20.6606 12.6311 18.6559C13.2635 16.6513 14.5114 14.8968 16.1977 13.6419C17.8839 12.3869 19.9228 11.6952 22.0246 11.6651C24.1264 11.635 26.1842 12.2679 27.9058 13.474C29.6274 14.6801 30.9251 16.398 31.6146 18.3837C32.3042 20.3694 32.3504 22.5219 31.7469 24.5354C31.6961 24.7048 31.5802 24.8471 31.4245 24.931C31.2689 25.0149 31.0863 25.0335 30.9169 24.9827C30.7475 24.932 30.6052 24.816 30.5213 24.6604C30.4374 24.5047 30.4188 24.3221 30.4695 24.1527C31.0237 22.3043 30.9452 20.3238 30.2463 18.5251C29.5474 16.7264 28.2682 15.2123 26.6115 14.223C24.9547 13.2336 23.0151 12.8254 21.1001 13.0632C19.1851 13.3009 17.4042 14.171 16.0397 15.5355C14.6752 16.9001 13.8051 18.6809 13.5673 20.5959C13.3296 22.511 13.7377 24.4505 14.7271 26.1073C15.7165 27.7641 17.2305 29.0433 19.0292 29.7421C20.8279 30.441 22.8084 30.5196 24.6569 29.9654C24.8263 29.9147 25.0089 29.9333 25.1645 30.0172C25.3202 30.1011 25.4361 30.2433 25.4869 30.4127C25.5376 30.5821 25.519 30.7647 25.4351 30.9204C25.3512 31.076 25.2089 31.192 25.0395 31.2427C24.108 31.522 23.1407 31.664 22.1682 31.6641Z" fill="url(#paint3_linear_12262_142086)"/>
<path d="M22.1654 29.0026C20.715 29.0026 19.2971 28.5725 18.0912 27.7667C16.8852 26.9609 15.9453 25.8156 15.3903 24.4756C14.8352 23.1356 14.69 21.6611 14.9729 20.2386C15.2559 18.8161 15.9543 17.5094 16.9799 16.4838C18.0055 15.4582 19.3122 14.7598 20.7347 14.4768C22.1572 14.1939 23.6317 14.3391 24.9717 14.8942C26.3117 15.4492 27.457 16.3891 28.2628 17.5951C29.0686 18.8011 29.4987 20.2189 29.4987 21.6693C29.5049 23.2647 28.9837 24.8175 28.016 26.0859C27.9638 26.1575 27.8978 26.2179 27.8219 26.2636C27.746 26.3094 27.6617 26.3395 27.574 26.3523C27.4864 26.3651 27.397 26.3603 27.3112 26.3382C27.2254 26.3161 27.1449 26.277 27.0743 26.2234C27.0038 26.1698 26.9446 26.1027 26.9003 26.0259C26.856 25.9492 26.8275 25.8644 26.8163 25.7765C26.8052 25.6885 26.8117 25.5993 26.8355 25.5139C26.8592 25.4286 26.8998 25.3488 26.9547 25.2793C27.7452 24.2423 28.1708 22.9732 28.1654 21.6693C28.1654 20.4826 27.8135 19.3225 27.1542 18.3359C26.4949 17.3492 25.5578 16.5801 24.4615 16.126C23.3651 15.6719 22.1587 15.5531 20.9948 15.7846C19.8309 16.0161 18.7618 16.5875 17.9227 17.4266C17.0836 18.2657 16.5122 19.3348 16.2807 20.4987C16.0491 21.6626 16.168 22.869 16.6221 23.9654C17.0762 25.0617 17.8453 25.9988 18.8319 26.6581C19.8186 27.3174 20.9787 27.6693 22.1654 27.6693C23.4693 27.6747 24.7384 27.2491 25.7754 26.4586C25.8449 26.4037 25.9247 26.3631 26.01 26.3394C26.0954 26.3156 26.1846 26.3091 26.2726 26.3203C26.3605 26.3314 26.4453 26.3599 26.522 26.4042C26.5988 26.4485 26.6659 26.5077 26.7195 26.5782C26.7731 26.6488 26.8122 26.7293 26.8343 26.8151C26.8564 26.9009 26.8612 26.9903 26.8484 27.0779C26.8356 27.1656 26.8055 27.2499 26.7597 27.3258C26.714 27.4017 26.6536 27.4677 26.582 27.5199C25.3135 28.4876 23.7608 29.0089 22.1654 29.0026Z" fill="url(#paint4_linear_12262_142086)"/>
<path d="M23.5 23.6667C23.3232 23.6666 23.1537 23.5964 23.0287 23.4713L21.6953 22.138C21.5703 22.013 21.5 21.8435 21.5 21.6667V17.6667C21.5 17.4899 21.5702 17.3203 21.6953 17.1953C21.8203 17.0702 21.9899 17 22.1667 17C22.3435 17 22.513 17.0702 22.6381 17.1953C22.7631 17.3203 22.8333 17.4899 22.8333 17.6667V21.3907L23.9713 22.5287C24.0645 22.6219 24.128 22.7407 24.1537 22.87C24.1794 22.9993 24.1662 23.1333 24.1158 23.2551C24.0653 23.3769 23.9799 23.481 23.8703 23.5543C23.7607 23.6275 23.6318 23.6666 23.5 23.6667Z" fill="url(#paint5_linear_12262_142086)"/>
<defs>
<linearGradient id="paint0_linear_12262_142086" x1="24.168" y1="35.1041" x2="38.8346" y2="28.3574" gradientUnits="userSpaceOnUse">
<stop stop-color="#0575E6"/>
<stop offset="1" stop-color="#021B79"/>
</linearGradient>
<linearGradient id="paint1_linear_12262_142086" x1="29.2344" y1="30.6688" x2="33.7677" y2="28.5835" gradientUnits="userSpaceOnUse">
<stop stop-color="#0575E6"/>
<stop offset="1" stop-color="#021B79"/>
</linearGradient>
<linearGradient id="paint2_linear_12262_142086" x1="29.2344" y1="32.9919" x2="34.4174" y2="31.7253" gradientUnits="userSpaceOnUse">
<stop stop-color="#0575E6"/>
<stop offset="1" stop-color="#021B79"/>
</linearGradient>
<linearGradient id="paint3_linear_12262_142086" x1="12.168" y1="30.3841" x2="33.2956" y2="22.285" gradientUnits="userSpaceOnUse">
<stop stop-color="#0575E6"/>
<stop offset="1" stop-color="#021B79"/>
</linearGradient>
<linearGradient id="paint4_linear_12262_142086" x1="14.832" y1="25.776" x2="29.4988" y2="19.0293" gradientUnits="userSpaceOnUse">
<stop stop-color="#0575E6"/>
<stop offset="1" stop-color="#021B79"/>
</linearGradient>
<linearGradient id="paint5_linear_12262_142086" x1="21.5" y1="22.2" x2="24.625" y2="21.625" gradientUnits="userSpaceOnUse">
<stop stop-color="#0575E6"/>
<stop offset="1" stop-color="#021B79"/>
</linearGradient>
</defs>
</svg>
