<svg width="51" height="50" viewBox="0 0 51 50" fill="none" xmlns="http://www.w3.org/2000/svg">
<rect x="0.5" width="50" height="50" rx="25" fill="#DBE9FE"/>
<path d="M16.1916 29.2031C16.0766 29.2031 15.9626 29.1641 15.8676 29.0841C15.6576 28.9051 15.6316 28.5891 15.8096 28.3791L16.0566 28.0881C18.1236 26.0191 21.1976 25.5631 23.7336 26.9241C23.9766 27.0541 24.0686 27.3571 23.9376 27.6011C23.8076 27.8441 23.5046 27.9361 23.2606 27.8051C21.1156 26.6561 18.5146 27.0401 16.7906 28.7651L16.5716 29.0261C16.4746 29.1431 16.3336 29.2031 16.1916 29.2031Z" fill="url(#paint0_linear_12262_142109)"/>
<path d="M30.9223 31H23.5273C23.2513 31 23.0273 30.776 23.0273 30.5C23.0273 30.224 23.2513 30 23.5273 30H30.3893C30.3483 29.727 30.2593 29.393 30.0593 29.082C29.5993 28.364 28.7023 28 27.3953 28H27.3913H23.6583C23.3823 28 23.1583 27.776 23.1583 27.5C23.1583 27.224 23.3823 27 23.6583 27H27.3903H27.3943C29.0643 27 30.2443 27.519 30.9003 28.542C31.4213 29.354 31.4213 30.217 31.4213 30.5C31.4223 30.776 31.1983 31 30.9223 31Z" fill="url(#paint1_linear_12262_142109)"/>
<path d="M38.0224 26.5712C37.7364 26.2032 36.6444 25.0992 34.6234 26.3102C33.7794 26.8182 33.1704 27.3572 32.6334 27.8332C32.3244 28.1062 32.0554 28.3452 31.7834 28.5412L30.3874 28.9652C30.5754 29.2452 30.7044 29.5602 30.7714 29.8942L32.1514 29.4752C32.2014 29.4602 32.2494 29.4372 32.2924 29.4072C32.6334 29.1692 32.9564 28.8842 33.2964 28.5822C33.8014 28.1352 34.3744 27.6282 35.1384 27.1682C35.9474 26.6842 36.6164 26.6302 37.0704 27.0152C37.4374 27.3262 37.5114 27.7902 37.4994 27.8562L33.5844 31.7702L28.2994 33.6702C27.8094 33.8452 26.9684 33.9992 26.4984 33.9992H21.4984C20.8364 33.9992 20.0104 34.2952 19.4994 34.7102L18.7854 35.0472C18.7654 35.0562 18.7524 35.0732 18.7344 35.0852L19.4754 35.8272L19.9844 35.5872C20.0264 35.5672 20.0654 35.5422 20.1004 35.5122C20.4194 35.2342 21.0594 34.9992 21.4984 34.9992H26.4984C27.0814 34.9992 28.0404 34.8252 28.6364 34.6112L34.0274 32.6732C34.0964 32.6482 34.1594 32.6082 34.2124 32.5562L38.2064 28.5632C38.6304 28.1382 38.5484 27.2452 38.0224 26.5712Z" fill="url(#paint2_linear_12262_142109)"/>
<path d="M17.7362 39.854C17.5412 40.048 17.2242 40.049 17.0292 39.854C16.8342 39.658 16.8342 39.341 17.0292 39.147L19.9102 36.26L14.2542 30.603L11.3732 33.489C11.1782 33.684 10.8612 33.684 10.6662 33.489C10.4702 33.294 10.4712 32.977 10.6662 32.782L13.8522 29.59C14.0472 29.395 14.4282 29.362 14.6232 29.557L20.9872 35.921C21.1822 36.117 21.1202 36.465 20.9242 36.661L17.7362 39.854ZM39.0002 25H29.0002C28.7242 25 28.5002 24.776 28.5002 24.5C28.5002 24.224 28.7242 24 29.0002 24H38.5002V11.5C38.5002 11.224 38.7242 11 39.0002 11C39.2762 11 39.5002 11.224 39.5002 11.5V24.5C39.5002 24.776 39.2762 25 39.0002 25ZM25.0002 25H15.0002C14.7242 25 14.5002 24.776 14.5002 24.5V11.5C14.5002 11.224 14.7242 11 15.0002 11C15.2762 11 15.5002 11.224 15.5002 11.5V24H25.0002C25.2762 24 25.5002 24.224 25.5002 24.5C25.5002 24.776 25.2762 25 25.0002 25Z" fill="url(#paint3_linear_12262_142109)"/>
<path d="M27 25C26.724 25 26.5 24.776 26.5 24.5V12.5C26.5 11.122 27.622 10 29 10H37C37.276 10 37.5 10.224 37.5 10.5V22.5C37.5 22.776 37.276 23 37 23H29C28.173 23 27.5 23.673 27.5 24.5C27.5 24.776 27.276 25 27 25ZM29 11C28.173 11 27.5 11.673 27.5 12.5V22.501C27.918 22.187 28.438 22 29 22H36.5V11H29Z" fill="url(#paint4_linear_12262_142109)"/>
<path d="M27 25C26.724 25 26.5 24.776 26.5 24.5C26.5 23.673 25.827 23 25 23H17C16.724 23 16.5 22.776 16.5 22.5V10.5C16.5 10.224 16.724 10 17 10H25C26.378 10 27.5 11.122 27.5 12.5V24.5C27.5 24.776 27.276 25 27 25ZM17.5 22H25C25.563 22 26.082 22.187 26.5 22.501V12.5C26.5 11.673 25.827 11 25 11H17.5V22ZM33 17H35C35.276 17 35.5 17.224 35.5 17.5C35.5 17.776 35.276 18 35 18H33C32.724 18 32.5 17.776 32.5 17.5C32.5 17.224 32.724 17 33 17ZM29 13H35C35.276 13 35.5 13.224 35.5 13.5C35.5 13.776 35.276 14 35 14H29C28.724 14 28.5 13.776 28.5 13.5C28.5 13.224 28.724 13 29 13ZM29 15H35C35.276 15 35.5 15.224 35.5 15.5C35.5 15.776 35.276 16 35 16H29C28.724 16 28.5 15.776 28.5 15.5C28.5 15.224 28.724 15 29 15ZM29 19H35C35.276 19 35.5 19.224 35.5 19.5C35.5 19.776 35.276 20 35 20H29C28.724 20 28.5 19.776 28.5 19.5C28.5 19.224 28.724 19 29 19ZM29 17H31C31.276 17 31.5 17.224 31.5 17.5C31.5 17.776 31.276 18 31 18H29C28.724 18 28.5 17.776 28.5 17.5C28.5 17.224 28.724 17 29 17Z" fill="url(#paint5_linear_12262_142109)"/>
<path d="M21 20H19C18.724 20 18.5 19.776 18.5 19.5C18.5 19.224 18.724 19 19 19H21C21.276 19 21.5 19.224 21.5 19.5C21.5 19.776 21.276 20 21 20ZM25 18H19C18.724 18 18.5 17.776 18.5 17.5C18.5 17.224 18.724 17 19 17H25C25.276 17 25.5 17.224 25.5 17.5C25.5 17.776 25.276 18 25 18ZM25 14H24C23.724 14 23.5 13.776 23.5 13.5C23.5 13.224 23.724 13 24 13H25C25.276 13 25.5 13.224 25.5 13.5C25.5 13.776 25.276 14 25 14ZM25 16H19C18.724 16 18.5 15.776 18.5 15.5C18.5 15.224 18.724 15 19 15H25C25.276 15 25.5 15.224 25.5 15.5C25.5 15.776 25.276 16 25 16ZM22 14H20C19.724 14 19.5 13.776 19.5 13.5C19.5 13.224 19.724 13 20 13H22C22.276 13 22.5 13.224 22.5 13.5C22.5 13.776 22.276 14 22 14ZM25 20H23C22.724 20 22.5 19.776 22.5 19.5C22.5 19.224 22.724 19 23 19H25C25.276 19 25.5 19.224 25.5 19.5C25.5 19.776 25.276 20 25 20Z" fill="url(#paint6_linear_12262_142109)"/>
<defs>
<linearGradient id="paint0_linear_12262_142109" x1="15.6914" y1="28.5311" x2="19.6156" y2="23.6228" gradientUnits="userSpaceOnUse">
<stop stop-color="#0575E6"/>
<stop offset="1" stop-color="#021B79"/>
</linearGradient>
<linearGradient id="paint1_linear_12262_142109" x1="23.0273" y1="30.12" x2="28.2919" y2="25.0381" gradientUnits="userSpaceOnUse">
<stop stop-color="#0575E6"/>
<stop offset="1" stop-color="#021B79"/>
</linearGradient>
<linearGradient id="paint2_linear_12262_142109" x1="18.7344" y1="33.6119" x2="31.925" y2="21.7149" gradientUnits="userSpaceOnUse">
<stop stop-color="#0575E6"/>
<stop offset="1" stop-color="#021B79"/>
</linearGradient>
<linearGradient id="paint3_linear_12262_142109" x1="10.5195" y1="33.6199" x2="39.5069" y2="20.2946" gradientUnits="userSpaceOnUse">
<stop stop-color="#0575E6"/>
<stop offset="1" stop-color="#021B79"/>
</linearGradient>
<linearGradient id="paint4_linear_12262_142109" x1="26.5" y1="21.7" x2="38.4659" y2="17.6635" gradientUnits="userSpaceOnUse">
<stop stop-color="#0575E6"/>
<stop offset="1" stop-color="#021B79"/>
</linearGradient>
<linearGradient id="paint5_linear_12262_142109" x1="16.5" y1="21.7" x2="33.6858" y2="11.6864" gradientUnits="userSpaceOnUse">
<stop stop-color="#0575E6"/>
<stop offset="1" stop-color="#021B79"/>
</linearGradient>
<linearGradient id="paint6_linear_12262_142109" x1="18.5" y1="18.46" x2="25.5" y2="15.24" gradientUnits="userSpaceOnUse">
<stop stop-color="#0575E6"/>
<stop offset="1" stop-color="#021B79"/>
</linearGradient>
</defs>
</svg>
