<svg width="51" height="50" viewBox="0 0 51 50" fill="none" xmlns="http://www.w3.org/2000/svg">
<rect x="0.5" width="50" height="50" rx="25" fill="#DBE9FE"/>
<path d="M16.2197 36.3674C18.0666 37.4191 22.8938 40.0366 25.187 40.0362C25.2391 40.0362 25.2902 40.0348 25.3395 40.0322C29.3778 39.8073 38.8991 33.1562 39.5294 32.7128C40.1468 32.3568 40.5294 31.6979 40.5294 30.9872C40.5294 30.2995 40.1804 29.6693 39.5961 29.3016C39.0062 28.9311 38.2789 28.8899 37.6515 29.1913L31.7756 32.0095C31.7467 30.9167 30.8437 30.0365 29.7377 30.0365L26.3632 30.0374C24.6965 28.6004 22.5682 27.7202 20.633 27.6745C18.7298 27.6294 17.0211 27.6167 16.2197 27.6132V26.6562H10.4688V37.6825H16.2197V36.3674ZM16.2211 28.5829C17.0223 28.5864 18.7221 28.5992 20.6103 28.6437C22.3759 28.6856 24.3376 29.523 25.857 30.8835C25.946 30.9631 26.0611 31.0071 26.1804 31.0071L29.7377 31.0062C30.3272 31.0062 30.8068 31.4806 30.8068 32.0637C30.8068 32.2685 30.7476 32.46 30.6454 32.6222C30.6402 32.6297 30.6349 32.6375 30.6302 32.6456C30.4389 32.9321 30.1103 33.1214 29.7377 33.1214H22.8646C22.5966 33.1214 22.3797 33.3385 22.3797 33.6063C22.3797 33.8741 22.5966 34.0911 22.8646 34.0911H29.7377C30.4029 34.0911 30.9948 33.7725 31.3674 33.281L38.0715 30.0656C38.3968 29.9084 38.7737 29.9302 39.0795 30.1226C39.3849 30.3144 39.5597 30.6295 39.5597 30.9872C39.5597 31.3561 39.358 31.6979 39.0327 31.8795C39.018 31.8878 39.0038 31.8968 38.9901 31.9065C38.8916 31.9759 29.0999 38.8516 25.2855 39.0639C23.3485 39.1674 18.3026 36.4692 16.2211 35.2498V28.5829ZM15.25 36.7128H11.4384V27.6259H15.25V36.7128Z" fill="url(#paint0_linear_12262_141951)"/>
<path d="M13.3446 35.5225C13.815 35.5225 14.1932 35.1394 14.1932 34.6691C14.1932 34.2036 13.815 33.8254 13.3446 33.8254C12.8792 33.8254 12.4961 34.2036 12.4961 34.6691C12.4961 35.1394 12.8792 35.5225 13.3446 35.5225ZM25.0147 26.3089C29.5194 26.3089 33.1847 22.6439 33.1847 18.139C33.1847 13.634 29.5194 9.96875 25.0147 9.96875C20.51 9.96875 16.8447 13.634 16.8447 18.139C16.8447 22.6439 20.51 26.3089 25.0147 26.3089ZM25.0147 10.9384C28.9849 10.9384 32.215 14.1686 32.215 18.139C32.215 22.1091 28.9849 25.3393 25.0147 25.3393C21.0445 25.3393 17.8144 22.1091 17.8144 18.139C17.8144 14.1686 21.0445 10.9384 25.0147 10.9384Z" fill="url(#paint1_linear_12262_141951)"/>
<path d="M25.0153 12.419C25.3079 12.419 25.5456 12.1813 25.5456 11.8894C25.5456 11.5971 25.3079 11.3594 25.0153 11.3594C24.7227 11.3594 24.485 11.5971 24.485 11.8894C24.485 12.1813 24.7227 12.419 25.0153 12.419ZM25.0153 23.8537C24.7227 23.8537 24.485 24.0914 24.485 24.3838C24.485 24.6757 24.7227 24.9131 25.0153 24.9131C25.7168 24.9131 25.7167 23.8537 25.0153 23.8537ZM20.975 14.0911C21.1791 13.8845 21.1781 13.5495 20.9708 13.3421C20.7908 13.1638 20.4097 13.1626 20.2283 13.34C20.0216 13.541 20.0166 13.8843 20.2212 14.0916C20.4268 14.3004 20.7727 14.2966 20.975 14.0911ZM29.8046 22.9304C30.0185 22.7195 30.0091 22.3836 29.8098 22.1811C29.5956 21.9643 29.2537 21.98 29.0555 22.1813C28.8529 22.3866 28.8529 22.7209 29.0555 22.9261C29.2567 23.1305 29.5987 23.1341 29.8046 22.9304ZM18.7686 17.6061C18.476 17.6061 18.2383 17.8437 18.2383 18.1361C18.2383 18.4285 18.476 18.6662 18.7686 18.6662C19.0602 18.6662 19.2979 18.4285 19.2979 18.1361C19.2979 17.8437 19.0602 17.6061 18.7686 17.6061ZM31.2624 18.6664C31.9621 18.6664 31.9631 17.6063 31.2624 17.6063C30.9698 17.6063 30.7321 17.844 30.7321 18.1364C30.7321 18.4287 30.9698 18.6664 31.2624 18.6664ZM20.2203 22.1809C20.0176 22.3861 20.0176 22.7204 20.225 22.9304C20.4306 23.1338 20.7735 23.1303 20.975 22.9257C21.1772 22.7206 21.1772 22.3866 20.9698 22.1766C20.758 21.9673 20.4216 21.9764 20.2203 22.1809ZM29.805 14.0961C30.0171 13.8865 30.0103 13.5507 29.8093 13.3471C29.5972 13.132 29.2583 13.1438 29.0579 13.3442C28.8524 13.5495 28.8514 13.8847 29.0602 14.0961C29.2624 14.2962 29.5999 14.2981 29.805 14.0961ZM22.306 21.6167L24.5759 19.3467V22.0459C24.5759 22.3137 24.7927 22.5308 25.0607 22.5308C25.3287 22.5308 25.5456 22.3137 25.5456 22.0459V19.0422C25.922 18.8281 26.1448 18.3874 26.0099 17.9125L26.4537 17.4687C26.6431 17.2794 26.6431 16.9725 26.4537 16.7831C26.2643 16.5937 25.9575 16.5937 25.7681 16.7831L25.5456 17.0057V13.764C25.5456 13.4962 25.3287 13.2791 25.0607 13.2791C24.7927 13.2791 24.5759 13.4962 24.5759 13.764V17.32C24.201 17.5326 23.9793 17.9712 24.1083 18.443L21.6204 20.9311C21.431 21.1205 21.431 21.4273 21.6204 21.6167C21.8098 21.8061 22.1166 21.8061 22.306 21.6167Z" fill="url(#paint2_linear_12262_141951)"/>
<defs>
<linearGradient id="paint0_linear_12262_141951" x1="10.4687" y1="37.0926" x2="28.08" y2="18.8918" gradientUnits="userSpaceOnUse">
<stop stop-color="#0575E6"/>
<stop offset="1" stop-color="#021B79"/>
</linearGradient>
<linearGradient id="paint1_linear_12262_141951" x1="12.4961" y1="29.9006" x2="34.5092" y2="21.7025" gradientUnits="userSpaceOnUse">
<stop stop-color="#0575E6"/>
<stop offset="1" stop-color="#021B79"/>
</linearGradient>
<linearGradient id="paint2_linear_12262_141951" x1="18.2383" y1="21.9313" x2="31.7891" y2="15.7" gradientUnits="userSpaceOnUse">
<stop stop-color="#0575E6"/>
<stop offset="1" stop-color="#021B79"/>
</linearGradient>
</defs>
</svg>
