<svg width="51" height="50" viewBox="0 0 51 50" fill="none" xmlns="http://www.w3.org/2000/svg">
<rect x="0.5" width="50" height="50" rx="25" fill="#DBE9FE"/>
<path d="M37.375 9.0625H16.125C15.7799 9.0625 15.5 9.34231 15.5 9.6875V11.5625H13.625C13.2799 11.5625 13 11.8423 13 12.1875V40.3125C13 40.6576 13.2799 40.9375 13.625 40.9375H34.875C35.2201 40.9375 35.5 40.6576 35.5 40.3125V38.4375H37.375C37.7201 38.4375 38 38.1576 38 37.8125V9.6875C38 9.34231 37.7201 9.0625 37.375 9.0625ZM14.25 39.6875V12.8125H29.25V17.1875C29.25 17.5327 29.5299 17.8125 29.875 17.8125H34.25V39.6875H14.25ZM33.3661 16.5625H30.5V13.6964L33.3661 16.5625ZM36.75 37.1875H35.5V17.1875C35.5 17.0159 35.4289 16.8573 35.3169 16.7456L30.3169 11.7456C30.2023 11.6311 30.0439 11.5625 29.875 11.5625H16.75V10.3125H36.75V37.1875Z" fill="url(#paint0_linear_12262_142104)"/>
<path d="M32.375 19.0625H16.125C15.7799 19.0625 15.5 19.3423 15.5 19.6875V22.1875C15.5 22.5327 15.7799 22.8125 16.125 22.8125H32.375C32.7201 22.8125 33 22.5327 33 22.1875V19.6875C33 19.3423 32.7201 19.0625 32.375 19.0625ZM31.75 21.5625H16.75V20.3125H31.75V21.5625ZM29.25 24.0625C27.1823 24.0625 25.5 25.7448 25.5 27.8125C25.5 29.8802 27.1823 31.5625 29.25 31.5625C31.3177 31.5625 33 29.8802 33 27.8125C33 25.7448 31.3177 24.0625 29.25 24.0625ZM31.6709 27.1875H29.875V25.3916C30.7522 25.6182 31.4443 26.3103 31.6709 27.1875ZM29.25 30.3125C27.8715 30.3125 26.75 29.191 26.75 27.8125C26.75 26.6497 27.5479 25.6699 28.625 25.3916V27.8125C28.625 28.1576 28.9049 28.4375 29.25 28.4375H31.6709C31.3926 29.5146 30.4128 30.3125 29.25 30.3125ZM28.625 34.0625H26.75V32.8125C26.75 32.4674 26.4701 32.1875 26.125 32.1875H24.25V30.9375C24.25 30.5924 23.9701 30.3125 23.625 30.3125H21.75V29.0625C21.75 28.7174 21.4701 28.4375 21.125 28.4375H19.25V27.1875C19.25 26.8424 18.9701 26.5625 18.625 26.5625H16.125C15.7799 26.5625 15.5 26.8424 15.5 27.1875V37.8125C15.5 38.1576 15.7799 38.4375 16.125 38.4375C17.5133 38.4375 27.0219 38.4375 28.625 38.4375C28.9701 38.4375 29.25 38.1576 29.25 37.8125V34.6875C29.25 34.3424 28.9701 34.0625 28.625 34.0625ZM16.75 27.8125H18C18 29.2371 18 35.7697 18 37.1875H16.75V27.8125ZM19.25 29.6875H20.5C20.5 31.3755 20.5 35.651 20.5 37.1875H19.25V29.6875ZM21.75 31.5625H23C23 32.2669 23 36.5843 23 37.1875H21.75V31.5625ZM24.25 33.4375H25.5C25.5 33.7665 25.5 36.2418 25.5 37.1875H24.25V33.4375ZM28 37.1875H26.75V35.3125H28V37.1875ZM16.125 17.8125H27.375C27.7201 17.8125 28 17.5327 28 17.1875V14.6875C28 14.3423 27.7201 14.0625 27.375 14.0625H16.125C15.7799 14.0625 15.5 14.3423 15.5 14.6875V17.1875C15.5 17.5327 15.7799 17.8125 16.125 17.8125ZM16.75 15.3125H26.75V16.5625H16.75V15.3125ZM16.125 25.3125H24.875C25.2201 25.3125 25.5 25.0326 25.5 24.6875C25.5 24.3423 25.2201 24.0625 24.875 24.0625H16.125C15.7799 24.0625 15.5 24.3423 15.5 24.6875C15.5 25.0326 15.7799 25.3125 16.125 25.3125Z" fill="url(#paint1_linear_12262_142104)"/>
<defs>
<linearGradient id="paint0_linear_12262_142104" x1="13" y1="33.925" x2="39.8014" y2="24.2555" gradientUnits="userSpaceOnUse">
<stop stop-color="#0575E6"/>
<stop offset="1" stop-color="#021B79"/>
</linearGradient>
<linearGradient id="paint1_linear_12262_142104" x1="15.5" y1="33.075" x2="34.6178" y2="26.7612" gradientUnits="userSpaceOnUse">
<stop stop-color="#0575E6"/>
<stop offset="1" stop-color="#021B79"/>
</linearGradient>
</defs>
</svg>
