<svg width="51" height="50" viewBox="0 0 51 50" fill="none" xmlns="http://www.w3.org/2000/svg">
<rect x="0.5" width="50" height="50" rx="25" fill="#DBE9FE"/>
<path d="M37.5 10H13.5C13.3674 10 13.2402 10.0527 13.1464 10.1464C13.0527 10.2402 13 10.3674 13 10.5V32C13 32.1326 13.0527 32.2598 13.1464 32.3536C13.2402 32.4473 13.3674 32.5 13.5 32.5H22.5C22.6326 32.5 22.7598 32.4473 22.8536 32.3536C22.9473 32.2598 23 32.1326 23 32C23 31.8674 22.9473 31.7402 22.8536 31.6464C22.7598 31.5527 22.6326 31.5 22.5 31.5H14V11H37V14H15.5C15.3674 14 15.2402 14.0527 15.1464 14.1464C15.0527 14.2402 15 14.3674 15 14.5C15 14.6326 15.0527 14.7598 15.1464 14.8536C15.2402 14.9473 15.3674 15 15.5 15H37V31.5H28.5C28.3674 31.5 28.2402 31.5527 28.1464 31.6464C28.0527 31.7402 28 31.8674 28 32C28 32.1326 28.0527 32.2598 28.1464 32.3536C28.2402 32.4473 28.3674 32.5 28.5 32.5H37.5C37.6326 32.5 37.7598 32.4473 37.8536 32.3536C37.9473 32.2598 38 32.1326 38 32V10.5C38 10.3674 37.9473 10.2402 37.8536 10.1464C37.7598 10.0527 37.6326 10 37.5 10Z" fill="url(#paint0_linear_12262_142143)"/>
<path d="M15.5 13C15.7761 13 16 12.7761 16 12.5C16 12.2239 15.7761 12 15.5 12C15.2239 12 15 12.2239 15 12.5C15 12.7761 15.2239 13 15.5 13Z" fill="url(#paint1_linear_12262_142143)"/>
<path d="M17.5 13C17.7761 13 18 12.7761 18 12.5C18 12.2239 17.7761 12 17.5 12C17.2239 12 17 12.2239 17 12.5C17 12.7761 17.2239 13 17.5 13Z" fill="url(#paint2_linear_12262_142143)"/>
<path d="M19.5 13C19.7761 13 20 12.7761 20 12.5C20 12.2239 19.7761 12 19.5 12C19.2239 12 19 12.2239 19 12.5C19 12.7761 19.2239 13 19.5 13Z" fill="url(#paint3_linear_12262_142143)"/>
<path d="M35 13C35.1326 13 35.2598 12.9473 35.3536 12.8536C35.4473 12.7598 35.5 12.6326 35.5 12.5C35.5 12.3674 35.4473 12.2402 35.3536 12.1464C35.2598 12.0527 35.1326 12 35 12H29C28.8674 12 28.7402 12.0527 28.6464 12.1464C28.5527 12.2402 28.5 12.3674 28.5 12.5C28.5 12.6326 28.5527 12.7598 28.6464 12.8536C28.7402 12.9473 28.8674 13 29 13H35ZM30.5 36.5H28.5V35.5C28.5 35.1022 28.342 34.7206 28.0607 34.4393C27.7794 34.158 27.3978 34 27 34V26C27 25.8674 26.9473 25.7402 26.8536 25.6464C26.7598 25.5527 26.6326 25.5 26.5 25.5C26.3674 25.5 26.2402 25.5527 26.1464 25.6464C26.0527 25.7402 26 25.8674 26 26V34H25V20C25 19.8674 25.0527 19.7402 25.1464 19.6464C25.2402 19.5527 25.3674 19.5 25.5 19.5C25.6326 19.5 25.7598 19.5527 25.8536 19.6464C25.9473 19.7402 26 19.8674 26 20V24C26 24.1326 26.0527 24.2598 26.1464 24.3536C26.2402 24.4473 26.3674 24.5 26.5 24.5C26.6326 24.5 26.7598 24.4473 26.8536 24.3536C26.9473 24.2598 27 24.1326 27 24V22H31.19L29.055 26.275C29.0544 26.2867 29.0544 26.2983 29.055 26.31C29.021 26.3677 29.0021 26.4331 29 26.5V27C29 27.7956 29.3161 28.5587 29.8787 29.1213C30.4413 29.6839 31.2044 30 32 30C32.7956 30 33.5587 29.6839 34.1213 29.1213C34.6839 28.5587 35 27.7956 35 27V26.5C34.9997 26.4485 34.9896 26.3976 34.97 26.35C34.9706 26.3383 34.9706 26.3267 34.97 26.315L32.81 22H34.5C34.6326 22 34.7598 21.9473 34.8536 21.8536C34.9473 21.7598 35 21.6326 35 21.5C35 21.3674 34.9473 21.2402 34.8536 21.1464C34.7598 21.0527 34.6326 21 34.5 21H27V20C27 19.6022 26.842 19.2206 26.5607 18.9393C26.2794 18.658 25.8978 18.5 25.5 18.5C25.1022 18.5 24.7206 18.658 24.4393 18.9393C24.158 19.2206 24 19.6022 24 20V21H16.5C16.3674 21 16.2402 21.0527 16.1464 21.1464C16.0527 21.2402 16 21.3674 16 21.5C16 21.6326 16.0527 21.7598 16.1464 21.8536C16.2402 21.9473 16.3674 22 16.5 22H18.19L16.055 26.275C16.0544 26.2867 16.0544 26.2983 16.055 26.31C16.021 26.3677 16.0021 26.4331 16 26.5V27C16 27.7956 16.3161 28.5587 16.8787 29.1213C17.4413 29.6839 18.2044 30 19 30C19.7956 30 20.5587 29.6839 21.1213 29.1213C21.6839 28.5587 22 27.7956 22 27V26.5C21.9997 26.4485 21.9896 26.3976 21.97 26.35C21.9706 26.3383 21.9706 26.3267 21.97 26.315L19.81 22H24V34C23.6022 34 23.2206 34.158 22.9393 34.4393C22.658 34.7206 22.5 35.1022 22.5 35.5V36.5H20.5C20.1022 36.5 19.7206 36.658 19.4393 36.9393C19.158 37.2206 19 37.6022 19 38V39.5C19 39.6326 19.0527 39.7598 19.1464 39.8536C19.2402 39.9473 19.3674 40 19.5 40H31.5C31.6326 40 31.7598 39.9473 31.8536 39.8536C31.9473 39.7598 32 39.6326 32 39.5V38C32 37.6022 31.842 37.2206 31.5607 36.9393C31.2794 36.658 30.8978 36.5 30.5 36.5ZM32 29C31.4696 29 30.9609 28.7893 30.5858 28.4142C30.2107 28.0391 30 27.5304 30 27H34C34 27.5304 33.7893 28.0391 33.4142 28.4142C33.0391 28.7893 32.5304 29 32 29ZM30.31 26L32 22.62L33.69 26H30.31ZM19 29C18.4696 29 17.9609 28.7893 17.5858 28.4142C17.2107 28.0391 17 27.5304 17 27H21C21 27.5304 20.7893 28.0391 20.4142 28.4142C20.0391 28.7893 19.5304 29 19 29ZM17.31 26L19 22.62L20.69 26H17.31ZM23.5 35.5C23.5 35.3674 23.5527 35.2402 23.6464 35.1464C23.7402 35.0527 23.8674 35 24 35H27C27.1326 35 27.2598 35.0527 27.3536 35.1464C27.4473 35.2402 27.5 35.3674 27.5 35.5V36.5H23.5V35.5ZM31 39H20V38C20 37.8674 20.0527 37.7402 20.1464 37.6464C20.2402 37.5527 20.3674 37.5 20.5 37.5H30.5C30.6326 37.5 30.7598 37.5527 30.8536 37.6464C30.9473 37.7402 31 37.8674 31 38V39ZM20.5 18.5V16.5C20.5 16.3674 20.4473 16.2402 20.3536 16.1464C20.2598 16.0527 20.1326 16 20 16H15.5C15.3674 16 15.2402 16.0527 15.1464 16.1464C15.0527 16.2402 15 16.3674 15 16.5V18.5C15 18.6326 15.0527 18.7598 15.1464 18.8536C15.2402 18.9473 15.3674 19 15.5 19H20C20.1326 19 20.2598 18.9473 20.3536 18.8536C20.4473 18.7598 20.5 18.6326 20.5 18.5ZM19.5 18H16V17H19.5V18ZM35 16H31.5C31.3674 16 31.2402 16.0527 31.1464 16.1464C31.0527 16.2402 31 16.3674 31 16.5C31 16.6326 31.0527 16.7598 31.1464 16.8536C31.2402 16.9473 31.3674 17 31.5 17H35C35.1326 17 35.2598 16.9473 35.3536 16.8536C35.4473 16.7598 35.5 16.6326 35.5 16.5C35.5 16.3674 35.4473 16.2402 35.3536 16.1464C35.2598 16.0527 35.1326 16 35 16ZM35 18H33C32.8674 18 32.7402 18.0527 32.6464 18.1464C32.5527 18.2402 32.5 18.3674 32.5 18.5C32.5 18.6326 32.5527 18.7598 32.6464 18.8536C32.7402 18.9473 32.8674 19 33 19H35C35.1326 19 35.2598 18.9473 35.3536 18.8536C35.4473 18.7598 35.5 18.6326 35.5 18.5C35.5 18.3674 35.4473 18.2402 35.3536 18.1464C35.2598 18.0527 35.1326 18 35 18Z" fill="url(#paint4_linear_12262_142143)"/>
<defs>
<linearGradient id="paint0_linear_12262_142143" x1="13" y1="27.55" x2="37.0162" y2="15.2751" gradientUnits="userSpaceOnUse">
<stop stop-color="#0575E6"/>
<stop offset="1" stop-color="#021B79"/>
</linearGradient>
<linearGradient id="paint1_linear_12262_142143" x1="15" y1="12.78" x2="16" y2="12.32" gradientUnits="userSpaceOnUse">
<stop stop-color="#0575E6"/>
<stop offset="1" stop-color="#021B79"/>
</linearGradient>
<linearGradient id="paint2_linear_12262_142143" x1="17" y1="12.78" x2="18" y2="12.32" gradientUnits="userSpaceOnUse">
<stop stop-color="#0575E6"/>
<stop offset="1" stop-color="#021B79"/>
</linearGradient>
<linearGradient id="paint3_linear_12262_142143" x1="19" y1="12.78" x2="20" y2="12.32" gradientUnits="userSpaceOnUse">
<stop stop-color="#0575E6"/>
<stop offset="1" stop-color="#021B79"/>
</linearGradient>
<linearGradient id="paint4_linear_12262_142143" x1="15" y1="33.84" x2="37.3076" y2="26.3271" gradientUnits="userSpaceOnUse">
<stop stop-color="#0575E6"/>
<stop offset="1" stop-color="#021B79"/>
</linearGradient>
</defs>
</svg>
