<svg width="51" height="50" viewBox="0 0 51 50" fill="none" xmlns="http://www.w3.org/2000/svg">
<rect x="0.5" width="50" height="50" rx="25" fill="#DBE9FE"/>
<g clip-path="url(#clip0_12262_142026)">
<path d="M11.4943 40.6559C11.9209 40.6559 12.3476 40.4959 12.6676 40.1693L17.6143 35.2226V38.0226C17.6143 39.4826 18.8009 40.6693 20.2609 40.6693H38.5276C39.9876 40.6693 41.1743 39.4826 41.1743 38.0226V17.4693C41.1743 16.7626 40.9009 16.0959 40.4009 15.6026L34.9009 10.1093C34.4076 9.61594 33.7276 9.33594 33.0343 9.33594H20.2609C18.8009 9.33594 17.6143 10.5226 17.6143 11.9826V23.5826C16.8743 24.0426 16.2276 24.6426 15.7009 25.3693C14.6476 26.8293 14.2209 28.6159 14.5143 30.3959C14.6543 31.2559 14.9543 32.0559 15.3743 32.7693L10.3209 37.8226C9.67427 38.4693 9.67427 39.5226 10.3209 40.1759C10.6476 40.4959 11.0676 40.6559 11.4943 40.6559ZM39.4609 16.0826H35.2009C34.7676 16.0826 34.4209 15.7359 34.4209 15.3026V11.0426L39.4609 16.0826ZM18.6143 11.9826C18.6143 11.0759 19.3543 10.3359 20.2609 10.3359H33.0343C33.1676 10.3359 33.2943 10.3559 33.4209 10.3893V15.3026C33.4209 16.2826 34.2209 17.0826 35.2009 17.0826H40.1143C40.1476 17.2093 40.1676 17.3359 40.1676 17.4693V38.0226C40.1676 38.9293 39.4276 39.6693 38.5209 39.6693H20.2543C19.3476 39.6693 18.6076 38.9293 18.6076 38.0226V35.5559C19.3876 35.8759 20.2343 36.0559 21.1276 36.0559C21.1476 36.0559 21.1676 36.0559 21.1943 36.0559C21.5409 36.0559 21.8943 36.0293 22.2476 35.9693C22.6276 35.9093 22.9943 35.8159 23.3343 35.6959C26.4743 34.6426 28.3676 31.4959 27.8343 28.2293C27.2409 24.5559 23.7676 22.0493 20.0876 22.6493C19.5743 22.7359 19.0743 22.8759 18.6076 23.0693V11.9826H18.6143ZM16.5143 25.9493C17.4143 24.7026 18.7409 23.8826 20.2609 23.6359C20.5743 23.5826 20.8809 23.5626 21.1809 23.5626C23.9543 23.5626 26.4009 25.5759 26.8543 28.3893C27.3076 31.1759 25.6943 33.8493 23.0143 34.7493C22.7209 34.8493 22.4076 34.9293 22.0876 34.9826C21.7676 35.0359 21.4476 35.0626 21.1343 35.0559C18.3143 35.0426 15.9476 33.0159 15.4943 30.2293C15.2543 28.7159 15.6143 27.1959 16.5143 25.9493ZM11.0276 38.5293L15.9543 33.6026C16.2343 33.9426 16.5543 34.2559 16.8943 34.5359L11.9676 39.4626C11.7143 39.7159 11.2809 39.7159 11.0343 39.4626C10.7676 39.2026 10.7676 38.7826 11.0276 38.5293Z" fill="url(#paint0_linear_12262_142026)"/>
<path d="M21.6719 27.5938H20.6719V33.0271H21.6719V27.5938Z" fill="url(#paint1_linear_12262_142026)"/>
<path d="M21.6719 25.6016H20.6719V26.6016H21.6719V25.6016Z" fill="url(#paint2_linear_12262_142026)"/>
<path d="M37.4349 33.8125H28.4883V34.8125H37.4349V33.8125Z" fill="url(#paint3_linear_12262_142026)"/>
<path d="M37.4384 29.3828H29.0117V30.3828H37.4384V29.3828Z" fill="url(#paint4_linear_12262_142026)"/>
<path d="M37.4349 24.9453H28.4883V25.9453H37.4349V24.9453Z" fill="url(#paint5_linear_12262_142026)"/>
<path d="M37.4332 20.5156H21.3398V21.5156H37.4332V20.5156Z" fill="url(#paint6_linear_12262_142026)"/>
<path d="M31.6398 16.0781H21.3398V17.0781H31.6398V16.0781Z" fill="url(#paint7_linear_12262_142026)"/>
</g>
<defs>
<linearGradient id="paint0_linear_12262_142026" x1="9.83594" y1="33.7759" x2="41.1725" y2="19.3588" gradientUnits="userSpaceOnUse">
<stop stop-color="#0575E6"/>
<stop offset="1" stop-color="#021B79"/>
</linearGradient>
<linearGradient id="paint1_linear_12262_142026" x1="20.6719" y1="31.8318" x2="21.8749" y2="31.7299" gradientUnits="userSpaceOnUse">
<stop stop-color="#0575E6"/>
<stop offset="1" stop-color="#021B79"/>
</linearGradient>
<linearGradient id="paint2_linear_12262_142026" x1="20.6719" y1="26.3816" x2="21.6719" y2="25.9216" gradientUnits="userSpaceOnUse">
<stop stop-color="#0575E6"/>
<stop offset="1" stop-color="#021B79"/>
</linearGradient>
<linearGradient id="paint3_linear_12262_142026" x1="28.4883" y1="34.5925" x2="29.0926" y2="32.1054" gradientUnits="userSpaceOnUse">
<stop stop-color="#0575E6"/>
<stop offset="1" stop-color="#021B79"/>
</linearGradient>
<linearGradient id="paint4_linear_12262_142026" x1="29.0117" y1="30.1628" x2="29.6488" y2="27.6933" gradientUnits="userSpaceOnUse">
<stop stop-color="#0575E6"/>
<stop offset="1" stop-color="#021B79"/>
</linearGradient>
<linearGradient id="paint5_linear_12262_142026" x1="28.4883" y1="25.7253" x2="29.0926" y2="23.2382" gradientUnits="userSpaceOnUse">
<stop stop-color="#0575E6"/>
<stop offset="1" stop-color="#021B79"/>
</linearGradient>
<linearGradient id="paint6_linear_12262_142026" x1="21.3398" y1="21.2956" x2="21.6893" y2="18.7089" gradientUnits="userSpaceOnUse">
<stop stop-color="#0575E6"/>
<stop offset="1" stop-color="#021B79"/>
</linearGradient>
<linearGradient id="paint7_linear_12262_142026" x1="21.3398" y1="16.8581" x2="21.872" y2="14.3365" gradientUnits="userSpaceOnUse">
<stop stop-color="#0575E6"/>
<stop offset="1" stop-color="#021B79"/>
</linearGradient>
<clipPath id="clip0_12262_142026">
<rect width="32" height="32" fill="white" transform="translate(9.5 9)"/>
</clipPath>
</defs>
</svg>
