<svg width="51" height="50" viewBox="0 0 51 50" fill="none" xmlns="http://www.w3.org/2000/svg">
<rect x="0.5" width="50" height="50" rx="25" fill="#DBE9FE"/>
<path d="M13 14V36H38V33H37V35H14V19H21.25L22.75 17H37V30H38V14H13ZM34 15H35V16H34V15ZM33 16H32V15H33V16ZM22.25 16L20.75 18H14V15H31V16H22.25ZM36 16V15H37V16H36Z" fill="url(#paint0_linear_12262_141860)"/>
<path d="M16 16H15V17H16V16Z" fill="url(#paint1_linear_12262_141860)"/>
<path d="M18 16H17V17H18V16Z" fill="url(#paint2_linear_12262_141860)"/>
<path d="M20 16H19V17H20V16Z" fill="url(#paint3_linear_12262_141860)"/>
<path d="M31.5 27.0037V25.5037H32.5V23.1587L25.5 20.4688L18.5 23.1587V25.5037H19.5V27.0037H20V29.5037H19.5V31.0037H18.5V33.5037H32.5V31.0037H31.5V29.5037H31V27.0037H31.5ZM22.765 32.5037H19.5V32.0037H23.18L22.765 32.5037ZM20.5 26.0037V25.5037H22V26.0037H20.5ZM21.5 27.0037V29.5037H21V27.0037H21.5ZM22 30.5037V31.0037H20.5V30.5037H22ZM24.065 32.5037L24.485 32.0037H26.515L26.935 32.5037H24.065ZM24.75 31.0037V29.0037H26.25V31.0037H24.75ZM23.75 28.0037V31.0037H23V29.5037H22.5V27.0037H23V25.5037H28V27.0037H28.5V29.5037H28V31.0037H27.25V28.0037H23.75ZM31.5 32.0037V32.5037H28.235L27.82 32.0037H31.5ZM29 26.0037V25.5037H30.5V26.0037H29ZM30 27.0037V29.5037H29.5V27.0037H30ZM30.5 30.5037V31.0037H29V30.5037H30.5ZM19.5 24.5037V23.8488L25.5 21.5387L31.5 23.8488V24.5037H19.5Z" fill="url(#paint4_linear_12262_141860)"/>
<path d="M26 22.5H25V23.5H26V22.5Z" fill="url(#paint5_linear_12262_141860)"/>
<path d="M38 31H37V32H38V31Z" fill="url(#paint6_linear_12262_141860)"/>
<defs>
<linearGradient id="paint0_linear_12262_141860" x1="13" y1="31.16" x2="36.7896" y2="18.7245" gradientUnits="userSpaceOnUse">
<stop stop-color="#0575E6"/>
<stop offset="1" stop-color="#021B79"/>
</linearGradient>
<linearGradient id="paint1_linear_12262_141860" x1="15" y1="16.78" x2="16" y2="16.32" gradientUnits="userSpaceOnUse">
<stop stop-color="#0575E6"/>
<stop offset="1" stop-color="#021B79"/>
</linearGradient>
<linearGradient id="paint2_linear_12262_141860" x1="17" y1="16.78" x2="18" y2="16.32" gradientUnits="userSpaceOnUse">
<stop stop-color="#0575E6"/>
<stop offset="1" stop-color="#021B79"/>
</linearGradient>
<linearGradient id="paint3_linear_12262_141860" x1="19" y1="16.78" x2="20" y2="16.32" gradientUnits="userSpaceOnUse">
<stop stop-color="#0575E6"/>
<stop offset="1" stop-color="#021B79"/>
</linearGradient>
<linearGradient id="paint4_linear_12262_141860" x1="18.5" y1="30.6361" x2="32.1344" y2="23.8999" gradientUnits="userSpaceOnUse">
<stop stop-color="#0575E6"/>
<stop offset="1" stop-color="#021B79"/>
</linearGradient>
<linearGradient id="paint5_linear_12262_141860" x1="25" y1="23.28" x2="26" y2="22.82" gradientUnits="userSpaceOnUse">
<stop stop-color="#0575E6"/>
<stop offset="1" stop-color="#021B79"/>
</linearGradient>
<linearGradient id="paint6_linear_12262_141860" x1="37" y1="31.78" x2="38" y2="31.32" gradientUnits="userSpaceOnUse">
<stop stop-color="#0575E6"/>
<stop offset="1" stop-color="#021B79"/>
</linearGradient>
</defs>
</svg>
