<svg width="51" height="50" viewBox="0 0 51 50" fill="none" xmlns="http://www.w3.org/2000/svg">
<rect x="0.5" width="50" height="50" rx="25" fill="#DBE9FE"/>
<path d="M34.9985 19.5C33.8055 19.5013 32.6616 19.9759 31.818 20.8195C30.9744 21.6631 30.4998 22.8069 30.4985 24C30.4985 24.1425 30.507 24.2835 30.52 24.423L26.751 25.309C26.4839 24.6959 26.0209 24.1887 25.4345 23.867L27.168 18.983C27.2775 18.9915 27.387 19 27.4985 19C28.6338 19.0001 29.7271 18.571 30.5593 17.7989C31.3916 17.0267 31.9012 15.9686 31.9861 14.8365C32.071 13.7044 31.7248 12.5821 31.017 11.6945C30.3092 10.8069 29.2921 10.2196 28.1696 10.0503C27.047 9.88105 25.9019 10.1423 24.9639 10.7818C24.0259 11.4213 23.3642 12.3917 23.1115 13.4984C22.8589 14.6052 23.0339 15.7666 23.6014 16.7498C24.169 17.733 25.0872 18.4653 26.172 18.8L24.488 23.5435C23.8302 23.429 23.153 23.542 22.568 23.864L19.0115 20.3325C19.8523 19.5643 20.3673 18.5035 20.4509 17.3676C20.5346 16.2318 20.1805 15.107 19.4614 14.2238C18.7422 13.3407 17.7125 12.7661 16.5833 12.618C15.454 12.4698 14.3109 12.7592 13.3882 13.4269C12.4656 14.0946 11.8333 15.09 11.6211 16.209C11.4089 17.3279 11.6328 18.4857 12.2468 19.4448C12.8609 20.404 13.8187 21.0919 14.9238 21.3675C16.0288 21.6431 17.1974 21.4855 18.19 20.927L21.778 24.4895C21.4324 24.8664 21.1901 25.3262 21.0748 25.8244C20.9595 26.3226 20.9751 26.8421 21.12 27.3325L19.873 28H19.283C19.5914 27.7331 19.8107 27.3783 19.9117 26.9832C20.0127 26.5881 19.9905 26.1715 19.8481 25.7894C19.7057 25.4073 19.4498 25.0778 19.1149 24.8452C18.7799 24.6126 18.3818 24.4879 17.974 24.4879C17.5662 24.4879 17.1681 24.6126 16.8332 24.8452C16.4982 25.0778 16.2424 25.4073 16.1 25.7894C15.9575 26.1715 15.9353 26.5881 16.0363 26.9832C16.1373 27.3783 16.3567 27.7331 16.665 28H16.4985C15.246 28 14.4985 28.9345 14.4985 30.5V34C14.4985 34.1326 14.5512 34.2598 14.645 34.3536C14.7387 34.4473 14.8659 34.5 14.9985 34.5H15.9985V39.5C15.9985 39.6326 16.0512 39.7598 16.145 39.8536C16.2387 39.9473 16.3659 40 16.4985 40H19.4985C19.6311 40 19.7583 39.9473 19.8521 39.8536C19.9458 39.7598 19.9985 39.6326 19.9985 39.5V30.846L22.7565 29.226C23.2129 29.436 23.7149 29.5277 24.2161 29.4926C24.7173 29.4575 25.2016 29.2967 25.6243 29.0251C26.047 28.7535 26.3944 28.3797 26.6346 27.9384C26.8748 27.4971 26.9999 27.0024 26.9985 26.5C26.9985 26.426 26.9925 26.3535 26.9875 26.281L30.725 25.4C30.9831 26.1885 31.4542 26.8902 32.0861 27.4277C32.718 27.9652 33.4862 28.3176 34.3059 28.4459C35.1255 28.5742 35.9647 28.4734 36.7306 28.1546C37.4965 27.8359 38.1595 27.3116 38.6461 26.6397C39.1328 25.9679 39.4242 25.1745 39.4883 24.3474C39.5523 23.5203 39.3865 22.6915 39.009 21.9527C38.6316 21.2139 38.0573 20.5939 37.3495 20.161C36.6418 19.7282 35.8281 19.4994 34.9985 19.5ZM28.4985 17.85C27.8464 18.0467 27.1507 18.0467 26.4985 17.85V16C26.4985 15.8674 26.5512 15.7402 26.645 15.6465C26.7387 15.5527 26.8659 15.5 26.9985 15.5H27.9985C28.1311 15.5 28.2583 15.5527 28.3521 15.6465C28.4458 15.7402 28.4985 15.8674 28.4985 16V17.85ZM26.9985 13.5C26.9985 13.4011 27.0278 13.3045 27.0828 13.2222C27.1377 13.14 27.2158 13.0759 27.3072 13.0381C27.3985 13.0002 27.4991 12.9903 27.5961 13.0096C27.6931 13.0289 27.7821 13.0765 27.8521 13.1465C27.922 13.2164 27.9696 13.3055 27.9889 13.4025C28.0082 13.4995 27.9983 13.6 27.9605 13.6914C27.9226 13.7827 27.8585 13.8608 27.7763 13.9157C27.6941 13.9707 27.5974 14 27.4985 14C27.3659 14 27.2387 13.9473 27.145 13.8536C27.0512 13.7598 26.9985 13.6326 26.9985 13.5ZM25.4985 16V17.368C24.887 16.9422 24.4274 16.3324 24.1865 15.6273C23.9456 14.9222 23.936 14.1586 24.1591 13.4476C24.3823 12.7367 24.8265 12.1155 25.4271 11.6745C26.0277 11.2335 26.7534 10.9957 27.4985 10.9957C28.2437 10.9957 28.9693 11.2335 29.57 11.6745C30.1706 12.1155 30.6148 12.7367 30.8379 13.4476C31.061 14.1586 31.0515 14.9222 30.8106 15.6273C30.5697 16.3324 30.11 16.9422 29.4985 17.368V16C29.4974 15.6936 29.4024 15.3949 29.2264 15.1441C29.0504 14.8932 28.8018 14.7023 28.514 14.597C28.7363 14.3926 28.8917 14.1258 28.9598 13.8316C29.028 13.5373 29.0057 13.2294 28.896 12.948C28.7863 12.6667 28.5942 12.425 28.3448 12.2546C28.0955 12.0842 27.8005 11.993 27.4985 11.993C27.1965 11.993 26.9015 12.0842 26.6522 12.2546C26.4029 12.425 26.2108 12.6667 26.101 12.948C25.9913 13.2294 25.9691 13.5373 26.0372 13.8316C26.1054 14.1258 26.2608 14.3926 26.483 14.597C26.1953 14.7023 25.9467 14.8932 25.7707 15.1441C25.5946 15.3949 25.4997 15.6936 25.4985 16ZM16.9985 20.35C16.3464 20.5467 15.6507 20.5467 14.9985 20.35V18.5C14.9985 18.3674 15.0512 18.2402 15.145 18.1465C15.2387 18.0527 15.3659 18 15.4985 18H16.4985C16.6311 18 16.7583 18.0527 16.8521 18.1465C16.9458 18.2402 16.9985 18.3674 16.9985 18.5V20.35ZM15.4985 16C15.4985 15.9011 15.5278 15.8045 15.5828 15.7222C15.6377 15.64 15.7158 15.5759 15.8072 15.5381C15.8985 15.5002 15.9991 15.4903 16.0961 15.5096C16.1931 15.5289 16.2821 15.5765 16.3521 15.6465C16.422 15.7164 16.4696 15.8055 16.4889 15.9025C16.5082 15.9995 16.4983 16.1 16.4605 16.1914C16.4226 16.2827 16.3585 16.3608 16.2763 16.4157C16.1941 16.4707 16.0974 16.5 15.9985 16.5C15.8659 16.5 15.7387 16.4473 15.645 16.3536C15.5512 16.2598 15.4985 16.1326 15.4985 16ZM17.9985 19.868V18.5C17.9974 18.1936 17.9024 17.8949 17.7264 17.6441C17.5504 17.3932 17.3018 17.2023 17.014 17.097C17.2363 16.8926 17.3917 16.6258 17.4598 16.3316C17.528 16.0373 17.5057 15.7294 17.396 15.448C17.2863 15.1667 17.0942 14.925 16.8448 14.7546C16.5955 14.5842 16.3005 14.493 15.9985 14.493C15.6965 14.493 15.4015 14.5842 15.1522 14.7546C14.9029 14.925 14.7108 15.1667 14.601 15.448C14.4913 15.7294 14.4691 16.0373 14.5372 16.3316C14.6054 16.6258 14.7608 16.8926 14.983 17.097C14.6953 17.2023 14.4467 17.3932 14.2707 17.6441C14.0946 17.8949 13.9997 18.1936 13.9985 18.5V19.868C13.387 19.4422 12.9274 18.8324 12.6865 18.1273C12.4456 17.4222 12.436 16.6586 12.6591 15.9476C12.8823 15.2367 13.3265 14.6155 13.9271 14.1745C14.5277 13.7335 15.2534 13.4957 15.9985 13.4957C16.7437 13.4957 17.4693 13.7335 18.07 14.1745C18.6706 14.6155 19.1148 15.2367 19.3379 15.9476C19.561 16.6586 19.5515 17.4222 19.3106 18.1273C19.0697 18.8324 18.61 19.4422 17.9985 19.868ZM17.974 25.5C18.1718 25.5 18.3651 25.5587 18.5296 25.6685C18.694 25.7784 18.8222 25.9346 18.8979 26.1173C18.9736 26.3001 18.9934 26.5011 18.9548 26.6951C18.9162 26.8891 18.821 27.0673 18.6811 27.2071C18.5413 27.347 18.3631 27.4422 18.1691 27.4808C17.9751 27.5194 17.7741 27.4996 17.5913 27.4239C17.4086 27.3482 17.2524 27.22 17.1426 27.0556C17.0327 26.8911 16.974 26.6978 16.974 26.5C16.974 26.2348 17.0794 25.9804 17.2669 25.7929C17.4545 25.6054 17.7088 25.5 17.974 25.5ZM22.3775 28.289L19.245 30.129C19.17 30.1732 19.1077 30.2362 19.0645 30.3118C19.0213 30.3873 18.9985 30.4729 18.9985 30.56V39H18.4985V33.5H17.4985V39H16.9985V30.5H15.9985V33.5H15.4985V30.5C15.4985 29 16.251 29 16.4985 29H19.9985C20.0808 28.9999 20.1619 28.9797 20.2345 28.941L21.851 28.075C21.8873 28.0556 21.9209 28.0315 21.951 28.0035L23.4245 26.6585L23.781 27.015L22.3775 28.289ZM23.9985 28.5C23.8875 28.499 23.7768 28.4886 23.6675 28.469L24.8425 27.4035C24.8928 27.358 24.9333 27.3028 24.9616 27.2412C24.9898 27.1796 25.0053 27.1129 25.007 27.0451C25.0086 26.9774 24.9965 26.91 24.9714 26.847C24.9462 26.7841 24.9085 26.7269 24.8605 26.679L23.7955 25.614C23.7046 25.523 23.5821 25.4706 23.4535 25.4676C23.3249 25.4646 23.2001 25.5113 23.105 25.598L22.009 26.598C22.009 26.5645 21.9985 26.533 21.9985 26.498C21.9985 26.1024 22.1158 25.7158 22.3356 25.3869C22.5553 25.058 22.8677 24.8016 23.2332 24.6503C23.5986 24.4989 24.0007 24.4593 24.3887 24.5364C24.7767 24.6136 25.133 24.8041 25.4127 25.0838C25.6924 25.3635 25.8829 25.7199 25.9601 26.1078C26.0373 26.4958 25.9977 26.8979 25.8463 27.2634C25.6949 27.6288 25.4386 27.9412 25.1097 28.161C24.7808 28.3807 24.3941 28.498 23.9985 28.498V28.5ZM35.9985 27.35C35.3464 27.5467 34.6507 27.5467 33.9985 27.35V25.5C33.9985 25.3674 34.0512 25.2402 34.145 25.1465C34.2387 25.0527 34.3659 25 34.4985 25H35.4985C35.6311 25 35.7583 25.0527 35.8521 25.1465C35.9458 25.2402 35.9985 25.3674 35.9985 25.5V27.35ZM34.4985 23C34.4985 22.9011 34.5278 22.8045 34.5828 22.7222C34.6377 22.64 34.7158 22.5759 34.8072 22.5381C34.8985 22.5002 34.9991 22.4903 35.0961 22.5096C35.1931 22.5289 35.2821 22.5765 35.3521 22.6465C35.422 22.7164 35.4696 22.8055 35.4889 22.9025C35.5082 22.9995 35.4983 23.1 35.4605 23.1914C35.4226 23.2827 35.3585 23.3608 35.2763 23.4157C35.1941 23.4707 35.0974 23.5 34.9985 23.5C34.8659 23.5 34.7387 23.4473 34.645 23.3536C34.5512 23.2598 34.4985 23.1326 34.4985 23ZM36.9985 26.868V25.5C36.9974 25.1936 36.9024 24.8949 36.7264 24.6441C36.5504 24.3932 36.3018 24.2023 36.014 24.097C36.2363 23.8926 36.3917 23.6258 36.4598 23.3316C36.528 23.0373 36.5057 22.7294 36.396 22.448C36.2863 22.1667 36.0942 21.925 35.8448 21.7546C35.5955 21.5842 35.3005 21.493 34.9985 21.493C34.6965 21.493 34.4015 21.5842 34.1522 21.7546C33.9029 21.925 33.7108 22.1667 33.601 22.448C33.4913 22.7294 33.4691 23.0373 33.5372 23.3316C33.6054 23.6258 33.7608 23.8926 33.983 24.097C33.6953 24.2023 33.4467 24.3932 33.2707 24.6441C33.0946 24.8949 32.9997 25.1936 32.9985 25.5V26.868C32.387 26.4422 31.9274 25.8324 31.6865 25.1273C31.4456 24.4222 31.436 23.6586 31.6591 22.9476C31.8823 22.2367 32.3265 21.6155 32.9271 21.1745C33.5277 20.7335 34.2534 20.4957 34.9985 20.4957C35.7437 20.4957 36.4693 20.7335 37.07 21.1745C37.6706 21.6155 38.1148 22.2367 38.3379 22.9476C38.561 23.6586 38.5515 24.4222 38.3106 25.1273C38.0697 25.8324 37.61 26.4422 36.9985 26.868Z" fill="url(#paint0_linear_12262_142228)"/>
<defs>
<linearGradient id="paint0_linear_12262_142228" x1="11.543" y1="33.4" x2="40.1587" y2="21.1324" gradientUnits="userSpaceOnUse">
<stop stop-color="#0575E6"/>
<stop offset="1" stop-color="#021B79"/>
</linearGradient>
</defs>
</svg>
