<svg width="51" height="50" viewBox="0 0 51 50" fill="none" xmlns="http://www.w3.org/2000/svg">
<rect x="0.5" width="50" height="50" rx="25" fill="#DBE9FE"/>
<path d="M37.2417 19C36.7327 19.0024 36.2453 19.2056 35.8853 19.5655C35.5254 19.9254 35.3222 20.4129 35.3198 20.9219V26.2109C34.7635 25.8937 34.1187 25.767 33.4837 25.85C32.8486 25.933 32.2581 26.2213 31.802 26.6709L28.3579 29.8145C27.9304 30.2038 27.5888 30.678 27.355 31.2069C27.1211 31.7357 27.0001 32.3075 26.9998 32.8857V38.5C26.9997 38.5657 27.0127 38.6307 27.0378 38.6914C27.0629 38.752 27.0997 38.8072 27.1462 38.8536C27.1926 38.9 27.2477 38.9369 27.3084 38.962C27.3691 38.9871 27.4341 39 27.4998 39H33.7886C33.8542 39 33.9193 38.9871 33.9799 38.962C34.0406 38.9369 34.0957 38.9 34.1422 38.8536C34.1886 38.8072 34.2254 38.752 34.2506 38.6914C34.2757 38.6307 34.2886 38.5657 34.2886 38.5C34.3293 37.5637 34.0845 36.0571 34.7571 35.2905L38.4956 30.3086C38.9301 29.7303 39.1645 29.0264 39.1636 28.3032V20.9219C39.163 20.4123 38.9603 19.9238 38.6 19.5636C38.2397 19.2033 37.7512 19.0006 37.2417 19ZM38.1636 28.3032C38.1641 28.8104 37.9995 29.304 37.6948 29.7095L33.9563 34.6914C33.2043 35.5844 33.2693 36.9069 33.2886 38L27.9998 38V32.8857C28.0001 32.4467 28.092 32.0125 28.2696 31.611C28.4472 31.2094 28.7066 30.8493 29.0313 30.5537L32.4942 27.3921C32.8629 27.038 33.3548 26.8407 33.866 26.8419C34.3773 26.8431 34.8682 27.0426 35.2354 27.3984C35.2637 27.4267 35.2861 27.4604 35.3012 27.4974C35.3164 27.5345 35.3239 27.5742 35.3235 27.6143C35.3231 27.6543 35.3147 27.6938 35.2987 27.7306C35.2828 27.7673 35.2597 27.8005 35.2308 27.8281L31.416 31.6426C31.3253 31.737 31.2753 31.8631 31.2766 31.994C31.2779 32.1249 31.3305 32.2501 31.423 32.3426C31.5156 32.4352 31.6408 32.4878 31.7716 32.4891C31.9025 32.4904 32.0287 32.4403 32.1231 32.3496L35.9378 28.5352C36.1819 28.2886 36.3191 27.9558 36.3198 27.6089V20.9219C36.3238 20.68 36.4227 20.4494 36.5952 20.2798C36.7676 20.1101 36.9998 20.0151 37.2417 20.0151C37.4836 20.0151 37.7159 20.1102 37.8883 20.2798C38.0607 20.4495 38.1596 20.6801 38.1636 20.9219L38.1636 28.3032ZM19.2153 26.688C18.7589 26.2334 18.1663 25.9406 17.5279 25.8543C16.8895 25.768 16.2404 25.8929 15.6797 26.21V20.9219C15.6749 20.4153 15.4703 19.9311 15.1104 19.5745C14.7505 19.218 14.2644 19.018 13.7578 19.018C13.2512 19.018 12.7651 19.218 12.4052 19.5746C12.0453 19.9311 11.8407 20.4153 11.8359 20.9219V28.3032C11.8351 29.0271 12.0699 29.7315 12.5049 30.3101L16.2415 35.2891C16.5467 35.6949 16.7115 36.189 16.711 36.6968V38.5C16.7109 38.5657 16.7239 38.6307 16.749 38.6914C16.7741 38.752 16.8109 38.8072 16.8574 38.8536C16.9038 38.9 16.9589 38.9369 17.0196 38.962C17.0803 38.9871 17.1453 39 17.211 39H23.4998C23.5654 39 23.6305 38.9871 23.6911 38.962C23.7518 38.9369 23.8069 38.9 23.8534 38.8536C23.8998 38.8072 23.9366 38.752 23.9617 38.6914C23.9869 38.6307 23.9998 38.5657 23.9998 38.5V32.8857C23.9994 32.3077 23.8786 31.7361 23.6449 31.2075C23.4112 30.6788 23.0698 30.2047 22.6426 29.8154L19.2153 26.688ZM22.9998 38H17.7109C17.7293 36.898 17.7959 35.5894 17.0422 34.6899L13.3057 29.7109C13.0004 29.3051 12.8356 28.811 12.8359 28.3032V20.9219C12.8382 20.7404 12.8938 20.5637 12.9958 20.4136C13.0977 20.2635 13.2416 20.1467 13.4094 20.0778C13.5773 20.0088 13.7617 19.9907 13.9397 20.0258C14.1177 20.0609 14.2815 20.1475 14.4107 20.2749C14.4965 20.3593 14.5645 20.4601 14.6107 20.5712C14.6569 20.6823 14.6803 20.8015 14.6797 20.9219V27.625C14.6828 27.9667 14.82 28.2936 15.0618 28.5352L18.8765 32.3496C18.9709 32.4403 19.097 32.4904 19.2279 32.4891C19.3588 32.4877 19.484 32.4352 19.5765 32.3426C19.6691 32.25 19.7216 32.1249 19.7229 31.994C19.7242 31.8631 19.6742 31.7369 19.5835 31.6425L15.7688 27.8281C15.739 27.8001 15.7153 27.7663 15.6992 27.7287C15.683 27.6912 15.6748 27.6507 15.6749 27.6098C15.675 27.5689 15.6836 27.5285 15.7 27.491C15.7164 27.4536 15.7403 27.4199 15.7702 27.3921C15.9517 27.2118 16.1671 27.0691 16.4039 26.9723C16.6408 26.8755 16.8944 26.8265 17.1503 26.8281C17.4061 26.8296 17.6591 26.8818 17.8948 26.9815C18.1304 27.0813 18.344 27.2266 18.5232 27.4092L21.9692 30.5547C22.2936 30.8502 22.5528 31.2102 22.7303 31.6116C22.9077 32.0129 22.9995 32.4469 22.9998 32.8857V38Z" fill="url(#paint0_linear_12262_141957)"/>
<path d="M33.5016 19C33.4992 16.879 32.6556 14.8456 31.1558 13.3458C29.656 11.8461 27.6226 11.0024 25.5016 11C14.8885 11.4395 14.8916 26.562 25.5017 27C27.6226 26.9976 29.6561 26.1539 31.1558 24.6542C32.6556 23.1544 33.4992 21.121 33.5016 19ZM25.5016 26C23.6457 25.9979 21.8665 25.2598 20.5542 23.9474C19.2419 22.6351 18.5037 20.8559 18.5016 19C18.886 9.71353 32.1186 9.71621 32.5016 19C32.4995 20.8559 31.7614 22.6352 30.4491 23.9475C29.1368 25.2598 27.3575 25.9979 25.5016 26Z" fill="url(#paint1_linear_12262_141957)"/>
<path d="M28.0922 16.0433C28.2236 16.0414 28.3488 15.9878 28.441 15.8943C28.5332 15.8007 28.5849 15.6746 28.5849 15.5433C28.5849 15.412 28.5332 15.2859 28.441 15.1923C28.3488 15.0988 28.2235 15.0453 28.0922 15.0433H26.0014V14.2479C25.9988 14.117 25.945 13.9924 25.8515 13.9008C25.758 13.8091 25.6323 13.7578 25.5014 13.7578C25.3705 13.7578 25.2448 13.8091 25.1513 13.9008C25.0579 13.9924 25.004 14.1171 25.0014 14.2479V15.0433C21.6171 14.7811 21.553 19.7499 25.0015 19.4979L25.0014 21.9525H22.9106C22.7793 21.9544 22.654 22.008 22.5618 22.1015C22.4696 22.1951 22.418 22.3212 22.418 22.4525C22.418 22.5838 22.4696 22.7099 22.5618 22.8035C22.654 22.897 22.7793 22.9505 22.9106 22.9525H25.0014V23.7479C25.004 23.8788 25.0579 24.0034 25.1514 24.095C25.2448 24.1867 25.3705 24.238 25.5014 24.238C25.6323 24.238 25.758 24.1866 25.8515 24.095C25.945 24.0034 25.9988 23.8787 26.0014 23.7479V22.9525H26.3649C26.9522 22.9472 27.5136 22.7102 27.9269 22.2931C28.3403 21.876 28.5723 21.3124 28.5723 20.7252C28.5723 20.1379 28.3403 19.5744 27.9269 19.1573C27.5135 18.7402 26.9521 18.5032 26.3649 18.4979H26.0014V16.0433H28.0922ZM25.0014 18.4979C22.8853 18.7216 22.887 15.8192 25.0014 16.0433V18.4979ZM26.3649 19.4979C26.6881 19.5015 26.9968 19.6324 27.224 19.8621C27.4513 20.0919 27.5787 20.402 27.5787 20.7252C27.5787 21.0484 27.4512 21.3585 27.224 21.5883C26.9967 21.818 26.688 21.9489 26.3649 21.9525H26.0014V19.4979H26.3649Z" fill="url(#paint2_linear_12262_141957)"/>
<defs>
<linearGradient id="paint0_linear_12262_141957" x1="11.8359" y1="34.6" x2="35.5699" y2="19.6824" gradientUnits="userSpaceOnUse">
<stop stop-color="#0575E6"/>
<stop offset="1" stop-color="#021B79"/>
</linearGradient>
<linearGradient id="paint1_linear_12262_141957" x1="17.543" y1="23.48" x2="33.516" y2="16.1514" gradientUnits="userSpaceOnUse">
<stop stop-color="#0575E6"/>
<stop offset="1" stop-color="#021B79"/>
</linearGradient>
<linearGradient id="paint2_linear_12262_141957" x1="22.418" y1="21.9323" x2="29.3797" y2="20.0479" gradientUnits="userSpaceOnUse">
<stop stop-color="#0575E6"/>
<stop offset="1" stop-color="#021B79"/>
</linearGradient>
</defs>
</svg>
