<svg width="51" height="50" viewBox="0 0 51 50" fill="none" xmlns="http://www.w3.org/2000/svg">
<rect x="0.5" width="50" height="50" rx="25" fill="#DBE9FE"/>
<g clip-path="url(#clip0_12262_141918)">
<path d="M25.5007 22.8644C27.5033 22.8644 29.3243 23.6834 30.6443 25.0034C31.0613 25.4204 31.4273 25.887 31.7348 26.3955C32.1204 26.1045 32.5419 25.857 32.9919 25.6619C33.7359 25.3394 34.5519 25.1594 35.4009 25.1594C37.0794 25.1594 38.6035 25.845 39.709 26.9505C40.8145 28.056 41.5 29.58 41.5 31.2585V36.2836C41.5 36.6976 41.164 37.0336 40.75 37.0336H32.0319H18.9681H10.25C9.83601 37.0336 9.5 36.6976 9.5 36.2836V31.2585C9.5 29.58 10.1855 28.056 11.291 26.9505C12.3965 25.845 13.9206 25.1594 15.5991 25.1594C16.4481 25.1594 17.2641 25.3394 18.0081 25.6619C18.4581 25.857 18.8796 26.1045 19.2652 26.3955C19.5712 25.8885 19.9387 25.4204 20.3557 25.0034C21.6757 23.6834 23.4952 22.8644 25.4993 22.8644H25.5007ZM15.6006 18.4273C15.0651 18.4273 14.5821 18.6433 14.2311 18.9943C13.8816 19.3438 13.6641 19.8284 13.6641 20.3639C13.6641 20.8979 13.8801 21.3824 14.2311 21.7334C14.5821 22.0829 15.0651 22.3004 15.6006 22.3004C16.1346 22.3004 16.6191 22.0844 16.9701 21.7334C17.3196 21.3839 17.5371 20.8994 17.5371 20.3639C17.5371 19.8284 17.3211 19.3453 16.9701 18.9943C16.6206 18.6448 16.1361 18.4273 15.6006 18.4273ZM13.1706 17.9338C13.7931 17.3113 14.6511 16.9273 15.6006 16.9273C16.5486 16.9273 17.4081 17.3113 18.0291 17.9338C18.6516 18.5563 19.0356 19.4144 19.0356 20.3639C19.0356 21.3119 18.6501 22.1714 18.0291 22.7939C17.4066 23.4149 16.5486 23.8004 15.6006 23.8004C14.6511 23.8004 13.7931 23.4149 13.1706 22.7939C12.548 22.1714 12.164 21.3134 12.164 20.3639C12.164 19.4144 12.548 18.5563 13.1706 17.9338ZM18.2196 35.5321V30.147C18.2196 29.322 18.3591 28.53 18.6141 27.789C18.2571 27.4785 17.8551 27.222 17.4186 27.033C16.8651 26.793 16.2501 26.6595 15.6006 26.6595C14.3361 26.6595 13.1871 27.177 12.353 28.011C11.519 28.845 11.0015 29.994 11.0015 31.2585V35.5336H18.2196V35.5321ZM35.4024 16.9273C36.3519 16.9273 37.2099 17.3113 37.8324 17.9338C38.455 18.5563 38.839 19.4144 38.839 20.3639C38.839 21.3119 38.455 22.1714 37.8324 22.7939C37.2099 23.4149 36.3519 23.8004 35.4024 23.8004C34.4544 23.8004 33.5949 23.4149 32.9739 22.7939C32.3514 22.1714 31.9674 21.3134 31.9674 20.3639C31.9674 19.4144 32.3529 18.5563 32.9739 17.9338C33.5964 17.3113 34.4544 16.9273 35.4024 16.9273ZM36.7719 18.9943C36.4209 18.6448 35.9379 18.4273 35.4024 18.4273C34.8684 18.4273 34.3839 18.6433 34.0329 18.9943C33.6834 19.3438 33.4659 19.8284 33.4659 20.3639C33.4659 20.8979 33.6819 21.3824 34.0329 21.7334C34.3824 22.0829 34.8669 22.3004 35.4024 22.3004C35.9379 22.3004 36.4209 22.0844 36.7719 21.7334C37.1214 21.3839 37.3389 20.8994 37.3389 20.3639C37.3389 19.8284 37.1229 19.3453 36.7719 18.9943ZM32.3889 27.789C32.6439 28.5285 32.7834 29.322 32.7834 30.147V35.5321H40.0015V31.257C40.0015 29.9925 39.484 28.8435 38.65 28.0095C37.8159 27.1755 36.6669 26.658 35.4024 26.658C34.7529 26.658 34.1379 26.7915 33.5844 27.0315C33.1479 27.2205 32.7459 27.477 32.3889 27.7875V27.789ZM25.5007 12.9688C26.6138 12.9688 27.6203 13.4188 28.3508 14.1493C29.0798 14.8783 29.5313 15.8863 29.5313 16.9993C29.5313 18.1123 29.0798 19.1188 28.3508 19.8494C27.6218 20.5784 26.6138 21.0299 25.5007 21.0299C24.3877 21.0299 23.3812 20.5799 22.6507 19.8494C21.9217 19.1203 21.4702 18.1123 21.4702 16.9993C21.4702 15.8863 21.9217 14.8783 22.6507 14.1493C23.3797 13.4203 24.3877 12.9688 25.5007 12.9688ZM27.2903 15.2098C26.8328 14.7523 26.1998 14.4688 25.5007 14.4688C24.8017 14.4688 24.1702 14.7523 23.7112 15.2098C23.2537 15.6673 22.9702 16.3003 22.9702 16.9993C22.9702 17.6983 23.2537 18.3298 23.7112 18.7888C24.1687 19.2463 24.8017 19.5299 25.5007 19.5299C26.1998 19.5299 26.8313 19.2463 27.2903 18.7888C27.7478 18.3313 28.0313 17.6983 28.0313 16.9993C28.0313 16.3003 27.7478 15.6673 27.2903 15.2098ZM29.5838 26.064C28.5353 25.0154 27.0908 24.3659 25.5007 24.3659C23.9122 24.3659 22.4662 25.0154 21.4177 26.064C20.3692 27.1125 19.7182 28.5585 19.7182 30.147V35.5321H31.2818V30.147C31.2818 28.5585 30.6308 27.1125 29.5823 26.064H29.5838Z" fill="url(#paint0_linear_12262_141918)"/>
</g>
<defs>
<linearGradient id="paint0_linear_12262_141918" x1="9.5" y1="31.7394" x2="37.7146" y2="14.481" gradientUnits="userSpaceOnUse">
<stop stop-color="#0575E6"/>
<stop offset="1" stop-color="#021B79"/>
</linearGradient>
<clipPath id="clip0_12262_141918">
<rect width="32" height="32" fill="white" transform="translate(9.5 9)"/>
</clipPath>
</defs>
</svg>
