<svg width="51" height="50" viewBox="0 0 51 50" fill="none" xmlns="http://www.w3.org/2000/svg">
<rect x="0.5" width="50" height="50" rx="25" fill="#DBE9FE"/>
<g clip-path="url(#clip0_12262_142100)">
<path d="M34.4223 33H34.3466C34.0473 33 33.746 33.0659 33.476 33.1909L27.3901 36H25.6201C25.8599 35.6421 26 35.2119 26 34.75C26 33.5093 24.9907 32.5 23.75 32.5H17C16.8672 32.5 16.7403 32.5527 16.6465 32.6465L14.793 34.5H10C9.72365 34.5 9.5 34.7236 9.5 35V40.5C9.5 40.7763 9.72365 41 10 41H28C28.086 41 28.1704 40.978 28.2451 40.9355L35.4409 36.8882C36.0942 36.5205 36.5 35.8267 36.5 35.0776C36.5 33.9321 35.5678 33 34.4223 33ZM34.9506 36.0166L27.8691 40H10.5V35.5H15C15.1328 35.5 15.2597 35.4472 15.3535 35.3535L17.207 33.5H23.75C24.4394 33.5 25 34.0605 25 34.75C25 35.4394 24.4394 36 23.75 36H19V37H27.5C27.5722 37 27.644 36.9844 27.7094 36.9541L33.8955 34.0986C34.0351 34.0342 34.1913 34 34.3466 34H34.4223C35.0166 34 35.5 34.4834 35.5 35.0776C35.5 35.4663 35.2895 35.8257 34.9506 36.0166ZM21 12.4999C20.1729 12.4999 19.5 13.1728 19.5 13.9999C19.5 14.8271 20.1729 15.4999 21 15.4999C21.2785 15.4999 21.5362 15.4187 21.7599 15.2859L22.4326 15.845L19.793 17.0449C19.6148 17.1259 19.5 17.3037 19.5 17.5V23.5C19.5 23.6963 19.6148 23.874 19.793 23.9551L21.3893 24.6807L21.0592 25.506C21.0391 25.5052 21.0203 25.5 21 25.5C20.1729 25.5 19.5 26.1729 19.5 27C19.5 27.8271 20.1729 28.5 21 28.5C21.8271 28.5 22.5 27.8271 22.5 27C22.5 26.5524 22.299 26.1545 21.987 25.8794L22.3007 25.095L25.2929 26.4551C25.3588 26.4849 25.4292 26.5 25.5 26.5C25.5708 26.5 25.6411 26.4849 25.7071 26.4551L31.2071 23.9551C31.3853 23.8741 31.5 23.6963 31.5 23.5V21.0654L32.2708 20.8555C32.5421 21.2441 32.9911 21.5 33.5 21.5C34.3271 21.5 35 20.8271 35 20C35 19.1729 34.3271 18.5 33.5 18.5C32.7107 18.5 32.0689 19.1147 32.0112 19.8894L31.5 20.0286V17.5C31.5 17.3037 31.3853 17.126 31.2071 17.0449L25.7071 14.5449C25.5752 14.4853 25.4248 14.4853 25.293 14.5449L23.4439 15.3854L22.4019 14.5192C22.4623 14.3567 22.5 14.1832 22.5 13.9999C22.5 13.1728 21.8271 12.4999 21 12.4999ZM21 27.5C20.7241 27.5 20.5 27.2759 20.5 27C20.5 26.7241 20.7241 26.5 21 26.5C21.2759 26.5 21.5 26.7241 21.5 27C21.5 27.2759 21.2759 27.5 21 27.5ZM33.5 19.5C33.7759 19.5 34 19.7241 34 20C34 20.2759 33.7759 20.5 33.5 20.5C33.2241 20.5 33 20.2759 33 20C33 19.7241 33.2241 19.5 33.5 19.5ZM22.5357 21.8144L21.761 23.7513L20.5 23.1782V18.2765L25 20.3219V25.2234L22.6724 24.1656L23.4643 22.1856L22.5357 21.8144ZM28.1318 21.9824L30.5 21.3376V23.1782L26 25.2234V20.3219L30.5 18.2764V20.3009L27.8682 21.0175L28.1318 21.9824ZM25.5 15.5493L29.7915 17.5L25.5 19.4507L21.2085 17.5L25.5 15.5493ZM21 14.4999C20.7241 14.4999 20.5 14.2758 20.5 13.9999C20.5 13.724 20.7241 13.4999 21 13.4999C21.2759 13.4999 21.5 13.724 21.5 13.9999C21.5 14.2758 21.2759 14.4999 21 14.4999ZM31.2901 29.2607L31.8418 30.0947C32.127 29.9062 32.4073 29.7017 32.6753 29.4878L32.0513 28.7065C31.8067 28.9018 31.5503 29.0884 31.2901 29.2607ZM36.2705 24.5385L35.3349 24.187C35.2236 24.4819 35.0991 24.7734 34.9643 25.0527L35.8647 25.4872C36.0127 25.181 36.1494 24.8618 36.2705 24.5385ZM35.375 26.396L34.5176 25.8823C34.3574 26.1494 34.1827 26.4135 33.9976 26.6679L34.8071 27.2558C35.0088 26.9775 35.2002 26.6884 35.375 26.396ZM35.9541 19.5146L36.9502 19.4219C36.9184 19.0815 36.8706 18.7383 36.8086 18.4009L35.8252 18.5815C35.8818 18.8901 35.9253 19.2041 35.9541 19.5146ZM35.6128 17.665L36.5757 17.3945C36.483 17.0644 36.3746 16.7349 36.253 16.4155L35.3184 16.77C35.4292 17.0625 35.5283 17.3632 35.6128 17.665ZM24.0581 10.0971L23.9214 9.10685C23.5811 9.15375 23.2398 9.21625 22.9073 9.2929L23.1319 10.2675C23.4356 10.1977 23.7471 10.1401 24.0581 10.0971ZM33.417 12.1596C33.1694 11.9243 32.9077 11.6967 32.6387 11.4834L32.0166 12.2665C32.2627 12.4618 32.502 12.6694 32.7276 12.8842L33.417 12.1596ZM25.4746 9.99995C25.6308 9.99995 25.7842 10.0024 25.937 10.0088L25.979 9.00975C25.8203 9.0029 25.6601 9 25.5014 9C25.3139 9 25.1313 9.0039 24.9482 9.0127L24.9951 10.0117C25.1538 10.0039 25.3134 9.99995 25.4746 9.99995ZM33.9722 14.2958L34.7788 13.705C34.5776 13.4302 34.3598 13.1601 34.1323 12.9018L33.3823 13.563C33.5898 13.7988 33.7886 14.0453 33.9722 14.2958ZM34.9453 15.9067L35.8438 15.4682C35.6929 15.1591 35.5273 14.8549 35.3515 14.5634L34.4951 15.08C34.6558 15.3461 34.8071 15.6245 34.9453 15.9067ZM31.8027 10.8794C31.5195 10.6933 31.2212 10.5161 30.9156 10.3525L30.4438 11.2343C30.7226 11.3837 30.9951 11.5454 31.253 11.7153L31.8027 10.8794ZM28.0215 9.2778C27.6865 9.2026 27.3447 9.14205 27.0059 9.0981L26.876 10.0893C27.1855 10.1299 27.4976 10.185 27.8037 10.2534L28.0215 9.2778ZM29.9848 9.90815C29.6709 9.77435 29.3452 9.65325 29.0166 9.5478L28.711 10.5C29.0108 10.5962 29.3077 10.7065 29.5933 10.8281L29.9848 9.90815ZM32.7598 28.0864L33.4522 28.8081C33.7017 28.5683 33.9414 28.3178 34.164 28.0625L33.4102 27.4053C33.2071 27.6382 32.9883 27.8672 32.7598 28.0864ZM14.187 22.5752C14.2485 22.9131 14.3261 23.2514 14.4174 23.581L15.3813 23.3134C15.2978 23.0131 15.227 22.704 15.1704 22.3955L14.187 22.5752ZM16.0454 25.0727C15.9102 24.7934 15.7851 24.5024 15.6738 24.208L14.7382 24.5615C14.8598 24.8837 14.997 25.2026 15.1459 25.5092L16.0454 25.0727ZM17.5747 13.6122L16.8198 12.956C16.5971 13.2123 16.3813 13.4838 16.1787 13.7631L16.9882 14.35C17.1733 14.0947 17.3706 13.8466 17.5747 13.6122ZM18.2549 28.1005C18.0293 27.8852 17.8101 27.6567 17.6031 27.4209L16.8511 28.08C17.0776 28.3383 17.3179 28.5888 17.5654 28.8242L18.2549 28.1005ZM30.0288 31.0737C30.3462 30.9374 30.6582 30.7866 30.957 30.625L30.4824 29.7451C30.2095 29.8925 29.9238 30.0302 29.6343 30.1547L30.0288 31.0737ZM15.6577 16.833L14.7212 16.4833C14.6006 16.8056 14.4942 17.1362 14.4043 17.4663L15.3692 17.729C15.4512 17.4287 15.5484 17.1269 15.6577 16.833ZM16.4707 15.1367L15.6113 14.6259C15.435 14.9218 15.2714 15.2275 15.1245 15.5341L16.0258 15.9667C16.1601 15.6865 16.3101 15.4072 16.4707 15.1367ZM15.1631 18.6469L14.1787 18.4721C14.1186 18.8095 14.0732 19.1538 14.0434 19.4941L15.0395 19.581C15.0669 19.2699 15.1084 18.9555 15.1631 18.6469ZM35.6245 23.292L36.5884 23.5576C36.6797 23.226 36.7568 22.8877 36.8174 22.5512L35.833 22.3745C35.7778 22.6806 35.7075 22.9892 35.6245 23.292ZM36 20.5C36 20.8139 35.9858 21.1308 35.9585 21.4413L36.9546 21.5293C36.9848 21.1899 37 20.8432 37 20.5V20.4536L36 20.5ZM15.0434 21.4634C15.0151 21.1494 15.0005 20.8325 15 20.522L14 20.5239C14.0005 20.8638 14.0166 21.21 14.0473 21.5532L15.0434 21.4634ZM17.0146 26.6855C16.8301 26.4336 16.6553 26.1694 16.4942 25.9013L15.6368 26.416C15.8135 26.7099 16.0054 26.9995 16.207 27.2754L17.0146 26.6855ZM21.959 31.4443C22.2832 31.5493 22.6182 31.6416 22.9551 31.7173L23.1749 30.7416C22.8682 30.6723 22.5631 30.5888 22.2676 30.4931L21.959 31.4443ZM24.9971 31.9892L25.04 30.9902C24.725 30.9766 24.4097 30.9492 24.102 30.9077L23.9692 31.8989C24.3061 31.9443 24.6523 31.9746 24.9971 31.9892ZM26.0283 31.9878C26.3691 31.9722 26.7148 31.9409 27.0542 31.8955L26.9214 30.9043C26.6104 30.9463 26.2945 30.9746 25.9825 30.9887L26.0283 31.9878ZM28.0698 31.7114C28.4033 31.6353 28.7377 31.543 29.0634 31.437L28.7549 30.4859C28.457 30.5826 28.1514 30.667 27.8472 30.7369L28.0698 31.7114ZM22.2251 10.5204L21.9136 9.57025C21.5874 9.6772 21.2632 9.80025 20.9487 9.93595L21.3453 10.8539C21.6319 10.7304 21.9277 10.6181 22.2251 10.5204ZM19.1777 30.1074L19.7275 29.2724C19.4663 29.1 19.2099 28.914 18.9658 28.7197L18.3428 29.5019C18.6104 29.7148 18.8911 29.9184 19.1777 30.1074ZM20.4986 11.2655L20.021 10.3867C19.7217 10.5493 19.4248 10.728 19.1382 10.9184L19.6919 11.7514C19.9536 11.5775 20.2251 11.414 20.4986 11.2655ZM18.9317 12.3085L18.3067 11.5283C18.0415 11.7402 17.7807 11.9697 17.5317 12.209L18.2241 12.9296C18.4517 12.7114 18.6895 12.5024 18.9317 12.3085ZM20.0615 30.6347C20.3603 30.7959 20.6733 30.9467 20.9931 31.083L21.3848 30.163C21.0938 30.039 20.8086 29.9018 20.5371 29.7549L20.0615 30.6347Z" fill="url(#paint0_linear_12262_142100)"/>
</g>
<defs>
<linearGradient id="paint0_linear_12262_142100" x1="9.5" y1="33.96" x2="38.3159" y2="22.5687" gradientUnits="userSpaceOnUse">
<stop stop-color="#0575E6"/>
<stop offset="1" stop-color="#021B79"/>
</linearGradient>
<clipPath id="clip0_12262_142100">
<rect width="32" height="32" fill="white" transform="translate(9.5 9)"/>
</clipPath>
</defs>
</svg>
