<svg width="51" height="50" viewBox="0 0 51 50" fill="none" xmlns="http://www.w3.org/2000/svg">
<rect x="0.5" width="50" height="50" rx="25" fill="#DBE9FE"/>
<g clip-path="url(#clip0_12262_142212)">
<path d="M25.4986 16.2831C23.1848 16.2831 21.0186 17.1692 19.3448 18.8431C17.7201 20.4677 16.7848 22.6831 16.7848 24.9969C16.7848 29.7723 20.674 33.6615 25.4986 33.6615C27.8125 33.6615 29.9786 32.7754 31.6525 31.1015C33.2771 29.4769 34.2125 27.2615 34.2125 24.9477C34.1632 20.2215 30.274 16.2831 25.4986 16.2831ZM25.4986 17.0215C26.8278 17.0215 28.0094 19.04 28.5017 21.7969H22.4955C22.6925 20.8615 22.9386 19.9754 23.234 19.2369C23.874 17.8584 24.6617 17.0707 25.4986 17.0215ZM28.7971 24.9969C28.7971 25.8338 28.7478 26.6707 28.6494 27.4092H22.3971C22.2986 26.6215 22.2494 25.8338 22.2494 24.9969C22.2494 24.16 22.2986 23.3231 22.3971 22.5846H28.6494C28.7478 23.3231 28.7971 24.16 28.7971 24.9969ZM25.4986 32.9723C24.1694 32.9723 22.9878 30.9538 22.4955 28.1969H28.5017C28.3048 29.1323 28.0586 30.0184 27.7632 30.7569C27.1232 32.1354 26.3355 32.9723 25.4986 32.9723ZM19.8863 19.3846C20.9201 18.3507 22.2001 17.6123 23.6278 17.2677C23.234 17.7107 22.8894 18.2523 22.594 18.9415C22.2494 19.7784 21.954 20.7631 21.7571 21.7969H18.2125C18.6063 20.9107 19.1478 20.0738 19.8863 19.3846ZM17.9171 22.5846H21.6094C21.5109 23.3723 21.4617 24.16 21.4617 24.9969C21.4617 25.8338 21.5109 26.6707 21.6094 27.4092H17.9171C17.6709 26.6215 17.5232 25.8338 17.5232 24.9969C17.5232 24.16 17.6709 23.3723 17.9171 22.5846ZM18.2125 28.1477H21.7571C22.1017 30.1169 22.7909 31.7415 23.6278 32.7261C21.2155 32.1354 19.1971 30.4123 18.2125 28.1477ZM31.1109 30.6092C30.0771 31.6431 28.7478 32.3815 27.3694 32.7261C27.7632 32.2831 28.1078 31.7415 28.4032 31.0523C28.7478 30.2154 29.0432 29.2307 29.2401 28.1969H32.7848C32.3909 29.0831 31.8494 29.92 31.1109 30.6092ZM33.0801 27.4092H29.3878C29.4863 26.6215 29.5355 25.8338 29.5355 24.9969C29.5355 24.16 29.4863 23.3231 29.3878 22.5846H33.0801C33.3263 23.3723 33.474 24.16 33.474 24.9969C33.474 25.8338 33.3263 26.6215 33.0801 27.4092ZM32.7848 21.8461H29.2401C28.8955 19.8769 28.2063 18.2523 27.3694 17.2677C29.7817 17.8584 31.8001 19.5815 32.7848 21.8461ZM15.6032 15.3477C17.7694 13.1323 20.6248 11.7046 23.6771 11.3107C23.9232 12.0984 24.6125 12.7384 25.4986 12.7384C26.5325 12.7384 27.4186 11.9015 27.4186 10.8184C27.4186 9.73536 26.5817 8.89844 25.4986 8.89844C24.514 8.89844 23.7263 9.6369 23.6278 10.5723C20.3786 10.9661 17.3263 12.4923 15.0617 14.8061L15.6032 15.3477ZM25.4986 9.6369C26.1386 9.6369 26.6801 10.1784 26.6801 10.8184C26.6801 11.4584 26.1386 12 25.4986 12C24.8586 12 24.3171 11.4584 24.3171 10.8184C24.3171 10.1292 24.8586 9.6369 25.4986 9.6369ZM11.5171 29.1323L12.2063 28.9354C11.8125 27.6554 11.6648 26.3754 11.6648 25.0461C11.6648 23.2246 12.0094 21.4031 12.6986 19.7292C12.8463 19.7784 13.0432 19.7784 13.1909 19.7784C13.8801 19.7784 14.5201 19.4338 14.8648 18.8431C15.1109 18.4 15.2094 17.9077 15.0617 17.4154C14.914 16.9231 14.6186 16.5292 14.1755 16.2338C13.8801 16.0861 13.5355 15.9877 13.1909 15.9877C12.5017 15.9877 11.8617 16.3323 11.5171 16.9231C11.3201 17.3169 11.2217 17.8584 11.3694 18.3507C11.4678 18.7446 11.714 19.0892 12.0586 19.3354C10.7639 22.4432 10.5728 25.9007 11.5171 29.1323ZM12.2063 17.2677C12.4032 16.9231 12.7971 16.6769 13.2401 16.6769C13.4371 16.6769 13.634 16.7261 13.8309 16.8246C14.1263 16.9723 14.274 17.2184 14.3725 17.5631C14.4709 17.8584 14.4217 18.2031 14.274 18.4492C13.9294 18.9907 13.1909 19.1877 12.6494 18.8431C12.354 18.6954 12.2063 18.4492 12.1078 18.1046C12.0094 17.8584 12.0586 17.5138 12.2063 17.2677ZM14.4709 33.3661C15.0617 32.7754 15.2094 31.84 14.7663 31.0523C14.4217 30.4615 13.7817 30.0677 13.0925 30.0677C12.7478 30.0677 12.4525 30.1661 12.1571 30.3138C11.714 30.56 11.3694 30.9538 11.2709 31.4461C11.1232 31.9384 11.2217 32.4307 11.4678 32.8738C11.8125 33.4646 12.4525 33.8584 13.1417 33.8584C13.3878 33.8584 13.634 33.8092 13.8801 33.7107C15.8001 36.2215 18.4586 38.0923 21.5109 38.9292L21.7078 38.24C18.8525 37.5015 16.2925 35.7292 14.4709 33.3661ZM12.1078 32.5784C11.9601 32.2831 11.9109 31.9877 12.0094 31.6923C12.1078 31.3969 12.3048 31.1507 12.5509 31.0031C12.7478 30.9046 12.9448 30.8554 13.1417 30.8554C13.5848 30.8554 13.9786 31.1015 14.1755 31.4461C14.4709 31.9877 14.274 32.7261 13.7325 33.0707C13.1909 33.3661 12.4525 33.12 12.1078 32.5784ZM35.2955 34.7446C33.1294 36.9107 30.3232 38.2892 27.3201 38.6831C27.2217 38.3877 27.074 38.0923 26.8278 37.8461C26.4832 37.5015 25.9909 37.2554 25.4494 37.2554C24.4155 37.2554 23.5294 38.0923 23.5294 39.1261C23.5294 39.6184 23.7263 40.1107 24.0709 40.5046C24.4155 40.8492 24.9078 41.0954 25.4001 41.0954C26.3848 41.0954 27.1725 40.3569 27.2709 39.4215C30.4709 39.0277 33.4248 37.5507 35.7386 35.2369L35.2955 34.7446ZM25.4986 40.3569C25.154 40.3569 24.8586 40.2092 24.6617 40.0123C24.4648 39.7661 24.3171 39.4707 24.3171 39.1754C24.3171 38.5354 24.8586 37.9938 25.4986 37.9938C25.794 37.9938 26.0894 38.1415 26.3355 38.3384C26.5325 38.5846 26.6801 38.88 26.6801 39.1754C26.6801 39.8646 26.1386 40.3569 25.4986 40.3569ZM36.5755 16.7261C36.3294 16.9723 36.1817 17.2184 36.0832 17.5631C35.9355 18.0554 35.9848 18.5477 36.2309 19.04C36.5755 19.6307 37.2155 20.0246 37.9048 20.0246C38.2494 20.0246 38.5448 19.9261 38.8401 19.7784C39.2832 19.5323 39.6278 19.1384 39.7755 18.6461C39.9232 18.1538 39.874 17.6615 39.6278 17.1692C39.2832 16.5784 38.6432 16.1846 37.954 16.1846C37.7078 16.1846 37.4617 16.2338 37.2648 16.3323C35.2463 13.6246 32.3417 11.6554 29.0925 10.8677L28.8955 11.6061C31.9478 12.3446 34.7048 14.1661 36.5755 16.7261ZM38.9386 17.5138C39.0863 17.8092 39.1355 18.1046 39.0371 18.4C38.9386 18.6954 38.7417 18.9415 38.4955 19.0892C37.954 19.3846 37.2155 19.1877 36.9201 18.6461C36.7725 18.3507 36.7232 18.0554 36.8217 17.76C36.9201 17.4646 37.1171 17.2184 37.3632 17.0707C37.5601 16.9723 37.7571 16.9231 37.954 16.9231C38.3478 16.9231 38.7417 17.1692 38.9386 17.5138ZM38.8894 30.7569C39.6771 28.9354 40.0709 26.9661 40.0709 24.9969C40.0709 23.7661 39.9232 22.4861 39.5786 21.3046L38.8401 21.5015C39.1355 22.6338 39.2832 23.8154 39.2832 24.9969C39.2832 26.8677 38.8894 28.6892 38.1509 30.4123C38.0032 30.3631 37.8063 30.3631 37.6094 30.3631C36.9201 30.3631 36.3294 30.7077 35.9848 31.2984C35.4432 32.1846 35.7386 33.3661 36.6248 33.9077C36.9201 34.1046 37.2648 34.1538 37.6094 34.1538C38.2986 34.1538 38.8894 33.8092 39.234 33.2184C39.4801 32.7754 39.5786 32.2831 39.4309 31.7907C39.4801 31.3969 39.234 31.0523 38.8894 30.7569ZM38.6925 32.8738C38.4955 33.2184 38.1017 33.4646 37.6586 33.4646C37.4617 33.4646 37.2648 33.4154 37.0678 33.3169C36.5263 32.9723 36.3294 32.2831 36.674 31.6923C36.8709 31.3477 37.2648 31.1015 37.7078 31.1015C37.9048 31.1015 38.1017 31.1507 38.2986 31.2492C38.5448 31.3969 38.7417 31.6431 38.8401 31.9877C38.9386 32.2831 38.8894 32.5784 38.6925 32.8738Z" fill="url(#paint0_linear_12262_142212)"/>
</g>
<defs>
<linearGradient id="paint0_linear_12262_142212" x1="10.9258" y1="34.012" x2="41.02" y2="21.4808" gradientUnits="userSpaceOnUse">
<stop stop-color="#0575E6"/>
<stop offset="1" stop-color="#021B79"/>
</linearGradient>
<clipPath id="clip0_12262_142212">
<rect width="32" height="32" fill="white" transform="translate(9.5 9)"/>
</clipPath>
</defs>
</svg>
