<svg width="51" height="50" viewBox="0 0 51 50" fill="none" xmlns="http://www.w3.org/2000/svg">
<rect x="0.5" width="50" height="50" rx="25" fill="#DBE9FE"/>
<path d="M38.0433 24.0471C37.9687 22.9963 37.834 21.9507 37.6397 20.9153C37.6161 20.7883 37.5632 20.6686 37.4852 20.5656C37.4073 20.4626 37.3064 20.3792 37.1905 20.322C37.0731 20.2627 36.9434 20.2315 36.8118 20.231C36.6802 20.2306 36.5503 20.2608 36.4325 20.3193C35.6102 20.7141 34.9619 21.3977 34.6112 22.2397C34.2958 23.0389 34.2791 23.9249 34.5641 24.7353C34.6214 24.8976 34.6174 25.0751 34.5528 25.2346L34.1006 26.3051C33.7388 26.3522 33.4006 26.5105 33.1327 26.7581L31.2574 28.5017C31.1909 28.5624 31.1048 28.5971 31.0147 28.5996C30.4249 28.6254 29.8465 28.7714 29.315 29.0288C28.9632 29.2 28.6373 29.4198 28.3468 29.6819C27.898 30.1026 27.5424 30.6126 27.3027 31.1791C27.0629 31.7455 26.9445 32.3559 26.9549 32.9709V35.2101C26.7868 35.296 26.6455 35.4264 26.5466 35.5873C26.4477 35.7481 26.3951 35.933 26.3944 36.1218V37.9849C26.3947 38.2581 26.5034 38.5201 26.6966 38.7134C26.8899 38.9066 27.1519 39.0153 27.4252 39.0156H32.8238C33.0971 39.0153 33.3591 38.9066 33.5523 38.7134C33.7456 38.5201 33.8543 38.2581 33.8546 37.9849V36.1218C33.8538 35.9035 33.7836 35.6912 33.6541 35.5154C33.5246 35.3397 33.3425 35.2097 33.1343 35.1443L33.1351 35.1167C33.1408 34.9353 33.2178 34.7635 33.3492 34.6384L37.1637 30.9673C37.5531 30.592 37.8041 30.0961 37.8758 29.5601C38.116 27.7327 38.1721 25.8857 38.0433 24.0471ZM32.8238 38.0156L27.3944 37.9849L27.4252 36.0913H32.8238C32.8319 36.0913 32.8397 36.0945 32.8455 36.1002C32.8513 36.1059 32.8545 36.1137 32.8546 36.1218L32.8238 38.0156ZM36.8844 29.4297C36.8439 29.7413 36.6978 30.0297 36.4703 30.2466L32.6556 33.918C32.3349 34.2255 32.1481 34.6471 32.1359 35.0913H27.9549V32.9709C27.9445 32.496 28.0335 32.0241 28.2163 31.5856C28.3991 31.1472 28.6716 30.7517 29.0162 30.4248C29.2371 30.2254 29.485 30.0581 29.7525 29.928C30.1622 29.7301 30.608 29.618 31.0626 29.5987C31.3884 29.5842 31.6987 29.4551 31.9386 29.2342L33.8136 27.4903C33.9237 27.3893 34.0606 27.3223 34.2079 27.2973C34.3551 27.2724 34.5065 27.2905 34.6437 27.3496C34.7035 27.3751 34.7541 27.4182 34.7887 27.4731C34.8233 27.5281 34.8404 27.5923 34.8375 27.6572C34.837 27.8596 34.7613 28.0545 34.6251 28.2041L32.2811 30.7996C32.2371 30.8483 32.2031 30.9052 32.1811 30.9671C32.1591 31.029 32.1495 31.0946 32.1528 31.1602C32.1561 31.2258 32.1723 31.29 32.2005 31.3494C32.2287 31.4087 32.2683 31.4619 32.317 31.5059C32.3657 31.5499 32.4227 31.5839 32.4845 31.6059C32.5464 31.6279 32.612 31.6376 32.6776 31.6342C32.7432 31.6309 32.8075 31.6147 32.8668 31.5865C32.9261 31.5583 32.9793 31.5187 33.0233 31.47L35.3673 28.8743C35.6739 28.5339 35.8417 28.0909 35.8375 27.6328C35.8363 27.3915 35.7682 27.1552 35.6408 26.9502C35.5133 26.7452 35.3316 26.5795 35.1156 26.4716L35.474 25.6236C35.6342 25.2386 35.6473 24.8081 35.5109 24.4141C35.3037 23.8291 35.314 23.1891 35.5399 22.6111C35.7661 22.059 36.1738 21.6005 36.6957 21.3113C36.8622 22.2398 36.9791 23.1765 37.0458 24.1174C37.1699 25.8891 37.1159 27.6688 36.8844 29.4297ZM24.0407 35.2103L24.0414 32.9712C24.0521 32.3561 23.9339 31.7456 23.6944 31.1789C23.4549 30.6123 23.0994 30.1021 22.6507 29.6812C22.3602 29.4193 22.0343 29.1995 21.6827 29.0281C21.1516 28.7707 20.5734 28.6245 19.9838 28.5984C19.8936 28.5958 19.8073 28.561 19.7404 28.5005L17.8664 26.7561C17.5982 26.508 17.2593 26.3497 16.897 26.3033L16.4457 25.2346C16.3804 25.0872 16.3723 24.9208 16.423 24.7678C16.7152 23.9481 16.7027 23.0506 16.3878 22.2393C16.0371 21.3963 15.3881 20.7121 14.5648 20.3174C14.4474 20.2588 14.3179 20.2284 14.1866 20.2287C14.0553 20.229 13.9259 20.2599 13.8087 20.3191C13.6928 20.3767 13.5919 20.4604 13.5139 20.5637C13.436 20.667 13.3831 20.787 13.3595 20.9143C12.8237 23.7605 12.7427 26.6736 13.1195 29.5452C13.19 30.0858 13.4415 30.5866 13.8329 30.9661L17.6466 34.6384C17.7789 34.7651 17.8558 34.9388 17.8607 35.1218L17.8614 35.1442C17.6531 35.2096 17.4711 35.3396 17.3415 35.5154C17.212 35.6911 17.1418 35.9035 17.141 36.1218V37.9849C17.1413 38.2581 17.25 38.5201 17.4431 38.7133C17.6363 38.9065 17.8983 39.0153 18.1715 39.0156H23.5704C23.8436 39.0153 24.1056 38.9065 24.2988 38.7133C24.4919 38.5201 24.6006 38.2581 24.6009 37.9849V36.1218C24.6002 35.9331 24.5476 35.7482 24.4488 35.5874C24.3499 35.4266 24.2088 35.2961 24.0407 35.2103ZM14.5265 30.2456C14.2982 30.0238 14.1518 29.7312 14.1112 29.4155C13.7573 26.72 13.8222 23.986 14.3036 21.3103C14.8254 21.5996 15.233 22.0582 15.4591 22.6103C15.6882 23.1965 15.6953 23.8462 15.4791 24.4373C15.3462 24.8245 15.3622 25.2472 15.524 25.6233L15.8812 26.4691C15.6626 26.5798 15.4794 26.7494 15.3521 26.9587C15.2248 27.1681 15.1586 27.4088 15.161 27.6538C15.161 28.1039 15.3285 28.538 15.6307 28.8716L17.9737 31.4678C18.0625 31.5662 18.1868 31.6253 18.3192 31.6321C18.4516 31.6388 18.5813 31.5927 18.6797 31.5039C18.7782 31.4151 18.8373 31.2908 18.844 31.1584C18.8508 31.0259 18.8047 30.8963 18.7159 30.7978L16.3731 28.2017C16.2325 28.0448 16.1567 27.8405 16.1609 27.6299C16.1624 27.5671 16.1825 27.5063 16.2189 27.4551C16.2552 27.4039 16.306 27.3648 16.3648 27.3428C16.501 27.2857 16.6508 27.269 16.7962 27.2948C16.9416 27.3205 17.0766 27.3876 17.1849 27.488L19.0591 29.2327C19.2992 29.4535 19.6093 29.5826 19.9351 29.5974C20.3896 29.617 20.8353 29.7291 21.2449 29.927C21.5123 30.0575 21.7601 30.2248 21.981 30.4241C22.3256 30.7511 22.598 31.1466 22.7806 31.5852C22.9632 32.0238 23.052 32.4957 23.0413 32.9707L23.0407 35.0913H18.8601C18.8479 34.647 18.6611 34.2255 18.3402 33.918L14.5265 30.2456ZM23.5704 38.0156L18.141 37.9848V36.1218L18.1715 36.0913L23.6009 36.1218L23.5704 38.0156ZM25.4984 10.9844C23.9161 10.9844 22.3694 11.4536 21.0538 12.3326C19.7382 13.2117 18.7129 14.4611 18.1074 15.9229C17.5019 17.3847 17.3434 18.9932 17.6521 20.5451C17.9608 22.0969 18.7227 23.5224 19.8415 24.6412C20.9604 25.76 22.3858 26.522 23.9377 26.8307C25.4895 27.1393 27.0981 26.9809 28.5599 26.3754C30.0217 25.7699 31.2711 24.7445 32.1501 23.4289C33.0292 22.1133 33.4984 20.5666 33.4984 18.9844C33.496 16.8634 32.6523 14.83 31.1526 13.3302C29.6528 11.8304 27.6194 10.9868 25.4984 10.9844ZM29.421 24.7786L28.9576 23.9763C28.9248 23.9194 28.8811 23.8696 28.829 23.8296C28.7769 23.7896 28.7175 23.7603 28.6541 23.7433C28.5906 23.7263 28.5245 23.7219 28.4594 23.7305C28.3943 23.7391 28.3315 23.7604 28.2746 23.7932C28.2178 23.8261 28.1679 23.8698 28.128 23.9219C28.088 23.974 28.0587 24.0335 28.0417 24.0969C28.0248 24.1603 28.0205 24.2265 28.0291 24.2916C28.0377 24.3567 28.059 24.4195 28.0919 24.4763L28.5522 25.2734C27.7528 25.6636 26.8858 25.8964 25.9984 25.959V25.0371C25.9984 24.9045 25.9457 24.7773 25.8519 24.6836C25.7582 24.5898 25.631 24.5371 25.4984 24.5371C25.3658 24.5371 25.2386 24.5898 25.1448 24.6836C25.0511 24.7773 24.9984 24.9045 24.9984 25.0371V25.959C24.1111 25.8964 23.2442 25.6636 22.4449 25.2735L22.9051 24.4763C22.9714 24.3614 22.9894 24.2249 22.955 24.0968C22.9207 23.9687 22.8369 23.8595 22.722 23.7932C22.6072 23.7269 22.4707 23.7089 22.3425 23.7433C22.2144 23.7776 22.1052 23.8614 22.0389 23.9763L21.5757 24.7786C20.8394 24.2783 20.2044 23.6433 19.7042 22.907L20.5064 22.4438C20.6213 22.3775 20.7051 22.2683 20.7395 22.1402C20.7738 22.0121 20.7559 21.8756 20.6896 21.7607C20.6233 21.6459 20.514 21.562 20.3859 21.5277C20.2578 21.4934 20.1213 21.5113 20.0064 21.5776L19.2092 22.0379C18.8191 21.2385 18.5864 20.3716 18.5237 19.4844H19.4456C19.5783 19.4844 19.7054 19.4317 19.7992 19.3379C19.893 19.2441 19.9456 19.117 19.9456 18.9844C19.9456 18.8517 19.893 18.7246 19.7992 18.6308C19.7054 18.537 19.5783 18.4844 19.4456 18.4844H18.5237C18.5864 17.5971 18.8191 16.7302 19.2092 15.9309L20.0065 16.3911C20.1213 16.4574 20.2578 16.4754 20.3859 16.441C20.514 16.4067 20.6233 16.3228 20.6896 16.208C20.7559 16.0931 20.7738 15.9566 20.7395 15.8285C20.7052 15.7004 20.6213 15.5912 20.5065 15.5249L19.7042 15.0617C20.2044 14.3254 20.8395 13.6904 21.5758 13.1901L22.0389 13.9924C22.1052 14.1073 22.2145 14.1911 22.3426 14.2254C22.4707 14.2598 22.6072 14.2418 22.722 14.1755C22.8369 14.1092 22.9207 14 22.9551 13.8719C22.9894 13.7438 22.9715 13.6073 22.9051 13.4924L22.4449 12.6952C23.2442 12.3051 24.1111 12.0724 24.9984 12.0097V12.9316C24.9984 13.0642 25.0511 13.1914 25.1448 13.2852C25.2386 13.379 25.3658 13.4316 25.4984 13.4316C25.631 13.4316 25.7582 13.379 25.8519 13.2852C25.9457 13.1914 25.9984 13.0642 25.9984 12.9316V12.0097C26.8858 12.0724 27.7528 12.3052 28.5522 12.6954L28.0919 13.4924C28.059 13.5493 28.0377 13.612 28.0291 13.6771C28.0205 13.7422 28.0248 13.8084 28.0417 13.8718C28.0587 13.9353 28.088 13.9947 28.128 14.0469C28.1679 14.099 28.2178 14.1427 28.2746 14.1755C28.3315 14.2084 28.3943 14.2297 28.4594 14.2383C28.5245 14.2468 28.5906 14.2425 28.6541 14.2255C28.7175 14.2085 28.7769 14.1791 28.829 14.1392C28.8811 14.0992 28.9248 14.0493 28.9576 13.9924L29.421 13.1901C30.1573 13.6904 30.7924 14.3254 31.2926 15.0617L30.4903 15.5249C30.4335 15.5577 30.3836 15.6014 30.3436 15.6535C30.3036 15.7056 30.2743 15.7651 30.2573 15.8285C30.223 15.9566 30.2409 16.0931 30.3072 16.208C30.3735 16.3229 30.4827 16.4067 30.6109 16.441C30.739 16.4754 30.8755 16.4574 30.9903 16.3911L31.7876 15.9309C32.1777 16.7302 32.4104 17.5971 32.4731 18.4844H31.5514C31.4188 18.4844 31.2916 18.5371 31.1978 18.6308C31.1041 18.7246 31.0514 18.8518 31.0514 18.9844C31.0514 19.117 31.1041 19.2442 31.1978 19.3379C31.2916 19.4317 31.4188 19.4844 31.5514 19.4844H32.4731C32.4104 20.3716 32.1777 21.2385 31.7876 22.0379L30.9903 21.5776C30.9335 21.5448 30.8707 21.5235 30.8056 21.5149C30.7405 21.5064 30.6743 21.5107 30.6109 21.5277C30.4828 21.5621 30.3735 21.6459 30.3072 21.7608C30.2409 21.8756 30.223 22.0121 30.2573 22.1402C30.2917 22.2683 30.3755 22.3776 30.4903 22.4439L31.2926 22.907C30.7924 23.6434 30.1573 24.2784 29.421 24.7786Z" fill="url(#paint0_linear_12262_142206)"/>
<path d="M28.0442 19.4846H25.5C25.3674 19.4846 25.2402 19.4319 25.1464 19.3382C25.0527 19.2444 25 19.1172 25 18.9846V14.7344C25 14.6018 25.0527 14.4746 25.1464 14.3808C25.2402 14.2871 25.3674 14.2344 25.5 14.2344C25.6326 14.2344 25.7598 14.2871 25.8536 14.3808C25.9473 14.4746 26 14.6018 26 14.7344V18.4846H28.0442C28.1768 18.4846 28.304 18.5373 28.3977 18.6311C28.4915 18.7248 28.5442 18.852 28.5442 18.9846C28.5442 19.1172 28.4915 19.2444 28.3977 19.3382C28.304 19.4319 28.1768 19.4846 28.0442 19.4846Z" fill="url(#paint1_linear_12262_142206)"/>
<defs>
<linearGradient id="paint0_linear_12262_142206" x1="12.8867" y1="32.8488" x2="38.9776" y2="22.0489" gradientUnits="userSpaceOnUse">
<stop stop-color="#0575E6"/>
<stop offset="1" stop-color="#021B79"/>
</linearGradient>
<linearGradient id="paint1_linear_12262_142206" x1="25" y1="18.3296" x2="28.9165" y2="17.1134" gradientUnits="userSpaceOnUse">
<stop stop-color="#0575E6"/>
<stop offset="1" stop-color="#021B79"/>
</linearGradient>
</defs>
</svg>
