<svg width="208" height="112" viewBox="0 0 208 112" fill="none" xmlns="http://www.w3.org/2000/svg">
<rect width="208" height="112" rx="16" fill="white"/>
<path d="M71.429 43.0185C72.1886 43.0185 72.9112 43.1668 73.5967 43.4632C74.2822 43.7596 74.8751 44.1673 75.3939 44.6675C75.9127 45.1678 76.3203 45.7792 76.6167 46.4647C76.9132 47.1502 77.0799 47.8728 77.0799 48.6325V62.9359C77.0799 63.7141 76.9317 64.4552 76.6353 65.1593C76.3388 65.8633 75.9312 66.4562 75.431 66.975C74.9122 67.4938 74.3193 67.9014 73.6337 68.1978C72.9482 68.5128 72.2071 68.661 71.429 68.661H69.2982C69.0944 68.661 68.9462 68.6055 68.835 68.4758C68.7239 68.3461 68.6683 68.1978 68.6683 68.0311V67.957C68.6683 67.7902 68.7239 67.642 68.835 67.5123C68.9462 67.3826 69.0944 67.327 69.2982 67.327H71.429C72.0404 67.327 72.6147 67.2159 73.1335 66.975C73.6523 66.7341 74.1155 66.4377 74.5231 66.0486C74.9307 65.6595 75.2457 65.1963 75.468 64.659C75.7089 64.1217 75.82 63.5474 75.82 62.9359V48.6325C75.82 48.021 75.7089 47.4467 75.468 46.9279C75.2271 46.4091 74.9122 45.9459 74.5231 45.5568C74.1155 45.1678 73.6523 44.8528 73.1335 44.6304C72.6147 44.3896 72.0404 44.2784 71.429 44.2784L69.2982 44.2414H69.1871H67.6493C67.2417 44.2414 66.8711 44.3896 66.5561 44.7046C66.2412 45.0195 66.0744 45.3901 66.0744 45.8162V67.9755C66.0744 68.1423 66.0188 68.2905 65.9077 68.4202C65.7965 68.5499 65.6483 68.6054 65.4815 68.6054C65.2777 68.6054 65.1295 68.5499 65.0183 68.4202C64.9072 68.2905 64.8516 68.1423 64.8516 67.9755V45.7977C64.8516 45.0195 65.1295 44.3525 65.6668 43.8152C66.2041 43.2779 66.8711 43 67.6493 43H69.2241H69.2982H71.429V43.0185Z" fill="#0D1A46"/>
<path d="M80.6729 43.9079C80.6174 43.7041 80.6359 43.5188 80.71 43.315C80.7841 43.1112 80.9323 43.0186 81.1547 43.0186C81.2473 43.0186 81.3955 43.0556 81.5623 43.1112C81.729 43.1668 81.8402 43.3521 81.8958 43.6485L86.1201 65.4002L90.3445 43.7226C90.4186 43.3891 90.5298 43.1853 90.6965 43.1112C90.8633 43.0556 90.9929 43.0186 91.1226 43.0186C91.345 43.0371 91.4932 43.1297 91.5673 43.2965C91.6414 43.4632 91.6229 43.7411 91.5303 44.1673L86.9168 67.9755C86.8427 68.3276 86.713 68.5128 86.5463 68.587C86.3795 68.6425 86.2313 68.6796 86.1386 68.6796C86.0645 68.6796 85.9348 68.6425 85.7496 68.587C85.5643 68.5314 85.4531 68.3276 85.3975 67.9755L80.6729 43.9079Z" fill="#0D1A46"/>
<path d="M100.651 43.0186C101.429 43.0186 102.17 43.1668 102.856 43.4632C103.541 43.7597 104.134 44.1673 104.653 44.6675C105.172 45.1678 105.579 45.7792 105.857 46.4647C106.154 47.1503 106.302 47.8914 106.302 48.6695V62.973C106.302 63.7512 106.154 64.4923 105.857 65.1778C105.561 65.8634 105.153 66.4562 104.653 66.975C104.153 67.4938 103.541 67.9014 102.856 68.1979C102.17 68.5128 101.429 68.6611 100.651 68.6611C99.8728 68.6611 99.1317 68.5128 98.4462 68.1979C97.7606 67.9014 97.1678 67.4753 96.649 66.975C96.1302 66.4748 95.7226 65.8634 95.4447 65.1778C95.1482 64.4923 95 63.7512 95 62.973V48.6695C95 47.8914 95.1482 47.1503 95.4447 46.4647C95.7411 45.7792 96.1487 45.1863 96.649 44.6675C97.1492 44.1488 97.7606 43.7597 98.4462 43.4632C99.1317 43.1668 99.8543 43.0186 100.651 43.0186ZM105.042 48.6695C105.042 48.0581 104.931 47.4838 104.69 46.965C104.449 46.4462 104.134 45.983 103.745 45.5754C103.338 45.1678 102.874 44.8528 102.356 44.6305C101.837 44.3896 101.262 44.2784 100.651 44.2784C100.04 44.2784 99.4652 44.3896 98.9464 44.6305C98.4277 44.8713 97.9645 45.1863 97.5568 45.5754C97.1492 45.983 96.8342 46.4462 96.6119 46.965C96.371 47.4838 96.2599 48.0581 96.2599 48.6695V62.973C96.2599 63.5844 96.371 64.1588 96.6119 64.6961C96.8528 65.2334 97.1678 65.6966 97.5568 66.1042C97.9645 66.5118 98.4277 66.8268 98.9464 67.0491C99.4652 67.29 100.04 67.4012 100.651 67.4012C101.262 67.4012 101.837 67.29 102.356 67.0491C102.874 66.8083 103.338 66.4933 103.745 66.1042C104.153 65.6966 104.468 65.2334 104.69 64.6961C104.931 64.1588 105.042 63.5844 105.042 62.973V48.6695Z" fill="#0D1A46"/>
<path d="M119.374 67.3826C119.541 67.3826 119.689 67.4382 119.819 67.5494C119.949 67.6605 120.004 67.8088 120.004 68.0126C120.004 68.1793 119.949 68.3275 119.819 68.4572C119.689 68.5869 119.541 68.6425 119.374 68.6425H116.688V68.6796C115.873 68.6796 115.131 68.5313 114.427 68.2534C113.723 67.9755 113.112 67.5864 112.575 67.0862C112.037 66.5859 111.611 65.993 111.315 65.289C111 64.5849 110.852 63.8438 110.852 63.0286V48.688C110.852 47.9284 111 47.2058 111.278 46.5388C111.556 45.8718 111.945 45.2789 112.426 44.7601C112.908 44.2414 113.483 43.8337 114.131 43.5188C114.779 43.2038 115.484 43.0371 116.243 43H116.317H116.503H116.688H119.374C119.541 43 119.689 43.0556 119.819 43.1853C119.949 43.315 120.004 43.4632 120.004 43.6299C120.004 43.8337 119.949 43.982 119.819 44.0931C119.689 44.2043 119.541 44.2599 119.374 44.2599H116.688V44.2969C116.632 44.2969 116.614 44.2969 116.595 44.2784C116.577 44.2599 116.558 44.2599 116.503 44.2599C115.891 44.2599 115.317 44.371 114.798 44.6119C114.279 44.8528 113.816 45.1678 113.408 45.5568C113.001 45.9644 112.686 46.4276 112.463 46.9649C112.223 47.5023 112.111 48.0766 112.111 48.688V63.0286C112.111 63.6215 112.223 64.1588 112.445 64.6776C112.667 65.1963 112.964 65.641 113.334 66.0301C113.705 66.4192 114.131 66.7341 114.631 66.975C115.131 67.2159 115.669 67.3456 116.262 67.3826H119.374Z" fill="#0D1A46"/>
<path d="M135.628 67.6049C135.72 68.0126 135.739 68.2905 135.646 68.4016C135.554 68.5128 135.424 68.5869 135.22 68.6054C135.053 68.6054 134.887 68.5499 134.739 68.4572C134.59 68.3646 134.479 68.1052 134.405 67.6791L133.664 64.0476L130.366 46.6314L127.439 62.0095L127.253 62.8248L126.308 67.8087C126.253 68.1608 126.142 68.3831 125.975 68.5128C125.808 68.6425 125.66 68.6796 125.53 68.624C125.4 68.624 125.289 68.5499 125.16 68.4202C125.03 68.2905 124.993 68.0681 125.048 67.7346L129.699 43.4447C129.755 43.2223 129.829 43.0926 129.921 43.0556C130.014 43.0185 130.107 43 130.181 43H130.514C130.588 43 130.681 43.0185 130.774 43.037C130.866 43.0556 130.94 43.2038 130.996 43.4447L135.628 67.6049Z" fill="#0D1A46"/>
<path d="M150.191 61.4354C150.394 62.1765 150.45 62.8991 150.376 63.6031C150.302 64.3072 150.135 64.9742 149.876 65.5671C149.616 66.16 149.264 66.6973 148.82 67.1605C148.375 67.6237 147.856 67.9942 147.263 68.2536C147.133 68.3092 146.985 68.3648 146.818 68.4389C146.652 68.513 146.504 68.5501 146.374 68.5501C146.17 68.5501 146.003 68.476 145.855 68.3463C145.707 68.2166 145.633 68.0498 145.633 67.846C145.633 67.5125 145.799 67.2716 146.114 67.1419C146.244 67.0864 146.355 67.0493 146.448 67.0123C146.541 66.9752 146.652 66.9381 146.781 66.8826C147.486 66.4935 148.041 65.9191 148.449 65.1595C148.857 64.3998 149.023 63.6217 148.986 62.8064C148.912 61.7874 148.653 60.8981 148.19 60.157C147.745 59.4158 147.189 58.7674 146.559 58.193C145.929 57.6186 145.225 57.0813 144.465 56.5996C143.706 56.1179 142.983 55.5806 142.279 55.0247C141.575 54.4689 140.945 53.8204 140.389 53.1164C139.834 52.4123 139.426 51.56 139.185 50.541C138.981 49.7999 138.926 49.0773 138.981 48.3733C139.037 47.6692 139.204 47.0022 139.481 46.4093C139.759 45.8164 140.111 45.2791 140.556 44.8159C141.001 44.3527 141.52 43.9822 142.112 43.7228C142.965 43.3337 143.817 43.1299 144.651 43.1299C145.874 43.1299 146.948 43.4819 147.856 44.2045C148.782 44.9271 149.431 45.872 149.857 47.0393C149.931 47.2431 149.95 47.3913 149.913 47.5025C149.876 47.6136 149.82 47.6877 149.746 47.7433C149.672 47.7989 149.598 47.8174 149.524 47.836C149.449 47.8545 149.394 47.8545 149.375 47.8545C149.246 47.8545 149.097 47.8174 148.894 47.7618C148.69 47.7063 148.542 47.5025 148.412 47.1875C148.097 46.4093 147.597 45.7608 146.948 45.2606C146.281 44.7603 145.522 44.5009 144.669 44.5009C144.002 44.5009 143.317 44.6862 142.576 45.0568C141.872 45.4459 141.297 46.0202 140.89 46.7799C140.482 47.5395 140.297 48.3177 140.371 49.1329C140.463 50.1519 140.741 51.0227 141.186 51.7453C141.631 52.4494 142.149 53.0979 142.779 53.6537C143.409 54.2095 144.095 54.7283 144.836 55.21C145.577 55.6917 146.3 56.2105 147.004 56.7664C147.708 57.3222 148.338 57.9707 148.912 58.7118C149.505 59.49 149.931 60.3793 150.191 61.4354Z" fill="#0D1A46"/>
<path d="M163.997 43.6856C163.997 43.8152 163.959 43.945 163.867 44.1117C163.774 44.2785 163.57 44.334 163.218 44.3155H154.825C154.659 44.3155 154.51 44.2599 154.381 44.1302C154.251 44.0005 154.195 43.8523 154.195 43.6485C154.195 43.4818 154.251 43.3335 154.381 43.2038C154.51 43.0741 154.659 43.0186 154.825 43.0186H163.255C163.589 43.0186 163.811 43.0927 163.885 43.2409C163.959 43.3891 163.997 43.5373 163.997 43.6856ZM163.255 55.0431C163.589 55.0431 163.811 55.1358 163.885 55.321C163.959 55.5063 163.997 55.636 163.997 55.7101C163.997 55.7842 163.959 55.9139 163.904 56.0992C163.848 56.2845 163.626 56.3771 163.255 56.3771H154.825C154.659 56.3771 154.51 56.3215 154.381 56.1918C154.251 56.0621 154.195 55.9139 154.195 55.7101C154.195 55.5063 154.251 55.3581 154.381 55.2284C154.51 55.0987 154.659 55.0431 154.825 55.0431H163.255ZM163.997 67.9941C163.997 67.8644 163.941 67.7161 163.848 67.5494C163.756 67.3826 163.515 67.3085 163.144 67.3271H154.825C154.659 67.3271 154.51 67.3826 154.381 67.5123C154.251 67.642 154.195 67.7903 154.195 67.9941C154.195 68.1979 154.251 68.3461 154.381 68.4758C154.51 68.6055 154.659 68.6611 154.825 68.6611H163.144C163.552 68.6611 163.811 68.5869 163.885 68.4202C163.959 68.272 163.997 68.1238 163.997 67.9941Z" fill="#0D1A46"/>
<path d="M59.1002 57.2848C59.4707 57.1921 59.8228 56.9698 60.1933 56.5436C59.0816 57.1365 57.7847 56.6733 56.5619 56.1546C56.1913 55.9878 55.8393 55.8952 55.5428 55.8396L55.5058 55.6543L53.2083 43.6483C53.1527 43.4074 53.0786 43.2592 52.986 43.2407C52.8934 43.2221 52.8007 43.2036 52.7266 43.2036H52.3931C52.319 43.2036 52.2263 43.2221 52.1337 43.2592C52.0411 43.2963 51.967 43.426 51.9114 43.6483L49.6695 55.3393C49.6695 55.3393 49.9474 55.2467 50.3365 55.2467C50.4292 55.2467 50.5218 55.2467 50.5959 55.2652C50.7997 55.2837 50.985 55.1355 51.022 54.9503L52.5599 46.8536L54.1903 55.4876C54.2274 55.6728 54.1162 55.8581 53.9494 55.9137C53.4677 56.0619 52.986 56.3769 52.5599 56.9698C50.3365 54.0053 47.2794 57.8406 44.9449 56.5992C45.334 57.0439 45.7046 57.2662 46.0751 57.3589L44 64.1401C44.2594 65.4741 46.5383 65.8076 47.7797 65.1406L47.7426 65.3629L47.2424 67.9753C47.1868 68.2903 47.2238 68.5126 47.3535 68.6608C47.4832 68.7905 47.5944 68.8646 47.7241 68.8646C47.8538 68.9202 48.002 68.8832 48.1688 68.7535C48.3355 68.6238 48.4467 68.4014 48.5023 68.0494L49.4472 63.0654L49.6325 62.2502L50.5588 57.3589C50.5959 57.118 50.8738 56.9883 51.0776 57.0995C51.3185 57.2106 51.5408 57.3774 51.7446 57.6183C52.0596 57.9888 51.5223 58.6373 52.5228 59.1005H52.5413H52.5599C53.5604 58.6373 53.023 57.9888 53.338 57.6183C54.1532 56.6919 55.2649 56.8586 56.2469 57.0068C57.2289 57.1551 57.97 57.4145 58.6184 57.4145L57.1548 62.1761C57.0806 62.417 56.7471 62.3984 56.6916 62.1576L55.7837 57.433C55.7837 57.433 55.4872 57.3589 55.1167 57.3589C54.7461 57.3589 54.5238 57.47 54.5238 57.47L55.8207 64.3439L56.5619 67.9753C56.636 68.3829 56.7471 68.6423 56.8954 68.7535C57.0436 68.8461 57.1918 68.9017 57.3771 68.9017C57.5809 68.8832 57.7106 68.8091 57.8032 68.6979C57.8959 68.5867 57.8773 68.3273 57.7847 67.9012L57.303 65.3444L57.2659 65.1035C58.4888 65.8446 60.8974 65.5482 61.1568 64.1586L59.1002 57.2848ZM47.9464 64.3439C47.5573 64.455 46.9459 64.5106 46.316 64.5106C45.3155 64.5106 44.2964 64.3624 44.315 64.0659L46.316 57.5256L48.1317 63.4175L48.3355 64.0659C48.3355 64.1771 48.1873 64.2697 47.9464 64.3439ZM49.299 57.3774L48.4281 61.9167C48.3726 62.1576 48.0391 62.1761 47.9649 61.9352L46.5568 57.3589C46.9459 57.3589 47.3721 57.2662 47.8723 57.1551C47.8723 57.1551 48.317 57.0439 48.8728 56.9513C49.1322 56.8957 49.336 57.118 49.299 57.3774ZM60.8233 64.1956C60.8047 64.2142 60.7862 64.2327 60.7677 64.2327C60.7492 64.2327 60.7491 64.2512 60.7306 64.2512C60.7121 64.2697 60.675 64.2697 60.638 64.2883C60.5453 64.3253 60.4527 64.3439 60.323 64.3809C59.8042 64.4921 59.0075 64.5291 58.322 64.4921C58.2849 64.4921 58.2664 64.4921 58.2294 64.4921C58.1367 64.4921 58.0441 64.4736 57.97 64.4736C57.8588 64.455 57.7476 64.455 57.655 64.4365C57.5994 64.4365 57.5624 64.418 57.5068 64.418C57.3771 64.3994 57.2474 64.3624 57.1548 64.3253H57.1362C57.0992 64.3068 57.0806 64.3068 57.0621 64.2883C57.0436 64.2883 57.0251 64.2698 57.0251 64.2698C57.0065 64.2698 57.0065 64.2512 56.988 64.2512C56.9695 64.2512 56.9695 64.2327 56.9509 64.2327L56.9324 64.2142L56.9139 64.1956C56.9139 64.1956 56.9139 64.1771 56.8954 64.1771V64.1586C56.8954 64.14 56.8954 64.1215 56.8954 64.1215L57.0436 63.6583L58.9149 57.5812L60.9159 64.1215C60.8974 64.1215 60.8788 64.1586 60.8233 64.1956Z" fill="url(#paint0_linear_12438_42150)"/>
<defs>
<linearGradient id="paint0_linear_12438_42150" x1="44.0278" y1="56.0171" x2="61.1846" y2="56.0171" gradientUnits="userSpaceOnUse">
<stop stop-color="#0575E6"/>
<stop offset="1" stop-color="#021B79"/>
</linearGradient>
</defs>
</svg>
