<svg width="51" height="50" viewBox="0 0 51 50" fill="none" xmlns="http://www.w3.org/2000/svg">
<rect x="0.5" width="50" height="50" rx="25" fill="#DBE9FE"/>
<path d="M39 19.4997H37.5V13.9287C37.9713 13.807 38.3821 13.5176 38.6553 13.1147C38.9285 12.7118 39.0454 12.2231 38.9841 11.7402C38.9227 11.2573 38.6874 10.8133 38.3221 10.4915C37.9569 10.1697 37.4868 9.99219 37 9.99219C36.5132 9.99219 36.0431 10.1697 35.6779 10.4915C35.3126 10.8133 35.0773 11.2573 35.0159 11.7402C34.9546 12.2231 35.0715 12.7118 35.3447 13.1147C35.6179 13.5176 36.0287 13.807 36.5 13.9287V17.9042C35.9072 16.7774 35.1005 15.7769 34.125 14.9587C32.149 13.3371 29.6635 12.4661 27.1075 12.4997H23.853C21.5106 12.4745 19.2231 13.2089 17.333 14.5927C16.1557 15.4705 15.1881 16.5988 14.5 17.8962V13.9287C14.9713 13.807 15.3821 13.5176 15.6553 13.1147C15.9285 12.7118 16.0454 12.2231 15.9841 11.7402C15.9227 11.2573 15.6874 10.8133 15.3221 10.4915C14.9569 10.1697 14.4868 9.99219 14 9.99219C13.5132 9.99219 13.0431 10.1697 12.6779 10.4915C12.3126 10.8133 12.0773 11.2573 12.0159 11.7402C11.9546 12.2231 12.0715 12.7118 12.3447 13.1147C12.6179 13.5176 13.0287 13.807 13.5 13.9287V19.4997H12C11.6022 19.4997 11.2206 19.6577 10.9393 19.939C10.658 20.2203 10.5 20.6019 10.5 20.9997V25.4997C10.5 25.8975 10.658 26.279 10.9393 26.5603C11.2206 26.8416 11.6022 26.9997 12 26.9997H13.561C13.8204 29.0703 14.8196 30.9774 16.3744 32.3693C17.9293 33.7613 19.9349 34.5441 22.0215 34.5737L21.355 38.2237C21.2932 38.5502 21.343 38.888 21.4962 39.1829C21.6494 39.4777 21.8973 39.7126 22.2 39.8497C22.4073 39.9478 22.6337 39.999 22.863 39.9997C23.0856 39.9994 23.3053 39.9499 23.5065 39.8548C23.7077 39.7598 23.8855 39.6214 24.027 39.4497L28.102 34.5757H28.802C30.9191 34.5877 32.9672 33.8234 34.5589 32.4273C36.1506 31.0313 37.1754 29.1003 37.4395 26.9997H38.4895C38.4025 32.7417 36.812 35.7907 33.2425 37.0402C33.0047 36.6199 32.622 36.3006 32.166 36.142C31.7099 35.9834 31.2116 35.9964 30.7644 36.1785C30.3172 36.3606 29.9516 36.6993 29.736 37.1314C29.5204 37.5634 29.4696 38.0592 29.593 38.5261C29.7164 38.9929 30.0056 39.3988 30.4066 39.6678C30.8075 39.9369 31.2928 40.0507 31.7716 39.988C32.2503 39.9253 32.6899 39.6903 33.008 39.327C33.3261 38.9637 33.501 38.497 33.5 38.0142C38.644 36.2522 39.4545 31.2457 39.5 26.9082C39.7915 26.8051 40.0441 26.6145 40.2231 26.3623C40.4021 26.1102 40.4988 25.8089 40.5 25.4997V20.9997C40.5 20.6019 40.342 20.2203 40.0607 19.939C39.7794 19.6577 39.3978 19.4997 39 19.4997ZM31.5 38.9997C31.3022 38.9997 31.1089 38.941 30.9444 38.8312C30.78 38.7213 30.6518 38.5651 30.5761 38.3824C30.5004 38.1996 30.4806 37.9986 30.5192 37.8046C30.5578 37.6106 30.653 37.4324 30.7929 37.2926C30.9327 37.1527 31.1109 37.0575 31.3049 37.0189C31.4989 36.9803 31.7 37.0001 31.8827 37.0758C32.0654 37.1515 32.2216 37.2797 32.3315 37.4441C32.4414 37.6086 32.5 37.8019 32.5 37.9997C32.5 38.2649 32.3946 38.5193 32.2071 38.7068C32.0196 38.8943 31.7652 38.9997 31.5 38.9997ZM36 11.9997C36 11.8019 36.0586 11.6086 36.1685 11.4441C36.2784 11.2797 36.4346 11.1515 36.6173 11.0758C36.8 11.0001 37.0011 10.9803 37.1951 11.0189C37.3891 11.0575 37.5673 11.1527 37.7071 11.2926C37.847 11.4324 37.9422 11.6106 37.9808 11.8046C38.0194 11.9986 37.9996 12.1996 37.9239 12.3824C37.8482 12.5651 37.72 12.7213 37.5556 12.8311C37.3911 12.941 37.1978 12.9997 37 12.9997C36.7348 12.9997 36.4804 12.8943 36.2929 12.7068C36.1054 12.5192 36 12.2649 36 11.9997ZM13 11.9997C13 11.8019 13.0586 11.6086 13.1685 11.4441C13.2784 11.2797 13.4346 11.1515 13.6173 11.0758C13.8 11.0001 14.0011 10.9803 14.1951 11.0189C14.3891 11.0575 14.5673 11.1527 14.7071 11.2926C14.847 11.4324 14.9422 11.6106 14.9808 11.8046C15.0194 11.9986 14.9996 12.1996 14.9239 12.3824C14.8482 12.5651 14.72 12.7213 14.5556 12.8311C14.3911 12.941 14.1978 12.9997 14 12.9997C13.7348 12.9997 13.4804 12.8943 13.2929 12.7068C13.1054 12.5192 13 12.2649 13 11.9997ZM11.5 25.4997V20.9997C11.5 20.8671 11.5527 20.7399 11.6464 20.6461C11.7402 20.5524 11.8674 20.4997 12 20.4997H13.5V25.9997H12C11.8674 25.9997 11.7402 25.947 11.6464 25.8532C11.5527 25.7595 11.5 25.6323 11.5 25.4997ZM28.8 33.5757H27.868C27.7948 33.5757 27.7226 33.5918 27.6563 33.6228C27.59 33.6538 27.5314 33.699 27.4845 33.7552L23.26 38.8082C23.1859 38.9005 23.0823 38.9645 22.9666 38.9895C22.8508 39.0144 22.7301 38.9988 22.6245 38.9452C22.522 38.9018 22.4377 38.8243 22.3857 38.726C22.3337 38.6276 22.3172 38.5143 22.339 38.4052L23.1125 34.1657C23.1257 34.0936 23.1229 34.0195 23.1042 33.9486C23.0856 33.8777 23.0516 33.8118 23.0047 33.7555C22.9577 33.6992 22.899 33.6539 22.8326 33.6228C22.7662 33.5917 22.6938 33.5757 22.6205 33.5757H22.2C20.1785 33.5934 18.2326 32.8086 16.789 31.3934C15.3455 29.9781 14.5223 28.0481 14.5 26.0267V21.9167C14.5253 20.6365 14.8491 19.3798 15.4456 18.2468C16.0421 17.1137 16.8949 16.1356 17.936 15.3902C19.6525 14.1376 21.7283 13.4744 23.853 13.4997H27.1075C29.4269 13.4661 31.6836 14.2533 33.479 15.7222C34.4082 16.468 35.1609 17.4102 35.6832 18.4811C36.2055 19.5521 36.4844 20.7253 36.5 21.9167V26.0267C36.4777 28.0481 35.6545 29.9781 34.211 31.3934C32.7674 32.8086 30.8215 33.5934 28.8 33.5757ZM39.5 25.4997C39.5 25.6323 39.4473 25.7595 39.3536 25.8532C39.2598 25.947 39.1326 25.9997 39 25.9997H37.5V20.4997H39C39.1326 20.4997 39.2598 20.5524 39.3536 20.6461C39.4473 20.7399 39.5 20.8671 39.5 20.9997V25.4997Z" fill="url(#paint0_linear_12262_141894)"/>
<path d="M30.5 16.5H20.5C19.5721 16.5011 18.6824 16.8701 18.0263 17.5263C17.3701 18.1824 17.0011 19.0721 17 20V27.5C17.0011 28.4279 17.3701 29.3176 18.0263 29.9737C18.6824 30.6299 19.5721 30.9989 20.5 31H30.5C31.4279 30.9989 32.3176 30.6299 32.9737 29.9737C33.6299 29.3176 33.9989 28.4279 34 27.5V20C33.9989 19.0721 33.6299 18.1824 32.9737 17.5263C32.3176 16.8701 31.4279 16.5011 30.5 16.5ZM33 27.5C32.9992 28.1628 32.7356 28.7982 32.2669 29.2669C31.7982 29.7356 31.1628 29.9992 30.5 30H20.5C19.8372 29.9992 19.2018 29.7356 18.7331 29.2669C18.2644 28.7982 18.0008 28.1628 18 27.5V20C18.0008 19.3372 18.2644 18.7018 18.7331 18.2331C19.2018 17.7644 19.8372 17.5008 20.5 17.5H30.5C31.1628 17.5008 31.7982 17.7644 32.2669 18.2331C32.7356 18.7018 32.9992 19.3372 33 20V27.5Z" fill="url(#paint1_linear_12262_141894)"/>
<path d="M31 19C31 18.8674 30.9473 18.7402 30.8536 18.6464C30.7598 18.5527 30.6326 18.5 30.5 18.5H26C25.8674 18.5 25.7402 18.5527 25.6464 18.6464C25.5527 18.7402 25.5 18.8674 25.5 19C25.5 19.1326 25.5527 19.2598 25.6464 19.3536C25.7402 19.4473 25.8674 19.5 26 19.5H30.5C30.6326 19.5 30.7598 19.4473 30.8536 19.3536C30.9473 19.2598 31 19.1326 31 19Z" fill="url(#paint2_linear_12262_141894)"/>
<path d="M24 19.5C24.2761 19.5 24.5 19.2761 24.5 19C24.5 18.7239 24.2761 18.5 24 18.5C23.7239 18.5 23.5 18.7239 23.5 19C23.5 19.2761 23.7239 19.5 24 19.5Z" fill="url(#paint3_linear_12262_141894)"/>
<path d="M29.5 21.5C29.1044 21.5 28.7178 21.6173 28.3889 21.8371C28.06 22.0568 27.8036 22.3692 27.6522 22.7346C27.5009 23.1001 27.4613 23.5022 27.5384 23.8902C27.6156 24.2781 27.8061 24.6345 28.0858 24.9142C28.3655 25.1939 28.7219 25.3844 29.1098 25.4616C29.4978 25.5387 29.8999 25.4991 30.2654 25.3478C30.6308 25.1964 30.9432 24.94 31.1629 24.6111C31.3827 24.2822 31.5 23.8956 31.5 23.5C31.5 22.9696 31.2893 22.4609 30.9142 22.0858C30.5391 21.7107 30.0304 21.5 29.5 21.5ZM29.5 24.5C29.3022 24.5 29.1089 24.4414 28.9444 24.3315C28.78 24.2216 28.6518 24.0654 28.5761 23.8827C28.5004 23.7 28.4806 23.4989 28.5192 23.3049C28.5578 23.1109 28.653 22.9327 28.7929 22.7929C28.9327 22.653 29.1109 22.5578 29.3049 22.5192C29.4989 22.4806 29.7 22.5004 29.8827 22.5761C30.0654 22.6518 30.2216 22.78 30.3315 22.9444C30.4414 23.1089 30.5 23.3022 30.5 23.5C30.5 23.7652 30.3946 24.0196 30.2071 24.2071C30.0196 24.3946 29.7652 24.5 29.5 24.5ZM21.5 21.5C20.9696 21.5 20.4609 21.7107 20.0858 22.0858C19.7107 22.4609 19.5 22.9696 19.5 23.5C19.5 23.6326 19.5527 23.7598 19.6464 23.8536C19.7402 23.9473 19.8674 24 20 24C20.1326 24 20.2598 23.9473 20.3536 23.8536C20.4473 23.7598 20.5 23.6326 20.5 23.5C20.5 23.2348 20.6054 22.9804 20.7929 22.7929C20.9804 22.6054 21.2348 22.5 21.5 22.5C21.7652 22.5 22.0196 22.6054 22.2071 22.7929C22.3946 22.9804 22.5 23.2348 22.5 23.5C22.5 23.6326 22.5527 23.7598 22.6464 23.8536C22.7402 23.9473 22.8674 24 23 24C23.1326 24 23.2598 23.9473 23.3536 23.8536C23.4473 23.7598 23.5 23.6326 23.5 23.5C23.5 22.9696 23.2893 22.4609 22.9142 22.0858C22.5391 21.7107 22.0304 21.5 21.5 21.5Z" fill="url(#paint4_linear_12262_141894)"/>
<defs>
<linearGradient id="paint0_linear_12262_141894" x1="10.5" y1="33.402" x2="40.5044" y2="19.6058" gradientUnits="userSpaceOnUse">
<stop stop-color="#0575E6"/>
<stop offset="1" stop-color="#021B79"/>
</linearGradient>
<linearGradient id="paint1_linear_12262_141894" x1="17" y1="27.81" x2="32.9562" y2="19.2046" gradientUnits="userSpaceOnUse">
<stop stop-color="#0575E6"/>
<stop offset="1" stop-color="#021B79"/>
</linearGradient>
<linearGradient id="paint2_linear_12262_141894" x1="25.5" y1="19.28" x2="26.4004" y2="17.002" gradientUnits="userSpaceOnUse">
<stop stop-color="#0575E6"/>
<stop offset="1" stop-color="#021B79"/>
</linearGradient>
<linearGradient id="paint3_linear_12262_141894" x1="23.5" y1="19.28" x2="24.5" y2="18.82" gradientUnits="userSpaceOnUse">
<stop stop-color="#0575E6"/>
<stop offset="1" stop-color="#021B79"/>
</linearGradient>
<linearGradient id="paint4_linear_12262_141894" x1="19.5" y1="24.62" x2="24.5059" y2="17.7118" gradientUnits="userSpaceOnUse">
<stop stop-color="#0575E6"/>
<stop offset="1" stop-color="#021B79"/>
</linearGradient>
</defs>
</svg>
