<svg width="208" height="112" viewBox="0 0 208 112" fill="none" xmlns="http://www.w3.org/2000/svg">
<rect width="208" height="112" rx="16" fill="white"/>
<path d="M91.1383 70.0507H86.8163L84.4151 53.4889H84.3289L81.8908 70.0507H77.5564L73.2344 42.2589H77.6057L80.0438 60.68H80.13L82.5311 42.2589H86.2991L88.7002 60.68H88.7864L91.2245 42.2466H95.4727L91.1383 70.0507Z" fill="black"/>
<path d="M48.2482 66.0114H55.3408V69.9763H44V42.1846H48.2482V66.0114Z" fill="black"/>
<path d="M127.597 44.0197C128.816 45.2757 129.419 46.9873 129.419 49.1668V63.6968C129.419 65.864 128.816 67.5879 127.597 68.8439C126.378 70.0999 124.703 70.7279 122.573 70.7279C120.43 70.7279 118.756 70.0999 117.549 68.8439C116.33 67.5879 115.727 65.8763 115.727 63.6968V49.1668C115.727 46.9996 116.33 45.288 117.549 44.0197C118.768 42.7637 120.443 42.1357 122.573 42.1357C124.703 42.1357 126.378 42.7637 127.597 44.0197ZM120.627 46.8395C120.184 47.3813 119.962 48.1694 119.962 49.2037V63.6599C119.962 64.6942 120.184 65.4823 120.627 66.0241C121.071 66.5659 121.711 66.8368 122.573 66.8368C123.423 66.8368 124.075 66.5659 124.518 66.0241C124.962 65.4823 125.183 64.6942 125.183 63.6599V49.2037C125.183 48.1694 124.962 47.3813 124.518 46.8395C124.075 46.2977 123.435 46.0268 122.573 46.0268C121.711 46.0268 121.071 46.2977 120.627 46.8395Z" fill="black"/>
<path d="M144.222 44.0197C145.441 45.2757 146.044 46.9873 146.044 49.1668V63.6968C146.044 65.864 145.441 67.5879 144.222 68.8439C143.003 70.0999 141.328 70.7279 139.198 70.7279C137.055 70.7279 135.381 70.0999 134.174 68.8439C132.955 67.5879 132.352 65.8763 132.352 63.6968V49.1668C132.352 46.9996 132.955 45.288 134.174 44.0197C135.393 42.7637 137.068 42.1357 139.198 42.1357C141.328 42.1357 143.003 42.7637 144.222 44.0197ZM137.252 46.8395C136.809 47.3813 136.587 48.1694 136.587 49.2037V63.6599C136.587 64.6942 136.809 65.4823 137.252 66.0241C137.696 66.5659 138.336 66.8368 139.198 66.8368C140.048 66.8368 140.7 66.5659 141.143 66.0241C141.587 65.4823 141.808 64.6942 141.808 63.6599V49.2037C141.808 48.1694 141.587 47.3813 141.143 46.8395C140.7 46.2977 140.06 46.0268 139.198 46.0268C138.336 46.0268 137.683 46.2977 137.252 46.8395Z" fill="black"/>
<path d="M158.109 53.5628L163.995 70.3215H159.464L155.302 58.168L153.455 61.739V70.3215H149.219V42.5298H153.467V54.1292H153.553L159.439 42.5298H163.884L158.109 53.5628Z" fill="black"/>
<path d="M55.5 70.2231V69.5705C55.5 69.5705 55.8448 69.5705 56.1772 69.5705C56.522 69.5705 57.0269 69.4227 57.4825 68.6223C57.9381 67.822 60.7825 58.2666 62.2109 53.4889C63.6393 48.7113 65.2154 43.4287 65.3632 42.9854C65.5109 42.5545 65.8927 41.791 66.3113 42.9116C66.73 44.0321 69.8823 53.9938 69.8823 53.9938L66.9763 55.8901C66.9763 55.8901 65.5971 51.5434 65.474 51.0632C65.3509 50.5829 65.1538 49.8687 64.8706 51.0878C64.5751 52.2945 60.3639 66.3197 60.3639 66.3197C60.3639 66.3197 59.7359 66.8492 59.465 67.1201C59.1941 67.391 59.0709 67.5757 59.7359 67.1693C60.3885 66.763 68.5893 61.5174 68.5893 61.5174C68.5893 61.5174 68.7125 61.3204 68.3923 60.717C68.0722 60.1136 67.9613 59.7935 67.6166 59.5719C67.2718 59.3502 66.9639 59.2271 67.3457 59.0177C67.7274 58.8084 70.6703 56.986 70.9412 56.8136C71.2121 56.6412 71.2614 56.6412 71.2121 57.1584C71.1629 57.6756 71.3845 59.264 71.914 60.6062C72.4435 61.9361 72.8622 62.6626 73.1946 63.0073C73.5394 63.3521 73.7241 63.3029 73.2685 63.5861C72.8129 63.8693 69.9685 65.6178 69.7468 65.741C69.5252 65.8641 69.3774 65.8887 69.4759 65.3715C69.5744 64.8667 69.4759 63.7462 69.1804 63.0197C68.3308 63.623 59.5265 70.2724 59.5265 70.2724L55.5 70.2231ZM66.1882 58.0327C66.1882 58.5252 66.533 58.8207 66.7669 58.833C67.0625 58.8454 67.2225 58.673 67.5304 58.4883C67.8382 58.3035 69.5991 57.1953 70.3994 56.7274C71.1998 56.2595 71.3845 56.1117 71.3845 55.6684C71.3845 55.1143 70.9905 54.8188 70.8427 54.8188C70.695 54.8188 70.658 54.8311 70.2394 55.0774C69.8207 55.3114 66.927 57.0722 66.6069 57.2938C66.3975 57.4416 66.1882 57.614 66.1882 58.0327ZM69.205 66.9354C69.205 67.4279 69.5498 67.7234 69.7838 67.7358C70.0793 67.7481 70.2394 67.5757 70.5472 67.391C70.855 67.2063 72.6159 66.098 73.4163 65.6301C74.2167 65.1622 74.4014 65.0145 74.4014 64.5712C74.4014 64.0171 74.0073 63.7215 73.8596 63.7215C73.7118 63.7215 73.6748 63.7338 73.2562 63.9801C72.8375 64.2141 69.9438 65.9749 69.6237 66.1966C69.4143 66.332 69.205 66.5167 69.205 66.9354ZM76.7286 70.2724C76.7286 70.2724 76.7286 69.9522 76.7286 69.6444C76.7286 69.3365 76.5316 69.3488 76.2114 69.3488V68.9548C76.2114 68.6716 75.9282 68.6716 75.9282 68.6716C75.7435 68.6716 69.833 68.6962 69.5621 68.6962C69.2912 68.6962 69.2543 68.9179 69.2543 69.0533C69.2543 69.1888 69.2543 69.3858 69.2543 69.3858C69.2543 69.3858 69.1311 69.3858 68.9588 69.3858C68.6509 69.3858 68.6386 69.5828 68.6386 69.6936C68.6386 69.8044 68.6386 70.2847 68.6386 70.2847H76.7286V70.2724Z" fill="url(#paint0_linear_12438_42089)"/>
<path d="M106.062 69.9765C105.779 69.8903 104.634 69.3854 103.981 67.1074C103.243 64.4969 101.987 53.4516 101.482 49.7452C100.965 46.0389 100.484 42 100.484 42V69.9765H106.062Z" fill="#5B0298"/>
<path d="M108.513 60.7659C108.513 60.7659 108.328 60.6797 107.836 60.692C107.331 60.6674 104.486 61.8249 104.375 65.8022C104.375 66.5533 104.523 68.5727 106.099 69.9765H106.062C105.779 69.8903 104.634 69.3854 103.981 67.1074C103.243 64.4969 101.987 53.4516 101.482 49.7452C100.965 46.0389 100.484 42 100.484 42C100.484 42 102.553 46.8146 104.289 50.8904C106.013 54.9662 108.513 60.7659 108.513 60.7659Z" fill="#E6E6E6"/>
<path d="M103.981 67.1074C103.243 64.4969 101.987 53.4516 101.482 49.7452C100.965 46.0389 100.484 42 100.484 42C100.484 42 103.255 49.7329 104.068 52.0109C104.88 54.289 106.666 59.1774 106.666 59.1774C106.666 59.1774 105.471 59.5099 104.499 61.5294C104.486 61.5294 103.28 64.029 103.981 67.1074Z" fill="white"/>
<path d="M111.428 55.3849V55.311C112.561 54.9416 113.595 53.1807 113.595 49.5975V49.0803C113.595 46.79 112.992 45.0415 111.797 43.8224C110.603 42.6034 108.867 42 106.601 42H100.469C100.469 42 102.537 46.8146 104.274 50.8904C106.01 54.9662 108.51 60.7659 108.51 60.7659C108.51 60.7659 108.325 60.6797 107.832 60.692C107.327 60.6674 104.483 61.8249 104.372 65.8022C104.372 66.5533 104.52 68.5727 106.096 69.9765H106.933C109.31 69.9765 111.12 69.3731 112.364 68.1541C113.607 66.935 114.223 65.1865 114.223 62.8962V61.9357C114.223 58.2293 112.782 55.7912 111.428 55.3849Z" fill="url(#paint1_linear_12438_42089)"/>
<defs>
<linearGradient id="paint0_linear_12438_42089" x1="66.1127" y1="70.2715" x2="66.1127" y2="42.3312" gradientUnits="userSpaceOnUse">
<stop stop-color="#521C97"/>
<stop offset="1" stop-color="#2EB7A4"/>
</linearGradient>
<linearGradient id="paint1_linear_12438_42089" x1="100.476" y1="61.019" x2="114.004" y2="47.4911" gradientUnits="userSpaceOnUse">
<stop stop-color="#521C97"/>
<stop offset="0.1299" stop-color="#4F2898"/>
<stop offset="0.3637" stop-color="#48479B"/>
<stop offset="0.6749" stop-color="#3C7A9F"/>
<stop offset="1" stop-color="#2EB7A4"/>
</linearGradient>
</defs>
</svg>
