<svg width="51" height="50" viewBox="0 0 51 50" fill="none" xmlns="http://www.w3.org/2000/svg">
<rect x="0.5" width="50" height="50" rx="25" fill="#DBE9FE"/>
<g clip-path="url(#clip0_12262_142042)">
<path d="M24.6469 31.3861H14.3222C13.9291 31.3861 13.552 31.23 13.274 30.952C12.996 30.674 12.8398 30.2969 12.8398 29.9038V23.2167C12.8398 22.8236 12.996 22.4465 13.274 22.1685C13.552 21.8906 13.9291 21.7344 14.3222 21.7344H24.6469C25.0392 21.7356 25.4151 21.8923 25.692 22.1702C25.969 22.4481 26.1246 22.8244 26.1246 23.2167V29.9038C26.1246 30.2961 25.969 30.6724 25.692 30.9503C25.4151 31.2282 25.0392 31.3849 24.6469 31.3861ZM14.3222 22.6756C14.251 22.6749 14.1803 22.6885 14.1144 22.7155C14.0484 22.7424 13.9885 22.7823 13.9381 22.8327C13.8877 22.883 13.8479 22.9429 13.8209 23.0089C13.794 23.0748 13.7804 23.1455 13.781 23.2167V29.9038C13.7804 29.975 13.794 30.0457 13.8209 30.1116C13.8479 30.1776 13.8877 30.2375 13.9381 30.2879C13.9885 30.3382 14.0484 30.3781 14.1144 30.405C14.1803 30.432 14.251 30.4456 14.3222 30.445H24.6469C24.7178 30.445 24.7879 30.4309 24.8533 30.4037C24.9187 30.3764 24.978 30.3365 25.0279 30.2862C25.0778 30.2359 25.1172 30.1762 25.1439 30.1105C25.1706 30.0449 25.184 29.9746 25.1834 29.9038V23.2167C25.184 23.1459 25.1706 23.0756 25.1439 23.01C25.1172 22.9444 25.0778 22.8847 25.0279 22.8343C24.978 22.784 24.9187 22.7441 24.8533 22.7168C24.7879 22.6896 24.7178 22.6755 24.6469 22.6756H14.3222Z" fill="url(#paint0_linear_12262_142042)"/>
<path d="M13.3117 29.4867H12.8882C12.3091 29.4878 11.7429 29.3166 11.2615 28.9949C10.78 28.6732 10.4052 28.2156 10.1847 27.6802C9.9642 27.1448 9.90798 26.5559 10.0232 25.9885C10.1384 25.421 10.4198 24.9007 10.8317 24.4937C11.1011 24.2228 11.4216 24.0081 11.7746 23.8619C12.1276 23.7157 12.5061 23.6409 12.8882 23.642H13.3117C13.4365 23.642 13.5562 23.6915 13.6444 23.7798C13.7327 23.8681 13.7823 23.9877 13.7823 24.1126V29.0161C13.7823 29.1409 13.7327 29.2606 13.6444 29.3488C13.5562 29.4371 13.4365 29.4867 13.3117 29.4867ZM12.8411 24.5831C12.334 24.5926 11.8509 24.8004 11.4952 25.162C11.2179 25.4341 11.0271 25.7822 10.9469 26.1624C10.8667 26.5426 10.9006 26.938 11.0444 27.299C11.1882 27.66 11.4355 27.9704 11.7551 28.1914C12.0748 28.4123 12.4526 28.5339 12.8411 28.5408V24.5831ZM26.0787 29.4867H25.6552C25.5304 29.4867 25.4107 29.4371 25.3225 29.3488C25.2342 29.2606 25.1846 29.1409 25.1846 29.0161V24.1126C25.1846 23.9877 25.2342 23.8681 25.3225 23.7798C25.4107 23.6915 25.5304 23.642 25.6552 23.642H26.0787C26.8538 23.642 27.5971 23.9499 28.1452 24.4979C28.6932 25.046 29.0011 25.7893 29.0011 26.5643C29.0011 27.3394 28.6932 28.0827 28.1452 28.6307C27.5971 29.1788 26.8538 29.4867 26.0787 29.4867ZM26.1258 24.5831V28.5408C26.6339 28.516 27.113 28.2967 27.4639 27.9283C27.8148 27.5599 28.0105 27.0707 28.0105 26.562C28.0105 26.0532 27.8148 25.564 27.4639 25.1956C27.113 24.8272 26.6339 24.6079 26.1258 24.5831ZM16.4599 27.0961C16.1623 27.0952 15.8716 27.006 15.6246 26.84C15.3776 26.674 15.1853 26.4385 15.072 26.1632C14.9588 25.888 14.9296 25.5853 14.9883 25.2935C15.0469 25.0017 15.1907 24.7339 15.4015 24.5237C15.6123 24.3136 15.8806 24.1706 16.1726 24.1129C16.4646 24.0552 16.7671 24.0853 17.042 24.1994C17.3169 24.3135 17.5518 24.5065 17.717 24.7541C17.8823 25.0016 17.9705 25.2926 17.9705 25.5902C17.9705 25.7884 17.9314 25.9846 17.8554 26.1676C17.7795 26.3506 17.6681 26.5168 17.5278 26.6567C17.3875 26.7966 17.2209 26.9074 17.0376 26.9828C16.8544 27.0582 16.6581 27.0967 16.4599 27.0961ZM16.4599 25.0302C16.3197 25.043 16.1893 25.1078 16.0943 25.2119C15.9994 25.3159 15.9467 25.4517 15.9467 25.5926C15.9467 25.7334 15.9994 25.8692 16.0943 25.9732C16.1893 26.0773 16.3197 26.1421 16.4599 26.1549C16.6002 26.1421 16.7306 26.0773 16.8255 25.9732C16.9205 25.8692 16.9731 25.7334 16.9731 25.5926C16.9731 25.4517 16.9205 25.3159 16.8255 25.2119C16.7306 25.1078 16.6002 25.043 16.4599 25.0302ZM22.507 27.0961C22.2091 27.0961 21.918 27.0078 21.6704 26.8423C21.4227 26.6768 21.2297 26.4416 21.1157 26.1665C21.0018 25.8913 20.9719 25.5885 21.03 25.2964C21.0881 25.0043 21.2316 24.736 21.4422 24.5254C21.6528 24.3148 21.9211 24.1714 22.2132 24.1133C22.5053 24.0552 22.8081 24.085 23.0833 24.1989C23.3584 24.3129 23.5936 24.5059 23.7591 24.7536C23.9245 25.0012 24.0129 25.2924 24.0129 25.5902C24.0129 25.9896 23.8542 26.3726 23.5718 26.655C23.2894 26.9374 22.9064 27.0961 22.507 27.0961ZM22.507 25.0302C22.3667 25.043 22.2363 25.1078 22.1414 25.2119C22.0464 25.3159 21.9938 25.4517 21.9938 25.5926C21.9938 25.7334 22.0464 25.8692 22.1414 25.9732C22.2363 26.0773 22.3667 26.1421 22.507 26.1549C22.5852 26.1621 22.664 26.1528 22.7384 26.1278C22.8128 26.1028 22.8812 26.0626 22.9391 26.0097C22.9971 25.9568 23.0434 25.8923 23.0751 25.8205C23.1068 25.7487 23.1232 25.6711 23.1232 25.5926C23.1232 25.5141 23.1068 25.4364 23.0751 25.3646C23.0434 25.2928 22.9971 25.2284 22.9391 25.1754C22.8812 25.1225 22.8128 25.0823 22.7384 25.0573C22.664 25.0323 22.5852 25.023 22.507 25.0302ZM21.1658 29.0396H17.8011C17.6763 29.0396 17.5566 28.99 17.4683 28.9018C17.3801 28.8135 17.3305 28.6938 17.3305 28.569C17.3305 28.4442 17.3801 28.3245 17.4683 28.2363C17.5566 28.148 17.6763 28.0984 17.8011 28.0984H21.1658C21.2906 28.0984 21.4103 28.148 21.4986 28.2363C21.5868 28.3245 21.6364 28.4442 21.6364 28.569C21.6364 28.6938 21.5868 28.8135 21.4986 28.9018C21.4103 28.99 21.2906 29.0396 21.1658 29.0396ZM22.3235 22.6773C22.1986 22.6773 22.0789 22.6277 21.9907 22.5394C21.9024 22.4512 21.8529 22.3315 21.8529 22.2067C21.8529 21.5789 21.6035 20.9768 21.1596 20.5329C20.7157 20.089 20.1136 19.8396 19.4858 19.8396C18.858 19.8396 18.256 20.089 17.812 20.5329C17.3681 20.9768 17.1187 21.5789 17.1187 22.2067C17.1187 22.3315 17.0692 22.4512 16.9809 22.5394C16.8927 22.6277 16.773 22.6773 16.6482 22.6773C16.5234 22.6773 16.4037 22.6277 16.3154 22.5394C16.2272 22.4512 16.1776 22.3315 16.1776 22.2067C16.1776 21.3293 16.5261 20.4878 17.1465 19.8674C17.7669 19.247 18.6084 18.8984 19.4858 18.8984C20.3632 18.8984 21.2047 19.247 21.8251 19.8674C22.4455 20.4878 22.794 21.3293 22.794 22.2067C22.794 22.3315 22.7445 22.4512 22.6562 22.5394C22.568 22.6277 22.4483 22.6773 22.3235 22.6773Z" fill="url(#paint1_linear_12262_142042)"/>
<path d="M19.4862 19.826C19.3614 19.826 19.2417 19.7764 19.1535 19.6882C19.0652 19.5999 19.0156 19.4802 19.0156 19.3554V16.8378C19.0156 16.713 19.0652 16.5933 19.1535 16.505C19.2417 16.4168 19.3614 16.3672 19.4862 16.3672C19.611 16.3672 19.7307 16.4168 19.819 16.505C19.9072 16.5933 19.9568 16.713 19.9568 16.8378V19.3554C19.9568 19.4802 19.9072 19.5999 19.819 19.6882C19.7307 19.7764 19.611 19.826 19.4862 19.826Z" fill="url(#paint2_linear_12262_142042)"/>
<path d="M19.4873 17.3102C19.1883 17.3121 18.8955 17.2252 18.646 17.0605C18.3964 16.8959 18.2014 16.6609 18.0855 16.3853C17.9695 16.1098 17.938 15.806 17.9948 15.5125C18.0517 15.2189 18.1943 14.9489 18.4047 14.7365C18.6152 14.5241 18.8839 14.379 19.1768 14.3194C19.4698 14.2598 19.7739 14.2885 20.0505 14.4018C20.3272 14.5151 20.564 14.708 20.7309 14.956C20.8979 15.204 20.9875 15.496 20.9885 15.7949C20.9897 16.1947 20.8324 16.5787 20.551 16.8628C20.2696 17.1468 19.8871 17.3077 19.4873 17.3102ZM19.4873 15.2302C19.3741 15.2283 19.2629 15.2603 19.1679 15.3219C19.073 15.3835 18.9985 15.4721 18.9541 15.5762C18.9097 15.6804 18.8974 15.7954 18.9186 15.9066C18.9399 16.0178 18.9939 16.1201 19.0736 16.2005C19.1533 16.2809 19.2552 16.3357 19.3662 16.3579C19.4772 16.3801 19.5923 16.3687 19.6968 16.3252C19.8013 16.2816 19.8905 16.2079 19.9529 16.1135C20.0154 16.019 20.0482 15.9081 20.0473 15.7949C20.0473 15.646 19.9884 15.503 19.8836 15.3973C19.7787 15.2915 19.6362 15.2315 19.4873 15.2302ZM21.5579 33.8749H17.412C17.2872 33.8749 17.1675 33.8253 17.0792 33.7371C16.991 33.6488 16.9414 33.5291 16.9414 33.4043V30.9149C16.9414 30.7901 16.991 30.6704 17.0792 30.5822C17.1675 30.4939 17.2872 30.4443 17.412 30.4443H21.5579C21.6827 30.4443 21.8024 30.4939 21.8906 30.5822C21.9789 30.6704 22.0285 30.7901 22.0285 30.9149V33.4043C22.0285 33.5291 21.9789 33.6488 21.8906 33.7371C21.8024 33.8253 21.6827 33.8749 21.5579 33.8749ZM17.8826 32.9337H21.0873V31.3855H17.8826V32.9337Z" fill="url(#paint3_linear_12262_142042)"/>
<path d="M26.5169 40.5328H12.4511C12.3262 40.5328 12.2066 40.4832 12.1183 40.395C12.03 40.3067 11.9805 40.187 11.9805 40.0622V35.2104C11.9817 34.6072 12.2222 34.0291 12.6492 33.6029C13.0762 33.1768 13.6549 32.9375 14.2581 32.9375H24.7146C25.317 32.9387 25.8944 33.1786 26.3204 33.6046C26.7464 34.0306 26.9863 34.608 26.9875 35.2104V40.0622C26.9875 40.187 26.9379 40.3067 26.8497 40.395C26.7614 40.4832 26.6417 40.5328 26.5169 40.5328ZM12.9216 39.5916H26.0464V35.2104C26.0464 34.8572 25.906 34.5185 25.6563 34.2687C25.4065 34.019 25.0678 33.8787 24.7146 33.8787H14.2581C13.9045 33.8787 13.5653 34.0188 13.3147 34.2685C13.0642 34.5181 12.9229 34.8568 12.9216 35.2104V39.5916Z" fill="url(#paint4_linear_12262_142042)"/>
<path d="M23.7413 40.5276H15.2284C15.1036 40.5276 14.9839 40.478 14.8956 40.3897C14.8074 40.3015 14.7578 40.1818 14.7578 40.057V36.5652C14.7578 36.4404 14.8074 36.3207 14.8956 36.2325C14.9839 36.1442 15.1036 36.0946 15.2284 36.0946H23.7413C23.8661 36.0946 23.9858 36.1442 24.0741 36.2325C24.1624 36.3207 24.2119 36.4404 24.2119 36.5652V40.057C24.2119 40.1818 24.1624 40.3015 24.0741 40.3897C23.9858 40.478 23.8661 40.5276 23.7413 40.5276ZM15.699 39.5864H23.2708V37.0358H15.699V39.5864ZM27.5202 22.7864C27.3954 22.7864 27.2757 22.7368 27.1874 22.6486C27.0992 22.5603 27.0496 22.4406 27.0496 22.3158V20.2029C26.6506 20.2016 26.2683 20.0426 25.9861 19.7604C25.704 19.4783 25.5449 19.096 25.5437 18.697V10.9699C25.5461 10.575 25.7031 10.1967 25.9811 9.91607C26.259 9.63547 26.6358 9.47489 27.0308 9.46875H39.5296C39.927 9.47122 40.3074 9.63017 40.5883 9.91116C40.8693 10.1922 41.0283 10.5726 41.0308 10.9699V18.697C41.0295 19.096 40.8705 19.4783 40.5883 19.7604C40.3062 20.0426 39.9239 20.2016 39.5249 20.2029H33.5013L27.7131 22.7487C27.6518 22.7735 27.5863 22.7863 27.5202 22.7864ZM27.0308 10.4099C26.9564 10.4093 26.8827 10.4235 26.8139 10.4516C26.7451 10.4798 26.6826 10.5214 26.63 10.5739C26.5775 10.6265 26.5359 10.689 26.5078 10.7578C26.4796 10.8266 26.4654 10.9003 26.466 10.9746V18.697C26.4654 18.7713 26.4796 18.845 26.5078 18.9138C26.5359 18.9826 26.5775 19.0451 26.63 19.0977C26.6826 19.1503 26.7451 19.1918 26.8139 19.22C26.8827 19.2481 26.9564 19.2623 27.0308 19.2617H27.5013C27.6261 19.2617 27.7458 19.3113 27.8341 19.3995C27.9224 19.4878 27.9719 19.6075 27.9719 19.7323V21.6146L33.2096 19.304C33.2682 19.2756 33.3326 19.2611 33.3978 19.2617H39.5155C39.5898 19.2623 39.6635 19.2481 39.7323 19.22C39.8011 19.1918 39.8636 19.1503 39.9162 19.0977C39.9687 19.0451 40.0103 18.9826 40.0385 18.9138C40.0666 18.845 40.0808 18.7713 40.0802 18.697V10.9699C40.0802 10.823 40.0225 10.682 39.9195 10.5772C39.8165 10.4725 39.6765 10.4124 39.5296 10.4099H27.0308Z" fill="url(#paint5_linear_12262_142042)"/>
<path d="M38.2045 15.3022H28.3222C28.1973 15.3022 28.0776 15.2526 27.9894 15.1643C27.9011 15.0761 27.8516 14.9564 27.8516 14.8316C27.8516 14.7068 27.9011 14.5871 27.9894 14.4988C28.0776 14.4106 28.1973 14.361 28.3222 14.361H38.2045C38.3293 14.361 38.449 14.4106 38.5373 14.4988C38.6255 14.5871 38.6751 14.7068 38.6751 14.8316C38.6751 14.9564 38.6255 15.0761 38.5373 15.1643C38.449 15.2526 38.3293 15.3022 38.2045 15.3022ZM35.7386 17.3116H30.8116C30.6868 17.3116 30.5671 17.262 30.4788 17.1737C30.3906 17.0855 30.341 16.9658 30.341 16.841C30.341 16.7162 30.3906 16.5965 30.4788 16.5082C30.5671 16.42 30.6868 16.3704 30.8116 16.3704H35.7386C35.8634 16.3704 35.9831 16.42 36.0714 16.5082C36.1596 16.5965 36.2092 16.7162 36.2092 16.841C36.2092 16.9658 36.1596 17.0855 36.0714 17.1737C35.9831 17.262 35.8634 17.3116 35.7386 17.3116ZM35.7386 13.2927H30.8116C30.6868 13.2927 30.5671 13.2432 30.4788 13.1549C30.3906 13.0667 30.341 12.947 30.341 12.8222C30.341 12.6973 30.3906 12.5776 30.4788 12.4894C30.5671 12.4011 30.6868 12.3516 30.8116 12.3516H35.7386C35.8634 12.3516 35.9831 12.4011 36.0714 12.4894C36.1596 12.5776 36.2092 12.6973 36.2092 12.8222C36.2092 12.947 36.1596 13.0667 36.0714 13.1549C35.9831 13.2432 35.8634 13.2927 35.7386 13.2927Z" fill="url(#paint6_linear_12262_142042)"/>
</g>
<defs>
<linearGradient id="paint0_linear_12262_142042" x1="12.8398" y1="29.2628" x2="24.3296" y2="21.988" gradientUnits="userSpaceOnUse">
<stop stop-color="#0575E6"/>
<stop offset="1" stop-color="#021B79"/>
</linearGradient>
<linearGradient id="paint1_linear_12262_142042" x1="9.96484" y1="27.1573" x2="23.6613" y2="15.83" gradientUnits="userSpaceOnUse">
<stop stop-color="#0575E6"/>
<stop offset="1" stop-color="#021B79"/>
</linearGradient>
<linearGradient id="paint2_linear_12262_142042" x1="19.0156" y1="19.0651" x2="20.1384" y2="18.9245" gradientUnits="userSpaceOnUse">
<stop stop-color="#0575E6"/>
<stop offset="1" stop-color="#021B79"/>
</linearGradient>
<linearGradient id="paint3_linear_12262_142042" x1="16.9414" y1="29.566" x2="23.0181" y2="28.84" gradientUnits="userSpaceOnUse">
<stop stop-color="#0575E6"/>
<stop offset="1" stop-color="#021B79"/>
</linearGradient>
<linearGradient id="paint4_linear_12262_142042" x1="11.9805" y1="38.8618" x2="21.9377" y2="29.8119" gradientUnits="userSpaceOnUse">
<stop stop-color="#0575E6"/>
<stop offset="1" stop-color="#021B79"/>
</linearGradient>
<linearGradient id="paint5_linear_12262_142042" x1="14.7578" y1="33.6946" x2="42.4041" y2="22.937" gradientUnits="userSpaceOnUse">
<stop stop-color="#0575E6"/>
<stop offset="1" stop-color="#021B79"/>
</linearGradient>
<linearGradient id="paint6_linear_12262_142042" x1="27.8516" y1="16.2204" x2="34.3836" y2="9.66352" gradientUnits="userSpaceOnUse">
<stop stop-color="#0575E6"/>
<stop offset="1" stop-color="#021B79"/>
</linearGradient>
<clipPath id="clip0_12262_142042">
<rect width="32" height="32" fill="white" transform="translate(9.5 9)"/>
</clipPath>
</defs>
</svg>
