<svg width="208" height="112" viewBox="0 0 208 112" fill="none" xmlns="http://www.w3.org/2000/svg">
<rect width="208" height="112" rx="16" fill="white"/>
<path d="M115.607 65.6701H110.406L115.74 45.5337H120.808L115.607 65.6701Z" fill="#1B1A8E"/>
<path d="M110.396 65.6701H115.596L110.262 45.5337H105.328L110.396 65.6701Z" fill="#2369E4"/>
<path d="M101.867 58.0689L105.334 45.5337H110.268L107.068 58.0689H101.867Z" fill="#1B1A8E"/>
<path d="M97.3281 45.5337C98.5283 45.5337 100.129 45.5337 102.529 45.5337L105.863 58.0689H100.662L97.3281 45.5337Z" fill="#2369E4"/>
<path d="M29.1782 45.5337L30.6451 51.1345C30.6451 51.1345 29.0449 52.3347 29.0449 55.2685C29.0449 58.2023 31.8453 60.4693 33.8456 60.4693C35.8459 60.4693 41.1801 60.4693 41.1801 60.4693L42.647 65.8035C42.647 65.8035 34.6457 65.8035 34.1123 65.8035C33.1789 65.8035 29.1782 65.6701 26.1111 61.6695C22.5106 57.0021 24.3775 51.5346 25.4443 49.6677C26.7779 47.2673 28.5115 46.0671 29.1782 45.5337Z" fill="#2369E4"/>
<path d="M37.9844 59.2691L42.9185 45.5337H47.3191L54.7869 65.6701H51.1864L45.0521 47.8007L41.1849 59.2691H37.9844Z" fill="black" stroke="black" stroke-width="0.5" stroke-miterlimit="10"/>
<path d="M70.3801 60.7357C70.3801 62.336 68.7798 63.6695 65.1793 63.6695C61.4454 63.6695 60.5119 59.6689 60.5119 59.6689H57.5781C57.5781 59.6689 57.7115 66.0699 65.1793 66.2032C69.3133 66.3366 73.4472 64.2029 73.3139 60.3357C73.3139 58.8688 72.5137 57.2685 70.2467 56.0683C68.2464 55.0015 64.5125 54.2014 63.8457 53.9347C62.2455 53.4013 60.6453 52.0677 60.6453 50.4675C60.6453 48.8672 62.2455 47.667 65.8461 47.667C69.58 47.667 70.3801 51.5343 70.3801 51.5343H73.3139C73.3139 51.5343 73.3139 45.4 65.7127 45.2667C57.9782 45.1333 57.8448 50.3341 57.8448 50.3341C57.8448 54.6014 62.2455 55.5349 62.2455 55.5349C62.2455 55.5349 65.8461 56.335 68.3798 57.4019C69.98 58.202 70.3801 58.7354 70.3801 60.7357Z" fill="black" stroke="black" stroke-width="0.5" stroke-miterlimit="10"/>
<path d="M91.3163 45.6665H76.9141V48.4669H91.3163V45.6665Z" fill="black" stroke="black" stroke-width="0.5" stroke-miterlimit="10"/>
<path d="M91.3163 54.3345H76.9141V57.1349H91.3163V54.3345Z" fill="black" stroke="black" stroke-width="0.5" stroke-miterlimit="10"/>
<path d="M91.3163 62.7358H76.9141V65.5363H91.3163V62.7358Z" fill="black" stroke="black" stroke-width="0.5" stroke-miterlimit="10"/>
<path d="M169.606 45.5337H166.539V65.8035H169.606V45.5337Z" fill="black" stroke="black" stroke-width="0.5" stroke-miterlimit="10"/>
<path d="M179.599 45.5337L183.466 45.667L174.665 54.6017L184 65.6701H179.999L172.531 56.3353V53.5349L179.599 45.5337Z" fill="black" stroke="black" stroke-width="0.5" stroke-miterlimit="10"/>
<path d="M148.133 45.5337C148.133 45.5337 156.267 45.5337 156.934 45.5337C157.601 45.5337 162.668 46.2005 162.802 51.668C162.802 56.4687 159.201 57.9356 159.201 57.9356L163.602 65.6701H160.535L156.401 58.3357H151.2V65.5368H148.133L148.266 55.9353C148.266 55.9353 153.734 55.9353 155.734 55.9353C157.734 55.9353 160.135 55.0018 160.135 52.068C160.135 49.5343 158.668 48.2008 156.934 48.2008C155.201 48.2008 148.133 48.2008 148.133 48.2008V45.5337Z" fill="black" stroke="black" stroke-width="0.5" stroke-miterlimit="10"/>
<path d="M126.66 56.0684C126.66 60.2023 129.727 63.2695 134.128 63.2695C138.129 63.2695 141.463 59.9356 141.329 55.6683C141.196 50.6009 138.129 48.0671 134.128 48.0671V45C134.128 45 144.263 45 144.13 55.2682C143.996 65.5365 135.595 65.6698 134.261 65.6698C132.795 65.6698 124.393 65.8032 123.727 55.8017L126.66 56.0684Z" fill="black" stroke="black" stroke-width="0.5" stroke-miterlimit="10"/>
</svg>
