<svg width="51" height="50" viewBox="0 0 51 50" fill="none" xmlns="http://www.w3.org/2000/svg">
<rect x="0.5" width="50" height="50" rx="25" fill="#DBE9FE"/>
<path d="M11.1389 37.3666H39.8637C40.2369 37.3666 40.58 37.1635 40.7597 36.8362C40.928 36.5282 40.9267 36.1574 40.7591 35.8525L39.0259 31.6518V14.5334C39.0259 14.5284 39.0245 14.5239 39.0244 14.5189C39.0183 13.4797 38.1581 12.6328 37.1281 12.6328H13.8745C12.82 12.6328 11.976 13.4923 11.976 14.5334V31.6533L10.2435 35.8525C10.0758 36.1575 10.0746 36.5282 10.2429 36.8362C10.4225 37.1635 10.7657 37.3666 11.1389 37.3666ZM37.7945 14.5304V31.159H13.2074V14.5304C13.2091 14.1625 13.5083 13.8639 13.8763 13.8639H37.1257C37.4519 13.8639 37.7928 14.1544 37.7945 14.5304ZM13.003 32.3912H37.9995L39.5445 36.1358H11.458L13.003 32.3912Z" fill="url(#paint0_linear_12262_142162)"/>
<path d="M34.6689 25.308H33.0637V23.6298C33.0637 23.29 32.7884 23.0144 32.4483 23.0144H26.113V21.8849H28.7133C29.4153 21.8849 29.9862 21.3137 29.9862 20.6118V16.8666C29.9862 16.1647 29.4153 15.5938 28.7133 15.5938H22.2824C21.5805 15.5938 21.0096 16.1647 21.0096 16.8666V20.6118C21.0096 21.3137 21.5805 21.8849 22.2824 21.8849H24.8822V23.0144H18.5475C18.2073 23.0144 17.9321 23.29 17.9321 23.6298V25.308H16.3209C15.7302 25.308 15.25 25.7882 15.25 26.3786V28.9715C15.25 29.5619 15.7302 30.0424 16.3209 30.0424H20.7668C21.3606 30.0424 21.8437 29.5619 21.8437 28.9715V26.3786C21.8437 25.7882 21.3606 25.308 20.7668 25.308H19.1629V24.2452H24.8822V25.308H23.2716C22.6809 25.308 22.2007 25.7882 22.2007 26.3786V28.9715C22.2007 29.5619 22.6809 30.0424 23.2716 30.0424H27.7175C28.3113 30.0424 28.7945 29.5619 28.7945 28.9715V26.3786C28.7945 25.7882 28.3113 25.308 27.7175 25.308H26.113V24.2452H31.8329V25.308H30.223C29.6322 25.308 29.152 25.7882 29.152 26.3786V28.9715C29.152 29.5619 29.6322 30.0424 30.223 30.0424H34.6689C35.2626 30.0424 35.7458 29.5619 35.7458 28.9715V26.3786C35.7458 25.7882 35.2626 25.308 34.6689 25.308ZM22.2404 20.6118L22.2824 16.8245L28.7554 16.8666V20.6118C28.7554 20.6364 28.7302 20.6542 28.7133 20.6542L22.2404 20.6118ZM20.613 28.8116H16.4808V26.5388H20.613V28.8116ZM27.5637 28.8116H23.4315V26.5388H27.5637L27.5637 28.8116ZM34.515 28.8116H30.3828V26.5388H34.515V28.8116Z" fill="url(#paint1_linear_12262_142162)"/>
<defs>
<linearGradient id="paint0_linear_12262_142162" x1="10.1172" y1="31.9252" x2="38.2002" y2="15.8552" gradientUnits="userSpaceOnUse">
<stop stop-color="#0575E6"/>
<stop offset="1" stop-color="#021B79"/>
</linearGradient>
<linearGradient id="paint1_linear_12262_142162" x1="15.25" y1="26.8637" x2="32.6668" y2="15.4988" gradientUnits="userSpaceOnUse">
<stop stop-color="#0575E6"/>
<stop offset="1" stop-color="#021B79"/>
</linearGradient>
</defs>
</svg>
