<svg width="208" height="112" viewBox="0 0 208 112" fill="none" xmlns="http://www.w3.org/2000/svg">
<rect width="208" height="112" rx="16" fill="white"/>
<g clip-path="url(#clip0_12438_42131)">
<rect width="160.002" height="18.5217" transform="translate(24 47)" fill="white"/>
<path d="M33.9287 52.4392C33.9481 52.0909 33.9481 51.7812 33.9287 51.4909C33.9094 51.2586 33.8707 51.0264 33.832 50.8135C33.7739 50.6006 33.6965 50.5038 33.5997 50.5038C33.4062 50.5038 33.232 50.7167 33.0578 51.1619C32.8836 51.607 32.6126 52.2844 32.2643 53.1941L27.4063 65.3485H24L28.8192 53.1941C29.1869 52.2263 29.5353 51.3554 29.8837 50.6199C30.2321 49.8845 30.6191 49.2652 31.0256 48.7813C31.432 48.2974 31.8772 47.9297 32.3804 47.6781C32.8642 47.4265 33.4255 47.3104 34.0642 47.3104C34.9739 47.3104 35.7093 47.7555 36.2706 48.6265C36.8319 49.4974 37.1222 50.7748 37.1222 52.4199V60.2196C37.1028 60.5874 37.1028 60.897 37.1222 61.1874C37.1415 61.4196 37.1609 61.6519 37.1996 61.8454C37.2383 62.0389 37.3157 62.1357 37.4318 62.1357C37.5867 62.1357 37.7415 61.9809 37.877 61.6519C38.0318 61.3228 38.2254 60.839 38.477 60.1809H38.4576L41.264 53.1747C41.6317 52.207 41.9801 51.336 42.3285 50.6006C42.6768 49.8651 43.0639 49.2458 43.4704 48.7619C43.8768 48.2781 44.3219 47.9104 44.8252 47.6588C45.309 47.4071 45.8703 47.291 46.509 47.291C47.4186 47.291 48.1541 47.7362 48.7154 48.6071C49.2766 49.478 49.5669 50.7554 49.5669 52.4005V65.3098H46.3735V52.4005C46.3929 52.0522 46.3929 51.7425 46.3735 51.4522C46.3541 51.2199 46.3154 50.9877 46.2767 50.7748C46.2187 50.5619 46.1412 50.4651 46.0445 50.4651C45.8509 50.4651 45.6767 50.678 45.5026 51.1232C45.3284 51.5683 45.0574 52.2457 44.709 53.1553L42.193 59.4648C41.8253 60.4325 41.4769 61.2841 41.1285 62.0196C40.7801 62.755 40.393 63.355 40.006 63.8389C39.5995 64.3227 39.1544 64.6905 38.6705 64.9227C38.1867 65.155 37.6254 65.2905 36.9867 65.2905C36.077 65.2905 35.3416 64.8453 34.7997 63.9744C34.2384 63.0841 33.9674 61.826 33.9674 60.1809V52.4392H33.9287Z" fill="black"/>
<path d="M59.0136 47.1543C59.8265 47.1543 60.5232 47.2317 61.1232 47.4059C61.7232 47.5607 62.2651 47.7736 62.7489 48.0252C63.2328 48.2768 63.6586 48.5478 64.0457 48.8381C64.4328 49.1284 64.8005 49.3994 65.1682 49.651C65.536 49.9026 65.8843 50.1349 66.2521 50.3284C66.6198 50.5219 67.0262 50.6187 67.4714 50.6574C67.9165 50.6187 68.323 50.5026 68.6907 50.3284C69.0584 50.1349 69.4262 49.922 69.7745 49.651C70.1423 49.3994 70.51 49.1284 70.8777 48.8381C71.2455 48.5478 71.6906 48.2768 72.1551 48.0252C72.639 47.7736 73.1809 47.5801 73.7809 47.4059C74.3808 47.2511 75.0969 47.1543 75.8905 47.1543C77.1485 47.1543 78.3485 47.3866 79.4517 47.8704C80.5742 48.3543 81.5419 49.0123 82.3741 49.8445C83.2064 50.6768 83.8644 51.6445 84.3483 52.767C84.8321 53.8896 85.0644 55.0895 85.0644 56.3476C85.0644 57.6056 84.8321 58.8056 84.3483 59.9087C83.8644 61.0313 83.2064 61.999 82.3741 62.8312C81.5419 63.6635 80.5548 64.3215 79.4517 64.8054C78.3291 65.2892 77.1485 65.5215 75.8905 65.5215C75.0776 65.5215 74.3808 65.4441 73.7809 65.2699C73.1809 65.115 72.6196 64.9021 72.1551 64.6505C71.6712 64.3989 71.2455 64.128 70.8777 63.8377C70.51 63.5473 70.1423 63.257 69.7745 63.0054C69.4068 62.7538 69.0584 62.5216 68.6907 62.3474C68.323 62.1732 67.9165 62.0571 67.4714 62.0184C67.0262 62.0571 66.6198 62.1538 66.2521 62.3474C65.8843 62.5216 65.5166 62.7538 65.1682 63.0054C64.8005 63.257 64.4328 63.5473 64.0457 63.8377C63.6586 64.128 63.2328 64.4183 62.7489 64.6505C62.2651 64.9021 61.7232 65.0957 61.1232 65.2699C60.5232 65.4247 59.8265 65.5215 59.0136 65.5215C57.7555 65.5215 56.5556 65.2892 55.433 64.8054C54.3105 64.3215 53.3428 63.6635 52.5106 62.8312C51.6783 61.999 51.0203 61.0119 50.5364 59.9087C50.0526 58.7862 49.8203 57.6056 49.8203 56.3476C49.8203 55.0895 50.0526 53.8896 50.5364 52.767C51.0203 51.6445 51.6783 50.6768 52.5106 49.8445C53.3428 49.0123 54.3105 48.3543 55.433 47.8704C56.5556 47.3866 57.7555 47.1543 59.0136 47.1543ZM67.4714 58.7475C68.1488 58.7475 68.7488 58.8443 69.252 59.0184C69.7552 59.1926 70.2197 59.4249 70.6068 59.6958C71.0132 59.9668 71.3809 60.2571 71.7487 60.5474C72.1164 60.8571 72.4841 61.1474 72.8712 61.399C73.2583 61.67 73.7034 61.8829 74.1873 62.0764C74.6712 62.2506 75.2324 62.3474 75.9098 62.3474C76.7227 62.3474 77.4969 62.1925 78.2323 61.8635C78.9678 61.5539 79.6065 61.1087 80.1484 60.5474C80.6903 59.9862 81.1355 59.3475 81.4451 58.612C81.7548 57.8765 81.929 57.1024 81.929 56.2895C81.929 55.4766 81.7742 54.7025 81.4451 53.967C81.1355 53.2315 80.6903 52.6122 80.1484 52.0703C79.6065 51.5284 78.9678 51.1026 78.2323 50.7929C77.4969 50.4832 76.7227 50.309 75.9098 50.309C75.2518 50.309 74.6905 50.4058 74.2067 50.58C73.7228 50.7542 73.2776 50.9864 72.8906 51.2574C72.5035 51.5284 72.1164 51.8187 71.768 52.109C71.4003 52.4187 71.0326 52.709 70.6261 52.9606C70.2197 53.2315 69.7745 53.4444 69.2713 53.638C68.7681 53.8122 68.1681 53.9089 67.4907 53.9089C66.8133 53.9089 66.2134 53.8122 65.7101 53.638C65.2069 53.4638 64.7424 53.2315 64.336 52.9606C63.9296 52.6896 63.5425 52.3993 63.1941 52.109C62.8457 51.7993 62.4586 51.509 62.0715 51.2574C61.6651 50.9864 61.22 50.7735 60.7555 50.58C60.2716 50.4058 59.7103 50.309 59.0523 50.309C58.2394 50.309 57.4652 50.4639 56.7298 50.7929C55.9943 51.1026 55.3556 51.5284 54.8137 52.0703C54.2718 52.6122 53.8266 53.2509 53.517 53.967C53.2073 54.7025 53.0331 55.4766 53.0331 56.2895C53.0331 57.1024 53.188 57.8765 53.517 58.612C53.8266 59.3475 54.2718 59.9862 54.8137 60.5474C55.3556 61.1087 55.9943 61.5345 56.7298 61.8635C57.4652 62.1732 58.2394 62.3474 59.0523 62.3474C59.7103 62.3474 60.2716 62.2506 60.7555 62.0764C61.2393 61.9022 61.6845 61.67 62.0715 61.399C62.478 61.1281 62.8457 60.8377 63.1941 60.5474C63.5425 60.2378 63.9296 59.9474 64.336 59.6958C64.7424 59.4249 65.2069 59.212 65.7101 59.0184C66.194 58.8443 66.794 58.7475 67.4714 58.7475Z" fill="black"/>
<path d="M89.3059 50.504H83.4609V47.3105H98.3831V50.504H92.4994V65.3487H89.3059V50.504Z" fill="black"/>
<path d="M109.754 65.212C108.515 65.1926 107.354 64.9604 106.27 64.4765C105.167 64.012 104.219 63.354 103.425 62.5411C102.612 61.7282 101.974 60.7799 101.509 59.6767C101.045 58.5735 100.812 57.4122 100.812 56.1929C100.812 54.9349 101.045 53.7736 101.509 52.6704C101.974 51.5672 102.612 50.6189 103.445 49.806C104.258 48.9931 105.206 48.3544 106.309 47.8706C107.412 47.4061 108.574 47.1738 109.793 47.1738H116.315V50.3673H109.793C108.98 50.3673 108.225 50.5221 107.528 50.8318C106.832 51.1414 106.212 51.5479 105.67 52.0704C105.148 52.593 104.722 53.2123 104.432 53.9285C104.141 54.6446 103.987 55.3994 103.987 56.1929C103.987 57.0058 104.141 57.7606 104.432 58.4573C104.722 59.1735 105.148 59.7928 105.67 60.3154C106.193 60.8379 106.812 61.2444 107.528 61.554C108.225 61.8637 108.98 62.0185 109.793 62.0185H116.315V65.212H109.754Z" fill="black"/>
<path d="M126.068 47C127.326 47 128.526 47.2323 129.629 47.7161C130.752 48.2 131.72 48.858 132.552 49.6902C133.384 50.5225 134.042 51.4902 134.526 52.6127C135.01 53.7353 135.242 54.9352 135.242 56.1933C135.242 57.4513 135.01 58.6513 134.526 59.7544C134.042 60.877 133.384 61.8447 132.552 62.6769C131.72 63.5092 130.733 64.1672 129.629 64.6511C128.507 65.1349 127.326 65.3672 126.068 65.3672C124.81 65.3672 123.61 65.1349 122.488 64.6511C121.365 64.1672 120.397 63.5092 119.565 62.6769C118.733 61.8447 118.075 60.8576 117.591 59.7544C117.107 58.6513 116.875 57.4513 116.875 56.1933C116.875 54.9352 117.107 53.7353 117.591 52.6127C118.075 51.4902 118.733 50.5225 119.565 49.6902C120.397 48.858 121.365 48.2 122.488 47.7161C123.591 47.2323 124.791 47 126.068 47ZM126.068 62.2124C126.881 62.2124 127.655 62.0576 128.391 61.7286C129.126 61.4189 129.765 60.9738 130.307 60.4125C130.849 59.8512 131.294 59.2125 131.604 58.4771C131.913 57.7416 132.087 56.9674 132.087 56.1546C132.087 55.3417 131.933 54.5675 131.604 53.832C131.294 53.0966 130.849 52.4772 130.307 51.9353C129.765 51.3934 129.126 50.9676 128.391 50.658C127.655 50.3483 126.881 50.1741 126.068 50.1741C125.255 50.1741 124.481 50.3289 123.746 50.658C123.01 50.9676 122.372 51.3934 121.83 51.9353C121.288 52.4772 120.843 53.1159 120.533 53.832C120.223 54.5675 120.049 55.3417 120.049 56.1546C120.049 56.9674 120.204 57.761 120.533 58.4771C120.843 59.2125 121.288 59.8512 121.83 60.4125C122.372 60.9738 123.01 61.3995 123.746 61.7286C124.462 62.0382 125.236 62.2124 126.068 62.2124Z" fill="black"/>
<path d="M143.699 65.2708C142.693 65.2708 141.745 65.0772 140.874 64.7095C140.003 64.3417 139.229 63.8192 138.571 63.1611C137.913 62.5031 137.39 61.7289 137.022 60.858C136.654 59.987 136.461 59.0387 136.461 58.0323V47.252H139.654V58.0323C139.654 58.5935 139.771 59.1161 139.983 59.6193C140.196 60.1032 140.487 60.529 140.854 60.8967C141.222 61.2644 141.648 61.5547 142.132 61.7676C142.616 61.9805 143.138 62.0967 143.719 62.0967C144.28 62.0967 144.803 61.9805 145.306 61.7676C145.79 61.5547 146.215 61.2644 146.583 60.8967C146.951 60.529 147.222 60.1032 147.435 59.6193C147.648 59.1355 147.764 58.6129 147.764 58.0323V47.252H150.957V58.0323C150.957 59.0387 150.764 59.987 150.396 60.858C150.028 61.7289 149.506 62.5031 148.848 63.1611C148.19 63.8192 147.415 64.3417 146.545 64.7095C145.635 65.0772 144.706 65.2708 143.699 65.2708Z" fill="black"/>
<path d="M164.355 57.3929L168.516 65.1926H164.916L163.135 61.8056C162.903 61.3992 162.652 60.954 162.4 60.4702C162.148 59.9863 161.916 59.5605 161.664 59.1541C161.432 58.767 161.181 58.438 160.929 58.167C160.677 57.8961 160.406 57.7606 160.155 57.7606H158.045C157.465 57.7606 156.961 57.9735 156.555 58.3799C156.149 58.7864 155.936 59.2896 155.936 59.8702V65.1926H152.742V59.8702C152.742 59.1347 152.878 58.438 153.149 57.7993C153.42 57.1606 153.807 56.5993 154.271 56.1155C154.755 55.6316 155.316 55.2639 155.955 54.9929C156.594 54.722 157.29 54.5865 158.026 54.5865H162.323C162.787 54.5865 163.174 54.4897 163.484 54.2768C163.793 54.0639 164.045 53.8123 164.181 53.5027C164.335 53.193 164.413 52.8446 164.413 52.4769C164.413 52.1092 164.335 51.7608 164.181 51.4511C164.026 51.1414 163.793 50.8705 163.484 50.6769C163.174 50.464 162.787 50.3673 162.323 50.3673H152.742V47.1738H162.323C163.29 47.1738 164.122 47.3674 164.858 47.7738C165.593 48.1802 166.174 48.7028 166.619 49.3221C167.064 49.9608 167.355 50.6576 167.509 51.4511C167.664 52.2446 167.645 53.0188 167.471 53.7543C167.297 54.5091 166.948 55.2058 166.426 55.8639C165.942 56.5413 165.245 57.0445 164.355 57.3929Z" fill="black"/>
<path d="M174.95 50.3673H169.086V47.1738H184.008V50.3673H178.124V65.212H174.931V50.3673H174.95Z" fill="black"/>
</g>
<defs>
<clipPath id="clip0_12438_42131">
<rect width="160.002" height="18.5217" fill="white" transform="translate(24 47)"/>
</clipPath>
</defs>
</svg>
