<svg width="51" height="50" viewBox="0 0 51 50" fill="none" xmlns="http://www.w3.org/2000/svg">
<rect x="0.5" width="50" height="50" rx="25" fill="#DBE9FE"/>
<path d="M24.5424 37.8005C24.8236 38.0099 25.1611 38.1141 25.4986 38.1141C25.8351 38.1141 26.1726 38.0099 26.4539 37.8005C33.0351 32.9266 36.3903 26.1547 36.7111 17.0995C36.7403 16.2703 36.1236 15.5641 35.2768 15.4578C32.407 15.1005 29.4778 14.0057 26.3216 12.1109C25.8153 11.8068 25.183 11.8068 24.6747 12.1109C21.5205 14.0057 18.5914 15.1005 15.7195 15.4578C14.8736 15.5641 14.257 16.2703 14.2861 17.0995C14.6059 26.1536 17.9611 32.9255 24.5424 37.8005ZM15.8518 16.5161C18.8736 16.1401 21.9382 14.9984 25.2226 13.0255C25.3934 12.9245 25.6039 12.9234 25.7726 13.0255C29.0591 14.9984 32.1247 16.1401 35.1445 16.5161C35.4393 16.5536 35.6549 16.788 35.6445 17.062C35.3361 25.7714 32.1216 32.2745 25.8184 36.9443C25.633 37.0818 25.3643 37.0818 25.1789 36.9443C18.8747 32.2745 15.6601 25.7703 15.3528 17.062C15.3424 16.788 15.558 16.5536 15.8518 16.5161Z" fill="url(#paint0_linear_12262_142020)"/>
<path d="M28.9438 30.1948C29.9188 30.1948 30.7115 29.4021 30.7115 28.4271V23.2552C30.7115 22.2884 29.9314 21.5031 28.9677 21.4898V20.3156C28.9677 18.4094 27.4177 16.8594 25.5115 16.8594C23.6052 16.8594 22.0552 18.4094 22.0552 20.3156V21.4901C21.0919 21.5038 20.3125 22.2888 20.3125 23.2552V28.4271C20.3125 29.4021 21.1052 30.1948 22.0802 30.1948H28.9438ZM23.1219 20.3156C23.1219 18.9979 24.1938 17.926 25.5115 17.926C26.8292 17.926 27.901 18.9979 27.901 20.3156V21.4854H23.1219V20.3156ZM21.3792 28.4271V23.2552C21.3792 22.8687 21.6938 22.5542 22.0802 22.5542H28.9438C29.3302 22.5542 29.6448 22.8687 29.6448 23.2552V28.4271C29.6448 28.8135 29.3302 29.1281 28.9438 29.1281H22.0802C21.6937 29.1281 21.3792 28.8135 21.3792 28.4271Z" fill="url(#paint1_linear_12262_142020)"/>
<path d="M24.9773 26.6238V27.512C24.9773 27.8068 25.2159 28.0453 25.5107 28.0453C25.8055 28.0453 26.044 27.8068 26.044 27.512V26.6237C26.6328 26.4053 27.0555 25.8424 27.0555 25.1786C27.0555 24.3266 26.3628 23.6328 25.5107 23.6328C24.6586 23.6328 23.9648 24.3266 23.9648 25.1786C23.9648 25.8426 24.3883 26.4055 24.9773 26.6238ZM25.5107 24.6995C25.7701 24.6995 25.9888 24.9193 25.9888 25.1786C25.9888 25.438 25.7701 25.6578 25.5107 25.6578C25.2513 25.6578 25.0315 25.438 25.0315 25.1786C25.0315 24.9193 25.2513 24.6995 25.5107 24.6995Z" fill="url(#paint2_linear_12262_142020)"/>
<defs>
<linearGradient id="paint0_linear_12262_142020" x1="14.2852" y1="32.3432" x2="37.8178" y2="23.0881" gradientUnits="userSpaceOnUse">
<stop stop-color="#0575E6"/>
<stop offset="1" stop-color="#021B79"/>
</linearGradient>
<linearGradient id="paint1_linear_12262_142020" x1="20.3125" y1="27.261" x2="31.4755" y2="23.2567" gradientUnits="userSpaceOnUse">
<stop stop-color="#0575E6"/>
<stop offset="1" stop-color="#021B79"/>
</linearGradient>
<linearGradient id="paint2_linear_12262_142020" x1="23.9648" y1="27.0746" x2="27.3573" y2="25.9815" gradientUnits="userSpaceOnUse">
<stop stop-color="#0575E6"/>
<stop offset="1" stop-color="#021B79"/>
</linearGradient>
</defs>
</svg>
