<svg width="51" height="50" viewBox="0 0 51 50" fill="none" xmlns="http://www.w3.org/2000/svg">
<rect x="0.5" width="50" height="50" rx="25" fill="#DBE9FE"/>
<g clip-path="url(#clip0_12262_142052)">
<path d="M10.08 38.2322C9.97 38.4022 9.975 38.6222 10.095 38.7872C10.19 38.9222 10.345 39.0022 10.505 39.0022C10.54 39.0022 10.575 39.0022 10.615 38.9922L15.21 37.9722C16.535 38.6472 18.02 39.0022 19.51 39.0022C24.695 39.0022 28.92 34.8222 29 29.6522C31.25 30.2622 33.715 30.0322 35.805 28.9722L40.4 29.9872C40.435 29.9972 40.47 29.9972 40.51 29.9972C40.67 29.9972 40.825 29.9172 40.92 29.7822C41.035 29.6172 41.04 29.3972 40.935 29.2272L39.06 26.2622C40.32 24.6172 41.01 22.5822 41.01 20.4922C41.01 15.2522 36.75 10.9922 31.51 10.9922C26.27 10.9922 22.1 15.1722 22.02 20.3372C21.22 20.1172 20.38 19.9922 19.51 19.9922C14.26 19.9972 10 24.2572 10 29.4972C10 31.5822 10.69 33.6172 11.955 35.2672L10.08 38.2322ZM31.5 11.9972C36.185 11.9972 40 15.8122 40 20.4972C40 22.4722 39.31 24.3972 38.05 25.9122C37.91 26.0772 37.895 26.3172 38.01 26.4972L39.435 28.7472L35.835 27.9522C35.72 27.9272 35.595 27.9422 35.49 27.9972C33.495 29.0572 31.09 29.2622 28.95 28.5922C28.61 24.9872 26.24 21.9622 23 20.6722C23 20.6122 22.995 20.5522 22.995 20.4922C22.995 15.8072 26.81 11.9922 31.495 11.9922L31.5 11.9972ZM11 29.4972C11 24.8122 14.815 20.9972 19.5 20.9972C24.185 20.9972 28 24.8122 28 29.4972C28 34.1822 24.185 37.9972 19.5 37.9972C18.11 37.9972 16.73 37.6522 15.505 36.9972C15.43 36.9572 15.35 36.9372 15.27 36.9372C15.235 36.9372 15.2 36.9372 15.16 36.9472L11.56 37.7422L12.985 35.4922C13.1 35.3072 13.085 35.0722 12.95 34.9072C11.69 33.3872 11 31.4622 11 29.4872V29.4972Z" fill="url(#paint0_linear_12262_142052)"/>
<path d="M35.5 17H27.5V18H35.5V17Z" fill="url(#paint1_linear_12262_142052)"/>
<path d="M35.5 20H27.5V21H35.5V20Z" fill="url(#paint2_linear_12262_142052)"/>
<path d="M35.5 23H29.5V24H35.5V23Z" fill="url(#paint3_linear_12262_142052)"/>
<path d="M16.3295 30.5H18.1395L18.6645 32.5H19.6995L18.2195 26.875C18.1595 26.655 17.9645 26.5 17.7345 26.5H16.7345C16.5095 26.5 16.3095 26.655 16.2495 26.875L14.7695 32.5H15.8045L16.3295 30.5ZM17.1195 27.5H17.3495L17.8745 29.5H16.5945L17.1195 27.5Z" fill="url(#paint4_linear_12262_142052)"/>
<path d="M24.2305 31.5H22.9805V27.5H24.2305V26.5H20.7305V27.5H21.9805V31.5H20.7305V32.5H24.2305V31.5Z" fill="url(#paint5_linear_12262_142052)"/>
</g>
<defs>
<linearGradient id="paint0_linear_12262_142052" x1="10" y1="32.84" x2="39.8342" y2="17.6463" gradientUnits="userSpaceOnUse">
<stop stop-color="#0575E6"/>
<stop offset="1" stop-color="#021B79"/>
</linearGradient>
<linearGradient id="paint1_linear_12262_142052" x1="27.5" y1="17.78" x2="28.1665" y2="15.3272" gradientUnits="userSpaceOnUse">
<stop stop-color="#0575E6"/>
<stop offset="1" stop-color="#021B79"/>
</linearGradient>
<linearGradient id="paint2_linear_12262_142052" x1="27.5" y1="20.78" x2="28.1665" y2="18.3272" gradientUnits="userSpaceOnUse">
<stop stop-color="#0575E6"/>
<stop offset="1" stop-color="#021B79"/>
</linearGradient>
<linearGradient id="paint3_linear_12262_142052" x1="29.5" y1="23.78" x2="30.3436" y2="21.4517" gradientUnits="userSpaceOnUse">
<stop stop-color="#0575E6"/>
<stop offset="1" stop-color="#021B79"/>
</linearGradient>
<linearGradient id="paint4_linear_12262_142052" x1="14.7695" y1="31.18" x2="19.9961" y2="29.2045" gradientUnits="userSpaceOnUse">
<stop stop-color="#0575E6"/>
<stop offset="1" stop-color="#021B79"/>
</linearGradient>
<linearGradient id="paint5_linear_12262_142052" x1="20.7305" y1="31.18" x2="24.6862" y2="30.1185" gradientUnits="userSpaceOnUse">
<stop stop-color="#0575E6"/>
<stop offset="1" stop-color="#021B79"/>
</linearGradient>
<clipPath id="clip0_12262_142052">
<rect width="32" height="32" fill="white" transform="translate(9.5 9)"/>
</clipPath>
</defs>
</svg>
