<svg width="51" height="50" viewBox="0 0 51 50" fill="none" xmlns="http://www.w3.org/2000/svg">
<rect x="0.5" width="50" height="50" rx="25" fill="#DBE9FE"/>
<path d="M29 23.3984V20.8984C29 19.9702 28.6313 19.0799 27.9749 18.4236C27.3185 17.7672 26.4283 17.3984 25.5 17.3984C24.5717 17.3984 23.6815 17.7672 23.0251 18.4236C22.3687 19.0799 22 19.9702 22 20.8984V23.3984C21.4697 23.399 20.9614 23.6099 20.5864 23.9848C20.2115 24.3598 20.0006 24.8682 20 25.3984V29.3984C20.0006 29.9287 20.2115 30.4371 20.5864 30.812C20.9614 31.187 21.4697 31.3979 22 31.3984H29C29.5303 31.3979 30.0386 31.187 30.4136 30.812C30.7885 30.4371 30.9994 29.9287 31 29.3984V25.3984C30.9994 24.8682 30.7885 24.3598 30.4136 23.9848C30.0386 23.6099 29.5303 23.399 29 23.3984ZM24 20.8984C24.0045 20.5035 24.1644 20.1263 24.4453 19.8486C24.7261 19.571 25.1051 19.4152 25.5 19.4152C25.8949 19.4153 26.2739 19.571 26.5548 19.8487C26.8356 20.1264 26.9956 20.5036 27 20.8985V23.3984H24V20.8984ZM22 29.3984V25.3984H29L29.0015 29.3984H22Z" fill="url(#paint0_linear_12262_141969)"/>
<path d="M39.4416 14.2894C39.2693 14.1703 39.074 14.0884 38.8682 14.0492C38.6625 14.01 38.4508 14.0142 38.2467 14.0617C35.0115 14.9322 29.5787 13.9447 26.5896 10.6123C26.299 10.325 25.9069 10.1639 25.4983 10.1641C25.0898 10.1642 24.6977 10.3255 24.4074 10.6129C21.3972 13.9668 15.954 14.924 12.7501 14.0613C12.5466 14.0151 12.3357 14.0118 12.1309 14.0516C11.926 14.0913 11.7316 14.1733 11.5602 14.2922C11.3887 14.4111 11.2438 14.5645 11.1348 14.7424C11.0258 14.9203 10.955 15.119 10.9269 15.3258C10.5793 18.0123 10.2482 24.9618 14.672 31.4579C18.0581 36.2368 22.1212 38.839 25.4986 39.8568C28.8732 38.8425 32.9413 36.2335 36.3255 31.4581C40.7492 24.9618 40.4181 18.0123 40.0705 15.327C40.0439 15.1198 39.9742 14.9204 39.8659 14.7416C39.7576 14.5629 39.613 14.4089 39.4416 14.2894ZM34.672 30.3324C32.3947 33.6539 29.2105 36.2505 25.4987 37.8129C21.7869 36.2505 18.6027 33.6539 16.3254 30.3324C12.5568 24.798 12.571 18.8871 12.8483 16.1234C15.5426 16.598 18.3154 16.3223 20.8634 15.3263C22.591 14.654 24.1669 13.6434 25.4987 12.3539C26.8305 13.6434 28.4064 14.654 30.134 15.3263C32.6819 16.3226 35.4549 16.5984 38.1491 16.1234C38.4264 18.8859 38.4416 24.7973 34.672 30.3324Z" fill="url(#paint1_linear_12262_141969)"/>
<path d="M25.5019 32.8984C25.2391 32.9021 24.9883 33.009 24.8037 33.1962C24.6191 33.3833 24.5156 33.6356 24.5156 33.8985C24.5156 34.1613 24.6191 34.4136 24.8037 34.6007C24.9883 34.7879 25.2391 34.8948 25.502 34.8984C25.7648 34.8948 26.0156 34.7879 26.2002 34.6007C26.3848 34.4136 26.4883 34.1613 26.4882 33.8984C26.4882 33.6356 26.3848 33.3833 26.2002 33.1961C26.0156 33.009 25.7647 32.9021 25.5019 32.8984Z" fill="url(#paint2_linear_12262_141969)"/>
<defs>
<linearGradient id="paint0_linear_12262_141969" x1="20" y1="28.3184" x2="31.7878" y2="24.058" gradientUnits="userSpaceOnUse">
<stop stop-color="#0575E6"/>
<stop offset="1" stop-color="#021B79"/>
</linearGradient>
<linearGradient id="paint1_linear_12262_141969" x1="10.7422" y1="33.3244" x2="40.3175" y2="19.8021" gradientUnits="userSpaceOnUse">
<stop stop-color="#0575E6"/>
<stop offset="1" stop-color="#021B79"/>
</linearGradient>
<linearGradient id="paint2_linear_12262_141969" x1="24.5156" y1="34.4584" x2="26.4977" y2="33.5592" gradientUnits="userSpaceOnUse">
<stop stop-color="#0575E6"/>
<stop offset="1" stop-color="#021B79"/>
</linearGradient>
</defs>
</svg>
