<svg width="51" height="50" viewBox="0 0 51 50" fill="none" xmlns="http://www.w3.org/2000/svg">
<rect x="0.5" width="50" height="50" rx="25" fill="#DBE9FE"/>
<path d="M37.1654 21.3359H36.4987C35.8187 21.3359 35.232 21.7493 34.972 22.3359H32.832V13.0026C32.832 12.6359 32.532 12.3359 32.1654 12.3359H13.4987C13.132 12.3359 12.832 12.6359 12.832 13.0026V31.0026C12.832 31.1826 12.9054 31.3492 13.0254 31.4759L17.692 36.1426C17.8187 36.2626 17.9854 36.3359 18.1654 36.3359H29.9654C30.392 37.1226 31.212 37.6693 32.1654 37.6693C33.5454 37.6693 34.6654 36.5493 34.6654 35.1693C34.6654 34.8026 33.9654 30.9893 33.732 29.0026H34.9721C35.232 29.5893 35.8187 30.0026 36.4987 30.0026H37.1654C38.0854 30.0026 38.832 29.2559 38.832 28.3359V23.0026C38.832 22.0826 38.0854 21.3359 37.1654 21.3359ZM18.1654 34.7292L14.4387 31.0026H18.1654V34.7292ZM29.6787 35.0026H19.4987V30.3359C19.4987 29.9693 19.1987 29.6693 18.832 29.6693H14.1654V13.6693H31.4987V22.3359H29.3587C29.0987 21.7493 28.512 21.3359 27.832 21.3359H27.1654C26.2454 21.3359 25.4987 22.0826 25.4987 23.0026V28.3359C25.4987 29.2559 26.2454 30.0026 27.1654 30.0026H27.832C28.512 30.0026 29.0987 29.5893 29.3587 29.0026H30.5987C30.3854 30.8359 29.7787 34.1826 29.6787 35.0026ZM28.1654 23.0026V28.3359C28.1654 28.5226 28.0187 28.6693 27.832 28.6693H27.1654C26.9787 28.6693 26.832 28.5226 26.832 28.3359V23.0026C26.832 22.8159 26.9787 22.6693 27.1654 22.6693H27.832C28.0187 22.6693 28.1654 22.8159 28.1654 23.0026ZM32.1654 36.3359C31.5254 36.3359 30.9987 35.8092 30.9987 35.1693C30.9987 34.8959 31.812 30.5093 31.952 29.0026H32.3854C32.5187 30.4759 33.332 34.8759 33.332 35.1693C33.332 35.8092 32.8054 36.3359 32.1654 36.3359ZM34.832 27.6693H29.4987V23.6693H34.832V27.6693ZM37.4987 28.3359C37.4987 28.5226 37.3521 28.6693 37.1654 28.6693H36.4987C36.312 28.6693 36.1654 28.5226 36.1654 28.3359V23.0026C36.1654 22.8159 36.312 22.6693 36.4987 22.6693H37.1654C37.3521 22.6693 37.4987 22.8159 37.4987 23.0026V28.3359Z" fill="url(#paint0_linear_12262_141982)"/>
<path d="M16.1667 16.3333H21.5C21.8682 16.3333 22.1667 16.0352 22.1667 15.6667C22.1667 15.2982 21.8682 15 21.5 15H16.1667C15.7985 15 15.5 15.2982 15.5 15.6667C15.5 16.0352 15.7985 16.3333 16.1667 16.3333ZM20.8333 18.3333C20.8333 18.7018 21.1318 19 21.5 19H29.5C29.8682 19 30.1667 18.7018 30.1667 18.3333C30.1667 17.9648 29.8682 17.6667 29.5 17.6667H21.5C21.1318 17.6667 20.8333 17.9648 20.8333 18.3333ZM16.1667 19H18.8333C19.2015 19 19.5 18.7018 19.5 18.3333C19.5 17.9648 19.2015 17.6667 18.8333 17.6667H16.1667C15.7985 17.6667 15.5 17.9648 15.5 18.3333C15.5 18.7018 15.7985 19 16.1667 19ZM16.1667 21.6667H24.1667C24.5348 21.6667 24.8333 21.3685 24.8333 21C24.8333 20.6315 24.5348 20.3333 24.1667 20.3333H16.1667C15.7985 20.3333 15.5 20.6315 15.5 21C15.5 21.3685 15.7985 21.6667 16.1667 21.6667ZM16.1667 24.3333H23.5C23.8682 24.3333 24.1667 24.0352 24.1667 23.6667C24.1667 23.2982 23.8682 23 23.5 23H16.1667C15.7985 23 15.5 23.2982 15.5 23.6667C15.5 24.0352 15.7985 24.3333 16.1667 24.3333ZM24.1667 32.3333H21.5C21.1318 32.3333 20.8333 32.6315 20.8333 33C20.8333 33.3685 21.1318 33.6667 21.5 33.6667H24.1667C24.5348 33.6667 24.8333 33.3685 24.8333 33C24.8333 32.6315 24.5348 32.3333 24.1667 32.3333ZM22.1667 26.3333C22.1667 25.9648 21.8682 25.6667 21.5 25.6667H20.1667C19.7985 25.6667 19.5 25.9648 19.5 26.3333C19.5 26.7018 19.7985 27 20.1667 27H21.5C21.8682 27 22.1667 26.7018 22.1667 26.3333ZM16.1667 27H17.5C17.8682 27 18.1667 26.7018 18.1667 26.3333C18.1667 25.9648 17.8682 25.6667 17.5 25.6667H16.1667C15.7985 25.6667 15.5 25.9648 15.5 26.3333C15.5 26.7018 15.7985 27 16.1667 27Z" fill="url(#paint1_linear_12262_141982)"/>
<defs>
<linearGradient id="paint0_linear_12262_141982" x1="12.832" y1="32.0959" x2="38.5921" y2="19.9345" gradientUnits="userSpaceOnUse">
<stop stop-color="#0575E6"/>
<stop offset="1" stop-color="#021B79"/>
</linearGradient>
<linearGradient id="paint1_linear_12262_141982" x1="15.5" y1="29.56" x2="31.217" y2="23.8794" gradientUnits="userSpaceOnUse">
<stop stop-color="#0575E6"/>
<stop offset="1" stop-color="#021B79"/>
</linearGradient>
</defs>
</svg>
