<svg width="51" height="50" viewBox="0 0 51 50" fill="none" xmlns="http://www.w3.org/2000/svg">
<rect x="0.5" width="50" height="50" rx="25" fill="#DBE9FE"/>
<path d="M30 10C27.9233 10 25.8932 10.6158 24.1665 11.7696C22.4398 12.9233 21.094 14.5632 20.2993 16.4818C19.5045 18.4004 19.2966 20.5116 19.7018 22.5484C20.1069 24.5852 21.1069 26.4562 22.5754 27.9246C24.0438 29.3931 25.9148 30.3931 27.9516 30.7982C29.9884 31.2034 32.0996 30.9955 34.0182 30.2007C35.9368 29.406 37.5767 28.0602 38.7304 26.3335C39.8842 24.6068 40.5 22.5767 40.5 20.5C40.497 17.7162 39.3897 15.0472 37.4213 13.0787C35.4528 11.1103 32.7838 10.003 30 10ZM30 30C28.1211 30 26.2844 29.4428 24.7221 28.399C23.1598 27.3551 21.9422 25.8714 21.2231 24.1355C20.5041 22.3996 20.316 20.4895 20.6825 18.6466C21.0491 16.8038 21.9539 15.1111 23.2825 13.7825C24.6111 12.4539 26.3038 11.5491 28.1466 11.1825C29.9895 10.816 31.8996 11.0041 33.6355 11.7231C35.3714 12.4422 36.8551 13.6598 37.899 15.2221C38.9428 16.7843 39.5 18.6211 39.5 20.5C39.4978 23.0189 38.4961 25.4339 36.715 27.215C34.9339 28.9961 32.5189 29.9977 30 30Z" fill="url(#paint0_linear_12262_141975)"/>
<path d="M30 12C28.3189 12 26.6755 12.4985 25.2777 13.4325C23.8798 14.3665 22.7904 15.694 22.147 17.2472C21.5037 18.8004 21.3354 20.5094 21.6633 22.1583C21.9913 23.8071 22.8008 25.3217 23.9896 26.5104C25.1783 27.6992 26.6929 28.5087 28.3417 28.8367C29.9906 29.1647 31.6996 28.9963 33.2528 28.353C34.806 27.7096 36.1335 26.6202 37.0675 25.2223C38.0015 23.8245 38.5 22.1811 38.5 20.5C38.4968 18.2466 37.6003 16.0865 36.0069 14.4931C34.4135 12.8997 32.2534 12.0032 30 12ZM36.725 23.805L36.31 23.565C36.1946 23.4987 36.0577 23.4809 35.9292 23.5156C35.8007 23.5503 35.6913 23.6346 35.625 23.75C35.5587 23.8654 35.5409 24.0024 35.5756 24.1308C35.6103 24.2593 35.6946 24.3687 35.81 24.435L36.23 24.675C35.6839 25.4861 34.9861 26.1839 34.175 26.73L33.935 26.31C33.8687 26.1946 33.7593 26.1103 33.6308 26.0756C33.5024 26.0409 33.3654 26.0587 33.25 26.125C33.1346 26.1913 33.0503 26.3007 33.0156 26.4292C32.9809 26.5576 32.9987 26.6946 33.065 26.81L33.305 27.225C32.4282 27.6564 31.4751 27.9112 30.5 27.975V27.5C30.5 27.3674 30.4473 27.2402 30.3536 27.1464C30.2598 27.0527 30.1326 27 30 27C29.8674 27 29.7402 27.0527 29.6465 27.1464C29.5527 27.2402 29.5 27.3674 29.5 27.5V27.975C28.5249 27.9112 27.5718 27.6564 26.695 27.225L26.935 26.81C27.0013 26.6946 27.0191 26.5576 26.9844 26.4292C26.9497 26.3007 26.8654 26.1913 26.75 26.125C26.6346 26.0587 26.4977 26.0409 26.3692 26.0756C26.2407 26.1103 26.1313 26.1946 26.065 26.31L25.825 26.73C25.0139 26.1839 24.3161 25.4861 23.77 24.675L24.19 24.435C24.3054 24.3687 24.3897 24.2593 24.4244 24.1308C24.4591 24.0024 24.4413 23.8654 24.375 23.75C24.3087 23.6346 24.1993 23.5503 24.0708 23.5156C23.9424 23.4809 23.8054 23.4987 23.69 23.565L23.275 23.805C22.8436 22.9282 22.5888 21.9751 22.525 21H23C23.1326 21 23.2598 20.9473 23.3536 20.8536C23.4473 20.7598 23.5 20.6326 23.5 20.5C23.5 20.3674 23.4473 20.2402 23.3536 20.1464C23.2598 20.0527 23.1326 20 23 20H22.525C22.5888 19.0249 22.8436 18.0718 23.275 17.195L23.69 17.435C23.7645 17.4779 23.849 17.5004 23.935 17.5C24.0231 17.5003 24.1097 17.4774 24.1861 17.4335C24.2625 17.3896 24.326 17.3263 24.37 17.25C24.4363 17.1351 24.4545 16.9988 24.4208 16.8705C24.3871 16.7422 24.3042 16.6325 24.19 16.565L23.77 16.325C24.3161 15.5139 25.0139 14.8161 25.825 14.27L26.065 14.69C26.0977 14.7472 26.1416 14.7974 26.1939 14.8375C26.2462 14.8776 26.306 14.9069 26.3698 14.9236C26.4335 14.9404 26.5 14.9443 26.5653 14.9351C26.6306 14.9259 26.6934 14.9037 26.75 14.87C26.8644 14.804 26.948 14.6955 26.9827 14.5681C27.0173 14.4407 27.0002 14.3048 26.935 14.19L26.695 13.775C27.5718 13.3436 28.5249 13.0888 29.5 13.025V13.5C29.5 13.6326 29.5527 13.7598 29.6465 13.8536C29.7402 13.9473 29.8674 14 30 14C30.1326 14 30.2598 13.9473 30.3536 13.8536C30.4473 13.7598 30.5 13.6326 30.5 13.5V13.025C31.4751 13.0888 32.4282 13.3436 33.305 13.775L33.065 14.19C32.9998 14.3048 32.9827 14.4407 33.0173 14.5681C33.052 14.6955 33.1356 14.804 33.25 14.87C33.3066 14.9037 33.3694 14.9259 33.4347 14.9351C33.5 14.9443 33.5665 14.9404 33.6302 14.9236C33.694 14.9069 33.7538 14.8776 33.8061 14.8375C33.8584 14.7974 33.9023 14.7472 33.935 14.69L34.175 14.27C34.9861 14.8161 35.6839 15.5139 36.23 16.325L35.81 16.565C35.6958 16.6325 35.6129 16.7422 35.5792 16.8705C35.5455 16.9988 35.5638 17.1351 35.63 17.25C35.6741 17.3263 35.7375 17.3896 35.8139 17.4335C35.8903 17.4774 35.9769 17.5003 36.065 17.5C36.151 17.5004 36.2355 17.4779 36.31 17.435L36.725 17.195C37.1564 18.0718 37.4112 19.0249 37.475 20H37C36.8674 20 36.7402 20.0527 36.6465 20.1464C36.5527 20.2402 36.5 20.3674 36.5 20.5C36.5 20.6326 36.5527 20.7598 36.6465 20.8536C36.7402 20.9473 36.8674 21 37 21H37.475C37.4112 21.9751 37.1564 22.9282 36.725 23.805Z" fill="url(#paint1_linear_12262_141975)"/>
<path d="M27 21H28.592C28.6759 21.2387 28.8189 21.4523 29.0078 21.6207C29.1966 21.7891 29.4251 21.9069 29.6718 21.9631C29.9186 22.0192 30.1755 22.0119 30.4186 21.9417C30.6618 21.8716 30.8831 21.741 31.062 21.562C31.241 21.3831 31.3716 21.1618 31.4417 20.9186C31.5119 20.6755 31.5192 20.4186 31.4631 20.1718C31.4069 19.9251 31.2891 19.6966 31.1207 19.5078C30.9523 19.3189 30.7387 19.1759 30.5 19.092V15.5C30.5 15.3674 30.4473 15.2402 30.3536 15.1464C30.2598 15.0527 30.1326 15 30 15C29.8674 15 29.7402 15.0527 29.6464 15.1464C29.5527 15.2402 29.5 15.3674 29.5 15.5V19.092C29.2909 19.1667 29.1009 19.2869 28.9439 19.4439C28.7869 19.6009 28.6667 19.7909 28.592 20H27C26.8674 20 26.7402 20.0527 26.6464 20.1464C26.5527 20.2402 26.5 20.3674 26.5 20.5C26.5 20.6326 26.5527 20.7598 26.6464 20.8536C26.7402 20.9473 26.8674 21 27 21ZM30 20C30.0989 20 30.1956 20.0293 30.2778 20.0843C30.36 20.1392 30.4241 20.2173 30.4619 20.3087C30.4998 20.4 30.5097 20.5006 30.4904 20.5975C30.4711 20.6945 30.4235 20.7836 30.3536 20.8536C30.2836 20.9235 30.1945 20.9711 30.0975 20.9904C30.0006 21.0097 29.9 20.9998 29.8087 20.9619C29.7173 20.9241 29.6392 20.86 29.5843 20.7778C29.5293 20.6956 29.5 20.5989 29.5 20.5C29.5 20.3674 29.5527 20.2402 29.6464 20.1464C29.7402 20.0527 29.8674 20 30 20ZM40.075 31.45C39.8096 30.9914 39.3734 30.6566 38.8618 30.5188C38.3501 30.3811 37.8048 30.4516 37.345 30.715L32.47 33.53C32.2038 33.1311 31.8025 32.8417 31.34 32.715L23.88 30.72C23.3059 30.5651 22.7017 30.5599 22.125 30.705L19.5 31.36V30.5C19.5 30.3674 19.4473 30.2402 19.3536 30.1464C19.2598 30.0527 19.1326 30 19 30H15C14.8674 30 14.7402 30.0527 14.6464 30.1464C14.5527 30.2402 14.5 30.3674 14.5 30.5V31H11C10.8674 31 10.7402 31.0527 10.6464 31.1464C10.5527 31.2402 10.5 31.3674 10.5 31.5V38.5C10.5 38.6326 10.5527 38.7598 10.6464 38.8536C10.7402 38.9473 10.8674 39 11 39H14.5V39.5C14.5 39.6326 14.5527 39.7598 14.6464 39.8536C14.7402 39.9473 14.8674 40 15 40H19C19.1326 40 19.2598 39.9473 19.3536 39.8536C19.4473 39.7598 19.5 39.6326 19.5 39.5V38.81L20.145 39.13C20.6313 39.372 21.1668 39.4987 21.71 39.5H29.195C29.8097 39.5013 30.4137 39.3391 30.945 39.03L39.345 34.18C39.8026 33.9136 40.1361 33.477 40.2729 32.9655C40.4097 32.454 40.3385 31.9092 40.075 31.45ZM14.5 38H11.5V32H14.5V38ZM18.5 39H15.5V31H18.5V39ZM38.845 33.315L30.445 38.165C30.0651 38.3848 29.6339 38.5004 29.195 38.5H21.71C21.321 38.5008 20.9374 38.41 20.59 38.235L19.5 37.69V32.39L22.365 31.675C22.7773 31.5708 23.2094 31.5742 23.62 31.685L31.08 33.685C31.2719 33.7348 31.4446 33.8409 31.5759 33.9895C31.7072 34.1381 31.7911 34.3225 31.8169 34.5191C31.8426 34.7157 31.8091 34.9155 31.7206 35.093C31.6321 35.2704 31.4926 35.4174 31.32 35.515C31.2073 35.5815 31.0824 35.6246 30.9527 35.6418C30.823 35.6589 30.6911 35.6498 30.565 35.615L24.6 34.015C24.4714 33.9805 24.3343 33.9986 24.219 34.0651C24.1036 34.1317 24.0195 34.2414 23.985 34.37C23.9505 34.4986 23.9686 34.6357 24.0351 34.751C24.1017 34.8664 24.2114 34.9505 24.34 34.985L30.305 36.58C30.4746 36.6257 30.6494 36.6492 30.825 36.65C31.1748 36.6505 31.5184 36.5573 31.82 36.38C32.0485 36.2495 32.2489 36.0749 32.4094 35.8663C32.5699 35.6577 32.6874 35.4193 32.755 35.165C32.8105 34.9446 32.829 34.7165 32.81 34.49L37.845 31.585C38.0747 31.4575 38.3451 31.4243 38.5988 31.4924C38.8526 31.5605 39.07 31.7246 39.205 31.95C39.3378 32.1789 39.3745 32.451 39.307 32.7069C39.2395 32.9627 39.0734 33.1814 38.845 33.315Z" fill="url(#paint2_linear_12262_141975)"/>
<path d="M17 38.5C17.1326 38.5 17.2598 38.4473 17.3536 38.3536C17.4473 38.2598 17.5 38.1326 17.5 38V37.5C17.5 37.3674 17.4473 37.2402 17.3536 37.1464C17.2598 37.0527 17.1326 37 17 37C16.8674 37 16.7402 37.0527 16.6464 37.1464C16.5527 37.2402 16.5 37.3674 16.5 37.5V38C16.5 38.1326 16.5527 38.2598 16.6464 38.3536C16.7402 38.4473 16.8674 38.5 17 38.5Z" fill="url(#paint3_linear_12262_141975)"/>
<defs>
<linearGradient id="paint0_linear_12262_141975" x1="19.5" y1="26.38" x2="40.5" y2="16.72" gradientUnits="userSpaceOnUse">
<stop stop-color="#0575E6"/>
<stop offset="1" stop-color="#021B79"/>
</linearGradient>
<linearGradient id="paint1_linear_12262_141975" x1="21.5" y1="25.26" x2="38.5" y2="17.44" gradientUnits="userSpaceOnUse">
<stop stop-color="#0575E6"/>
<stop offset="1" stop-color="#021B79"/>
</linearGradient>
<linearGradient id="paint2_linear_12262_141975" x1="10.5" y1="34.5" x2="38.2801" y2="19.2467" gradientUnits="userSpaceOnUse">
<stop stop-color="#0575E6"/>
<stop offset="1" stop-color="#021B79"/>
</linearGradient>
<linearGradient id="paint3_linear_12262_141975" x1="16.5" y1="38.17" x2="17.6075" y2="37.8304" gradientUnits="userSpaceOnUse">
<stop stop-color="#0575E6"/>
<stop offset="1" stop-color="#021B79"/>
</linearGradient>
</defs>
</svg>
