<svg width="51" height="50" viewBox="0 0 51 50" fill="none" xmlns="http://www.w3.org/2000/svg">
<rect x="0.5" width="50" height="50" rx="25" fill="#DBE9FE"/>
<path d="M38.6367 14.8619L35.97 12.1952C35.845 12.0702 35.6755 12 35.4987 12C35.3219 12 35.1524 12.0702 35.0274 12.1952L27.0274 20.1952C26.9023 20.3202 26.8321 20.4897 26.832 20.6665V23.3332C26.832 23.51 26.9023 23.6796 27.0273 23.8046C27.1523 23.9296 27.3219 23.9999 27.4987 23.9999H30.1654C30.3422 23.9998 30.5117 23.9296 30.6367 23.8045L38.6367 15.8045C38.7617 15.6795 38.8319 15.51 38.8319 15.3332C38.8319 15.1564 38.7617 14.9869 38.6367 14.8619ZM29.8894 22.6665H28.1654V20.9425L35.4987 13.6092L37.2227 15.3332L29.8894 22.6665Z" fill="url(#paint0_linear_12262_141907)"/>
<path d="M36.8346 19.9974C36.6578 19.9974 36.4883 20.0676 36.3632 20.1927C36.2382 20.3177 36.168 20.4873 36.168 20.6641V29.9974C36.1674 30.5277 35.9566 31.0361 35.5816 31.411C35.2066 31.786 34.6982 31.9969 34.168 31.9974H27.5013C27.357 31.9972 27.2166 32.044 27.1013 32.1307L22.8346 35.3307V32.6641C22.8346 32.4873 22.7644 32.3177 22.6394 32.1927C22.5143 32.0676 22.3448 31.9974 22.168 31.9974H15.5013C14.971 31.9969 14.4626 31.786 14.0877 31.411C13.7127 31.0361 13.5018 30.5277 13.5013 29.9974V17.9974C13.5018 17.4671 13.7127 16.9587 14.0877 16.5838C14.4626 16.2088 14.971 15.9979 15.5013 15.9974H27.5013C27.6781 15.9974 27.8477 15.9272 27.9727 15.8021C28.0977 15.6771 28.168 15.5075 28.168 15.3307C28.168 15.1539 28.0977 14.9843 27.9727 14.8593C27.8477 14.7343 27.6781 14.6641 27.5013 14.6641H15.5013C14.6175 14.6649 13.7702 15.0164 13.1453 15.6413C12.5203 16.2663 12.1689 17.1136 12.168 17.9974V29.9974C12.1689 30.8812 12.5203 31.7285 13.1453 32.3534C13.7702 32.9784 14.6175 33.3298 15.5013 33.3307H21.5013V36.6641C21.5013 36.7879 21.5358 36.9092 21.6009 37.0145C21.666 37.1199 21.7591 37.205 21.8698 37.2603C21.9806 37.3157 22.1045 37.3392 22.2278 37.328C22.3511 37.3169 22.4689 37.2717 22.568 37.1974L27.724 33.3307H34.168C35.0518 33.3298 35.8991 32.9784 36.524 32.3534C37.1489 31.7285 37.5004 30.8812 37.5013 29.9974V20.6641C37.5013 20.4873 37.4311 20.3177 37.306 20.1927C37.181 20.0676 37.0114 19.9974 36.8346 19.9974Z" fill="url(#paint1_linear_12262_141907)"/>
<path d="M23.5013 18.6641H16.8346C16.6578 18.6641 16.4883 18.7343 16.3632 18.8593C16.2382 18.9843 16.168 19.1539 16.168 19.3307C16.168 19.5075 16.2382 19.6771 16.3632 19.8021C16.4883 19.9272 16.6578 19.9974 16.8346 19.9974H23.5013C23.6781 19.9974 23.8477 19.9272 23.9727 19.8021C24.0977 19.6771 24.168 19.5075 24.168 19.3307C24.168 19.1539 24.0977 18.9843 23.9727 18.8593C23.8477 18.7343 23.6781 18.6641 23.5013 18.6641ZM16.8346 23.9974H23.5013C23.6781 23.9974 23.8477 23.9272 23.9727 23.8021C24.0977 23.6771 24.168 23.5075 24.168 23.3307C24.168 23.1539 24.0977 22.9843 23.9727 22.8593C23.8477 22.7343 23.6781 22.6641 23.5013 22.6641H16.8346C16.6578 22.6641 16.4883 22.7343 16.3632 22.8593C16.2382 22.9843 16.168 23.1539 16.168 23.3307C16.168 23.5075 16.2382 23.6771 16.3632 23.8021C16.4883 23.9272 16.6578 23.9974 16.8346 23.9974ZM16.8346 27.9974H32.8346C33.0114 27.9974 33.181 27.9272 33.306 27.8021C33.4311 27.6771 33.5013 27.5075 33.5013 27.3307C33.5013 27.1539 33.4311 26.9843 33.306 26.8593C33.181 26.7343 33.0114 26.6641 32.8346 26.6641H16.8346C16.6578 26.6641 16.4883 26.7343 16.3632 26.8593C16.2382 26.9843 16.168 27.1539 16.168 27.3307C16.168 27.5075 16.2382 27.6771 16.3632 27.8021C16.4883 27.9272 16.6578 27.9974 16.8346 27.9974Z" fill="url(#paint2_linear_12262_141907)"/>
<defs>
<linearGradient id="paint0_linear_12262_141907" x1="26.832" y1="21.3599" x2="38.8319" y2="15.84" gradientUnits="userSpaceOnUse">
<stop stop-color="#0575E6"/>
<stop offset="1" stop-color="#021B79"/>
</linearGradient>
<linearGradient id="paint1_linear_12262_141907" x1="12.168" y1="32.3441" x2="36.445" y2="19.8628" gradientUnits="userSpaceOnUse">
<stop stop-color="#0575E6"/>
<stop offset="1" stop-color="#021B79"/>
</linearGradient>
<linearGradient id="paint2_linear_12262_141907" x1="16.168" y1="25.9441" x2="28.3087" y2="15.5724" gradientUnits="userSpaceOnUse">
<stop stop-color="#0575E6"/>
<stop offset="1" stop-color="#021B79"/>
</linearGradient>
</defs>
</svg>
