<svg width="51" height="50" viewBox="0 0 51 50" fill="none" xmlns="http://www.w3.org/2000/svg">
<rect x="0.5" width="50" height="50" rx="25" fill="#DBE9FE"/>
<path d="M28.295 32.5113H30.8868C32.2123 32.5156 33.2082 30.9108 34.5669 31.0006C34.5669 31.0006 39.0005 31.0006 39.0005 31.0006C39.6518 30.9931 39.6622 30.0108 39.0005 30.0006C39.0005 30.0006 34.5669 30.0006 34.5669 30.0006C33.9043 30.0006 33.2588 30.1881 32.6997 30.543L31.4175 31.357C31.2588 31.4581 31.0752 31.5113 30.8868 31.5113H28.295C27.3345 31.5113 26.5533 32.293 26.5533 33.2535C26.5533 33.2806 26.56 33.3058 26.5613 33.3326L22.9834 32.2945C22.1929 32.0636 21.3619 32.4932 21.0889 33.2677C20.8238 34.0191 21.167 34.8433 21.8877 35.1847L28.8594 38.4859C30.4529 39.2412 32.3165 39.1627 33.8438 38.2716L36.6109 36.6573C36.7051 36.6026 36.813 36.5733 36.9229 36.5733H39.0005C39.653 36.563 39.662 35.5852 39.0005 35.5733C39.0005 35.5733 36.9229 35.5733 36.9229 35.5733C36.6363 35.5733 36.354 35.6495 36.107 35.794L33.3399 37.4078C32.0997 38.1309 30.585 38.1964 29.2872 37.5826L22.316 34.2813C21.7185 34.0009 22.06 33.0664 22.7047 33.2545C22.7046 33.2545 27.1287 34.5379 27.1287 34.5379C27.4381 34.8191 27.8449 34.9952 28.295 34.9952H32.0044C32.2808 34.9952 32.5044 34.7716 32.5044 34.4952C32.5044 34.2188 32.2808 33.9952 32.0044 33.9952H28.295C27.3219 33.9789 27.3191 32.5285 28.295 32.5113ZM22.7061 17.4898H20.1143C18.7888 17.4855 17.7928 19.0903 16.4341 19.0005C16.4341 19.0006 12.0005 19.0006 12.0005 19.0006C11.3494 19.0081 11.3388 19.9903 12.0006 20.0006C12.0005 20.0006 16.4341 20.0006 16.4341 20.0006C17.0967 20.0006 17.7422 19.8131 18.3013 19.4581L19.5835 18.6441C19.7422 18.543 19.9258 18.4898 20.1143 18.4898H22.7061C23.6665 18.4898 24.4478 17.7081 24.4478 16.7476C24.4478 16.7206 24.441 16.6953 24.4398 16.6685L28.0176 17.7066C28.7868 17.9366 29.6414 17.5141 29.9121 16.7335C30.1773 15.982 29.834 15.1578 29.1133 14.8165L22.1416 11.5152C20.5459 10.7589 18.6827 10.8394 17.1573 11.7296L14.3902 13.3438C14.2959 13.3985 14.188 13.4278 14.0782 13.4278H12.0005C11.3481 13.4381 11.3391 14.4159 12.0006 14.4278C12.0005 14.4278 14.0782 14.4278 14.0782 14.4278C14.3648 14.4278 14.647 14.3516 14.8941 14.2071L17.6612 12.5933C18.9014 11.8702 20.4161 11.8052 21.7139 12.4185L28.6851 15.7198C29.2825 16.0005 28.9414 16.9337 28.2964 16.7466C28.2964 16.7466 23.8724 15.4632 23.8724 15.4632C23.563 15.182 23.1562 15.0059 22.7061 15.0059H18.9966C18.7203 15.0059 18.4966 15.2296 18.4966 15.5059C18.4966 15.7823 18.7203 16.0059 18.9966 16.0059H22.7061C23.6793 16.0223 23.6819 17.4726 22.7061 17.4898ZM25.2505 23.5006H26.7505C27.4067 23.4908 27.4084 22.5109 26.7505 22.5006C26.7505 22.5006 26.0005 22.5006 26.0005 22.5006V22.2506C26.0005 21.9742 25.7769 21.7506 25.5005 21.7506C25.2242 21.7506 25.0005 21.9742 25.0005 22.2506V22.5258C23.214 22.8532 23.4224 25.4685 25.2506 25.5006C25.2505 25.5006 25.7505 25.5006 25.7505 25.5006C26.4073 25.5116 26.4077 26.4894 25.7505 26.5006C25.7505 26.5006 24.2505 26.5006 24.2505 26.5006C23.5944 26.5103 23.5927 27.4902 24.2505 27.5006C24.2505 27.5006 25.0005 27.5006 25.0005 27.5006V27.7506C25.0005 28.0269 25.2242 28.2506 25.5005 28.2506C25.7769 28.2506 26.0005 28.0269 26.0005 27.7506V27.4753C27.7871 27.1479 27.5786 24.5327 25.7505 24.5006C25.7505 24.5006 25.2505 24.5006 25.2505 24.5006C24.5937 24.4896 24.5933 23.5117 25.2505 23.5006Z" fill="url(#paint0_linear_12262_141913)"/>
<path d="M28.463 20.9485C28.7239 20.4595 28.1781 20.092 27.4749 19.8489C19.0171 17.3495 17.0335 30.0537 25.4993 30.4964C29.6714 30.5748 32.4278 25.7436 30.2329 22.2038C29.8833 21.6459 29.0478 22.1498 29.3756 22.7186C31.1665 25.6119 28.9087 29.562 25.499 29.4963C23.0177 29.4964 20.9991 27.4778 20.9991 24.9964C20.934 21.5869 24.8833 19.3287 27.777 21.12C28.0133 21.261 28.3204 21.1853 28.463 20.9485Z" fill="url(#paint1_linear_12262_141913)"/>
<defs>
<linearGradient id="paint0_linear_12262_141913" x1="11.5078" y1="32.8408" x2="39.4987" y2="19.9722" gradientUnits="userSpaceOnUse">
<stop stop-color="#0575E6"/>
<stop offset="1" stop-color="#021B79"/>
</linearGradient>
<linearGradient id="paint1_linear_12262_141913" x1="20.0547" y1="28.0831" x2="31.0143" y2="23.0518" gradientUnits="userSpaceOnUse">
<stop stop-color="#0575E6"/>
<stop offset="1" stop-color="#021B79"/>
</linearGradient>
</defs>
</svg>
