<svg width="51" height="50" viewBox="0 0 51 50" fill="none" xmlns="http://www.w3.org/2000/svg">
<rect x="0.5" width="50" height="50" rx="25" fill="#DBE9FE"/>
<path d="M35.7259 31.3061C35.5595 31.1461 35.4539 30.9317 35.4283 30.7045L35.3515 30.0613C35.2907 29.5557 35.0603 29.0789 34.6987 28.7173L32.5323 26.5509C31.7451 25.7637 30.6955 25.3285 29.5819 25.3285H27.5371C27.0507 25.3285 26.5803 25.4757 26.1835 25.7573L25.7579 26.0581C25.5755 26.1861 25.3643 26.2533 25.1435 26.2533C25.1403 26.2533 25.1403 26.2533 25.1371 26.2533L21.7259 26.2885C20.8171 26.2885 20.0299 26.8133 19.6491 27.5749L16.1899 24.1125C15.2299 23.1525 13.6683 23.1525 12.7083 24.1125C11.7483 25.0725 11.7483 26.6341 12.7083 27.5941L19.7483 34.6341C20.3243 35.2101 21.1179 35.5333 21.9339 35.5205L29.2011 35.4693C29.2043 35.4693 29.2075 35.4693 29.2075 35.4693C29.5243 35.4693 29.8315 35.5973 30.0523 35.8213L31.9883 37.7637C32.1131 37.8885 32.2763 37.9525 32.4427 37.9525C32.6059 37.9525 32.7691 37.8917 32.8939 37.7669C33.1435 37.5173 33.1435 37.1109 32.8939 36.8613L30.9579 34.9189C30.4971 34.4549 29.8571 34.1925 29.2043 34.1925C29.1979 34.1925 29.1947 34.1925 29.1883 34.1925L21.9211 34.2437C21.9179 34.2437 21.9179 34.2437 21.9147 34.2437C21.4443 34.2501 20.9835 34.0645 20.6507 33.7317L13.6107 26.6917C13.1499 26.2309 13.1499 25.4821 13.6107 25.0213C14.0715 24.5605 14.8203 24.5605 15.2811 25.0213L19.4827 29.2229C19.7483 30.2149 20.6571 30.9477 21.7323 30.9477L26.9643 30.9253C27.2331 30.9253 27.4635 30.7557 27.5563 30.5189C27.5851 30.4453 27.6011 30.3653 27.6011 30.2821C27.6011 29.9301 27.3131 29.6453 26.9611 29.6453H26.9579L21.7291 29.6677C21.1531 29.6677 20.6827 29.1973 20.6827 28.6213C20.6827 28.0453 21.1531 27.5749 21.7291 27.5749C21.7323 27.5749 21.7323 27.5749 21.7355 27.5749L25.1467 27.5397C25.6331 27.5397 26.1003 27.3893 26.4971 27.1109L26.9227 26.8101C27.1051 26.6821 27.3163 26.6149 27.5371 26.6149H29.5819C30.3531 26.6149 31.0795 26.9157 31.6267 27.4629L33.7931 29.6293C33.9499 29.7861 34.0523 29.9973 34.0779 30.2181L34.1547 30.8613C34.2155 31.3829 34.4587 31.8725 34.8363 32.2373L36.8139 34.1381L37.9243 35.2069C38.0491 35.3253 38.2091 35.3861 38.3691 35.3861C38.5355 35.3861 38.7051 35.3189 38.8299 35.1909C39.0763 34.9349 39.0667 34.5317 38.8139 34.2853L35.7259 31.3061ZM24.7851 15.3125H24.0843C23.7643 15.3125 23.4891 15.5429 23.4347 15.8597L22.1803 23.2645C22.1131 23.6645 22.4203 24.0325 22.8299 24.0325H22.8587C23.1819 24.0325 23.4571 23.7989 23.5083 23.4789L23.7387 22.0293H25.1147L25.3387 23.4757C25.3899 23.7957 25.6651 24.0325 25.9883 24.0325H26.0267C26.4331 24.0325 26.7435 23.6677 26.6763 23.2677L25.4347 15.8629C25.3803 15.5461 25.1083 15.3125 24.7851 15.3125ZM23.9435 20.7493L24.4299 17.3125L24.9163 20.7493H23.9435ZM28.5675 15.3125C28.2059 15.3125 27.9115 15.6069 27.9115 15.9685V23.3733C27.9115 23.7349 28.2059 24.0293 28.5675 24.0293C28.9291 24.0293 29.2235 23.7349 29.2235 23.3733V15.9717C29.2235 15.6069 28.9291 15.3125 28.5675 15.3125ZM31.0507 24.0741H34.3179C34.5771 24.7589 35.2395 25.2453 36.0139 25.2453C37.0123 25.2453 37.8251 24.4325 37.8251 23.4341C37.8251 22.4357 37.0123 21.6229 36.0139 21.6229C35.2395 21.6229 34.5771 22.1125 34.3179 22.7941H31.0507C30.6987 22.7941 30.4107 23.0821 30.4107 23.4341C30.4107 23.7861 30.6955 24.0741 31.0507 24.0741ZM36.5451 23.4341C36.5451 23.7285 36.3051 23.9653 36.0139 23.9653C35.7227 23.9653 35.4827 23.7253 35.4827 23.4341C35.4827 23.1429 35.7227 22.9029 36.0139 22.9029C36.3051 22.9029 36.5451 23.1397 36.5451 23.4341ZM31.0507 20.2341C30.6987 20.2341 30.4107 20.5221 30.4107 20.8741C30.4107 21.2261 30.6987 21.5141 31.0507 21.5141H32.3211C32.5163 21.5141 32.7019 21.4245 32.8235 21.2709L33.6395 20.2373C33.8027 20.2853 33.9787 20.3141 34.1579 20.3141C35.1563 20.3141 35.9691 19.5013 35.9691 18.5029C35.9691 17.5045 35.1563 16.6917 34.1579 16.6917C33.1595 16.6917 32.3467 17.5045 32.3467 18.5029C32.3467 18.8549 32.4491 19.1845 32.6219 19.4629L32.0107 20.2341H31.0507ZM34.6891 18.4965C34.6891 18.7909 34.4491 19.0277 34.1579 19.0277C33.8667 19.0277 33.6267 18.7877 33.6267 18.4965C33.6267 18.2053 33.8667 17.9653 34.1579 17.9653C34.4491 17.9653 34.6891 18.2053 34.6891 18.4965Z" fill="url(#paint0_linear_12262_141854)"/>
<path d="M36.5029 13.2344C35.7285 13.2344 35.0661 13.724 34.8069 14.4056H32.5189C32.3013 14.4056 32.0965 14.5176 31.9813 14.7L30.5125 16.9944C30.3205 17.292 30.4101 17.6888 30.7077 17.8776C30.8133 17.9448 30.9349 17.98 31.0533 17.98C31.2645 17.98 31.4693 17.8744 31.5941 17.6856L32.8741 15.6856H34.8133C35.0725 16.3704 35.7349 16.8568 36.5093 16.8568C37.5077 16.8568 38.3205 16.044 38.3205 15.0456C38.3141 14.0504 37.5013 13.2344 36.5029 13.2344ZM36.5029 15.58C36.2085 15.58 35.9717 15.34 35.9717 15.0488C35.9717 14.7576 36.2117 14.5176 36.5029 14.5176C36.7941 14.5176 37.0341 14.7576 37.0341 15.0488C37.0341 15.34 36.7941 15.58 36.5029 15.58ZM13.3893 19.468C14.1637 19.468 14.8261 18.9784 15.0853 18.2968H17.8661V20.8344C17.8661 21.1864 18.1541 21.4744 18.5061 21.4744H20.2725C20.6245 21.4744 20.9125 21.1864 20.9125 20.8344C20.9125 20.4824 20.6245 20.1944 20.2725 20.1944H19.1461V17.6568C19.1461 17.3048 18.8581 17.0168 18.5061 17.0168H15.0853C14.8261 16.332 14.1637 15.8456 13.3893 15.8456C12.3909 15.8456 11.5781 16.6584 11.5781 17.6568C11.5749 18.6552 12.3877 19.468 13.3893 19.468ZM13.3893 17.1224C13.6837 17.1224 13.9205 17.3624 13.9205 17.6536C13.9205 17.9448 13.6805 18.1848 13.3893 18.1848C13.0981 18.1848 12.8581 17.9448 12.8581 17.6536C12.8581 17.3624 13.0949 17.1224 13.3893 17.1224Z" fill="url(#paint1_linear_12262_141854)"/>
<path d="M15.4128 19.2978C14.4144 19.2978 13.6016 20.1106 13.6016 21.109C13.6016 22.1074 14.4144 22.9202 15.4128 22.9202C15.7232 22.9202 16.0144 22.8434 16.2672 22.7058L17.5504 23.829C17.6656 23.9314 17.816 23.9858 17.9728 23.9858H20.2704C20.6224 23.9858 20.9104 23.6978 20.9104 23.3458C20.9104 22.9938 20.6224 22.7058 20.2704 22.7058H18.2128L17.112 21.7426C17.1856 21.5442 17.2272 21.333 17.2272 21.109C17.2272 20.1106 16.4144 19.2978 15.4128 19.2978ZM14.8816 21.109C14.8816 20.8146 15.1216 20.5778 15.4128 20.5778C15.704 20.5778 15.944 20.8178 15.944 21.109C15.944 21.4002 15.7072 21.6402 15.4128 21.6402C15.1184 21.6402 14.8816 21.4034 14.8816 21.109ZM16.648 16.4818C17.4224 16.4818 18.0848 15.9922 18.344 15.3106H18.8848L20.0272 17.4802C20.1424 17.6978 20.3632 17.8226 20.5936 17.8226C20.6928 17.8226 20.7952 17.8002 20.8912 17.749C21.2048 17.5858 21.3232 17.1986 21.16 16.885L19.8384 14.373C19.7264 14.1618 19.5088 14.0306 19.272 14.0306H18.344C18.0848 13.3458 17.4224 12.8594 16.648 12.8594C15.6496 12.8594 14.8368 13.6722 14.8368 14.6706C14.8368 15.669 15.6496 16.4818 16.648 16.4818ZM16.648 14.1362C16.9424 14.1362 17.1792 14.3762 17.1792 14.6674C17.1792 14.9586 16.9392 15.1986 16.648 15.1986C16.3568 15.1986 16.1168 14.9586 16.1168 14.6674C16.1168 14.3762 16.3536 14.1362 16.648 14.1362Z" fill="url(#paint2_linear_12262_141854)"/>
<defs>
<linearGradient id="paint0_linear_12262_141854" x1="11.9883" y1="32.9717" x2="37.1444" y2="19.1607" gradientUnits="userSpaceOnUse">
<stop stop-color="#0575E6"/>
<stop offset="1" stop-color="#021B79"/>
</linearGradient>
<linearGradient id="paint1_linear_12262_141854" x1="11.5781" y1="19.6616" x2="21.6133" y2="4.68006" gradientUnits="userSpaceOnUse">
<stop stop-color="#0575E6"/>
<stop offset="1" stop-color="#021B79"/>
</linearGradient>
<linearGradient id="paint2_linear_12262_141854" x1="13.6016" y1="21.538" x2="22.0109" y2="18.8847" gradientUnits="userSpaceOnUse">
<stop stop-color="#0575E6"/>
<stop offset="1" stop-color="#021B79"/>
</linearGradient>
</defs>
</svg>
