<svg width="208" height="112" viewBox="0 0 208 112" fill="none" xmlns="http://www.w3.org/2000/svg">
<rect width="208" height="112" rx="16" fill="white"/>
<path d="M14 73.3221C14 73.3221 14 72.7869 14 70.9435C14 69.1001 14 40.557 14 39.665C14 38.7136 14 38.0595 14 38.0595L22.1467 38H185.853L194 38.0595C194 38.0595 194 38.7731 194 39.665C194 40.6165 194 69.1596 194 70.9435C194 72.7869 194 73.3221 194 73.3221H14Z" fill="url(#paint0_linear_12438_42145)"/>
<path d="M21.5547 64.4023H24.1117V47.7521H21.5547V64.4023ZM32.0205 57.7422L29.404 47.7521H26.193V64.4023H28.5121V52.3309L31.7232 64.4023H34.3396V47.7521H32.08L32.0205 57.7422ZM40.3456 47.7521H36.2425V64.4023H40.3456C41.6538 64.4023 42.6052 64.0455 43.1999 63.3319C43.7945 62.6183 44.1513 61.6074 44.1513 60.2397V51.7957C44.1513 50.428 43.854 49.4171 43.1999 48.7036C42.6052 48.1089 41.6538 47.7521 40.3456 47.7521ZM41.6538 60.4181C41.6538 61.0128 41.5349 61.429 41.297 61.6669C41.0592 61.9048 40.7618 62.0237 40.3456 62.0237H38.859V50.1307H40.3456C40.7618 50.1307 41.0592 50.2496 41.297 50.4875C41.5349 50.7254 41.6538 51.1416 41.6538 51.7363V60.4181ZM45.9947 64.4023H48.5517V47.7521H45.9947V64.4023ZM52.5359 47.7521L49.9194 64.4023H52.2386L52.7143 61.3696H55.8659L56.3416 64.4023H58.8986L56.2822 47.7521H52.5359ZM53.0116 59.1694L54.2603 50.7254L55.5091 59.1694H53.0116ZM66.0938 57.7422L63.4774 47.7521H60.2663V64.4023H62.5854V52.3309L65.7965 64.4023H68.413V47.7521H66.1533L66.0938 57.7422ZM80.0681 56.7908C79.7113 56.3151 79.295 55.8988 78.8193 55.542C78.403 55.1258 77.9868 54.769 77.5705 54.3527C77.2138 53.9365 76.857 53.5797 76.6191 53.104C76.3813 52.6877 76.2623 52.1525 76.2623 51.6173C76.2623 51.0227 76.3813 50.6064 76.6191 50.3686C76.857 50.1307 77.1543 50.0118 77.5705 50.0118C77.9868 50.0118 78.2841 50.1307 78.522 50.3686C78.7598 50.6064 78.8788 51.0227 78.8788 51.6173V52.3309H81.3168V51.7957C81.3168 50.428 81.0195 49.4171 80.3654 48.7036C79.7113 47.99 78.7599 47.6332 77.5111 47.6332C76.2029 47.6332 75.3109 47.99 74.6568 48.7036C74.0026 49.4171 73.7053 50.4875 73.7053 51.7957C73.7053 52.5688 73.8243 53.2824 74.0621 53.877C74.3 54.4717 74.6568 55.0068 75.0136 55.4231C75.3704 55.8988 75.7866 56.3151 76.2623 56.6718C76.6786 57.0881 77.0948 57.4449 77.5111 57.8611C77.8679 58.2774 78.2247 58.6342 78.4625 59.1099C78.7004 59.5262 78.8193 60.0613 78.8193 60.5965C78.8193 61.1912 78.7004 61.6074 78.4625 61.8453C78.2247 62.0831 77.8679 62.2021 77.4516 62.2021C77.0354 62.2021 76.738 62.0831 76.4407 61.8453C76.2028 61.6074 76.0839 61.1912 76.0839 60.5965V59.4072H73.6459V60.4181C73.6459 61.7858 74.0026 62.7967 74.6568 63.5103C75.3109 64.2239 76.2623 64.5807 77.5111 64.5807C78.8193 64.5807 79.7113 64.2239 80.3654 63.5103C81.0195 62.7967 81.3763 61.7264 81.3763 60.4181C81.3763 59.6451 81.2574 58.9315 81.0195 58.3369C80.7816 57.7422 80.4843 57.2665 80.0681 56.7908ZM86.6687 47.5737C85.3604 47.5737 84.4685 47.9305 83.8144 48.6441C83.1602 49.3577 82.8034 50.428 82.8034 51.7363V60.4181C82.8034 61.7858 83.1602 62.7967 83.8144 63.5103C84.4685 64.2239 85.4199 64.5807 86.6687 64.5807C87.9769 64.5807 88.8688 64.2239 89.523 63.5103C90.1771 62.7967 90.5339 61.7264 90.5339 60.4181V58.2179H88.0958V60.5965C88.0958 61.1912 87.9769 61.6074 87.739 61.8453C87.5012 62.0831 87.1444 62.2021 86.7281 62.2021C86.3119 62.2021 86.0146 62.0831 85.7172 61.8453C85.4794 61.6074 85.3604 61.1912 85.3604 60.5965V51.6173C85.3604 51.0227 85.4794 50.6064 85.7172 50.3686C85.9551 50.1307 86.3119 50.0118 86.7281 50.0118C87.1444 50.0118 87.4417 50.1307 87.739 50.3686C87.9769 50.6064 88.0958 51.0227 88.0958 51.6173V53.4013H90.5339V51.7957C90.5339 50.428 90.1771 49.4171 89.523 48.7036C88.9283 47.9305 87.9174 47.5737 86.6687 47.5737ZM97.7291 54.8879H94.8153V47.7521H92.2584V64.4023H94.8153V57.2665H97.7291V64.4023H100.346V47.7521H97.7291V54.8879ZM106.054 47.5737C104.746 47.5737 103.854 47.9305 103.14 48.6441C102.486 49.3577 102.13 50.428 102.13 51.7363V60.4181C102.13 61.7858 102.486 62.7967 103.14 63.5103C103.795 64.2239 104.746 64.5807 106.054 64.5807C107.362 64.5807 108.254 64.2239 108.968 63.5103C109.622 62.7967 109.979 61.7264 109.979 60.4181V51.7363C109.979 50.3686 109.622 49.3577 108.968 48.6441C108.314 47.9305 107.303 47.5737 106.054 47.5737ZM107.422 60.5965C107.422 61.1912 107.303 61.6074 107.065 61.8453C106.827 62.0831 106.47 62.2021 106.054 62.2021C105.638 62.2021 105.341 62.0831 105.043 61.8453C104.805 61.6074 104.686 61.1912 104.686 60.5965V51.6173C104.686 51.0227 104.805 50.6064 105.043 50.3686C105.281 50.1307 105.638 50.0118 106.054 50.0118C106.47 50.0118 106.768 50.1307 107.065 50.3686C107.303 50.6064 107.422 51.0227 107.422 51.6173V60.5965ZM115.45 47.5737C114.141 47.5737 113.249 47.9305 112.536 48.6441C111.882 49.3577 111.525 50.428 111.525 51.7363V60.4181C111.525 61.7858 111.882 62.7967 112.536 63.5103C113.19 64.2239 114.141 64.5807 115.45 64.5807C116.758 64.5807 117.65 64.2239 118.363 63.5103C119.018 62.7967 119.374 61.7264 119.374 60.4181V51.7363C119.374 50.3686 119.018 49.3577 118.363 48.6441C117.709 47.9305 116.758 47.5737 115.45 47.5737ZM116.817 60.5965C116.817 61.1912 116.698 61.6074 116.461 61.8453C116.223 62.0831 115.866 62.2021 115.45 62.2021C115.033 62.2021 114.736 62.0831 114.439 61.8453C114.201 61.6074 114.082 61.1912 114.082 60.5965V51.6173C114.082 51.0227 114.201 50.6064 114.439 50.3686C114.677 50.1307 115.033 50.0118 115.45 50.0118C115.866 50.0118 116.163 50.1307 116.461 50.3686C116.698 50.6064 116.817 51.0227 116.817 51.6173V60.5965ZM123.775 47.7521H121.218V64.4023H127.997V62.0237H123.775V47.7521ZM136.738 47.5737C135.43 47.5737 134.538 47.9305 133.824 48.6441C133.17 49.3577 132.813 50.428 132.813 51.7363V60.4181C132.813 61.7858 133.17 62.7967 133.824 63.5103C134.478 64.2239 135.43 64.5807 136.738 64.5807C138.046 64.5807 138.938 64.2239 139.652 63.5103C140.306 62.7967 140.663 61.7264 140.663 60.4181V51.7363C140.663 50.3686 140.306 49.3577 139.652 48.6441C138.998 47.9305 137.987 47.5737 136.738 47.5737ZM138.046 60.5965C138.046 61.1912 137.927 61.6074 137.689 61.8453C137.452 62.0831 137.095 62.2021 136.679 62.2021C136.262 62.2021 135.965 62.0831 135.668 61.8453C135.43 61.6074 135.311 61.1912 135.311 60.5965V51.6173C135.311 51.0227 135.43 50.6064 135.668 50.3686C135.906 50.1307 136.262 50.0118 136.679 50.0118C137.095 50.0118 137.392 50.1307 137.689 50.3686C137.927 50.6064 138.046 51.0227 138.046 51.6173V60.5965ZM142.447 64.4023H145.004V57.5044H148.334V55.1258H145.004V50.1307H149.226V47.7521H142.447V64.4023ZM157.016 47.7521H154.459V64.4023H161.238V62.0237H157.016V47.7521ZM164.449 47.7521L161.832 64.4023H164.151L164.627 61.3696H167.779L168.254 64.4023H170.811L168.195 47.7521H164.449ZM164.984 59.1694L166.233 50.7254L167.481 59.1694H164.984ZM181.753 47.7521L180.385 60.9533L179.077 47.7521H176.639L175.39 60.8938L173.963 47.7521H171.466L173.249 64.4023H176.758L177.709 55.542L178.661 64.4023H182.05L183.834 47.7521H181.753Z" fill="black"/>
<defs>
<linearGradient id="paint0_linear_12438_42145" x1="14" y1="55.661" x2="194" y2="55.661" gradientUnits="userSpaceOnUse">
<stop stop-color="#F9DF7B"/>
<stop offset="0.2038" stop-color="#B57E10"/>
<stop offset="0.2643" stop-color="#B78114"/>
<stop offset="0.3227" stop-color="#BF8C1F"/>
<stop offset="0.3803" stop-color="#CB9E33"/>
<stop offset="0.4373" stop-color="#DDB64E"/>
<stop offset="0.4935" stop-color="#F3D671"/>
<stop offset="0.5077" stop-color="#F9DF7B"/>
<stop offset="0.5189" stop-color="#FFF3A6"/>
<stop offset="0.5934" stop-color="#F9DF7B"/>
<stop offset="0.8428" stop-color="#B57E10"/>
<stop offset="0.9493" stop-color="#E5C35C"/>
<stop offset="1" stop-color="#F9DF7B"/>
</linearGradient>
</defs>
</svg>
