<svg width="51" height="50" viewBox="0 0 51 50" fill="none" xmlns="http://www.w3.org/2000/svg">
<rect x="0.5" width="50" height="50" rx="25" fill="#DBE9FE"/>
<g clip-path="url(#clip0_12262_141879)">
<path d="M25.5 35.5C25.2033 35.5 24.9133 35.588 24.6666 35.7528C24.42 35.9176 24.2277 36.1519 24.1142 36.426C24.0006 36.7001 23.9709 37.0017 24.0288 37.2926C24.0867 37.5836 24.2296 37.8509 24.4393 38.0607C24.6491 38.2704 24.9164 38.4133 25.2074 38.4712C25.4983 38.5291 25.7999 38.4993 26.074 38.3858C26.3481 38.2723 26.5824 38.08 26.7472 37.8334C26.912 37.5867 27 37.2967 27 37C26.9996 36.6023 26.8414 36.221 26.5602 35.9398C26.279 35.6586 25.8977 35.5004 25.5 35.5ZM25.5 37.5C25.4011 37.5 25.3044 37.4707 25.2222 37.4157C25.14 37.3608 25.0759 37.2827 25.0381 37.1913C25.0002 37.1 24.9903 36.9994 25.0096 36.9025C25.0289 36.8055 25.0765 36.7164 25.1464 36.6464C25.2164 36.5765 25.3055 36.5289 25.4025 36.5096C25.4994 36.4903 25.6 36.5002 25.6913 36.5381C25.7827 36.5759 25.8608 36.64 25.9157 36.7222C25.9707 36.8044 26 36.9011 26 37C25.9998 37.1326 25.9471 37.2596 25.8534 37.3534C25.7596 37.4471 25.6326 37.4998 25.5 37.5ZM24.5 28C24.5006 28.5302 24.7115 29.0386 25.0865 29.4135C25.4614 29.7885 25.9698 29.9994 26.5 30H26.5638C26.6973 31.086 27.0122 31.8889 27.5254 32.4321C27.9077 32.8372 28.2273 33.2185 28.509 33.5552C29.4546 34.6841 30.1377 35.5 31.7471 35.5H31.7766C33.3809 35.5 34.0651 34.6891 35.0063 33.5655L33.3816 33.8766C33.1722 34.0866 32.9213 34.2505 32.6449 34.3578C32.3685 34.4652 32.0728 34.5136 31.7766 34.5H31.7471C30.6045 34.5 30.1604 33.9697 29.2756 32.9131C28.9849 32.5659 28.6553 32.1724 28.2524 31.7456C27.8088 31.2759 27.5559 30.4307 27.5 29.2341V27.8795C28.572 27.7573 29.555 27.2246 30.2427 26.3933C30.9453 27.0151 32.428 28.0801 34.3464 28.0801C34.9082 28.0789 35.4663 27.989 36 27.8137V29.2665L35.9998 29.2734C35.9985 29.2827 35.9976 29.292 35.9968 29.3015C35.9725 29.6739 35.923 30.0442 35.8487 30.4098L36.8967 30.2181C36.9079 30.1475 36.9168 30.0728 36.9268 30H37C37.3514 29.9999 37.6965 29.9065 38 29.7294V30.9663L31.656 32.1816C31.5915 32.194 31.5301 32.2189 31.4753 32.255C31.4204 32.2911 31.3732 32.3376 31.3364 32.3919C31.2995 32.4462 31.2737 32.5073 31.2604 32.5716C31.2472 32.6359 31.2467 32.7021 31.259 32.7666C31.2714 32.8311 31.2963 32.8925 31.3324 32.9473C31.3685 33.0022 31.415 33.0494 31.4693 33.0862C31.5236 33.1231 31.5847 33.1489 31.649 33.1622C31.7133 33.1754 31.7795 33.1759 31.844 33.1636L38.2581 31.9351C38.2818 31.9306 38.3052 31.9244 38.3281 31.9165C38.5243 31.8483 38.6944 31.7207 38.8148 31.5514C38.9352 31.3822 38.9999 31.1796 39 30.9719V27.5C38.9994 26.9698 38.7885 26.4614 38.4135 26.0865C38.0386 25.7115 37.5302 25.5006 37 25.5H36.8433C36.6761 24.8235 36.376 24.1869 35.9607 23.6273C35.5454 23.0677 35.023 22.5962 34.424 22.2402C34.4241 22.2298 34.426 22.2199 34.426 22.2095V21.7905C34.4253 21.1833 34.1838 20.6011 33.7544 20.1717C33.325 19.7423 32.7428 19.5007 32.1355 19.5H31.2166C30.6093 19.5007 30.0271 19.7423 29.5977 20.1717C29.1683 20.6011 28.9267 21.1833 28.926 21.7905V22.2095C28.926 22.2491 28.9327 22.287 28.9347 22.3261C27.7961 23.0524 26.9804 24.1888 26.6567 25.5H26.5C25.9698 25.5006 25.4614 25.7115 25.0865 26.0865C24.7115 26.4614 24.5006 26.9698 24.5 27.5V28ZM37 26.5C37.2651 26.5003 37.5193 26.6057 37.7068 26.7932C37.8943 26.9807 37.9997 27.2349 38 27.5V28C37.9997 28.2637 37.8952 28.5166 37.7094 28.7037C37.5236 28.8908 37.2714 28.997 37.0077 28.9992C37.0111 28.7886 37.0126 28.4912 37.0144 28.0535C37.0181 27.23 37.0183 26.8861 37 26.7122L37 26.5ZM29.926 21.7905C29.9264 21.4484 30.0625 21.1203 30.3044 20.8784C30.5464 20.6364 30.8744 20.5004 31.2166 20.5H32.1355C32.4755 20.5005 32.8016 20.635 33.0429 20.8744C33.2843 21.1138 33.4216 21.4388 33.4248 21.7788C32.2878 21.3891 31.0504 21.4085 29.926 21.8335L29.926 21.7905ZM27.5 26.75C27.5006 25.6234 27.9486 24.5431 28.7454 23.7467C29.5422 22.9502 30.6226 22.5027 31.7492 22.5025C32.8758 22.5023 33.9564 22.9494 34.7535 23.7456C35.5506 24.5418 35.9989 25.6219 35.9999 26.7485C32.9165 27.9775 30.6519 25.416 30.5559 25.3052C30.5048 25.2455 30.4403 25.1987 30.3678 25.1686C30.2952 25.1385 30.2166 25.1259 30.1382 25.1318C30.0599 25.1378 29.984 25.1621 29.9168 25.2028C29.8496 25.2435 29.793 25.2995 29.7515 25.3662C29.5097 25.767 29.1826 26.1097 28.7935 26.3699C28.4044 26.6301 27.9628 26.8015 27.5 26.8718V26.75ZM25.5 27.5C25.5003 27.2349 25.6057 26.9807 25.7932 26.7932C25.9807 26.6057 26.2349 26.5003 26.5 26.5C26.5 26.5 26.4898 28.8121 26.4932 28.9993C26.2293 28.9974 25.9769 28.8913 25.7909 28.7041C25.6049 28.5169 25.5003 28.2639 25.5 28V27.5ZM11.5 28C11.5 28.1326 11.5527 28.2598 11.6465 28.3535C11.7402 28.4473 11.8674 28.5 12 28.5H19C19.1326 28.5 19.2598 28.4473 19.3536 28.3536C19.4473 28.2598 19.5 28.1326 19.5 28C19.5 27.8674 19.4473 27.7402 19.3536 27.6464C19.2598 27.5527 19.1326 27.5 19 27.5H12C11.8674 27.5 11.7402 27.5527 11.6465 27.6465C11.5527 27.7402 11.5 27.8674 11.5 28ZM19 29.5H12C11.8674 29.5 11.7402 29.5527 11.6464 29.6464C11.5527 29.7402 11.5 29.8674 11.5 30C11.5 30.1326 11.5527 30.2598 11.6464 30.3536C11.7402 30.4473 11.8674 30.5 12 30.5H19C19.1326 30.5 19.2598 30.4473 19.3536 30.3536C19.4473 30.2598 19.5 30.1326 19.5 30C19.5 29.8674 19.4473 29.7402 19.3536 29.6464C19.2598 29.5527 19.1326 29.5 19 29.5ZM19 31.5H12C11.8674 31.5 11.7402 31.5527 11.6464 31.6464C11.5527 31.7402 11.5 31.8674 11.5 32C11.5 32.1326 11.5527 32.2598 11.6464 32.3536C11.7402 32.4473 11.8674 32.5 12 32.5H19C19.1326 32.5 19.2598 32.4473 19.3536 32.3536C19.4473 32.2598 19.5 32.1326 19.5 32C19.5 31.8674 19.4473 31.7402 19.3536 31.6464C19.2598 31.5527 19.1326 31.5 19 31.5ZM19 33.5H12C11.8674 33.5 11.7402 33.5527 11.6464 33.6464C11.5527 33.7402 11.5 33.8674 11.5 34C11.5 34.1326 11.5527 34.2598 11.6464 34.3536C11.7402 34.4473 11.8674 34.5 12 34.5H19C19.1326 34.5 19.2598 34.4473 19.3536 34.3536C19.4473 34.2598 19.5 34.1326 19.5 34C19.5 33.8674 19.4473 33.7402 19.3536 33.6464C19.2598 33.5527 19.1326 33.5 19 33.5ZM14.5 17.8894C14.5174 18.7229 14.7287 19.5409 15.1172 20.2786C15.2371 20.5215 15.3745 20.77 15.5376 21.0388C15.6416 21.2102 15.7673 21.4016 15.9055 21.6121C16.4221 22.3982 17.1296 23.4744 17.46 24.7271C17.5298 25.0106 17.6899 25.2636 17.9162 25.4482C18.1425 25.6327 18.4226 25.7386 18.7144 25.75H20.2859C20.5777 25.7386 20.8578 25.6326 21.0841 25.4481C21.3104 25.2635 21.4705 25.0103 21.5403 24.7268C21.8706 23.4739 22.5784 22.3975 23.095 21.6113C23.2332 21.4011 23.3586 21.21 23.4629 21.0383C23.6248 20.7715 23.7622 20.523 23.8831 20.2778C24.2715 19.5404 24.4827 18.7227 24.5 17.8894C24.5 15.0554 22.2954 12.75 19.5857 12.75H19.4143C16.7046 12.75 14.5 15.0554 14.5 17.8894ZM19.4143 13.75H19.5857C21.7441 13.75 23.5 15.6069 23.5 17.8894C23.4815 18.5692 23.3057 19.2354 22.9863 19.8357C22.8784 20.0539 22.7546 20.2781 22.6082 20.5195C22.5098 20.6816 22.3904 20.8628 22.2595 21.062C21.7048 21.9058 20.9453 23.061 20.5735 24.4717C20.5569 24.5406 20.521 24.6033 20.4701 24.6526C20.4191 24.7018 20.3553 24.7356 20.2859 24.75H20V20.5H20.25C20.3826 20.5 20.5098 20.4473 20.6036 20.3536C20.6973 20.2598 20.75 20.1326 20.75 20C20.75 19.8674 20.6973 19.7402 20.6036 19.6464C20.5098 19.5527 20.3826 19.5 20.25 19.5H18.75C18.6174 19.5 18.4902 19.5527 18.3964 19.6464C18.3027 19.7402 18.25 19.8674 18.25 20C18.25 20.1326 18.3027 20.2598 18.3964 20.3536C18.4902 20.4473 18.6174 20.5 18.75 20.5H19V24.75H18.7144C18.645 24.7356 18.5812 24.7019 18.5302 24.6527C18.4793 24.6034 18.4434 24.5408 18.4268 24.4719C18.0549 23.0615 17.2956 21.9065 16.7412 21.063C16.6101 20.8633 16.4907 20.6819 16.3923 20.5203C16.2449 20.2766 16.1208 20.0525 16.0142 19.8364C15.6946 19.2359 15.5186 18.5694 15.5 17.8894C15.5 15.6069 17.2559 13.75 19.4143 13.75ZM20 11.75V11.25C20 11.1174 19.9473 10.9902 19.8536 10.8964C19.7598 10.8027 19.6326 10.75 19.5 10.75C19.3674 10.75 19.2402 10.8027 19.1464 10.8964C19.0527 10.9902 19 11.1174 19 11.25V11.75C19 11.8826 19.0527 12.0098 19.1464 12.1036C19.2402 12.1973 19.3674 12.25 19.5 12.25C19.6326 12.25 19.7598 12.1973 19.8536 12.1036C19.9473 12.0098 20 11.8826 20 11.75ZM23.8765 12.9165L23.523 13.27C23.4765 13.3164 23.4397 13.3716 23.4145 13.4322C23.3894 13.4929 23.3764 13.5579 23.3764 13.6236C23.3764 13.6892 23.3893 13.7543 23.4144 13.8149C23.4396 13.8756 23.4764 13.9307 23.5228 13.9772C23.5693 14.0236 23.6244 14.0604 23.6851 14.0856C23.7457 14.1107 23.8108 14.1236 23.8764 14.1236C23.9421 14.1236 24.0071 14.1106 24.0678 14.0855C24.1284 14.0603 24.1836 14.0235 24.23 13.9771L24.5835 13.6235C24.6773 13.5298 24.7299 13.4026 24.7299 13.27C24.7299 13.1374 24.6773 13.0103 24.5835 12.9165C24.4897 12.8227 24.3626 12.7701 24.23 12.7701C24.0974 12.7701 23.9702 12.8227 23.8765 12.9165ZM15.1235 12.9165C15.0298 12.8227 14.9026 12.7701 14.77 12.7701C14.6374 12.7701 14.5103 12.8227 14.4165 12.9165C14.3227 13.0103 14.2701 13.1374 14.2701 13.27C14.2701 13.4026 14.3227 13.5298 14.4165 13.6235L14.77 13.977C14.8638 14.0705 14.9909 14.1229 15.1233 14.1228C15.2558 14.1227 15.3827 14.07 15.4764 13.9764C15.57 13.8827 15.6227 13.7558 15.6228 13.6233C15.6229 13.4909 15.5705 13.3638 15.477 13.27L15.1235 12.9165ZM25.5 18H26C26.1326 18 26.2598 17.9473 26.3536 17.8536C26.4473 17.7598 26.5 17.6326 26.5 17.5C26.5 17.3674 26.4473 17.2402 26.3536 17.1464C26.2598 17.0527 26.1326 17 26 17H25.5C25.3674 17 25.2402 17.0527 25.1464 17.1464C25.0527 17.2402 25 17.3674 25 17.5C25 17.6326 25.0527 17.7598 25.1464 17.8536C25.2402 17.9473 25.3674 18 25.5 18ZM13.5 18C13.6326 18 13.7598 17.9473 13.8536 17.8536C13.9473 17.7598 14 17.6326 14 17.5C14 17.3674 13.9473 17.2402 13.8536 17.1464C13.7598 17.0527 13.6326 17 13.5 17H13C12.8674 17 12.7402 17.0527 12.6464 17.1464C12.5527 17.2402 12.5 17.3674 12.5 17.5C12.5 17.6326 12.5527 17.7598 12.6464 17.8536C12.7402 17.9473 12.8674 18 13 18H13.5ZM31.5217 18C31.4771 17.738 31.5029 17.4689 31.5967 17.2202L31.6798 17H27.4125C27.5292 17.3231 27.5292 17.6769 27.4125 18H31.5217Z" fill="url(#paint0_linear_12262_141879)"/>
<path d="M40.4473 18.2811C40.4815 18.3491 40.4995 18.424 40.5 18.5V36.5H28.5C28.3674 36.5 28.2402 36.5527 28.1464 36.6464C28.0527 36.7402 28 36.8674 28 37C28 37.1326 28.0527 37.2598 28.1464 37.3536C28.2402 37.4473 28.3674 37.5 28.5 37.5H40.5V39C40.4998 39.1326 40.4471 39.2596 40.3534 39.3534C40.2596 39.4471 40.1326 39.4998 40 39.5H11C10.8674 39.4998 10.7404 39.4471 10.6466 39.3534C10.5529 39.2596 10.5002 39.1326 10.5 39V37.5H22.5C22.6326 37.5 22.7598 37.4473 22.8536 37.3536C22.9473 37.2598 23 37.1326 23 37C23 36.8674 22.9473 36.7402 22.8536 36.6464C22.7598 36.5527 22.6326 36.5 22.5 36.5H10.5V18.5C10.5002 18.3674 10.5529 18.2404 10.6466 18.1466C10.7404 18.0529 10.8674 18.0002 11 18H11.5875C11.4708 17.6769 11.4708 17.3231 11.5875 17H11C10.6023 17.0004 10.221 17.1586 9.93982 17.4398C9.65861 17.721 9.50043 18.1023 9.5 18.5V39C9.50043 39.3977 9.65861 39.779 9.93982 40.0602C10.221 40.3414 10.6023 40.4996 11 40.5H40C40.3977 40.4996 40.779 40.3414 41.0602 40.0602C41.3414 39.779 41.4996 39.3977 41.5 39V18.5C41.5 18.1632 41.386 17.8363 41.1766 17.5725C40.9557 17.8306 40.7116 18.0678 40.4473 18.2811Z" fill="url(#paint1_linear_12262_141879)"/>
<path d="M37 9.5C36.2175 9.49896 35.4484 9.70224 34.7686 10.0897C34.0888 10.4772 33.5219 11.0355 33.1241 11.7093C32.7263 12.3831 32.5113 13.1491 32.5004 13.9315C32.4895 14.7139 32.6831 15.4856 33.062 16.1702L32.5322 17.5735C32.5 17.659 32.4917 17.7516 32.5084 17.8414C32.5251 17.9313 32.5661 18.0148 32.6269 18.083C32.6877 18.1511 32.7661 18.2013 32.8534 18.2281C32.9407 18.2549 33.0337 18.2572 33.1223 18.2349L34.6636 17.8457C35.2571 18.2063 35.926 18.4246 36.618 18.4836C37.31 18.5426 38.0062 18.4406 38.6522 18.1856C39.2982 17.9306 39.8764 17.5296 40.3415 17.0139C40.8067 16.4982 41.1462 15.8818 41.3334 15.2131C41.5206 14.5443 41.5505 13.8413 41.4207 13.159C41.291 12.4768 41.005 11.8338 40.5853 11.2805C40.1656 10.7272 39.6236 10.2785 39.0016 9.96962C38.3796 9.66073 37.6945 9.49999 37 9.5ZM37 17.5C36.2984 17.5012 35.6128 17.2902 35.0332 16.8948C34.9503 16.8382 34.8522 16.8079 34.7517 16.8079C34.7105 16.8079 34.6694 16.813 34.6294 16.823L33.8059 17.031L34.082 16.2993C34.1093 16.2271 34.1194 16.1496 34.1117 16.0728C34.104 15.996 34.0786 15.922 34.0376 15.8567C33.6267 15.1994 33.4458 14.4241 33.5234 13.6528C33.601 12.8815 33.9327 12.1578 34.4664 11.5955C35 11.0333 35.7054 10.6642 36.4716 10.5464C37.2378 10.4287 38.0214 10.5688 38.6993 10.9448C39.3772 11.3209 39.9109 11.9115 40.2166 12.6239C40.5223 13.3363 40.5826 14.1301 40.3881 14.8805C40.1936 15.6309 39.7552 16.2954 39.142 16.7695C38.5287 17.2437 37.7752 17.5007 37 17.5Z" fill="url(#paint2_linear_12262_141879)"/>
<path d="M35.375 13.5H35.125C34.9924 13.5 34.8652 13.5527 34.7714 13.6464C34.6777 13.7402 34.625 13.8674 34.625 14C34.625 14.1326 34.6777 14.2598 34.7714 14.3536C34.8652 14.4473 34.9924 14.5 35.125 14.5H35.375C35.5076 14.5 35.6348 14.4473 35.7286 14.3536C35.8223 14.2598 35.875 14.1326 35.875 14C35.875 13.8674 35.8223 13.7402 35.7286 13.6464C35.6348 13.5527 35.5076 13.5 35.375 13.5ZM37.125 13.5H36.875C36.7424 13.5 36.6152 13.5527 36.5214 13.6464C36.4277 13.7402 36.375 13.8674 36.375 14C36.375 14.1326 36.4277 14.2598 36.5214 14.3536C36.6152 14.4473 36.7424 14.5 36.875 14.5H37.125C37.2576 14.5 37.3848 14.4473 37.4786 14.3536C37.5723 14.2598 37.625 14.1326 37.625 14C37.625 13.8674 37.5723 13.7402 37.4786 13.6464C37.3848 13.5527 37.2576 13.5 37.125 13.5ZM38.875 13.5H38.625C38.4924 13.5 38.3652 13.5527 38.2714 13.6464C38.1777 13.7402 38.125 13.8674 38.125 14C38.125 14.1326 38.1777 14.2598 38.2714 14.3536C38.3652 14.4473 38.4924 14.5 38.625 14.5H38.875C39.0076 14.5 39.1348 14.4473 39.2286 14.3536C39.3223 14.2598 39.375 14.1326 39.375 14C39.375 13.8674 39.3223 13.7402 39.2286 13.6464C39.1348 13.5527 39.0076 13.5 38.875 13.5Z" fill="url(#paint3_linear_12262_141879)"/>
<path d="M21 32.5C21.2761 32.5 21.5 32.2761 21.5 32C21.5 31.7239 21.2761 31.5 21 31.5C20.7239 31.5 20.5 31.7239 20.5 32C20.5 32.2761 20.7239 32.5 21 32.5Z" fill="url(#paint4_linear_12262_141879)"/>
<path d="M21 30.5C21.2761 30.5 21.5 30.2761 21.5 30C21.5 29.7239 21.2761 29.5 21 29.5C20.7239 29.5 20.5 29.7239 20.5 30C20.5 30.2761 20.7239 30.5 21 30.5Z" fill="url(#paint5_linear_12262_141879)"/>
<path d="M21 28.5C21.2761 28.5 21.5 28.2761 21.5 28C21.5 27.7239 21.2761 27.5 21 27.5C20.7239 27.5 20.5 27.7239 20.5 28C20.5 28.2761 20.7239 28.5 21 28.5Z" fill="url(#paint6_linear_12262_141879)"/>
<path d="M21 34.5C21.2761 34.5 21.5 34.2761 21.5 34C21.5 33.7239 21.2761 33.5 21 33.5C20.7239 33.5 20.5 33.7239 20.5 34C20.5 34.2761 20.7239 34.5 21 34.5Z" fill="url(#paint7_linear_12262_141879)"/>
</g>
<defs>
<linearGradient id="paint0_linear_12262_141879" x1="11.5" y1="32.395" x2="39.0864" y2="19.8196" gradientUnits="userSpaceOnUse">
<stop stop-color="#0575E6"/>
<stop offset="1" stop-color="#021B79"/>
</linearGradient>
<linearGradient id="paint1_linear_12262_141879" x1="9.5" y1="35.33" x2="37.3458" y2="17.8879" gradientUnits="userSpaceOnUse">
<stop stop-color="#0575E6"/>
<stop offset="1" stop-color="#021B79"/>
</linearGradient>
<linearGradient id="paint2_linear_12262_141879" x1="32.5" y1="16.5199" x2="41.4999" y2="12.3798" gradientUnits="userSpaceOnUse">
<stop stop-color="#0575E6"/>
<stop offset="1" stop-color="#021B79"/>
</linearGradient>
<linearGradient id="paint3_linear_12262_141879" x1="34.625" y1="14.28" x2="35.6217" y2="12.1022" gradientUnits="userSpaceOnUse">
<stop stop-color="#0575E6"/>
<stop offset="1" stop-color="#021B79"/>
</linearGradient>
<linearGradient id="paint4_linear_12262_141879" x1="20.5" y1="32.28" x2="21.5" y2="31.82" gradientUnits="userSpaceOnUse">
<stop stop-color="#0575E6"/>
<stop offset="1" stop-color="#021B79"/>
</linearGradient>
<linearGradient id="paint5_linear_12262_141879" x1="20.5" y1="30.28" x2="21.5" y2="29.82" gradientUnits="userSpaceOnUse">
<stop stop-color="#0575E6"/>
<stop offset="1" stop-color="#021B79"/>
</linearGradient>
<linearGradient id="paint6_linear_12262_141879" x1="20.5" y1="28.28" x2="21.5" y2="27.82" gradientUnits="userSpaceOnUse">
<stop stop-color="#0575E6"/>
<stop offset="1" stop-color="#021B79"/>
</linearGradient>
<linearGradient id="paint7_linear_12262_141879" x1="20.5" y1="34.28" x2="21.5" y2="33.82" gradientUnits="userSpaceOnUse">
<stop stop-color="#0575E6"/>
<stop offset="1" stop-color="#021B79"/>
</linearGradient>
<clipPath id="clip0_12262_141879">
<rect width="32" height="32" fill="white" transform="translate(9.5 9)"/>
</clipPath>
</defs>
</svg>
