<svg width="51" height="50" viewBox="0 0 51 50" fill="none" xmlns="http://www.w3.org/2000/svg">
<rect x="0.5" width="50" height="50" rx="25" fill="#DBE9FE"/>
<g clip-path="url(#clip0_12262_142232)">
<path d="M11.3805 33.1528H21.1558L20.5001 35.5057H19.0556C18.5365 35.5057 18.1144 35.9278 18.1144 36.4469V37.8587C18.1144 38.3778 18.5365 38.7999 19.0556 38.7999H31.9409C32.46 38.7999 32.8821 38.3778 32.8821 37.8587V36.4469C32.8821 35.9278 32.46 35.5057 31.9409 35.5057H30.4964L29.8408 33.1528H39.6158C40.3943 33.1528 41.0276 32.5195 41.0276 31.741V12.6149C41.0276 11.8364 40.3943 11.2031 39.6158 11.2031H11.3805C10.602 11.2031 9.96875 11.8364 9.96875 12.6149V31.741C9.96875 32.5195 10.602 33.1528 11.3805 33.1528ZM31.9416 37.8587H19.0556V36.4469C23.0541 36.4469 27.9525 36.4469 31.9409 36.4469L31.9416 37.8587ZM29.5193 35.5057H21.4773L22.1328 33.1528H28.8637L29.5193 35.5057ZM10.9099 12.6149C10.9099 12.3555 11.1211 12.1443 11.3805 12.1443H39.6158C39.8752 12.1443 40.0864 12.3555 40.0864 12.6149V31.741C40.0864 32.0005 39.8752 32.2116 39.6158 32.2116C33.606 32.2116 17.3969 32.2116 11.3805 32.2116C11.1211 32.2116 10.9099 32.0005 10.9099 31.741V12.6149Z" fill="url(#paint0_linear_12262_142232)"/>
<path d="M35.7206 15.2734C35.4607 15.2734 35.25 15.4841 35.25 15.744V17.2693C35.25 17.5292 35.4607 17.7399 35.7206 17.7399C35.9805 17.7399 36.1912 17.5292 36.1912 17.2693V15.744C36.1912 15.4841 35.9805 15.2734 35.7206 15.2734ZM35.7206 18.8339C35.4607 18.8339 35.25 19.0446 35.25 19.3045V21.5924C35.25 21.8523 35.4607 22.063 35.7206 22.063C35.9805 22.063 36.1912 21.8523 36.1912 21.5924V19.3045C36.1912 19.0446 35.9805 18.8339 35.7206 18.8339Z" fill="url(#paint1_linear_12262_142232)"/>
<path d="M12.5604 31.0347H38.4428C38.7027 31.0347 38.9134 30.824 38.9134 30.5641V13.7909C38.9134 13.531 38.7027 13.3203 38.4428 13.3203H12.5604C12.3005 13.3203 12.0898 13.531 12.0898 13.7909V30.5641C12.0898 30.824 12.3005 31.0347 12.5604 31.0347ZM13.031 14.2615H37.9722V30.0935H13.031V14.2615Z" fill="url(#paint2_linear_12262_142232)"/>
<path d="M30.7713 17.3308C27.124 16.5844 25.8251 15.4808 25.8147 15.4719C25.636 15.3115 25.3653 15.3115 25.1865 15.4719C25.1743 15.4829 23.9225 16.5753 20.2299 17.3308C20.0358 17.3703 19.8873 17.5275 19.8586 17.7235C19.8448 17.8174 18.5606 27.14 25.3779 28.9824C25.4181 28.9932 25.4593 28.9987 25.5006 28.9987C25.542 28.9987 25.5831 28.9932 25.6233 28.9824C32.4406 27.14 31.1564 17.8174 31.1426 17.7235C31.1139 17.5275 30.9655 17.3703 30.7713 17.3308ZM25.5006 28.0394C20.289 26.5254 20.6081 19.7462 20.7543 18.1819C23.4887 17.5844 24.9209 16.7945 25.5006 16.4066C26.0801 16.7947 27.5123 17.5844 30.2469 18.1819C30.3931 19.7462 30.7122 26.5254 25.5006 28.0394Z" fill="url(#paint3_linear_12262_142232)"/>
<path d="M25.4995 19.3594C24.4616 19.3594 23.6172 20.2038 23.6172 21.2417C23.6172 22.1162 24.2194 22.8468 25.029 23.0572V24.5209C25.029 24.7808 25.2397 24.9915 25.4995 24.9915C25.7594 24.9915 25.9701 24.7808 25.9701 24.5209V23.0572C26.7797 22.8468 27.3819 22.1162 27.3819 21.2417C27.3819 20.2038 26.5375 19.3594 25.4995 19.3594ZM25.4995 22.1829C24.9805 22.1829 24.5584 21.7608 24.5584 21.2417C24.5584 20.7227 24.9805 20.3006 25.4995 20.3006C26.0186 20.3006 26.4407 20.7227 26.4407 21.2417C26.4407 21.7608 26.0186 22.1829 25.4995 22.1829Z" fill="url(#paint4_linear_12262_142232)"/>
</g>
<defs>
<linearGradient id="paint0_linear_12262_142232" x1="9.96875" y1="32.7286" x2="39.6456" y2="17.3646" gradientUnits="userSpaceOnUse">
<stop stop-color="#0575E6"/>
<stop offset="1" stop-color="#021B79"/>
</linearGradient>
<linearGradient id="paint1_linear_12262_142232" x1="35.25" y1="20.5693" x2="36.3857" y2="20.4968" gradientUnits="userSpaceOnUse">
<stop stop-color="#0575E6"/>
<stop offset="1" stop-color="#021B79"/>
</linearGradient>
<linearGradient id="paint2_linear_12262_142232" x1="12.0898" y1="27.1375" x2="33.9724" y2="11.8954" gradientUnits="userSpaceOnUse">
<stop stop-color="#0575E6"/>
<stop offset="1" stop-color="#021B79"/>
</linearGradient>
<linearGradient id="paint3_linear_12262_142232" x1="19.7539" y1="25.9964" x2="31.8621" y2="21.3056" gradientUnits="userSpaceOnUse">
<stop stop-color="#0575E6"/>
<stop offset="1" stop-color="#021B79"/>
</linearGradient>
<linearGradient id="paint4_linear_12262_142232" x1="23.6172" y1="23.7524" x2="27.7845" y2="22.4711" gradientUnits="userSpaceOnUse">
<stop stop-color="#0575E6"/>
<stop offset="1" stop-color="#021B79"/>
</linearGradient>
<clipPath id="clip0_12262_142232">
<rect width="32" height="32" fill="white" transform="translate(9.5 9)"/>
</clipPath>
</defs>
</svg>
