<svg width="51" height="50" viewBox="0 0 51 50" fill="none" xmlns="http://www.w3.org/2000/svg">
<rect x="0.5" width="50" height="50" rx="25" fill="#DBE9FE"/>
<path d="M39.4985 19.6H37.4985C36.9485 19.6 36.4985 19.1 36.4985 18.5C36.4985 17.9 36.9485 17.4 37.4985 17.4H39.4985C39.6485 17.4 39.8485 17.3 39.8985 17.15C39.9985 17 39.9985 16.8 39.9485 16.65C39.2985 15.3 38.0485 14.5 36.6985 14.5C35.4985 14.5 34.3985 15.2 33.7985 16H33.4985V15.5C33.4985 14.65 32.8485 14 31.9985 14H30.9985C30.5985 14 30.2485 14.15 29.9985 14.4C29.7485 14.15 29.3985 14 28.9985 14H27.9985C27.5985 14 27.2485 14.15 26.9985 14.4C26.7485 14.15 26.3985 14 25.9985 14H24.9985C24.5985 14 24.2485 14.15 23.9985 14.4C23.7485 14.15 23.3985 14 22.9985 14H21.9985C21.1485 14 20.4985 14.65 20.4985 15.5V16H17.2485C16.5985 15.2 15.4985 14.5 14.3485 14.5C12.9485 14.5 11.6985 15.35 11.0985 16.65C11.0485 16.8 11.0485 17 11.1485 17.15C11.2485 17.3 11.3985 17.4 11.5485 17.4H13.5485C14.0985 17.4 14.5485 17.9 14.5485 18.5C14.5485 19.1 14.0985 19.6 13.5485 19.6H11.4985C11.3485 19.6 11.1485 19.7 11.0985 19.85C10.9985 20 10.9985 20.2 11.0485 20.35C11.6985 21.65 12.9485 22.5 14.2985 22.5C15.4985 22.5 16.5985 21.8 17.1985 21H17.4985V24.5C17.4985 24.6 17.4985 24.7 17.5485 24.75L20.4985 29.65V35.5C20.4985 35.8 20.6985 36 20.9985 36H29.9985C30.2985 36 30.4985 35.8 30.4985 35.5V29.65L33.3985 25.3C33.4485 25.2 33.4985 25.1 33.4985 25V21H33.7485C34.3985 21.8 35.4985 22.5 36.6485 22.5C38.0485 22.5 39.2985 21.65 39.8985 20.35C39.9485 20.2 39.9485 20 39.8485 19.85C39.8485 19.7 39.6485 19.6 39.4985 19.6ZM16.9985 20C16.8485 20 16.6985 20.1 16.5985 20.2C16.0485 20.95 15.0985 21.5 14.3485 21.5C13.6485 21.5 12.9485 21.15 12.4485 20.6H13.4985C14.5985 20.6 15.4985 19.65 15.4985 18.5C15.4985 17.35 14.5985 16.4 13.4985 16.4H12.3985C12.8985 15.85 13.5985 15.5 14.2985 15.5C15.0985 15.5 16.0485 16.05 16.5485 16.8C16.6485 16.95 16.7985 17 16.9485 17H20.4485V20H17.9485H16.9985ZM21.4985 35V30H29.4985V35H21.4985ZM32.4985 24.85L29.7485 29H21.2985L18.4985 24.35V21H20.9985C21.2985 21 21.4985 20.8 21.4985 20.5V16.5V15.5C21.4985 15.2 21.6985 15 21.9985 15H22.9985C23.2985 15 23.4985 15.2 23.4985 15.5V20C23.4985 20.3 23.6985 20.5 23.9985 20.5C24.2985 20.5 24.4985 20.3 24.4985 20V15.5C24.4985 15.2 24.6985 15 24.9985 15H25.9985C26.2985 15 26.4985 15.2 26.4985 15.5V20C26.4985 20.3 26.6985 20.5 26.9985 20.5C27.2985 20.5 27.4985 20.3 27.4985 20V15.5C27.4985 15.2 27.6985 15 27.9985 15H28.9985C29.2985 15 29.4985 15.2 29.4985 15.5V20C29.4985 20.3 29.6985 20.5 29.9985 20.5C30.2985 20.5 30.4985 20.3 30.4985 20V15.5C30.4985 15.2 30.6985 15 30.9985 15H31.9985C32.2985 15 32.4985 15.2 32.4985 15.5V16.5V20.5V24.85ZM36.6985 21.5C35.8985 21.5 34.9485 20.95 34.4485 20.2C34.2985 20.1 34.1485 20 33.9985 20H33.4985V17H33.9985C34.1485 17 34.2985 16.9 34.3985 16.8C34.9485 16.05 35.8985 15.5 36.6485 15.5C37.3485 15.5 38.0485 15.85 38.5485 16.4H37.4985C36.3985 16.4 35.4985 17.35 35.4985 18.5C35.4985 19.65 36.3985 20.6 37.4985 20.6H38.5985C38.0985 21.15 37.3985 21.5 36.6985 21.5Z" fill="url(#paint0_linear_12262_141992)"/>
<path d="M27.5 21H23.5C21.85 21 20.5 22.35 20.5 24C20.5 25.65 21.85 27 23.5 27H27.5C29.15 27 30.5 25.65 30.5 24C30.5 22.35 29.15 21 27.5 21ZM27.5 26H23.5C22.4 26 21.5 25.1 21.5 24C21.5 22.9 22.4 22 23.5 22H27.5C28.6 22 29.5 22.9 29.5 24C29.5 25.1 28.6 26 27.5 26Z" fill="url(#paint1_linear_12262_141992)"/>
<path d="M23.5 25C24.0523 25 24.5 24.5523 24.5 24C24.5 23.4477 24.0523 23 23.5 23C22.9477 23 22.5 23.4477 22.5 24C22.5 24.5523 22.9477 25 23.5 25Z" fill="url(#paint2_linear_12262_141992)"/>
<path d="M27.5 25C28.0523 25 28.5 24.5523 28.5 24C28.5 23.4477 28.0523 23 27.5 23C26.9477 23 26.5 23.4477 26.5 24C26.5 24.5523 26.9477 25 27.5 25Z" fill="url(#paint3_linear_12262_141992)"/>
<defs>
<linearGradient id="paint0_linear_12262_141992" x1="11.0156" y1="31.16" x2="36.6921" y2="15.6091" gradientUnits="userSpaceOnUse">
<stop stop-color="#0575E6"/>
<stop offset="1" stop-color="#021B79"/>
</linearGradient>
<linearGradient id="paint1_linear_12262_141992" x1="20.5" y1="25.68" x2="28.1308" y2="19.8297" gradientUnits="userSpaceOnUse">
<stop stop-color="#0575E6"/>
<stop offset="1" stop-color="#021B79"/>
</linearGradient>
<linearGradient id="paint2_linear_12262_141992" x1="22.5" y1="24.56" x2="24.5" y2="23.64" gradientUnits="userSpaceOnUse">
<stop stop-color="#0575E6"/>
<stop offset="1" stop-color="#021B79"/>
</linearGradient>
<linearGradient id="paint3_linear_12262_141992" x1="26.5" y1="24.56" x2="28.5" y2="23.64" gradientUnits="userSpaceOnUse">
<stop stop-color="#0575E6"/>
<stop offset="1" stop-color="#021B79"/>
</linearGradient>
</defs>
</svg>
