<svg width="51" height="50" viewBox="0 0 51 50" fill="none" xmlns="http://www.w3.org/2000/svg">
<rect x="0.5" width="50" height="50" rx="25" fill="#DBE9FE"/>
<g clip-path="url(#clip0_12262_142173)">
<path d="M16.75 32.2536C17.9431 32.2531 19.1176 31.9582 20.1694 31.3949C21.2211 30.8316 22.1176 30.0175 22.7792 29.0246L27.3208 31.6199C26.8774 33.0581 26.8926 34.5988 27.3643 36.028C27.8359 37.4573 28.7407 38.7044 29.953 39.5963C31.1654 40.4882 32.6253 40.9806 34.1302 41.0054C35.6351 41.0302 37.1104 40.586 38.3514 39.7345C39.5925 38.883 40.5378 37.6664 41.0563 36.2535C41.5747 34.8405 41.6406 33.3012 41.2448 31.8491C40.8489 30.397 40.011 29.104 38.8472 28.1496C37.6834 27.1952 36.2515 26.6266 34.75 26.5227V23.4844C36.2505 23.38 37.6814 22.8113 38.8441 21.8571C40.0069 20.903 40.844 19.6107 41.2393 18.1594C41.6346 16.7082 41.5685 15.1699 41.0503 13.7578C40.532 12.3458 39.5872 11.13 38.347 10.2791C37.1067 9.42812 35.6323 8.98417 34.1284 9.00878C32.6245 9.0334 31.1655 9.52536 29.9537 10.4164C28.7419 11.3075 27.8375 12.5536 27.3657 13.9818C26.8939 15.4101 26.8782 16.9497 27.3208 18.3872L22.7792 20.9825C22.0841 19.9404 21.1308 19.0962 20.0124 18.5323C18.8939 17.9683 17.6483 17.7038 16.3972 17.7645C15.146 17.8253 13.932 18.2092 12.8734 18.8789C11.8148 19.5486 10.9479 20.4812 10.357 21.5857C9.76619 22.6902 9.47166 23.929 9.50215 25.1812C9.53264 26.4335 9.88712 27.6565 10.531 28.7309C11.1749 29.8054 12.0862 30.6946 13.1762 31.312C14.2661 31.9294 15.4974 32.2538 16.75 32.2536ZM40.5 33.7536C40.5 34.9897 40.1334 36.1981 39.4467 37.2259C38.7599 38.2537 37.7838 39.0547 36.6418 39.5278C35.4997 40.0008 34.2431 40.1246 33.0307 39.8835C31.8183 39.6423 30.7047 39.047 29.8306 38.173C28.9565 37.2989 28.3612 36.1852 28.1201 34.9729C27.8789 33.7605 28.0027 32.5038 28.4758 31.3618C28.9488 30.2197 29.7499 29.2436 30.7777 28.5569C31.8055 27.8701 33.0139 27.5036 34.25 27.5036C35.907 27.5054 37.4957 28.1645 38.6674 29.3362C39.8391 30.5079 40.4981 32.0965 40.5 33.7536ZM34.25 10.0036C35.4861 10.0036 36.6945 10.3701 37.7223 11.0569C38.7501 11.7436 39.5512 12.7197 40.0242 13.8618C40.4973 15.0038 40.6211 16.2605 40.3799 17.4729C40.1387 18.6852 39.5435 19.7989 38.6694 20.673C37.7953 21.547 36.6817 22.1423 35.4693 22.3835C34.2569 22.6246 33.0003 22.5008 31.8582 22.0278C30.7162 21.5548 29.7401 20.7537 29.0533 19.7259C28.3666 18.6981 28 17.4897 28 16.2536C28.0019 14.5965 28.6609 13.0079 29.8326 11.8362C31.0043 10.6645 32.593 10.0054 34.25 10.0036ZM23.2771 21.8496L27.6869 19.3297C28.2366 20.499 29.0882 21.5004 30.154 22.2308C31.2198 22.9611 32.4612 23.3939 33.75 23.4844V26.5227C32.4612 26.6133 31.2198 27.046 30.154 27.7763C29.0882 28.5067 28.2366 29.5081 27.6869 30.6774L23.2771 28.1575C23.7528 27.1742 24 26.0959 24 25.0036C24 23.9112 23.7528 22.833 23.2771 21.8496ZM16.75 18.7536C17.9861 18.7536 19.1945 19.1201 20.2223 19.8069C21.2501 20.4936 22.0512 21.4697 22.5242 22.6118C22.9973 23.7538 23.1211 25.0105 22.8799 26.2229C22.6387 27.4352 22.0435 28.5489 21.1694 29.423C20.2953 30.297 19.1817 30.8923 17.9693 31.1335C16.7569 31.3746 15.5003 31.2508 14.3582 30.7778C13.2162 30.3047 12.2401 29.5037 11.5533 28.4759C10.8666 27.4481 10.5 26.2397 10.5 25.0036C10.5019 23.3465 11.1609 21.7579 12.3326 20.5862C13.5043 19.4145 15.093 18.7554 16.75 18.7536Z" fill="url(#paint0_linear_12262_142173)"/>
<path d="M31 20.4962H37.5C37.6326 20.4962 37.7598 20.4435 37.8535 20.3497C37.9473 20.2559 38 20.1288 38 19.9962V16.2594C37.9889 15.9684 37.8801 15.6897 37.6911 15.4683C37.502 15.2468 37.2438 15.0956 36.9582 15.0391C36.7015 15.4241 36.3661 15.7503 35.9741 15.9962H36.6034C36.8372 15.9962 37 16.1348 37 16.2594V19.4962H31.5V16.2594C31.5 16.1348 31.6628 15.9962 31.8966 15.9962H32.5259C32.1338 15.7503 31.7984 15.4241 31.5418 15.0391C31.2562 15.0956 30.998 15.2468 30.8089 15.4683C30.6199 15.6897 30.511 15.9684 30.5 16.2594V19.9962C30.5 20.1288 30.5527 20.2559 30.6465 20.3497C30.7402 20.4435 30.8674 20.4962 31 20.4962Z" fill="url(#paint1_linear_12262_142173)"/>
<path d="M34.25 15.5C34.695 15.5 35.13 15.368 35.5 15.1208C35.8701 14.8736 36.1584 14.5222 36.3287 14.111C36.499 13.6999 36.5436 13.2475 36.4568 12.811C36.3699 12.3745 36.1556 11.9736 35.8409 11.659C35.5263 11.3443 35.1253 11.13 34.6889 11.0432C34.2524 10.9564 33.8 11.001 33.3889 11.1713C32.9777 11.3416 32.6264 11.63 32.3791 12.0001C32.1319 12.3701 32 12.8051 32 13.2501C32.0007 13.8466 32.238 14.4185 32.6598 14.8403C33.0816 15.2621 33.6535 15.4993 34.25 15.5ZM34.25 12C34.4972 12 34.7389 12.0733 34.9445 12.2107C35.15 12.348 35.3102 12.5432 35.4048 12.7716C35.4995 13 35.5242 13.2513 35.476 13.4938C35.4278 13.7363 35.3087 13.959 35.1339 14.1338C34.9591 14.3087 34.7364 14.4277 34.4939 14.476C34.2515 14.5242 34.0001 14.4995 33.7717 14.4049C33.5433 14.3103 33.3481 14.1501 33.2107 13.9446C33.0734 13.739 33 13.4973 33 13.2501C33.0004 12.9187 33.1322 12.601 33.3665 12.3666C33.6009 12.1322 33.9186 12.0004 34.25 12ZM36.6034 33.5C36.8372 33.5 37 33.6387 37 33.7632V37H31.5V33.7632C31.5 33.6387 31.6628 33.5 31.8966 33.5H32.5259C32.1338 33.2541 31.7984 32.9279 31.5418 32.5429C31.2562 32.5994 30.998 32.7507 30.8089 32.9721C30.6199 33.1935 30.511 33.4722 30.5 33.7632V37.5C30.5 37.6326 30.5527 37.7598 30.6465 37.8535C30.7402 37.9473 30.8674 38 31 38H37.5C37.6326 38 37.7598 37.9473 37.8535 37.8535C37.9473 37.7598 38 37.6326 38 37.5V33.7632C37.9889 33.4722 37.8801 33.1935 37.6911 32.9721C37.502 32.7507 37.2438 32.5994 36.9582 32.5429C36.7015 32.9279 36.3661 33.2541 35.9741 33.5H36.6034Z" fill="url(#paint2_linear_12262_142173)"/>
<path d="M32 30.7463C32 31.1913 32.132 31.6263 32.3793 31.9963C32.6265 32.3663 32.9779 32.6547 33.389 32.8249C33.8002 32.9952 34.2526 33.0398 34.689 32.9529C35.1255 32.8661 35.5264 32.6518 35.841 32.3371C36.1557 32.0224 36.37 31.6215 36.4568 31.1851C36.5436 30.7486 36.499 30.2962 36.3287 29.8851C36.1584 29.474 35.87 29.1226 35.5 28.8754C35.13 28.6281 34.695 28.4962 34.25 28.4962C33.6534 28.4968 33.0815 28.7341 32.6597 29.156C32.2379 29.5778 32.0006 30.1497 32 30.7463ZM35.5 30.7463C35.5 30.9935 35.4266 31.2352 35.2893 31.4407C35.1519 31.6463 34.9567 31.8065 34.7283 31.9011C34.4999 31.9956 34.2485 32.0204 34.0061 31.9721C33.7636 31.9239 33.5409 31.8048 33.3661 31.63C33.1913 31.4552 33.0722 31.2325 33.024 30.99C32.9758 30.7475 33.0005 30.4962 33.0952 30.2678C33.1898 30.0394 33.35 29.8442 33.5555 29.7068C33.7611 29.5695 34.0028 29.4962 34.25 29.4962C34.5814 29.4965 34.8992 29.6284 35.1335 29.8627C35.3679 30.0971 35.4997 30.4149 35.5 30.7463ZM13.5 29.2462H20C20.1326 29.2462 20.2598 29.1935 20.3535 29.0997C20.4473 29.0059 20.5 28.8788 20.5 28.7462V25.0094C20.4889 24.7184 20.3801 24.4397 20.1911 24.2183C20.002 23.9968 19.7438 23.8456 19.4582 23.7891C19.2015 24.1741 18.8661 24.5003 18.4741 24.7462H19.1034C19.3372 24.7462 19.5 24.8848 19.5 25.0094V28.2462H14V25.0094C14 24.8848 14.1628 24.7462 14.3966 24.7462H15.0259C14.6338 24.5003 14.2984 24.1741 14.0418 23.7891C13.7562 23.8456 13.498 23.9968 13.3089 24.2183C13.1199 24.4397 13.011 24.7184 13 25.0094V28.7462C13 28.8788 13.0527 29.0059 13.1465 29.0997C13.2402 29.1935 13.3674 29.2462 13.5 29.2462Z" fill="url(#paint3_linear_12262_142173)"/>
<path d="M16.75 24.25C17.195 24.25 17.63 24.118 18 23.8708C18.3701 23.6236 18.6584 23.2722 18.8287 22.861C18.999 22.4499 19.0436 21.9975 18.9568 21.561C18.8699 21.1245 18.6556 20.7236 18.3409 20.409C18.0263 20.0943 17.6253 19.88 17.1889 19.7932C16.7524 19.7064 16.3 19.751 15.8889 19.9213C15.4777 20.0916 15.1264 20.38 14.8791 20.7501C14.6319 21.1201 14.5 21.5551 14.5 22.0001C14.5007 22.5966 14.738 23.1685 15.1598 23.5903C15.5816 24.0121 16.1535 24.2493 16.75 24.25ZM16.75 20.75C16.9972 20.75 17.2389 20.8233 17.4444 20.9607C17.65 21.098 17.8102 21.2932 17.9048 21.5216C17.9995 21.75 18.0242 22.0013 17.976 22.2438C17.9278 22.4863 17.8087 22.709 17.6339 22.8838C17.4591 23.0587 17.2364 23.1777 16.9939 23.226C16.7515 23.2742 16.5001 23.2495 16.2717 23.1549C16.0433 23.0603 15.8481 22.9001 15.7107 22.6946C15.5734 22.489 15.5 22.2473 15.5 22.0001C15.5004 21.6687 15.6322 21.351 15.8665 21.1166C16.1008 20.8822 16.4186 20.7504 16.75 20.75Z" fill="url(#paint4_linear_12262_142173)"/>
</g>
<defs>
<linearGradient id="paint0_linear_12262_142173" x1="9.5" y1="33.9667" x2="41.4995" y2="19.2463" gradientUnits="userSpaceOnUse">
<stop stop-color="#0575E6"/>
<stop offset="1" stop-color="#021B79"/>
</linearGradient>
<linearGradient id="paint1_linear_12262_142173" x1="30.5" y1="19.2956" x2="36.9922" y2="15.1912" gradientUnits="userSpaceOnUse">
<stop stop-color="#0575E6"/>
<stop offset="1" stop-color="#021B79"/>
</linearGradient>
<linearGradient id="paint2_linear_12262_142173" x1="30.5" y1="32.06" x2="39.441" y2="30.9175" gradientUnits="userSpaceOnUse">
<stop stop-color="#0575E6"/>
<stop offset="1" stop-color="#021B79"/>
</linearGradient>
<linearGradient id="paint3_linear_12262_142173" x1="13" y1="30.9706" x2="24.9709" y2="16.9157" gradientUnits="userSpaceOnUse">
<stop stop-color="#0575E6"/>
<stop offset="1" stop-color="#021B79"/>
</linearGradient>
<linearGradient id="paint4_linear_12262_142173" x1="14.5" y1="23.26" x2="19" y2="21.19" gradientUnits="userSpaceOnUse">
<stop stop-color="#0575E6"/>
<stop offset="1" stop-color="#021B79"/>
</linearGradient>
<clipPath id="clip0_12262_142173">
<rect width="32" height="32" fill="white" transform="translate(9.5 9)"/>
</clipPath>
</defs>
</svg>
