<svg width="51" height="50" viewBox="0 0 51 50" fill="none" xmlns="http://www.w3.org/2000/svg">
<rect x="0.5" width="50" height="50" rx="25" fill="#DBE9FE"/>
<g clip-path="url(#clip0_12262_142193)">
<path d="M12 39.5012H39C39.6628 39.5005 40.2982 39.2369 40.7669 38.7682C41.2356 38.2995 41.4992 37.6641 41.5 37.0013C41.5 36.8687 41.4473 36.7415 41.3535 36.6477C41.2598 36.554 41.1326 36.5013 41 36.5013H40.25V20.0014C40.2498 19.7533 40.1881 19.5091 40.0703 19.2906C39.9525 19.0722 39.7823 18.8865 39.5751 18.75C39.3643 19.027 39.1286 19.284 38.8709 19.5179C38.9789 19.5448 39.0749 19.6069 39.1435 19.6945C39.2122 19.7821 39.2497 19.8901 39.25 20.0014V36.5013H11.75V20.0014C11.7503 19.8901 11.7878 19.7821 11.8565 19.6945C11.9252 19.6069 12.0212 19.5447 12.1293 19.5179C11.8715 19.284 11.6358 19.0269 11.425 18.75C11.2177 18.8864 11.0475 19.0722 10.9297 19.2906C10.8119 19.509 10.7502 19.7533 10.75 20.0014V36.5013H10C9.8674 36.5013 9.74022 36.554 9.64646 36.6477C9.55269 36.7415 9.50001 36.8687 9.5 37.0013C9.50076 37.6641 9.7644 38.2995 10.2331 38.7682C10.7018 39.2369 11.3372 39.5005 12 39.5012ZM40.4143 37.5013C40.3106 37.7935 40.119 38.0465 39.8657 38.2256C39.6125 38.4046 39.3101 38.5009 39 38.5012H12C11.6899 38.5009 11.3875 38.4046 11.1342 38.2256C10.881 38.0465 10.6894 37.7935 10.5857 37.5013H40.4143Z" fill="url(#paint0_linear_12262_142193)"/>
<path d="M25.75 33.3749C25.8814 33.3745 26.0103 33.3395 26.1238 33.2733C26.2374 33.2072 26.3315 33.1123 26.3966 32.9982L30.2607 32.1733C30.5401 32.1125 30.7905 31.9582 30.9703 31.736C31.1502 31.5137 31.2488 31.2367 31.25 30.9508V29.934C31.765 29.7326 32.2074 29.3808 32.5196 28.9243C32.8317 28.4679 32.9991 27.928 33 27.375V26.125C33 24.1359 32.2098 22.2282 30.8033 20.8217C29.3968 19.4152 27.4891 18.625 25.5 18.625C23.5109 18.625 21.6032 19.4152 20.1967 20.8217C18.7902 22.2282 18 24.1359 18 26.125V27.375C18.0008 28.1041 18.2908 28.8031 18.8064 29.3186C19.3219 29.8342 20.0209 30.1242 20.75 30.125H21.2964C21.5778 32.6267 23.2562 34.3749 25.5 34.3749C25.5498 34.3749 25.5985 34.3715 25.6477 34.3698C25.2642 34.3471 24.8987 34.1989 24.6076 33.9481C24.3166 33.6973 24.116 33.3578 24.0368 32.9818C22.951 32.3571 22.25 31.0312 22.25 29.375V26.125C22.2495 25.8122 22.1513 25.5074 21.9692 25.2531C21.787 24.9989 21.53 24.8078 21.2341 24.7067C21.5309 23.8098 22.1029 23.0293 22.8687 22.476C23.6345 21.9228 24.5553 21.6251 25.5 21.6251C26.4447 21.6251 27.3655 21.9228 28.1313 22.476C28.8971 23.0293 29.4691 23.8098 29.7659 24.7067C29.47 24.8078 29.213 24.9989 29.0308 25.2531C28.8487 25.5074 28.7505 25.8122 28.75 26.125V29.625C28.75 29.7576 28.8027 29.8848 28.8965 29.9785C28.9902 30.0723 29.1174 30.125 29.25 30.125H30.25V30.9508C30.2498 31.008 30.23 31.0634 30.194 31.1078C30.158 31.1523 30.1079 31.1831 30.052 31.1953L26.1893 32.0199C26.0936 31.9504 25.9828 31.9045 25.866 31.8861C25.7492 31.8676 25.6297 31.877 25.5173 31.9136C25.4048 31.9502 25.3027 32.0129 25.2191 32.0965C25.1355 32.1802 25.073 32.2824 25.0365 32.3949C25 32.5074 24.9907 32.6269 25.0093 32.7437C25.0279 32.8605 25.0739 32.9712 25.1435 33.0668C25.2131 33.1624 25.3043 33.2401 25.4097 33.2937C25.5152 33.3472 25.6318 33.3751 25.75 33.3749ZM21.25 26.125V29.125H20.75C20.2859 29.125 19.8408 28.9406 19.5126 28.6124C19.1844 28.2842 19 27.8391 19 27.375C19 26.9109 19.1844 26.4658 19.5126 26.1376C19.8408 25.8094 20.2859 25.625 20.75 25.625C20.8826 25.6252 21.0096 25.6779 21.1034 25.7716C21.1971 25.8654 21.2498 25.9924 21.25 26.125ZM25.5 20.6251C24.2938 20.6269 23.1215 21.0248 22.1633 21.7576C21.2051 22.4903 20.5141 23.5174 20.1963 24.681C19.7855 24.7664 19.3998 24.9452 19.069 25.2034C19.29 23.6552 20.062 22.2387 21.2434 21.214C22.4247 20.1892 23.9361 19.6251 25.5 19.6251C27.0639 19.6251 28.5753 20.1892 29.7566 21.214C30.938 22.2387 31.71 23.6552 31.931 25.2034C31.6002 24.9452 31.2145 24.7664 30.8037 24.681C30.4859 23.5174 29.7949 22.4903 28.8367 21.7576C27.8785 21.0248 26.7062 20.6269 25.5 20.6251ZM29.75 29.125V26.125C29.7502 25.9924 29.8029 25.8654 29.8966 25.7716C29.9904 25.6779 30.1174 25.6252 30.25 25.625C30.7141 25.625 31.1592 25.8094 31.4874 26.1376C31.8156 26.4658 32 26.9109 32 27.375C32 27.8391 31.8156 28.2842 31.4874 28.6124C31.1592 28.9406 30.7141 29.125 30.25 29.125H29.75Z" fill="url(#paint1_linear_12262_142193)"/>
<path d="M24.2488 27.1245H23.7488C23.6829 27.1242 23.6176 27.1368 23.5567 27.1618C23.4957 27.1867 23.4402 27.2235 23.3935 27.27C23.3468 27.3164 23.3097 27.3717 23.2844 27.4325C23.2591 27.4934 23.2461 27.5586 23.2461 27.6245C23.2461 27.6904 23.2591 27.7556 23.2844 27.8165C23.3097 27.8773 23.3468 27.9326 23.3935 27.979C23.4402 28.0255 23.4957 28.0623 23.5567 28.0872C23.6176 28.1122 23.6829 28.1249 23.7488 28.1245H24.2488C24.3147 28.1249 24.38 28.1122 24.441 28.0872C24.502 28.0623 24.5574 28.0255 24.6042 27.979C24.6509 27.9326 24.6879 27.8773 24.7132 27.8165C24.7385 27.7556 24.7516 27.6904 24.7516 27.6245C24.7516 27.5586 24.7385 27.4934 24.7132 27.4325C24.6879 27.3717 24.6509 27.3164 24.6042 27.27C24.5574 27.2235 24.502 27.1867 24.441 27.1618C24.38 27.1368 24.3147 27.1242 24.2488 27.1245ZM26.7488 28.1245H27.2488C27.3147 28.1249 27.38 28.1122 27.441 28.0872C27.502 28.0623 27.5574 28.0255 27.6042 27.979C27.6509 27.9326 27.688 27.8773 27.7132 27.8165C27.7385 27.7556 27.7516 27.6904 27.7516 27.6245C27.7516 27.5586 27.7385 27.4934 27.7132 27.4325C27.688 27.3717 27.6509 27.3164 27.6042 27.27C27.5574 27.2235 27.502 27.1867 27.441 27.1618C27.38 27.1368 27.3147 27.1242 27.2488 27.1245H26.7488C26.6829 27.1242 26.6176 27.1368 26.5567 27.1618C26.4957 27.1867 26.4402 27.2235 26.3935 27.27C26.3468 27.3164 26.3097 27.3717 26.2844 27.4325C26.2591 27.4934 26.2461 27.5586 26.2461 27.6245C26.2461 27.6904 26.2591 27.7556 26.2844 27.8165C26.3097 27.8773 26.3468 27.9326 26.3935 27.979C26.4402 28.0255 26.4957 28.0623 26.5567 28.0872C26.6176 28.1122 26.6829 28.1249 26.7488 28.1245ZM24.9988 31.1245H25.9988C26.0647 31.1248 26.13 31.1122 26.191 31.0872C26.252 31.0622 26.3074 31.0255 26.3542 30.979C26.4009 30.9325 26.438 30.8773 26.4632 30.8164C26.4885 30.7556 26.5016 30.6904 26.5016 30.6245C26.5016 30.5586 26.4885 30.4933 26.4632 30.4325C26.438 30.3717 26.4009 30.3164 26.3542 30.27C26.3074 30.2235 26.252 30.1867 26.191 30.1618C26.13 30.1368 26.0647 30.1241 25.9988 30.1245H24.9988C24.9329 30.1241 24.8676 30.1368 24.8067 30.1618C24.7457 30.1867 24.6902 30.2235 24.6435 30.27C24.5968 30.3164 24.5597 30.3717 24.5344 30.4325C24.5091 30.4933 24.4961 30.5586 24.4961 30.6245C24.4961 30.6904 24.5091 30.7556 24.5344 30.8164C24.5597 30.8773 24.5968 30.9325 24.6435 30.979C24.6902 31.0255 24.7457 31.0622 24.8067 31.0872C24.8676 31.1122 24.9329 31.1248 24.9988 31.1245ZM31.1246 19.2944C31.106 19.3828 31.1116 19.4745 31.141 19.56C31.1704 19.6454 31.2224 19.7212 31.2914 19.7795C31.3605 19.8377 31.444 19.8761 31.5331 19.8907C31.6223 19.9052 31.7137 19.8954 31.7977 19.8621L32.8057 19.4639C33.3585 19.7525 33.9632 19.9283 34.5845 19.9811C34.7259 19.9936 34.8667 19.9998 35.0069 19.9997C35.9103 19.998 36.7945 19.7387 37.5558 19.2523C38.317 18.7658 38.9238 18.0723 39.3049 17.2532C39.6859 16.4341 39.8255 15.5233 39.7072 14.6276C39.5889 13.732 39.2177 12.8887 38.637 12.1966C38.2372 11.7174 37.7464 11.3224 37.1929 11.0343C36.6394 10.7462 36.0342 10.5707 35.4124 10.5181C34.4795 10.4364 33.5434 10.6323 32.7215 11.0813C31.8996 11.5302 31.2288 12.2121 30.7934 13.0413C30.358 13.8704 30.1774 14.8098 30.2744 15.7413C30.3714 16.6728 30.7416 17.5548 31.3384 18.2765L31.1246 19.2944ZM31.263 14.9229C31.3497 13.9322 31.8264 13.0165 32.5882 12.3772C33.35 11.738 34.3345 11.4275 35.3252 11.5142C35.8857 11.5635 36.4281 11.7382 36.9118 12.0254C37.3955 12.3127 37.8084 12.7051 38.1198 13.1736C38.4313 13.6421 38.6333 14.1747 38.711 14.7319C38.7886 15.2891 38.7399 15.8566 38.5684 16.3924C38.3969 16.9282 38.1071 17.4186 37.7204 17.8272C37.3336 18.2357 36.8599 18.5521 36.3343 18.7527C35.8087 18.9533 35.2447 19.0331 34.6841 18.9861C34.1235 18.9392 33.5806 18.7667 33.0958 18.4814C33.0302 18.4427 32.9566 18.4195 32.8807 18.4136C32.8048 18.4076 32.7286 18.4191 32.6578 18.4471L32.2942 18.5908L32.3682 18.2381C32.3847 18.16 32.3821 18.0791 32.3609 18.0022C32.3397 17.9252 32.3003 17.8545 32.2461 17.7959C31.8914 17.4117 31.6207 16.9578 31.4514 16.4631C31.2821 15.9684 31.2179 15.4438 31.263 14.9229Z" fill="url(#paint2_linear_12262_142193)"/>
<path d="M34.0016 14.7467H36.0016C36.0675 14.7471 36.1329 14.7344 36.1938 14.7094C36.2548 14.6845 36.3103 14.6477 36.357 14.6012C36.4037 14.5548 36.4408 14.4995 36.4661 14.4387C36.4914 14.3778 36.5044 14.3126 36.5044 14.2467C36.5044 14.1808 36.4914 14.1156 36.4661 14.0547C36.4408 13.9939 36.4037 13.9387 36.357 13.8922C36.3103 13.8457 36.2548 13.809 36.1938 13.784C36.1329 13.759 36.0675 13.7464 36.0016 13.7467H34.0016C33.9358 13.7464 33.8704 13.759 33.8095 13.784C33.7485 13.809 33.693 13.8457 33.6463 13.8922C33.5996 13.9387 33.5625 13.9939 33.5372 14.0547C33.5119 14.1156 33.4989 14.1808 33.4989 14.2467C33.4989 14.3126 33.5119 14.3778 33.5372 14.4387C33.5625 14.4995 33.5996 14.5548 33.6463 14.6012C33.693 14.6477 33.7485 14.6845 33.8095 14.7094C33.8704 14.7344 33.9358 14.7471 34.0016 14.7467ZM34.0016 16.7467H36.0016C36.1343 16.7467 36.2614 16.694 36.3552 16.6002C36.449 16.5065 36.5016 16.3793 36.5016 16.2467C36.5016 16.1141 36.449 15.9869 36.3552 15.8931C36.2614 15.7994 36.1343 15.7467 36.0016 15.7467H34.0016C33.869 15.7467 33.7419 15.7994 33.6481 15.8931C33.5543 15.9869 33.5016 16.1141 33.5016 16.2467C33.5016 16.3793 33.5543 16.5065 33.6481 16.6002C33.7419 16.694 33.869 16.7467 34.0016 16.7467ZM19.2031 19.8592C19.2871 19.8924 19.3785 19.9023 19.4676 19.8878C19.5568 19.8732 19.6403 19.8348 19.7093 19.7765C19.7784 19.7183 19.8303 19.6424 19.8597 19.557C19.8891 19.4716 19.8948 19.3798 19.8762 19.2915L19.6623 18.2735C20.3497 17.4419 20.7333 16.401 20.7501 15.3222C20.7669 14.2434 20.4158 13.1911 19.7546 12.3385C19.0934 11.4859 18.1616 10.8839 17.1126 10.6316C16.0636 10.3794 14.96 10.4918 13.9834 10.9506C13.0069 11.4093 12.2157 12.1869 11.7401 13.1553C11.2645 14.1238 11.1329 15.2253 11.367 16.2785C11.6011 17.3317 12.1868 18.2739 13.0278 18.9497C13.8688 19.6255 14.9149 19.9948 15.9938 19.9968C16.134 19.9968 16.2747 19.9906 16.416 19.9782C17.0374 19.9254 17.6421 19.7496 18.195 19.461L19.2031 19.8592ZM17.905 18.4785C17.4201 18.7639 16.8771 18.9367 16.3164 18.9838C15.7556 19.0309 15.1914 18.9512 14.6657 18.7506C14.1399 18.55 13.6661 18.2337 13.2792 17.825C12.8923 17.4164 12.6024 16.9259 12.4309 16.39C12.2593 15.854 12.2106 15.2863 12.2884 14.729C12.3661 14.1717 12.5682 13.639 12.8798 13.1704C13.1914 12.7018 13.6045 12.3094 14.0884 12.0222C14.5723 11.735 15.1147 11.5603 15.6752 11.5113H15.6755C16.4297 11.4452 17.1862 11.6091 17.8455 11.9812C18.5048 12.3533 19.036 12.9163 19.3693 13.5961C19.7025 14.276 19.8221 15.0407 19.7124 15.7898C19.6027 16.5389 19.2688 17.2372 18.7546 17.7929C18.7004 17.8515 18.661 17.9223 18.6398 17.9992C18.6186 18.0762 18.6161 18.1571 18.6325 18.2352L18.7065 18.5878L18.343 18.4441C18.2721 18.4162 18.1959 18.4048 18.12 18.4108C18.0441 18.4167 17.9706 18.4399 17.905 18.4785Z" fill="url(#paint3_linear_12262_142193)"/>
<path d="M16.9991 13.75H14.9991C14.9332 13.7496 14.8679 13.7623 14.8069 13.7873C14.7459 13.8122 14.6905 13.849 14.6438 13.8955C14.597 13.9419 14.56 13.9972 14.5347 14.058C14.5094 14.1189 14.4963 14.1841 14.4963 14.25C14.4963 14.3159 14.5094 14.3811 14.5347 14.442C14.56 14.5028 14.597 14.5581 14.6438 14.6045C14.6905 14.651 14.7459 14.6878 14.8069 14.7127C14.8679 14.7377 14.9332 14.7504 14.9991 14.75H16.9991C17.065 14.7504 17.1303 14.7377 17.1913 14.7127C17.2522 14.6878 17.3077 14.651 17.3544 14.6045C17.4011 14.5581 17.4382 14.5028 17.4635 14.442C17.4888 14.3811 17.5018 14.3159 17.5018 14.25C17.5018 14.1841 17.4888 14.1189 17.4635 14.058C17.4382 13.9972 17.4011 13.9419 17.3544 13.8955C17.3077 13.849 17.2522 13.8122 17.1913 13.7873C17.1303 13.7623 17.065 13.7496 16.9991 13.75ZM16.9991 15.75H14.9991C14.8665 15.75 14.7393 15.8027 14.6455 15.8964C14.5518 15.9902 14.4991 16.1174 14.4991 16.25C14.4991 16.3826 14.5518 16.5098 14.6455 16.6035C14.7393 16.6973 14.8665 16.75 14.9991 16.75H16.9991C17.1317 16.75 17.2589 16.6973 17.3526 16.6035C17.4464 16.5098 17.4991 16.3826 17.4991 16.25C17.4991 16.1174 17.4464 15.9902 17.3526 15.8964C17.2589 15.8027 17.1317 15.75 16.9991 15.75ZM38.2488 32.4998C38.2488 32.3672 38.1961 32.24 38.1024 32.1463C38.0086 32.0525 37.8814 31.9998 37.7488 31.9998H33.7488C33.6829 31.9995 33.6176 32.0121 33.5567 32.0371C33.4957 32.0621 33.4402 32.0988 33.3935 32.1453C33.3468 32.1918 33.3097 32.247 33.2844 32.3079C33.2591 32.3687 33.2461 32.4339 33.2461 32.4998C33.2461 32.5657 33.2591 32.631 33.2844 32.6918C33.3097 32.7526 33.3468 32.8079 33.3935 32.8543C33.4402 32.9008 33.4957 32.9376 33.5567 32.9625C33.6176 32.9875 33.6829 33.0002 33.7488 32.9998H37.7488C37.8814 32.9998 38.0086 32.9471 38.1024 32.8534C38.1961 32.7596 38.2488 32.6324 38.2488 32.4998ZM33.7488 33.9998C33.6162 33.9998 33.489 34.0525 33.3953 34.1463C33.3015 34.24 33.2488 34.3672 33.2488 34.4998C33.2488 34.6324 33.3015 34.7596 33.3953 34.8534C33.489 34.9471 33.6162 34.9998 33.7488 34.9998H35.7488C35.8814 34.9998 36.0086 34.9471 36.1024 34.8534C36.1962 34.7596 36.2488 34.6324 36.2488 34.4998C36.2488 34.3672 36.1962 34.24 36.1024 34.1463C36.0086 34.0525 35.8814 33.9998 35.7488 33.9998H33.7488ZM17.2488 31.9998H13.2488C13.1829 31.9995 13.1176 32.0121 13.0567 32.0371C12.9957 32.0621 12.9402 32.0988 12.8935 32.1453C12.8468 32.1918 12.8097 32.247 12.7844 32.3079C12.7591 32.3687 12.7461 32.4339 12.7461 32.4998C12.7461 32.5657 12.7591 32.631 12.7844 32.6918C12.8097 32.7526 12.8468 32.8079 12.8935 32.8543C12.9402 32.9008 12.9957 32.9376 13.0567 32.9626C13.1176 32.9875 13.1829 33.0002 13.2488 32.9998H17.2488C17.3147 33.0002 17.38 32.9875 17.441 32.9626C17.502 32.9376 17.5574 32.9008 17.6042 32.8543C17.6509 32.8079 17.6879 32.7526 17.7132 32.6918C17.7385 32.631 17.7516 32.5657 17.7516 32.4998C17.7516 32.4339 17.7385 32.3687 17.7132 32.3079C17.6879 32.247 17.6509 32.1918 17.6042 32.1453C17.5574 32.0988 17.502 32.0621 17.441 32.0371C17.38 32.0121 17.3147 31.9995 17.2488 31.9998ZM17.2488 33.9998H15.2488C15.1162 33.9998 14.989 34.0525 14.8953 34.1463C14.8015 34.24 14.7488 34.3672 14.7488 34.4998C14.7488 34.6324 14.8015 34.7596 14.8953 34.8534C14.989 34.9471 15.1162 34.9998 15.2488 34.9998H17.2488C17.3814 34.9998 17.5086 34.9471 17.6024 34.8534C17.6962 34.7596 17.7488 34.6324 17.7488 34.4998C17.7488 34.3672 17.6962 34.24 17.6024 34.1463C17.5086 34.0525 17.3814 33.9998 17.2488 33.9998Z" fill="url(#paint4_linear_12262_142193)"/>
</g>
<defs>
<linearGradient id="paint0_linear_12262_142193" x1="9.5" y1="34.936" x2="35.2927" y2="16.6398" gradientUnits="userSpaceOnUse">
<stop stop-color="#0575E6"/>
<stop offset="1" stop-color="#021B79"/>
</linearGradient>
<linearGradient id="paint1_linear_12262_142193" x1="18" y1="30.9099" x2="33.2475" y2="24.23" gradientUnits="userSpaceOnUse">
<stop stop-color="#0575E6"/>
<stop offset="1" stop-color="#021B79"/>
</linearGradient>
<linearGradient id="paint2_linear_12262_142193" x1="23.2461" y1="26.5871" x2="40.8546" y2="20.1062" gradientUnits="userSpaceOnUse">
<stop stop-color="#0575E6"/>
<stop offset="1" stop-color="#021B79"/>
</linearGradient>
<linearGradient id="paint3_linear_12262_142193" x1="11.2539" y1="17.9075" x2="23.5114" y2="2.9157" gradientUnits="userSpaceOnUse">
<stop stop-color="#0575E6"/>
<stop offset="1" stop-color="#021B79"/>
</linearGradient>
<linearGradient id="paint4_linear_12262_142193" x1="12.7461" y1="30.3248" x2="36.4277" y2="17.2511" gradientUnits="userSpaceOnUse">
<stop stop-color="#0575E6"/>
<stop offset="1" stop-color="#021B79"/>
</linearGradient>
<clipPath id="clip0_12262_142193">
<rect width="32" height="32" fill="white" transform="translate(9.5 9)"/>
</clipPath>
</defs>
</svg>
