<svg width="51" height="50" viewBox="0 0 51 50" fill="none" xmlns="http://www.w3.org/2000/svg">
<rect x="0.5" width="50" height="50" rx="25" fill="#DBE9FE"/>
<path d="M30.3647 39.7189H20.6367L23.3247 36.7109H27.6767L30.3647 39.7189Z" stroke="url(#paint0_linear_12262_142119)" stroke-width="1.5" stroke-miterlimit="10" stroke-linecap="round" stroke-linejoin="round"/>
<path d="M25.5 35.1796C25.9595 35.1796 26.332 34.8071 26.332 34.3476C26.332 33.8881 25.9595 33.5156 25.5 33.5156C25.0405 33.5156 24.668 33.8881 24.668 34.3476C24.668 34.8071 25.0405 35.1796 25.5 35.1796Z" stroke="url(#paint1_linear_12262_142119)" stroke-width="1.5" stroke-miterlimit="10" stroke-linecap="round" stroke-linejoin="round"/>
<path d="M40.2212 31.9123H10.7812V18.6003C10.7812 17.8963 11.3572 17.3203 12.0612 17.3203H38.9412C39.6452 17.3203 40.2212 17.8963 40.2212 18.6003V31.9123Z" stroke="url(#paint2_linear_12262_142119)" stroke-width="1.5" stroke-miterlimit="10" stroke-linecap="round" stroke-linejoin="round"/>
<path d="M38.9412 36.7123H12.0612C11.3572 36.7123 10.7812 36.1363 10.7812 35.4323V18.6003C10.7812 17.8963 11.3572 17.3203 12.0612 17.3203H38.9412C39.6452 17.3203 40.2212 17.8963 40.2212 18.6003V35.3683C40.2212 36.1363 39.6452 36.7123 38.9412 36.7123Z" stroke="url(#paint3_linear_12262_142119)" stroke-width="1.5" stroke-miterlimit="10" stroke-linecap="round" stroke-linejoin="round"/>
<path d="M25.1164 30.3734C27.7674 30.3734 29.9164 28.2244 29.9164 25.5734C29.9164 22.9225 27.7674 20.7734 25.1164 20.7734C22.4654 20.7734 20.3164 22.9225 20.3164 25.5734C20.3164 28.2244 22.4654 30.3734 25.1164 30.3734Z" stroke="url(#paint4_linear_12262_142119)" stroke-width="1.5" stroke-miterlimit="10" stroke-linecap="round" stroke-linejoin="round"/>
<path d="M25.115 30.3734C26.3521 30.3734 27.355 28.2244 27.355 25.5734C27.355 22.9225 26.3521 20.7734 25.115 20.7734C23.8779 20.7734 22.875 22.9225 22.875 25.5734C22.875 28.2244 23.8779 30.3734 25.115 30.3734Z" stroke="url(#paint5_linear_12262_142119)" stroke-width="1.5" stroke-miterlimit="10" stroke-linecap="round" stroke-linejoin="round"/>
<path d="M28.7623 22.5078C28.2503 22.6998 27.6743 22.8278 26.9703 22.9558C26.3943 23.0198 25.7543 23.0838 25.1143 23.0838C24.4743 23.0838 23.8343 23.0198 23.2583 22.9558C22.5543 22.8918 21.9783 22.6998 21.4663 22.5078M21.4023 28.6518C21.9143 28.4598 22.4903 28.2678 23.2583 28.2038C23.8343 28.1398 24.4743 28.0758 25.1783 28.0758C25.8823 28.0758 26.4583 28.1398 27.0983 28.2038C27.8023 28.3318 28.4423 28.4598 28.9543 28.6518" stroke="url(#paint6_linear_12262_142119)" stroke-width="1.5" stroke-miterlimit="10" stroke-linecap="round" stroke-linejoin="round"/>
<path d="M29.9164 25.5781H20.3164" stroke="url(#paint7_linear_12262_142119)" stroke-width="1.5" stroke-miterlimit="10" stroke-linecap="round" stroke-linejoin="round"/>
<path d="M25.1172 20.7734V30.3734" stroke="url(#paint8_linear_12262_142119)" stroke-width="1.5" stroke-miterlimit="10" stroke-linecap="round" stroke-linejoin="round"/>
<path d="M25.1172 17.6366V13.4766" stroke="url(#paint9_linear_12262_142119)" stroke-width="1.5" stroke-miterlimit="10" stroke-linecap="round" stroke-linejoin="round"/>
<path d="M14.875 13.4766V21.8606C14.875 22.5646 15.451 23.1406 16.155 23.1406H18.203" stroke="url(#paint10_linear_12262_142119)" stroke-width="1.5" stroke-miterlimit="10" stroke-linecap="round" stroke-linejoin="round"/>
<path d="M16.5391 22.0547L18.2031 23.1427L16.5391 24.1667" stroke="url(#paint11_linear_12262_142119)" stroke-width="1.5" stroke-miterlimit="10" stroke-linecap="round" stroke-linejoin="round"/>
<path d="M35.3553 13.4766V21.8606C35.3553 22.5646 34.7793 23.1406 34.0753 23.1406H32.0273" stroke="url(#paint12_linear_12262_142119)" stroke-width="1.5" stroke-miterlimit="10" stroke-linecap="round" stroke-linejoin="round"/>
<path d="M33.7553 22.0547L32.0273 23.1427L33.7553 24.1667" stroke="url(#paint13_linear_12262_142119)" stroke-width="1.5" stroke-miterlimit="10" stroke-linecap="round" stroke-linejoin="round"/>
<path d="M24.0273 16.6797L25.1153 18.4077L26.2033 16.6797" stroke="url(#paint14_linear_12262_142119)" stroke-width="1.5" stroke-miterlimit="10" stroke-linecap="round" stroke-linejoin="round"/>
<path d="M25.1156 13.4812C25.9993 13.4812 26.7156 12.7649 26.7156 11.8812C26.7156 10.9976 25.9993 10.2812 25.1156 10.2812C24.232 10.2812 23.5156 10.9976 23.5156 11.8812C23.5156 12.7649 24.232 13.4812 25.1156 13.4812Z" stroke="url(#paint15_linear_12262_142119)" stroke-width="1.5" stroke-miterlimit="10" stroke-linecap="round" stroke-linejoin="round"/>
<path d="M14.8773 13.4812C15.761 13.4812 16.4773 12.7649 16.4773 11.8812C16.4773 10.9976 15.761 10.2812 14.8773 10.2812C13.9937 10.2812 13.2773 10.9976 13.2773 11.8812C13.2773 12.7649 13.9937 13.4812 14.8773 13.4812Z" stroke="url(#paint16_linear_12262_142119)" stroke-width="1.5" stroke-miterlimit="10" stroke-linecap="round" stroke-linejoin="round"/>
<path d="M35.3578 13.4812C36.2415 13.4812 36.9578 12.7649 36.9578 11.8812C36.9578 10.9976 36.2415 10.2812 35.3578 10.2812C34.4742 10.2812 33.7578 10.9976 33.7578 11.8812C33.7578 12.7649 34.4742 13.4812 35.3578 13.4812Z" stroke="url(#paint17_linear_12262_142119)" stroke-width="1.5" stroke-miterlimit="10" stroke-linecap="round" stroke-linejoin="round"/>
<path d="M19.6133 39.7188H31.4533" stroke="url(#paint18_linear_12262_142119)" stroke-width="1.5" stroke-miterlimit="10" stroke-linecap="round" stroke-linejoin="round"/>
<defs>
<linearGradient id="paint0_linear_12262_142119" x1="20.6367" y1="39.0572" x2="24.3049" y2="33.6001" gradientUnits="userSpaceOnUse">
<stop stop-color="#0575E6"/>
<stop offset="1" stop-color="#021B79"/>
</linearGradient>
<linearGradient id="paint1_linear_12262_142119" x1="24.668" y1="34.8135" x2="26.332" y2="34.0481" gradientUnits="userSpaceOnUse">
<stop stop-color="#0575E6"/>
<stop offset="1" stop-color="#021B79"/>
</linearGradient>
<linearGradient id="paint2_linear_12262_142119" x1="10.7812" y1="28.7021" x2="29.9449" y2="10.9169" gradientUnits="userSpaceOnUse">
<stop stop-color="#0575E6"/>
<stop offset="1" stop-color="#021B79"/>
</linearGradient>
<linearGradient id="paint3_linear_12262_142119" x1="10.7812" y1="32.4461" x2="34.7576" y2="15.7022" gradientUnits="userSpaceOnUse">
<stop stop-color="#0575E6"/>
<stop offset="1" stop-color="#021B79"/>
</linearGradient>
<linearGradient id="paint4_linear_12262_142119" x1="20.3164" y1="28.2614" x2="29.9164" y2="23.8454" gradientUnits="userSpaceOnUse">
<stop stop-color="#0575E6"/>
<stop offset="1" stop-color="#021B79"/>
</linearGradient>
<linearGradient id="paint5_linear_12262_142119" x1="22.875" y1="28.2614" x2="28.0639" y2="27.1476" gradientUnits="userSpaceOnUse">
<stop stop-color="#0575E6"/>
<stop offset="1" stop-color="#021B79"/>
</linearGradient>
<linearGradient id="paint6_linear_12262_142119" x1="21.4023" y1="27.3001" x2="28.3358" y2="23.3799" gradientUnits="userSpaceOnUse">
<stop stop-color="#0575E6"/>
<stop offset="1" stop-color="#021B79"/>
</linearGradient>
<linearGradient id="paint7_linear_12262_142119" x1="20.3164" y1="26.3581" x2="20.8838" y2="23.8527" gradientUnits="userSpaceOnUse">
<stop stop-color="#0575E6"/>
<stop offset="1" stop-color="#021B79"/>
</linearGradient>
<linearGradient id="paint8_linear_12262_142119" x1="25.1172" y1="28.2614" x2="26.326" y2="28.2035" gradientUnits="userSpaceOnUse">
<stop stop-color="#0575E6"/>
<stop offset="1" stop-color="#021B79"/>
</linearGradient>
<linearGradient id="paint9_linear_12262_142119" x1="25.1172" y1="16.7214" x2="26.3142" y2="16.589" gradientUnits="userSpaceOnUse">
<stop stop-color="#0575E6"/>
<stop offset="1" stop-color="#021B79"/>
</linearGradient>
<linearGradient id="paint10_linear_12262_142119" x1="14.875" y1="21.0145" x2="18.8085" y2="20.3914" gradientUnits="userSpaceOnUse">
<stop stop-color="#0575E6"/>
<stop offset="1" stop-color="#021B79"/>
</linearGradient>
<linearGradient id="paint11_linear_12262_142119" x1="16.5391" y1="23.702" x2="18.3211" y2="23.0562" gradientUnits="userSpaceOnUse">
<stop stop-color="#0575E6"/>
<stop offset="1" stop-color="#021B79"/>
</linearGradient>
<linearGradient id="paint12_linear_12262_142119" x1="32.0273" y1="21.0145" x2="35.9608" y2="20.3914" gradientUnits="userSpaceOnUse">
<stop stop-color="#0575E6"/>
<stop offset="1" stop-color="#021B79"/>
</linearGradient>
<linearGradient id="paint13_linear_12262_142119" x1="32.0273" y1="23.702" x2="33.8612" y2="23.0118" gradientUnits="userSpaceOnUse">
<stop stop-color="#0575E6"/>
<stop offset="1" stop-color="#021B79"/>
</linearGradient>
<linearGradient id="paint14_linear_12262_142119" x1="24.0273" y1="18.0275" x2="26.0014" y2="16.884" gradientUnits="userSpaceOnUse">
<stop stop-color="#0575E6"/>
<stop offset="1" stop-color="#021B79"/>
</linearGradient>
<linearGradient id="paint15_linear_12262_142119" x1="23.5156" y1="12.7773" x2="26.7156" y2="11.3053" gradientUnits="userSpaceOnUse">
<stop stop-color="#0575E6"/>
<stop offset="1" stop-color="#021B79"/>
</linearGradient>
<linearGradient id="paint16_linear_12262_142119" x1="13.2773" y1="12.7773" x2="16.4773" y2="11.3053" gradientUnits="userSpaceOnUse">
<stop stop-color="#0575E6"/>
<stop offset="1" stop-color="#021B79"/>
</linearGradient>
<linearGradient id="paint17_linear_12262_142119" x1="33.7578" y1="12.7773" x2="36.9578" y2="11.3053" gradientUnits="userSpaceOnUse">
<stop stop-color="#0575E6"/>
<stop offset="1" stop-color="#021B79"/>
</linearGradient>
<linearGradient id="paint18_linear_12262_142119" x1="19.6133" y1="40.4988" x2="20.0811" y2="37.9507" gradientUnits="userSpaceOnUse">
<stop stop-color="#0575E6"/>
<stop offset="1" stop-color="#021B79"/>
</linearGradient>
</defs>
</svg>
