<svg width="51" height="50" viewBox="0 0 51 50" fill="none" xmlns="http://www.w3.org/2000/svg">
<rect x="0.5" width="50" height="50" rx="25" fill="#DBE9FE"/>
<path d="M31.0162 20.1019C30.8162 20.1019 30.6263 19.9769 30.5563 19.7719C30.3263 19.0969 29.6862 18.6419 28.9712 18.6419C28.2562 18.6419 27.6213 19.0969 27.3863 19.7719C27.3013 20.0269 27.0263 20.1619 26.7713 20.0719C26.5163 19.9869 26.3812 19.7119 26.4712 19.4569C26.8362 18.3869 27.8412 17.6719 28.9712 17.6719C30.1012 17.6719 31.1062 18.3919 31.4712 19.4569C31.5562 19.7119 31.4213 19.9869 31.1713 20.0719C31.1213 20.0919 31.0712 20.1019 31.0162 20.1019ZM38.4513 27.5419H37.2062C36.9362 27.5419 36.7212 27.3269 36.7212 27.0569C36.7212 26.7869 36.9362 26.5719 37.2062 26.5719H38.4513C38.5113 26.5719 38.5612 26.5219 38.5612 26.4619V23.6669C38.5612 23.6069 38.5113 23.5569 38.4513 23.5569H37.2113C36.9413 23.5569 36.7262 23.3419 36.7262 23.0719C36.7262 22.8019 36.9413 22.5869 37.2113 22.5869H38.4513C39.0463 22.5869 39.5312 23.0719 39.5312 23.6669V26.4619C39.5312 27.0569 39.0463 27.5419 38.4513 27.5419ZM20.4812 27.5419H19.2362C18.6412 27.5419 18.1562 27.0569 18.1562 26.4619V23.6669C18.1562 23.0719 18.6412 22.5869 19.2362 22.5869H20.4812C20.7512 22.5869 20.9663 22.8019 20.9663 23.0719C20.9663 23.3419 20.7512 23.5569 20.4812 23.5569H19.2362C19.1762 23.5569 19.1263 23.6069 19.1263 23.6669V26.4619C19.1263 26.5219 19.1762 26.5719 19.2362 26.5719H20.4812C20.7512 26.5719 20.9663 26.7869 20.9663 27.0569C20.9663 27.3269 20.7512 27.5419 20.4812 27.5419ZM25.8763 32.5119C25.6063 32.5119 25.3913 32.2969 25.3913 32.0269V30.5069C25.3913 30.2369 25.6063 30.0219 25.8763 30.0219C26.1463 30.0219 26.3613 30.2369 26.3613 30.5069V32.0269C26.3613 32.2969 26.1463 32.5119 25.8763 32.5119ZM31.5913 32.5119C31.3213 32.5119 31.1062 32.2969 31.1062 32.0269V30.5069C31.1062 30.2369 31.3213 30.0219 31.5913 30.0219C31.8613 30.0219 32.0763 30.2369 32.0763 30.5069V32.0269C32.0763 32.2969 31.8563 32.5119 31.5913 32.5119Z" fill="url(#paint0_linear_12262_142061)"/>
<path d="M32.1333 30.9928H25.5483C23.9883 30.9928 22.5183 30.3928 21.4083 29.3078C20.2533 28.1878 19.6133 26.6778 19.6133 25.0578C19.6133 23.4728 20.2283 21.9878 21.3483 20.8678C22.4733 19.7478 23.9633 19.1328 25.5433 19.1328H32.1283C33.8433 19.1328 35.4733 19.8728 36.5983 21.1678C37.5433 22.2428 38.0633 23.6278 38.0633 25.0628C38.0633 26.6528 37.4433 28.1428 36.3183 29.2628C35.2083 30.3728 33.7183 30.9928 32.1333 30.9928ZM25.5483 20.0978C24.2233 20.0978 22.9783 20.6128 22.0333 21.5528C21.0983 22.4878 20.5833 23.7328 20.5833 25.0578C20.5833 26.4128 21.1183 27.6778 22.0833 28.6128C23.0133 29.5228 24.2433 30.0228 25.5483 30.0228H32.1333C33.4583 30.0228 34.7033 29.5078 35.6383 28.5678C36.5783 27.6328 37.0983 26.3828 37.0983 25.0578C37.0983 23.8578 36.6633 22.7028 35.8733 21.7978C34.9333 20.7178 33.5733 20.0978 32.1383 20.0978H25.5483Z" fill="url(#paint1_linear_12262_142061)"/>
<path d="M32.5505 27C32.1805 27 31.8055 26.885 31.4755 26.67C31.4605 26.66 31.4405 26.645 31.4255 26.635C30.9155 26.275 30.6155 25.685 30.6155 25.055C30.6155 23.99 31.4855 23.12 32.5505 23.12C33.0555 23.12 33.5405 23.32 33.9155 23.68C34.2905 24.055 34.4855 24.535 34.4855 25.055C34.4855 26.13 33.6155 27 32.5505 27ZM32.0255 25.875C32.1505 25.95 32.3305 26.03 32.5505 26.03C33.0855 26.03 33.5155 25.595 33.5155 25.055C33.5155 24.795 33.4205 24.56 33.2455 24.39C33.0455 24.195 32.7955 24.09 32.5455 24.09C32.0105 24.09 31.5805 24.525 31.5805 25.055C31.5805 25.375 31.7355 25.675 32.0005 25.855C32.0105 25.86 32.0155 25.87 32.0255 25.875ZM25.1355 27C24.7705 27 24.4055 26.89 24.0855 26.685C24.0705 26.675 24.0555 26.665 24.0405 26.655C23.5155 26.295 23.2005 25.695 23.2005 25.055C23.2005 23.99 24.0705 23.12 25.1355 23.12C25.6455 23.12 26.1455 23.325 26.5055 23.685C26.8755 24.055 27.0705 24.535 27.0705 25.055C27.0705 26.13 26.2005 27 25.1355 27ZM24.5655 25.84C24.5755 25.845 24.5855 25.855 24.6005 25.86C24.7655 25.97 24.9555 26.03 25.1355 26.03C25.6705 26.03 26.1005 25.595 26.1005 25.055C26.1005 24.795 26.0055 24.56 25.8305 24.39C25.6355 24.195 25.3855 24.09 25.1305 24.09C24.5955 24.09 24.1655 24.525 24.1655 25.055C24.1705 25.37 24.3155 25.66 24.5655 25.84ZM37.1705 41H20.5155C20.2455 41 20.0305 40.785 20.0305 40.515V33.14C20.0305 32.26 20.7505 31.54 21.6355 31.54H36.0505C36.5605 31.54 37.0255 31.77 37.3305 32.175C37.5405 32.44 37.6555 32.78 37.6555 33.14V40.515C37.6555 40.785 37.4355 41 37.1705 41ZM21.0005 40.03H36.6855V33.14C36.6855 33 36.6405 32.87 36.5605 32.765C36.4355 32.6 36.2505 32.51 36.0505 32.51H21.6355C21.2855 32.51 21.0005 32.795 21.0005 33.14V40.03ZM19.0005 19.085C18.8755 19.085 18.7505 19.035 18.6555 18.945L17.1355 17.42C16.9055 17.445 16.6655 17.46 16.4205 17.46C13.4905 17.46 11.1055 15.565 11.1055 13.23C11.1055 10.9 13.4905 9 16.4255 9C19.3605 9 21.7405 10.9 21.7405 13.23C21.7405 14.625 20.9055 15.9 19.4905 16.69V18.6C19.4905 18.795 19.3705 18.975 19.1905 19.05C19.1305 19.075 19.0655 19.085 19.0005 19.085ZM17.3105 16.425C17.4405 16.425 17.5605 16.475 17.6555 16.565L18.5155 17.43V16.395C18.5155 16.21 18.6205 16.04 18.7855 15.96C20.0255 15.355 20.7655 14.33 20.7655 13.23C20.7655 11.43 18.8155 9.97 16.4205 9.97C14.0255 9.97 12.0755 11.435 12.0755 13.23C12.0755 15.025 14.0255 16.49 16.4205 16.49C16.7055 16.49 16.9805 16.47 17.2355 16.43C17.2605 16.425 17.2855 16.425 17.3105 16.425Z" fill="url(#paint2_linear_12262_142061)"/>
<path d="M38.1255 20.5791C37.1505 20.5791 36.3555 19.7841 36.3555 18.8091C36.3555 17.8341 37.1505 17.0391 38.1255 17.0391C39.1005 17.0391 39.8955 17.8341 39.8955 18.8091C39.8955 19.7841 39.1005 20.5791 38.1255 20.5791ZM38.1255 18.0091C37.6855 18.0091 37.3255 18.3691 37.3255 18.8091C37.3255 19.2491 37.6855 19.6091 38.1255 19.6091C38.5655 19.6091 38.9255 19.2491 38.9255 18.8091C38.9255 18.3691 38.5655 18.0091 38.1255 18.0091Z" fill="url(#paint3_linear_12262_142061)"/>
<path d="M38.1256 23.5494C37.8556 23.5494 37.6406 23.3344 37.6406 23.0644V20.0944C37.6406 19.8244 37.8556 19.6094 38.1256 19.6094C38.3956 19.6094 38.6106 19.8244 38.6106 20.0944V23.0644C38.6106 23.3344 38.3906 23.5494 38.1256 23.5494Z" fill="url(#paint4_linear_12262_142061)"/>
<path d="M26.8906 35.2122H23.0006C22.7306 35.2122 22.5156 34.9972 22.5156 34.7272C22.5156 34.4572 22.7306 34.2422 23.0006 34.2422H26.8906C27.1606 34.2422 27.3756 34.4572 27.3756 34.7272C27.3756 34.9972 27.1556 35.2122 26.8906 35.2122Z" fill="url(#paint5_linear_12262_142061)"/>
<path d="M26.8906 37.4153H23.0006C22.7306 37.4153 22.5156 37.2003 22.5156 36.9303C22.5156 36.6603 22.7306 36.4453 23.0006 36.4453H26.8906C27.1606 36.4453 27.3756 36.6603 27.3756 36.9303C27.3756 37.2003 27.1556 37.4153 26.8906 37.4153Z" fill="url(#paint6_linear_12262_142061)"/>
<defs>
<linearGradient id="paint0_linear_12262_142061" x1="18.1562" y1="29.2471" x2="36.1535" y2="17.3227" gradientUnits="userSpaceOnUse">
<stop stop-color="#0575E6"/>
<stop offset="1" stop-color="#021B79"/>
</linearGradient>
<linearGradient id="paint1_linear_12262_142061" x1="19.6133" y1="28.3836" x2="34.3969" y2="17.8045" gradientUnits="userSpaceOnUse">
<stop stop-color="#0575E6"/>
<stop offset="1" stop-color="#021B79"/>
</linearGradient>
<linearGradient id="paint2_linear_12262_142061" x1="11.1055" y1="33.96" x2="39.1836" y2="23.2438" gradientUnits="userSpaceOnUse">
<stop stop-color="#0575E6"/>
<stop offset="1" stop-color="#021B79"/>
</linearGradient>
<linearGradient id="paint3_linear_12262_142061" x1="36.3555" y1="19.8003" x2="39.8955" y2="18.1719" gradientUnits="userSpaceOnUse">
<stop stop-color="#0575E6"/>
<stop offset="1" stop-color="#021B79"/>
</linearGradient>
<linearGradient id="paint4_linear_12262_142061" x1="37.6406" y1="22.6826" x2="38.801" y2="22.5512" gradientUnits="userSpaceOnUse">
<stop stop-color="#0575E6"/>
<stop offset="1" stop-color="#021B79"/>
</linearGradient>
<linearGradient id="paint5_linear_12262_142061" x1="22.5156" y1="34.9988" x2="23.4485" y2="32.8487" gradientUnits="userSpaceOnUse">
<stop stop-color="#0575E6"/>
<stop offset="1" stop-color="#021B79"/>
</linearGradient>
<linearGradient id="paint6_linear_12262_142061" x1="22.5156" y1="37.2019" x2="23.4485" y2="35.0518" gradientUnits="userSpaceOnUse">
<stop stop-color="#0575E6"/>
<stop offset="1" stop-color="#021B79"/>
</linearGradient>
</defs>
</svg>
