<svg width="51" height="50" viewBox="0 0 51 50" fill="none" xmlns="http://www.w3.org/2000/svg">
<rect x="0.5" width="50" height="50" rx="25" fill="#DBE9FE"/>
<path d="M28.5815 23.6989C27.9897 23.5521 27.3983 23.4486 26.8088 23.3853C27.7018 22.7912 28.312 21.6106 28.312 20.2535C28.312 18.4602 27.234 17.3461 25.4986 17.3461C23.7632 17.3461 22.6852 18.4602 22.6852 20.2535C22.6852 21.6074 23.2925 22.7858 24.1821 23.3812C23.5875 23.4442 22.9967 23.5495 22.4115 23.7C20.7647 24.1234 19.8577 25.0345 19.8577 26.2655V30.1991C19.8577 30.8808 20.4124 31.4355 21.0942 31.4355H29.903C30.5847 31.4355 31.1394 30.8808 31.1394 30.1991V26.2655C31.1395 25.0376 30.2072 24.1021 28.5815 23.6989ZM23.6852 20.2534C23.6852 18.5939 24.8214 18.3461 25.4987 18.3461C26.1759 18.3461 27.3121 18.5939 27.3121 20.2534C27.3121 21.6543 26.4986 22.7939 25.4987 22.7939C24.4987 22.7939 23.6852 21.6543 23.6852 20.2534ZM30.1395 30.199C30.1395 30.3294 30.0335 30.4354 29.9031 30.4354H28.8034V27.339C28.8034 27.0629 28.5795 26.839 28.3034 26.839C28.0273 26.839 27.8034 27.0629 27.8034 27.339V30.4354H23.1938V27.339C23.1938 27.0629 22.97 26.839 22.6938 26.839C22.4177 26.839 22.1938 27.0629 22.1938 27.339V30.4354H21.0942C20.9638 30.4354 20.8578 30.3294 20.8578 30.199V26.2654C20.8578 25.3286 21.8382 24.8799 22.6607 24.6684C23.5847 24.4309 24.524 24.3121 25.4722 24.3121C26.4218 24.3121 27.3802 24.4312 28.3408 24.6695C29.0125 24.8361 30.1395 25.265 30.1395 26.2654L30.1395 30.199ZM37.4455 28.8725V21.1276C38.7417 20.8913 39.7278 19.7546 39.7278 18.3912C39.7278 16.8571 38.4797 15.6089 36.9455 15.6089C36.0976 15.6089 35.3376 15.9906 34.8269 16.5907L28.1187 12.7176C28.2235 12.4251 28.281 12.1103 28.281 11.7822C28.281 10.2481 27.0328 9 25.4987 9C23.9645 9 22.7163 10.2481 22.7163 11.7823C22.7163 12.1104 22.7738 12.4252 22.8785 12.7176L16.1704 16.5906C15.6597 15.9906 14.8997 15.6089 14.0518 15.6089C12.5177 15.6089 11.2695 16.857 11.2695 18.3911C11.2695 19.7545 12.2556 20.8912 13.5518 21.1275V28.8725C12.2556 29.1088 11.2695 30.2455 11.2695 31.6089C11.2695 33.1431 12.5177 34.3912 14.0518 34.3912C14.8997 34.3912 15.6597 34.0095 16.1704 33.4094L22.8786 37.2824C22.7738 37.5749 22.7164 37.8897 22.7164 38.2178C22.7163 39.7519 23.9645 41 25.4987 41C27.0328 41 28.281 39.7519 28.281 38.2177C28.281 37.8896 28.2235 37.5748 28.1187 37.2823L34.8269 33.4093C35.3377 34.0094 36.0977 34.3911 36.9455 34.3911C38.4797 34.3911 39.7278 33.1429 39.7278 31.6087C39.7278 30.2454 38.7417 29.1087 37.4455 28.8725ZM36.9455 16.6089C37.9283 16.6089 38.7278 17.4084 38.7278 18.3911C38.7278 19.3739 37.9283 20.1734 36.9455 20.1734C35.9627 20.1734 35.1632 19.3739 35.1632 18.3911C35.1633 17.4084 35.9628 16.6089 36.9455 16.6089ZM25.4987 10C26.4814 10 27.281 10.7995 27.281 11.7823C27.281 12.7651 26.4814 13.5646 25.4987 13.5646C24.5159 13.5646 23.7163 12.7651 23.7163 11.7823C23.7163 10.7995 24.5159 10 25.4987 10ZM12.2695 18.3911C12.2695 17.4084 13.069 16.6089 14.0518 16.6089C15.0346 16.6089 15.8341 17.4084 15.8341 18.3911C15.8341 19.3739 15.0346 20.1734 14.0518 20.1734C13.069 20.1734 12.2695 19.3739 12.2695 18.3911ZM14.0518 33.3911C13.069 33.3911 12.2695 32.5916 12.2695 31.6088C12.2695 30.6261 13.069 29.8266 14.0518 29.8266C15.0346 29.8266 15.8341 30.6261 15.8341 31.6088C15.834 32.5916 15.0345 33.3911 14.0518 33.3911ZM25.4987 40C24.5159 40 23.7163 39.2005 23.7163 38.2177C23.7163 37.2349 24.5159 36.4354 25.4987 36.4354C26.4814 36.4354 27.281 37.2349 27.281 38.2177C27.281 39.2005 26.4814 40 25.4987 40ZM27.6173 36.4172C27.1065 35.8171 26.3465 35.4354 25.4987 35.4354C24.6507 35.4354 23.8907 35.8171 23.38 36.4172L16.6718 32.5443C16.7765 32.2518 16.834 31.9369 16.834 31.6088C16.834 30.2454 15.848 29.1088 14.5518 28.8725V21.1276C15.848 20.8913 16.834 19.7546 16.834 18.3912C16.834 18.0631 16.7765 17.7483 16.6718 17.4559L23.38 13.5829C23.8908 14.1829 24.6508 14.5646 25.4987 14.5646C26.3465 14.5646 27.1065 14.1829 27.6173 13.5829L34.3255 17.4559C34.2208 17.7484 34.1633 18.0632 34.1633 18.3912C34.1633 19.7546 35.1493 20.8913 36.4456 21.1276V28.8725C35.1494 29.1088 34.1633 30.2455 34.1633 31.6088C34.1633 31.9369 34.2208 32.2517 34.3255 32.5442L27.6173 36.4172ZM36.9455 33.3911C35.9627 33.3911 35.1632 32.5916 35.1632 31.6088C35.1632 30.6261 35.9627 29.8266 36.9455 29.8266C37.9283 29.8266 38.7278 30.6261 38.7278 31.6088C38.7278 32.5916 37.9283 33.3911 36.9455 33.3911Z" fill="url(#paint0_linear_12262_141903)"/>
<defs>
<linearGradient id="paint0_linear_12262_141903" x1="11.2695" y1="33.96" x2="40.8065" y2="21.8768" gradientUnits="userSpaceOnUse">
<stop stop-color="#0575E6"/>
<stop offset="1" stop-color="#021B79"/>
</linearGradient>
</defs>
</svg>
