<svg width="51" height="50" viewBox="0 0 51 50" fill="none" xmlns="http://www.w3.org/2000/svg">
<rect x="0.5" width="50" height="50" rx="25" fill="#DBE9FE"/>
<path d="M20.752 29.1956C21.1387 29.5823 21.652 29.7823 22.1654 29.7823C22.6787 29.7823 23.192 29.589 23.5787 29.1956L23.692 29.0823C24.4454 28.329 24.4654 27.129 23.7654 26.3423L25.4987 24.609L36.0854 35.1956C36.472 35.5823 36.9854 35.7823 37.4987 35.7823C38.012 35.7823 38.5254 35.589 38.912 35.1956L39.0254 35.0823C39.8054 34.3023 39.8054 33.0356 39.0254 32.2556L28.4387 21.669L30.172 19.9356C30.552 20.2756 31.0187 20.449 31.4987 20.449C32.012 20.449 32.5254 20.2556 32.912 19.8623L33.0254 19.749C33.8054 18.969 33.8054 17.7023 33.0254 16.9223L27.5787 11.4756C26.7987 10.6956 25.532 10.6956 24.752 11.4756L24.6387 11.589C23.8854 12.3423 23.8654 13.5423 24.5654 14.329L18.1587 20.7356C17.372 20.0356 16.172 20.0556 15.4187 20.809L15.3054 20.9223C14.5254 21.7023 14.5254 22.969 15.3054 23.749L20.752 29.1956ZM38.0854 33.1956C38.3454 33.4556 38.3454 33.8756 38.0854 34.1356L37.972 34.249C37.712 34.509 37.292 34.509 37.032 34.249L26.4387 23.669L27.4987 22.609L38.0854 33.1956ZM27.0254 21.1956L26.4987 21.7223L22.772 17.9956L25.4987 15.2756L29.2254 19.0023L27.0254 21.1956ZM25.5787 12.529L25.692 12.4156C25.8187 12.289 25.992 12.2223 26.1654 12.2223C26.3387 12.2223 26.5054 12.289 26.6387 12.4156L32.0854 17.8623C32.3454 18.1223 32.3454 18.5423 32.0854 18.8023L31.972 18.9156C31.712 19.1756 31.292 19.1756 31.032 18.9156L30.6387 18.5223L25.972 13.8556L25.5787 13.4623C25.3187 13.2156 25.3187 12.789 25.5787 12.529ZM21.832 18.9423L25.5587 22.669L25.032 23.1956L22.832 25.3956L19.1054 21.669L21.832 18.9423ZM16.2454 21.8623L16.3587 21.749C16.4854 21.6223 16.6587 21.5556 16.832 21.5556C17.0054 21.5556 17.172 21.6223 17.3054 21.749L17.6987 22.1423L22.3654 26.809L22.7587 27.2023C23.0187 27.4623 23.0187 27.8823 22.7587 28.1423L22.6454 28.2556C22.3854 28.5156 21.9654 28.5156 21.7054 28.2556L16.2587 22.809C15.9854 22.549 15.9854 22.1223 16.2454 21.8623ZM11.4987 39.669H27.4987C27.8654 39.669 28.1654 39.369 28.1654 39.0023V36.3356C28.1654 35.969 27.8654 35.669 27.4987 35.669H26.7654C26.4587 34.149 25.112 33.0023 23.4987 33.0023H15.4987C13.892 33.0023 12.5454 34.149 12.232 35.669H11.4987C11.132 35.669 10.832 35.969 10.832 36.3356V39.0023C10.832 39.369 11.132 39.669 11.4987 39.669ZM15.4987 34.3356H23.4987C24.3654 34.3356 25.112 34.8956 25.3854 35.669H13.612C13.8854 34.8956 14.632 34.3356 15.4987 34.3356ZM12.1654 37.0023H12.832H26.1654H26.832V38.3356H12.1654V37.0023Z" fill="url(#paint0_linear_12262_141942)"/>
<defs>
<linearGradient id="paint0_linear_12262_141942" x1="10.832" y1="33.3377" x2="39.6104" y2="20.0997" gradientUnits="userSpaceOnUse">
<stop stop-color="#0575E6"/>
<stop offset="1" stop-color="#021B79"/>
</linearGradient>
</defs>
</svg>
