<svg width="51" height="50" viewBox="0 0 51 50" fill="none" xmlns="http://www.w3.org/2000/svg">
<rect x="0.5" width="50" height="50" rx="25" fill="#DBE9FE"/>
<path d="M29.4096 11.2582C22.2475 9.63819 15.0284 15.4263 15.0671 22.7916L12.2521 27.2954C12.14 27.4798 12.0788 27.6906 12.0745 27.9063C12.0702 28.122 12.123 28.3351 12.2276 28.5238C12.3321 28.7125 12.4848 28.8702 12.67 28.981C12.8552 29.0917 13.0664 29.1515 13.2821 29.1543L15.0663 29.1543V33.4985C15.0671 34.1996 15.3459 34.8717 15.8416 35.3675C16.3373 35.8633 17.0095 36.1422 17.7106 36.143H19.14C19.5759 36.1435 19.9939 36.3168 20.3021 36.625C20.6104 36.9332 20.7838 37.3512 20.7843 37.7871V38.5019C20.787 38.6328 20.8408 38.7573 20.9343 38.8489C21.0278 38.9405 21.1534 38.9918 21.2843 38.9918C21.4152 38.9918 21.5408 38.9405 21.6343 38.8489C21.7278 38.7573 21.7816 38.6327 21.7843 38.5019V37.7871C21.7835 37.0861 21.5046 36.414 21.0089 35.9183C20.5131 35.4226 19.841 35.1438 19.14 35.143H17.7106C17.2746 35.1425 16.8566 34.9691 16.5484 34.6608C16.2401 34.3525 16.0667 33.9345 16.0663 33.4985V28.6543C16.0663 28.5886 16.0534 28.5236 16.0282 28.4629C16.0031 28.4022 15.9663 28.3471 15.9199 28.3007C15.8734 28.2543 15.8183 28.2174 15.7576 28.1923C15.697 28.1672 15.6319 28.1543 15.5663 28.1543H13.2821C13.2437 28.1542 13.2061 28.144 13.1731 28.1245C13.1401 28.105 13.1129 28.0771 13.0944 28.0435C13.0758 28.01 13.0665 27.9721 13.0676 27.9338C13.0686 27.8955 13.0798 27.8582 13.1002 27.8257L15.9903 23.2012C16.1083 17.6055 19.8804 12.8712 25.5309 12.1097L25.5308 19.5106C24.942 19.6007 24.4049 19.8983 24.0162 20.3497C23.6276 20.8011 23.4131 21.3765 23.4114 21.9721V26.4419C23.4122 27.1047 23.6759 27.7401 24.1445 28.2088C24.6132 28.6774 25.2486 28.9411 25.9114 28.9419H27.1192V30.0312C27.1188 30.4601 26.9482 30.8713 26.6449 31.1746C26.3416 31.4779 25.9304 31.6485 25.5016 31.6489H20.2074C20.0761 31.651 19.9509 31.7045 19.8588 31.7981C19.7667 31.8916 19.7151 32.0177 19.7151 32.1489C19.7151 32.2802 19.7667 32.4062 19.8588 32.4998C19.9509 32.5933 20.0761 32.6469 20.2074 32.6489H25.5016C26.1956 32.6481 26.8609 32.3721 27.3516 31.8814C27.8424 31.3906 28.1184 30.7253 28.1192 30.0313V28.9419H29.3265C29.6915 28.9355 30.051 28.8514 30.381 28.6953C30.711 28.5392 31.004 28.3147 31.2405 28.0366C31.477 27.7584 31.6516 27.4332 31.7526 27.0823C31.8536 26.7315 31.8788 26.3632 31.8264 26.0019C31.824 25.8709 31.7703 25.7461 31.6768 25.6543C31.5833 25.5625 31.4575 25.5111 31.3264 25.5111C31.1954 25.5111 31.0696 25.5626 30.9761 25.6544C30.8826 25.7462 30.8289 25.871 30.8265 26.002V26.4419C30.8261 26.8396 30.6679 27.2209 30.3867 27.5021C30.1055 27.7833 29.7242 27.9415 29.3265 27.9419H25.9115C25.5138 27.9415 25.1325 27.7833 24.8513 27.5021C24.5701 27.2209 24.4119 26.8396 24.4115 26.4419V21.9721C24.4126 21.765 24.4563 21.5604 24.5398 21.3708C24.6233 21.1813 24.7449 21.0109 24.8969 20.8703C25.049 20.7296 25.2283 20.6217 25.4238 20.5532C25.6192 20.4848 25.8267 20.4572 26.0333 20.4721H29.205C29.4115 20.4572 29.6189 20.4848 29.8144 20.5533C30.0098 20.6218 30.1891 20.7297 30.3411 20.8704C30.4932 21.011 30.6147 21.1814 30.6982 21.3709C30.7817 21.5604 30.8253 21.7651 30.8265 21.9721V23.5019C30.8284 23.6333 30.882 23.7585 30.9755 23.8507C31.0691 23.9429 31.1952 23.9946 31.3265 23.9946C31.4578 23.9946 31.5839 23.9429 31.6775 23.8507C31.771 23.7585 31.8246 23.6333 31.8265 23.5019V21.9721C31.8249 21.3766 31.6104 20.8012 31.2218 20.3498C30.8332 19.8984 30.2961 19.6008 29.7074 19.5106V12.3475C38.4915 14.5997 40.9158 26.181 33.561 31.6816C33.139 32.0084 32.7984 32.4285 32.5659 32.9089C32.3333 33.3893 32.2151 33.917 32.2205 34.4506V38.5019C32.2205 38.6345 32.2732 38.7617 32.367 38.8555C32.4608 38.9493 32.5879 39.0019 32.7205 39.0019C32.8532 39.0019 32.9803 38.9493 33.0741 38.8555C33.1679 38.7617 33.2205 38.6345 33.2205 38.5019V34.4507C33.2149 34.0721 33.2968 33.6974 33.46 33.3558C33.6232 33.0141 33.8632 32.7149 34.1612 32.4814C42.3878 26.316 39.3664 13.3297 29.4096 11.2582ZM28.7074 19.4721H26.5309V12.0184C27.2586 11.9802 27.9884 12.021 28.7074 12.1402V19.4721Z" fill="url(#paint0_linear_12262_141938)"/>
<defs>
<linearGradient id="paint0_linear_12262_141938" x1="12.0742" y1="32.8381" x2="39.3031" y2="20.8408" gradientUnits="userSpaceOnUse">
<stop stop-color="#0575E6"/>
<stop offset="1" stop-color="#021B79"/>
</linearGradient>
</defs>
</svg>
