<svg width="51" height="50" viewBox="0 0 51 50" fill="none" xmlns="http://www.w3.org/2000/svg">
<rect x="0.5" width="50" height="50" rx="25" fill="#DBE9FE"/>
<path d="M25.5 29.5C23.8455 29.5 22.5 30.8455 22.5 32.5C22.5002 33.239 22.7746 33.9516 23.27 34.5H22.5C21.1215 34.5 20 35.6215 20 37V40.5H21V37C21 36.173 21.673 35.5 22.5 35.5H28.5C29.327 35.5 30 36.173 30 37V40.5H31V37C31 35.6215 29.8785 34.5 28.5 34.5H27.73C28.2254 33.9516 28.4998 33.239 28.5 32.5C28.5 30.8455 27.1545 29.5 25.5 29.5ZM23.5 32.5C23.5 31.397 24.397 30.5 25.5 30.5C26.603 30.5 27.5 31.397 27.5 32.5C27.5 33.603 26.603 34.5 25.5 34.5C24.397 34.5 23.5 33.603 23.5 32.5Z" fill="url(#paint0_linear_12262_142081)"/>
<path d="M28 37.5H29V40.5H28V37.5ZM22 37.5H23V40.5H22V37.5ZM30 14C30 11.519 27.9815 9.5 25.5 9.5C23.0185 9.5 21 11.519 21 14C21 16.481 23.0185 18.5 25.5 18.5C27.9815 18.5 30 16.481 30 14ZM22 14C22 12.07 23.5705 10.5 25.5 10.5C27.4295 10.5 29 12.07 29 14C29.0002 14.6818 28.8001 15.3486 28.4245 15.9175C28.3364 15.5535 28.1676 15.214 27.9306 14.924C27.6937 14.634 27.3946 14.4009 27.0555 14.242C27.3411 13.8909 27.4979 13.4526 27.5 13C27.5 11.897 26.603 11 25.5 11C24.397 11 23.5 11.897 23.5 13C23.5 13.4715 23.671 13.8995 23.9445 14.242C23.6053 14.4008 23.3062 14.6339 23.0693 14.9239C22.8323 15.2139 22.6636 15.5535 22.5755 15.9175C22.1999 15.3485 21.9998 14.6817 22 14ZM24.5 13C24.5 12.4485 24.9485 12 25.5 12C26.0515 12 26.5 12.4485 26.5 13C26.5 13.5515 26.0515 14 25.5 14C24.9485 14 24.5 13.5515 24.5 13ZM23.5 16.868V16.5C23.5 15.673 24.173 15 25 15H26C26.827 15 27.5 15.673 27.5 16.5V16.868C26.9143 17.2797 26.2159 17.5006 25.5 17.5006C24.7841 17.5006 24.0857 17.2797 23.5 16.868ZM36.5 20.5C34.0185 20.5 32 22.519 32 25C32 27.481 34.0185 29.5 36.5 29.5C38.9815 29.5 41 27.481 41 25C41 22.519 38.9815 20.5 36.5 20.5ZM34.5 27.868V27.5C34.5 26.673 35.173 26 36 26H37C37.827 26 38.5 26.673 38.5 27.5V27.868C37.9143 28.2797 37.2159 28.5006 36.5 28.5006C35.7841 28.5006 35.0857 28.2797 34.5 27.868ZM36.5 25C35.9485 25 35.5 24.5515 35.5 24C35.5 23.4485 35.9485 23 36.5 23C37.0515 23 37.5 23.4485 37.5 24C37.5 24.5515 37.0515 25 36.5 25ZM39.4245 26.9175C39.3364 26.5535 39.1676 26.214 38.9306 25.924C38.6937 25.634 38.3946 25.4009 38.0555 25.242C38.3411 24.8909 38.4979 24.4526 38.5 24C38.5 22.897 37.603 22 36.5 22C35.397 22 34.5 22.897 34.5 24C34.5 24.4715 34.671 24.8995 34.9445 25.242C34.6053 25.4008 34.3062 25.6339 34.0693 25.9239C33.8323 26.2139 33.6636 26.5535 33.5755 26.9175C33.1999 26.3485 32.9998 25.6817 33 25C33 23.07 34.5705 21.5 36.5 21.5C38.4295 21.5 40 23.07 40 25C40.0002 25.6818 39.8001 26.3486 39.4245 26.9175ZM14.5 29.5C16.9815 29.5 19 27.481 19 25C19 22.519 16.9815 20.5 14.5 20.5C12.0185 20.5 10 22.519 10 25C10 27.481 12.0185 29.5 14.5 29.5ZM12.5 27.868V27.5C12.5 26.673 13.173 26 14 26H15C15.827 26 16.5 26.673 16.5 27.5V27.868C15.9143 28.2797 15.2159 28.5006 14.5 28.5006C13.7841 28.5006 13.0857 28.2797 12.5 27.868ZM14.5 25C13.9485 25 13.5 24.5515 13.5 24C13.5 23.4485 13.9485 23 14.5 23C15.0515 23 15.5 23.4485 15.5 24C15.5 24.5515 15.0515 25 14.5 25ZM14.5 21.5C16.4295 21.5 18 23.07 18 25C18.0002 25.6818 17.8001 26.3486 17.4245 26.9175C17.3364 26.5535 17.1676 26.214 16.9306 25.924C16.6937 25.634 16.3946 25.4009 16.0555 25.242C16.3411 24.8909 16.4979 24.4526 16.5 24C16.5 22.897 15.603 22 14.5 22C13.397 22 12.5 22.897 12.5 24C12.5 24.4715 12.671 24.8995 12.9445 25.242C12.6053 25.4008 12.3062 25.6339 12.0693 25.9239C11.8323 26.2139 11.6636 26.5535 11.5755 26.9175C11.1999 26.3485 10.9998 25.6817 11 25C11 23.07 12.5705 21.5 14.5 21.5ZM28.6465 19.3535L29.3535 18.6465L32.3535 21.6465L31.6465 22.3535L28.6465 19.3535ZM18.6465 21.6465L21.6465 18.6465L22.3535 19.3535L19.3535 22.3535L18.6465 21.6465ZM18.6465 27.8535L19.3535 27.1465L22.3535 30.1465L21.6465 30.8535L18.6465 27.8535ZM28.6465 30.1465L31.6465 27.1465L32.3535 27.8535L29.3535 30.8535L28.6465 30.1465Z" fill="url(#paint1_linear_12262_142081)"/>
<defs>
<linearGradient id="paint0_linear_12262_142081" x1="20" y1="38.08" x2="31" y2="33.02" gradientUnits="userSpaceOnUse">
<stop stop-color="#0575E6"/>
<stop offset="1" stop-color="#021B79"/>
</linearGradient>
<linearGradient id="paint1_linear_12262_142081" x1="10" y1="33.68" x2="41" y2="19.42" gradientUnits="userSpaceOnUse">
<stop stop-color="#0575E6"/>
<stop offset="1" stop-color="#021B79"/>
</linearGradient>
</defs>
</svg>
