<svg width="51" height="50" viewBox="0 0 51 50" fill="none" xmlns="http://www.w3.org/2000/svg">
<rect x="0.5" width="50" height="50" rx="25" fill="#DBE9FE"/>
<path d="M34.0374 11.6797H16.9615C16.6787 11.6797 16.4492 11.9091 16.4492 12.192V37.8083C16.4492 38.0912 16.6787 38.3206 16.9615 38.3206H29.9721C29.9763 38.3206 29.9804 38.3197 29.9843 38.3194C30.0137 38.3187 30.0431 38.3165 30.0719 38.3107C30.0828 38.3085 30.0927 38.3043 30.1033 38.3014C30.1251 38.2957 30.1468 38.2902 30.1676 38.2816C30.1759 38.2781 30.1839 38.2726 30.1923 38.2688C30.214 38.2582 30.2358 38.248 30.2563 38.2346C30.2841 38.216 30.3103 38.1949 30.3347 38.1706L34.3999 34.1027C34.4297 34.073 34.4537 34.0394 34.4748 34.0045C34.4809 33.9942 34.4863 33.9834 34.4918 33.9728C34.5059 33.9453 34.5174 33.9165 34.526 33.887C34.5292 33.8765 34.5331 33.8666 34.5356 33.856C34.5443 33.8186 34.55 33.7802 34.55 33.7408V12.192C34.5497 11.9091 34.3203 11.6797 34.0374 11.6797ZM33.5251 33.1104L30.9193 32.5677C30.783 32.5389 30.6422 32.5674 30.5276 32.6448C30.4127 32.7226 30.3347 32.8429 30.3103 32.9792L29.5427 37.2957H17.4739V12.7043H33.5251V33.1104ZM32.1507 34.9037L30.7615 36.2934L31.2268 33.6787L33.0051 34.049L32.1507 34.9037ZM20.4844 24.8723C20.4844 24.5894 20.7139 24.36 20.9967 24.36H31.3993C31.6822 24.36 31.9116 24.5894 31.9116 24.8723C31.9116 25.1552 31.6822 25.3846 31.3993 25.3846H20.9967C20.7139 25.3846 20.4844 25.1552 20.4844 24.8723ZM19.0873 26.8256C19.0873 26.5427 19.3167 26.313 19.5996 26.313H28.6047C28.8876 26.313 29.1171 26.5424 29.1171 26.8256C29.1171 27.1085 28.8876 27.3379 28.6047 27.3379H19.5996C19.3167 27.3379 19.0873 27.1085 19.0873 26.8256ZM31.9116 28.7786C31.9116 29.0614 31.6822 29.2909 31.3993 29.2909H20.9967C20.7139 29.2909 20.4844 29.0614 20.4844 28.7786C20.4844 28.4957 20.7139 28.2662 20.9967 28.2662H31.3993C31.6822 28.2662 31.9116 28.496 31.9116 28.7786ZM19.0873 30.7318C19.0873 30.449 19.3167 30.2195 19.5996 30.2195H31.3993C31.6822 30.2195 31.9116 30.449 31.9116 30.7318C31.9116 31.0147 31.6822 31.2442 31.3993 31.2442H19.5996C19.3167 31.2442 19.0873 31.015 19.0873 30.7318ZM19.0873 32.6851C19.0873 32.4022 19.3167 32.1731 19.5996 32.1731H27.2073C27.4902 32.1731 27.7196 32.4026 27.7196 32.6851C27.7196 32.968 27.4902 33.1974 27.2073 33.1974H19.5996C19.3167 33.1974 19.0873 32.9683 19.0873 32.6851ZM22.3609 21.2435C23.3091 21.2435 24.0806 20.472 24.0806 19.5238V19.2826C24.0806 19.273 24.0783 19.2643 24.0777 19.2547C24.0771 19.24 24.0755 19.2256 24.0732 19.2112C24.07 19.1866 24.0646 19.1622 24.0575 19.1382C24.055 19.1302 24.055 19.1216 24.0521 19.1139L23.0697 16.2982C23.1817 16.2698 23.2895 16.2256 23.3881 16.1635L23.862 15.864C23.8751 15.8557 23.8905 15.8515 23.9059 15.8515H24.1148C24.2643 16.2544 24.5843 16.5741 24.9871 16.7235V20.3498H24.9513C24.8153 20.3498 24.6851 20.4038 24.5891 20.4998L23.9401 21.1488C23.8441 21.2448 23.79 21.3754 23.79 21.511V22.3107C23.79 22.5936 24.0195 22.823 24.3023 22.823H26.7171C26.9999 22.823 27.2294 22.5936 27.2294 22.3107V21.511C27.2294 21.375 27.1753 21.2448 27.0793 21.1488L26.4303 20.4998C26.3343 20.4038 26.2041 20.3498 26.0681 20.3498H26.0121V16.7235C26.415 16.5741 26.735 16.2544 26.8844 15.8515H27.0934C27.1087 15.8515 27.1238 15.8557 27.1369 15.864L27.6105 16.1629C27.7094 16.2256 27.8172 16.2698 27.9295 16.2982L26.9471 19.1139C26.9443 19.1219 26.9443 19.1302 26.9417 19.1382C26.9347 19.1622 26.9292 19.1869 26.9257 19.2115C26.9235 19.2256 26.9219 19.24 26.9212 19.2547C26.9206 19.264 26.9183 19.273 26.9183 19.2826V19.5238C26.9183 20.472 27.6899 21.2435 28.638 21.2435C29.5862 21.2435 30.3577 20.472 30.3577 19.5238V19.2826C30.3577 19.273 30.3555 19.2643 30.3548 19.2547C30.3539 19.24 30.3523 19.2256 30.3503 19.2112C30.3468 19.1866 30.3414 19.1622 30.3343 19.1382C30.3321 19.1302 30.3318 19.1216 30.3289 19.1139L29.3577 16.3299C29.663 16.3082 29.9391 16.1466 30.1049 15.8851L30.2771 15.6141C30.4291 15.375 30.3583 15.0586 30.1196 14.9069C29.8806 14.7549 29.5641 14.8253 29.4124 15.0643L29.2563 15.3098H28.6374H28.2009C28.1855 15.3098 28.1708 15.3056 28.1574 15.297L27.6828 14.9978C27.5059 14.8861 27.3017 14.8269 27.0927 14.8269H26.8838C26.7343 14.424 26.4143 14.1043 26.0115 13.9546V13.7296C26.0115 13.4467 25.782 13.2173 25.4991 13.2173C25.2163 13.2173 24.9868 13.4467 24.9868 13.7296V13.9546C24.5839 14.104 24.2643 14.424 24.1145 14.8269H23.9055C23.6966 14.8269 23.4924 14.8861 23.3151 14.9978L22.8403 15.2976C22.8275 15.3056 22.8127 15.3098 22.7974 15.3098H22.3609H21.742L21.5859 15.0643C21.4339 14.8256 21.1174 14.7549 20.8787 14.9069C20.6399 15.0586 20.5695 15.375 20.7212 15.6141L20.8934 15.8851C21.0595 16.1466 21.3353 16.3082 21.6406 16.3299L20.6694 19.1139C20.6665 19.1219 20.6665 19.1302 20.6639 19.1382C20.6569 19.1622 20.6511 19.1869 20.6479 19.2115C20.6457 19.2256 20.6444 19.24 20.6435 19.2547C20.6428 19.264 20.6406 19.273 20.6406 19.2826V19.5238C20.6409 20.4717 21.4127 21.2435 22.3609 21.2435ZM26.2044 21.7229V21.7981H24.8147V21.7229L25.1635 21.3741H25.8559L26.2044 21.7229ZM29.1241 18.7702H28.1523L28.6383 17.3773L29.1241 18.7702ZM28.638 20.2189C28.351 20.2189 28.1039 20.0438 27.998 19.7949H29.278C29.1724 20.0435 28.9254 20.2189 28.638 20.2189ZM25.0457 15.3389C25.0457 15.0886 25.2492 14.8854 25.4991 14.8854C25.7494 14.8854 25.9526 15.0886 25.9526 15.3389C25.9526 15.5888 25.7494 15.7923 25.4991 15.7923C25.2492 15.7923 25.0457 15.5888 25.0457 15.3389ZM22.3609 20.2189C22.0735 20.2189 21.8268 20.0438 21.7209 19.7949H23.0006C22.8947 20.0435 22.6479 20.2189 22.3609 20.2189ZM22.3609 17.3773L22.8467 18.7702H21.8745L22.3609 17.3773Z" fill="url(#paint0_linear_12262_141988)"/>
<defs>
<linearGradient id="paint0_linear_12262_141988" x1="16.4492" y1="32.4596" x2="36.4285" y2="26.2153" gradientUnits="userSpaceOnUse">
<stop stop-color="#0575E6"/>
<stop offset="1" stop-color="#021B79"/>
</linearGradient>
</defs>
</svg>
