<svg width="51" height="50" viewBox="0 0 51 50" fill="none" xmlns="http://www.w3.org/2000/svg">
<rect x="0.5" width="50" height="50" rx="25" fill="#DBE9FE"/>
<path d="M19.3416 33.8032L17.7448 33.3488C17.7256 33.3424 17.7032 33.3392 17.6808 33.3328C17.1304 33.2336 16.7304 32.7568 16.7304 32.2V28.5712C16.7304 28.2672 16.516 28.0048 16.2216 27.944L14.6536 27.6176C14.5896 27.6048 14.5576 27.56 14.5416 27.528C14.5256 27.496 14.516 27.4416 14.548 27.384C17.124 22.952 17.2584 22.488 17.3032 22.3376C17.4504 21.8352 17.3096 21.224 17.1592 20.5776C17.076 20.2192 16.964 19.7328 16.9992 19.544C16.9992 19.5408 16.9992 19.5376 17.0024 19.5344C17.0024 19.5344 17.0696 19.1376 17.092 19.0032C17.3896 17.3168 18.3784 15.7584 19.876 14.6224C21.3544 13.5024 23.1848 12.8848 25.0248 12.8848C26.5672 12.8848 27.9656 13.1344 29.1848 13.624C30.3432 14.0912 31.348 14.7824 32.1704 15.6752C32.4104 15.9344 32.8136 15.9536 33.076 15.7136C33.3352 15.4736 33.3544 15.0704 33.1144 14.808C32.164 13.7712 31.0024 12.9744 29.6648 12.4336C28.2952 11.88 26.7336 11.6016 25.028 11.6016C22.9096 11.6016 20.8072 12.312 19.108 13.6016C17.3512 14.9328 16.1864 16.7728 15.8344 18.7792C15.812 18.9072 15.7512 19.272 15.7448 19.3136C15.6648 19.7616 15.7864 20.296 15.9176 20.8592C15.9976 21.208 16.132 21.7904 16.0808 21.9728C16.0008 22.2256 15.2648 23.608 13.4472 26.7376C13.2168 27.1376 13.1912 27.624 13.3768 28.0464C13.5656 28.4656 13.9464 28.7728 14.3976 28.8688L15.4568 29.0896V32.2C15.4568 33.368 16.2824 34.3664 17.428 34.5872L19.0248 35.0416C19.044 35.048 19.0664 35.0512 19.0888 35.0576C19.6392 35.1568 20.0392 35.6336 20.0392 36.1904V37.6432C20.0392 37.9952 20.3272 38.2832 20.6792 38.2832C21.0312 38.2832 21.3192 37.9952 21.3192 37.6432V36.1904C21.3128 35.0224 20.484 34.024 19.3416 33.8032ZM34.484 28.8592C34.1704 28.696 33.7832 28.8176 33.62 29.1312C33.0856 30.152 32.4936 31.0384 31.7544 31.9184C30.8872 32.952 30.4104 34.2576 30.4104 35.6016V37.6432C30.4104 37.9952 30.6984 38.2832 31.0504 38.2832C31.4024 38.2832 31.6904 37.9952 31.6904 37.6432V35.6016C31.6904 34.5584 32.0616 33.544 32.7336 32.7408C33.5336 31.7872 34.1768 30.8272 34.7528 29.7232C34.9192 29.4096 34.7976 29.0224 34.484 28.8592Z" fill="url(#paint0_linear_12262_141848)"/>
<path d="M24.6904 18.2887C24.6328 17.9527 24.3416 17.7063 24.0024 17.7063H23.26C22.9208 17.7063 22.6296 17.9527 22.572 18.2887L21.2408 26.1543C21.1672 26.5799 21.4968 26.9703 21.9288 26.9703H21.9608C22.3032 26.9703 22.5944 26.7207 22.6488 26.3815L22.8952 24.8423H24.3512L24.588 26.3783C24.6392 26.7175 24.9336 26.9703 25.2792 26.9703H25.3176C25.7496 26.9703 26.076 26.5831 26.0056 26.1575L24.6904 18.2887ZM23.1064 23.4759L23.6248 19.8247L24.1432 23.4759H23.1064ZM27.5064 17.7031C27.1224 17.7031 26.8088 18.0167 26.8088 18.4007V26.2663C26.8088 26.6503 27.1224 26.9639 27.5064 26.9639C27.8904 26.9639 28.204 26.6503 28.204 26.2663V18.4039C28.204 18.0167 27.8904 17.7031 27.5064 17.7031ZM34.8568 24.2087C34.0824 24.2087 33.42 24.6983 33.1608 25.3799H31.2664V24.4167H31.6824C31.8936 24.4167 32.092 24.3111 32.2104 24.1383L32.8792 23.1591C33.02 23.1943 33.1672 23.2135 33.3208 23.2135C34.3192 23.2135 35.132 22.4007 35.132 21.4023C35.132 20.4039 34.3192 19.5911 33.3208 19.5911C32.3224 19.5911 31.5096 20.4039 31.5096 21.4023C31.5096 21.7831 31.628 22.1383 31.8296 22.4295L31.3464 23.1367H29.3848C29.0328 23.1367 28.7448 23.4247 28.7448 23.7767C28.7448 24.1287 29.0328 24.4167 29.3848 24.4167H29.9896V26.0199C29.9896 26.3719 30.2776 26.6599 30.6296 26.6599H33.164C33.4232 27.3447 34.0856 27.8311 34.86 27.8311C35.8584 27.8311 36.6712 27.0183 36.6712 26.0199C36.6712 25.0215 35.8584 24.2087 34.8568 24.2087ZM33.8552 21.4055C33.8552 21.6999 33.6152 21.9367 33.324 21.9367C33.0328 21.9367 32.7928 21.6967 32.7928 21.4055C32.7928 21.1143 33.0328 20.8743 33.324 20.8743C33.6152 20.8743 33.8552 21.1111 33.8552 21.4055ZM34.8568 26.5543C34.5624 26.5543 34.3256 26.3143 34.3256 26.0231C34.3256 25.7319 34.5656 25.4919 34.8568 25.4919C35.148 25.4919 35.388 25.7319 35.388 26.0231C35.388 26.3143 35.1512 26.5543 34.8568 26.5543Z" fill="url(#paint1_linear_12262_141848)"/>
<path d="M35.6701 16.2422C34.8957 16.2422 34.2333 16.7318 33.9741 17.4134H31.6861C31.4781 17.4134 31.2829 17.5158 31.1613 17.6854L29.8845 19.5094C29.6829 19.8006 29.7533 20.1974 30.0413 20.4022C30.1533 20.479 30.2813 20.5174 30.4061 20.5174C30.6077 20.5174 30.8061 20.4214 30.9309 20.2454L32.0157 18.6966H33.9709C34.2301 19.3814 34.8925 19.8678 35.6669 19.8678C36.6653 19.8678 37.4781 19.055 37.4781 18.0566C37.4813 17.055 36.6685 16.2422 35.6701 16.2422ZM35.6701 18.5878C35.3757 18.5878 35.1389 18.3478 35.1389 18.0566C35.1389 17.7654 35.3789 17.5254 35.6701 17.5254C35.9613 17.5254 36.2013 17.7654 36.2013 18.0566C36.2013 18.3478 35.9613 18.5878 35.6701 18.5878Z" fill="url(#paint2_linear_12262_141848)"/>
<defs>
<linearGradient id="paint0_linear_12262_141848" x1="13.2539" y1="32.4132" x2="36.2159" y2="23.8729" gradientUnits="userSpaceOnUse">
<stop stop-color="#0575E6"/>
<stop offset="1" stop-color="#021B79"/>
</linearGradient>
<linearGradient id="paint1_linear_12262_141848" x1="21.2305" y1="25.603" x2="33.7709" y2="16.8084" gradientUnits="userSpaceOnUse">
<stop stop-color="#0575E6"/>
<stop offset="1" stop-color="#021B79"/>
</linearGradient>
<linearGradient id="paint2_linear_12262_141848" x1="29.7695" y1="19.5768" x2="35.3027" y2="14.9875" gradientUnits="userSpaceOnUse">
<stop stop-color="#0575E6"/>
<stop offset="1" stop-color="#021B79"/>
</linearGradient>
</defs>
</svg>
