<svg width="51" height="50" viewBox="0 0 51 50" fill="none" xmlns="http://www.w3.org/2000/svg">
<rect x="0.5" width="50" height="50" rx="25" fill="#DBE9FE"/>
<path d="M18.5096 12.0938C15.2475 12.0938 12.5941 14.7475 12.5941 18.0093C12.5941 21.2713 15.2475 23.9248 18.5096 23.9248C21.7713 23.9248 24.4251 21.2713 24.4251 18.0093C24.4251 14.7472 21.7713 12.0938 18.5096 12.0938ZM18.5096 22.8493C15.8408 22.8493 13.6696 20.6781 13.6696 18.0093C13.6696 15.3405 15.8408 13.1693 18.5096 13.1693C21.1784 13.1693 23.3496 15.3405 23.3496 18.0093C23.3496 20.6777 21.1784 22.8493 18.5096 22.8493ZM17.7029 16.9337C17.7029 17.2304 17.9445 17.4717 18.2408 17.4717H18.7784C19.2061 17.4722 19.6161 17.6423 19.9186 17.9447C20.221 18.2471 20.3912 18.6571 20.3918 19.0848C20.3913 19.4657 20.2561 19.8342 20.01 20.125C19.764 20.4158 19.4231 20.6102 19.0475 20.6739V21.2361C19.0475 21.3068 19.0336 21.3767 19.0066 21.4419C18.9796 21.5072 18.9399 21.5665 18.89 21.6164C18.8401 21.6663 18.7808 21.706 18.7155 21.733C18.6503 21.76 18.5804 21.7739 18.5097 21.7739C18.4391 21.7739 18.3692 21.76 18.304 21.733C18.2387 21.706 18.1794 21.6663 18.1295 21.6164C18.0796 21.5665 18.0399 21.5072 18.0129 21.4419C17.9859 21.3767 17.972 21.3068 17.972 21.2361V20.6982H17.1653C17.0226 20.6982 16.8859 20.6416 16.785 20.5407C16.6842 20.4399 16.6275 20.3031 16.6275 20.1605C16.6275 20.0178 16.6842 19.8811 16.785 19.7802C16.8859 19.6794 17.0226 19.6227 17.1653 19.6227H18.7784C19.075 19.6227 19.3163 19.3814 19.3163 19.0848C19.3163 18.7885 19.075 18.5472 18.7784 18.5472H18.2408C17.813 18.5467 17.4029 18.3765 17.1005 18.0741C16.798 17.7716 16.6279 17.3615 16.6273 16.9337C16.628 16.5529 16.7633 16.1845 17.0093 15.8937C17.2553 15.6029 17.5962 15.4084 17.9717 15.3446V14.7827C17.9717 14.7121 17.9856 14.6422 18.0126 14.5769C18.0396 14.5117 18.0792 14.4524 18.1292 14.4025C18.1791 14.3525 18.2384 14.3129 18.3036 14.2859C18.3689 14.2589 18.4388 14.2449 18.5094 14.2449C18.58 14.2449 18.65 14.2589 18.7152 14.2859C18.7805 14.3129 18.8397 14.3525 18.8897 14.4025C18.9396 14.4524 18.9792 14.5117 19.0063 14.5769C19.0333 14.6422 19.0472 14.7121 19.0472 14.7827V15.3206H19.8539C19.9965 15.3206 20.1333 15.3773 20.2342 15.4781C20.335 15.579 20.3917 15.7158 20.3917 15.8584C20.3917 16.001 20.335 16.1378 20.2342 16.2386C20.1333 16.3395 19.9965 16.3961 19.8539 16.3961H18.2408C18.0982 16.3961 17.9614 16.4528 17.8605 16.5536C17.7597 16.6544 17.703 16.7911 17.7029 16.9337ZM23.8872 30.2585H23.1966L23.0491 29.9024L23.5374 29.4137C23.5874 29.3639 23.6271 29.3046 23.6542 29.2394C23.6812 29.1742 23.6952 29.1042 23.6952 29.0336C23.6952 28.963 23.6812 28.893 23.6542 28.8278C23.6271 28.7626 23.5874 28.7033 23.5374 28.6534L21.8475 26.9635C21.7976 26.9135 21.7383 26.8739 21.673 26.8468C21.6078 26.8198 21.5378 26.8059 21.4672 26.8059C21.3965 26.8059 21.3266 26.8198 21.2613 26.8468C21.1961 26.8739 21.1368 26.9135 21.0869 26.9635L20.5982 27.4518L20.2424 27.3043V26.6137C20.2424 26.4712 20.1857 26.3344 20.0849 26.2336C19.9841 26.1328 19.8474 26.0761 19.7048 26.0761H17.3147C17.2441 26.0761 17.1741 26.09 17.1089 26.117C17.0436 26.144 16.9843 26.1836 16.9344 26.2335C16.8844 26.2834 16.8448 26.3427 16.8177 26.4079C16.7907 26.4732 16.7768 26.5431 16.7768 26.6137V27.3043L16.4206 27.4518L15.932 26.9635C15.8821 26.9135 15.8228 26.8739 15.7575 26.8468C15.6923 26.8198 15.6223 26.8059 15.5517 26.8059C15.481 26.8059 15.4111 26.8198 15.3458 26.8468C15.2806 26.8739 15.2213 26.9135 15.1714 26.9635L13.4811 28.6534C13.4312 28.7034 13.3916 28.7626 13.3646 28.8278C13.3375 28.8931 13.3236 28.963 13.3236 29.0336C13.3236 29.1042 13.3375 29.1741 13.3646 29.2393C13.3916 29.3046 13.4312 29.3638 13.4811 29.4137L13.9697 29.9024L13.8219 30.2585H13.1313C13.0607 30.2585 12.9908 30.2725 12.9255 30.2995C12.8603 30.3265 12.801 30.3662 12.7511 30.4161C12.7012 30.4661 12.6616 30.5254 12.6346 30.5906C12.6076 30.6559 12.5937 30.7258 12.5938 30.7965V33.1865C12.5938 33.4835 12.8344 33.7241 13.1313 33.7241H13.8219L13.9697 34.0803L13.4811 34.5689C13.4312 34.6189 13.3916 34.6781 13.3646 34.7434C13.3375 34.8086 13.3236 34.8785 13.3236 34.9491C13.3236 35.0197 13.3375 35.0896 13.3646 35.1549C13.3916 35.2201 13.4312 35.2793 13.4811 35.3293L15.1714 37.0195C15.2722 37.1204 15.409 37.177 15.5517 37.177C15.6943 37.177 15.8311 37.1204 15.932 37.0195L16.4206 36.5312L16.7768 36.6787V37.3693C16.7767 37.4399 16.7906 37.5099 16.8177 37.5752C16.8447 37.6405 16.8843 37.6998 16.9342 37.7497C16.9842 37.7997 17.0435 37.8393 17.1088 37.8663C17.1741 37.8933 17.2441 37.9072 17.3147 37.9072H19.7048C19.7754 37.9072 19.8453 37.8933 19.9106 37.8662C19.9758 37.8392 20.0351 37.7996 20.085 37.7496C20.135 37.6997 20.1746 37.6404 20.2016 37.5751C20.2286 37.5098 20.2424 37.4399 20.2424 37.3693V36.6787L20.5985 36.5312L21.0872 37.0195C21.2888 37.2211 21.6459 37.2211 21.8478 37.0195L23.5377 35.3293C23.6385 35.2284 23.6951 35.0917 23.6951 34.9491C23.6951 34.8065 23.6385 34.6698 23.5377 34.5689L23.0494 34.0803L23.1969 33.7241H23.8875C23.9581 33.7242 24.0281 33.7103 24.0933 33.6833C24.1586 33.6563 24.2179 33.6167 24.2679 33.5668C24.3178 33.5169 24.3574 33.4576 24.3845 33.3924C24.4115 33.3271 24.4254 33.2572 24.4254 33.1865V30.7965C24.4253 30.6538 24.3686 30.517 24.2677 30.4161C24.1667 30.3152 24.0299 30.2585 23.8872 30.2585ZM23.3496 32.6486H22.8373C22.62 32.6486 22.4238 32.7798 22.3403 32.9805L21.9179 34.0006C21.8771 34.0989 21.8664 34.2071 21.8872 34.3114C21.9079 34.4158 21.9591 34.5116 22.0344 34.5869L22.3966 34.9491L21.467 35.879L21.1048 35.5168C21.0296 35.4415 20.9338 35.3903 20.8295 35.3695C20.7252 35.3488 20.6171 35.3595 20.5189 35.4003L19.4987 35.8227C19.4004 35.8634 19.3165 35.9324 19.2574 36.0208C19.1983 36.1093 19.1668 36.2133 19.1669 36.3197V36.832H17.8523V36.3197C17.8523 36.1024 17.7214 35.9059 17.5205 35.8227L16.5003 35.4003C16.4021 35.3595 16.294 35.3487 16.1896 35.3695C16.0853 35.3902 15.9895 35.4415 15.9144 35.5168L15.5518 35.879L14.6226 34.9491L14.9848 34.5869C15.06 34.5116 15.1113 34.4158 15.132 34.3114C15.1527 34.2071 15.142 34.0989 15.1013 34.0006L14.6785 32.9805C14.6379 32.8822 14.569 32.7983 14.4806 32.7392C14.3922 32.6802 14.2882 32.6486 14.1819 32.6486H13.6696V31.3341H14.1819C14.2882 31.3341 14.3922 31.3025 14.4806 31.2435C14.569 31.1844 14.6379 31.1005 14.6785 31.0022L15.1013 29.9821C15.142 29.8838 15.1527 29.7756 15.1319 29.6713C15.1112 29.5669 15.06 29.4711 14.9848 29.3958L14.6226 29.0336L15.5518 28.1043L15.9144 28.4665C15.9897 28.5416 16.0855 28.5927 16.1897 28.6134C16.294 28.6341 16.402 28.6236 16.5003 28.583L17.5205 28.1603C17.6187 28.1196 17.7026 28.0507 17.7617 27.9623C17.8208 27.8739 17.8523 27.77 17.8523 27.6637V27.1513H19.1669V27.6637C19.1669 27.881 19.2981 28.0771 19.4987 28.1603L20.5189 28.583C20.7195 28.6659 20.9509 28.6198 21.1048 28.4665L21.467 28.1043L22.3966 29.0339L22.0344 29.3961C21.9592 29.4714 21.908 29.5673 21.8872 29.6716C21.8665 29.776 21.8772 29.8841 21.9179 29.9824L22.3403 31.0026C22.381 31.1008 22.45 31.1848 22.5384 31.2439C22.6269 31.3029 22.7309 31.3344 22.8373 31.3344H23.3496V32.6486ZM18.5096 29.6608C17.2245 29.6608 16.179 30.7062 16.179 31.9913C16.179 33.2765 17.2241 34.3219 18.5096 34.3219C19.7947 34.3219 20.8398 33.2768 20.8398 31.9913C20.8398 30.7062 19.7944 29.6608 18.5096 29.6608ZM18.5096 33.2464C18.1768 33.246 17.8578 33.1137 17.6225 32.8784C17.3872 32.6431 17.2549 32.3241 17.2546 31.9913C17.2549 31.6586 17.3872 31.3396 17.6225 31.1044C17.8578 30.8691 18.1769 30.7369 18.5096 30.7366C18.8423 30.737 19.1613 30.8693 19.3966 31.1045C19.6318 31.3397 19.7642 31.6587 19.7646 31.9913C19.7641 32.3241 19.6317 32.643 19.3965 32.8782C19.1612 33.1135 18.8423 33.2459 18.5096 33.2464ZM36.7941 28.7648H35.7182V28.2272C35.7178 27.7995 35.5477 27.3894 35.2453 27.0869C34.9429 26.7844 34.5328 26.6143 34.1051 26.6137H30.8782C30.4505 26.6143 30.0404 26.7844 29.738 27.0869C29.4356 27.3894 29.2655 27.7995 29.2651 28.2272V28.7648H28.1896C27.7618 28.7653 27.3517 28.9354 27.0493 29.2379C26.7468 29.5404 26.5767 29.9505 26.5761 30.3782V36.2937C26.5767 36.7215 26.7468 37.1316 27.0493 37.4341C27.3517 37.7365 27.7618 37.9067 28.1896 37.9072H36.7941C37.2218 37.9067 37.6319 37.7365 37.9343 37.434C38.2367 37.1316 38.4068 36.7215 38.4072 36.2937V30.3782C38.4069 29.9505 38.2368 29.5403 37.9344 29.2378C37.6319 28.9353 37.2218 28.7652 36.7941 28.7648ZM37.3317 36.2937C37.3317 36.5904 37.0907 36.8317 36.7941 36.8317H28.1896C28.047 36.8315 27.9103 36.7748 27.8094 36.6739C27.7086 36.5731 27.6518 36.4364 27.6517 36.2937V33.0669H28.7272V33.6045C28.7272 33.7471 28.7838 33.8839 28.8847 33.9847C28.9855 34.0856 29.1223 34.1422 29.2649 34.1422C29.4076 34.1422 29.5444 34.0856 29.6452 33.9847C29.7461 33.8839 29.8027 33.7471 29.8027 33.6045V33.0669H35.1806V33.6045C35.1806 33.7471 35.2373 33.8839 35.3381 33.9847C35.439 34.0856 35.5758 34.1422 35.7184 34.1422C35.861 34.1422 35.9978 34.0856 36.0986 33.9847C36.1995 33.8839 36.2561 33.7471 36.2561 33.6045V33.0669H37.3317V36.2937ZM27.6517 30.3779C27.6517 30.0816 27.8929 29.8403 28.1896 29.8403H36.7941C37.0907 29.8403 37.3317 30.0816 37.3317 30.3779V31.9913H27.6517V30.3779ZM30.3406 28.2269C30.3406 27.9302 30.5819 27.6889 30.8782 27.6889H34.1051C34.4017 27.6889 34.6427 27.9302 34.6427 28.2269V28.7645H30.3406V28.2269ZM27.1141 23.9248H29.2651C29.4077 23.9248 29.5444 23.8681 29.6452 23.7673C29.7461 23.6665 29.8027 23.5298 29.8027 23.3872V17.4713C29.8028 17.4007 29.7889 17.3308 29.7619 17.2655C29.7349 17.2003 29.6953 17.141 29.6454 17.091C29.5954 17.041 29.5362 17.0014 29.4709 16.9744C29.4057 16.9473 29.3357 16.9334 29.2651 16.9334H27.1141C27.0434 16.9334 26.9734 16.9473 26.9082 16.9743C26.8429 17.0013 26.7836 17.0409 26.7336 17.0909C26.6837 17.1408 26.644 17.2002 26.617 17.2654C26.59 17.3307 26.5761 17.4007 26.5761 17.4713V23.3869C26.5761 23.4575 26.59 23.5275 26.617 23.5928C26.644 23.6581 26.6837 23.7174 26.7336 23.7673C26.7836 23.8173 26.8429 23.8569 26.9082 23.8839C26.9734 23.9109 27.0434 23.9248 27.1141 23.9248ZM27.6517 18.0093H28.7272V22.8493H27.6517V18.0093ZM31.4161 23.9248H33.5672C33.6378 23.9248 33.7078 23.911 33.773 23.884C33.8383 23.857 33.8976 23.8174 33.9475 23.7674C33.9975 23.7175 34.0371 23.6582 34.0642 23.593C34.0912 23.5277 34.1051 23.4578 34.1051 23.3872V15.3203C34.1052 15.2497 34.0913 15.1797 34.0642 15.1144C34.0372 15.0491 33.9976 14.9898 33.9477 14.9398C33.8977 14.8899 33.8384 14.8503 33.7731 14.8233C33.7078 14.7962 33.6378 14.7823 33.5672 14.7824H31.4161C31.3455 14.7823 31.2755 14.7962 31.2102 14.8233C31.145 14.8503 31.0856 14.8899 31.0357 14.9398C30.9857 14.9898 30.9461 15.0491 30.9191 15.1144C30.8921 15.1797 30.8782 15.2497 30.8782 15.3203V23.3869C30.8782 23.4575 30.8921 23.5275 30.9191 23.5928C30.9461 23.6581 30.9857 23.7174 31.0357 23.7673C31.0856 23.8173 31.145 23.8569 31.2102 23.8839C31.2755 23.9109 31.3455 23.9248 31.4161 23.9248ZM31.9541 15.8582H33.0296V22.8493H31.9541V15.8582ZM37.8696 12.0938H35.7182C35.6476 12.0937 35.5777 12.1077 35.5124 12.1347C35.4472 12.1617 35.3879 12.2014 35.338 12.2513C35.2881 12.3013 35.2485 12.3606 35.2215 12.4258C35.1945 12.4911 35.1806 12.561 35.1806 12.6317V23.3872C35.1806 23.6841 35.4213 23.9248 35.7182 23.9248H37.8696C38.0122 23.9248 38.1489 23.8681 38.2497 23.7673C38.3506 23.6665 38.4072 23.5298 38.4072 23.3872V12.6314C38.4072 12.4888 38.3506 12.352 38.2497 12.2512C38.1489 12.1504 38.0122 12.0938 37.8696 12.0938ZM37.3317 22.8493H36.2561V13.1693H37.3317V22.8493Z" fill="url(#paint0_linear_12262_141890)"/>
<defs>
<linearGradient id="paint0_linear_12262_141890" x1="12.5937" y1="32.2282" x2="38.4072" y2="20.3541" gradientUnits="userSpaceOnUse">
<stop stop-color="#0575E6"/>
<stop offset="1" stop-color="#021B79"/>
</linearGradient>
</defs>
</svg>
