<svg width="51" height="50" viewBox="0 0 51 50" fill="none" xmlns="http://www.w3.org/2000/svg">
<rect x="0.5" width="50" height="50" rx="25" fill="#DBE9FE"/>
<g clip-path="url(#clip0_12262_141946)">
<path d="M41.015 32.0384H40.445C40.31 31.4884 40.095 30.9634 39.8 30.4834L40.205 30.0784C40.295 29.9884 40.345 29.8634 40.345 29.7334C40.345 29.6034 40.295 29.4834 40.205 29.3884L39.05 28.2334C38.96 28.1434 38.835 28.0934 38.705 28.0934C38.575 28.0934 38.455 28.1434 38.36 28.2334L37.955 28.6384C37.475 28.3434 36.945 28.1284 36.4 27.9934V27.4234C36.4 27.1534 36.185 26.9384 35.915 26.9384H34.28C34.01 26.9384 33.795 27.1534 33.795 27.4234V27.9934C33.245 28.1284 32.72 28.3484 32.24 28.6384L31.835 28.2334C31.745 28.1434 31.62 28.0934 31.49 28.0934C31.36 28.0934 31.24 28.1434 31.145 28.2334L30 29.3934C29.98 29.4134 29.97 29.4384 29.955 29.4584C29.655 29.3584 29.36 29.2634 29.07 29.1734C28.32 28.9334 27.61 28.7134 27.08 28.4284C26.53 28.1384 26.14 27.6934 25.9 27.1134C26.11 26.8984 26.305 26.6634 26.495 26.4134H30.43C30.695 26.4134 30.91 26.2034 30.915 25.9384L31.065 18.7984C31.065 16.5334 30.18 14.3934 28.575 12.7734C26.965 11.1634 24.825 10.2734 22.55 10.2734C17.855 10.2734 14.03 14.0984 14.03 18.8084L14.18 25.9384C14.185 26.2034 14.4 26.4134 14.665 26.4134H18.6C18.79 26.6684 18.985 26.9034 19.195 27.1184C18.95 27.6984 18.56 28.1434 18.02 28.4334C17.485 28.7184 16.775 28.9434 16.025 29.1784C13.265 30.0434 9.49002 31.2334 9.50002 37.0334C9.50002 37.2984 9.71502 37.5184 9.98502 37.5184H30.235L31.155 38.4384C31.245 38.5284 31.37 38.5784 31.5 38.5784C31.63 38.5784 31.75 38.5284 31.845 38.4384L32.25 38.0334C32.73 38.3284 33.26 38.5484 33.805 38.6784V39.2484C33.805 39.5184 34.02 39.7334 34.29 39.7334H35.925C36.195 39.7334 36.41 39.5184 36.41 39.2484V38.6784C36.955 38.5434 37.485 38.3284 37.965 38.0334L38.37 38.4384C38.56 38.6284 38.865 38.6284 39.055 38.4384L40.21 37.2834C40.4 37.0934 40.4 36.7884 40.21 36.5984L39.805 36.1934C40.1 35.7134 40.32 35.1834 40.45 34.6384H41.02C41.29 34.6384 41.505 34.4234 41.505 34.1534V32.5234C41.5 32.2584 41.285 32.0384 41.015 32.0384ZM17.465 18.9334C17.465 18.1584 17.52 17.3884 17.63 16.6384L18.94 15.4134C20 16.0834 23.44 18.0384 27.6 18.1034C27.615 18.3434 27.62 18.6134 27.62 18.9284C27.62 20.1684 27.475 21.3384 27.22 22.3984C26.29 22.9334 24.925 23.3734 23.925 23.5484L23.915 23.3784C23.9 23.1234 23.685 22.9234 23.43 22.9234L21.75 22.9284C21.615 22.9284 21.49 22.9834 21.395 23.0834C21.305 23.1834 21.255 23.3134 21.265 23.4484L21.375 25.0484C21.385 25.1834 21.45 25.3084 21.555 25.3934C21.645 25.4634 21.75 25.5034 21.865 25.5034C21.885 25.5034 21.91 25.5034 21.93 25.4984L23.585 25.2734C23.835 25.2384 24.02 25.0184 24.005 24.7634L23.99 24.5284C24.815 24.3934 25.89 24.0934 26.83 23.6834C25.935 26.1034 24.37 27.6834 22.545 27.6834C19.695 27.6834 17.465 23.8384 17.465 18.9334ZM23.005 24.3734L22.31 24.4684L22.27 23.9034H22.975L22.99 24.1184C22.99 24.1284 22.985 24.1334 22.985 24.1434C22.985 24.1534 22.99 24.1584 22.99 24.1634L23.005 24.3734ZM15.135 25.4384L14.995 18.7934C14.995 14.6284 18.38 11.2384 22.545 11.2384C24.565 11.2384 26.46 12.0234 27.885 13.4534C29.31 14.8884 30.095 16.7884 30.095 18.7884L29.955 25.4434H27.105C27.52 24.6834 27.865 23.8184 28.115 22.8584C28.12 22.8434 28.125 22.8284 28.13 22.8134C28.43 21.6384 28.595 20.3334 28.595 18.9434C28.595 18.3934 28.575 17.9684 28.535 17.5784C28.51 17.3284 28.275 17.1384 28.045 17.1434C23.24 17.2384 19.215 14.4384 19.175 14.4084C18.985 14.2784 18.735 14.2934 18.565 14.4484L16.855 16.0484C16.775 16.1234 16.725 16.2184 16.705 16.3284C16.57 17.1784 16.5 18.0584 16.5 18.9384C16.5 21.4884 17.055 23.7434 17.985 25.4434H15.135V25.4384ZM22.545 28.6534C23.48 28.6534 24.355 28.3334 25.13 27.7734C25.425 28.3434 25.86 28.8084 26.405 29.1484L23.115 31.6584C22.83 31.8734 22.43 31.8784 22.14 31.6684L18.7 29.1434C19.235 28.8034 19.66 28.3434 19.955 27.7734C20.735 28.3384 21.605 28.6534 22.545 28.6534ZM16.31 30.0984C16.805 29.9434 17.275 29.7884 17.71 29.6184L21.565 32.4484C21.875 32.6784 22.25 32.7934 22.62 32.7934C23 32.7934 23.385 32.6734 23.7 32.4284L27.38 29.6184C27.815 29.7884 28.285 29.9384 28.775 30.0934C29.285 30.2534 29.805 30.4284 30.32 30.6284C30.07 31.0684 29.875 31.5434 29.755 32.0384H29.185C28.915 32.0384 28.7 32.2534 28.7 32.5234V34.1534C28.7 34.4234 28.915 34.6384 29.185 34.6384H29.755C29.89 35.1834 30.105 35.7134 30.4 36.1934L30.05 36.5484H10.48C10.665 31.8834 13.66 30.9334 16.31 30.0984ZM40.53 33.6684H40.05C39.81 33.6684 39.61 33.8434 39.57 34.0734C39.46 34.7634 39.195 35.4034 38.78 35.9684C38.64 36.1634 38.66 36.4284 38.83 36.5934L39.175 36.9384L38.705 37.4084L38.365 37.0684C38.195 36.8984 37.93 36.8784 37.74 37.0184C37.18 37.4234 36.525 37.6934 35.84 37.8034C35.605 37.8434 35.435 38.0434 35.435 38.2834V38.7634H34.77V38.2834C34.77 38.0484 34.6 37.8434 34.365 37.8034C33.685 37.6934 33.025 37.4184 32.465 37.0134C32.27 36.8734 32.005 36.8934 31.84 37.0634L31.5 37.4034L31.03 36.9334L31.37 36.5934C31.54 36.4234 31.56 36.1634 31.42 35.9684C31.01 35.3934 30.745 34.7534 30.635 34.0684C30.595 33.8334 30.395 33.6634 30.155 33.6634H29.675V33.0034H30.155C30.395 33.0034 30.595 32.8334 30.635 32.5984C30.75 31.9084 31.015 31.2684 31.425 30.6984C31.565 30.5034 31.54 30.2434 31.375 30.0734L31.315 30.0134L31.035 29.7334L31.505 29.2634L31.845 29.6034C32.015 29.7734 32.28 29.7934 32.47 29.6534C33.03 29.2484 33.685 28.9784 34.37 28.8634C34.605 28.8234 34.775 28.6234 34.775 28.3834V27.9034H35.44V28.3834C35.44 28.6184 35.61 28.8234 35.845 28.8634C36.525 28.9734 37.18 29.2484 37.745 29.6484C37.94 29.7884 38.2 29.7634 38.37 29.5984L38.71 29.2584L39.18 29.7284L38.835 30.0734C38.665 30.2434 38.645 30.5084 38.785 30.6984C39.19 31.2584 39.46 31.9134 39.575 32.5934C39.615 32.8284 39.815 32.9984 40.055 32.9984H40.535V33.6684H40.53Z" fill="url(#paint0_linear_12262_141946)"/>
<path d="M35.0986 29.5469C33.0086 29.5469 31.3086 31.2469 31.3086 33.3369C31.3086 35.4269 33.0086 37.1269 35.0986 37.1269C37.1886 37.1269 38.8886 35.4269 38.8886 33.3369C38.8886 31.2469 37.1886 29.5469 35.0986 29.5469ZM35.0986 36.1619C33.5436 36.1619 32.2786 34.8969 32.2786 33.3419C32.2786 31.7869 33.5436 30.5219 35.0986 30.5219C36.6536 30.5219 37.9186 31.7869 37.9186 33.3419C37.9186 34.8919 36.6536 36.1619 35.0986 36.1619Z" fill="url(#paint1_linear_12262_141946)"/>
</g>
<defs>
<linearGradient id="paint0_linear_12262_141946" x1="9.5" y1="33.2522" x2="40.5283" y2="17.7462" gradientUnits="userSpaceOnUse">
<stop stop-color="#0575E6"/>
<stop offset="1" stop-color="#021B79"/>
</linearGradient>
<linearGradient id="paint1_linear_12262_141946" x1="31.3086" y1="35.4593" x2="38.8886" y2="31.9725" gradientUnits="userSpaceOnUse">
<stop stop-color="#0575E6"/>
<stop offset="1" stop-color="#021B79"/>
</linearGradient>
<clipPath id="clip0_12262_141946">
<rect width="32" height="32" fill="white" transform="translate(9.5 9)"/>
</clipPath>
</defs>
</svg>
