<svg width="51" height="50" viewBox="0 0 51 50" fill="none" xmlns="http://www.w3.org/2000/svg">
<rect x="0.5" width="50" height="50" rx="25" fill="#DBE9FE"/>
<path d="M40.4587 37.6495L34.9163 29.2143C34.9163 29.2143 34.9163 29.1951 34.9163 29.1855V16.9423C34.9163 16.8785 34.9037 16.8154 34.8792 16.7566C34.8547 16.6978 34.8189 16.6444 34.7737 16.5994C34.7285 16.5545 34.6748 16.519 34.6158 16.4949C34.5568 16.4708 34.4936 16.4586 34.4299 16.4591H32.6987C32.6315 16.2959 32.5611 16.1391 32.4843 15.9727C31.8308 14.622 30.7989 13.4902 29.5142 12.715C28.2294 11.9399 26.7471 11.5546 25.2475 11.6061C23.7479 11.6577 22.2956 12.1437 21.0671 13.0053C19.8386 13.8668 18.8868 15.0667 18.3275 16.4591H16.5643C16.5006 16.4586 16.4374 16.4708 16.3784 16.4949C16.3194 16.519 16.2658 16.5545 16.2206 16.5994C16.1754 16.6444 16.1395 16.6978 16.115 16.7566C16.0905 16.8154 16.0779 16.8785 16.0779 16.9423V29.1855C16.0779 29.1855 16.0779 29.2047 16.0779 29.2143L10.5387 37.6495C10.4898 37.7225 10.4617 37.8076 10.4576 37.8955C10.4534 37.9833 10.4733 38.0706 10.5151 38.148C10.557 38.2254 10.6191 38.2899 10.6949 38.3345C10.7706 38.3792 10.8572 38.4023 10.9451 38.4015H40.0651C40.1531 38.4023 40.2396 38.3792 40.3154 38.3345C40.3911 38.2899 40.4533 38.2254 40.4951 38.148C40.5369 38.0706 40.5568 37.9833 40.5527 37.8955C40.5485 37.8076 40.5204 37.7225 40.4715 37.6495H40.4587ZM31.6107 16.3983C31.9896 17.1731 32.2135 18.0144 32.2699 18.8751H30.3243C30.27 17.7874 30.0162 16.7189 29.5755 15.7231C29.9502 15.4887 30.3045 15.2232 30.6347 14.9295C31.0235 15.3738 31.3516 15.8677 31.6107 16.3983ZM29.5659 22.9935C30.0064 21.9985 30.2612 20.9313 30.3179 19.8447H32.2667C32.1566 21.2992 31.5784 22.679 30.6187 23.7775C30.2892 23.4885 29.9371 23.2264 29.5659 22.9935ZM29.9275 24.4687C29.2201 25.0875 28.392 25.5528 27.4955 25.8351C28.1351 25.2668 28.6815 24.6016 29.1147 23.8639C29.4011 24.0438 29.6729 24.246 29.9275 24.4687ZM29.9275 14.2287C29.6708 14.4544 29.3969 14.6598 29.1083 14.8431C28.679 14.1118 28.1393 13.4512 27.5083 12.8847C28.4036 13.1641 29.2323 13.6236 29.9435 14.2351L29.9275 14.2287ZM25.9595 12.9199C26.9017 13.5224 27.6879 14.3393 28.2539 15.3039C27.5289 15.6291 26.7522 15.8241 25.9595 15.8799V12.9199ZM25.9595 16.8559C26.9078 16.7993 27.8375 16.5682 28.7019 16.1743C29.0722 17.0277 29.2889 17.9398 29.3419 18.8687H25.9755L25.9595 16.8559ZM25.9595 19.8383H29.3387C29.2842 20.7658 29.0676 21.6767 28.6987 22.5295C27.8372 22.137 26.9109 21.906 25.9659 21.8479L25.9595 19.8383ZM25.9595 22.8271C26.7546 22.8804 27.5338 23.0754 28.2603 23.4031C27.6947 24.3596 26.912 25.1697 25.9755 25.7679L25.9595 22.8271ZM24.9995 12.9391V15.8799C24.2151 15.8265 23.4461 15.6359 22.7275 15.3167C23.2917 14.3594 24.072 13.5474 25.0059 12.9455L24.9995 12.9391ZM22.7435 23.4031C23.4594 23.0863 24.225 22.8968 25.0059 22.8431V25.7583C24.0793 25.1594 23.3047 24.353 22.7435 23.4031ZM23.5403 25.8639C22.6211 25.5871 21.7728 25.1144 21.0539 24.4783C21.3175 24.252 21.5965 24.0446 21.8891 23.8575C22.3294 24.6069 22.8869 25.281 23.5403 25.8543V25.8639ZM22.2987 22.5263C21.9318 21.6762 21.7153 20.7688 21.6587 19.8447H25.0059V21.8575C24.0703 21.9133 23.1527 22.14 22.2987 22.5263ZM21.6587 18.8751C21.7119 17.9494 21.9286 17.0404 22.2987 16.1903C23.1553 16.5792 24.0763 16.807 25.0155 16.8623V18.8751H21.6587ZM23.4731 12.8943C22.8405 13.4641 22.3007 14.1292 21.8731 14.8655C21.5886 14.684 21.317 14.4829 21.0603 14.2639C21.7641 13.6478 22.5862 13.1817 23.4763 12.8943H23.4731ZM20.3787 14.9551C20.7068 15.2396 21.0579 15.4964 21.4283 15.7231C20.9939 16.7201 20.7466 17.7885 20.6987 18.8751H18.7467C18.8552 17.4269 19.4275 16.0523 20.3787 14.9551ZM20.6987 19.8447C20.7562 20.9267 21.0099 21.9893 21.4475 22.9807C21.0686 23.2144 20.7109 23.481 20.3787 23.7775C19.4235 22.6782 18.8528 21.2975 18.7531 19.8447H20.6987ZM17.0475 17.4287H18.0075C17.7117 18.5728 17.6816 19.7695 17.9194 20.9271C18.1573 22.0847 18.6568 23.1725 19.3798 24.1073C20.1027 25.0422 21.03 25.7992 22.0906 26.3205C23.1511 26.8419 24.3169 27.1136 25.4987 27.1151H25.6587C27.6581 27.0585 29.56 26.2384 30.9735 24.8231C32.3869 23.4078 33.2047 21.5049 33.2587 19.5055C33.272 18.8054 33.1902 18.1067 33.0155 17.4287H33.9499V28.6991H17.0475V17.4287ZM11.8443 37.4319L16.9419 29.6719H34.0555L39.1531 37.4319H11.8443Z" fill="url(#paint0_linear_12262_142015)"/>
<path d="M27.6246 35.1484H23.375V36.118H27.6246V35.1484Z" fill="url(#paint1_linear_12262_142015)"/>
<defs>
<linearGradient id="paint0_linear_12262_142015" x1="10.457" y1="32.5055" x2="39.2406" y2="17.6366" gradientUnits="userSpaceOnUse">
<stop stop-color="#0575E6"/>
<stop offset="1" stop-color="#021B79"/>
</linearGradient>
<linearGradient id="paint1_linear_12262_142015" x1="23.375" y1="35.9047" x2="24.3916" y2="33.8551" gradientUnits="userSpaceOnUse">
<stop stop-color="#0575E6"/>
<stop offset="1" stop-color="#021B79"/>
</linearGradient>
</defs>
</svg>
