<svg width="51" height="50" viewBox="0 0 51 50" fill="none" xmlns="http://www.w3.org/2000/svg">
<rect x="0.5" width="50" height="50" rx="25" fill="#DBE9FE"/>
<g clip-path="url(#clip0_12262_142075)">
<path d="M15.6051 15.3477C17.7712 13.1323 20.6266 11.7046 23.6789 11.3107C23.9251 12.0984 24.6143 12.7384 25.5004 12.7384C26.5343 12.7384 27.4204 11.9015 27.4204 10.8184C27.4204 9.73536 26.5835 8.89844 25.5004 8.89844C24.5158 8.89844 23.7281 9.6369 23.6297 10.5723C20.3804 10.9661 17.3281 12.4923 15.0635 14.8061L15.6051 15.3477ZM25.5004 9.6369C26.1404 9.6369 26.682 10.1784 26.682 10.8184C26.682 11.4584 26.1404 12 25.5004 12C24.8604 12 24.3189 11.4584 24.3189 10.8184C24.3189 10.1292 24.8604 9.6369 25.5004 9.6369ZM11.5189 29.1323L12.2081 28.9354C11.8143 27.6554 11.6666 26.3754 11.6666 25.0461C11.6666 23.2246 12.0112 21.4031 12.7004 19.7292C12.8481 19.7784 13.0451 19.7784 13.1928 19.7784C13.882 19.7784 14.522 19.4338 14.8666 18.8431C15.1128 18.4 15.2112 17.9077 15.0635 17.4154C14.9158 16.9231 14.6204 16.5292 14.1774 16.2338C13.882 16.0861 13.5374 15.9877 13.1928 15.9877C12.5035 15.9877 11.8635 16.3323 11.5189 16.9231C11.0266 17.76 11.2728 18.7938 12.0112 19.3846C11.2728 21.1569 10.8789 23.0769 10.8789 25.0461C10.9281 26.3754 11.1251 27.8031 11.5189 29.1323ZM12.2081 17.2677C12.4051 16.9231 12.7989 16.6769 13.242 16.6769C13.4389 16.6769 13.6358 16.7261 13.8328 16.8246C14.0789 16.9723 14.2758 17.2184 14.3743 17.5631C14.4728 17.8584 14.4235 18.2031 14.2758 18.4492C13.9312 18.9907 13.1928 19.1877 12.6512 18.8431C12.0604 18.5477 11.8635 17.8092 12.2081 17.2677ZM14.4728 33.3661C15.0635 32.7754 15.2112 31.84 14.7681 31.0523C14.4235 30.4615 13.7835 30.0677 13.0943 30.0677C12.7497 30.0677 12.4543 30.1661 12.1589 30.3138C11.7158 30.56 11.3712 30.9538 11.2728 31.4461C11.1251 31.9384 11.2235 32.4307 11.4697 32.9231C11.8143 33.5138 12.4543 33.9077 13.1435 33.9077C13.3897 33.9077 13.6358 33.8584 13.882 33.76C15.802 36.2707 18.4604 38.1415 21.5128 38.9784L21.7097 38.2892C18.8543 37.5015 16.2943 35.7292 14.4728 33.3661ZM12.1097 32.5784C11.962 32.2831 11.9128 31.9877 12.0112 31.6923C12.1097 31.3969 12.3066 31.1507 12.5528 31.0031C12.7497 30.9046 12.9466 30.8554 13.1435 30.8554C13.5866 30.8554 13.9804 31.1015 14.1774 31.4461C14.4728 31.9877 14.2758 32.7261 13.7343 33.0707C13.1928 33.3661 12.4543 33.12 12.1097 32.5784ZM35.2974 34.7446C33.1312 36.9107 30.3251 38.2892 27.322 38.6831C27.1251 37.8954 26.3866 37.2554 25.5004 37.2554C24.4666 37.2554 23.5804 38.0923 23.5804 39.1261C23.5804 39.6184 23.7774 40.1107 24.122 40.5046C24.4666 40.8492 24.9589 41.0954 25.4512 41.0954C26.4358 41.0954 27.2235 40.3569 27.322 39.4215C30.522 39.0277 33.4758 37.5507 35.7897 35.2369L35.2974 34.7446ZM25.5004 40.4061C25.1558 40.4061 24.8604 40.2584 24.6635 40.0615C24.4666 39.8154 24.3189 39.52 24.3189 39.2246C24.3189 38.5846 24.8604 38.0431 25.5004 38.0431C26.1404 38.0431 26.682 38.5846 26.682 39.2246C26.682 39.8646 26.1404 40.4061 25.5004 40.4061ZM36.5774 16.7261C36.3312 16.9723 36.1835 17.2184 36.0851 17.5631C35.9374 18.0554 35.9866 18.5477 36.2328 19.04C36.5774 19.6307 37.2174 20.0246 37.9066 20.0246C38.2512 20.0246 38.5466 19.9261 38.842 19.7784C39.2851 19.5323 39.6297 19.1384 39.7281 18.6461C39.8758 18.1538 39.8266 17.6615 39.5804 17.1692C39.2358 16.5784 38.5958 16.1846 37.9066 16.1846C37.6604 16.1846 37.4143 16.2338 37.2174 16.3323C35.1989 13.6246 32.2943 11.6554 29.0451 10.8677L28.8481 11.6061C31.9497 12.3446 34.7066 14.1661 36.5774 16.7261ZM38.9404 17.5138C39.0881 17.8092 39.1374 18.1046 39.0389 18.4C38.9404 18.6954 38.7435 18.9415 38.4974 19.0892C37.9558 19.3846 37.2174 19.1877 36.922 18.6461C36.7743 18.3507 36.7251 18.0554 36.8235 17.76C36.922 17.4646 37.1189 17.2184 37.3651 17.0707C37.562 16.9723 37.7589 16.9231 37.9558 16.9231C38.3497 16.9231 38.7435 17.1692 38.9404 17.5138ZM38.8912 30.7569C39.6789 28.9354 40.0728 27.0154 40.0728 24.9969C40.0728 23.7661 39.9251 22.4861 39.5804 21.3046L38.842 21.5015C39.1374 22.6338 39.2851 23.8154 39.2851 24.9969C39.2851 26.8677 38.8912 28.6892 38.1528 30.4123C38.0051 30.3631 37.8081 30.3631 37.6112 30.3631C36.922 30.3631 36.3312 30.7077 35.9866 31.2984C35.7404 31.7415 35.642 32.2338 35.7897 32.7261C35.9374 33.2184 36.2328 33.6615 36.6758 33.9077C36.9712 34.1046 37.3158 34.1538 37.6604 34.1538C38.3497 34.1538 38.9404 33.8092 39.2851 33.2184C39.5312 32.7754 39.6297 32.2831 39.482 31.7907C39.482 31.3969 39.2358 31.0523 38.8912 30.7569ZM38.6943 32.8738C38.3989 33.4154 37.6112 33.6123 37.0697 33.2677C36.5281 32.9231 36.3312 32.2338 36.6758 31.6431C36.8728 31.2984 37.2666 31.0523 37.7097 31.0523C37.9066 31.0523 38.1035 31.1015 38.3004 31.2C38.5466 31.3477 38.7435 31.5938 38.842 31.9384C38.9404 32.2831 38.8912 32.5784 38.6943 32.8738ZM25.5004 18.1538C24.9097 18.1538 24.3189 18.3015 23.8266 18.5969C23.3343 18.3015 22.7928 18.1046 22.2512 18.1046C20.6758 18.1046 19.3466 19.3846 19.3466 21.0092C19.3466 22.6338 20.6266 23.9138 22.2512 23.9138C22.5958 23.9138 22.8912 23.8646 23.1866 23.7661C23.7774 24.3569 24.6143 24.7015 25.5004 24.7015C26.3866 24.7015 27.2235 24.3569 27.8143 23.7661C28.1097 23.8646 28.4543 23.9138 28.7497 23.9138C30.3251 23.9138 31.6543 22.6338 31.6543 21.0092C31.6543 19.3846 30.3743 18.1046 28.7497 18.1046C28.1589 18.1046 27.6174 18.3015 27.1743 18.5969C26.682 18.3015 26.0912 18.1538 25.5004 18.1538ZM20.0851 21.0092C20.0851 19.8277 21.0697 18.8431 22.2512 18.8431C22.5958 18.8431 22.9404 18.9415 23.2358 19.0892C22.6451 19.68 22.2512 20.5169 22.2512 21.4031C22.2512 22.0431 22.4481 22.5846 22.7435 23.0769C22.5958 23.1261 22.4481 23.1261 22.2512 23.1261C21.0204 23.1754 20.0851 22.1907 20.0851 21.0092ZM25.5004 23.9631C24.122 23.9631 22.9404 22.8307 22.9404 21.4031C22.9404 20.0246 24.0728 18.8431 25.5004 18.8431C26.8789 18.8431 28.0604 19.9754 28.0604 21.4031C28.0604 22.8307 26.8789 23.9631 25.5004 23.9631ZM28.7497 18.8431C29.9312 18.8431 30.9158 19.8277 30.9158 21.0092C30.9158 22.1907 29.9312 23.1754 28.7497 23.1754C28.602 23.1754 28.4543 23.1754 28.2574 23.1261C28.5528 22.6338 28.7497 22.0431 28.7497 21.4523C28.7497 20.5169 28.3558 19.7292 27.7651 19.1384C28.1097 18.9415 28.4051 18.8431 28.7497 18.8431Z" fill="url(#paint0_linear_12262_142075)"/>
<path d="M34.9038 29.7718C34.8546 28.6887 34.7561 27.7041 34.6084 26.9164V26.8672C34.5592 26.4733 34.4115 26.0795 34.2146 25.6364V25.5872C34.0177 25.2425 33.673 24.8979 33.3284 24.701C33.23 24.6518 33.0823 24.5533 32.9346 24.5041L30.8177 23.7656L29.9807 25.3902L27.913 24.6518L25.8453 28.4918H25.1561L23.0884 24.6518L21.0207 25.3902L20.1838 23.7656L18.1161 24.5041C17.9684 24.5533 17.8207 24.6025 17.7223 24.701C17.3284 24.8979 17.033 25.2425 16.8361 25.5872L16.7869 25.6856C16.5407 26.0795 16.4423 26.5225 16.393 26.9164V26.9656C16.2946 27.7533 16.1961 28.7379 16.0977 29.821V30.2149H18.6084C18.5592 30.6087 18.5592 31.0518 18.51 31.5441V31.9379H32.59V31.5441C32.5407 31.0518 32.5407 30.6087 32.4915 30.2149H35.0023L34.9038 29.7718ZM16.8361 29.4272C16.8853 28.4918 16.9838 27.7041 17.0823 27.0149V26.9164C17.1315 26.621 17.23 26.3256 17.4269 25.9318C17.5746 25.6856 17.7715 25.4887 18.0669 25.2918L18.3623 25.1441L19.8392 24.6025L20.3807 25.6364C19.9377 25.8825 19.5438 26.2272 19.2977 26.6702C19.0023 27.2118 18.8053 27.7533 18.8053 28.2949C18.8053 28.3933 18.7069 28.7872 18.6577 29.3779H16.8361V29.4272ZM19.2484 31.1502C19.3469 29.3779 19.5438 28.4918 19.5438 28.4918V28.3933C19.5438 27.9995 19.6915 27.5564 19.9377 27.1133C20.1838 26.7195 20.5777 26.3749 21.0207 26.2272L22.7438 25.5872L24.713 29.2795H26.2392L28.2084 25.5872L29.9315 26.1779C30.0792 26.2272 30.1777 26.2764 30.2761 26.3256C30.5715 26.5225 30.8177 26.7195 31.0146 27.0641V27.1133C31.2115 27.5072 31.3592 27.8518 31.4084 28.1964V28.2949C31.5069 29.0825 31.6053 30.0672 31.7038 31.1502H19.2484ZM32.3438 29.4272C32.2946 28.9841 32.2453 28.5902 32.1961 28.1964V28.1472C32.1469 27.7041 31.9992 27.2118 31.7038 26.7687V26.7195C31.4577 26.3256 31.113 25.981 30.67 25.7349L31.2115 24.701L32.6392 25.2425L32.9346 25.3902C33.1807 25.5379 33.3777 25.7349 33.5746 25.981V26.0302C33.7715 26.3749 33.87 26.6702 33.9192 26.9656V27.0641C34.0177 27.7533 34.1161 28.541 34.1653 29.4764H32.3438V29.4272Z" fill="url(#paint1_linear_12262_142075)"/>
</g>
<defs>
<linearGradient id="paint0_linear_12262_142075" x1="10.8789" y1="34.012" x2="41.0086" y2="21.4451" gradientUnits="userSpaceOnUse">
<stop stop-color="#0575E6"/>
<stop offset="1" stop-color="#021B79"/>
</linearGradient>
<linearGradient id="paint1_linear_12262_142075" x1="16.0977" y1="30.14" x2="26.8395" y2="18.7097" gradientUnits="userSpaceOnUse">
<stop stop-color="#0575E6"/>
<stop offset="1" stop-color="#021B79"/>
</linearGradient>
<clipPath id="clip0_12262_142075">
<rect width="32" height="32" fill="white" transform="translate(9.5 9)"/>
</clipPath>
</defs>
</svg>
