<svg width="208" height="112" viewBox="0 0 208 112" fill="none" xmlns="http://www.w3.org/2000/svg">
<rect width="208" height="112" rx="16" fill="white"/>
<g clip-path="url(#clip0_12438_42091)">
<g clip-path="url(#clip1_12438_42091)">
<path d="M74.0366 50.9498C72.4753 50.9498 71.2653 51.4998 70.3233 52.5962C69.3812 53.6944 68.911 55.1564 68.911 56.982V65.42H64.5625V56.8347C64.5625 53.8257 65.4425 51.3827 67.2007 49.5074C68.9607 47.6321 71.3399 46.6953 74.065 46.6953L74.0366 50.9516V50.9498Z" fill="black"/>
<path d="M93.1562 71.0707C93.1562 71.0707 94.2225 70.5225 94.9801 69.0109C95.523 67.9304 95.3988 65.9469 95.3988 65.0048V46.6899H99.5965V64.9675C99.5965 67.3556 99.8023 70.7389 97.3735 73.166C97.0115 73.5279 96.1475 74.0939 96.1475 74.0939L93.1562 71.0689V71.0707Z" fill="black"/>
<path d="M85.2988 65.2372C85.2988 65.2372 85.061 65.2851 84.9546 65.301L83.4235 65.4465C80.8225 65.4465 78.6225 64.563 76.8235 62.7959C75.0245 61.0288 74.125 58.8288 74.125 56.196C74.125 53.5631 75.0476 51.2478 76.8963 49.3955C78.7432 47.5433 81.0035 46.6172 83.6772 46.6172C86.3509 46.6172 88.5508 47.5433 90.2753 49.3955C92.0016 51.2478 92.8639 53.6624 92.8639 56.636V65.4749H88.5987V56.7832C88.5987 54.9789 88.1374 53.5347 87.2131 52.4507C86.2888 51.3667 85.0628 50.8238 83.5299 50.8238C82.1443 50.8238 80.9538 51.333 79.9567 52.3549C78.9596 53.375 78.4629 54.5779 78.4629 55.9618C78.4629 57.4432 78.9916 58.6958 80.049 59.7159C81.1064 60.7361 82.4122 61.2453 83.9681 61.2453C84.5022 61.2453 85.3165 61.1229 85.3165 61.1229L85.297 65.2407L85.2988 65.2372Z" fill="black"/>
<path d="M112.744 65.2372C112.744 65.2372 112.506 65.2851 112.4 65.301L110.869 65.4465C108.268 65.4465 106.068 64.563 104.269 62.7959C102.47 61.0288 101.57 58.8288 101.57 56.196C101.57 53.5631 102.493 51.2478 104.342 49.3955C106.188 47.5433 108.449 46.6172 111.122 46.6172C113.796 46.6172 115.996 47.5433 117.721 49.3955C119.447 51.2478 120.309 53.6624 120.309 56.636V65.4749H116.044V56.7832C116.044 54.9789 115.583 53.5347 114.658 52.4507C113.734 51.3667 112.508 50.8238 110.975 50.8238C109.59 50.8238 108.399 51.333 107.402 52.3549C106.405 53.375 105.908 54.5779 105.908 55.9618C105.908 57.4432 106.437 58.6958 107.494 59.7159C108.552 60.7361 109.857 61.2453 111.413 61.2453C111.947 61.2453 112.762 61.1229 112.762 61.1229L112.742 65.2407L112.744 65.2372Z" fill="black"/>
<path d="M122.492 42.7318L126.69 38.2964V65.4555H122.492V42.7318Z" fill="black"/>
<path d="M137.724 46.6951C140.291 46.6951 142.47 47.5946 144.262 49.3954C146.054 51.1962 146.95 53.4086 146.95 56.0362C146.95 58.6637 146.054 60.9187 144.262 62.7301C142.47 64.5434 140.266 65.4482 137.651 65.4482C135.036 65.4482 132.971 64.5309 131.167 62.6929C129.362 60.8566 128.461 58.6371 128.461 56.0344C128.461 53.4317 129.357 51.1944 131.149 49.3937C132.941 47.5946 135.132 46.6934 137.724 46.6934V46.6951ZM132.783 56.1444C132.783 57.53 133.273 58.7471 134.254 59.7921C135.235 60.8389 136.392 61.3605 137.722 61.3605C139.053 61.3605 140.144 60.8371 141.137 59.7921C142.129 58.7471 142.626 57.507 142.626 56.0717C142.626 54.6363 142.142 53.4335 141.173 52.3867C140.204 51.3417 139.053 50.8183 137.722 50.8183C136.392 50.8183 135.203 51.3417 134.234 52.3867C133.265 53.4335 132.781 54.686 132.781 56.1444H132.783Z" fill="black"/>
<path d="M148.547 42.4354L152.709 38L152.745 51.2425H153.472C155.047 51.2425 156.241 50.8362 157.443 49.9065C158.644 48.9786 159.156 47.8289 159.302 46.5728L159.412 45.6148H163.15C163.15 45.6148 163.475 48.606 162.183 50.4459C161.426 51.5263 160.888 52.3531 159.584 52.9794L160.453 53.4495C160.647 53.5453 161.032 53.8416 161.612 54.3366C162.19 54.8316 162.733 55.6087 163.241 56.6714C163.748 57.7342 164 58.8306 164 59.9643V64.9817H159.836L159.765 60.0725C159.765 58.5521 159.167 57.3155 157.973 56.3627C156.779 55.41 155.243 54.9327 153.366 54.9327H152.745V64.9817H148.547V42.4354Z" fill="black"/>
<path d="M53.7658 46.9858H44.0469V73.1408L50.0542 73.1549C50.0542 73.1549 50.0489 64.9263 50.0489 64.2592C50.0489 63.3526 50.0418 59.8877 50.0418 59.838C50.0436 59.7883 50.0525 59.7759 50.0063 59.7386C49.962 59.7014 49.6373 59.3944 49.4404 59.2028C49.2434 59.0112 49.0891 58.8427 49.0412 58.754C48.9915 58.6652 48.9773 58.6209 48.9099 58.4186C48.8442 58.2146 48.7449 57.9059 48.6633 57.5582C48.5817 57.2122 48.5125 56.9141 48.5213 56.6374C48.5302 56.3588 48.5338 56.334 48.5462 56.2754C48.5568 56.2169 48.5888 56.2701 48.6278 56.3003C48.6668 56.3304 49.7438 57.2317 49.8538 57.3222C49.9638 57.4127 50.0205 57.4553 50.0542 57.4215C50.0879 57.3878 50.6557 56.962 50.8437 56.8485C51.0336 56.7349 51.1684 56.6338 51.2571 56.6249C51.3441 56.6161 52.0555 56.5043 52.4228 56.4617C52.7918 56.4209 52.8291 56.4191 52.8841 56.412C52.9373 56.4067 52.9178 56.4103 52.8592 56.4493C52.8024 56.4883 52.3962 56.7367 51.9881 57.1856C51.58 57.6327 51.2589 57.9875 51.0921 58.5304C50.9236 59.0715 50.952 59.2472 50.9502 59.3891C50.9484 59.531 50.9484 59.5488 50.9857 59.5648C51.0229 59.5789 50.8846 59.0609 52.0236 57.6451C52.4831 57.0756 52.7634 56.8857 53.1076 56.6374C53.4518 56.3872 53.6842 56.2346 53.8616 56.1761C54.039 56.1175 54.3886 56.0164 54.699 55.9774C55.0095 55.9366 55.2171 55.9046 55.006 55.8762C54.7931 55.8496 54.6103 55.8337 54.5571 55.8141C54.5039 55.7964 54.4311 55.7361 54.3797 55.6651C54.33 55.5941 54.3336 55.5125 54.3566 55.4416C54.3797 55.3706 54.5429 54.975 54.5695 54.8933C54.5961 54.81 54.5855 54.7958 54.5092 54.8685C54.4347 54.9412 54.1047 55.2553 53.9557 55.328C53.8066 55.4025 53.741 55.4522 53.4021 55.3795C53.0632 55.305 52.8113 55.2074 52.6002 55.1045C52.3908 55.0016 52.3234 54.9892 52.3057 54.8809C52.2879 54.7709 52.2383 54.5101 52.2347 54.2085C52.2365 54.118 52.2542 54.0843 52.3287 54.0577C52.4032 54.0329 54.8747 53.3001 55.006 53.2611C55.1373 53.2221 55.2845 53.2043 55.4052 53.2487C55.5276 53.293 55.6695 53.3463 55.7121 53.4971C55.7564 53.6496 56.2443 55.1116 56.4076 55.6651C56.5726 56.2187 56.6293 56.428 56.656 56.499C56.6808 56.5717 56.7145 56.6551 56.6435 56.7367C56.5726 56.8183 54.3353 59.1762 54.2271 59.2773C54.1189 59.3785 54.1029 59.3856 54.1207 59.5151C54.1402 59.6428 54.3886 62.3041 54.4045 62.4034C54.4205 62.5046 54.511 62.9055 54.534 63.0829C54.7505 64.6815 55.469 65.4674 55.6287 65.4674C55.8221 65.4674 62.3404 64.772 62.3706 56.4049C62.4007 47.6228 55.2437 46.9858 53.7658 46.9858ZM50.7373 56.6125C50.7036 56.6746 50.331 56.9993 50.1713 57.0596C50.0134 57.1217 50.0134 57.1324 49.9017 57.0472C49.7881 56.9638 49.4031 56.6338 49.0163 56.2754C48.6313 55.917 48.312 55.5888 48.2393 55.5037C48.1647 55.4167 48.1293 55.2996 48.1914 55.1914C48.2534 55.085 48.4876 54.7372 48.8052 54.4942C48.9063 54.4214 49.1157 54.2777 49.2168 54.3948C49.3197 54.5119 50.3878 56.0075 50.7018 56.4617C50.7515 56.538 50.7728 56.5487 50.7373 56.6125ZM52.3891 56.0891C52.4352 56.1672 52.4068 56.1406 52.2578 56.1761C52.1105 56.2116 51.1702 56.3677 51.0566 56.3748C50.9413 56.3837 50.9626 56.3783 50.9023 56.3127C50.8065 56.2151 50.6858 56.0696 50.5013 55.8141C50.3186 55.5587 50.0436 55.1825 49.8538 54.9182C49.6639 54.6538 49.4226 54.2245 49.3818 54.1198C49.3428 54.0169 49.357 54.0045 49.4067 53.9087C49.5025 53.7384 49.7544 53.4953 49.9602 53.3605C50.166 53.2256 50.3275 53.1635 50.4676 53.1121C50.606 53.0606 50.6557 53.0979 50.7018 53.1617C50.7497 53.2238 51.2447 54.0506 51.5286 54.5314C51.8107 55.0122 52.3412 56.0111 52.3891 56.0891ZM52.9657 53.623C52.8557 53.6532 52.1708 53.8732 52.0821 53.9087C51.9916 53.9459 51.9633 53.9708 51.9526 54.0825C51.942 54.1961 51.9703 54.5509 51.9757 54.6556C51.9899 54.7709 51.9863 54.7354 51.9278 54.6432C51.871 54.5527 51.6457 54.2014 51.3512 53.7348C51.0566 53.2682 50.9697 53.1121 50.9271 53.0127C50.8828 52.9134 50.8633 52.9382 51.0921 52.7377C51.3192 52.5372 51.5641 52.4219 51.8337 52.3137C52.1052 52.2072 52.2081 52.1789 52.3287 52.1771C52.4494 52.1753 52.4582 52.1984 52.4937 52.264C52.531 52.3314 52.9763 53.3427 53.0366 53.4722C53.097 53.6035 53.0757 53.5911 52.9657 53.623ZM54.9102 53.0624C54.8339 53.0837 53.5316 53.4509 53.4607 53.4722C53.3897 53.4953 53.3719 53.5095 53.3311 53.4226C53.2815 53.3019 52.8681 52.4982 52.7882 52.3137C52.7102 52.1292 52.6641 52.0511 52.7545 52.0032C52.8432 51.9553 53.2211 51.8063 53.45 51.7406C53.6771 51.6768 54.0657 51.549 54.1561 51.5171C54.2466 51.4852 54.3034 51.4727 54.3336 51.5419C54.3637 51.6111 54.9173 52.8566 54.9456 52.9364C54.974 53.018 54.9865 53.0411 54.9102 53.0624Z" fill="#03947E"/>
<path d="M53.7658 46.9858H44.0469V73.1408L50.0542 73.1549C50.0542 73.1549 50.0489 64.9263 50.0489 64.2592C50.0489 63.3526 50.0418 59.8877 50.0418 59.838C50.0436 59.7883 50.0525 59.7759 50.0063 59.7386C49.962 59.7014 49.6373 59.3944 49.4404 59.2028C49.2434 59.0112 49.0891 58.8427 49.0412 58.754C48.9915 58.6652 48.9773 58.6209 48.9099 58.4186C48.8442 58.2146 48.7449 57.9059 48.6633 57.5582C48.5817 57.2122 48.5125 56.9141 48.5213 56.6374C48.5267 56.4724 48.5302 56.3961 48.5355 56.3499C48.5355 56.3375 48.5355 56.3287 48.5355 56.318C48.5409 56.2133 48.5444 56.1885 48.5533 56.1459C48.5639 56.0856 48.5976 56.1406 48.6384 56.1725C48.6775 56.2045 49.7917 57.1359 49.9052 57.2282C50.0188 57.3222 50.0773 57.3665 50.1128 57.3311C50.1483 57.2974 50.7337 56.8574 50.9289 56.7385C51.1258 56.6214 51.2642 56.5167 51.3565 56.5078C51.447 56.499 52.1815 56.3837 52.5612 56.3393C52.9426 56.2967 52.9816 56.2949 53.0384 56.2878C53.0934 56.2825 53.0739 56.2878 53.0118 56.3269C52.9958 56.3375 52.9515 56.3659 52.8858 56.412C52.9355 56.4067 52.9142 56.4103 52.8574 56.4493C52.8291 56.4688 52.7191 56.538 52.5665 56.6533C52.5629 56.6569 52.5576 56.6622 52.5523 56.664C52.4174 56.7793 52.2649 56.9195 52.1123 57.088C51.69 57.5493 51.3583 57.9165 51.1862 58.4772C51.0389 58.9544 51.0371 59.1567 51.0389 59.2969C51.1187 59.013 51.3441 58.4878 52.0218 57.6451C52.4671 57.0916 52.7439 56.8982 53.0739 56.6604C53.1378 56.6143 53.2034 56.5682 53.269 56.5203C53.6257 56.263 53.8652 56.1051 54.0497 56.0448C54.2129 55.9898 54.5216 55.9011 54.8144 55.8532C54.6884 55.839 54.5908 55.8283 54.5553 55.8141C54.5021 55.7964 54.4294 55.7361 54.3779 55.6651C54.3282 55.5941 54.3318 55.5125 54.3548 55.4416C54.3779 55.3706 54.5411 54.975 54.5677 54.8933C54.5784 54.8579 54.5837 54.8348 54.5784 54.8259C54.5731 54.8135 54.55 54.8277 54.5074 54.8685C54.4737 54.9022 54.3868 54.9838 54.2892 55.0725C54.2857 55.0743 54.2839 55.0761 54.2821 55.0779C54.165 55.1808 54.0337 55.289 53.9539 55.328C53.8048 55.4025 53.7392 55.4522 53.4003 55.3795C53.0615 55.305 52.8095 55.2074 52.5984 55.1045C52.3891 55.0016 52.3216 54.9892 52.3039 54.8809C52.2862 54.7709 52.2365 54.5101 52.2329 54.2085C52.2347 54.118 52.2524 54.0843 52.327 54.0577C52.3323 54.0577 52.3465 54.0524 52.3695 54.0453C52.3678 54.0346 52.3678 54.0222 52.3678 54.0098C52.3695 53.9158 52.3873 53.8821 52.4636 53.8537C52.5416 53.8288 55.0964 53.0713 55.2313 53.0305C55.3679 52.9897 55.5205 52.9719 55.6447 53.018C55.7706 53.0642 55.9179 53.1192 55.9622 53.2735C56.0084 53.4314 56.5122 54.943 56.6808 55.5161C56.8511 56.0874 56.9097 56.3038 56.938 56.3783C56.9629 56.4528 56.9984 56.5398 56.9256 56.6232C56.8511 56.7083 54.5394 59.146 54.4276 59.2507C54.3158 59.3554 54.2981 59.3625 54.3176 59.4956C54.3371 59.6286 54.5944 62.3786 54.6103 62.4815C54.6263 62.5862 54.7203 63.0013 54.7452 63.1841C54.9084 64.3852 55.3448 65.1428 55.6323 65.4674C55.9197 65.4568 62.3386 64.7081 62.3688 56.4049C62.399 47.6228 55.2419 46.9858 53.764 46.9858H53.7658ZM50.8207 56.4954C50.8136 56.5096 50.7887 56.5362 50.7533 56.5699C50.7533 56.5824 50.7479 56.5948 50.7373 56.6125C50.7036 56.6746 50.331 56.9993 50.1713 57.0596C50.0134 57.1217 50.0134 57.1324 49.9017 57.0472C49.7881 56.9638 49.4031 56.6338 49.0163 56.2754C48.6313 55.917 48.312 55.5888 48.2393 55.5037C48.1754 55.4291 48.1399 55.3298 48.1718 55.2358C48.147 55.1683 48.1488 55.0956 48.1878 55.0264C48.2534 54.9164 48.4947 54.5563 48.823 54.3043C48.9276 54.2298 49.1441 54.0808 49.2488 54.2032C49.3552 54.3238 50.4588 55.8691 50.7834 56.3393C50.8349 56.4174 50.8579 56.4298 50.8207 56.4954ZM52.5292 55.9543C52.5753 56.0341 52.547 56.0075 52.3926 56.0448C52.3855 56.0466 52.3766 56.0483 52.366 56.0501C52.3766 56.0696 52.3855 56.082 52.3891 56.0891C52.4352 56.1672 52.4068 56.1406 52.2578 56.1761C52.1105 56.2116 51.1702 56.3677 51.0566 56.3748C50.9413 56.3837 50.9626 56.3783 50.9023 56.3127C50.8065 56.2151 50.6858 56.0696 50.5013 55.8141C50.3186 55.5587 50.0436 55.1825 49.8538 54.9182C49.6639 54.6538 49.4226 54.2245 49.3818 54.1198C49.3428 54.0169 49.357 54.0045 49.4067 53.9087C49.4084 53.9051 49.4102 53.9034 49.412 53.8998C49.3801 53.8093 49.3978 53.7934 49.4457 53.6993C49.5433 53.5237 49.8041 53.2717 50.017 53.1334C50.2299 52.9932 50.3967 52.9293 50.5421 52.8761C50.6841 52.8229 50.7355 52.8619 50.7834 52.9276C50.8331 52.9914 51.3458 53.8466 51.6386 54.3434C51.9295 54.8401 52.4795 55.8727 52.5292 55.9543ZM53.1253 53.4048C53.1058 53.4101 53.0686 53.4208 53.0189 53.435C53.026 53.4509 53.0331 53.4634 53.0366 53.4722C53.097 53.6035 53.0757 53.5911 52.9657 53.623C52.8557 53.6532 52.1708 53.8732 52.0821 53.9087C52.0803 53.9087 52.0786 53.9105 52.0768 53.9122C51.9899 53.9477 51.9633 53.9725 51.9526 54.0825C51.9491 54.1287 51.9526 54.2138 51.9562 54.3079C51.9615 54.4427 51.9721 54.5935 51.9757 54.6556C51.9899 54.7709 51.9863 54.7354 51.9278 54.6432C51.871 54.5527 51.6457 54.2014 51.3512 53.7348C51.0566 53.2682 50.9697 53.1121 50.9271 53.0127C50.8881 52.924 50.8686 52.9347 51.0265 52.7945C51.0229 52.7874 51.0212 52.7803 51.0176 52.7732C50.9715 52.6703 50.9502 52.6969 51.1879 52.4893C51.4221 52.2818 51.6758 52.1629 51.9544 52.0511C52.2347 51.9411 52.3412 51.911 52.4653 51.9092C52.5913 51.9074 52.6002 51.9322 52.6374 51.9997C52.6747 52.0689 53.136 53.1156 53.1981 53.2487C53.2602 53.3835 53.2389 53.3711 53.1253 53.4048ZM55.1355 52.8247C55.1177 52.83 55.0379 52.853 54.9244 52.885C54.935 52.9116 54.9439 52.9293 54.9456 52.9364C54.974 53.018 54.9865 53.0411 54.9102 53.0624C54.8339 53.0837 53.5316 53.4509 53.4607 53.4722C53.3897 53.4953 53.3719 53.5095 53.3311 53.4226C53.2815 53.3019 52.8681 52.4982 52.7882 52.3137C52.7102 52.1292 52.6641 52.0511 52.7545 52.0032C52.7811 51.989 52.8308 51.966 52.8947 51.9393C52.8468 51.8258 52.8344 51.769 52.9053 51.73C52.9976 51.6803 53.3879 51.526 53.6257 51.4585C53.8598 51.3929 54.2608 51.2598 54.3548 51.2279C54.4489 51.1942 54.5074 51.1818 54.5394 51.2527C54.5695 51.3237 55.1426 52.6118 55.171 52.6951C55.2011 52.7785 55.2135 52.8034 55.1355 52.8247Z" fill="url(#paint0_linear_12438_42091)"/>
<path d="M53.7658 47.0747C54.3797 47.0747 57.5626 47.1918 59.8708 49.5071C61.4817 51.1234 62.2925 53.444 62.2819 56.4051C62.2535 64.4137 56.2284 65.3132 55.6713 65.3753C55.3555 64.9992 54.9794 64.2363 54.8356 63.1718C54.8197 63.0582 54.7789 62.8613 54.7469 62.7016C54.7256 62.597 54.7061 62.5065 54.7008 62.4674C54.6937 62.4195 54.6227 61.6903 54.5624 61.0445C54.4897 60.2763 54.4187 59.5525 54.4098 59.4815C54.4016 59.4283 54.4229 59.3786 54.4737 59.3325L54.4932 59.3147C54.5855 59.2278 56.8795 56.8149 56.9984 56.6801C57.1013 56.563 57.0569 56.437 57.0321 56.3607L57.0268 56.3448C57.0108 56.3039 56.9842 56.2081 56.9327 56.0343C56.8955 55.9048 56.8422 55.7273 56.773 55.4896C56.663 55.117 56.4164 54.363 56.2372 53.8112C56.1432 53.5256 56.0705 53.3003 56.0545 53.247C55.9977 53.0483 55.815 52.9809 55.6819 52.933C55.6234 52.9117 55.556 52.8993 55.485 52.8993C55.4016 52.8993 55.3094 52.9135 55.2135 52.9437C55.1976 52.949 55.1426 52.9649 55.061 52.9898C55.0592 52.9738 55.0539 52.9578 55.0485 52.9419C55.1124 52.9241 55.155 52.9117 55.1656 52.9082C55.2047 52.8975 55.2508 52.8798 55.2756 52.8319C55.3023 52.7787 55.2845 52.7272 55.2632 52.6722L55.2597 52.6651C55.2402 52.6066 54.9971 52.0583 54.7523 51.5013C54.6848 51.3469 54.6352 51.2351 54.6263 51.2138C54.5961 51.1464 54.5411 51.1092 54.4702 51.1092C54.4276 51.1092 54.385 51.1216 54.3318 51.1411C54.2448 51.1713 53.8403 51.3043 53.6061 51.37C53.3666 51.4374 52.971 51.5935 52.8681 51.6485C52.7581 51.7088 52.7616 51.8046 52.7865 51.888C52.7581 51.9004 52.735 51.9129 52.7173 51.9217C52.7137 51.9235 52.7084 51.9271 52.7049 51.9288C52.6587 51.8508 52.6126 51.8171 52.4813 51.8171H52.4671C52.3216 51.8188 52.1992 51.8579 51.9242 51.9661C51.6173 52.0885 51.3654 52.2145 51.1329 52.4203L51.0975 52.4522C50.9218 52.6048 50.8704 52.6509 50.9218 52.7698C50.8881 52.8017 50.8615 52.8283 50.842 52.8532C50.8047 52.807 50.7479 52.7609 50.6575 52.7609C50.6149 52.7609 50.5687 52.7716 50.5138 52.7911C50.3488 52.8514 50.1838 52.917 49.9709 53.0572C49.7633 53.192 49.483 53.4511 49.3694 53.6569L49.3552 53.6835C49.318 53.7562 49.2967 53.8024 49.318 53.8875C49.2736 53.9727 49.2576 54.0188 49.2878 54.1146C49.2488 54.0827 49.1991 54.0649 49.1441 54.0649C49.0199 54.0649 48.8868 54.1483 48.7697 54.2317C48.461 54.4677 48.2109 54.8119 48.1115 54.9804C48.0672 55.0602 48.0565 55.1472 48.0796 55.2359C48.0547 55.3441 48.0885 55.4612 48.1718 55.5588C48.2304 55.6262 48.4593 55.8657 48.7715 56.1638C48.7289 56.1283 48.7005 56.1052 48.6952 56.0999C48.6881 56.0946 48.681 56.0875 48.6739 56.0804C48.6491 56.0573 48.6189 56.0272 48.5728 56.0272C48.5586 56.0272 48.4859 56.0325 48.4681 56.1248C48.4575 56.1744 48.4539 56.2046 48.4486 56.3146C48.4486 56.3217 48.4486 56.327 48.4486 56.3359C48.4433 56.3838 48.4397 56.4548 48.4344 56.6304C48.4255 56.9231 48.5001 57.2389 48.5781 57.5743C48.6597 57.9255 48.7609 58.236 48.8265 58.4418L48.8318 58.4578C48.8957 58.6476 48.9117 58.6973 48.9631 58.7913C49.0252 58.9067 49.2239 59.1107 49.3783 59.2615C49.5699 59.4478 49.9017 59.7618 49.9496 59.8026C49.9496 59.8026 49.9531 59.8044 49.9531 59.8062C49.9531 59.8062 49.9531 59.8062 49.9531 59.8079V59.8328V60.1894C49.9531 61.1049 49.9602 63.5195 49.9602 64.254C49.9602 64.8803 49.9655 72.1704 49.9655 73.061L44.1356 73.0469V47.0747H53.7658ZM53.2495 53.4582C53.2495 53.4582 53.2495 53.4582 53.2495 53.4599C53.2566 53.4759 53.2673 53.4972 53.2815 53.5167C53.2389 53.5291 53.1963 53.5416 53.1573 53.554C53.1555 53.5327 53.1502 53.5132 53.1413 53.4919C53.1449 53.4919 53.1466 53.4919 53.1502 53.4901L53.1821 53.4812C53.2052 53.4741 53.2282 53.4688 53.2495 53.4582ZM52.2879 53.9319C52.2844 53.9478 52.2826 53.9638 52.2826 53.9816C52.1726 54.0277 52.1478 54.1057 52.146 54.2104C52.1495 54.4854 52.1903 54.7249 52.2116 54.8544L52.2187 54.8953C52.2418 55.0319 52.327 55.0727 52.4707 55.1401C52.4973 55.1525 52.5274 55.1667 52.5612 55.1844C52.8184 55.3104 53.081 55.3991 53.3826 55.4665C53.5015 55.4914 53.5937 55.5038 53.6682 55.5038C53.8031 55.5038 53.8794 55.4648 53.9681 55.4204L53.9947 55.408C54.0674 55.3725 54.1757 55.2909 54.3371 55.149H54.3406L54.3495 55.1383C54.3655 55.1241 54.3797 55.1099 54.3956 55.0975C54.3886 55.1152 54.3815 55.133 54.3744 55.1507C54.3265 55.2732 54.2839 55.3778 54.2715 55.4151C54.2342 55.5286 54.2466 55.6315 54.3069 55.7185C54.3424 55.7681 54.3868 55.8125 54.4294 55.8444C54.2697 55.8835 54.126 55.9278 54.0231 55.9615C53.8261 56.0254 53.5795 56.1886 53.2176 56.4494C53.1803 56.4778 53.1413 56.5044 53.104 56.531L53.0224 56.5896L52.9976 56.6073C52.6747 56.8397 52.3944 57.042 51.9526 57.5902C51.6173 58.0072 51.3884 58.3513 51.2341 58.6299C51.2447 58.5909 51.2571 58.5483 51.2713 58.5039C51.4399 57.9557 51.7663 57.5991 52.1779 57.1485C52.3021 57.0118 52.4405 56.877 52.602 56.7386C52.6108 56.7333 52.6179 56.7262 52.6232 56.7209C52.7421 56.6304 52.8361 56.5701 52.8805 56.5399L52.9071 56.5222C52.9213 56.5115 52.9337 56.5044 52.9426 56.4991C52.955 56.492 52.9834 56.4725 52.9976 56.4423C53.0207 56.4264 53.0366 56.4157 53.049 56.4086L53.0615 56.3998C53.0757 56.3909 53.0863 56.3838 53.0952 56.3785C53.12 56.3643 53.1768 56.3288 53.1573 56.2614L53.1324 56.1957H53.065C53.065 56.1957 53.0473 56.1957 53.0278 56.1975C53.0065 56.1993 52.9887 56.201 52.955 56.2046C52.8965 56.2099 52.7918 56.2206 52.5523 56.2472C52.3163 56.2756 51.9473 56.3288 51.6758 56.3696C51.6279 56.3767 51.5818 56.3838 51.541 56.3891C51.8426 56.3394 52.1886 56.2809 52.2791 56.2578C52.3163 56.2489 52.3447 56.2436 52.3678 56.2401C52.4157 56.233 52.4653 56.2241 52.4902 56.1727C52.5008 56.1496 52.5026 56.1283 52.4973 56.1088C52.5008 56.1088 52.5026 56.1088 52.5044 56.1088C52.5541 56.0999 52.6037 56.0928 52.6286 56.0396C52.6534 55.9864 52.6268 55.9402 52.6055 55.903C52.5895 55.8781 52.515 55.738 52.4192 55.5623C52.3039 55.3477 52.1531 55.0727 52.0094 54.8119H52.0236L52.0502 54.7817C52.0786 54.748 52.075 54.7214 52.0662 54.6451L52.0626 54.5812C52.0573 54.5067 52.0502 54.3985 52.0466 54.2974C52.0413 54.2033 52.0395 54.1235 52.0431 54.0862C52.0502 54.0153 52.052 54.0153 52.1123 53.9886L52.13 53.9816C52.1602 53.9691 52.217 53.9496 52.2897 53.9265M51.2908 56.4281C51.2181 56.4512 51.1347 56.5027 51.03 56.5701C50.9857 56.5985 50.9378 56.6268 50.8863 56.6588C50.8384 56.6872 50.7657 56.7368 50.6841 56.7954C50.7515 56.7351 50.8012 56.6818 50.8154 56.6535C50.8225 56.641 50.8313 56.6268 50.8367 56.6109C50.881 56.5665 50.8952 56.547 50.9005 56.5346C50.9183 56.5027 50.9271 56.4743 50.9289 56.4494C50.9466 56.4565 50.9697 56.4618 50.9981 56.4618C51.0141 56.4618 51.0354 56.4618 51.0637 56.4583C51.0939 56.4565 51.1791 56.4441 51.2908 56.4281ZM50.2263 57.1289C50.1607 57.1786 50.1075 57.2194 50.0773 57.2425C50.0596 57.2318 50.0329 57.2123 50.0099 57.1928C50.0134 57.1928 50.017 57.1928 50.0205 57.1928C50.0667 57.1928 50.1057 57.1768 50.1713 57.1502L50.2033 57.1378C50.2033 57.1378 50.2175 57.1325 50.2263 57.1289ZM53.7676 46.9824H44.0469V73.1373L50.0542 73.1515C50.0542 73.1515 50.0489 64.9229 50.0489 64.2558C50.0489 63.3492 50.0418 59.8842 50.0418 59.8346C50.0436 59.7849 50.0525 59.7725 50.0063 59.7352C49.962 59.6979 49.6373 59.391 49.4404 59.1994C49.2434 59.0078 49.0891 58.8392 49.0412 58.7505C48.9915 58.6618 48.9773 58.6175 48.9099 58.4152C48.8442 58.2112 48.7449 57.9025 48.6633 57.5547C48.5817 57.2088 48.5125 56.9107 48.5213 56.6339C48.5267 56.4689 48.5302 56.3927 48.5355 56.3465C48.5355 56.3341 48.5355 56.3252 48.5355 56.3146C48.5409 56.2099 48.5444 56.1851 48.5533 56.1425C48.5568 56.123 48.5622 56.1159 48.571 56.1159C48.587 56.1159 48.6118 56.1478 48.6384 56.1691C48.6775 56.201 49.7917 57.1325 49.9052 57.2247C49.9921 57.2975 50.0471 57.3401 50.0844 57.3401C50.095 57.3401 50.1057 57.3365 50.1128 57.3276C50.1483 57.2939 50.7337 56.8539 50.9289 56.7351C51.1258 56.618 51.2642 56.5133 51.3565 56.5044C51.447 56.4956 52.1815 56.3802 52.5612 56.3359C52.9426 56.2933 52.9816 56.2915 53.0384 56.2844C53.0508 56.2844 53.0597 56.2827 53.065 56.2827C53.0828 56.2827 53.0615 56.2915 53.0118 56.3235C52.9958 56.3341 52.9515 56.3625 52.8858 56.4086C52.8965 56.4086 52.9053 56.4068 52.9089 56.4068C52.9249 56.4068 52.9018 56.4157 52.8574 56.4459C52.8291 56.4654 52.7191 56.5346 52.5665 56.6499C52.5629 56.6535 52.5576 56.6588 52.5523 56.6606C52.4174 56.7759 52.2649 56.916 52.1123 57.0846C51.69 57.5459 51.3583 57.9131 51.1862 58.4738C51.0389 58.951 51.0371 59.1533 51.0389 59.2934C51.1187 59.0096 51.3441 58.4844 52.0218 57.6417C52.4671 57.0881 52.7439 56.8947 53.0739 56.657C53.1378 56.6109 53.2034 56.5648 53.269 56.5168C53.6257 56.2596 53.8652 56.1017 54.0497 56.0414C54.2129 55.9864 54.5216 55.8977 54.8144 55.8498C54.6884 55.8356 54.5908 55.8249 54.5553 55.8107C54.5021 55.793 54.4294 55.7327 54.3779 55.6617C54.3282 55.5907 54.3318 55.5091 54.3548 55.4381C54.3779 55.3672 54.5411 54.9715 54.5677 54.8899C54.5784 54.8544 54.5837 54.8314 54.5784 54.8225C54.5784 54.8225 54.5748 54.8172 54.5731 54.8172C54.5624 54.8172 54.5411 54.8332 54.5074 54.8651C54.4737 54.8988 54.3868 54.9804 54.2892 55.0691C54.2857 55.0709 54.2839 55.0727 54.2821 55.0744C54.165 55.1773 54.0337 55.2856 53.9539 55.3246C53.8563 55.3743 53.7942 55.4115 53.6682 55.4115C53.6026 55.4115 53.5174 55.4009 53.4003 55.3761C53.0615 55.3015 52.8095 55.204 52.5984 55.1011C52.3891 54.9982 52.3216 54.9857 52.3039 54.8775C52.2862 54.7675 52.2365 54.5067 52.2329 54.2051C52.2347 54.1146 52.2524 54.0809 52.327 54.0543C52.3323 54.0543 52.3465 54.049 52.3695 54.0419C52.3678 54.0312 52.3678 54.0188 52.3678 54.0064C52.3695 53.9124 52.3873 53.8786 52.4636 53.8503C52.5416 53.8254 55.0964 53.0678 55.2313 53.027C55.3111 53.004 55.3963 52.988 55.4779 52.988C55.5364 52.988 55.5932 52.9969 55.6447 53.0146C55.7706 53.0608 55.9179 53.1158 55.9622 53.2701C56.0084 53.428 56.5122 54.9396 56.6808 55.5127C56.8511 56.0839 56.9097 56.3004 56.938 56.3749C56.9629 56.4494 56.9984 56.5364 56.9256 56.6198C56.8511 56.7049 54.5394 59.1426 54.4276 59.2473C54.3158 59.352 54.2981 59.3591 54.3176 59.4921C54.3371 59.6252 54.5944 62.3752 54.6103 62.4781C54.6263 62.5828 54.7203 62.9979 54.7452 63.1807C54.9084 64.3818 55.3448 65.1393 55.6323 65.464C55.9197 65.4534 62.3386 64.7047 62.3688 56.4015C62.399 47.6194 55.2419 46.9824 53.764 46.9824H53.7676ZM53.3968 53.4866C53.3737 53.4866 53.3578 53.4706 53.3329 53.4191C53.2832 53.2985 52.8699 52.4948 52.79 52.3103C52.712 52.1258 52.6658 52.0477 52.7563 51.9998C52.7829 51.9856 52.8326 51.9625 52.8965 51.9359C52.8486 51.8224 52.8361 51.7656 52.9071 51.7266C52.9994 51.6769 53.3897 51.5225 53.6274 51.4551C53.8616 51.3895 54.2626 51.2564 54.3566 51.2245C54.401 51.2085 54.4365 51.1979 54.4666 51.1979C54.5003 51.1979 54.5234 51.2121 54.5411 51.2493C54.5713 51.3203 55.1444 52.6083 55.1727 52.6917C55.2029 52.7751 55.2153 52.7999 55.1373 52.8212C55.1195 52.8266 55.0397 52.8496 54.9261 52.8816C54.9368 52.9082 54.9456 52.9259 54.9474 52.933C54.9758 53.0146 54.9882 53.0377 54.9119 53.059C54.8356 53.0803 53.5334 53.4475 53.4624 53.4688C53.4323 53.4777 53.4128 53.4866 53.3968 53.4866ZM51.9828 54.7249C51.9828 54.7249 51.9615 54.6912 51.9295 54.6398C51.8728 54.5493 51.6474 54.198 51.3529 53.7314C51.0584 53.2648 50.9715 53.1087 50.9289 53.0093C50.8899 52.9206 50.8704 52.9312 51.0283 52.7911C51.0247 52.784 51.0229 52.7769 51.0194 52.7698C50.9733 52.6669 50.952 52.6935 51.1897 52.4859C51.4239 52.2783 51.6776 52.1595 51.9562 52.0477C52.2365 51.9377 52.3429 51.9075 52.4671 51.9058C52.4707 51.9058 52.476 51.9058 52.4795 51.9058C52.5949 51.9058 52.6037 51.9306 52.6392 51.9962C52.6765 52.0654 53.1378 53.1122 53.1999 53.2453C53.262 53.3801 53.2407 53.3677 53.1271 53.4014C53.1076 53.4067 53.0703 53.4174 53.0207 53.4316C53.0278 53.4475 53.0349 53.4599 53.0384 53.4688C53.0987 53.6001 53.0774 53.5877 52.9674 53.6196C52.8574 53.6498 52.1726 53.8698 52.0839 53.9053C52.0821 53.9053 52.0803 53.907 52.0786 53.9088C51.9916 53.9443 51.965 53.9691 51.9544 54.0791C51.9508 54.1253 51.9544 54.2104 51.9579 54.3045C51.9633 54.4393 51.9739 54.5901 51.9774 54.6522C51.9845 54.7036 51.9863 54.7249 51.9828 54.7249ZM50.9981 56.3749C50.9484 56.3749 50.9502 56.3607 50.9041 56.3093C50.8083 56.2117 50.6876 56.0662 50.5031 55.8107C50.3204 55.5552 50.0454 55.1791 49.8555 54.9148C49.6657 54.6504 49.4244 54.2211 49.3836 54.1164C49.3446 54.0135 49.3588 54.0011 49.4084 53.9053C49.4102 53.9017 49.412 53.8999 49.4138 53.8964C49.3818 53.8059 49.3996 53.7899 49.4475 53.6959C49.545 53.5203 49.8059 53.2683 50.0188 53.1299C50.2317 52.9898 50.3984 52.9259 50.5439 52.8727C50.59 52.8549 50.6273 52.8479 50.6575 52.8479C50.7196 52.8479 50.7533 52.8798 50.7852 52.9241C50.8349 52.988 51.3476 53.8432 51.6404 54.3399C51.9313 54.8367 52.4813 55.8693 52.531 55.9509C52.5771 56.0307 52.5487 56.0041 52.3944 56.0414C52.3873 56.0431 52.3784 56.0449 52.3678 56.0467C52.3784 56.0662 52.3873 56.0786 52.3908 56.0857C52.437 56.1638 52.4086 56.1372 52.2595 56.1727C52.1123 56.2081 51.172 56.3643 51.0584 56.3714C51.0318 56.3731 51.0123 56.3749 50.9981 56.3749ZM50.0205 57.1059C49.9868 57.1059 49.9584 57.0881 49.9017 57.0438C49.7881 56.9604 49.4031 56.6304 49.0163 56.272C48.6313 55.9136 48.312 55.5854 48.2393 55.5002C48.1754 55.4257 48.1399 55.3264 48.1718 55.2323C48.147 55.1649 48.1488 55.0922 48.1878 55.023C48.2534 54.913 48.4947 54.5528 48.823 54.3009C48.8992 54.2459 49.0341 54.1536 49.1423 54.1536C49.1831 54.1536 49.2204 54.1661 49.2488 54.1998C49.3552 54.3204 50.4588 55.8657 50.7834 56.3359C50.8349 56.4139 50.8579 56.4264 50.8207 56.492C50.8136 56.5062 50.7887 56.5328 50.7533 56.5665C50.7533 56.5789 50.7479 56.5914 50.7373 56.6091C50.7036 56.6712 50.331 56.9959 50.1713 57.0562C50.0933 57.0864 50.0542 57.1059 50.0205 57.1059Z" fill="url(#paint1_linear_12438_42091)"/>
<path d="M52.5578 56.6641C52.4229 56.7794 52.2704 56.9195 52.1178 57.0881C51.6955 57.5494 51.3638 57.9166 51.1917 58.4773C51.0444 58.9545 51.0426 59.1568 51.0444 59.2969C50.9912 59.4903 51.0036 59.5702 50.9894 59.5648C50.9522 59.5489 50.9522 59.5311 50.9539 59.3892C50.9557 59.2473 50.9273 59.0716 51.0959 58.5305C51.2626 57.9876 51.5838 57.6328 51.9918 57.1857C52.1958 56.9604 52.3981 56.7883 52.5578 56.6641Z" fill="#EA5300"/>
<path d="M54.7016 55.9777C54.3912 56.0167 54.0417 56.1179 53.8642 56.1764C53.717 56.2243 53.5307 56.3396 53.2734 56.5206C53.63 56.2634 53.8696 56.1054 54.0541 56.0451C54.2173 55.9901 54.526 55.9014 54.8187 55.8535C54.8773 55.8606 54.9412 55.8677 55.0086 55.8766C55.2197 55.905 55.0121 55.9369 54.7016 55.9777Z" fill="#EA5300"/>
<path d="M53.0153 56.3271C52.9993 56.3378 52.955 56.3662 52.8893 56.4123H52.8858C52.8308 56.4194 52.7935 56.4212 52.4245 56.462C52.0573 56.5045 51.3458 56.6163 51.2589 56.6252C51.1702 56.6341 51.0353 56.7352 50.8455 56.8487C50.6574 56.9623 50.0897 57.3881 50.056 57.4218C50.0223 57.4555 49.9655 57.4129 49.8555 57.3224C49.7455 57.232 48.6686 56.3307 48.6295 56.3005C48.5905 56.2704 48.5586 56.2171 48.5479 56.2757C48.5444 56.2899 48.5408 56.3023 48.5391 56.3183C48.5444 56.2136 48.5479 56.1887 48.5568 56.1462C48.5674 56.0858 48.6012 56.1408 48.642 56.1728C48.681 56.2047 49.7952 57.1362 49.9087 57.2284C50.0223 57.3224 50.0808 57.3668 50.1163 57.3313C50.1518 57.2976 50.7373 56.8576 50.9324 56.7387C51.1294 56.6216 51.2677 56.517 51.36 56.5081C51.4505 56.4992 52.185 56.3839 52.5647 56.3395C52.9461 56.297 52.9851 56.2952 53.0419 56.2881C53.0969 56.2828 53.0774 56.2881 53.0153 56.3271Z" fill="#EA5300"/>
<path d="M54.317 59.4956C54.3365 59.6287 54.5938 62.3786 54.6097 62.4815C54.6257 62.5862 54.7197 63.0014 54.7446 63.1841C54.9078 64.3852 55.3443 65.1428 55.6317 65.4675H55.6264C55.4684 65.4675 54.7481 64.6797 54.5335 63.083C54.5086 62.9056 54.4181 62.5046 54.4022 62.4035C54.3862 62.3041 54.1378 59.6428 54.1183 59.5151C54.1006 59.3856 54.1165 59.3785 54.2248 59.2774C54.333 59.1762 56.5702 56.8184 56.6412 56.7367C56.7121 56.6551 56.6784 56.5717 56.6536 56.499C56.627 56.428 56.5702 56.2187 56.4052 55.6651C56.242 55.1116 55.7541 53.6497 55.7097 53.4971C55.6672 53.3463 55.5252 53.2931 55.4028 53.2487C55.2822 53.2044 55.1349 53.2221 55.0036 53.2611C54.8812 53.2984 52.7078 53.9424 52.369 54.0453C52.3672 54.0347 52.3672 54.0223 52.3672 54.0098C52.369 53.9158 52.3867 53.8821 52.463 53.8537C52.5411 53.8289 55.0959 53.0713 55.2307 53.0305C55.3673 52.9897 55.5199 52.9719 55.6441 53.0181C55.7701 53.0642 55.9173 53.1192 55.9617 53.2735C56.0078 53.4315 56.5117 54.9431 56.6802 55.5161C56.8505 56.0874 56.9091 56.3038 56.9375 56.3784C56.9623 56.4529 56.9978 56.5398 56.925 56.6232C56.8505 56.7084 54.5388 59.1461 54.427 59.2508C54.3152 59.3554 54.2975 59.3625 54.317 59.4956Z" fill="#EA5300"/>
<path d="M50.8215 56.4956C50.8144 56.5098 50.7896 56.5364 50.7541 56.5701C50.7594 56.5382 50.7381 56.5169 50.7027 56.4619C50.3886 56.0077 49.3206 54.5121 49.2177 54.395C49.1165 54.2779 48.9072 54.4216 48.8061 54.4943C48.4885 54.7374 48.2543 55.0851 48.1922 55.1916C48.1851 55.2058 48.178 55.2217 48.1727 55.2359C48.1478 55.1685 48.1496 55.0958 48.1887 55.0266C48.2543 54.9166 48.4956 54.5564 48.8238 54.3045C48.9285 54.23 49.1449 54.0809 49.2496 54.2033C49.3561 54.324 50.4596 55.8693 50.7843 56.3395C50.8357 56.4175 50.8588 56.4299 50.8215 56.4956Z" fill="#EA5300"/>
<path d="M52.3952 56.0452C52.3952 56.0452 52.3792 56.0487 52.3686 56.0505C52.255 55.8447 51.7884 54.9718 51.5311 54.5318C51.2473 54.051 50.7523 53.2242 50.7044 53.1621C50.6583 53.0982 50.6086 53.061 50.4702 53.1124C50.33 53.1639 50.1686 53.226 49.9628 53.3608C49.7605 53.4939 49.5139 53.7299 49.4146 53.9002C49.3826 53.8097 49.4004 53.7937 49.4483 53.6997C49.5458 53.5241 49.8066 53.2721 50.0195 53.1337C50.2324 52.9936 50.3992 52.9297 50.5447 52.8765C50.6866 52.8233 50.7381 52.8623 50.786 52.9279C50.8357 52.9918 51.3484 53.847 51.6411 54.3437C51.9321 54.8405 52.4821 55.8731 52.5318 55.9547C52.5779 56.0345 52.5495 56.0079 52.3952 56.0452Z" fill="#EA5300"/>
<path d="M53.1292 53.4049C53.1097 53.4102 53.0724 53.4209 53.0227 53.4351C52.9216 53.2115 52.5331 52.3262 52.4976 52.2641C52.4621 52.1985 52.4532 52.1754 52.3326 52.1772C52.2119 52.1789 52.109 52.2073 51.8376 52.3138C51.5679 52.422 51.3231 52.5373 51.096 52.7378C51.0711 52.7591 51.0498 52.7786 51.0303 52.7946C51.0268 52.7875 51.025 52.7804 51.0215 52.7733C50.9753 52.6704 50.954 52.697 51.1918 52.4894C51.426 52.2818 51.6797 52.163 51.9582 52.0512C52.2385 51.9412 52.345 51.911 52.4692 51.9093C52.5951 51.9075 52.604 51.9323 52.6413 51.9998C52.6785 52.0689 53.1398 53.1157 53.2019 53.2488C53.264 53.3836 53.2427 53.3712 53.1292 53.4049Z" fill="#EA5300"/>
<path d="M55.1316 52.8249C55.1139 52.8302 55.034 52.8533 54.9205 52.8852C54.814 52.6333 54.3563 51.6043 54.3297 51.5422C54.2995 51.473 54.2427 51.4854 54.1523 51.5173C54.0618 51.5493 53.6732 51.677 53.4461 51.7409C53.2847 51.787 53.0469 51.8757 52.8908 51.9396C52.8429 51.826 52.8305 51.7693 52.9015 51.7302C52.9937 51.6806 53.384 51.5262 53.6218 51.4588C53.856 51.3931 54.2569 51.2601 54.351 51.2281C54.445 51.1944 54.5035 51.182 54.5355 51.253C54.5656 51.324 55.1387 52.612 55.1671 52.6954C55.1972 52.7788 55.2097 52.8036 55.1316 52.8249Z" fill="#EA5300"/>
</g>
</g>
<defs>
<linearGradient id="paint0_linear_12438_42091" x1="53.2087" y1="71.5422" x2="53.2087" y2="53.2185" gradientUnits="userSpaceOnUse">
<stop stop-color="#FF2200"/>
<stop offset="0.11" stop-color="#FE2B00"/>
<stop offset="0.3" stop-color="#FE4400"/>
<stop offset="0.54" stop-color="#FD6E00"/>
<stop offset="0.81" stop-color="#FCA700"/>
<stop offset="1" stop-color="#FCD200"/>
</linearGradient>
<linearGradient id="paint1_linear_12438_42091" x1="44.0469" y1="60.0705" x2="62.3706" y2="60.0705" gradientUnits="userSpaceOnUse">
<stop stop-color="#FF2C00" stop-opacity="0"/>
<stop offset="0.59" stop-color="#FDF400" stop-opacity="0"/>
<stop offset="0.62" stop-color="#FCF100" stop-opacity="0.03"/>
<stop offset="0.65" stop-color="#FCEA00" stop-opacity="0.11"/>
<stop offset="0.69" stop-color="#FCDF00" stop-opacity="0.23"/>
<stop offset="0.73" stop-color="#FCD100" stop-opacity="0.4"/>
<stop offset="0.75" stop-color="#FCD600" stop-opacity="0.5"/>
<stop offset="0.79" stop-color="#FCDF00" stop-opacity="0.65"/>
<stop offset="0.83" stop-color="#FCE600" stop-opacity="0.78"/>
<stop offset="0.87" stop-color="#FCEC00" stop-opacity="0.87"/>
<stop offset="0.91" stop-color="#FCF000" stop-opacity="0.94"/>
<stop offset="0.95" stop-color="#FCF300" stop-opacity="0.99"/>
<stop offset="1" stop-color="#FDF400"/>
</linearGradient>
<clipPath id="clip0_12438_42091">
<rect width="120" height="36.0956" fill="white" transform="translate(44 38)"/>
</clipPath>
<clipPath id="clip1_12438_42091">
<rect width="120" height="36.0956" fill="white" transform="translate(44 38)"/>
</clipPath>
</defs>
</svg>
