<svg width="51" height="50" viewBox="0 0 51 50" fill="none" xmlns="http://www.w3.org/2000/svg">
<rect x="0.5" width="50" height="50" rx="25" fill="#DBE9FE"/>
<path d="M16.2184 38.3307H34.8851C35.7384 38.3307 36.4851 37.5841 36.4851 36.7307V13.2641C36.4851 12.4107 35.7384 11.6641 34.8851 11.6641H20.4851C20.3784 11.6641 20.1651 11.7707 20.0584 11.7707L14.7251 17.1041C14.6184 17.2107 14.5117 17.4241 14.6184 17.5307V36.7307C14.6184 37.5841 15.2584 38.3307 16.2184 38.3307ZM19.8451 13.4774V16.9974H16.4317L19.8451 13.4774ZM35.4184 13.2641V36.7307C35.4184 37.0507 35.2051 37.2641 34.8851 37.2641H16.2184C15.8984 37.2641 15.6851 37.0507 15.6851 36.7307V18.0641H20.4851C20.8051 18.0641 21.0184 17.8507 21.0184 17.5307V12.7307H34.8851C35.0984 12.7307 35.4184 12.9441 35.4184 13.2641Z" fill="url(#paint0_linear_12262_141999)"/>
<path d="M22.6215 15.9339H32.6482C32.9682 15.9339 33.1815 15.7205 33.1815 15.4005C33.1815 15.0805 32.9682 14.8672 32.6482 14.8672H22.6215C22.3015 14.8672 22.0882 15.0805 22.0882 15.4005C22.0882 15.7205 22.3015 15.9339 22.6215 15.9339ZM22.6215 19.1339H32.6482C32.9682 19.1339 33.1815 18.9205 33.1815 18.6005C33.1815 18.2805 32.9682 18.0672 32.6482 18.0672H22.6215C22.3015 18.0672 22.0882 18.2805 22.0882 18.6005C22.0882 18.9205 22.3015 19.1339 22.6215 19.1339ZM32.0082 24.2539H28.8082V23.9339C28.8082 22.9739 28.0615 22.2272 27.1015 22.2272H23.7948C23.6882 22.2272 23.4748 22.2272 23.3682 22.3339C22.6215 22.5472 22.0882 23.1872 22.0882 24.0405V24.3605H18.8882C18.2482 24.3605 17.7148 24.8939 17.7148 25.5339C17.7148 25.7472 17.7148 34.6005 17.7148 34.0672C17.7148 34.7072 18.2482 35.2405 18.8882 35.2405H32.0082C32.6482 35.2405 33.1815 34.7072 33.1815 34.0672C33.1815 33.4272 33.1815 25.2139 33.1815 25.5339C33.1815 24.7872 32.6482 24.2539 32.0082 24.2539ZM23.7948 23.2939H27.1015C27.4215 23.2939 27.7415 23.6139 27.7415 23.9339V24.2539H23.1548V23.9339C23.1548 23.6139 23.3682 23.4005 23.5815 23.2939C23.6882 23.2939 23.7948 23.2939 23.7948 23.2939ZM32.0082 25.3205V28.6272C30.6215 29.2672 28.9148 29.6939 27.2082 29.8005V29.4805C27.2082 29.0539 26.7815 28.6272 26.3548 28.6272H24.4348C24.0082 28.6272 23.5815 28.9472 23.5815 29.4805V29.8005C21.8748 29.5872 20.1682 29.2672 18.7815 28.6272V25.3205C19.1015 25.3205 32.6482 25.3205 32.0082 25.3205ZM24.7548 29.6939H26.2482C26.2482 29.8005 26.2482 31.2939 26.2482 31.1872H24.7548C24.7548 31.0805 24.7548 29.5872 24.7548 29.6939ZM18.8882 33.9605V29.6939C20.3815 30.2272 21.9815 30.6539 23.6882 30.7605V31.4005C23.6882 31.8272 24.0082 32.2539 24.5415 32.2539H26.4615C26.8882 32.2539 27.3148 31.9339 27.3148 31.4005V30.8672C29.0215 30.7605 30.6215 30.3339 32.1148 29.8005V34.0672L18.8882 33.9605Z" fill="url(#paint1_linear_12262_141999)"/>
<defs>
<linearGradient id="paint0_linear_12262_141999" x1="14.5742" y1="32.4641" x2="37.803" y2="23.6845" gradientUnits="userSpaceOnUse">
<stop stop-color="#0575E6"/>
<stop offset="1" stop-color="#021B79"/>
</linearGradient>
<linearGradient id="paint1_linear_12262_141999" x1="17.7148" y1="30.7584" x2="34.4174" y2="24.9256" gradientUnits="userSpaceOnUse">
<stop stop-color="#0575E6"/>
<stop offset="1" stop-color="#021B79"/>
</linearGradient>
</defs>
</svg>
