<svg width="51" height="50" viewBox="0 0 51 50" fill="none" xmlns="http://www.w3.org/2000/svg">
<rect x="0.5" width="50" height="50" rx="25" fill="#DBE9FE"/>
<path d="M36.7016 33.0016C36.0616 33.0016 35.4536 33.1936 34.9416 33.5456L32.2856 30.8896C33.6296 29.2896 34.4616 27.2416 34.4616 25.0016C34.4616 22.7616 33.6296 20.7136 32.2856 19.1456L34.9416 16.4896C35.4536 16.8096 36.0616 17.0016 36.7016 17.0016C38.4616 17.0016 39.9016 15.5616 39.9016 13.8016C39.9016 12.0416 38.4616 10.6016 36.7016 10.6016C34.9416 10.6016 33.5016 12.0416 33.5016 13.8016C33.5016 14.4416 33.6936 15.0496 34.0456 15.5616L31.3896 18.2176C29.7896 16.8736 27.7416 16.0416 25.5016 16.0416C23.2616 16.0416 21.2136 16.8736 19.6456 18.2176L16.9896 15.5616C17.3096 15.0496 17.5336 14.4416 17.5336 13.8016C17.5336 12.0416 16.0936 10.6016 14.3336 10.6016C12.5736 10.6016 11.1016 12.0416 11.1016 13.8016C11.1016 15.5616 12.5416 17.0016 14.3016 17.0016C14.9416 17.0016 15.5496 16.8096 16.0616 16.4576L18.7176 19.1136C17.3736 20.7136 16.5416 22.7616 16.5416 25.0016C16.5416 27.2416 17.3736 29.2896 18.7176 30.8576L16.0616 33.5136C15.5496 33.1936 14.9416 33.0016 14.3016 33.0016C12.5416 33.0016 11.1016 34.4416 11.1016 36.2016C11.1016 37.9616 12.5416 39.4016 14.3016 39.4016C16.0616 39.4016 17.5016 37.9616 17.5016 36.2016C17.5016 35.5616 17.3096 34.9536 16.9576 34.4416L19.6136 31.7856C21.2136 33.1296 23.2616 33.9616 25.5016 33.9616C27.7416 33.9616 29.7896 33.1296 31.3576 31.7536L34.0136 34.4096C33.6936 34.9536 33.5016 35.5616 33.5016 36.2016C33.5016 37.9616 34.9416 39.4016 36.7016 39.4016C38.4616 39.4016 39.9016 37.9616 39.9016 36.2016C39.9016 34.4416 38.4616 33.0016 36.7016 33.0016ZM36.7016 11.8816C37.7576 11.8816 38.6216 12.7456 38.6216 13.8016C38.6216 14.8576 37.7576 15.7216 36.7016 15.7216C35.6456 15.7216 34.7816 14.8576 34.7816 13.8016C34.7816 12.7456 35.6456 11.8816 36.7016 11.8816ZM14.3016 15.7216C13.2456 15.7216 12.3816 14.8576 12.3816 13.8016C12.3816 12.7456 13.2456 11.8816 14.3016 11.8816C15.3576 11.8816 16.2216 12.7456 16.2216 13.8016C16.2216 14.8576 15.3576 15.7216 14.3016 15.7216ZM14.3016 38.1216C13.2456 38.1216 12.3816 37.2576 12.3816 36.2016C12.3816 35.1456 13.2456 34.2816 14.3016 34.2816C15.3576 34.2816 16.2216 35.1456 16.2216 36.2016C16.2216 37.2576 15.3576 38.1216 14.3016 38.1216ZM29.3416 31.6576C28.2216 32.3296 26.9096 32.6816 25.5016 32.6816C24.0936 32.6816 22.7816 32.2976 21.6616 31.6576V29.4816C21.6616 28.0736 22.8136 26.9216 24.2216 26.9216H26.7816C28.1896 26.9216 29.3416 28.0736 29.3416 29.4816V31.6576ZM23.5816 23.7216C23.5816 22.6656 24.4456 21.8016 25.5016 21.8016C26.5576 21.8016 27.4216 22.6656 27.4216 23.7216C27.4216 24.7776 26.5576 25.6416 25.5016 25.6416C24.4456 25.6416 23.5816 24.7776 23.5816 23.7216ZM30.6216 30.7296V29.4816C30.6216 27.7536 29.4696 26.2816 27.9016 25.8016C28.3816 25.2256 28.7016 24.5216 28.7016 23.7216C28.7016 21.9616 27.2616 20.5216 25.5016 20.5216C23.7416 20.5216 22.3016 21.9616 22.3016 23.7216C22.3016 24.5216 22.5896 25.2576 23.1016 25.8016C21.5336 26.2816 20.3816 27.7536 20.3816 29.4816V30.7296C18.8136 29.3216 17.8216 27.2736 17.8216 25.0016C17.8216 20.7776 21.2776 17.3216 25.5016 17.3216C29.7256 17.3216 33.1816 20.7776 33.1816 25.0016C33.1816 27.2736 32.1896 29.3216 30.6216 30.7296ZM36.7016 38.1216C35.6456 38.1216 34.7816 37.2576 34.7816 36.2016C34.7816 35.1456 35.6456 34.2816 36.7016 34.2816C37.7576 34.2816 38.6216 35.1456 38.6216 36.2016C38.6216 37.2576 37.7576 38.1216 36.7016 38.1216Z" fill="url(#paint0_linear_12262_142004)"/>
<defs>
<linearGradient id="paint0_linear_12262_142004" x1="11.1016" y1="33.0656" x2="39.9016" y2="19.8176" gradientUnits="userSpaceOnUse">
<stop stop-color="#0575E6"/>
<stop offset="1" stop-color="#021B79"/>
</linearGradient>
</defs>
</svg>
