<svg width="51" height="50" viewBox="0 0 51 50" fill="none" xmlns="http://www.w3.org/2000/svg">
<rect x="0.5" width="50" height="50" rx="25" fill="#DBE9FE"/>
<path d="M34.4712 29.4899L29.4693 32.7872C29.3216 32.8843 29.2809 33.0828 29.3782 33.2303C29.4759 33.3782 29.6747 33.4189 29.8214 33.3214L34.8232 30.0243C35.242 29.7482 35.8099 29.8624 36.0887 30.2787C36.3587 30.6809 36.268 31.2255 35.8824 31.5187L27.9147 37.5778C27.4032 37.9664 26.7364 38.0701 26.1376 37.8572L17.0732 34.4157C16.9093 34.3541 16.7234 34.4359 16.6605 34.6014C16.5978 34.7666 16.6809 34.9514 16.8462 35.0141L25.9168 38.4578C26.7243 38.7453 27.6169 38.6086 28.3022 38.0874L36.2699 32.0282C36.9245 31.5303 37.0784 30.6053 36.6201 29.922C36.1459 29.2155 35.1814 29.0214 34.4712 29.4899ZM11.5951 31.932L12.6007 35.4422C12.8715 36.3866 13.8622 36.9219 14.798 36.6341L14.8509 36.6178C15.7703 36.3357 16.2918 35.3572 16.0132 34.4366L14.9559 30.942C14.667 29.987 13.639 29.4643 12.6974 29.798C12.6547 29.8041 12.6532 29.8043 12.6959 29.7982C11.8241 30.1057 11.3405 31.043 11.5951 31.932ZM12.9103 30.4014C13.5109 30.1902 14.1603 30.5224 14.3434 31.1274L15.4007 34.622C15.5774 35.2062 15.2466 35.827 14.663 36.0062L14.6103 36.0224C14.0048 36.2059 13.3849 35.8559 13.2162 35.2659L12.2105 31.7557C12.0637 31.2435 12.2894 30.6369 12.9103 30.4014Z" fill="url(#paint0_linear_12262_141871)"/>
<path d="M15.6292 30.4125C15.7373 30.5523 15.9383 30.5786 16.0781 30.4702C16.1092 30.4457 19.2458 28.0855 23.0165 30.49L26.8796 32.848C27.3202 33.1169 27.6348 33.5277 27.7652 34.0048C28.0845 35.1731 26.9598 35.2846 26.1133 34.8561L21.2996 32.4227C21.1421 32.3436 20.9496 32.4063 20.8696 32.564C20.7898 32.7217 20.8531 32.9142 21.0108 32.994L25.8246 35.4273C27.1198 36.082 28.8843 35.6714 28.3827 33.8361C28.209 33.2009 27.7935 32.6559 27.2129 32.3017L23.3552 29.9471C19.2158 27.3077 15.7221 29.9369 15.6869 29.9636C15.5471 30.0715 15.5212 30.2725 15.6292 30.4125ZM23.4223 15.6146C23.3756 16.95 23.5449 16.8625 24.2981 17.2015C24.5806 17.3148 24.646 17.4634 24.5298 17.7448C24.442 17.96 24.4084 18.042 24.3731 18.1211C24.2271 18.45 24.2917 18.7692 24.5552 19.0196C24.6036 19.0653 24.6549 19.1182 24.7571 19.2227C25.3094 19.785 25.4527 19.8144 26.1546 19.5146L26.2348 19.4805C26.8445 19.2193 26.7509 19.8435 27.0312 20.195C27.1808 20.383 27.4791 20.5905 27.7662 20.5905C27.8087 20.5905 27.8483 20.588 27.8833 20.5855C27.9087 20.5836 27.9277 20.5775 27.9587 20.5819C28.8046 20.5963 28.9117 20.5036 29.2283 19.735C29.4925 19.0925 29.8523 19.6163 30.4577 19.6965C30.9341 19.7597 31.7516 18.8633 31.7502 18.3852L31.75 18.3225L31.7263 18.2646C31.5737 17.8912 31.4548 17.7583 31.5117 17.4092C31.53 17.2965 31.6017 17.2532 31.8573 17.1523L31.9242 17.1259C32.5298 16.8817 32.6215 16.7463 32.6252 16.0911L32.6258 15.9905C32.6317 15.2107 32.549 15.0882 31.8221 14.798L31.734 14.7625C31.2711 14.5776 31.5468 14.1716 31.6425 13.9186C31.8258 13.4771 31.7802 13.2407 31.4467 12.9063L31.2915 12.7515C30.7279 12.1877 30.5931 12.1617 29.8494 12.4732C29.5085 12.6162 29.3583 12.5506 29.2208 12.2182C28.9475 11.553 28.9143 11.3877 28.0725 11.3907C27.2525 11.3907 27.1354 11.4688 26.8206 12.2261C26.4425 13.1335 25.7959 11.7669 25.0381 12.4692C24.0687 13.374 24.2228 13.429 24.5237 14.2082C24.8792 15.0481 23.4555 14.5811 23.4223 15.6146ZM25.1129 13.9586C25.0427 13.7939 24.934 13.5468 24.935 13.498C24.9569 13.4356 25.4304 12.9784 25.4731 12.9388C25.5419 12.8758 25.5373 12.8885 25.965 13.0715C26.6237 13.3432 27.1379 13.1298 27.4115 12.4717C27.6016 12.0148 27.5902 12.0307 28.1552 12.0305C28.418 12.0266 28.4445 12.022 28.479 12.1027C28.53 12.2219 28.5796 12.3417 28.6292 12.4623C29.1632 13.7543 30.3323 12.8951 30.5154 12.9132C30.5678 12.9285 30.7287 13.0937 30.9938 13.3586C31.0906 13.4555 31.1073 13.4886 31.1092 13.4921C31.1183 13.6834 30.6549 14.2066 30.9054 14.8019C31.1574 15.4023 31.8242 15.4121 31.9677 15.5655C31.9979 15.6285 31.9877 16.3547 31.9746 16.3969C31.7986 16.5695 30.9956 16.5943 30.88 17.3067C30.8056 17.7631 30.9099 18.0023 31.0975 18.4227C31.0229 18.608 30.6752 18.9846 30.5069 19.0561C30.4322 19.0413 30.3854 19.0267 30.0646 18.8909C29.4225 18.6305 28.9017 18.849 28.6365 19.4915C28.456 19.9288 28.4508 19.9419 28.0027 19.9419C27.9881 19.9417 27.9654 19.9373 27.9579 19.9419C27.868 19.9419 27.8015 19.9511 27.7587 19.9544C27.4759 19.8339 27.5054 19.726 27.4008 19.4748C27.23 19.0645 26.9326 18.7769 26.4921 18.7769C26.1605 18.7769 26.0109 18.9036 25.531 19.0667C25.481 19.0485 25.3352 18.8979 25.1421 18.7013C24.9574 18.5118 24.9041 18.5021 24.9581 18.3809C25.1459 17.9573 25.3288 17.5762 25.1552 17.1638C25.0519 16.9184 24.844 16.7313 24.5369 16.6077C24.494 16.5906 24.1182 16.448 24.0777 16.4052C24.0496 16.348 24.0605 15.6784 24.0619 15.6357C24.0651 15.5386 24.0624 15.5538 24.5344 15.3621C25.1466 15.1126 25.3825 14.5943 25.1129 13.9586Z" fill="url(#paint1_linear_12262_141871)"/>
<path d="M28.0152 17.8471C29.0512 17.8471 29.8747 17.029 29.8773 16.0017C29.8796 14.9625 29.0649 14.1406 28.0213 14.1406C27.0055 14.1406 26.1732 14.96 26.163 15.9737C26.1526 17.0004 26.9757 17.8471 28.0152 17.8471ZM28.0213 14.7806C28.0244 14.7806 28.0275 14.7806 28.0307 14.7806C28.7086 14.7856 29.2388 15.3212 29.2373 16.0002C29.2357 16.6558 28.7221 17.2071 28.0021 17.2071C27.3329 17.2011 26.7961 16.6529 26.803 15.98C26.8096 15.3167 27.3552 14.7806 28.0213 14.7806ZM19.7288 27.5177C19.9055 27.5177 20.0488 27.3744 20.0488 27.1977V22.5652L21.2488 23.7481C21.3743 23.872 21.5768 23.871 21.7013 23.7448C21.8252 23.619 21.8238 23.4165 21.698 23.2923L19.9534 21.5725C19.8288 21.4496 19.6288 21.4496 19.5042 21.5725L17.7594 23.2923C17.6336 23.4165 17.6321 23.619 17.7561 23.7448C17.8805 23.8708 18.083 23.8727 18.2086 23.7481L19.4088 22.5652V27.1977C19.4088 27.3744 19.5521 27.5177 19.7288 27.5177ZM39.3767 16.3204L37.6319 14.6008C37.5073 14.4779 37.3073 14.4779 37.1827 14.6008L35.438 16.3204C35.3121 16.4444 35.3107 16.6471 35.4346 16.7729C35.559 16.899 35.7615 16.9006 35.8871 16.7762L37.0875 15.5933V20.2258C37.0875 20.4025 37.2309 20.5458 37.4075 20.5458C37.5842 20.5458 37.7275 20.4025 37.7275 20.2258V15.5937L38.9275 16.7762C39.053 16.9001 39.2555 16.8991 39.38 16.7729C39.504 16.6471 39.5025 16.4444 39.3767 16.3204ZM22.8934 23.9575V27.9471C22.8934 28.3588 23.2284 28.6938 23.64 28.6938H25.7319C26.1436 28.6938 26.4786 28.3588 26.4786 27.9471V23.9575C26.4786 23.5458 26.1436 23.2108 25.7319 23.2108H23.64C23.2284 23.2108 22.8934 23.5458 22.8934 23.9575ZM23.5334 23.9575C23.5334 23.8988 23.5813 23.8508 23.64 23.8508H25.7319C25.7907 23.8508 25.8386 23.8988 25.8386 23.9575V27.9471C25.8386 28.0058 25.7907 28.0538 25.7319 28.0538H23.64C23.5813 28.0538 23.5334 28.0058 23.5334 27.9471V23.9575ZM30.9105 27.9471V22.4229C30.9105 22.0113 30.5755 21.6763 30.1638 21.6763H28.0721C27.6605 21.6763 27.3255 22.0113 27.3255 22.4229V27.9471C27.3255 28.3588 27.6605 28.6938 28.0721 28.6938H30.1638C30.5755 28.6938 30.9105 28.3588 30.9105 27.9471ZM27.9655 27.9471V22.4229C27.9655 22.3642 28.0134 22.3163 28.0721 22.3163H30.1638C30.2225 22.3163 30.2705 22.3642 30.2705 22.4229V27.9471C30.2705 28.0058 30.2225 28.0538 30.1638 28.0538H28.0721C28.0134 28.0538 27.9655 28.0058 27.9655 27.9471ZM31.7575 20.1387V27.9471C31.7575 28.3588 32.0925 28.6938 32.5042 28.6938H34.5959C35.0075 28.6938 35.3425 28.3588 35.3425 27.9471V20.1387C35.3425 19.7271 35.0075 19.3921 34.5959 19.3921H32.5042C32.0925 19.3921 31.7575 19.7271 31.7575 20.1387ZM34.7025 20.1387V27.9471C34.7025 28.0058 34.6546 28.0538 34.5959 28.0538H32.5042C32.4455 28.0538 32.3975 28.0058 32.3975 27.9471V20.1387C32.3975 20.08 32.4455 20.0321 32.5042 20.0321H34.5959C34.6546 20.0321 34.7025 20.08 34.7025 20.1387Z" fill="url(#paint2_linear_12262_141871)"/>
<defs>
<linearGradient id="paint0_linear_12262_141871" x1="11.5273" y1="36.5439" x2="23.579" y2="21.5437" gradientUnits="userSpaceOnUse">
<stop stop-color="#0575E6"/>
<stop offset="1" stop-color="#021B79"/>
</linearGradient>
<linearGradient id="paint1_linear_12262_141871" x1="15.5625" y1="30.3671" x2="34.2876" y2="24.3257" gradientUnits="userSpaceOnUse">
<stop stop-color="#0575E6"/>
<stop offset="1" stop-color="#021B79"/>
</linearGradient>
<linearGradient id="paint2_linear_12262_141871" x1="17.6641" y1="25.4921" x2="35.5758" y2="13.1453" gradientUnits="userSpaceOnUse">
<stop stop-color="#0575E6"/>
<stop offset="1" stop-color="#021B79"/>
</linearGradient>
</defs>
</svg>
