<svg width="51" height="50" viewBox="0 0 51 50" fill="none" xmlns="http://www.w3.org/2000/svg">
<rect x="0.5" width="50" height="50" rx="25" fill="#DBE9FE"/>
<path d="M38.835 15.0601C38.835 14.8177 38.5926 14.6722 38.3987 14.7692C33.3078 15.9813 26.035 9.53281 25.7441 9.2419C25.5987 9.09645 25.4047 9.09645 25.2593 9.2419C24.9684 9.53281 17.6957 15.9813 12.6047 14.7207C12.4108 14.6722 12.1684 14.8177 12.1684 15.0601C12.1684 15.254 10.132 35.2783 25.4047 40.8055C25.5017 40.854 25.5502 40.854 25.6472 40.8055C40.9199 35.2298 38.8835 15.254 38.835 15.0601ZM25.5017 40.0783C12.0714 35.0843 12.6532 18.3086 12.8472 15.5449C17.7926 16.3692 24.0472 11.2783 25.5017 10.0177C26.9563 11.2783 33.2108 16.3692 38.1563 15.5449C38.3502 18.3086 38.932 35.0843 25.5017 40.0783Z" fill="url(#paint0_linear_12262_142008)"/>
<path d="M25.5005 28.3906C24.7732 28.3906 24.1914 28.9724 24.1914 29.6997C24.1914 29.9906 24.2884 30.2815 24.4823 30.524L24.2884 32.027C24.2399 32.2694 24.4338 32.4149 24.6278 32.4149H26.2278C26.4217 32.4149 26.6156 32.2209 26.5672 32.027L26.4702 30.524C26.6641 30.2815 26.7611 29.9906 26.7611 29.6997C26.8096 28.9724 26.2278 28.3906 25.5005 28.3906ZM25.8884 31.6876H25.1126L25.2581 30.427C25.2581 30.2815 25.2096 30.1846 25.1126 30.0876C24.9672 29.9906 24.9187 29.8452 24.9187 29.6512C24.9187 29.3603 25.1611 29.0694 25.5005 29.0694C25.8399 29.0694 26.0823 29.3118 26.0823 29.6512C26.0823 29.7967 25.9853 29.9906 25.8884 30.0876C25.7914 30.1846 25.7429 30.2815 25.7429 30.427L25.8884 31.6876Z" fill="url(#paint1_linear_12262_142008)"/>
<path d="M32.4332 19.5693C32.5301 16.8057 30.2513 14.1875 27.2938 14.1875C25.4513 14.1875 23.8029 15.1572 22.8817 16.8057C20.8938 15.9814 18.712 17.3875 18.518 19.6178C16.6271 20.0057 15.2695 21.7027 15.2695 23.6905C15.2695 25.9693 17.0635 27.8602 19.2938 27.8602H20.7483V33.8239C20.7483 34.4542 21.2817 34.9875 21.912 34.9875H29.0877C29.718 34.9875 30.2513 34.4542 30.2513 33.8239V27.8117H31.7059C33.9362 27.8117 35.7301 25.9693 35.7301 23.642C35.7301 21.6057 34.3241 19.9087 32.4332 19.5693ZM29.5241 33.7754C29.5241 34.0178 29.3301 34.2117 29.0877 34.2117H21.912C21.6695 34.2117 21.4756 34.0178 21.4756 33.7754V26.1148H29.5726V33.7754H29.5241ZM28.118 25.436H22.8817V23.3027C22.8817 21.8481 24.0453 20.6845 25.4998 20.6845C26.9544 20.6845 28.118 21.8481 28.118 23.3027V25.436ZM31.7059 27.0845H30.2513V25.7754C30.2513 25.5814 30.1059 25.3875 29.8635 25.3875H28.7968V23.2542C28.7968 21.4117 27.2938 19.9087 25.4514 19.9087C23.6089 19.9087 22.1059 21.4117 22.1059 23.2542V25.3875H21.0392C20.8453 25.3875 20.6513 25.533 20.6513 25.7754V27.0845H19.1968C17.4029 27.0845 15.8998 25.533 15.8998 23.642C15.8998 21.8966 17.1604 20.442 18.8089 20.2481C19.0029 20.2481 19.1483 20.0542 19.1483 19.8602C19.1483 17.9208 21.1362 16.6602 22.7847 17.5814C22.9786 17.6784 23.1726 17.6299 23.2695 17.436C24.0453 15.8845 25.5483 14.9148 27.1968 14.9148C29.815 14.9148 31.8029 17.2905 31.6089 19.8602C31.6089 20.0542 31.7544 20.2481 31.9483 20.2481C33.6453 20.3936 34.9544 21.8966 34.9544 23.642C35.0029 25.533 33.5483 27.0845 31.7059 27.0845Z" fill="url(#paint2_linear_12262_142008)"/>
<defs>
<linearGradient id="paint0_linear_12262_142008" x1="12.0781" y1="33.8659" x2="40.3413" y2="22.8481" gradientUnits="userSpaceOnUse">
<stop stop-color="#0575E6"/>
<stop offset="1" stop-color="#021B79"/>
</linearGradient>
<linearGradient id="paint1_linear_12262_142008" x1="24.1914" y1="31.5295" x2="27.0602" y2="30.6859" gradientUnits="userSpaceOnUse">
<stop stop-color="#0575E6"/>
<stop offset="1" stop-color="#021B79"/>
</linearGradient>
<linearGradient id="paint2_linear_12262_142008" x1="15.2695" y1="30.4115" x2="35.8465" y2="21.1006" gradientUnits="userSpaceOnUse">
<stop stop-color="#0575E6"/>
<stop offset="1" stop-color="#021B79"/>
</linearGradient>
</defs>
</svg>
