<svg width="156" height="156" viewBox="0 0 156 156" fill="none" xmlns="http://www.w3.org/2000/svg">
<path d="M77.9999 131.125H59V122.375H74.7825H75.1122L75.2421 122.071L88.5989 90.9022C88.599 90.902 88.5991 90.9018 88.5992 90.9016C89.3116 89.2546 91.0042 88.2059 92.7483 88.2493C93.6251 88.2739 94.4743 88.5615 95.1856 89.0747C95.8971 89.588 96.4379 90.3035 96.7376 91.1281L96.7376 91.1281L112.026 133.18L112.457 134.367L112.955 133.206L122.729 110.401C123.067 109.614 123.627 108.943 124.342 108.472C125.057 108.001 125.894 107.75 126.75 107.75H145.75V116.5H129.967H129.638L129.508 116.803L116.15 147.973C115.813 148.761 115.251 149.432 114.536 149.903C113.82 150.374 112.982 150.625 112.125 150.625H112.125C111.227 150.625 110.35 150.349 109.615 149.834C108.879 149.319 108.319 148.59 108.012 147.746L92.7244 105.699L92.2927 104.512L91.7949 105.673L82.0206 128.473C81.6833 129.26 81.1226 129.931 80.4079 130.402C79.6932 130.873 78.856 131.124 77.9999 131.125Z" fill="url(#paint0_linear_10205_69564)" stroke="url(#paint1_linear_10205_69564)"/>
<path d="M43.875 121.875H19.5V48.75H136.5V92.625H146.25V48.75C146.25 43.3729 141.877 39 136.5 39H107.25V19.5C107.25 14.1229 102.877 9.75 97.5 9.75H58.5C53.1229 9.75 48.75 14.1229 48.75 19.5V39H19.5C14.1229 39 9.75 43.3729 9.75 48.75V121.875C9.75 127.252 14.1229 131.625 19.5 131.625H43.875V121.875ZM58.5 19.5H97.5V39H58.5V19.5Z" fill="url(#paint2_linear_10205_69564)"/>
<defs>
<linearGradient id="paint0_linear_10205_69564" x1="58.5" y1="137.182" x2="134.136" y2="89.0085" gradientUnits="userSpaceOnUse">
<stop stop-color="#0575E6"/>
<stop offset="1" stop-color="#021B79"/>
</linearGradient>
<linearGradient id="paint1_linear_10205_69564" x1="58.5" y1="137.182" x2="134.136" y2="89.0085" gradientUnits="userSpaceOnUse">
<stop stop-color="#0575E6"/>
<stop offset="1" stop-color="#021B79"/>
</linearGradient>
<linearGradient id="paint2_linear_10205_69564" x1="9.75" y1="104.813" x2="140.443" y2="37.4793" gradientUnits="userSpaceOnUse">
<stop stop-color="#0575E6"/>
<stop offset="1" stop-color="#021B79"/>
</linearGradient>
</defs>
</svg>
