<svg width="50" height="50" viewBox="0 0 50 50" fill="none" xmlns="http://www.w3.org/2000/svg">
<path d="M43.6953 6.1543H19.6953V7.30814H43.6953V6.1543Z" fill="url(#paint0_linear_11442_92782)"/>
<path d="M38.4591 10.8457H24.8438V11.9995H38.4591V10.8457Z" fill="url(#paint1_linear_11442_92782)"/>
<path d="M43.6953 15.5381H19.6953V16.6919H43.6953V15.5381Z" fill="url(#paint2_linear_11442_92782)"/>
<path d="M4.92187 46.0765C5.15264 47.9227 6.69111 49.3842 8.53726 49.3842H37.2296C37.5373 49.3842 37.845 49.1535 37.845 48.7689C37.845 48.3842 37.6142 48.1535 37.2296 48.1535C33.9988 48.1535 33.9219 43.2304 37.2296 43.2304C37.5373 43.2304 37.845 42.9996 37.845 42.615V38.9996H47.5373C47.8449 38.9996 48.1526 38.7689 48.1526 38.3842C48.1526 37.9996 47.9219 37.7689 47.5373 37.7689C46.1526 37.7689 45.0757 36.6919 45.0757 35.3073C45.0757 33.9227 46.1526 32.8458 47.5373 32.8458C47.8449 32.8458 48.1526 32.615 48.1526 32.2304V1.15347C48.1526 0.845778 47.9219 0.538086 47.5373 0.538086H20.3834C17.5373 0.538086 15.2296 2.84578 15.2296 5.69193V7.84578H10.0757V8.99962H15.2296V10.8458H10.0757C7.22957 10.8458 4.92187 13.1535 4.92187 15.9996V46.0765ZM8.53726 48.3073C7.15264 48.3073 6.07572 47.2304 6.07572 45.8458C6.07572 44.4612 7.22957 43.3842 8.53726 43.3842H34.5373C33.2296 44.7689 33.2296 46.9227 34.5373 48.3073H8.53726ZM44.8449 37.9996H18.845C17.4603 37.9996 16.3834 36.9227 16.3834 35.5381C16.3834 34.1535 17.4603 33.0765 18.845 33.0765H44.8449C44.2296 33.6919 43.8449 34.615 43.8449 35.5381C43.9219 36.4612 44.2296 37.3073 44.8449 37.9996ZM16.3834 5.69193C16.3834 3.46116 18.1526 1.69193 20.3834 1.69193H46.9219V31.8458H18.845C17.845 31.8458 16.9988 32.2304 16.3834 32.8458V5.69193ZM10.0757 11.9996H15.2296V35.4612C15.2296 35.5381 15.3834 39.0765 18.845 39.0765H36.6911V42.0765H8.53726C7.61418 42.0765 6.76803 42.4612 6.07572 43.0765V15.9996C6.07572 13.8458 7.84495 11.9996 10.0757 11.9996ZM3.07572 15.9996C3.07572 13.7689 4.07572 11.7689 5.84495 10.3842L5.15264 9.46116C3.07572 10.9996 1.92188 13.3842 1.92188 15.9227V19.2304H3.07572V15.9996Z" fill="url(#paint3_linear_11442_92782)"/>
<path d="M3.07572 21H1.92188V24.8462H3.07572V21Z" fill="url(#paint4_linear_11442_92782)"/>
<path d="M31.157 45.1543H8.46471C8.23394 45.1543 8.08009 45.2312 8.00317 45.3851C7.7724 45.7697 8.00317 46.3851 8.54163 46.3851H31.157C31.4647 46.3851 31.7724 46.1543 31.7724 45.7697C31.7724 45.6928 31.8493 45.462 31.6186 45.2312C31.4647 45.2312 31.3109 45.1543 31.157 45.1543Z" fill="url(#paint5_linear_11442_92782)"/>
<defs>
<linearGradient id="paint0_linear_11442_92782" x1="19.6953" y1="7.0543" x2="20.0095" y2="4.04801" gradientUnits="userSpaceOnUse">
<stop stop-color="#0575E6"/>
<stop offset="1" stop-color="#021B79"/>
</linearGradient>
<linearGradient id="paint1_linear_11442_92782" x1="24.8437" y1="11.7457" x2="25.3853" y2="8.80634" gradientUnits="userSpaceOnUse">
<stop stop-color="#0575E6"/>
<stop offset="1" stop-color="#021B79"/>
</linearGradient>
<linearGradient id="paint2_linear_11442_92782" x1="19.6953" y1="16.4381" x2="20.0095" y2="13.4318" gradientUnits="userSpaceOnUse">
<stop stop-color="#0575E6"/>
<stop offset="1" stop-color="#021B79"/>
</linearGradient>
<linearGradient id="paint3_linear_11442_92782" x1="1.92187" y1="38.6381" x2="49.0097" y2="18.1374" gradientUnits="userSpaceOnUse">
<stop stop-color="#0575E6"/>
<stop offset="1" stop-color="#021B79"/>
</linearGradient>
<linearGradient id="paint4_linear_11442_92782" x1="1.92187" y1="24" x2="3.29375" y2="23.8107" gradientUnits="userSpaceOnUse">
<stop stop-color="#0575E6"/>
<stop offset="1" stop-color="#021B79"/>
</linearGradient>
<linearGradient id="paint5_linear_11442_92782" x1="7.91406" y1="46.1143" x2="8.27291" y2="42.9128" gradientUnits="userSpaceOnUse">
<stop stop-color="#0575E6"/>
<stop offset="1" stop-color="#021B79"/>
</linearGradient>
</defs>
</svg>
