<svg width="50" height="50" viewBox="0 0 50 50" fill="none" xmlns="http://www.w3.org/2000/svg">
<g clip-path="url(#clip0_11442_92736)">
<path d="M25.0026 49.4788C11.4609 49.4788 0.523438 38.5413 0.523438 24.9997C0.523438 11.458 11.4609 0.520508 25.0026 0.520508C38.5443 0.520508 49.4818 11.458 49.4818 24.9997C49.4818 38.5413 38.5443 49.4788 25.0026 49.4788ZM25.0026 2.60384C12.6068 2.60384 2.60677 12.6038 2.60677 24.9997C2.60677 37.3955 12.6068 47.3955 25.0026 47.3955C37.3984 47.3955 47.3984 37.3955 47.3984 24.9997C47.3984 12.6038 37.3984 2.60384 25.0026 2.60384Z" fill="url(#paint0_linear_11442_92736)"/>
<path d="M11.0469 38.958L21.2552 21.3538L38.8594 11.1455L28.651 28.7497L11.0469 38.958ZM22.8177 22.8122L16.776 33.2288L27.1927 27.1872L33.2344 16.7705L22.8177 22.8122Z" fill="url(#paint1_linear_11442_92736)"/>
<path d="M26.1484 23.958H23.9609V26.0413H26.1484V23.958Z" fill="url(#paint2_linear_11442_92736)"/>
</g>
<defs>
<linearGradient id="paint0_linear_11442_92736" x1="0.523437" y1="38.708" x2="49.4818" y2="16.1872" gradientUnits="userSpaceOnUse">
<stop stop-color="#0575E6"/>
<stop offset="1" stop-color="#021B79"/>
</linearGradient>
<linearGradient id="paint1_linear_11442_92736" x1="11.0469" y1="32.8393" x2="38.8594" y2="20.0455" gradientUnits="userSpaceOnUse">
<stop stop-color="#0575E6"/>
<stop offset="1" stop-color="#021B79"/>
</linearGradient>
<linearGradient id="paint2_linear_11442_92736" x1="23.9609" y1="25.583" x2="26.11" y2="24.545" gradientUnits="userSpaceOnUse">
<stop stop-color="#0575E6"/>
<stop offset="1" stop-color="#021B79"/>
</linearGradient>
<clipPath id="clip0_11442_92736">
<rect width="50" height="50" fill="white"/>
</clipPath>
</defs>
</svg>
