<svg width="50" height="50" viewBox="0 0 50 50" fill="none" xmlns="http://www.w3.org/2000/svg">
<path d="M26.6565 41.2048C26.1876 41.2048 25.7011 41.1781 25.211 41.1265C24.9715 41.1016 24.7891 40.8989 24.7891 40.6576C24.7891 40.4162 24.9706 40.2144 25.211 40.1886C26.8011 40.0191 28.325 39.5603 29.741 38.8242C29.8709 38.756 30.0238 38.7542 30.1555 38.8141C30.2873 38.8749 30.384 38.9928 30.4172 39.1347C30.4817 39.4055 30.5867 39.6911 30.7406 40.0081C30.8014 40.1334 30.8041 40.278 30.7479 40.4051C30.6917 40.5323 30.583 40.6281 30.4494 40.6668C29.2324 41.0242 27.9555 41.2048 26.6565 41.2048ZM40.0245 27.3654C40.0245 27.5164 40.0245 27.6579 40.0151 27.8088C39.1566 28.9032 38.0623 30.0541 36.6849 31.0353C36.7132 30.9314 36.7415 30.8182 36.7698 30.705C36.8264 30.4881 36.883 30.2711 36.9208 30.0541C36.9585 29.8843 36.9868 29.7145 37.0151 29.5447C37.1377 28.8371 37.1943 28.1107 37.1943 27.3654C37.1943 26.6202 37.1283 25.8843 37.0151 25.1673C36.9868 24.9975 36.9585 24.8371 36.9208 24.6673C36.883 24.4598 36.8264 24.2522 36.7792 24.0447C36.6943 23.7145 36.5906 23.3749 36.4773 23.0447C36.4207 22.8654 36.3547 22.6862 36.2792 22.5069C36.2792 22.4881 36.2698 22.4692 36.2604 22.4409C36.1849 22.2617 36.1094 22.0824 36.034 21.9126C35.949 21.724 35.8642 21.5447 35.7698 21.3655C35.6849 21.1862 35.5905 21.007 35.4868 20.8277C34.9019 19.7711 34.1661 18.8088 33.317 17.9598C33.1849 17.8183 33.034 17.6767 32.8924 17.5447C32.7603 17.4221 32.6283 17.2994 32.4868 17.1956C32.3547 17.0824 32.2132 16.9786 32.0811 16.8749V16.8654C31.7415 16.5919 31.4019 16.3371 31.034 16.1107C31.5623 15.6107 32.034 14.922 32.3925 13.9975C32.3925 13.9975 35.949 6.90317 27.8358 4.91262C27.1849 4.7522 26.5151 4.639 25.8547 4.5824C27.4491 4.41259 29.0811 4.51635 30.666 4.91262C38.7792 6.90317 35.2226 13.9975 35.2226 13.9975C34.8547 14.922 34.3925 15.6107 33.8642 16.1202C37.5717 18.4881 40.0245 22.639 40.0245 27.3654Z" fill="url(#paint0_linear_11442_92747)"/>
<path d="M36.6842 31.5064C36.5894 31.5064 36.4954 31.4779 36.4143 31.4217C36.2503 31.3074 36.1766 31.102 36.2291 30.9103L36.3111 30.5925C36.3664 30.3806 36.4198 30.1761 36.4558 29.9725C36.4954 29.7891 36.523 29.627 36.5497 29.4658C36.664 28.8052 36.722 28.0986 36.722 27.3643C36.722 26.6872 36.664 25.9723 36.5488 25.2389C36.523 25.0832 36.4954 24.9303 36.4595 24.7691C36.4327 24.6207 36.4005 24.4908 36.3692 24.36L36.3194 24.1481C36.2402 23.8432 36.1398 23.5161 36.0311 23.1964C35.9749 23.0214 35.9141 22.8555 35.844 22.6897C35.8339 22.6648 35.8247 22.6381 35.8192 22.6105C35.7298 22.3977 35.6671 22.2475 35.6027 22.1019C35.5225 21.9269 35.4414 21.7555 35.3521 21.5842C35.2636 21.3981 35.1743 21.2304 35.0784 21.0627C34.522 20.0576 33.8181 19.128 32.9834 18.2924C32.8554 18.1551 32.7218 18.0308 32.5965 17.9129C32.4445 17.7719 32.3303 17.665 32.2068 17.5747C32.0972 17.4826 32.0096 17.4154 31.924 17.3499L31.7885 17.244C31.7655 17.2256 31.7443 17.2062 31.7259 17.185C31.3675 16.8985 31.0755 16.6894 30.7862 16.5116C30.6609 16.4351 30.5789 16.3043 30.5642 16.1587C30.5485 16.0122 30.6028 15.8676 30.7088 15.7672C31.2238 15.2807 31.6421 14.6275 31.9525 13.826C31.9839 13.7569 33.3796 10.9009 32.2593 8.48442C31.5647 6.98549 30.0381 5.93798 27.7229 5.36955C27.0835 5.21201 26.4414 5.10514 25.8149 5.05171C25.5726 5.03144 25.3856 4.82968 25.3828 4.58738C25.3801 4.34416 25.5625 4.13871 25.8048 4.11292C27.4825 3.93235 29.1564 4.04843 30.7797 4.45379C33.3888 5.09409 35.1282 6.3194 35.9481 8.09379C37.2573 10.9277 35.7105 14.0748 35.6441 14.2074C35.3687 14.903 35.0112 15.5212 34.5846 16.0334C38.2965 18.6176 40.4956 22.8122 40.4956 27.3643C40.4956 27.5255 40.4956 27.6766 40.4855 27.836C40.4799 27.9318 40.4449 28.023 40.386 28.0986C39.3495 29.4197 38.1961 30.5372 36.9579 31.4189C36.8759 31.4769 36.7801 31.5064 36.6842 31.5064ZM36.7331 22.37C36.8059 22.546 36.8703 22.7238 36.9265 22.8998C37.0408 23.2324 37.1467 23.5834 37.2361 23.9261L37.2858 24.1389C37.3218 24.2863 37.3577 24.4346 37.3844 24.583C37.4204 24.7423 37.4498 24.91 37.4802 25.0878C37.6037 25.8746 37.6654 26.6383 37.6654 27.3643C37.6654 28.1529 37.6028 28.913 37.4793 29.6242C37.4673 29.6961 37.4554 29.767 37.4434 29.8389C38.1869 29.1977 38.8916 28.4597 39.5504 27.6343C39.5522 27.5449 39.5522 27.4564 39.5522 27.3643C39.5522 22.9477 37.331 18.8931 33.609 16.5171C33.4874 16.4388 33.4082 16.3098 33.3943 16.1661C33.3796 16.0224 33.4321 15.8796 33.5362 15.7792C34.0411 15.2927 34.4612 14.634 34.7836 13.8223C34.814 13.7569 36.2098 10.9009 35.0895 8.48442C34.3949 6.98549 32.8683 5.93798 30.5531 5.36955C30.4739 5.3502 30.3946 5.33086 30.3154 5.31243C31.6393 5.99418 32.5781 6.92468 33.118 8.09379C34.4271 10.9277 32.8803 14.0748 32.8139 14.2074C32.5486 14.8966 32.1921 15.5129 31.7591 16.0261C31.9507 16.1624 32.1515 16.3163 32.3763 16.4968C32.3957 16.5125 32.4141 16.53 32.4307 16.5484L32.4998 16.6028C32.5983 16.6774 32.6978 16.7548 32.7918 16.8349C32.9171 16.9252 33.059 17.0551 33.2009 17.186C33.3824 17.3573 33.5307 17.4964 33.6615 17.6365C34.5478 18.5237 35.3042 19.5242 35.8993 20.5984C36.0053 20.7808 36.1057 20.9724 36.196 21.1641C36.2853 21.3317 36.3738 21.5197 36.4631 21.7159C36.5341 21.8744 36.6013 22.0365 36.6695 22.1987C36.6723 22.2042 36.7054 22.2862 36.7073 22.2917C36.7137 22.3092 36.7239 22.3359 36.7331 22.37Z" fill="url(#paint1_linear_11442_92747)"/>
<path d="M23.8285 41.2041C20.0356 41.2041 16.4969 39.6987 13.8657 36.9652C13.793 36.8897 13.7478 36.792 13.7368 36.6879C13.6253 35.6404 13.6354 34.5726 13.7662 33.5141C13.9413 32.0548 13.6796 30.6424 13.0099 29.4328C12.3567 28.2628 11.4603 27.5055 10.3483 27.1858C10.1391 27.125 9.99819 26.9287 10.0083 26.7113C10.2847 20.6447 14.5908 15.3878 20.4797 13.9257C20.5819 13.9008 20.6906 13.9101 20.7874 13.9534C21.7824 14.4039 22.7046 14.9484 23.5282 15.5739C24.6853 16.4418 26.0755 16.9337 27.4409 16.9586C27.9246 16.9687 28.3778 16.919 28.821 16.8112C29.5423 16.6361 30.1771 16.287 30.7068 15.772C30.8644 15.619 31.103 15.5942 31.2873 15.7112C31.8262 16.0502 32.3209 16.4196 32.8 16.8397C32.9198 16.9254 33.0616 17.0553 33.2035 17.1862C33.385 17.3575 33.5333 17.4966 33.6642 17.6367C34.5504 18.5239 35.3068 19.5244 35.902 20.5986C36.0079 20.781 36.1083 20.9726 36.1986 21.1643C36.288 21.3319 36.3764 21.5199 36.4658 21.7161C36.5367 21.8746 36.604 22.0367 36.6722 22.1989C36.6749 22.2044 36.7081 22.2864 36.7099 22.2919C36.7164 22.3094 36.7265 22.3361 36.7357 22.3702C36.8085 22.5462 36.873 22.724 36.9292 22.9C37.0434 23.2325 37.1494 23.5836 37.2388 23.9263C37.2968 24.1409 37.3465 24.3611 37.3871 24.5832C37.423 24.7425 37.4525 24.9102 37.4829 25.088C37.6063 25.8748 37.6681 26.6385 37.6681 27.3645C37.6681 28.1531 37.6054 28.9132 37.482 29.6244C37.4525 29.8004 37.423 29.9773 37.3834 30.156C37.3336 30.3854 37.2857 30.6056 37.2277 30.8249C37.1991 30.9419 37.1669 31.0672 37.1254 31.1934C37.0941 31.2873 37.0333 31.3693 36.9522 31.4274C36.0715 32.0594 35.1401 32.5873 34.1838 32.9963C32.8488 33.5694 31.7267 34.5275 31.0256 35.6929C30.3319 36.8473 30.1274 38.0017 30.4176 39.1238C30.4719 39.3366 30.3733 39.5586 30.178 39.66C28.657 40.4514 27.0208 40.9443 25.3127 41.1258C24.8014 41.1783 24.303 41.2041 23.8285 41.2041ZM14.659 36.4272C17.0985 38.9008 20.3488 40.2607 23.8285 40.2607C24.2707 40.2607 24.7378 40.2358 25.2151 40.1879C26.6836 40.0313 28.0978 39.6268 29.4217 38.9847C29.1969 37.7308 29.4631 36.4613 30.2167 35.2065C31.0311 33.8531 32.2739 32.789 33.8125 32.1294C34.6592 31.7664 35.4865 31.3039 36.2723 30.753C36.2871 30.6996 36.3 30.6461 36.3138 30.5927C36.37 30.378 36.4142 30.1717 36.4593 29.9662C36.498 29.7893 36.5257 29.6272 36.5524 29.466C36.6666 28.8054 36.7247 28.0988 36.7247 27.3645C36.7247 26.6874 36.6666 25.9725 36.5515 25.2391C36.5257 25.0834 36.498 24.9305 36.4621 24.7693C36.4234 24.5564 36.3792 24.362 36.3267 24.1677C36.2428 23.8434 36.1424 23.5163 36.0337 23.1966C35.9775 23.0216 35.9167 22.8557 35.8467 22.6899C35.8366 22.665 35.8273 22.6383 35.8218 22.6107C35.7325 22.3979 35.6698 22.2477 35.6053 22.1021C35.5252 21.9271 35.4441 21.7557 35.3547 21.5844C35.2663 21.3983 35.1769 21.2306 35.0811 21.0629C34.5247 20.0578 33.8208 19.1282 32.9861 18.2926C32.858 18.1553 32.7245 18.031 32.5992 17.913C32.4472 17.7721 32.3329 17.6652 32.2095 17.5749C31.8327 17.246 31.4669 16.9632 31.0818 16.7034C30.4903 17.199 29.8067 17.5436 29.0439 17.7288C28.5216 17.855 27.9835 17.9167 27.4225 17.902C25.8618 17.8734 24.2772 17.3142 22.9607 16.3275C22.2319 15.7747 21.4212 15.2892 20.5478 14.882C15.2578 16.2676 11.3737 20.9514 10.972 26.3981C12.1632 26.8385 13.125 27.7035 13.8344 28.974C14.6019 30.3605 14.9013 31.9691 14.7023 33.6283C14.5871 34.5625 14.5724 35.5031 14.659 36.4272Z" fill="url(#paint2_linear_11442_92747)"/>
<path d="M27.5552 17.9028C27.5101 17.9028 27.465 17.9028 27.4189 17.9019C25.8582 17.8733 24.2736 17.3141 22.9571 16.3274C19.3014 13.5801 15.0027 13.324 12.7502 13.4207C12.2785 13.4419 11.816 13.2098 11.558 12.7998C11.2992 12.3889 11.2826 11.8914 11.5147 11.4685C12.3586 9.97238 13.5554 8.58768 15.0737 7.34763C18.113 4.90162 22.0616 3.72422 25.9015 4.113C26.5695 4.1692 27.2604 4.28436 27.9477 4.45388C30.5577 5.09417 32.2971 6.31948 33.117 8.09387C34.3866 10.8411 32.9706 13.8842 32.8231 14.1873C32.0622 16.1091 30.7899 17.3003 29.0413 17.7278C28.5604 17.8448 28.0619 17.9028 27.5552 17.9028ZM13.4955 12.4617C16.0014 12.4617 20.0302 12.9472 23.5237 15.5729C24.6818 16.4416 26.072 16.9336 27.4373 16.9585C27.921 16.9686 28.3743 16.9189 28.8174 16.8111C30.2555 16.4601 31.3104 15.4549 31.9525 13.8243C31.9571 13.8114 31.9627 13.7976 31.9691 13.7856C31.9829 13.757 33.3787 10.901 32.2584 8.4845C31.5638 6.98557 30.0372 5.93807 27.722 5.36963C27.0826 5.21209 26.4405 5.10523 25.814 5.05179C22.2044 4.6842 18.5119 5.79066 15.6679 8.08098C14.2436 9.24364 13.1224 10.538 12.3393 11.9273C12.249 12.0923 12.3209 12.2406 12.3559 12.2959C12.4333 12.4184 12.5613 12.482 12.7041 12.4783C12.9455 12.4681 13.2108 12.4617 13.4955 12.4617Z" fill="url(#paint3_linear_11442_92747)"/>
<path d="M35.8144 18.6761C35.608 18.6761 35.4182 18.5398 35.3602 18.3316C33.0127 9.9405 22.3249 9.73045 22.2171 9.72953C21.9564 9.72677 21.7473 9.51395 21.75 9.25322C21.7528 8.99434 21.9638 8.78613 22.2217 8.78613H22.2263C22.3406 8.78705 33.7286 8.99987 36.2686 18.0773C36.3386 18.3279 36.1921 18.5886 35.9415 18.6586C35.8991 18.6706 35.8558 18.6761 35.8144 18.6761Z" fill="url(#paint4_linear_11442_92747)"/>
<path d="M22.6768 11.8605C22.5542 11.8605 22.4796 11.8522 22.4649 11.8504C22.2069 11.8163 22.0254 11.5795 22.0586 11.3206C22.0927 11.0645 22.3295 10.8756 22.5837 10.9143C22.6528 10.9199 23.9767 11.0405 25.0767 9.40434C25.2232 9.18784 25.5171 9.13256 25.7318 9.27628C25.9473 9.42185 26.0054 9.71481 25.8598 9.93132C24.6815 11.6845 23.2176 11.8605 22.6768 11.8605ZM27.1367 13.3705C27.0142 13.3705 26.9386 13.3622 26.9239 13.3603C26.6659 13.3263 26.4835 13.0895 26.5176 12.8306C26.5517 12.5745 26.7774 12.3902 27.0437 12.4243C27.1054 12.4308 28.4348 12.5533 29.5357 10.9143C29.6832 10.6969 29.978 10.6425 30.1899 10.7863C30.4064 10.9318 30.4644 11.2248 30.3188 11.4404C29.1414 13.1945 27.6784 13.3705 27.1367 13.3705ZM27.2786 10.5716C27.251 10.5716 27.2233 10.5698 27.1957 10.5642C26.9396 10.5191 26.7682 10.275 26.8134 10.0179C27.1561 8.06848 26.1076 7.23656 26.0625 7.20155C25.858 7.04401 25.8156 6.7492 25.9713 6.54283C26.1261 6.33738 26.4172 6.2904 26.6263 6.44517C26.6899 6.49216 28.1916 7.63179 27.742 10.1819C27.7015 10.4104 27.5025 10.5716 27.2786 10.5716Z" fill="url(#paint5_linear_11442_92747)"/>
<path d="M16.0863 45.9691C14.4105 45.9691 12.6527 45.6218 10.859 44.9373C6.54275 43.2734 3.20033 39.6491 1.91421 35.2417C1.16705 32.6602 1.36052 30.5413 2.48909 28.9438C4.28928 26.3936 7.78556 26.1569 7.93389 26.1486C8.88466 26.0085 9.79857 26.0518 10.6075 26.2785C11.97 26.6709 13.0553 27.5775 13.8356 28.9742C14.6031 30.3607 14.9025 31.9693 14.7035 33.6285C14.5819 34.617 14.5727 35.612 14.6759 36.5886C14.9744 39.6841 16.2595 42.2867 17.2859 43.9257C17.5429 44.3173 17.5668 44.8322 17.343 45.2606C17.1191 45.69 16.699 45.9544 16.2199 45.9682C16.1766 45.9682 16.1315 45.9691 16.0863 45.9691ZM9.00719 27.0137C8.69487 27.0137 8.36781 27.0376 8.02878 27.0864C7.95876 27.092 4.79046 27.314 3.2556 29.4928C2.30484 30.8444 2.15835 32.6897 2.82076 34.9791C4.02395 39.1046 7.1554 42.4986 11.1971 44.0565C12.8812 44.6996 14.5266 45.0257 16.0863 45.0257C16.1232 45.0257 16.16 45.0248 16.1978 45.0248C16.3858 45.0183 16.476 44.8829 16.5065 44.824C16.5737 44.6968 16.5682 44.5513 16.4917 44.4352C15.4064 42.7013 14.0521 39.9577 13.7371 36.6835C13.6265 35.6406 13.6366 34.5728 13.7675 33.5143C13.9425 32.0549 13.6809 30.6426 13.0111 29.433C12.3579 28.2629 11.4615 27.5056 10.3495 27.1859C9.93861 27.0708 9.48994 27.0137 9.00719 27.0137Z" fill="url(#paint6_linear_11442_92747)"/>
<path d="M8.94971 38.272C8.78572 38.272 8.62541 38.1854 8.53881 38.0325C8.48261 37.9321 2.97241 27.9628 9.5642 21.2246C9.74662 21.0385 10.0451 21.0357 10.2312 21.2172C10.4173 21.3996 10.421 21.6981 10.2386 21.8842C4.1452 28.113 9.30809 37.4751 9.3606 37.5682C9.48866 37.7957 9.40851 38.0832 9.18095 38.2112C9.10817 38.2527 9.02894 38.272 8.94971 38.272Z" fill="url(#paint7_linear_11442_92747)"/>
<path d="M10.6331 36.9491C10.4498 36.9491 10.2747 36.8414 10.1992 36.6617C10.1725 36.6018 9.61326 35.3922 7.6454 35.2577C7.38559 35.2402 7.18936 35.0144 7.20687 34.7546C7.22529 34.4948 7.45101 34.2903 7.70989 34.3161C10.2922 34.493 11.0385 36.2232 11.0689 36.2969C11.1684 36.5373 11.0542 36.8137 10.8137 36.9132C10.7547 36.9381 10.6939 36.9491 10.6331 36.9491ZM9.71184 32.3326C9.5285 32.3326 9.35346 32.2248 9.27791 32.0451C9.25212 31.9871 8.69288 30.7747 6.72319 30.6411C6.46339 30.6236 6.26715 30.3979 6.28466 30.1381C6.30308 29.8783 6.53341 29.6802 6.78768 29.6995C9.37004 29.8746 10.1172 31.6066 10.1476 31.6803C10.2471 31.9208 10.1329 32.1972 9.89241 32.2967C9.83345 32.3215 9.77264 32.3326 9.71184 32.3326ZM4.77744 35.9201C4.75993 35.9201 4.74151 35.9191 4.724 35.9173C4.46512 35.8878 4.27902 35.6547 4.30758 35.3959C4.31679 35.3166 4.55356 33.4464 6.98576 32.5611C7.23082 32.4726 7.50076 32.5979 7.59012 32.843C7.67948 33.0871 7.55327 33.358 7.30821 33.4473C5.41957 34.1355 5.24637 35.4871 5.24545 35.5009C5.21781 35.7423 5.01421 35.9201 4.77744 35.9201Z" fill="url(#paint8_linear_11442_92747)"/>
<path d="M44.0848 42.0726C41.6602 44.6009 39.481 44.8934 37.7734 44.3839C38.8489 44.0632 40.0187 43.3556 41.2546 42.0726C44.3489 38.8367 45.7451 34.2896 45.0565 29.8745C44.8584 28.6575 44.5282 27.3839 43.981 26.1575C44.2546 25.7235 44.481 25.3179 44.6697 24.9688C44.9716 24.3745 45.8206 24.3273 46.1602 24.9028C47.1131 26.4971 47.6225 28.233 47.8867 29.8745C48.5753 34.2896 47.1791 38.8367 44.0848 42.0726Z" fill="url(#paint9_linear_11442_92747)"/>
<path d="M39.209 45.0703C38.6875 45.0703 38.1652 44.992 37.6419 44.8363C37.442 44.7764 37.3047 44.5922 37.3047 44.3839C37.3047 44.1757 37.442 43.9915 37.6419 43.9316C38.7308 43.6073 39.8336 42.8712 40.918 41.7454C43.8873 38.6397 45.2618 34.2295 44.593 29.9474C44.3783 28.6254 44.0282 27.4139 43.5528 26.3498C43.4893 26.2051 43.5013 26.0393 43.5851 25.9057C43.8523 25.4819 44.0734 25.0858 44.2567 24.7449C44.4732 24.3202 44.9145 24.0401 45.4046 24.0254C45.8772 23.9987 46.325 24.2493 46.5691 24.6638C47.4407 26.1204 48.0423 27.8496 48.3555 29.8C49.0686 34.3723 47.601 39.081 44.429 42.3986C42.7246 44.1767 40.9751 45.0703 39.209 45.0703ZM44.5147 26.1959C44.9716 27.2775 45.3116 28.4881 45.5244 29.7991C46.2384 34.3723 44.7708 39.081 41.5988 42.3986C40.9143 43.1089 40.2169 43.6801 39.513 44.1094C40.9217 44.0044 42.3395 43.2139 43.7472 41.7463C46.7175 38.6397 48.092 34.2295 47.4232 29.9474C47.1293 28.1177 46.5691 26.5018 45.7584 25.1457C45.6598 24.9798 45.5004 24.966 45.4332 24.9679C45.2858 24.9725 45.1586 25.0526 45.0923 25.1825C44.9274 25.4902 44.7367 25.832 44.5147 26.1959Z" fill="url(#paint10_linear_11442_92747)"/>
<path d="M36.3526 45.0675C32.9568 45.0675 30.7374 41.7666 30.7125 41.7288C28.6332 39.1197 29.29 36.7391 30.2113 35.207C31.0257 33.8537 32.2686 32.7896 33.8071 32.1299C38.0128 30.3362 40.3842 26.7367 41.4234 24.7504C41.6426 24.3202 42.0839 24.0401 42.5741 24.0254C43.0504 23.9987 43.4944 24.2493 43.7386 24.6638C43.9974 25.1005 44.2186 25.5262 44.4148 25.9656C44.9224 27.1034 45.2955 28.3932 45.524 29.7991C46.238 34.3723 44.7704 39.081 41.5984 42.3986L41.5975 42.3995C40.398 43.6442 39.1579 44.4641 37.9105 44.8363C37.3688 44.9966 36.8474 45.0675 36.3526 45.0675ZM42.6137 24.9679C42.61 24.9679 42.6063 24.9679 42.6026 24.9679C42.4552 24.9725 42.3281 25.0526 42.2617 25.1825C41.1617 27.2849 38.6522 31.0898 34.1784 32.9969C32.8434 33.5699 31.7213 34.528 31.0202 35.6935C29.9036 37.5489 30.0566 39.3933 31.4753 41.1751C31.6025 41.364 34.0614 44.9938 37.6415 43.9316C38.7305 43.6073 39.8332 42.8712 40.9176 41.7454C43.8869 38.6388 45.2615 34.2286 44.5926 29.9474C44.3779 28.6254 44.0278 27.4139 43.5525 26.3498C43.3719 25.9444 43.1674 25.5501 42.9269 25.1438C42.8348 24.9881 42.6846 24.9679 42.6137 24.9679Z" fill="url(#paint11_linear_11442_92747)"/>
<path d="M28.4524 43.148C27.5532 43.148 26.6126 43.0365 25.636 42.7859C25.3836 42.7215 25.2316 42.4644 25.2961 42.212C25.3606 41.9605 25.6139 41.8075 25.87 41.872C34.3025 44.0343 39.8376 34.8841 39.892 34.791C40.0237 34.5662 40.3139 34.4916 40.5378 34.6243C40.7626 34.7569 40.8372 35.0462 40.7046 35.2701C40.652 35.3585 35.959 43.148 28.4524 43.148Z" fill="url(#paint12_linear_11442_92747)"/>
<path d="M38.3207 38.1046C38.1466 38.1046 37.9789 38.0079 37.8969 37.8402C36.7582 35.5158 37.884 34.0049 37.9328 33.9414C38.0922 33.735 38.3889 33.6954 38.5943 33.8548C38.7998 34.0123 38.8394 34.3062 38.6837 34.5126C38.645 34.5651 37.8767 35.654 38.7445 37.4257C38.8587 37.6597 38.762 37.9416 38.528 38.0567C38.4617 38.089 38.3907 38.1046 38.3207 38.1046ZM34.783 41.2112C34.6089 41.2112 34.4412 41.1145 34.3592 40.9468C33.2205 38.6224 34.3463 37.1106 34.3951 37.047C34.5545 36.8406 34.8502 36.801 35.0566 36.9604C35.2621 37.1179 35.3017 37.4118 35.146 37.6182C35.1073 37.6707 34.3389 38.7606 35.2068 40.5322C35.321 40.7662 35.2243 41.0482 34.9903 41.1633C34.9239 41.1956 34.853 41.2112 34.783 41.2112Z" fill="url(#paint13_linear_11442_92747)"/>
<path d="M39.4604 40.4336C38.7593 40.4336 37.7828 40.2208 36.739 39.3446C36.5391 39.1769 36.5133 38.8794 36.6809 38.6804C36.8486 38.4805 37.1453 38.4547 37.3452 38.6223C38.8598 39.8928 40.1072 39.4008 40.1597 39.3806C40.3983 39.2801 40.6738 39.3925 40.776 39.6311C40.8774 39.8688 40.7696 40.1434 40.5328 40.2466C40.4978 40.2622 40.0906 40.4336 39.4604 40.4336Z" fill="url(#paint14_linear_11442_92747)"/>
<path d="M16.1502 27.7506H19.5625V26.7638H16.1502V25.1591H19.8399V24.1299H15.0625V30.5818H19.9031V29.5742H16.1502V27.7506Z" fill="url(#paint15_linear_11442_92747)"/>
<path d="M25.1216 28.1468C25.0415 28.5335 24.9199 28.848 24.7587 29.0823C24.4601 29.521 24.0355 29.7341 23.4621 29.7341C22.8305 29.7341 22.3716 29.5315 22.058 29.1131C21.7392 28.6886 21.578 28.1239 21.578 27.4333C21.578 26.5877 21.755 25.957 22.1065 25.5563C22.4562 25.1563 22.9054 24.9617 23.4788 24.9617C23.943 24.9617 24.3051 25.0683 24.5544 25.2788C24.8063 25.4902 24.9772 25.7844 25.0626 26.1517L25.0873 26.2565H26.1593L26.1461 26.1085C26.0958 25.5536 25.8395 25.0524 25.385 24.6181C24.9296 24.183 24.2848 23.9619 23.47 23.9619C22.5143 23.9619 21.7533 24.2993 21.208 24.9626C20.7068 25.5686 20.4531 26.3517 20.4531 27.2906C20.4531 28.5256 20.7931 29.4558 21.4626 30.0547C21.9717 30.5093 22.6112 30.7409 23.3608 30.7409C24.2284 30.7409 24.9305 30.4591 25.4449 29.9032C25.873 29.4426 26.1284 28.8665 26.2051 28.1891L26.2218 28.0385H25.1436L25.1216 28.1468ZM32.2865 25.0683C31.7368 24.3345 30.885 23.9619 29.7549 23.9619C28.6697 23.9619 27.8373 24.3671 27.2797 25.1643C26.8507 25.78 26.6323 26.5278 26.6323 27.3875C26.6323 28.3397 26.8877 29.1404 27.3933 29.7729C27.9615 30.4291 28.7507 30.7621 29.7382 30.7621C30.7961 30.7621 31.6232 30.3815 32.1966 29.6319C32.6811 28.9995 32.9277 28.1979 32.9277 27.2484C32.9277 26.3693 32.7119 25.6364 32.2865 25.0683ZM31.7985 27.2616C31.7985 27.9196 31.639 28.5089 31.3254 29.0136C31.0189 29.5042 30.5336 29.742 29.8395 29.742C29.1119 29.742 28.5807 29.5236 28.2636 29.0929C27.9359 28.6489 27.7703 28.0931 27.7703 27.4421C27.7703 26.6256 27.9615 26.0028 28.3402 25.5924C28.7208 25.1792 29.2 24.9784 29.8051 24.9784C30.4287 24.9784 30.9053 25.1801 31.2611 25.595C31.6179 26.0108 31.7985 26.5719 31.7985 27.2616Z" fill="url(#paint16_linear_11442_92747)"/>
<defs>
<linearGradient id="paint0_linear_11442_92747" x1="24.7891" y1="33.1306" x2="42.5989" y2="29.7297" gradientUnits="userSpaceOnUse">
<stop stop-color="#0575E6"/>
<stop offset="1" stop-color="#021B79"/>
</linearGradient>
<linearGradient id="paint1_linear_11442_92747" x1="25.3828" y1="25.4617" x2="42.5918" y2="21.1075" gradientUnits="userSpaceOnUse">
<stop stop-color="#0575E6"/>
<stop offset="1" stop-color="#021B79"/>
</linearGradient>
<linearGradient id="paint2_linear_11442_92747" x1="10.0078" y1="35.1998" x2="37.5374" y2="22.3653" gradientUnits="userSpaceOnUse">
<stop stop-color="#0575E6"/>
<stop offset="1" stop-color="#021B79"/>
</linearGradient>
<linearGradient id="paint3_linear_11442_92747" x1="11.3516" y1="14.853" x2="28.8082" y2="1.94153" gradientUnits="userSpaceOnUse">
<stop stop-color="#0575E6"/>
<stop offset="1" stop-color="#021B79"/>
</linearGradient>
<linearGradient id="paint4_linear_11442_92747" x1="21.75" y1="16.5003" x2="33.8369" y2="8.32843" gradientUnits="userSpaceOnUse">
<stop stop-color="#0575E6"/>
<stop offset="1" stop-color="#021B79"/>
</linearGradient>
<linearGradient id="paint5_linear_11442_92747" x1="22.0547" y1="11.8267" x2="29.8363" y2="7.57006" gradientUnits="userSpaceOnUse">
<stop stop-color="#0575E6"/>
<stop offset="1" stop-color="#021B79"/>
</linearGradient>
<linearGradient id="paint6_linear_11442_92747" x1="1.46875" y1="41.5909" x2="18.5439" y2="35.2652" gradientUnits="userSpaceOnUse">
<stop stop-color="#0575E6"/>
<stop offset="1" stop-color="#021B79"/>
</linearGradient>
<linearGradient id="paint7_linear_11442_92747" x1="6.32812" y1="34.4904" x2="11.1723" y2="33.9661" gradientUnits="userSpaceOnUse">
<stop stop-color="#0575E6"/>
<stop offset="1" stop-color="#021B79"/>
</linearGradient>
<linearGradient id="paint8_linear_11442_92747" x1="4.30469" y1="35.3539" x2="11.251" y2="32.3573" gradientUnits="userSpaceOnUse">
<stop stop-color="#0575E6"/>
<stop offset="1" stop-color="#021B79"/>
</linearGradient>
<linearGradient id="paint9_linear_11442_92747" x1="37.7734" y1="40.172" x2="49.5811" y2="37.3922" gradientUnits="userSpaceOnUse">
<stop stop-color="#0575E6"/>
<stop offset="1" stop-color="#021B79"/>
</linearGradient>
<linearGradient id="paint10_linear_11442_92747" x1="37.3047" y1="40.44" x2="50.1357" y2="37.2913" gradientUnits="userSpaceOnUse">
<stop stop-color="#0575E6"/>
<stop offset="1" stop-color="#021B79"/>
</linearGradient>
<linearGradient id="paint11_linear_11442_92747" x1="29.3359" y1="40.4378" x2="46.9148" y2="34.1493" gradientUnits="userSpaceOnUse">
<stop stop-color="#0575E6"/>
<stop offset="1" stop-color="#021B79"/>
</linearGradient>
<linearGradient id="paint12_linear_11442_92747" x1="25.2812" y1="41.2583" x2="36.3983" y2="32.0367" gradientUnits="userSpaceOnUse">
<stop stop-color="#0575E6"/>
<stop offset="1" stop-color="#021B79"/>
</linearGradient>
<linearGradient id="paint13_linear_11442_92747" x1="33.8516" y1="39.5713" x2="39.3288" y2="37.9013" gradientUnits="userSpaceOnUse">
<stop stop-color="#0575E6"/>
<stop offset="1" stop-color="#021B79"/>
</linearGradient>
<linearGradient id="paint14_linear_11442_92747" x1="36.5703" y1="40.0108" x2="39.101" y2="37.4402" gradientUnits="userSpaceOnUse">
<stop stop-color="#0575E6"/>
<stop offset="1" stop-color="#021B79"/>
</linearGradient>
<linearGradient id="paint15_linear_11442_92747" x1="15.0625" y1="29.1624" x2="20.3031" y2="27.3537" gradientUnits="userSpaceOnUse">
<stop stop-color="#0575E6"/>
<stop offset="1" stop-color="#021B79"/>
</linearGradient>
<linearGradient id="paint16_linear_11442_92747" x1="20.4531" y1="29.266" x2="29.2811" y2="21.8166" gradientUnits="userSpaceOnUse">
<stop stop-color="#0575E6"/>
<stop offset="1" stop-color="#021B79"/>
</linearGradient>
</defs>
</svg>
