<svg width="336" height="250" viewBox="0 0 336 250" fill="none" xmlns="http://www.w3.org/2000/svg">
<path fill-rule="evenodd" clip-rule="evenodd" d="M37.9607 139.734C28.3484 148.914 22.7183 162.587 23.8561 177.261C25.5235 198.859 41.3152 215.533 60.8144 218.005H60.8537C62.8153 218.26 64.8163 218.358 66.8368 218.299C105.659 219.457 136.477 205.725 207.843 236.641C221.556 243.036 237.151 245.959 253.394 244.41C302.652 239.682 339.453 195.603 335.609 145.952C332.882 110.681 310.362 82.099 279.896 70.1915C257.396 60.9519 218.77 60.1869 184.009 44.3168C153.838 30.526 134.496 -2.72467 100.872 0.178638C99.9894 0.217872 99.1067 0.276723 98.2043 0.374807C69.8382 3.10156 48.5734 27.6424 50.7117 55.2042C50.849 56.9697 51.0844 58.696 51.3983 60.383C57.3422 92.241 52.8696 118.685 37.9607 139.734Z" fill="#E9F0F7"/>
<path fill-rule="evenodd" clip-rule="evenodd" d="M59.1813 183.535C52.9039 178.886 48.4508 174.825 52.1584 167.508C56.945 157.7 53.5316 152.207 41.8792 150.991C33.6204 148.754 30.5406 143.889 32.6396 136.415C32.6788 133.728 31.1683 131.276 28.7554 130.118C26.3425 128.961 23.4785 129.314 21.4187 131.04C19.3589 132.747 18.4958 135.513 19.202 138.102C16.7695 141.83 16.181 146.459 17.613 150.677C20.889 160.348 27.6961 156.366 27.4215 166.292C27.3234 170.019 21.7522 173.472 28.677 184.124C32.2276 189.597 42.5658 191.147 44.1547 203.368C45.0375 210.156 48.3724 213.49 52.335 214.609C54.0613 219.042 58.4947 222.063 63.497 221.749C69.6764 221.357 74.3844 216.021 73.9921 209.842C73.8351 207.331 72.8543 205.055 71.3242 203.27C72.9132 196.738 70.1079 188.793 59.1813 183.535Z" fill="#C8E1FB"/>
<path fill-rule="evenodd" clip-rule="evenodd" d="M73.9185 220.516C72.9376 222.203 72.4472 223.047 72.4472 223.047C67.8765 217.829 63.6 212.375 59.5981 206.667C57.4206 205.666 53.9877 203.567 49.2992 200.37C52.9284 202.273 56.0867 203.979 58.7938 205.509C53.0853 197.231 47.9849 188.443 43.473 179.144C41.2955 178.183 37.8037 176.064 33.0172 172.769C36.8817 174.789 40.2166 176.594 43.0218 178.203C39.2946 170.415 29.2899 153.76 26.4062 145.246C28.7995 150.837 37.5683 165.157 39.9419 170.14C39.4908 167.315 39.3338 163.647 38.863 160.076C40.197 165.334 40.5697 169.041 40.8443 171.572C43.8457 177.771 47.2591 183.695 50.2408 188.913C50.1035 185.814 50.0054 182.224 49.9662 178.183C50.6724 183.617 51.0059 187.599 50.9667 190.149C52.9872 193.641 54.9881 196.917 57.0087 199.958C56.4202 196.525 55.812 192.405 55.1647 187.638C56.8125 194.21 57.656 198.663 57.6757 200.978C63.1292 209.197 68.5434 215.691 73.9185 220.516Z" fill="white"/>
<path fill-rule="evenodd" clip-rule="evenodd" d="M72.6728 187.048C69.7303 181.614 67.9059 177.181 73.0259 173.179C79.7546 167.745 79.1464 162.645 71.2016 157.878C66.0227 153.503 65.4538 148.972 69.4753 144.322C70.4169 142.42 70.1423 140.144 68.7887 138.496C67.4351 136.848 65.2576 136.142 63.2175 136.691C61.1577 137.221 59.608 138.908 59.2548 141.007C56.2535 142.851 54.2721 145.99 53.8798 149.482C52.9774 157.525 59.196 156.956 55.665 163.979C54.331 166.627 49.1717 167.235 50.5645 177.181C51.2708 182.301 58.1759 186.891 55.1941 196.19C53.5463 201.369 54.8214 204.86 57.2932 206.999C57.0381 210.765 59.2156 214.414 62.9036 215.865C67.4743 217.67 72.6336 215.414 74.4384 210.844C75.1642 208.98 75.223 207.018 74.7326 205.233C78.0675 201.114 78.7345 194.483 72.6728 187.048Z" fill="#D1E3F6"/>
<path fill-rule="evenodd" clip-rule="evenodd" d="M70.8159 218.517C69.5408 219.399 68.9131 219.831 68.9131 219.831C67.3829 214.554 66.1471 209.198 65.2055 203.765C63.9696 202.313 62.2237 199.665 59.9285 195.78C61.8902 198.37 63.5969 200.665 65.0093 202.666C63.695 194.819 62.9887 186.796 62.871 178.616C61.6352 177.203 59.85 174.496 57.5156 170.533C59.6146 173.28 61.3998 175.693 62.871 177.792C62.8122 170.945 61.2428 155.625 62.0079 148.562C61.851 153.388 63.3222 166.59 63.3419 170.965C63.9696 168.788 65.0878 166.1 65.9509 163.393C65.127 167.611 64.1658 170.396 63.4988 172.319C63.5773 177.772 64.0284 183.167 64.4208 187.914C65.3624 185.639 66.5002 183.049 67.8145 180.126C66.5002 184.265 65.382 187.228 64.4993 189.052C64.7739 192.249 65.1074 195.27 65.539 198.115C66.2648 195.447 67.2064 192.289 68.3638 188.66C67.3437 193.936 66.461 197.409 65.6763 199.076C66.8729 206.766 68.5796 213.259 70.8159 218.517Z" fill="white"/>
<path fill-rule="evenodd" clip-rule="evenodd" d="M51.609 197.68C44.9 197.563 40.9962 194.031 39.9369 187.067C38.3872 177.808 33.2279 175.67 24.4788 180.653C17.5932 183.223 13.0029 181.359 10.7273 175.081C9.41297 173.179 7.11778 172.217 4.86183 172.629C2.60589 173.041 0.761892 174.709 0.193001 176.945C-0.395508 179.181 0.389171 181.535 2.17431 182.987C2.33125 186.812 4.23409 190.343 7.35319 192.58C14.4938 197.7 19.7903 191.226 24.5572 198.308C27.8725 203.251 23.851 207.881 28.1275 214.629C29.4811 216.767 31.4036 218.219 33.8557 218.101C39.4661 217.846 45.0373 208.391 52.2564 216.14C71.8341 237.169 79.622 192.796 51.609 197.68Z" fill="#D1E3F6"/>
<path fill-rule="evenodd" clip-rule="evenodd" d="M76.1109 226.791C77.8175 225.85 78.6807 225.398 78.6807 225.398C73.5803 220.69 68.2445 216.276 62.6536 212.137C61.712 209.921 59.7111 206.448 56.6312 201.662C58.436 205.35 60.0642 208.547 61.5159 211.294C53.3944 205.369 44.7434 200.034 35.5823 195.286C34.6799 193.089 32.6397 189.539 29.4814 184.654C31.4039 188.577 33.1105 191.951 34.6406 194.796C26.9508 190.853 18.9079 187.341 10.4922 184.222C16.0242 186.773 21.2619 189.284 26.1857 191.795C23.3805 191.265 20.2026 190.716 16.6519 190.166C21.87 191.638 25.7542 192.54 28.2848 192.873C34.4052 196.032 40.0353 199.171 45.1946 202.29C42.0951 202.074 38.5248 201.878 34.4837 201.721C39.898 202.564 43.8802 202.996 46.4304 203.035C49.883 205.154 53.1002 207.253 56.082 209.332C52.649 208.645 48.5687 207.92 43.8214 207.174C50.3538 208.999 54.7676 209.96 57.0824 210.038C65.0665 215.708 71.4224 221.298 76.1109 226.791ZM281.893 200.818C294.624 196.483 297.096 197.582 303.04 208.959C298.999 196.777 299.94 194.227 311.907 188.107C299.175 192.442 296.703 191.343 290.759 179.966C294.801 192.148 293.859 194.678 281.893 200.818ZM294.192 139.143C300.999 136.828 302.314 137.416 305.492 143.498C303.334 136.985 303.824 135.631 310.219 132.355C303.412 134.67 302.098 134.081 298.92 128C301.098 134.513 300.588 135.867 294.192 139.143ZM252.31 181.594C259.196 179.259 260.53 179.848 263.747 186.008C261.569 179.416 262.06 178.043 268.553 174.728C261.668 177.062 260.334 176.474 257.116 170.334C259.294 176.905 258.784 178.278 252.31 181.594ZM301.451 89.9042C306.002 102.557 308.415 103.813 321.009 101.36C308.964 105.794 307.552 108.109 310.219 121.291C305.668 108.638 303.255 107.383 290.661 109.835C302.706 105.421 304.119 103.106 301.451 89.9042ZM260.902 137.985C263.335 144.753 264.61 145.42 271.339 144.106C264.904 146.479 264.159 147.715 265.591 154.758C263.158 148.01 261.883 147.323 255.155 148.637C261.569 146.264 262.315 145.028 260.902 137.985ZM267.984 78.7617C270.436 85.608 271.751 86.275 278.558 84.9607C272.045 87.3539 271.28 88.6094 272.731 95.7304C270.279 88.8841 268.965 88.2171 262.158 89.5314C268.671 87.1382 269.436 85.8827 267.984 78.7617Z" fill="white"/>
<path fill-rule="evenodd" clip-rule="evenodd" d="M262.748 204.645C269.025 199.995 273.478 195.935 269.771 188.618C264.984 178.809 268.397 173.316 280.05 172.1C288.309 169.864 291.388 164.999 289.289 157.525C289.25 154.837 290.761 152.385 293.174 151.228C295.586 150.07 298.451 150.423 300.51 152.15C302.57 153.856 303.433 156.622 302.727 159.212C305.16 162.939 305.748 167.569 304.316 171.767C301.04 181.438 294.233 177.456 294.508 187.382C294.606 191.109 300.177 194.562 293.252 205.214C289.701 210.687 279.363 212.236 277.774 224.458C276.892 231.245 273.557 234.58 269.594 235.698C267.868 240.132 263.434 243.153 258.432 242.839C252.253 242.447 247.545 237.111 247.937 230.931C248.094 228.42 249.075 226.145 250.605 224.36C249.035 217.847 251.821 209.902 262.748 204.645Z" fill="#C8E1FB"/>
<path fill-rule="evenodd" clip-rule="evenodd" d="M248.016 241.606C248.996 243.293 249.487 244.137 249.487 244.137C254.058 238.919 258.334 233.465 262.336 227.757C264.513 226.756 267.946 224.657 272.635 221.459C269.006 223.362 265.828 225.069 263.14 226.599C268.849 218.321 273.949 209.532 278.461 200.234C280.639 199.273 284.13 197.154 288.917 193.858C285.052 195.879 281.718 197.684 278.912 199.292C282.64 191.504 292.644 174.85 295.528 166.355C293.135 171.946 284.366 186.267 281.992 191.249C282.443 188.425 282.6 184.756 283.071 181.186C281.737 186.443 281.364 190.151 281.09 192.681C278.088 198.88 274.675 204.805 271.693 210.023C271.831 206.923 271.929 203.353 271.968 199.292C271.262 204.726 270.928 208.708 270.967 211.259C268.947 214.75 266.946 218.027 264.925 221.067C265.514 217.634 266.122 213.515 266.769 208.748C265.122 215.319 264.278 219.772 264.258 222.087C258.825 230.287 253.391 236.8 248.016 241.606Z" fill="white"/>
<path fill-rule="evenodd" clip-rule="evenodd" d="M249.27 208.138C252.213 202.704 254.037 198.29 248.917 194.288C242.189 188.854 242.797 183.754 250.742 178.987C255.901 174.613 256.489 170.081 252.468 165.432C251.526 163.529 251.801 161.253 253.154 159.606C254.508 157.958 256.686 157.252 258.726 157.801C260.785 158.331 262.335 160.018 262.688 162.117C265.69 163.961 267.671 167.099 268.063 170.591C268.966 178.634 262.728 178.065 266.278 185.088C267.612 187.736 272.771 188.344 271.379 198.29C270.672 203.41 263.787 208.001 266.749 217.299C268.397 222.478 267.122 225.97 264.65 228.108C264.905 231.874 262.728 235.523 259.04 236.975C254.469 238.78 249.31 236.524 247.524 231.953C246.799 230.089 246.74 228.128 247.23 226.342C243.856 222.223 243.189 215.592 249.27 208.138Z" fill="#D1E3F6"/>
<path fill-rule="evenodd" clip-rule="evenodd" d="M251.109 239.602C252.384 240.485 253.012 240.917 253.012 240.917C254.542 235.64 255.778 230.284 256.72 224.851C257.956 223.399 259.702 220.751 261.997 216.866C260.035 219.456 258.328 221.731 256.916 223.752C258.23 215.905 258.937 207.882 259.054 199.702C260.29 198.289 262.075 195.582 264.41 191.619C262.311 194.366 260.526 196.779 259.054 198.878C259.113 192.031 260.682 176.73 259.917 169.648C260.074 174.474 258.603 187.676 258.583 192.051C257.956 189.873 256.838 187.186 255.974 184.479C256.798 188.696 257.76 191.482 258.427 193.385C258.348 198.838 257.897 204.233 257.504 208.98C256.563 206.705 255.425 204.115 254.111 201.192C255.425 205.332 256.543 208.294 257.426 210.118C257.151 213.316 256.818 216.337 256.386 219.181C255.661 216.513 254.719 213.355 253.561 209.726C254.582 215.003 255.484 218.475 256.249 220.142C255.052 227.852 253.346 234.345 251.109 239.602Z" fill="white"/>
<path fill-rule="evenodd" clip-rule="evenodd" d="M270.332 218.79C277.041 218.672 280.945 215.141 282.004 208.177C283.554 198.918 288.713 196.779 297.462 201.762C304.348 204.332 308.938 202.468 311.214 196.191C312.528 194.288 314.823 193.327 317.079 193.739C319.355 194.131 321.179 195.818 321.748 198.054C322.336 200.291 321.552 202.645 319.767 204.096C319.61 207.922 317.707 211.453 314.588 213.689C307.447 218.809 302.151 212.336 297.384 219.417C294.068 224.361 298.09 228.99 293.813 235.739C292.46 237.877 290.537 239.329 288.085 239.211C282.475 238.956 276.904 229.5 269.685 237.249C250.107 258.259 242.319 213.905 270.332 218.79Z" fill="#D1E3F6"/>
<path fill-rule="evenodd" clip-rule="evenodd" d="M245.838 247.901C244.131 246.96 243.268 246.508 243.268 246.508C248.369 241.8 253.704 237.387 259.295 233.247C260.237 231.031 262.238 227.558 265.318 222.772C263.513 226.46 261.885 229.657 260.433 232.404C268.555 226.48 277.206 221.144 286.367 216.396C287.269 214.199 289.309 210.649 292.468 205.764C290.545 209.687 288.838 213.062 287.308 215.906C294.998 211.963 303.041 208.452 311.457 205.332C305.925 207.883 300.687 210.394 295.763 212.905C298.568 212.375 301.746 211.845 305.297 211.276C300.079 212.748 296.195 213.65 293.664 213.984C287.544 217.142 281.914 220.281 276.754 223.4C279.854 223.184 283.424 222.988 287.465 222.831C282.051 223.674 278.069 224.106 275.519 224.145C272.066 226.264 268.849 228.343 265.867 230.442C269.3 229.756 273.38 229.049 278.128 228.284C271.595 230.109 267.181 231.07 264.867 231.148C256.863 236.818 250.507 242.389 245.838 247.901ZM159.386 63.4824C154.835 76.1353 152.422 77.3908 139.828 74.9386C151.873 79.3721 153.285 81.6869 150.598 94.8695C155.149 82.2165 157.562 80.9611 170.156 83.4132C158.111 78.9797 156.699 76.6649 159.386 63.4824ZM199.934 111.544C197.502 118.292 196.227 118.979 189.498 117.664C195.933 120.038 196.678 121.274 195.246 128.316C197.678 121.568 198.954 120.882 205.682 122.196C199.248 119.822 198.502 118.586 199.934 111.544ZM192.833 52.3203C190.381 59.1666 189.067 59.8336 182.26 58.5193C188.772 60.9125 189.537 62.168 188.086 69.3086C190.558 62.4623 191.852 61.7953 198.659 63.1096C192.147 60.6967 191.401 59.4609 192.833 52.3203Z" fill="white"/>
<path fill-rule="evenodd" clip-rule="evenodd" d="M125.407 224.282C178.844 228.343 222.158 235.876 222.158 241.074C222.158 246.293 178.844 247.215 125.407 243.154C71.9705 239.093 28.6562 231.56 28.6562 226.362C28.6562 221.163 71.9705 220.222 125.407 224.282Z" fill="#DBE6F2"/>
<path fill-rule="evenodd" clip-rule="evenodd" d="M235.09 250.002C250.882 250.002 263.75 248.08 263.75 245.726C263.75 243.372 250.882 241.449 235.09 241.449C219.298 241.449 206.43 243.372 206.43 245.726C206.43 248.08 219.318 250.002 235.09 250.002Z" fill="#DBE6F2"/>
<path fill-rule="evenodd" clip-rule="evenodd" d="M131.584 207.078L130.211 232.227L143.04 232.933L173.898 211.394L173.976 209.413L131.584 207.078Z" fill="#7DB7F2"/>
<path fill-rule="evenodd" clip-rule="evenodd" d="M141.461 231.66L143.03 232.935L173.888 211.395L173.966 209.414L141.461 231.66Z" fill="#89BEF3"/>
<path fill-rule="evenodd" clip-rule="evenodd" d="M171.093 207.627C171.133 208.353 171.191 209.098 171.27 209.824C171.27 209.824 145.611 226.302 140.942 230.245C140.942 230.245 136.293 222.653 140.255 209.255C140.255 209.255 170.093 188.971 172.722 187.559C172.722 187.559 172.035 190.383 171.525 194.699C171.486 194.915 171.466 195.15 171.446 195.386C171.074 198.74 170.819 202.879 171.054 207.234C171.074 207.352 171.074 207.489 171.093 207.627Z" fill="#C8E1FB"/>
<path fill-rule="evenodd" clip-rule="evenodd" d="M147.467 209.745C147.467 209.745 148.016 209.314 148.859 208.725C149.291 208.431 149.762 208.078 150.331 207.744C150.88 207.411 151.468 207.058 152.057 206.705C153.254 206.038 154.45 205.371 155.353 204.861C156.255 204.37 156.863 204.057 156.863 204.057C156.863 204.057 156.314 204.468 155.47 205.057C155.039 205.351 154.548 205.704 153.999 206.018C153.45 206.352 152.861 206.705 152.273 207.058C151.684 207.391 151.076 207.725 150.527 208.039C150.252 208.196 149.977 208.353 149.722 208.49C149.467 208.627 149.232 208.784 148.997 208.902C148.075 209.432 147.467 209.745 147.467 209.745ZM157.04 209.471C157.04 209.471 157.785 208.921 158.942 208.156C159.531 207.784 160.198 207.333 160.924 206.862C161.65 206.391 162.434 205.9 163.219 205.41C164.004 204.939 164.808 204.468 165.553 204.017C166.299 203.566 167.005 203.193 167.613 202.84C168.829 202.154 169.653 201.742 169.653 201.742C169.653 201.742 168.908 202.271 167.75 203.036C167.162 203.409 166.495 203.86 165.769 204.312C165.043 204.763 164.259 205.253 163.474 205.744C162.689 206.214 161.885 206.705 161.14 207.136C160.394 207.588 159.688 207.98 159.099 208.313C157.863 209.039 157.04 209.471 157.04 209.471ZM141.719 225.576C141.719 225.576 142.464 225.027 143.622 224.262C144.21 223.889 144.877 223.418 145.603 222.967C146.329 222.516 147.113 222.006 147.898 221.516C148.683 221.045 149.487 220.574 150.232 220.123C150.978 219.672 151.684 219.299 152.292 218.946C153.509 218.259 154.332 217.847 154.332 217.847C154.332 217.847 153.587 218.377 152.43 219.142C151.841 219.515 151.174 219.966 150.448 220.417C149.703 220.868 148.938 221.359 148.153 221.849C147.368 222.32 146.564 222.81 145.819 223.242C145.073 223.693 144.367 224.085 143.759 224.419C142.543 225.145 141.719 225.576 141.719 225.576ZM144.073 215.101C144.073 215.101 144.818 214.552 145.976 213.787C146.564 213.414 147.231 212.943 147.957 212.492C148.683 212.021 149.467 211.531 150.252 211.04C151.037 210.569 151.841 210.099 152.587 209.647C153.332 209.196 154.038 208.823 154.646 208.47C155.863 207.784 156.686 207.372 156.686 207.372C156.686 207.372 155.941 207.901 154.784 208.666C154.195 209.039 153.528 209.49 152.802 209.961C152.076 210.412 151.292 210.903 150.507 211.393C149.722 211.864 148.918 212.335 148.173 212.786C147.427 213.237 146.721 213.63 146.133 213.983C144.897 214.669 144.073 215.101 144.073 215.101ZM148.114 220.044C148.114 220.044 148.585 219.652 149.31 219.103C150.036 218.553 151.037 217.867 152.057 217.219C153.077 216.572 154.117 215.964 154.921 215.532C155.725 215.101 156.275 214.846 156.275 214.846C156.275 214.846 155.804 215.238 155.078 215.787C154.352 216.337 153.352 217.023 152.332 217.671C151.311 218.318 150.272 218.926 149.467 219.358C148.663 219.789 148.114 220.044 148.114 220.044ZM171.085 207.627L171.066 207.646C170.163 208.313 168.947 209.177 167.672 209.981C166.416 210.785 165.122 211.531 164.121 212.08C163.199 212.59 162.532 212.884 162.454 212.923C162.513 212.865 163.082 212.394 163.925 211.766C164.827 211.099 166.063 210.236 167.319 209.432C168.574 208.627 169.869 207.862 170.87 207.333C170.948 207.293 171.007 207.254 171.066 207.234C171.066 207.352 171.066 207.489 171.085 207.627ZM153.391 213.473C153.391 213.473 154.156 212.943 155.333 212.158C155.921 211.766 156.588 211.315 157.334 210.844C158.079 210.373 158.864 209.883 159.649 209.373C160.453 208.902 161.257 208.431 162.022 207.98C162.768 207.529 163.494 207.136 164.102 206.803C165.318 206.116 166.161 205.685 166.161 205.685L166.26 205.704L166.24 205.802C166.24 205.802 165.455 206.312 164.278 207.058C163.69 207.431 163.003 207.862 162.238 208.313C161.493 208.765 160.688 209.235 159.884 209.706C159.08 210.177 158.275 210.667 157.53 211.119C156.785 211.57 156.059 211.962 155.451 212.315C154.215 213.041 153.391 213.473 153.391 213.473ZM171.517 194.699C171.478 194.915 171.458 195.15 171.438 195.386C171.281 195.504 171.105 195.621 170.909 195.739C169.732 196.543 168.143 197.544 166.515 198.505C165.71 198.995 164.886 199.486 164.121 199.917C163.356 200.369 162.63 200.761 162.003 201.094C161.375 201.428 160.845 201.683 160.473 201.879C160.159 202.036 159.943 202.134 159.904 202.154C159.943 202.114 160.119 201.977 160.394 201.742C160.728 201.487 161.198 201.134 161.767 200.702C162.336 200.29 163.023 199.8 163.749 199.309C164.474 198.819 165.279 198.289 166.063 197.779C167.672 196.779 169.32 195.837 170.575 195.17C170.909 194.993 171.242 194.837 171.517 194.699Z" fill="white"/>
<path fill-rule="evenodd" clip-rule="evenodd" d="M172.716 187.559C172.716 187.559 172.56 188.206 172.344 189.363C172.56 188.226 172.716 187.578 172.716 187.559Z" fill="#DCE8F5"/>
<path fill-rule="evenodd" clip-rule="evenodd" d="M172.715 187.559C172.362 187.794 172.048 188.029 171.715 188.265C167.242 191.384 162.789 193.993 158.316 197.132C153.471 200.525 149.881 202.86 145.036 206.254C144.663 206.509 142.309 208.196 140.975 210.707C138.817 216.592 138.994 224.497 141.328 229.912C142.74 228.774 145.389 226.93 148.508 224.792C148.213 224.85 147.919 224.909 147.605 224.949C147.233 225.007 146.88 225.027 146.546 225.027C145.506 225.027 144.624 224.792 143.898 224.36C143.839 224.399 143.8 224.419 143.741 224.458C142.544 225.145 141.72 225.576 141.72 225.576C141.72 225.576 142.466 225.027 143.623 224.262C143.643 224.242 143.662 224.242 143.682 224.223C141.916 223.046 141.191 220.672 141.348 217.886C141.76 210.55 147.056 206.705 152.725 203.134C156.198 200.937 160.219 198.662 163.574 196.308C166.457 194.307 169.831 192.031 172.264 189.716C172.283 189.579 172.303 189.461 172.342 189.344C172.558 188.206 172.715 187.559 172.715 187.559Z" fill="white"/>
<path fill-rule="evenodd" clip-rule="evenodd" d="M143.68 224.223C143.661 224.242 143.641 224.242 143.622 224.262C142.464 225.027 141.719 225.576 141.719 225.576C141.719 225.576 142.543 225.145 143.739 224.458C143.798 224.419 143.837 224.399 143.896 224.36C143.837 224.321 143.759 224.282 143.68 224.223Z" fill="white"/>
<path fill-rule="evenodd" clip-rule="evenodd" d="M174.56 186.287L174.658 184.62L74.6113 181.285L43.7734 202.315C43.7734 202.315 140.897 210.907 140.995 210.711C142.349 208.2 144.683 206.513 145.075 206.238C149.921 202.844 153.511 200.51 158.356 197.116C162.829 193.997 167.282 191.388 171.754 188.249C172.657 187.602 173.598 186.954 174.56 186.287Z" fill="#7DB7F2"/>
<path fill-rule="evenodd" clip-rule="evenodd" d="M144.624 204.941C138.19 210.669 137.856 226.205 143.074 232.934C143.074 232.934 44.9504 227.539 44.6954 227.52C41.1054 227.324 39.8696 220.87 39.5165 218.241C38.9868 214.298 39.2811 199.154 46.2255 199.526L144.624 204.941Z" fill="#8ABDF1"/>
<path fill-rule="evenodd" clip-rule="evenodd" d="M141.352 229.914C141.567 230.385 141.783 230.856 142.019 231.287C141.783 230.856 141.548 230.404 141.352 229.914Z" fill="#56799D"/>
<path fill-rule="evenodd" clip-rule="evenodd" d="M142.016 231.285C142.251 231.697 142.506 232.109 142.761 232.482C142.486 232.109 142.251 231.717 142.016 231.285Z" fill="#678CB2"/>
<path fill-rule="evenodd" clip-rule="evenodd" d="M140.975 210.707C140.975 210.727 140.975 210.727 140.975 210.707C138.817 216.612 138.994 224.498 141.328 229.912C138.994 224.478 138.817 216.592 140.975 210.707Z" fill="#96BDE5"/>
<path fill-rule="evenodd" clip-rule="evenodd" d="M39.3828 215.59C39.4024 216.669 39.4613 217.571 39.5397 218.199C39.4613 217.591 39.4024 216.669 39.3828 215.59Z" fill="#F2F3F5"/>
<path fill-rule="evenodd" clip-rule="evenodd" d="M142.766 232.5C142.785 232.52 142.785 232.539 142.805 232.559C142.805 232.539 142.785 232.52 142.766 232.5ZM142.903 232.696C142.903 232.716 142.923 232.716 142.923 232.735C142.923 232.716 142.923 232.696 142.903 232.696ZM142.962 232.775C142.962 232.794 142.981 232.794 142.981 232.814C142.981 232.794 142.962 232.775 142.962 232.775ZM143.021 232.853C143.021 232.873 143.04 232.873 143.04 232.873C143.04 232.873 143.021 232.853 143.021 232.853Z" fill="#678CB2"/>
<path fill-rule="evenodd" clip-rule="evenodd" d="M141.33 209.805C141.33 209.824 141.33 209.824 141.33 209.805C141.192 210.099 141.075 210.413 140.977 210.707C140.977 210.707 140.977 210.707 140.977 210.687C141.094 210.393 141.212 210.099 141.33 209.805Z" fill="#56799D"/>
<path fill-rule="evenodd" clip-rule="evenodd" d="M141.328 209.824C139.68 211.864 138.366 214.14 137.483 216.612C136.639 219.005 136.384 221.339 136.012 223.831C135.815 225.086 135.58 226.832 134.442 227.656C133.03 228.656 125.477 229.049 120.475 229.049C118.886 229.049 117.572 229.01 116.767 228.931C110.137 228.343 103.546 228.205 96.5815 227.813C82.6927 227.048 70.2752 226.95 56.4257 225.479C51.9138 225.008 46.4014 224.596 43.3215 220.77C42.0857 219.221 41.1637 217.494 40.5752 215.592C40.0455 213.865 39.9474 212.041 39.6336 210.256C39.4178 212.178 39.3589 214.061 39.3785 215.611C39.3982 216.69 39.457 217.593 39.5355 218.22C39.5355 218.24 39.5355 218.24 39.5355 218.24C39.8886 220.888 41.1048 227.323 44.7143 227.519C44.9694 227.538 143.093 232.933 143.093 232.933C143.074 232.913 143.054 232.894 143.034 232.855L143.015 232.835C142.995 232.815 142.995 232.815 142.976 232.796C142.976 232.776 142.956 232.776 142.956 232.756C142.956 232.737 142.936 232.737 142.936 232.717C142.936 232.698 142.917 232.698 142.917 232.678C142.917 232.678 142.917 232.658 142.897 232.658C142.878 232.619 142.858 232.599 142.819 232.56C142.819 232.56 142.819 232.541 142.799 232.541C142.779 232.521 142.779 232.501 142.76 232.482C142.76 232.482 142.76 232.482 142.74 232.462C142.485 232.089 142.23 231.678 141.995 231.266C141.759 230.834 141.524 230.363 141.328 229.892C138.974 224.478 138.817 216.572 140.955 210.687C141.073 210.413 141.19 210.118 141.328 209.824Z" fill="#7DB7F2"/>
<path fill-rule="evenodd" clip-rule="evenodd" d="M61.6859 200.368L58.4491 200.191C56.5463 203.958 55.4477 208.234 55.232 212.413C54.9769 217.376 55.1731 223.281 56.8994 228.204L60.097 228.381C57.6841 220.436 57.0956 208.254 61.6859 200.368ZM67.7476 200.721L64.5108 200.545C62.6079 204.311 61.5094 208.587 61.2936 212.766C61.0386 217.729 61.2347 223.634 62.961 228.538L66.1586 228.714C63.7457 220.77 63.1768 208.587 67.7476 200.721ZM73.8288 201.055L70.592 200.878C68.6892 204.644 67.5906 208.921 67.3748 213.099C67.1198 218.062 67.316 223.967 69.0423 228.891L72.2398 229.068C69.827 221.103 69.2385 208.941 73.8288 201.055ZM126.049 203.919L109.237 202.997C107.335 206.763 106.314 211 106.02 215.218C105.667 220.161 105.648 226.203 107.688 230.99L124.46 231.912C122.047 223.967 121.478 211.805 126.049 203.919Z" fill="#C8E1FB"/>
<path fill-rule="evenodd" clip-rule="evenodd" d="M174.642 184.618L74.7128 179.125L43.875 200.135L143.804 205.647L174.642 184.618Z" fill="#A3CFFB"/>
<path fill-rule="evenodd" clip-rule="evenodd" d="M162.391 183.949L160.351 185.381C164.372 185.617 168.198 186.087 167.472 187.284C166.726 188.52 161.037 192.522 159.88 193.346C158.154 194.601 151.66 200.035 149.797 201.565L174.652 184.616L162.391 183.949Z" fill="#8ABDF1"/>
<path fill-rule="evenodd" clip-rule="evenodd" d="M95.978 184.125L80.304 183.262L59.8828 197.19L75.5567 198.053L95.978 184.125Z" fill="#81A2C4"/>
<path fill-rule="evenodd" clip-rule="evenodd" d="M132.152 174.317C128.68 180.379 128.935 193.189 131.328 199.78C131.328 199.78 52.5071 195.366 52.2913 195.347C50.0942 195.229 48.3876 190.266 48.1129 187.755C47.7206 184.008 48.0737 169.609 53.7626 169.923L132.152 174.317Z" fill="#A7D0FA"/>
<path fill-rule="evenodd" clip-rule="evenodd" d="M53.015 171.746C53.015 171.746 50.249 173.727 49.9548 182.83C49.8175 187.243 50.1902 190.794 52.4265 193.011C52.6815 193.266 52.3088 195.012 52.2892 195.365L139.153 200.23L169.638 178.867L169.716 177.141L53.015 171.746Z" fill="#4469F4"/>
<path fill-rule="evenodd" clip-rule="evenodd" d="M169.736 177.121L139.349 198.052L52.4264 193.011L52.2891 195.365L139.153 200.23L169.657 178.867L169.736 177.121Z" fill="#A7D0FA"/>
<path fill-rule="evenodd" clip-rule="evenodd" d="M164.829 176.573C164.869 177.22 164.908 177.848 164.986 178.515C164.986 178.515 142.446 192.973 138.346 196.425C138.346 196.425 135.188 187.245 138.15 176.338C138.15 176.338 163.986 160.193 166.301 158.938C166.301 158.938 165.693 161.429 165.241 165.195C165.222 165.391 165.202 165.588 165.182 165.803C164.849 168.746 164.633 172.375 164.829 176.2C164.81 176.338 164.81 176.455 164.829 176.573Z" fill="#DBEDFF"/>
<path fill-rule="evenodd" clip-rule="evenodd" d="M137.308 190.481C137.504 192.698 137.837 194.757 138.347 196.425C138.347 196.425 58.2709 191.932 58.0551 191.932C55.0537 191.756 54.014 186.616 53.7197 184.498C53.2685 181.359 53.5039 169.255 59.3105 169.589L139.583 174.081C138.877 175.317 138.328 176.906 137.935 178.671C137.837 179.103 137.759 179.554 137.68 180.005C137.17 182.987 137.033 186.342 137.229 189.461C137.249 189.814 137.268 190.147 137.308 190.481Z" fill="#DBEDFF"/>
<path fill-rule="evenodd" clip-rule="evenodd" d="M144.096 178.417C144.096 178.417 144.587 178.044 145.332 177.554C146.077 177.044 147.098 176.396 148.118 175.769C149.157 175.141 150.197 174.553 151.001 174.141C151.806 173.709 152.355 173.454 152.355 173.454C152.355 173.454 151.864 173.807 151.119 174.317C150.374 174.827 149.354 175.474 148.314 176.083C147.294 176.71 146.234 177.299 145.43 177.73C144.626 178.162 144.096 178.417 144.096 178.417ZM152.512 178.182C152.512 178.182 153.179 177.711 154.179 177.024C154.689 176.691 155.278 176.298 155.925 175.886C156.573 175.474 157.259 175.043 157.946 174.611C158.652 174.199 159.339 173.787 159.986 173.395C160.633 173.003 161.261 172.669 161.791 172.355C162.85 171.767 163.576 171.394 163.576 171.394C163.576 171.394 162.928 171.865 161.908 172.532C161.398 172.865 160.81 173.258 160.162 173.65C159.515 174.062 158.828 174.474 158.142 174.906C157.455 175.318 156.749 175.749 156.102 176.141C155.454 176.534 154.827 176.867 154.297 177.181C153.218 177.809 152.512 178.182 152.512 178.182ZM139.035 192.306C139.035 192.306 139.702 191.835 140.702 191.148C141.212 190.815 141.801 190.423 142.448 190.011C143.096 189.599 143.782 189.167 144.469 188.736C145.175 188.324 145.862 187.912 146.509 187.519C147.156 187.127 147.784 186.793 148.314 186.48C149.373 185.891 150.099 185.518 150.099 185.518C150.099 185.518 149.432 185.989 148.431 186.656C147.921 186.99 147.333 187.382 146.686 187.774C146.038 188.167 145.352 188.598 144.665 189.03C143.978 189.442 143.272 189.873 142.625 190.266C141.978 190.658 141.35 190.992 140.82 191.305C139.761 191.933 139.035 192.306 139.035 192.306ZM141.114 183.125C141.114 183.125 141.781 182.654 142.782 181.987C143.292 181.654 143.88 181.261 144.528 180.85C145.175 180.438 145.862 180.006 146.548 179.574C147.254 179.162 147.941 178.751 148.588 178.358C149.236 177.966 149.864 177.632 150.393 177.318C151.453 176.73 152.178 176.357 152.178 176.357C152.178 176.357 151.511 176.828 150.511 177.495C150.001 177.829 149.412 178.221 148.765 178.613C148.118 179.006 147.431 179.437 146.744 179.869C146.058 180.281 145.352 180.712 144.704 181.085C144.057 181.477 143.429 181.811 142.9 182.125C141.821 182.733 141.114 183.125 141.114 183.125ZM144.645 187.46C144.645 187.46 145.057 187.107 145.685 186.637C146.332 186.166 147.196 185.558 148.098 184.989C149 184.42 149.903 183.89 150.609 183.498C151.315 183.125 151.806 182.89 151.806 182.89C151.806 182.89 151.394 183.223 150.766 183.714C150.119 184.184 149.255 184.793 148.353 185.361C147.451 185.93 146.548 186.46 145.842 186.852C145.136 187.245 144.645 187.46 144.645 187.46ZM164.831 176.573L164.812 176.593C164.027 177.181 162.948 177.927 161.83 178.633C160.712 179.339 159.574 180.006 158.711 180.477C157.887 180.928 157.298 181.183 157.24 181.222C157.298 181.163 157.789 180.751 158.515 180.202C159.299 179.614 160.398 178.868 161.496 178.162C162.615 177.456 163.733 176.789 164.615 176.318C164.674 176.279 164.733 176.259 164.792 176.22C164.812 176.338 164.812 176.455 164.831 176.573ZM149.295 181.693C149.295 181.693 149.962 181.222 151.001 180.536C151.511 180.202 152.119 179.81 152.767 179.398C153.414 178.986 154.101 178.554 154.807 178.103C155.513 177.691 156.219 177.279 156.886 176.887C157.553 176.514 158.181 176.161 158.711 175.847C159.79 175.239 160.516 174.866 160.516 174.866L160.614 174.886L160.594 174.964C160.594 174.964 159.907 175.416 158.868 176.063C158.338 176.377 157.73 176.75 157.083 177.162C156.416 177.554 155.709 177.966 155.003 178.397C154.297 178.809 153.591 179.241 152.924 179.633C152.257 180.026 151.629 180.379 151.099 180.673C150.02 181.32 149.295 181.693 149.295 181.693ZM165.224 165.215C165.204 165.411 165.184 165.607 165.165 165.823C165.027 165.921 164.87 166.019 164.714 166.137C163.674 166.843 162.281 167.726 160.849 168.569C160.143 169.001 159.417 169.432 158.75 169.825C158.083 170.217 157.436 170.57 156.886 170.865C156.337 171.159 155.866 171.394 155.552 171.551C155.278 171.688 155.082 171.767 155.042 171.787C155.082 171.747 155.239 171.63 155.494 171.433C155.788 171.218 156.2 170.904 156.69 170.531C157.2 170.158 157.789 169.746 158.436 169.315C159.083 168.883 159.77 168.432 160.476 167.981C161.889 167.118 163.321 166.274 164.439 165.686C164.694 165.489 164.988 165.352 165.224 165.215ZM57.9974 177.005C57.9974 177.005 58.6251 177.005 59.7041 176.985C60.0768 176.985 60.5084 176.985 60.9988 176.985C61.9012 176.985 62.9801 176.985 64.1964 177.005C66.06 177.044 68.2178 177.063 70.5522 177.122C71.7096 177.162 72.9063 177.201 74.1421 177.24C75.3584 177.299 76.5943 177.377 77.8301 177.436C80.3019 177.593 82.7736 177.73 85.0884 177.887C87.4032 178.044 89.5611 178.24 91.4247 178.378C93.2687 178.515 94.8184 178.692 95.8973 178.79C96.9763 178.907 97.5844 178.966 97.5844 178.966C97.5844 178.966 96.9567 178.966 95.8777 178.947C94.7988 178.927 93.249 178.927 91.3854 178.849C89.5218 178.79 87.364 178.731 85.0492 178.633C82.7344 178.535 80.2626 178.397 77.7909 178.28C76.555 178.201 75.3192 178.123 74.1029 178.064C72.8867 178.005 71.69 177.946 70.5326 177.887C68.2178 177.77 66.06 177.613 64.1964 177.495C62.3524 177.377 60.8026 177.24 59.7237 177.162C58.6055 177.063 57.9974 177.005 57.9974 177.005ZM98.9968 189.52C98.9968 189.52 100.802 189.54 103.489 189.579C104.843 189.618 106.412 189.638 108.099 189.677C108.943 189.697 109.806 189.736 110.708 189.756C111.591 189.795 112.493 189.854 113.396 189.893C115.2 190.011 116.986 190.109 118.673 190.207C120.36 190.325 121.929 190.423 123.283 190.521C125.97 190.736 127.775 190.874 127.775 190.874C127.775 190.874 125.97 190.815 123.283 190.717C121.929 190.658 120.36 190.58 118.673 190.521C116.986 190.442 115.181 190.344 113.396 190.246C112.493 190.187 111.591 190.128 110.708 190.089C109.825 190.05 108.962 190.011 108.119 189.991C106.432 189.913 104.862 189.834 103.509 189.775C100.802 189.618 98.9968 189.52 98.9968 189.52ZM81.9497 190.07L55.1726 188.363C55.0745 188.363 55.0156 188.284 55.0156 188.186C55.0156 188.088 55.0941 188.029 55.1922 188.029L81.9889 189.324C82.2047 189.324 82.3616 189.52 82.342 189.716C82.342 189.913 82.1655 190.07 81.9497 190.07ZM137.936 178.672C137.838 179.104 137.76 179.555 137.681 180.006C136.897 179.928 135.68 179.81 134.19 179.673C132.856 179.535 131.286 179.398 129.599 179.241C128.756 179.162 127.893 179.084 127.029 179.006C126.147 178.927 125.244 178.868 124.342 178.809C117.162 178.299 109.982 177.77 109.982 177.77C109.865 177.75 109.767 177.652 109.786 177.534C109.786 177.417 109.904 177.318 110.022 177.338C110.022 177.338 117.221 177.613 124.401 177.907C125.303 177.946 126.206 177.985 127.088 178.025C127.971 178.084 128.854 178.123 129.697 178.182C131.384 178.28 132.954 178.378 134.288 178.456C135.877 178.554 137.152 178.633 137.936 178.672ZM137.309 190.481C136.916 190.462 136.426 190.423 135.877 190.403C135.092 190.364 134.17 190.305 133.189 190.246L131.679 190.168C131.149 190.128 130.639 190.089 130.109 190.05C125.911 189.716 121.733 189.403 121.733 189.403C121.635 189.403 121.576 189.304 121.576 189.226C121.576 189.128 121.654 189.069 121.752 189.069C121.752 189.069 125.95 189.226 130.149 189.363C130.678 189.383 131.188 189.403 131.718 189.422C132.228 189.422 132.738 189.442 133.228 189.442C134.209 189.461 135.131 189.461 135.916 189.481C136.406 189.481 136.858 189.501 137.23 189.501C137.25 189.814 137.269 190.148 137.309 190.481ZM118.594 182.752C118.594 182.752 118.849 182.733 119.32 182.694C119.771 182.674 120.438 182.615 121.223 182.595C122.007 182.556 122.929 182.537 123.91 182.537C124.401 182.537 124.911 182.517 125.44 182.537C125.95 182.556 126.48 182.595 127.01 182.615C129.109 182.733 131.208 182.909 132.777 183.086C133.562 183.164 134.209 183.282 134.68 183.321C135.131 183.38 135.406 183.439 135.406 183.439C135.406 183.439 135.131 183.459 134.68 183.478C134.229 183.478 133.562 183.517 132.777 183.517C131.208 183.517 129.089 183.459 126.99 183.341C126.461 183.302 125.95 183.282 125.421 183.243C124.911 183.223 124.401 183.204 123.91 183.184C122.929 183.145 122.007 183.086 121.223 183.027C120.438 182.968 119.791 182.89 119.32 182.85C118.849 182.792 118.594 182.752 118.594 182.752ZM82.3813 182.34C82.3813 182.34 83.421 182.321 84.9903 182.34C85.775 182.36 86.6774 182.36 87.6582 182.399C88.6391 182.439 89.6788 182.458 90.7185 182.497C91.7582 182.556 92.7979 182.595 93.7787 182.654C94.7596 182.694 95.6619 182.772 96.4466 182.811C98.016 182.929 99.0557 183.027 99.0557 183.027C99.0557 183.027 98.016 183.047 96.4466 183.027C95.6619 183.007 94.7596 183.007 93.7787 182.968C92.7979 182.929 91.7582 182.909 90.7185 182.87C89.6788 182.811 88.6391 182.772 87.6582 182.713C86.6774 182.674 85.775 182.595 84.9903 182.537C83.421 182.439 82.3813 182.34 82.3813 182.34ZM92.6998 187.578C92.6998 187.578 93.7395 187.539 95.3088 187.519C96.0935 187.519 96.9959 187.519 97.9767 187.539C98.9576 187.559 99.9973 187.598 101.037 187.637C102.077 187.676 103.116 187.735 104.097 187.794C105.078 187.853 105.98 187.931 106.765 187.99C108.334 188.127 109.355 188.245 109.355 188.245C109.355 188.245 108.315 188.284 106.745 188.304C105.961 188.304 105.039 188.304 104.078 188.284C103.097 188.265 102.057 188.226 101.017 188.186C99.9777 188.127 98.938 188.088 97.9571 188.029C96.9763 187.97 96.0739 187.892 95.2892 187.833C93.7395 187.715 92.6998 187.578 92.6998 187.578ZM105.215 179.653C105.215 179.653 106.255 179.633 107.824 179.653C108.609 179.673 109.511 179.673 110.492 179.712C111.473 179.751 112.513 179.771 113.553 179.81C114.592 179.869 115.632 179.908 116.613 179.967C117.594 180.006 118.496 180.084 119.281 180.124C120.85 180.241 121.89 180.34 121.89 180.34C121.89 180.34 120.85 180.359 119.281 180.34C118.496 180.32 117.594 180.32 116.613 180.281C115.632 180.241 114.592 180.222 113.553 180.183C112.513 180.124 111.473 180.084 110.492 180.026C109.511 179.986 108.609 179.908 107.824 179.869C106.255 179.751 105.215 179.653 105.215 179.653ZM70.4542 183.262C70.4542 183.262 71.4939 183.243 73.0632 183.262C73.8479 183.282 74.7503 183.282 75.7311 183.321C76.712 183.361 77.7517 183.38 78.7914 183.419C79.8311 183.478 80.8708 183.517 81.8516 183.576C82.8325 183.616 83.7348 183.694 84.5195 183.733C86.0889 183.851 87.1286 183.949 87.1286 183.949C87.1286 183.949 86.0889 183.969 84.5195 183.949C83.7348 183.929 82.8325 183.929 81.8516 183.89C80.8708 183.851 79.8311 183.831 78.7914 183.792C77.7517 183.733 76.712 183.694 75.7311 183.635C74.7503 183.596 73.8479 183.517 73.0632 183.478C71.4939 183.38 70.4542 183.262 70.4542 183.262Z" fill="white"/>
<path fill-rule="evenodd" clip-rule="evenodd" d="M166.045 160.094C165.81 160.251 165.574 160.408 165.358 160.584C164.868 160.918 164.181 161.388 163.358 161.938C163.358 162.114 163.338 162.291 163.338 162.448V162.467V162.487V162.507C163.338 162.526 163.338 162.526 163.338 162.526V162.546C163.338 162.565 163.338 162.565 163.338 162.585C163.338 162.585 163.338 162.585 163.338 162.605C163.318 162.742 163.318 162.86 163.299 162.977C163.299 162.997 163.299 162.997 163.299 163.017C163.299 163.115 163.279 163.232 163.259 163.37C164.515 162.526 165.437 161.938 165.77 161.742C165.849 161.075 165.947 160.525 166.045 160.094ZM151.195 171.334C150.371 171.393 149.488 171.452 148.566 171.53C145.212 173.708 142.289 175.63 140.818 176.65C140.818 176.65 140.759 176.65 140.68 176.65C140.386 176.65 139.621 176.631 138.503 176.572C138.287 177.219 138.091 177.926 137.934 178.651C137.856 179.024 137.522 181.339 137.385 182.241C139.778 177.141 146.84 174.1 151.156 171.334C151.156 171.354 151.175 171.354 151.195 171.334ZM137.051 182.281C137.012 182.634 136.992 182.987 136.953 183.34C137.032 183.085 137.13 182.81 137.247 182.575C137.189 182.457 137.13 182.359 137.051 182.281Z" fill="white"/>
<path fill-rule="evenodd" clip-rule="evenodd" d="M58.0346 191.915L68.3139 192.484C62.0954 192.151 58.0739 191.935 58.0346 191.915Z" fill="#526BC8"/>
<path fill-rule="evenodd" clip-rule="evenodd" d="M55.4998 171.941C55.4605 172.02 55.4017 172.098 55.3624 172.177C55.3232 172.255 55.284 172.334 55.2447 172.412C55.2055 172.491 55.1663 172.569 55.127 172.648C55.0878 172.726 55.0486 172.805 55.0093 172.883C54.9701 172.961 54.9505 173.04 54.9112 173.138C54.872 173.217 54.8328 173.315 54.8132 173.393C54.7543 173.55 54.6955 173.707 54.6366 173.864C53.3811 177.552 53.4007 182.593 53.6754 184.477V184.496C53.9696 186.615 55.0093 191.755 58.0107 191.931C58.05 191.931 62.0714 192.166 68.29 192.5C66.2302 191.931 64.4451 190.597 63.17 188.871L55.1467 188.361C55.0486 188.361 54.9897 188.282 54.9897 188.184C54.9897 188.086 55.0682 188.027 55.1663 188.027L62.8365 188.4C60.7571 185.222 60.2863 180.906 62.6207 177.415C61.4437 177.336 60.4236 177.238 59.6586 177.179C58.5796 177.081 57.9715 177.022 57.9715 177.022C57.9715 177.022 58.5992 177.022 59.6782 177.003C59.9136 177.003 60.1686 177.003 60.4628 177.003C60.6198 177.003 60.7963 177.003 60.9729 177.003C61.0514 177.003 61.1494 177.003 61.2279 177.003C61.7379 177.003 62.3068 177.003 62.915 177.003C64.4647 174.982 66.6422 174.55 69.0158 174.55C70.2517 174.55 71.5464 174.668 72.8019 174.747C73.5473 174.805 74.3124 174.845 75.0578 174.884L72.1153 172.903C64.7001 172.471 58.6973 172.138 55.4998 171.941Z" fill="white"/>
<path fill-rule="evenodd" clip-rule="evenodd" d="M59.6806 177.002C58.6017 177.022 57.974 177.022 57.974 177.022C57.974 177.022 58.5821 177.08 59.661 177.179C60.4261 177.237 61.4462 177.316 62.6232 177.414C62.6428 177.375 62.682 177.335 62.7016 177.296C62.7605 177.198 62.839 177.12 62.8978 177.022C62.2897 177.022 61.7208 177.022 61.2108 177.022C61.1323 177.022 61.0342 177.022 60.9557 177.022C60.7792 177.022 60.6026 177.022 60.4457 177.022C60.1907 177.002 59.9357 177.002 59.6806 177.002ZM55.1687 188.007C55.0903 188.007 55.0118 188.086 54.9922 188.164C54.9922 188.262 55.051 188.341 55.1491 188.341L63.1725 188.851C63.0548 188.694 62.937 188.537 62.839 188.38L55.1687 188.007ZM137.383 182.279C137.383 182.299 137.364 182.318 137.364 182.338C137.344 182.436 137.344 182.554 137.324 182.652C137.324 182.632 137.344 182.495 137.383 182.279ZM104.662 174.766C100.033 175.099 95.6581 175.433 91.8524 175.707C93.5395 175.786 95.2265 175.864 96.894 175.943C104.191 176.296 111.469 176.668 118.767 177.022C120.16 177.08 121.533 177.198 122.926 177.218C126.261 177.296 128.85 177.63 130.929 178.238C132.146 178.316 133.264 178.375 134.264 178.434C135.657 178.512 136.795 178.591 137.599 178.63C137.736 177.944 137.893 177.257 138.09 176.551C132.499 176.315 119.159 175.57 104.662 174.766ZM134.264 179.689C135.382 180.396 136.285 181.259 137.05 182.279C137.128 181.533 137.226 180.768 137.344 179.984C136.579 179.905 135.539 179.807 134.264 179.689ZM137.344 182.318C137.305 182.397 137.266 182.475 137.246 182.534C137.266 182.573 137.285 182.593 137.305 182.632C137.325 182.534 137.344 182.436 137.344 182.318Z" fill="white"/>
<path fill-rule="evenodd" clip-rule="evenodd" d="M130.93 178.242C132.224 178.615 133.323 179.105 134.265 179.694C135.52 179.812 136.579 179.91 137.344 179.988C137.423 179.557 137.501 179.105 137.58 178.674C136.795 178.615 135.638 178.556 134.245 178.478C133.264 178.399 132.146 178.321 130.93 178.242ZM137.933 178.693C137.835 179.125 137.756 179.576 137.678 180.027C137.541 180.773 137.443 181.557 137.364 182.342C137.364 182.323 137.384 182.303 137.384 182.283C137.501 181.361 137.854 179.046 137.933 178.693Z" fill="white"/>
<path fill-rule="evenodd" clip-rule="evenodd" d="M138.079 176.574C137.902 177.28 137.725 177.967 137.588 178.654C137.706 178.654 137.824 178.673 137.922 178.673C138.079 177.947 138.275 177.241 138.491 176.594C138.373 176.594 138.236 176.574 138.079 176.574ZM137.941 178.693C137.843 179.124 137.765 179.576 137.686 180.027C137.588 180.027 137.49 180.007 137.372 180.007C137.255 180.792 137.157 181.557 137.078 182.302C137.157 182.4 137.215 182.479 137.274 182.577C137.314 182.499 137.333 182.42 137.372 182.361C137.451 181.577 137.549 180.792 137.686 180.046C137.745 179.556 137.843 179.124 137.941 178.693Z" fill="white"/>
<path fill-rule="evenodd" clip-rule="evenodd" d="M137.603 178.652C137.505 179.104 137.426 179.535 137.367 179.967C137.485 179.986 137.583 179.986 137.681 179.986C137.76 179.535 137.838 179.084 137.936 178.652C137.818 178.672 137.72 178.672 137.603 178.652Z" fill="white"/>
<path fill-rule="evenodd" clip-rule="evenodd" d="M167.834 158.821L167.912 157.349L80.0872 153.348L53.0943 169.885L52.9766 171.788C52.9766 171.788 140.468 176.868 140.802 176.653C145.058 173.671 161.399 163.313 165.323 160.567C166.186 159.998 167.01 159.409 167.834 158.821Z" fill="#A7D0FA"/>
<path fill-rule="evenodd" clip-rule="evenodd" d="M167.927 157.37L80.22 151.445L53.1094 169.885L140.876 174.809L167.927 157.37Z" fill="#74B7FB"/>
<path fill-rule="evenodd" clip-rule="evenodd" d="M143.346 157.017L90.1061 154.035L83.7109 158.527L136.167 161.47L143.346 157.017Z" fill="#E5E9ED"/>
<path fill-rule="evenodd" clip-rule="evenodd" d="M86.9149 155.152L88.445 175.966L77.8322 176.731L51.9575 159.37L51.8594 157.742L86.9149 155.152Z" fill="#7DB7F2"/>
<path fill-rule="evenodd" clip-rule="evenodd" d="M79.0877 175.652L77.8322 176.731L51.9575 159.37L51.8594 157.742L79.0877 175.652Z" fill="#71B2F3"/>
<path fill-rule="evenodd" clip-rule="evenodd" d="M54.2261 156.209C54.2065 156.817 54.1673 157.425 54.1084 158.034C54.1084 158.034 75.589 171.295 79.5124 174.473C79.5124 174.473 83.2396 168.117 79.7478 157.092C79.7478 157.092 54.7362 140.751 52.5391 139.613C52.5391 139.613 53.1472 141.948 53.6376 145.498C53.6572 145.675 53.6965 145.871 53.7161 146.067C54.0888 148.833 54.3438 152.266 54.2261 155.876C54.2261 155.974 54.2261 156.092 54.2261 156.209Z" fill="#C8E1FB"/>
<path fill-rule="evenodd" clip-rule="evenodd" d="M73.8121 157.602C73.8121 157.602 73.302 157.366 72.537 156.974C71.7719 156.582 70.7715 156.032 69.8102 155.463C68.8294 154.894 67.8485 154.306 67.1423 153.835C66.4165 153.384 65.9653 153.051 65.9653 153.051C65.9653 153.051 66.495 153.286 67.2404 153.678C68.0055 154.071 69.0059 154.6 69.9868 155.169C70.9676 155.738 71.9289 156.346 72.6547 156.817C73.3413 157.268 73.8121 157.602 73.8121 157.602ZM65.8672 157.523C65.8672 157.523 65.1806 157.19 64.1605 156.64C63.6701 156.366 63.062 156.052 62.4539 155.679C61.8261 155.326 61.1788 154.934 60.5118 154.561C59.8448 154.169 59.1975 153.776 58.5893 153.404C57.9812 153.031 57.4123 152.678 56.9219 152.364C55.9607 151.756 55.3133 151.324 55.3133 151.324C55.3133 151.324 55.9999 151.658 57.02 152.207C57.53 152.482 58.1185 152.795 58.7463 153.149C59.374 153.502 60.041 153.874 60.6883 154.267C61.3357 154.659 62.0027 155.051 62.6108 155.424C63.2189 155.797 63.7878 156.17 64.2783 156.464C65.2395 157.092 65.8672 157.523 65.8672 157.523ZM78.7948 170.608C78.7948 170.608 78.1082 170.255 77.1077 169.725C76.5977 169.45 76.0092 169.136 75.4011 168.764C74.7733 168.411 74.126 168.018 73.459 167.646C72.8116 167.253 72.1446 166.861 71.5365 166.488C70.9284 166.115 70.3595 165.762 69.8691 165.448C68.9079 164.84 68.2605 164.409 68.2605 164.409C68.2605 164.409 68.9471 164.742 69.9672 165.291C70.4772 165.566 71.0657 165.88 71.6935 166.233C72.3212 166.586 72.9882 166.959 73.6355 167.351C74.2829 167.744 74.9499 168.136 75.558 168.509C76.1661 168.881 76.735 169.254 77.2254 169.548C78.167 170.176 78.7948 170.608 78.7948 170.608ZM76.6958 161.976C76.6958 161.976 76.0092 161.643 75.0087 161.093C74.5183 160.819 73.9102 160.505 73.302 160.152C72.6743 159.799 72.0269 159.406 71.36 159.034C70.7126 158.641 70.0456 158.249 69.4375 157.876C68.8294 157.504 68.2605 157.15 67.7701 156.837C66.8088 156.228 66.1615 155.797 66.1615 155.797C66.1615 155.797 66.8481 156.13 67.8682 156.68C68.3782 156.954 68.9667 157.268 69.5944 157.621C70.2222 157.974 70.8892 158.347 71.5365 158.739C72.1839 159.132 72.8509 159.524 73.459 159.897C74.0671 160.27 74.636 160.642 75.1264 160.937C76.068 161.545 76.6958 161.976 76.6958 161.976ZM73.4197 166.135C73.4197 166.135 72.9489 165.939 72.282 165.586C71.615 165.233 70.7322 164.742 69.8887 164.232C69.0452 163.703 68.2016 163.153 67.5935 162.722C66.9854 162.29 66.593 161.957 66.593 161.957C66.593 161.957 67.0639 162.153 67.7308 162.506C68.3978 162.839 69.2806 163.349 70.1241 163.859C70.9676 164.389 71.8112 164.938 72.4193 165.37C73.0274 165.821 73.4197 166.135 73.4197 166.135ZM54.2344 156.209L54.254 156.228C54.9994 156.778 56.0391 157.464 57.0984 158.112C58.1578 158.759 59.2367 159.367 60.0606 159.799C60.8453 160.211 61.3946 160.446 61.4534 160.466C61.3946 160.426 60.9434 160.034 60.2175 159.524C59.4525 158.975 58.4324 158.288 57.3731 157.641C56.3138 156.994 55.2348 156.385 54.4109 155.954L54.2344 155.875C54.2344 155.993 54.2344 156.091 54.2344 156.209ZM68.9471 160.78C68.9471 160.78 68.2605 160.426 67.2404 159.877C66.7304 159.603 66.1419 159.269 65.5141 158.916C64.8864 158.563 64.2194 158.171 63.5328 157.798C62.1792 157.033 60.8453 156.268 59.8448 155.679C58.8444 155.071 58.197 154.659 58.197 154.659L58.1774 154.581L58.2558 154.561C58.2558 154.561 58.9424 154.914 59.9821 155.444C61.0022 155.993 62.3558 156.738 63.7094 157.504C64.3763 157.896 65.0237 158.308 65.6514 158.681C66.2596 159.073 66.8481 159.426 67.3385 159.74C68.3193 160.348 68.9471 160.78 68.9471 160.78Z" fill="white"/>
<path fill-rule="evenodd" clip-rule="evenodd" d="M52.5625 139.613C52.5625 139.633 52.5821 139.711 52.6214 139.829C52.6802 140.104 52.8175 140.653 52.9745 141.398C53.6022 141.967 54.3084 142.536 55.0539 143.105C54.9754 142.713 54.9165 142.36 54.8773 142.046C54.8577 141.791 54.8184 141.457 54.7988 141.104C54.328 140.81 53.8768 140.496 53.406 140.182C53.1314 140.006 52.8568 139.809 52.5625 139.613ZM63.9011 148.99C65.7451 150.089 67.6283 151.148 69.3546 152.207C74.1019 155.091 78.555 158.191 79.0061 164.252C79.1827 166.547 78.5942 168.529 77.1621 169.529C77.1818 169.549 77.2014 169.549 77.221 169.568C78.1822 170.196 78.81 170.628 78.81 170.628C78.81 170.628 78.1234 170.275 77.1229 169.745C77.0837 169.725 77.0248 169.686 76.9856 169.666C76.3775 170.039 75.6124 170.255 74.6904 170.255C74.4354 170.255 74.1804 170.235 73.9057 170.216C73.6507 170.196 73.4153 170.137 73.1603 170.098C75.789 171.824 77.9861 173.315 79.1827 174.237C81.0463 169.706 81.0659 163.154 79.1827 158.328C78.0253 156.268 76.0636 154.914 75.7497 154.699C72.6699 152.639 70.2178 151.05 67.4321 149.226C66.1374 149.127 64.9604 149.049 63.9011 148.99Z" fill="white"/>
<path fill-rule="evenodd" clip-rule="evenodd" d="M77.1375 169.531C77.0786 169.57 77.0198 169.61 76.9609 169.649C77.0002 169.669 77.059 169.708 77.0983 169.727C78.0987 170.277 78.7853 170.61 78.7853 170.61C78.7853 170.61 78.1576 170.179 77.1963 169.551C77.1767 169.551 77.1571 169.551 77.1375 169.531Z" fill="#8FB8E2"/>
<path fill-rule="evenodd" clip-rule="evenodd" d="M51.0356 138.595L50.9375 137.222L133.701 132.945L159.537 149.894C159.537 149.894 79.284 158.467 79.1859 158.33C78.0285 156.27 76.0668 154.897 75.7529 154.7C71.6726 151.974 68.6908 150.091 64.6105 147.344C60.8637 144.814 57.1365 142.734 53.3896 140.204C52.6049 139.654 51.8203 139.125 51.0356 138.595Z" fill="#7DB7F2"/>
<path fill-rule="evenodd" clip-rule="evenodd" d="M76.0625 153.584C81.4768 158.233 81.9868 171.082 77.7692 176.732C77.7692 176.732 158.905 170.768 159.121 170.749C162.102 170.533 163.005 165.177 163.26 162.98C163.633 159.724 163.162 147.169 157.414 147.601L76.0625 153.584Z" fill="#A3CFFB"/>
<path fill-rule="evenodd" clip-rule="evenodd" d="M79.1859 174.199C79.029 174.592 78.8524 174.984 78.6562 175.337C78.8328 174.984 79.0093 174.611 79.1859 174.199Z" fill="#4967DA"/>
<path fill-rule="evenodd" clip-rule="evenodd" d="M78.6316 175.355C78.4354 175.709 78.2392 176.042 78.0234 176.356C78.2588 176.042 78.455 175.709 78.6316 175.355Z" fill="#599EE4"/>
<path fill-rule="evenodd" clip-rule="evenodd" d="M79.1797 158.289C81.0433 163.115 81.0433 169.667 79.1797 174.198C81.0433 169.687 81.0629 163.134 79.1797 158.289C79.1797 158.309 79.1797 158.309 79.1797 158.289Z" fill="#96BDE5"/>
<path fill-rule="evenodd" clip-rule="evenodd" d="M163.324 162.449V162.469C163.324 162.469 163.324 162.469 163.324 162.449ZM163.324 162.547C163.324 162.567 163.324 162.567 163.324 162.587C163.324 162.567 163.324 162.547 163.324 162.547ZM163.305 162.587C163.285 162.724 163.285 162.842 163.266 162.959C163.285 162.842 163.305 162.724 163.305 162.587ZM163.285 162.959C163.285 162.979 163.285 162.979 163.285 162.999C163.266 162.979 163.285 162.979 163.285 162.959Z" fill="#9EC1E5"/>
<path fill-rule="evenodd" clip-rule="evenodd" d="M78.0401 176.356C78.0205 176.375 78.0205 176.395 78.0009 176.414C78.0009 176.395 78.0205 176.375 78.0401 176.356ZM77.9224 176.532C77.9224 176.552 77.9028 176.552 77.9028 176.571C77.9028 176.552 77.9224 176.532 77.9224 176.532ZM77.8832 176.591C77.8832 176.591 77.8635 176.611 77.8635 176.63C77.8635 176.611 77.8635 176.591 77.8832 176.591ZM77.8243 176.65L77.8047 176.669C77.8243 176.669 77.8243 176.669 77.8243 176.65ZM78.8836 157.562C78.9817 157.798 79.0994 158.053 79.1975 158.288C79.1975 158.288 79.1975 158.288 79.1975 158.308C79.0994 158.053 78.9817 157.818 78.8836 157.562Z" fill="#599EE4"/>
<path fill-rule="evenodd" clip-rule="evenodd" d="M163.06 156.387C162.825 157.858 162.766 159.368 162.354 160.82C161.903 162.409 161.177 163.861 160.176 165.155C157.685 168.373 153.134 168.785 149.407 169.255C137.97 170.687 127.691 170.942 116.215 171.786C110.447 172.198 104.994 172.433 99.5208 173.022C98.5988 173.12 96.8333 173.179 94.8127 173.179C90.8305 173.179 85.9066 172.943 84.8669 172.218C83.9057 171.57 83.6703 170.119 83.4938 169.079C83.1407 167.039 82.9053 165.097 82.1598 163.135C81.3948 161.095 80.257 159.231 78.8642 157.564C78.9623 157.799 79.08 158.054 79.178 158.309C81.0416 163.135 81.022 169.687 79.1584 174.199C79.0015 174.591 78.8249 174.984 78.6288 175.337C78.4326 175.69 78.2364 176.023 78.0206 176.337C78.001 176.357 78.001 176.376 77.9814 176.396C77.9618 176.435 77.9226 176.474 77.9029 176.494C77.9029 176.514 77.8833 176.514 77.8833 176.533L77.8637 176.553C77.8637 176.553 77.8441 176.573 77.8441 176.592C77.8441 176.612 77.8245 176.612 77.8245 176.631L77.8048 176.651C77.7852 176.671 77.7656 176.69 77.7656 176.71C77.7656 176.71 158.901 170.746 159.117 170.727C162.099 170.511 163.001 165.155 163.256 162.958C163.256 162.939 163.256 162.939 163.256 162.919C163.276 162.801 163.276 162.684 163.295 162.546C163.295 162.546 163.295 162.546 163.295 162.527C163.295 162.507 163.295 162.507 163.295 162.488C163.295 162.488 163.295 162.488 163.295 162.468V162.448V162.429V162.409V162.389C163.413 161.036 163.374 158.76 163.06 156.387Z" fill="#8ABDF1"/>
<path fill-rule="evenodd" clip-rule="evenodd" d="M144.658 148.54L147.326 148.344C148.954 151.424 149.935 154.955 150.171 158.407C150.465 162.507 150.386 167.392 149.033 171.492L146.385 171.688C148.287 165.077 148.582 155.014 144.658 148.54ZM139.636 148.913L142.304 148.716C143.932 151.796 144.913 155.327 145.149 158.78C145.443 162.88 145.364 167.765 144.011 171.864L141.363 172.061C143.265 165.45 143.56 155.367 139.636 148.913ZM134.634 149.285L137.302 149.089C138.93 152.169 139.891 155.7 140.146 159.153C140.441 163.253 140.362 168.137 139.009 172.237L136.36 172.433C138.244 165.822 138.538 155.739 134.634 149.285ZM91.4375 152.463L105.346 151.443C106.994 154.523 107.877 158.015 108.19 161.507C108.563 165.607 108.661 170.589 107.053 174.591L93.1834 175.611C95.047 169 95.3413 158.917 91.4375 152.463Z" fill="#C8E1FB"/>
<path fill-rule="evenodd" clip-rule="evenodd" d="M50.9141 137.222L133.56 131.141L159.396 148.09L76.7692 154.151L50.9141 137.222Z" fill="#8ABDF1"/>
<path fill-rule="evenodd" clip-rule="evenodd" d="M264.152 200.369C264.662 207.313 265.682 208.255 272.293 208.804C265.682 209.334 264.662 210.295 264.152 217.239C263.642 210.295 262.622 209.353 256.011 208.804C262.622 208.255 263.662 207.294 264.152 200.369ZM237.277 218.652C237.551 222.359 238.101 222.869 241.632 223.144C238.101 223.438 237.551 223.948 237.277 227.636C237.002 223.929 236.453 223.419 232.922 223.144C236.453 222.869 237.002 222.359 237.277 218.652ZM249.047 190.148C249.322 193.895 249.871 194.425 253.441 194.7C249.871 194.994 249.302 195.504 249.047 199.251C248.772 195.504 248.223 194.974 244.653 194.7C248.223 194.425 248.772 193.915 249.047 190.148Z" fill="white"/>
<path fill-rule="evenodd" clip-rule="evenodd" d="M274.167 216.222L143.773 216.968C141.164 216.987 139.045 214.888 139.026 212.279L138.516 124.337C138.496 121.728 140.595 119.609 143.204 119.589L273.598 118.844C276.207 118.824 278.326 120.923 278.345 123.532L278.855 211.475C278.875 214.084 276.776 216.203 274.167 216.222Z" fill="#A3CFFB"/>
<path fill-rule="evenodd" clip-rule="evenodd" d="M269.736 211.084L148.17 211.79C145.796 211.809 143.854 209.887 143.834 207.513L143.383 129.046C143.363 126.672 145.286 124.73 147.659 124.71L269.226 124.004C271.599 123.984 273.541 125.907 273.561 128.281L274.012 206.748C274.032 209.142 272.109 211.084 269.736 211.084Z" fill="#EEF4FB"/>
<path fill-rule="evenodd" clip-rule="evenodd" d="M273.562 128.634L273.581 130.851L143.246 131.596L143.227 129.379C143.207 126.77 144.992 124.652 148.072 124.632L268.657 123.945C271.894 123.926 273.542 125.534 273.562 128.634Z" fill="#D1E3F6"/>
<path fill-rule="evenodd" clip-rule="evenodd" d="M258.199 127.475C258.199 128.201 257.61 128.789 256.885 128.789C256.159 128.789 255.57 128.201 255.57 127.475C255.57 126.749 256.159 126.16 256.885 126.16C257.61 126.16 258.199 126.749 258.199 127.475ZM267.635 127.416C267.635 128.142 267.046 128.73 266.32 128.73C265.595 128.73 265.006 128.142 265.006 127.416C265.006 126.69 265.595 126.102 266.32 126.102C267.046 126.102 267.635 126.69 267.635 127.416ZM262.907 127.436C262.907 128.161 262.319 128.75 261.593 128.75C260.867 128.75 260.278 128.161 260.278 127.436C260.278 126.71 260.867 126.121 261.593 126.121C262.319 126.141 262.907 126.71 262.907 127.436Z" fill="white"/>
<path d="M223.971 215.004H195.781V240.996H223.971V215.004Z" fill="#A3CFFB"/>
<path fill-rule="evenodd" clip-rule="evenodd" d="M194.932 230.836H224.789C227.575 230.836 229.87 233.111 229.87 235.917V240.997H189.852V235.917C189.871 233.111 192.147 230.836 194.932 230.836Z" fill="#A3CFFB"/>
<path fill-rule="evenodd" clip-rule="evenodd" d="M135.368 20.3281C142.842 20.3281 149.63 23.3688 154.534 28.273C159.438 33.1772 162.479 39.9451 162.479 47.4387C162.479 54.9128 159.438 61.7002 154.534 66.6045C149.63 71.5087 142.862 74.5493 135.368 74.5493C127.894 74.5493 121.107 71.5087 116.203 66.6045C111.298 61.7002 108.258 54.9324 108.258 47.4387C108.258 39.9647 111.298 33.1772 116.203 28.273C121.107 23.3688 127.894 20.3281 135.368 20.3281ZM149.787 33.0203C146.099 29.3323 140.998 27.0567 135.368 27.0567C129.738 27.0567 124.638 29.3323 120.95 33.0203C117.262 36.7083 114.986 41.8087 114.986 47.4387C114.986 53.0688 117.262 58.1692 120.95 61.8572C124.638 65.5452 129.738 67.8207 135.368 67.8207C140.998 67.8207 146.099 65.5452 149.787 61.8572C153.475 58.1692 155.75 53.0688 155.75 47.4387C155.75 41.8087 153.475 36.7083 149.787 33.0203Z" fill="#A7D0FA"/>
<path fill-rule="evenodd" clip-rule="evenodd" d="M147.778 36.7695L150.838 39.8102L132.555 58.1128L132.536 58.0931V58.1128L119.883 45.4402L122.923 42.3996L132.536 52.0119L147.778 36.7695Z" fill="#A7D0FA"/>
<path d="M166.76 66.9138L165.711 199.309L262.56 200.076L263.608 67.6809L166.76 66.9138Z" fill="#EEF4FB"/>
<path d="M255.115 80.3125H175.195V84.6282H255.115V80.3125Z" fill="#8AB9E8"/>
<path fill-rule="evenodd" clip-rule="evenodd" d="M225.225 148.909H217.986C217.555 148.909 217.202 148.556 217.202 148.125C217.202 147.693 217.555 147.34 217.986 147.34H225.225C225.656 147.34 226.01 147.693 226.01 148.125C226.029 148.556 225.676 148.909 225.225 148.909ZM194.603 157.933H174.554C174.123 157.933 173.77 157.58 173.77 157.148C173.77 156.717 174.123 156.364 174.554 156.364H194.603C195.034 156.364 195.387 156.717 195.387 157.148C195.387 157.58 195.034 157.933 194.603 157.933ZM217.378 157.933H197.84C197.408 157.933 197.055 157.58 197.055 157.148C197.055 156.717 197.408 156.364 197.84 156.364H217.378C217.81 156.364 218.163 156.717 218.163 157.148C218.163 157.58 217.81 157.933 217.378 157.933ZM186.952 153.421H174.535C174.103 153.421 173.75 153.068 173.75 152.636C173.75 152.205 174.103 151.852 174.535 151.852H186.952C187.384 151.852 187.737 152.205 187.737 152.636C187.737 153.068 187.403 153.421 186.952 153.421ZM225.225 153.421H190.424C189.993 153.421 189.64 153.068 189.64 152.636C189.64 152.205 189.993 151.852 190.424 151.852H225.225C225.656 151.852 226.01 152.205 226.01 152.636C226.01 153.068 225.676 153.421 225.225 153.421ZM214.651 148.909H174.535C174.103 148.909 173.75 148.556 173.75 148.125C173.75 147.693 174.103 147.34 174.535 147.34H214.651C215.083 147.34 215.436 147.693 215.436 148.125C215.456 148.556 215.083 148.909 214.651 148.909ZM225.225 175.098H217.986C217.555 175.098 217.202 174.745 217.202 174.313C217.202 173.882 217.555 173.528 217.986 173.528H225.225C225.656 173.528 226.01 173.882 226.01 174.313C226.029 174.745 225.676 175.098 225.225 175.098ZM194.603 184.102H174.554C174.123 184.102 173.77 183.749 173.77 183.317C173.77 182.886 174.123 182.533 174.554 182.533H194.603C195.034 182.533 195.387 182.886 195.387 183.317C195.387 183.749 195.034 184.102 194.603 184.102ZM217.378 184.102H197.84C197.408 184.102 197.055 183.749 197.055 183.317C197.055 182.886 197.408 182.533 197.84 182.533H217.378C217.81 182.533 218.163 182.886 218.163 183.317C218.163 183.749 217.81 184.102 217.378 184.102ZM186.952 179.59H174.535C174.103 179.59 173.75 179.237 173.75 178.805C173.75 178.374 174.103 178.021 174.535 178.021H186.952C187.384 178.021 187.737 178.374 187.737 178.805C187.757 179.237 187.403 179.59 186.952 179.59ZM225.225 179.59H190.424C189.993 179.59 189.64 179.237 189.64 178.805C189.64 178.374 189.993 178.021 190.424 178.021H225.225C225.656 178.021 226.01 178.374 226.01 178.805C226.029 179.237 225.676 179.59 225.225 179.59ZM214.651 175.098H174.535C174.103 175.098 173.75 174.745 173.75 174.313C173.75 173.882 174.103 173.528 174.535 173.528H214.651C215.083 173.528 215.436 173.882 215.436 174.313C215.456 174.745 215.083 175.098 214.651 175.098Z" fill="#8AB9E8"/>
<path fill-rule="evenodd" clip-rule="evenodd" d="M176.662 86.7854L252.678 86.7266C254.895 86.7266 256.699 88.5313 256.699 90.748V136.534C256.699 138.751 254.895 140.575 252.678 140.575L176.662 140.634C174.446 140.634 172.641 138.829 172.641 136.612V90.8265C172.621 88.6098 174.446 86.805 176.662 86.7854Z" fill="#EEF4FB"/>
<path fill-rule="evenodd" clip-rule="evenodd" d="M183.141 117.917L201.227 108.266L210.016 111.934L219.079 99.9679L228.024 108.756L236.871 96.5742L246.209 102.302L245.679 103.185L237.146 97.9474L228.142 110.326L219.197 101.537L210.369 113.209L201.286 109.404L183.631 118.82L183.141 117.917Z" fill="#A3CFFB"/>
<path d="M186.319 125.684H180.453V136.846H186.319V125.684Z" fill="#A3CFFB"/>
<path d="M195.264 122.055H189.398V136.826H195.264V122.055Z" fill="#A3CFFB"/>
<path d="M204.194 115.938H198.328V136.849H204.194V115.938Z" fill="#A7D0FA"/>
<path d="M213.139 120.191H207.273V136.827H213.139V120.191Z" fill="#A3CFFB"/>
<path fill-rule="evenodd" clip-rule="evenodd" d="M216.195 108.797H222.061V136.829H216.195V108.797Z" fill="#A7D0FA"/>
<path d="M231.014 118.641H225.148V136.826H231.014V118.641Z" fill="#A3CFFB"/>
<path d="M239.936 105.047H234.07V136.807H239.936V105.047Z" fill="#A7D0FA"/>
<path fill-rule="evenodd" clip-rule="evenodd" d="M183.371 116.623C184.332 116.623 185.117 117.408 185.117 118.369C185.117 119.331 184.332 120.115 183.371 120.115C182.41 120.115 181.625 119.331 181.625 118.369C181.625 117.408 182.41 116.623 183.371 116.623ZM201.262 107.07C202.223 107.07 203.007 107.855 203.007 108.816C203.007 109.777 202.223 110.562 201.262 110.562C200.3 110.562 199.516 109.777 199.516 108.816C199.496 107.874 200.281 107.07 201.262 107.07ZM210.187 110.836C211.148 110.836 211.933 111.621 211.933 112.582C211.933 113.544 211.148 114.328 210.187 114.328C209.226 114.328 208.441 113.544 208.441 112.582C208.441 111.621 209.226 110.836 210.187 110.836ZM219.133 99.0074C220.094 99.0074 220.878 99.7921 220.878 100.753C220.878 101.715 220.094 102.499 219.133 102.499C218.171 102.499 217.387 101.715 217.387 100.753C217.367 99.7921 218.152 99.0074 219.133 99.0074ZM228.078 107.796C229.039 107.796 229.824 108.581 229.824 109.542C229.824 110.503 229.039 111.288 228.078 111.288C227.117 111.288 226.332 110.503 226.332 109.542C226.332 108.581 227.117 107.796 228.078 107.796ZM237.004 95.5156C237.965 95.5156 238.75 96.3003 238.75 97.2615C238.75 98.2228 237.965 99.0074 237.004 99.0074C236.042 99.0074 235.258 98.2228 235.258 97.2615C235.238 96.3003 236.023 95.5156 237.004 95.5156Z" fill="#A7D0FA"/>
<path fill-rule="evenodd" clip-rule="evenodd" d="M118.43 187.496L185.912 188.948L188.246 237.009L119.43 239.246L118.43 187.496Z" fill="#98C4F1"/>
<path fill-rule="evenodd" clip-rule="evenodd" d="M122.211 189.617L123.074 235.442L186.044 233.402L184.004 190.932L122.211 189.617Z" fill="#C4DDF7"/>
<path fill-rule="evenodd" clip-rule="evenodd" d="M119.367 236.225L113.266 236.283L118.425 187.496L119.367 236.225Z" fill="#A3CFFB"/>
<path fill-rule="evenodd" clip-rule="evenodd" d="M172.53 188.656C172.608 187.773 172.824 186.557 173.275 185.615C173.727 184.654 174.433 183.928 175.453 183.928C176.375 183.928 177.16 184.615 177.689 185.733C178.14 186.694 178.415 188.009 178.415 189.441C178.415 190.873 178.14 192.187 177.689 193.148C177.16 194.266 176.375 194.953 175.453 194.953C175.08 194.953 174.766 194.639 174.766 194.266C174.766 193.874 175.08 193.58 175.453 193.58C175.786 193.58 176.14 193.188 176.434 192.56C176.806 191.775 177.022 190.677 177.022 189.441C177.022 188.205 176.787 187.106 176.434 186.322C176.14 185.694 175.786 185.302 175.453 185.302C175.08 185.302 174.766 185.674 174.531 186.184C174.178 186.93 174.001 187.911 173.923 188.656H172.53ZM131.688 187.793C131.786 186.93 132.001 185.87 132.413 185.027C132.865 184.066 133.571 183.34 134.591 183.34C135.513 183.34 136.297 184.026 136.827 185.145C137.278 186.106 137.553 187.42 137.553 188.833C137.553 190.265 137.278 191.579 136.827 192.54C136.297 193.658 135.513 194.345 134.591 194.345C134.218 194.345 133.904 194.031 133.904 193.658C133.904 193.266 134.218 192.972 134.591 192.972C134.924 192.972 135.277 192.579 135.572 191.952C135.944 191.167 136.16 190.068 136.16 188.833C136.16 187.597 135.925 186.498 135.572 185.733C135.277 185.105 134.924 184.713 134.591 184.713C134.218 184.713 133.904 185.086 133.669 185.596C133.355 186.263 133.178 187.106 133.08 187.793H131.688ZM145.282 188.068C145.361 187.185 145.596 185.969 146.027 185.027C146.479 184.066 147.185 183.34 148.205 183.34C149.127 183.34 149.912 184.026 150.441 185.145C150.892 186.106 151.167 187.42 151.167 188.833C151.167 190.265 150.892 191.579 150.441 192.54C149.912 193.658 149.127 194.345 148.205 194.345C147.832 194.345 147.518 194.031 147.518 193.658C147.518 193.286 147.832 192.972 148.205 192.972C148.538 192.972 148.892 192.579 149.186 191.952C149.559 191.167 149.774 190.068 149.774 188.833C149.774 187.597 149.539 186.498 149.186 185.733C148.892 185.105 148.538 184.713 148.205 184.713C147.832 184.713 147.518 185.086 147.283 185.596C146.93 186.341 146.753 187.322 146.675 188.068H145.282ZM158.896 188.362C158.975 187.479 159.21 186.263 159.642 185.321C160.093 184.36 160.799 183.634 161.819 183.634C162.741 183.634 163.526 184.321 164.055 185.439C164.507 186.4 164.781 187.714 164.781 189.127C164.781 190.559 164.507 191.873 164.055 192.834C163.526 193.953 162.741 194.639 161.819 194.639C161.446 194.639 161.133 194.325 161.133 193.953C161.133 193.56 161.446 193.266 161.819 193.266C162.153 193.266 162.506 192.874 162.8 192.246C163.173 191.461 163.388 190.363 163.388 189.127C163.388 187.891 163.153 186.792 162.8 186.027C162.506 185.4 162.153 185.007 161.819 185.007C161.446 185.007 161.133 185.38 160.897 185.89C160.544 186.635 160.367 187.616 160.289 188.362H158.896Z" fill="#98C4F1"/>
<path fill-rule="evenodd" clip-rule="evenodd" d="M129.533 200.469C131.318 200.488 133.103 200.508 134.908 200.528C135.124 200.528 135.3 200.704 135.3 200.92C135.32 202.842 135.34 204.784 135.34 206.707C135.34 206.923 135.163 207.08 134.947 207.08C133.142 207.08 131.338 207.08 129.533 207.06C129.317 207.06 129.16 206.883 129.16 206.668C129.16 204.726 129.16 202.784 129.16 200.841C129.16 200.645 129.317 200.469 129.533 200.469ZM129.533 210.885C131.338 210.885 133.162 210.885 134.967 210.885C135.183 210.885 135.359 211.062 135.359 211.258C135.379 213.181 135.379 215.123 135.398 217.045C135.398 217.261 135.222 217.437 135.006 217.437C133.182 217.457 131.357 217.457 129.533 217.477C129.317 217.477 129.141 217.3 129.141 217.084C129.141 215.142 129.141 213.2 129.141 211.258C129.16 211.062 129.337 210.885 129.533 210.885ZM173.161 210.885C174.966 210.885 176.79 210.885 178.595 210.885C178.811 210.885 178.987 211.042 179.007 211.238C179.125 213.082 179.242 214.926 179.34 216.77C179.36 216.967 179.183 217.143 178.968 217.143C177.143 217.163 175.319 217.163 173.495 217.182C173.279 217.182 173.102 217.025 173.083 216.81C172.984 214.966 172.886 213.102 172.788 211.238C172.788 211.042 172.945 210.885 173.161 210.885ZM164.431 210.885C166.236 210.885 168.061 210.885 169.865 210.885C170.081 210.885 170.258 211.042 170.277 211.258C170.375 213.122 170.454 214.985 170.552 216.829C170.572 217.025 170.395 217.202 170.179 217.202C168.355 217.222 166.531 217.222 164.706 217.241C164.49 217.241 164.314 217.084 164.294 216.869C164.216 215.005 164.137 213.122 164.059 211.258C164.059 211.042 164.216 210.885 164.431 210.885ZM155.722 210.885C157.526 210.885 159.351 210.885 161.155 210.885C161.371 210.885 161.548 211.042 161.548 211.258C161.626 213.141 161.685 215.005 161.764 216.888C161.764 217.084 161.607 217.261 161.391 217.261C159.566 217.28 157.742 217.28 155.918 217.3C155.702 217.3 155.525 217.143 155.525 216.927C155.467 215.044 155.408 213.141 155.349 211.258C155.329 211.042 155.506 210.885 155.722 210.885ZM146.992 210.885C148.797 210.885 150.621 210.885 152.426 210.885C152.642 210.885 152.818 211.062 152.818 211.258C152.877 213.161 152.916 215.044 152.975 216.947C152.975 217.163 152.799 217.32 152.602 217.32C150.778 217.339 148.954 217.339 147.129 217.359C146.914 217.359 146.737 217.182 146.737 216.986C146.698 215.083 146.659 213.181 146.619 211.258C146.6 211.042 146.776 210.885 146.992 210.885ZM138.263 210.885C140.067 210.885 141.892 210.885 143.696 210.885C143.912 210.885 144.089 211.062 144.089 211.258C144.128 213.161 144.167 215.083 144.187 216.986C144.187 217.202 144.01 217.359 143.794 217.359C141.97 217.379 140.146 217.379 138.321 217.398C138.106 217.398 137.929 217.222 137.929 217.025C137.909 215.103 137.89 213.181 137.87 211.258C137.87 211.062 138.047 210.885 138.263 210.885ZM129.553 221.302C131.377 221.282 133.221 221.263 135.045 221.243C135.261 221.243 135.438 221.42 135.438 221.616C135.457 223.538 135.457 225.48 135.477 227.403C135.477 227.619 135.3 227.776 135.085 227.795C133.241 227.834 131.377 227.854 129.533 227.893C129.317 227.893 129.141 227.736 129.141 227.521C129.141 225.578 129.141 223.636 129.141 221.694C129.16 221.478 129.337 221.302 129.553 221.302ZM173.691 220.831C175.515 220.812 177.359 220.792 179.183 220.772C179.399 220.772 179.595 220.929 179.595 221.125C179.713 222.969 179.811 224.813 179.929 226.657C179.949 226.854 179.772 227.01 179.556 227.03C177.712 227.069 175.849 227.089 174.005 227.128C173.789 227.128 173.593 226.971 173.573 226.775C173.475 224.931 173.377 223.067 173.279 221.204C173.298 220.988 173.475 220.831 173.691 220.831ZM164.863 220.91C166.687 220.89 168.531 220.87 170.356 220.851C170.572 220.851 170.768 221.008 170.768 221.204C170.866 223.067 170.944 224.931 171.042 226.795C171.062 226.991 170.885 227.167 170.67 227.167C168.826 227.207 166.962 227.226 165.118 227.265C164.902 227.265 164.706 227.109 164.706 226.912C164.628 225.049 164.549 223.166 164.471 221.302C164.471 221.086 164.647 220.91 164.863 220.91ZM156.035 221.008C157.86 220.988 159.704 220.968 161.528 220.949C161.744 220.949 161.921 221.106 161.94 221.322C162.019 223.205 162.077 225.068 162.156 226.952C162.156 227.148 161.999 227.324 161.783 227.324C159.939 227.364 158.076 227.383 156.232 227.422C156.016 227.422 155.839 227.265 155.82 227.069C155.761 225.186 155.702 223.283 155.643 221.4C155.643 221.184 155.82 221.008 156.035 221.008ZM147.208 221.106C149.032 221.086 150.876 221.067 152.701 221.047C152.916 221.047 153.093 221.204 153.113 221.42C153.171 223.322 153.211 225.206 153.269 227.109C153.269 227.324 153.113 227.481 152.897 227.481C151.053 227.521 149.189 227.54 147.345 227.579C147.129 227.579 146.933 227.422 146.933 227.207C146.894 225.304 146.855 223.401 146.815 221.478C146.815 221.282 146.992 221.106 147.208 221.106ZM138.38 221.204C140.205 221.184 142.049 221.165 143.893 221.145C144.108 221.145 144.285 221.302 144.285 221.518C144.324 223.421 144.344 225.343 144.383 227.246C144.383 227.462 144.206 227.619 143.991 227.619C142.147 227.658 140.283 227.677 138.439 227.717C138.223 227.717 138.047 227.56 138.047 227.344C138.027 225.422 138.007 223.499 137.988 221.577C137.988 221.38 138.164 221.204 138.38 221.204ZM172.631 200.92C174.417 200.94 176.202 200.959 178.006 200.979C178.222 200.979 178.399 201.155 178.418 201.352C178.536 203.196 178.654 205.039 178.752 206.883C178.771 207.08 178.595 207.256 178.379 207.256C176.574 207.256 174.77 207.237 172.965 207.237C172.749 207.237 172.573 207.06 172.553 206.864C172.455 205 172.357 203.156 172.259 201.293C172.259 201.096 172.416 200.92 172.631 200.92ZM164.02 200.841C165.805 200.861 167.609 200.881 169.395 200.9C169.61 200.9 169.787 201.077 169.807 201.273C169.905 203.137 170.003 205 170.081 206.844C170.081 207.04 169.924 207.217 169.708 207.217C167.904 207.217 166.099 207.197 164.294 207.197C164.078 207.197 163.902 207.021 163.902 206.825C163.823 204.961 163.745 203.078 163.666 201.214C163.627 200.998 163.804 200.841 164.02 200.841ZM155.388 200.743C157.173 200.763 158.958 200.783 160.763 200.802C160.979 200.802 161.155 200.979 161.155 201.175C161.234 203.058 161.293 204.922 161.371 206.805C161.371 207.001 161.214 207.178 160.999 207.178C159.194 207.178 157.389 207.158 155.584 207.158C155.368 207.158 155.192 206.982 155.192 206.785C155.133 204.902 155.074 202.999 155.015 201.116C155.015 200.9 155.192 200.743 155.388 200.743ZM146.776 200.645C148.561 200.665 150.366 200.685 152.151 200.704C152.367 200.704 152.544 200.881 152.544 201.077C152.602 202.98 152.642 204.863 152.701 206.766C152.701 206.962 152.524 207.139 152.328 207.139C150.523 207.139 148.718 207.119 146.914 207.119C146.698 207.119 146.521 206.942 146.521 206.746C146.482 204.843 146.443 202.94 146.404 201.018C146.404 200.822 146.56 200.645 146.776 200.645ZM138.164 200.567C139.95 200.586 141.735 200.606 143.539 200.626C143.755 200.626 143.932 200.802 143.932 201.018C143.971 202.94 144.01 204.843 144.03 206.746C144.03 206.962 143.853 207.119 143.657 207.119C141.852 207.119 140.048 207.099 138.243 207.099C138.027 207.099 137.851 206.923 137.851 206.707C137.831 204.784 137.811 202.862 137.792 200.94C137.772 200.724 137.949 200.567 138.164 200.567Z" fill="white"/>
<path fill-rule="evenodd" clip-rule="evenodd" d="M126.517 124.593L126.125 124.475L133.324 100.68L133.717 100.797L126.517 124.593Z" fill="#4469F4"/>
<path d="M133.721 100.669L133.312 100.809L141.435 124.61L141.844 124.47L133.721 100.669Z" fill="#4469F4"/>
<path d="M133.728 100.738H133.297V124.534H133.728V100.738Z" fill="#4469F4"/>
<path fill-rule="evenodd" clip-rule="evenodd" d="M83.6916 124.593L84.1036 124.475L76.9042 100.68L76.4922 100.797L83.6916 124.593Z" fill="#4469F4"/>
<path d="M76.5135 100.664L68.3906 124.465L68.7991 124.604L76.922 100.803L76.5135 100.664Z" fill="#4469F4"/>
<path d="M76.9238 100.738H76.4922V124.534H76.9238V100.738Z" fill="#4469F4"/>
<path fill-rule="evenodd" clip-rule="evenodd" d="M67.1328 124.102C67.1328 127.339 71.2131 129.967 76.2351 129.967C81.257 129.967 85.3373 127.339 85.3373 124.102H67.1328ZM76.137 99.973C76.137 100.287 76.392 100.542 76.7059 100.542C77.0198 100.542 77.2748 100.287 77.2748 99.973C77.2748 99.6592 77.0198 99.4041 76.7059 99.4041C76.392 99.4041 76.137 99.6592 76.137 99.973ZM75.7054 99.973C75.7054 99.4238 76.1566 98.9922 76.6863 98.9922C77.2355 98.9922 77.6475 99.4434 77.6671 99.973C77.6867 100.483 77.2355 100.934 76.6863 100.954C76.1566 100.954 75.7054 100.503 75.7054 99.973Z" fill="#4469F4"/>
<path fill-rule="evenodd" clip-rule="evenodd" d="M139.421 96.7551C139.363 96.5197 139.166 96.245 138.931 96.2843C138.794 96.3039 138.676 96.4216 138.617 96.5589C138.558 96.6962 138.519 96.8335 138.48 96.9709C138.382 97.2455 138.166 97.4613 137.911 97.579C137.891 97.579 137.872 97.5986 137.852 97.5986C136.126 97.8928 130.888 98.6579 122.06 96.2646C113.017 93.8125 106.445 94.2441 106.445 94.2441V96.2843L106.7 97.7555C107.191 96.912 117.313 97.167 122.335 98.3244C130.927 100.306 137.97 98.9914 137.97 98.9914C137.97 98.9914 138.558 98.8345 138.813 98.6579C138.892 98.5991 138.97 98.5206 139.049 98.4421C139.421 98.0302 139.578 97.3632 139.421 96.7551Z" fill="#74B7FB"/>
<path fill-rule="evenodd" clip-rule="evenodd" d="M143.087 124.102C143.087 127.338 139.007 129.967 133.985 129.967C128.963 129.967 124.883 127.338 124.883 124.102H143.087Z" fill="#4469F4"/>
<path fill-rule="evenodd" clip-rule="evenodd" d="M83.768 127.397L83.7876 127.378C83.7876 127.378 83.7876 127.397 83.768 127.397ZM83.9642 127.221C84.5919 126.573 85.0431 125.828 85.2393 125.043C84.9842 126.122 84.4546 126.73 83.9642 127.221ZM67.1524 124.435C67.1328 124.298 67.1328 124.278 67.1328 124.18C67.1328 124.258 67.1328 124.337 67.1524 124.435Z" fill="url(#paint0_radial_11504_36354)"/>
<path fill-rule="evenodd" clip-rule="evenodd" d="M83.768 127.397L67.1524 124.435C67.1524 124.357 67.1328 124.258 67.1328 124.18C67.1328 124.16 67.1328 124.141 67.1328 124.102H85.3373C85.3373 124.121 85.3373 124.121 85.3373 124.141C85.3177 124.474 85.2785 124.769 85.2196 125.043C85.0235 125.828 84.5919 126.573 83.9445 127.221C83.8857 127.28 83.8268 127.338 83.7876 127.378C83.7876 127.378 83.7876 127.397 83.768 127.397Z" fill="#74B7FB"/>
<path fill-rule="evenodd" clip-rule="evenodd" d="M141.523 127.397L141.543 127.377C141.523 127.377 141.523 127.397 141.523 127.397ZM141.7 127.22C142.328 126.573 142.779 125.828 142.975 125.043C142.74 126.122 142.19 126.73 141.7 127.22Z" fill="#8A9AAB"/>
<path fill-rule="evenodd" clip-rule="evenodd" d="M124.879 124.435C124.859 124.297 124.859 124.278 124.859 124.18C124.859 124.258 124.879 124.337 124.879 124.435Z" fill="url(#paint1_radial_11504_36354)"/>
<path fill-rule="evenodd" clip-rule="evenodd" d="M141.514 127.397L124.879 124.435C124.879 124.357 124.859 124.258 124.859 124.18C124.859 124.16 124.859 124.141 124.859 124.121H143.064C143.064 124.141 143.064 124.141 143.064 124.16C143.044 124.494 143.005 124.788 142.946 125.063C142.75 125.847 142.318 126.593 141.671 127.24C141.612 127.299 141.553 127.358 141.514 127.397Z" fill="#74B7FB"/>
<path fill-rule="evenodd" clip-rule="evenodd" d="M133.512 99.4041C133.198 99.4041 132.943 99.6592 132.943 99.973C132.943 100.287 133.198 100.542 133.512 100.542C133.826 100.542 134.081 100.287 134.081 99.973C134.081 99.6592 133.826 99.4041 133.512 99.4041ZM133.512 100.954C132.963 100.954 132.531 100.503 132.531 99.973C132.531 99.4434 132.982 98.9922 133.512 98.9922C134.061 98.9922 134.493 99.4434 134.493 99.973C134.493 100.503 134.061 100.954 133.512 100.954Z" fill="#4469F4"/>
<path fill-rule="evenodd" clip-rule="evenodd" d="M70.8064 96.7544C70.8653 96.519 71.0614 96.2444 71.2968 96.2836C71.4342 96.3033 71.5519 96.421 71.6107 96.5583C71.6696 96.6956 71.7088 96.8329 71.748 96.9702C71.8461 97.2449 72.0619 97.4607 72.3169 97.5784C72.3365 97.5784 72.3561 97.598 72.3758 97.598C74.1021 97.8922 79.3398 98.6573 88.1674 96.264C97.2108 93.8119 103.704 94.3612 103.704 94.3612L103.822 96.1659L103.527 97.7549C103.037 96.9114 92.9147 97.1664 87.8928 98.3238C79.3006 100.305 72.2581 98.9908 72.2581 98.9908C72.2581 98.9908 71.6696 98.8338 71.4145 98.6573C71.3361 98.5984 71.2576 98.52 71.1791 98.4415C70.7868 98.0295 70.6299 97.3626 70.8064 96.7544Z" fill="#74B7FB"/>
<path fill-rule="evenodd" clip-rule="evenodd" d="M105.19 140.463H105.131C103.464 140.463 102.11 138.952 102.149 137.128C102.149 137.128 103.267 93.5391 103.679 93.5391H106.426C106.838 93.5391 108.172 137.108 108.172 137.108C108.231 138.933 106.877 140.463 105.19 140.463Z" fill="#74B7FB"/>
<path fill-rule="evenodd" clip-rule="evenodd" d="M125.179 143.441H85.1406V143.402C85.1406 140.97 90.7707 138.988 94.0467 138.988H116.842C120.118 138.988 125.179 140.97 125.179 143.402V143.441Z" fill="#74B7FB"/>
<path fill-rule="evenodd" clip-rule="evenodd" d="M107.347 91.658C107.347 92.8743 106.366 93.8551 105.15 93.8551C103.934 93.8551 102.953 92.8743 102.953 91.658C102.953 90.4418 103.934 89.4609 105.15 89.4609C106.366 89.4806 107.347 90.4614 107.347 91.658Z" fill="#4469F4"/>
<path fill-rule="evenodd" clip-rule="evenodd" d="M106.323 88.7905C106.323 89.5556 105.793 90.1637 105.146 90.1637C104.498 90.1637 103.969 89.5556 103.969 88.7905C103.969 88.0254 104.773 85.8087 105.146 85.8087C105.479 85.7891 106.323 88.0254 106.323 88.7905Z" fill="#4469F4"/>
<path fill-rule="evenodd" clip-rule="evenodd" d="M105.913 91.6753C105.913 92.1068 105.56 92.46 105.128 92.46C104.697 92.46 104.344 92.1068 104.344 91.6753C104.344 91.2437 104.697 90.8906 105.128 90.8906C105.56 90.8906 105.913 91.2437 105.913 91.6753ZM105.678 88.5562C105.678 88.8897 105.442 89.1447 105.168 89.1447C104.873 89.1447 104.658 88.87 104.658 88.5562C104.658 88.2227 105.109 87.3203 105.168 87.3203C105.148 87.3399 105.678 88.2423 105.678 88.5562Z" fill="white"/>
<path fill-rule="evenodd" clip-rule="evenodd" d="M109.111 142.559L102.422 138.988H102.873H107.718H109.15L116.958 142.559H109.111Z" fill="#4469F4"/>
<path fill-rule="evenodd" clip-rule="evenodd" d="M106.759 97.6358L106.739 97.2631C106.68 96.1057 106.621 95.1837 106.582 94.5364L106.562 94.2617H107.112L108.701 97.2827C107.857 97.322 106.759 97.6358 106.759 97.6358Z" fill="#4469F4"/>
<path fill-rule="evenodd" clip-rule="evenodd" d="M106.719 97.2658L106.562 94.5391C106.602 95.206 106.661 96.128 106.719 97.2658Z" fill="#323336"/>
<path fill-rule="evenodd" clip-rule="evenodd" d="M103.348 97.7179C103.348 97.7179 102.25 97.404 101.406 97.3648C102.328 97.4236 103.015 97.5217 103.348 97.6786V97.7179ZM103.564 94.383C103.446 94.383 103.25 94.3634 102.995 94.3634V94.3438H103.545C103.564 94.3634 103.564 94.383 103.564 94.383Z" fill="url(#paint2_radial_11504_36354)"/>
<path fill-rule="evenodd" clip-rule="evenodd" d="M103.364 97.655C103.03 97.4981 102.344 97.4 101.422 97.3412L102.991 94.3594C103.246 94.3594 103.423 94.379 103.56 94.379C103.521 94.9087 103.482 95.6933 103.423 96.6546L103.364 97.655Z" fill="#4469F4"/>
<path fill-rule="evenodd" clip-rule="evenodd" d="M103.422 96.6585C103.461 95.6973 103.52 94.9323 103.559 94.383C103.559 94.3634 103.559 94.3634 103.559 94.3438L103.422 96.6585Z" fill="#323336"/>
<path fill-rule="evenodd" clip-rule="evenodd" d="M85.1406 143.327V143.249C85.1406 143.072 85.1798 142.876 85.2779 142.719L85.3368 142.602C85.2191 142.837 85.1406 143.072 85.1406 143.327ZM125.179 143.288C125.159 143.053 125.1 142.817 124.983 142.582C125.12 142.778 125.179 143.014 125.179 143.269V143.288Z" fill="url(#paint3_radial_11504_36354)"/>
<path fill-rule="evenodd" clip-rule="evenodd" d="M125.179 143.328H85.1406C85.1602 143.073 85.2191 142.837 85.3368 142.602V142.582L109.113 142.562L110.231 143.171L118.607 143.328L116.959 142.562H124.983C124.983 142.562 124.983 142.582 125.002 142.582C125.1 142.818 125.179 143.053 125.198 143.288L125.179 143.328Z" fill="#4469F4"/>
<path fill-rule="evenodd" clip-rule="evenodd" d="M118.604 143.328L110.228 143.171L109.109 142.562H116.956L118.604 143.328Z" fill="#4469F4"/>
<path fill-rule="evenodd" clip-rule="evenodd" d="M107.875 128.025L102.422 128.006L102.481 126.672H107.836L107.875 128.025Z" fill="#74B7FB"/>
<path fill-rule="evenodd" clip-rule="evenodd" d="M107.82 126.261H102.484L102.524 125.594H107.82V126.261Z" fill="#74B7FB"/>
<path fill-rule="evenodd" clip-rule="evenodd" d="M107.72 138.99H107.681C107.877 138.676 108.014 138.304 108.093 137.931C108.073 138.363 107.72 138.99 107.72 138.99ZM102.6 138.912C102.384 138.775 102.345 138.48 102.267 138.127C102.345 138.421 102.463 138.676 102.6 138.912ZM102.169 137.715C101.992 136.989 102.267 132.222 102.267 132.144C102.188 135.185 102.129 137.127 102.129 137.127C102.129 137.323 102.149 137.519 102.169 137.715ZM102.267 132.124L102.424 126.004C102.424 126.004 102.424 126.004 102.443 126.024C102.384 128.319 102.326 130.398 102.267 132.124Z" fill="url(#paint4_radial_11504_36354)"/>
<path fill-rule="evenodd" clip-rule="evenodd" d="M107.684 138.99H102.878C102.761 138.99 102.662 138.971 102.584 138.931C102.447 138.696 102.329 138.421 102.251 138.147C102.231 138.009 102.192 137.872 102.172 137.735C102.172 137.735 102.172 137.735 102.172 137.715C102.152 137.519 102.133 137.323 102.133 137.127C102.133 137.127 102.192 135.204 102.27 132.144V132.124C102.309 130.398 102.368 128.319 102.447 126.023C102.466 126.043 102.466 126.082 102.506 126.122V126.239H102.564C102.623 126.357 102.682 126.494 102.761 126.651H102.486L102.427 127.985H103.428C105.056 131.3 108.136 137.597 108.116 137.892C108.018 138.304 107.881 138.676 107.684 138.99Z" fill="#4469F4"/>
<path fill-rule="evenodd" clip-rule="evenodd" d="M103.422 128.004H102.422L102.481 126.67H102.755C102.932 127.023 103.148 127.475 103.422 128.004ZM102.559 126.258H102.5V126.141C102.5 126.16 102.52 126.219 102.559 126.258Z" fill="#4469F4"/>
<path fill-rule="evenodd" clip-rule="evenodd" d="M125.927 145.31H83.5541C83.1225 145.31 82.7891 144.839 82.7891 144.251V144.231C82.7891 143.643 83.1422 143.172 83.5541 143.172H125.927C126.358 143.172 126.692 143.643 126.692 144.231V144.251C126.692 144.82 126.339 145.31 125.927 145.31Z" fill="#74B7FB"/>
<path fill-rule="evenodd" clip-rule="evenodd" d="M253.742 243.353C253.742 243.353 256.528 247.277 256.155 247.885C255.782 248.512 252.84 248.591 251.055 247.885C249.269 247.178 249.23 242.588 248.426 240.626C248.092 239.802 248.818 237.37 249.819 237.193C250.819 237.017 251.937 237.527 251.937 237.527C251.937 237.527 250.878 240.312 253.742 243.353Z" fill="#021B79"/>
<path fill-rule="evenodd" clip-rule="evenodd" d="M251.957 237.509C251.957 237.509 252.546 239.176 252.762 240.765C252.938 242.08 254.743 244.885 254.665 245.238C254.586 245.591 252.291 245.905 251.349 245.003C250.408 244.081 249.819 241.432 249.603 239.843C249.407 238.372 249.172 237.627 249.172 237.627C249.172 237.627 251.055 236.528 251.957 237.509Z" fill="#B7D5F4"/>
<path fill-rule="evenodd" clip-rule="evenodd" d="M229.477 243.433C229.477 243.433 232.164 247.278 231.772 247.906C231.38 248.534 228.457 248.612 226.672 247.906C224.887 247.2 224.847 242.609 224.043 240.648C223.71 239.824 224.435 237.391 225.436 237.215C226.456 237.038 227.633 237.587 227.633 237.587C227.633 237.587 226.632 240.373 229.477 243.433Z" fill="#021B79"/>
<path fill-rule="evenodd" clip-rule="evenodd" d="M227.68 237.567C227.68 237.567 227.896 239.391 228.229 240.666C228.563 241.941 230.387 244.884 230.309 245.237C230.23 245.59 227.935 245.904 226.994 245.001C226.052 244.079 225.346 241.451 225.248 239.842C225.169 238.234 225.463 237.194 225.463 237.194C225.463 237.194 226.778 236.605 227.68 237.567Z" fill="#B7D5F4"/>
<path fill-rule="evenodd" clip-rule="evenodd" d="M241.091 173.849C241.091 173.849 243.484 185.462 244.033 188.385C244.583 191.308 246.113 205.452 246.289 207.864C246.446 210.277 248.781 219.34 248.683 220.204C248.565 221.067 252.135 238.33 252.135 238.33C252.135 238.33 250.919 239.35 249.644 238.428C248.977 237.957 241.817 222.263 241.817 217.967C241.817 212.023 237.599 204.275 237.069 202.941C232.028 190.602 233.028 186.816 232.361 186.011C231.694 185.207 231.655 186.502 231.263 188.287C230.87 190.072 230.046 205.412 229.556 207.354C229.066 209.297 229.438 215.888 229.164 219.223C228.889 222.538 227.692 237.584 227.692 237.584C227.692 237.584 226.751 239.114 225.456 237.623C225.181 237.31 223.2 220.871 223.141 216.928C223.082 212.985 223.024 207.531 222.926 205.805C221.905 189.425 219.414 187.09 223.337 175.497C230.694 153.781 241.091 173.849 241.091 173.849Z" fill="#B7D5F4"/>
<path fill-rule="evenodd" clip-rule="evenodd" d="M225.04 170.613C221.862 173.006 219.077 185.718 222.019 206.865C222.019 206.865 238.164 209.16 246.835 204.217C246.835 204.217 242.401 177.244 241.107 173.85C239.792 170.456 226.963 169.926 225.04 170.613Z" fill="#3B76B2"/>
<path fill-rule="evenodd" clip-rule="evenodd" d="M225.038 170.613C224.371 171.123 223.724 172.065 223.135 173.458C222.076 180.108 222.312 191.741 224.332 206.238C224.332 206.238 234.553 207.689 243.106 205.786C244.439 205.374 245.695 204.845 246.833 204.197C246.833 204.197 242.399 177.224 241.105 173.83C239.79 170.456 226.961 169.927 225.038 170.613Z" fill="#0575E6"/>
<path fill-rule="evenodd" clip-rule="evenodd" d="M248.328 240.293V244.373H248.838V241.215L248.328 240.293Z" fill="#021B79"/>
<path fill-rule="evenodd" clip-rule="evenodd" d="M223.984 240.293V244.373H224.494V241.215L223.984 240.293Z" fill="#021B79"/>
<path fill-rule="evenodd" clip-rule="evenodd" d="M233.107 126.513C233.107 126.513 237.658 131.103 236.108 137.027C234.558 142.952 232.067 142.971 229.301 140.441C226.555 137.89 224.926 135.222 224.573 132.241C224.22 129.259 228.948 122.413 233.107 126.513Z" fill="#B7D5F4"/>
<path fill-rule="evenodd" clip-rule="evenodd" d="M234.007 146.247C234.007 146.247 233.34 144.697 232.849 142.951C232.771 142.637 232.692 142.324 232.614 142.01C232.378 140.911 232.28 139.832 232.535 139.087C233.261 136.929 227.965 138.42 227.965 138.42C227.965 138.42 228.985 144.109 227.965 146.012C226.964 147.954 234.007 146.247 234.007 146.247Z" fill="#B7D5F4"/>
<path fill-rule="evenodd" clip-rule="evenodd" d="M223 159.294C223 159.294 223.451 160.275 223.843 161.374C223.53 161.393 223.216 161.413 223.078 161.432C221.784 161.609 222.745 160 223 159.294ZM217.919 164.669C217.998 165.375 221.332 165.238 224.883 164.865L224.903 164.905C224.981 165.218 225.04 165.493 225.099 165.689C225.158 165.905 225.197 166.14 225.236 166.376C225.589 168.416 225.57 171.28 224.883 173.732C224.883 173.732 233.848 177.067 239.419 174.026C239.419 174.026 238.831 169.161 239.714 166.023C240.616 162.884 245.265 151.938 245.265 151.938C245.265 151.938 241.891 147.053 239.302 146.17C236.732 145.288 233.397 144.719 233.397 144.719L228.571 144.895C228.571 144.895 224.55 145.935 223.647 146.229C222.039 146.739 221.411 147.269 220.587 148.936C219.449 151.232 217.527 161.472 217.919 164.669Z" fill="#E8EFF7"/>
<path fill-rule="evenodd" clip-rule="evenodd" d="M231.617 129.812C231.617 129.812 229.44 133.775 228.086 135.207C226.733 136.619 226.89 137.757 226.89 137.757C226.89 137.757 221.613 131.244 225.379 127.301C229.146 123.358 234.011 124.947 235.423 128.4C236.835 131.833 236.325 136.031 236.325 136.031C236.325 136.031 236.286 132.009 231.617 129.812Z" fill="#021B79"/>
<path fill-rule="evenodd" clip-rule="evenodd" d="M232.617 130.205C232.617 130.205 233.147 127.301 228.595 126.144C224.044 124.987 222.004 130.244 222.553 133.441C223.122 136.639 227.006 144.76 224.888 145.82C222.769 146.879 221.945 144.603 221.945 144.603C221.945 144.603 222.612 148.586 225.535 147.664C228.478 146.742 228.066 140.249 227.634 137.659C227.222 135.07 232.617 130.205 232.617 130.205Z" fill="#021B79"/>
<path fill-rule="evenodd" clip-rule="evenodd" d="M228.719 139.852C228.738 139.891 229.896 142.539 232.858 142.951C232.779 142.637 232.701 142.323 232.623 142.009C232.642 142.009 231.014 142.343 228.719 139.852Z" fill="#606FA6"/>
<path fill-rule="evenodd" clip-rule="evenodd" d="M223.07 159.332C223.07 159.332 223.286 159.784 223.875 161.588C224.483 156.527 224.169 153.879 224.169 153.879C224.11 156.606 223.07 159.332 223.07 159.332ZM224.914 164.923C224.993 165.237 225.052 165.512 225.11 165.708C225.169 165.924 225.209 166.159 225.248 166.395C227.249 165.316 228.681 164.452 228.681 164.452C228.131 164.57 224.914 164.923 224.914 164.923Z" fill="#B7C2CE"/>
<path fill-rule="evenodd" clip-rule="evenodd" d="M228.32 144.994L234.009 149.624L233.421 144.739C233.421 144.739 230.105 144.013 228.32 144.994Z" fill="#B7D5F4"/>
<path fill-rule="evenodd" clip-rule="evenodd" d="M232.357 148.837L234.005 149.622L228.414 144.09L232.357 148.837Z" fill="#DBE6F2"/>
<path fill-rule="evenodd" clip-rule="evenodd" d="M224.58 164.515C225.364 167.752 222.461 175.069 222.461 175.069L228.209 176.854C229.033 177.109 229.896 176.599 230.092 175.756C230.857 172.186 232.662 163.397 232.878 158.512C233.152 152.274 228.621 144.918 228.621 144.918C220.558 146.311 222.755 158.512 222.755 158.512C222.755 158.512 223.049 159.278 223.442 160.494C223.54 160.788 223.638 161.122 223.756 161.475C224.011 162.377 224.305 163.417 224.58 164.515Z" fill="#61A0DF"/>
<path fill-rule="evenodd" clip-rule="evenodd" d="M230.049 175.87C230.069 175.83 230.069 175.791 230.069 175.771C230.834 172.201 232.639 163.413 232.854 158.528C233.129 152.29 228.597 144.934 228.597 144.934C227.067 145.208 225.89 145.856 225.008 146.758C222.222 150.779 223.477 157.645 223.477 157.645C223.477 157.645 223.772 158.41 224.164 159.607C224.262 159.901 224.36 160.235 224.478 160.588C224.753 161.49 225.047 162.53 225.321 163.648C226.106 166.885 223.203 174.202 223.203 174.202L228.951 175.987C229.323 176.085 229.716 176.046 230.049 175.87Z" fill="#8AB9E8"/>
<path fill-rule="evenodd" clip-rule="evenodd" d="M233.989 145.013L233.891 144.738C233.891 144.738 238.03 145.366 240.129 146.425C242.229 147.485 246.25 152.899 246.25 152.899L240.993 159.843C240.993 165.179 241.856 174.674 241.856 174.674L239.443 176.067C238.796 176.439 237.991 175.988 237.972 175.243C237.913 171.633 237.736 163.06 237.658 158.921C237.54 153.586 233.734 144.954 233.734 144.954C233.832 144.934 233.911 144.974 233.989 145.013Z" fill="#61A0DF"/>
<path fill-rule="evenodd" clip-rule="evenodd" d="M234.625 144.855C235.9 145.091 238.588 145.64 240.137 146.405C241.746 147.21 244.453 150.544 245.65 152.094L241.138 158.038C241.138 158.528 241.138 159.039 241.157 159.588L240.981 159.823C240.981 163.805 241.452 170.102 241.707 173.045L239.588 174.261C238.941 174.634 238.136 174.183 238.117 173.437C238.058 169.828 237.881 161.255 237.803 157.116C237.744 153.232 235.724 147.661 234.625 144.855Z" fill="#8AB9E8"/>
<path fill-rule="evenodd" clip-rule="evenodd" d="M241.484 170.026C241.484 170.026 237.522 170.183 236.894 170.026C236.286 169.869 232.166 168.084 231.911 166.318C231.656 164.553 241.465 167.907 241.465 167.907V170.026H241.484Z" fill="#B7D5F4"/>
<path fill-rule="evenodd" clip-rule="evenodd" d="M229.18 164.512L245.266 162.629L238.007 168.553L229.18 164.512Z" fill="#7FACD9"/>
<path fill-rule="evenodd" clip-rule="evenodd" d="M238.007 168.553L229.18 165.551V164.512L238.302 167.454L238.007 168.553Z" fill="#4C88C5"/>
<path fill-rule="evenodd" clip-rule="evenodd" d="M233.85 161.571C233.85 161.571 235.184 161.571 235.929 161.414C236.498 161.296 237.93 161.453 238.303 161.787C238.676 162.12 239.833 164.376 240.049 164.513C240.265 164.651 239.931 164.965 239.559 164.808C239.559 164.808 239.205 165.788 238.323 165.435C237.44 165.063 236.851 164.258 236.4 164.121C235.949 163.984 233.281 163.258 233.281 163.258C233.281 163.258 233.163 161.316 233.85 161.571Z" fill="#B7D5F4"/>
<path fill-rule="evenodd" clip-rule="evenodd" d="M233.109 143.836L236.189 148.681L237.661 149.623L234.208 144.797L233.109 143.836Z" fill="#DBE6F2"/>
<path fill-rule="evenodd" clip-rule="evenodd" d="M233.109 143.836L236.111 148.583L237.386 149.388L233.953 144.562L233.109 143.836Z" fill="#E8EFF7"/>
<path fill-rule="evenodd" clip-rule="evenodd" d="M236.189 148.681L234.012 149.623L233.423 144.738L233.109 143.836L236.189 148.681Z" fill="#DBE6F2"/>
<path fill-rule="evenodd" clip-rule="evenodd" d="M240.992 167.747C240.992 167.747 241.149 169.788 240.992 170.219C240.992 170.219 250.918 169.219 251.84 167.845C252.762 166.453 252.743 164.766 252.743 164.766L240.992 167.747Z" fill="#8AB9E8"/>
<path fill-rule="evenodd" clip-rule="evenodd" d="M238.008 168.553L242.696 151.094L260.548 149.211L255.643 165.277L238.008 168.553Z" fill="#4F8DCB"/>
<path fill-rule="evenodd" clip-rule="evenodd" d="M228.416 144.09L232.359 148.837L230.202 150.76L227.867 145.071L228.416 144.09Z" fill="#DBE6F2"/>
<path fill-rule="evenodd" clip-rule="evenodd" d="M228.42 144.09L232.088 148.523L230.205 150.21L228.008 144.835L228.42 144.09Z" fill="#E8EFF7"/>
<path fill-rule="evenodd" clip-rule="evenodd" d="M223.281 160.076L223.419 160.468C223.517 160.762 223.615 161.096 223.732 161.449C224.498 161.684 231.089 161.213 231.089 161.213C231.089 161.213 225.557 159.919 223.281 160.076Z" fill="#61A0DF"/>
<path fill-rule="evenodd" clip-rule="evenodd" d="M223.652 161.332C224.712 161.254 226.457 161.136 227.87 161.136C230.087 161.136 233.873 161.371 233.873 161.371L233.422 163.745C233.422 163.745 226.713 164.843 223.044 165.098C223.044 165.098 218.199 165.648 217.846 164.942C217.493 164.216 217.963 159.586 218.748 155.408C219.533 151.229 220.337 148.836 221.298 147.541C222.259 146.247 227.34 145.246 227.34 145.246L223.025 159.351C223.025 159.351 222.397 160.606 222.436 161.155C222.436 161.312 222.554 161.391 222.711 161.43C222.828 161.43 223.064 161.391 223.378 161.371L223.652 161.332Z" fill="#8AB9E8"/>
<path fill-rule="evenodd" clip-rule="evenodd" d="M226.323 131.261C228.108 131.261 229.56 129.476 229.56 127.279C229.56 125.082 228.108 123.297 226.323 123.297C224.538 123.297 223.086 125.082 223.086 127.279C223.086 129.476 224.557 131.261 226.323 131.261Z" fill="#021B79"/>
<path fill-rule="evenodd" clip-rule="evenodd" d="M227.238 134.755C227.748 134.343 228.591 134.539 229.121 135.186C229.651 135.834 229.67 136.717 229.16 137.129C228.65 137.541 227.807 137.344 227.277 136.697C226.747 136.05 226.728 135.186 227.238 134.755Z" fill="#B7D5F4"/>
<path fill-rule="evenodd" clip-rule="evenodd" d="M250.701 156.941C251.447 156.784 252.035 157.236 252.035 157.981C252.035 158.707 251.447 159.452 250.701 159.609C249.975 159.766 249.367 159.315 249.367 158.569C249.387 157.844 249.975 157.118 250.701 156.941Z" fill="#4F8DCB"/>
<path fill-rule="evenodd" clip-rule="evenodd" d="M250.705 156.942C251.156 156.844 251.548 156.981 251.784 157.256C251.627 157.844 251.117 158.354 250.509 158.492C250.057 158.59 249.665 158.452 249.43 158.178C249.606 157.589 250.116 157.079 250.705 156.942Z" fill="#4F8DCB"/>
<path fill-rule="evenodd" clip-rule="evenodd" d="M74.8159 23.0292C70.2648 35.6822 67.8519 36.9376 55.2578 34.4855C67.3026 38.919 68.715 41.2337 66.0471 54.4163C70.5983 41.7634 73.0111 40.5079 85.6052 42.96C73.5604 38.5266 72.148 36.2118 74.8159 23.0292ZM115.364 71.0907C112.932 77.839 111.657 78.5256 104.928 77.2112C111.362 79.5849 112.108 80.8207 110.676 87.8632C113.108 81.115 114.383 80.4284 121.112 81.7427C114.697 79.3691 113.952 78.1332 115.364 71.0907ZM108.282 11.8672C105.83 18.7135 104.516 19.3805 97.7089 18.0661C104.222 20.4594 104.987 21.7149 103.535 28.8555C105.987 22.0091 107.302 21.3422 114.109 22.6565C107.596 20.2436 106.831 19.0078 108.282 11.8672Z" fill="white"/>
<defs>
<radialGradient id="paint0_radial_11504_36354" cx="0" cy="0" r="1" gradientUnits="userSpaceOnUse" gradientTransform="translate(102.607 114.354) scale(40.6457 40.6457)">
<stop stop-color="#94A3B2"/>
<stop offset="1" stop-color="#8496A8"/>
</radialGradient>
<radialGradient id="paint1_radial_11504_36354" cx="0" cy="0" r="1" gradientUnits="userSpaceOnUse" gradientTransform="translate(108.955 114.359) scale(38.0911 38.1019)">
<stop stop-color="#94A3B2"/>
<stop offset="1" stop-color="#8496A8"/>
</radialGradient>
<radialGradient id="paint2_radial_11504_36354" cx="0" cy="0" r="1" gradientUnits="userSpaceOnUse" gradientTransform="translate(102.616 114.357) scale(40.6492 40.6493)">
<stop stop-color="#95A3B2"/>
<stop offset="1" stop-color="#8294A6"/>
</radialGradient>
<radialGradient id="paint3_radial_11504_36354" cx="0" cy="0" r="1" gradientUnits="userSpaceOnUse" gradientTransform="translate(102.607 114.345) scale(40.6557 40.6549)">
<stop stop-color="#747F8B"/>
<stop offset="1" stop-color="#696E82"/>
</radialGradient>
<radialGradient id="paint4_radial_11504_36354" cx="0" cy="0" r="1" gradientUnits="userSpaceOnUse" gradientTransform="translate(102.714 114.355) scale(40.6461 40.6461)">
<stop stop-color="#747F8B"/>
<stop offset="1" stop-color="#696E82"/>
</radialGradient>
</defs>
</svg>
