<svg width="50" height="50" viewBox="0 0 50 50" fill="none" xmlns="http://www.w3.org/2000/svg">
<g clip-path="url(#clip0_11442_92724)">
<path d="M39.3954 37.1552C39.2378 37.0184 39.0327 36.9494 38.8246 36.963C38.6164 36.9765 38.422 37.0716 38.2835 37.2276C38.2153 37.3045 38.1631 37.3942 38.1298 37.4914C38.0966 37.5887 38.0829 37.6916 38.0897 37.7941C38.0965 37.8967 38.1236 37.9969 38.1694 38.0889C38.2153 38.1809 38.2789 38.2629 38.3566 38.3301L40.8897 40.5327C41.0473 40.6693 41.2524 40.7384 41.4605 40.7248C41.6686 40.7112 41.863 40.6162 42.0015 40.4602C42.0697 40.3833 42.122 40.2936 42.1553 40.1964C42.1885 40.0992 42.2022 39.9963 42.1954 39.8937C42.1886 39.7912 42.1615 39.691 42.1157 39.599C42.0698 39.507 42.0062 39.425 41.9285 39.3578L39.3954 37.1552ZM41.6168 34.3845L39.8578 34.6607C39.6625 34.6901 39.4856 34.7924 39.3627 34.947C39.2398 35.1016 39.1801 35.2971 39.1955 35.494C39.211 35.6909 39.3005 35.8746 39.4461 36.0082C39.5916 36.1417 39.7823 36.2151 39.9798 36.2137C40.0214 36.2137 40.063 36.2105 40.1041 36.2041L41.863 35.928C41.965 35.9125 42.063 35.8771 42.1512 35.8236C42.2394 35.7701 42.3162 35.6997 42.3771 35.6165C42.4379 35.5332 42.4817 35.4387 42.5059 35.3384C42.5301 35.2381 42.5342 35.134 42.5179 35.0321C42.5017 34.9303 42.4654 34.8326 42.4112 34.7448C42.3571 34.6571 42.286 34.5809 42.2023 34.5207C42.1185 34.4604 42.0236 34.4174 41.9232 34.3941C41.8227 34.3707 41.7186 34.3675 41.6168 34.3845ZM37.7923 39.2059C37.7613 39.0004 37.6504 38.8155 37.4837 38.6914C37.317 38.5673 37.108 38.5141 36.9023 38.5434C36.6965 38.5726 36.5107 38.682 36.3853 38.8477C36.2598 39.0134 36.2049 39.222 36.2326 39.4279L36.5346 41.5173C36.5623 41.7039 36.6562 41.8743 36.7992 41.9973C36.9421 42.1204 37.1246 42.1879 37.3133 42.1875C37.3511 42.1875 37.3889 42.1848 37.4264 42.1795C37.5284 42.1655 37.6266 42.1315 37.7154 42.0794C37.8042 42.0273 37.8819 41.9582 37.944 41.8761C38.006 41.7939 38.0512 41.7003 38.077 41.6006C38.1028 41.501 38.1087 41.3972 38.0943 41.2952L37.7923 39.2059ZM12.1038 37.2276C11.9654 37.0714 11.771 36.9762 11.5627 36.9626C11.3545 36.9491 11.1493 37.0182 10.9918 37.1551L8.45859 39.3578C8.3809 39.425 8.31734 39.507 8.27157 39.599C8.2258 39.691 8.19874 39.7912 8.19196 39.8938C8.18518 39.9963 8.19881 40.0992 8.23206 40.1964C8.26531 40.2936 8.31753 40.3833 8.38568 40.4602C8.52423 40.6162 8.71866 40.7112 8.92682 40.7248C9.13499 40.7384 9.34012 40.6693 9.49773 40.5327L12.0309 38.3301C12.1086 38.2628 12.1722 38.1808 12.218 38.0888C12.2637 37.9968 12.2908 37.8966 12.2976 37.7941C12.3043 37.6915 12.2907 37.5887 12.2575 37.4914C12.2242 37.3942 12.172 37.3045 12.1038 37.2276ZM10.2827 36.2041C10.3239 36.2105 10.3654 36.2137 10.407 36.2137C10.6045 36.2152 10.7952 36.1418 10.9408 36.0083C11.0863 35.8748 11.1758 35.6911 11.1914 35.4942C11.2069 35.2973 11.1472 35.1018 11.0244 34.9472C10.9015 34.7925 10.7247 34.6902 10.5294 34.6607L8.77057 34.3845C8.66883 34.3674 8.5647 34.3706 8.4642 34.394C8.36369 34.4173 8.2688 34.4603 8.185 34.5205C8.1012 34.5807 8.03015 34.6568 7.97594 34.7446C7.92173 34.8324 7.88544 34.9301 7.86916 35.0319C7.85289 35.1338 7.85694 35.2379 7.8811 35.3382C7.90525 35.4385 7.94903 35.5331 8.00991 35.6164C8.07078 35.6997 8.14755 35.7701 8.23578 35.8236C8.32401 35.8771 8.42196 35.9125 8.52397 35.928L10.2827 36.2041ZM13.4866 38.5437C13.2804 38.5133 13.0707 38.5661 12.9035 38.6903C12.7362 38.8146 12.6252 39.0002 12.5948 39.2063L12.2929 41.2956C12.2786 41.3976 12.2846 41.5013 12.3104 41.601C12.3363 41.7006 12.3815 41.7942 12.4436 41.8763C12.5057 41.9584 12.5834 42.0274 12.6722 42.0795C12.761 42.1315 12.8592 42.1655 12.9612 42.1795C12.9985 42.1848 13.0362 42.1875 13.0739 42.1875C13.2627 42.1879 13.4453 42.1204 13.5883 41.9972C13.7314 41.8741 13.8253 41.7036 13.853 41.5169L14.1548 39.4276C14.1691 39.3256 14.1632 39.2219 14.1373 39.1222C14.1115 39.0226 14.0662 38.929 14.0041 38.8469C13.9421 38.7648 13.8644 38.6958 13.7756 38.6437C13.6868 38.5917 13.5885 38.5577 13.4866 38.5437ZM41.346 22.1069C41.346 13.3633 34.1 6.25 25.1936 6.25C16.2872 6.25 9.04122 13.3633 9.04122 22.1069C9.04524 25.931 10.4463 29.6218 12.9808 32.4852L13.2834 32.8278C15.6274 35.4782 18.2841 38.4823 18.7916 41.9174C18.8704 42.4266 19.1284 42.8909 19.5191 43.2269C19.9098 43.5628 20.4075 43.7483 20.9228 43.75H29.4629C29.979 43.7486 30.4775 43.5627 30.8685 43.2259C31.2594 42.889 31.517 42.4234 31.5947 41.9132C31.9917 39.1869 33.7126 36.2968 36.8558 33.078C39.735 30.1524 41.3478 26.2117 41.346 22.1069ZM30.035 41.6901C30.0147 41.8276 29.9459 41.9534 29.841 42.0446C29.736 42.1358 29.602 42.1865 29.4629 42.1875H20.9228C20.7839 42.1863 20.65 42.1357 20.5452 42.0446C20.4404 41.9536 20.3715 41.8281 20.3508 41.6908C19.7757 37.7991 16.956 34.6107 14.4684 31.7974L14.1667 31.456C11.8832 28.8767 10.6209 25.5518 10.6171 22.1069C10.6171 14.225 17.1561 7.8125 25.1936 7.8125C33.2313 7.8125 39.7701 14.225 39.7701 22.1069C39.7715 25.805 38.3182 29.3553 35.724 31.9908C32.3418 35.4546 30.4813 38.6269 30.035 41.6901Z" fill="url(#paint0_linear_11442_92724)"/>
<path d="M19.8656 25.8214L19.7198 25.6593C18.6835 24.5154 18.1077 23.0281 18.1037 21.4845C18.1037 19.0301 19.5337 16.9626 21.9292 15.9536C22.0242 15.914 22.1103 15.8561 22.1828 15.7831C22.2552 15.7101 22.3124 15.6234 22.3512 15.5282C22.39 15.4329 22.4095 15.3309 22.4087 15.2281C22.4078 15.1252 22.3866 15.0236 22.3463 14.929C22.2634 14.7377 22.1083 14.5869 21.9147 14.5095C21.7212 14.432 21.5049 14.4342 21.3129 14.5154C18.3615 15.7587 16.5279 18.4293 16.5279 21.4845C16.532 23.4121 17.25 25.2699 18.5434 26.6992L18.6904 26.8625C19.7884 28.0809 21.0328 29.4622 21.2606 30.9747C21.2892 31.1605 21.3835 31.3298 21.5263 31.452C21.6691 31.5742 21.8509 31.6412 22.0389 31.6408C22.0781 31.6408 22.1174 31.638 22.1562 31.6324C22.2581 31.6177 22.3561 31.5831 22.4446 31.5305C22.5332 31.478 22.6104 31.4084 22.672 31.3259C22.7336 31.2434 22.7783 31.1496 22.8035 31.0498C22.8288 30.95 22.8341 30.8462 22.8191 30.7443C22.5219 28.7694 21.1107 27.2035 19.8656 25.8214ZM29.1346 45.3126H21.2554C21.1522 45.3118 21.0499 45.3313 20.9544 45.3702C20.8589 45.4091 20.772 45.4665 20.6987 45.5391C20.6255 45.6118 20.5673 45.6982 20.5277 45.7934C20.488 45.8886 20.4676 45.9907 20.4676 46.0939C20.4676 46.197 20.488 46.2992 20.5277 46.3944C20.5673 46.4896 20.6255 46.576 20.6987 46.6486C20.772 46.7213 20.8589 46.7787 20.9544 46.8176C21.0499 46.8564 21.1522 46.876 21.2554 46.8751H29.1346C29.2377 46.876 29.34 46.8564 29.4356 46.8176C29.5311 46.7787 29.618 46.7213 29.6913 46.6486C29.7645 46.576 29.8226 46.4896 29.8623 46.3944C29.902 46.2992 29.9224 46.197 29.9224 46.0939C29.9224 45.9907 29.902 45.8886 29.8623 45.7934C29.8226 45.6982 29.7645 45.6118 29.6913 45.5391C29.618 45.4665 29.5311 45.4091 29.4356 45.3702C29.34 45.3313 29.2377 45.3118 29.1346 45.3126ZM27.5587 48.4376H22.8312C22.7281 48.4368 22.6258 48.4563 22.5303 48.4952C22.4347 48.5341 22.3478 48.5915 22.2746 48.6641C22.2013 48.7368 22.1432 48.8232 22.1035 48.9184C22.0638 49.0136 22.0434 49.1157 22.0434 49.2189C22.0434 49.322 22.0638 49.4242 22.1035 49.5194C22.1432 49.6146 22.2013 49.701 22.2746 49.7736C22.3478 49.8463 22.4347 49.9037 22.5303 49.9426C22.6258 49.9814 22.7281 50.001 22.8312 50.0001H27.5587C27.6619 50.001 27.7642 49.9814 27.8597 49.9426C27.9553 49.9037 28.0422 49.8463 28.1154 49.7736C28.1887 49.701 28.2468 49.6146 28.2865 49.5194C28.3261 49.4242 28.3466 49.322 28.3466 49.2189C28.3466 49.1157 28.3261 49.0136 28.2865 48.9184C28.2468 48.8232 28.1887 48.7368 28.1154 48.6641C28.0422 48.5915 27.9553 48.5341 27.8597 48.4952C27.7642 48.4563 27.6619 48.4368 27.5587 48.4376ZM24.801 4.65063C25.0091 4.65151 25.209 4.56969 25.3568 4.42318C25.5045 4.27667 25.5881 4.07747 25.589 3.86938V0.781389C25.5872 0.573555 25.5034 0.374822 25.3559 0.22847C25.2083 0.0821177 25.0089 0 24.801 0C24.5932 0 24.3938 0.0821177 24.2462 0.22847C24.0986 0.374822 24.0148 0.573555 24.0131 0.781389V3.86938C24.014 4.07747 24.0975 4.27667 24.2453 4.42318C24.393 4.56969 24.5929 4.6515 24.801 4.65063ZM16.793 5.39603C16.8662 5.59114 17.0137 5.74936 17.2032 5.83619C17.3926 5.92301 17.6088 5.9314 17.8044 5.85951C17.9012 5.82468 17.9901 5.77104 18.066 5.70168C18.142 5.63232 18.2035 5.54862 18.2469 5.45539C18.2904 5.36217 18.3149 5.26127 18.3192 5.1585C18.3235 5.05574 18.3074 4.95314 18.2718 4.85663L17.195 1.95479C17.1217 1.75965 16.9743 1.6014 16.7848 1.51457C16.5953 1.42774 16.3791 1.41937 16.1835 1.49131C16.0867 1.52614 15.9978 1.57979 15.9219 1.64915C15.8459 1.71851 15.7845 1.80221 15.741 1.89543C15.6976 1.98866 15.673 2.08956 15.6687 2.19232C15.6644 2.29508 15.6805 2.39768 15.7161 2.49419L16.793 5.39603ZM10.5396 9.25154C10.6756 9.40965 10.8684 9.50781 11.0763 9.52473C11.2842 9.54165 11.4903 9.47598 11.6501 9.34195C11.7289 9.27597 11.7939 9.19501 11.8412 9.10375C11.8885 9.01249 11.9172 8.91275 11.9256 8.81031C11.9341 8.70787 11.9221 8.60477 11.8905 8.50698C11.8588 8.4092 11.808 8.31867 11.7411 8.24065L9.71722 5.87514C9.58115 5.71715 9.38834 5.61908 9.18051 5.60216C8.97268 5.58524 8.76655 5.65083 8.60671 5.78473C8.52789 5.85071 8.46296 5.93167 8.41566 6.02293C8.36836 6.11419 8.33965 6.21393 8.33118 6.31637C8.32272 6.41881 8.33467 6.52191 8.36634 6.6197C8.39801 6.71748 8.44878 6.80801 8.5157 6.88603L10.5396 9.25154ZM7.57393 13.6133L4.84718 12.0691C4.66577 11.9665 4.45126 11.9395 4.25007 11.9939C4.04889 12.0483 3.87723 12.1797 3.77225 12.3598C3.72099 12.4489 3.68791 12.5473 3.67493 12.6493C3.66194 12.7513 3.66932 12.8548 3.69661 12.9539C3.72391 13.053 3.7706 13.1458 3.83396 13.2267C3.89733 13.3077 3.97613 13.3753 4.06579 13.4256L6.79253 14.9698C6.97389 15.0726 7.18848 15.0997 7.38973 15.0453C7.59098 14.9909 7.76264 14.8593 7.86747 14.6791C7.91873 14.59 7.95181 14.4916 7.96479 14.3896C7.97777 14.2876 7.9704 14.184 7.9431 14.0849C7.9158 13.9858 7.86912 13.8931 7.80575 13.8121C7.74238 13.7312 7.66359 13.6636 7.57393 13.6133ZM5.97538 20.3241L2.87467 19.7878C2.7733 19.7693 2.66929 19.7711 2.56862 19.793C2.46794 19.8149 2.37259 19.8565 2.28805 19.9154C2.2035 19.9742 2.13143 20.0493 2.07598 20.1361C2.02053 20.2229 1.9828 20.3199 1.96495 20.4214C1.9471 20.5228 1.94948 20.6268 1.97197 20.7274C1.99445 20.8279 2.0366 20.923 2.09597 21.0072C2.15534 21.0914 2.23078 21.1631 2.31794 21.218C2.40509 21.2729 2.50225 21.3101 2.60383 21.3274L5.70453 21.8637C5.74961 21.8713 5.79523 21.8751 5.84093 21.8751C6.03738 21.8766 6.22718 21.804 6.37247 21.6718C6.51777 21.5396 6.60788 21.3575 6.62485 21.1617C6.64181 20.966 6.58438 20.7711 6.464 20.6158C6.34363 20.4606 6.16915 20.3564 5.97538 20.3241ZM48.0332 20.4233C47.9958 20.2184 47.879 20.0367 47.7082 19.9176C47.5374 19.7986 47.3264 19.7519 47.1213 19.7877L44.0208 20.324C43.827 20.3563 43.6524 20.4605 43.532 20.6158C43.4116 20.7711 43.3541 20.9661 43.3711 21.1618C43.3881 21.3576 43.4783 21.5398 43.6237 21.672C43.7691 21.8042 43.959 21.8768 44.1555 21.8751C44.2011 21.8751 44.2467 21.8712 44.2917 21.8637L47.3922 21.3274C47.4937 21.3102 47.5908 21.2732 47.678 21.2185C47.7652 21.1637 47.8408 21.0923 47.9003 21.0083C47.9598 20.9243 48.0022 20.8294 48.025 20.729C48.0478 20.6286 48.0506 20.5247 48.0332 20.4233ZM45.8294 12.3598C45.7247 12.1795 45.553 12.0478 45.3517 11.9934C45.1505 11.9389 44.9358 11.9662 44.7545 12.0691L42.028 13.6133C41.9383 13.6636 41.8596 13.7312 41.7963 13.8122C41.7329 13.8932 41.6863 13.9859 41.659 14.085C41.6318 14.1841 41.6244 14.2877 41.6374 14.3896C41.6504 14.4916 41.6835 14.59 41.7348 14.6791C41.8396 14.8593 42.0113 14.9909 42.2125 15.0453C42.4138 15.0997 42.6284 15.0726 42.8097 14.9698L45.5363 13.4256C45.6259 13.3752 45.7047 13.3076 45.768 13.2266C45.8313 13.1457 45.878 13.0529 45.9052 12.9538C45.9325 12.8547 45.9398 12.7512 45.9268 12.6492C45.9138 12.5472 45.8807 12.4489 45.8294 12.3598ZM38.4611 9.52735C38.5754 9.5276 38.6883 9.50308 38.7921 9.45546C38.8959 9.40784 38.9881 9.33827 39.0625 9.25154L41.0865 6.88605C41.1534 6.80799 41.2041 6.71745 41.2357 6.61966C41.2673 6.52188 41.2792 6.4188 41.2707 6.31638C41.2623 6.21396 41.2335 6.11424 41.1863 6.02298C41.139 5.93173 41.0741 5.85076 40.9953 5.78475C40.8355 5.65075 40.6293 5.5851 40.4214 5.60202C40.2135 5.61894 40.0207 5.71707 39.8846 5.87516L37.8606 8.24065C37.7937 8.31871 37.743 8.40925 37.7114 8.50704C37.6798 8.60482 37.6679 8.7079 37.6764 8.81032C37.6848 8.91274 37.7135 9.01246 37.7608 9.10372C37.8081 9.19497 37.873 9.27594 37.9518 9.34195C38.0944 9.46187 38.2748 9.52754 38.4611 9.52735ZM31.7977 5.85951C31.9933 5.9314 32.2094 5.92301 32.3989 5.83619C32.5884 5.74936 32.7358 5.59114 32.8091 5.39603L33.886 2.49419C33.9216 2.39768 33.9377 2.29508 33.9334 2.1923C33.9292 2.08952 33.9046 1.98861 33.8612 1.89537C33.8177 1.80214 33.7562 1.71843 33.6803 1.64908C33.6043 1.57973 33.5153 1.52611 33.4185 1.49131C33.2229 1.41948 33.0068 1.42788 32.8173 1.5147C32.6279 1.60152 32.4804 1.75971 32.4071 1.95479L31.3302 4.85663C31.2946 4.95314 31.2785 5.05575 31.2828 5.15852C31.287 5.2613 31.3116 5.36222 31.355 5.45546C31.3985 5.54869 31.46 5.6324 31.536 5.70175C31.6119 5.7711 31.7009 5.82472 31.7977 5.85951Z" fill="url(#paint1_linear_11442_92724)"/>
</g>
<defs>
<linearGradient id="paint0_linear_11442_92724" x1="7.85937" y1="35.5" x2="43.4305" y2="20.3729" gradientUnits="userSpaceOnUse">
<stop stop-color="#0575E6"/>
<stop offset="1" stop-color="#021B79"/>
</linearGradient>
<linearGradient id="paint1_linear_11442_92724" x1="1.95312" y1="39.0001" x2="49.2864" y2="18.929" gradientUnits="userSpaceOnUse">
<stop stop-color="#0575E6"/>
<stop offset="1" stop-color="#021B79"/>
</linearGradient>
<clipPath id="clip0_11442_92724">
<rect width="50" height="50" fill="white"/>
</clipPath>
</defs>
</svg>
