<svg width="50" height="50" viewBox="0 0 50 50" fill="none" xmlns="http://www.w3.org/2000/svg">
<path d="M19.1836 24.0154H30.8242C30.9796 24.0154 31.1287 23.9537 31.2385 23.8438C31.3484 23.7339 31.4102 23.5849 31.4102 23.4295V19.0256C31.4102 16.9522 29.2188 15.7053 27.9211 15.1455C28.4155 14.584 28.7374 13.8918 28.8483 13.1519C28.9591 12.412 28.8542 11.6558 28.5461 10.974C28.238 10.2922 27.7398 9.71379 27.1112 9.30806C26.4826 8.90233 25.7503 8.68652 25.0021 8.68652C24.254 8.68652 23.5217 8.90233 22.8931 9.30806C22.2645 9.71379 21.7663 10.2922 21.4582 10.974C21.1501 11.6558 21.0452 12.412 21.156 13.1519C21.2669 13.8918 21.5888 14.584 22.0832 15.1455C20.7875 15.7029 18.5977 16.9529 18.5977 19.0256V23.4295C18.5977 23.5849 18.6594 23.7339 18.7693 23.8438C18.8792 23.9537 19.0282 24.0154 19.1836 24.0154ZM25.0039 9.8674C25.5413 9.8674 26.0667 10.0268 26.5135 10.3253C26.9603 10.6239 27.3086 11.0483 27.5143 11.5448C27.7199 12.0413 27.7737 12.5876 27.6689 13.1147C27.564 13.6418 27.3053 14.1259 26.9252 14.5059C26.5452 14.8859 26.0611 15.1447 25.534 15.2496C25.0069 15.3544 24.4606 15.3006 23.9641 15.0949C23.4676 14.8893 23.0432 14.541 22.7446 14.0942C22.4461 13.6473 22.2867 13.122 22.2867 12.5846C22.2875 11.8642 22.5741 11.1735 23.0835 10.6642C23.5929 10.1548 24.2835 9.86822 25.0039 9.8674ZM19.7695 19.0256C19.7695 17.4658 22.0289 16.3693 23.1352 15.992C23.7073 16.3071 24.3498 16.4726 25.003 16.473C25.6562 16.4735 26.2989 16.309 26.8715 15.9947C27.6277 16.2635 30.2414 17.319 30.2414 19.0256V22.8436H19.7695V19.0256ZM12.8742 32.4338C13.3686 31.8722 13.6906 31.1799 13.8014 30.4399C13.9123 29.7 13.8073 28.9437 13.4992 28.2619C13.191 27.5801 12.6928 27.0016 12.0641 26.5958C11.4355 26.1901 10.7031 25.9743 9.95488 25.9743C9.20666 25.9743 8.47431 26.1901 7.84566 26.5958C7.21701 27.0016 6.71873 27.5801 6.41059 28.2619C6.10244 28.9437 5.9975 29.7 6.10835 30.4399C6.2192 31.1799 6.54113 31.8722 7.03555 32.4338C5.73828 32.992 3.54688 34.2412 3.54688 36.3135V40.7182C3.54688 40.8736 3.60861 41.0226 3.71849 41.1325C3.82838 41.2424 3.97741 41.3041 4.13281 41.3041H15.7766C15.932 41.3041 16.081 41.2424 16.1909 41.1325C16.3008 41.0226 16.3625 40.8736 16.3625 40.7182V36.3135C16.3625 34.2412 14.1715 32.992 12.8742 32.4338ZM9.95508 27.1557C10.4925 27.1558 11.0177 27.3152 11.4645 27.6138C11.9113 27.9124 12.2595 28.3367 12.4651 28.8332C12.6707 29.3297 12.7245 29.876 12.6196 30.4031C12.5148 30.9301 12.256 31.4142 11.876 31.7942C11.496 32.1742 11.0119 32.433 10.4849 32.5378C9.95783 32.6427 9.41153 32.5889 8.91505 32.3833C8.41856 32.1777 7.99419 31.8295 7.69559 31.3827C7.39699 30.9359 7.23758 30.4106 7.2375 29.8733C7.23822 29.1527 7.52477 28.4619 8.03426 27.9524C8.54375 27.4429 9.23455 27.1564 9.95508 27.1557ZM15.1895 40.1326H4.71875V36.3135C4.71875 34.7549 6.97695 33.6592 8.08359 33.2803C8.65666 33.5961 9.30035 33.7617 9.95469 33.7617C10.609 33.7617 11.2527 33.5961 11.8258 33.2803C12.9324 33.6592 15.1902 34.7549 15.1902 36.3135L15.1895 40.1326ZM42.9727 32.4338C43.4669 31.8722 43.7887 31.18 43.8995 30.4401C44.0103 29.7003 43.9053 28.9442 43.5972 28.2625C43.289 27.5807 42.7908 27.0024 42.1622 26.5967C41.5337 26.191 40.8014 25.9752 40.0533 25.9752C39.3052 25.9752 38.573 26.191 37.9444 26.5967C37.3158 27.0024 36.8176 27.5807 36.5095 28.2625C36.2013 28.9442 36.0964 29.7003 36.2071 30.4401C36.3179 31.18 36.6397 31.8722 37.134 32.4338C35.8371 32.992 33.6457 34.2412 33.6457 36.3135V40.7182C33.6457 40.8736 33.7074 41.0226 33.8173 41.1325C33.9272 41.2424 34.0762 41.3041 34.2316 41.3041H45.875C46.0304 41.3041 46.1794 41.2424 46.2893 41.1325C46.3992 41.0226 46.4609 40.8736 46.4609 40.7182V36.3135C46.4609 34.2412 44.2695 32.992 42.9727 32.4338ZM40.0531 27.1553C40.5905 27.1553 41.1158 27.3146 41.5627 27.6132C42.0095 27.9117 42.3578 28.3361 42.5634 28.8326C42.7691 29.329 42.8229 29.8754 42.7181 30.4024C42.6133 30.9295 42.3546 31.4137 41.9746 31.7937C41.5946 32.1737 41.1105 32.4325 40.5835 32.5374C40.0564 32.6423 39.5101 32.5885 39.0136 32.3829C38.5171 32.1773 38.0927 31.8291 37.7941 31.3823C37.4954 30.9356 37.336 30.4103 37.3359 29.8729C37.3369 29.1526 37.6234 28.462 38.1327 27.9527C38.642 27.4433 39.3324 27.1567 40.0527 27.1557L40.0531 27.1553ZM45.2875 40.1322H34.8172V36.3135C34.8172 34.7549 37.075 33.6592 38.1816 33.2803C38.7547 33.5961 39.3984 33.7617 40.0527 33.7617C40.7071 33.7617 41.3508 33.5961 41.9238 33.2803C43.0305 33.6592 45.2887 34.7549 45.2887 36.3135L45.2875 40.1322ZM31.9316 36.1838L25.5898 32.3315V25.1006C25.5898 24.9452 25.5281 24.7962 25.4182 24.6863C25.3083 24.5764 25.1593 24.5147 25.0039 24.5147C24.8485 24.5147 24.6995 24.5764 24.5896 24.6863C24.4797 24.7962 24.418 24.9452 24.418 25.1006V32.3205L18.0586 36.1838C17.9927 36.2237 17.9353 36.2762 17.8897 36.3383C17.8441 36.4004 17.8112 36.4708 17.7928 36.5457C17.7744 36.6205 17.771 36.6982 17.7826 36.7743C17.7943 36.8505 17.8208 36.9236 17.8607 36.9895C17.9007 37.0554 17.9531 37.1127 18.0152 37.1583C18.0773 37.2039 18.1478 37.2369 18.2226 37.2552C18.2974 37.2736 18.3751 37.2771 18.4513 37.2654C18.5274 37.2538 18.6005 37.2272 18.6664 37.1873L24.9945 33.3428L31.3227 37.1873C31.3884 37.2285 31.4618 37.2562 31.5383 37.2688C31.6149 37.2814 31.6933 37.2787 31.7688 37.2608C31.8443 37.2429 31.9155 37.2101 31.9783 37.1645C32.041 37.1188 32.0941 37.0611 32.1344 36.9948C32.1747 36.9284 32.2014 36.8548 32.2129 36.778C32.2245 36.7013 32.2207 36.623 32.2018 36.5477C32.1828 36.4724 32.1491 36.4017 32.1026 36.3396C32.0561 36.2774 31.9977 36.2251 31.9309 36.1858L31.9316 36.1838Z" fill="url(#paint0_linear_11442_92744)"/>
<defs>
<linearGradient id="paint0_linear_11442_92744" x1="3.54687" y1="34.1282" x2="41.6026" y2="11.0966" gradientUnits="userSpaceOnUse">
<stop stop-color="#0575E6"/>
<stop offset="1" stop-color="#021B79"/>
</linearGradient>
</defs>
</svg>
