<svg width="50" height="50" viewBox="0 0 50 50" fill="none" xmlns="http://www.w3.org/2000/svg">
<path d="M37.7878 47.0139H32.6391C32.4599 47.0139 32.2881 46.9427 32.1614 46.816C32.0347 46.6893 31.9635 46.5175 31.9635 46.3383V42.6964C28.039 43.6025 23.9529 43.5399 20.0581 42.5139V46.3383C20.0581 46.5175 19.9869 46.6893 19.8602 46.816C19.7334 46.9427 19.5616 47.0139 19.3824 47.0139H14.2337C14.0545 47.0139 13.8827 46.9427 13.756 46.816C13.6293 46.6893 13.5581 46.5175 13.5581 46.3383V39.5815C9.34185 36.6896 6.92969 32.541 6.92969 28.1423C6.92969 21.818 11.7946 16.2504 19.3148 13.9531C19.4013 13.9209 19.4934 13.9067 19.5856 13.9114C19.6777 13.9161 19.7679 13.9396 19.8506 13.9806C19.9333 14.0215 20.0068 14.0789 20.0665 14.1493C20.1261 14.2197 20.1707 14.3015 20.1975 14.3898C20.2243 14.4781 20.2328 14.571 20.2223 14.6627C20.2119 14.7543 20.1828 14.8429 20.1368 14.9229C20.0908 15.0029 20.0289 15.0726 19.955 15.1278C19.881 15.183 19.7965 15.2224 19.7067 15.2437C12.7675 17.345 8.28104 22.4058 8.28104 28.122C8.28104 32.1761 10.5851 35.9937 14.6054 38.6356C14.6993 38.6974 14.7763 38.7817 14.8293 38.8808C14.8824 38.9799 14.91 39.0907 14.9094 39.2031V45.6626H18.7067V41.6085C18.7075 41.5031 18.733 41.3992 18.7811 41.3054C18.8292 41.2115 18.8986 41.1302 18.9837 41.068C19.069 41.0051 19.1679 40.9632 19.2723 40.9456C19.3768 40.928 19.4839 40.9352 19.5851 40.9666C23.7725 42.2353 28.2315 42.3055 32.4567 41.1693C32.5592 41.1405 32.6671 41.1363 32.7715 41.1571C32.8759 41.1779 32.974 41.2231 33.0576 41.2889C33.1413 41.3548 33.2082 41.4395 33.2529 41.5361C33.2976 41.6328 33.3188 41.7386 33.3148 41.845V45.6761H37.1121V39.6626C37.1121 39.5453 37.1427 39.4301 37.2007 39.3282C37.2588 39.2263 37.3423 39.1413 37.4432 39.0815C40.2691 37.5 42.4856 35.0195 43.7405 32.0342C43.7763 31.9389 43.8332 31.853 43.9069 31.7828C43.9806 31.7126 44.0693 31.6599 44.1662 31.6288L47.2945 30.6423V25.6018L44.1662 24.6153C44.0693 24.5841 43.9806 24.5315 43.9069 24.4613C43.8332 24.3911 43.7763 24.3052 43.7405 24.2099C42.9832 22.3134 41.7968 20.6181 40.2743 19.2572C40.2011 19.1896 40.1438 19.1067 40.1065 19.0145C40.0691 18.9222 40.0526 18.8228 40.0581 18.7234L40.3891 12.4531L36.0716 15.8315C35.9826 15.9504 35.857 16.0366 35.7141 16.0769C35.5712 16.1172 35.419 16.1093 35.281 16.0545C33.9763 15.4864 32.6183 15.0495 31.227 14.7504C31.0526 14.7131 30.9 14.6083 30.8026 14.459C30.7051 14.3096 30.6707 14.1278 30.7067 13.9531C30.7252 13.8661 30.7606 13.7835 30.8111 13.7102C30.8615 13.6369 30.9259 13.5743 31.0006 13.5259C31.0754 13.4776 31.1589 13.4445 31.2464 13.4285C31.334 13.4125 31.4238 13.414 31.5108 13.4328C32.8504 13.7156 34.162 14.1182 35.4297 14.6356L40.754 10.4599C40.8561 10.3789 40.9794 10.3291 41.1091 10.3166C41.2388 10.3041 41.3694 10.3293 41.485 10.3893C41.6007 10.4493 41.6966 10.5415 41.7611 10.6547C41.8256 10.7679 41.856 10.8973 41.8486 11.0274L41.45 18.4599C42.9342 19.8476 44.1125 21.5299 44.9094 23.3991L48.1729 24.4599C48.3097 24.5029 48.4292 24.5882 48.5142 24.7036C48.5992 24.819 48.6453 24.9584 48.6459 25.1018V31.1423C48.6453 31.2856 48.5992 31.4251 48.5142 31.5405C48.4292 31.6558 48.3097 31.7412 48.1729 31.7842L44.8824 32.8247C43.5409 35.8381 41.2984 38.3616 38.4635 40.0477V46.3383C38.4635 46.5175 38.3923 46.6893 38.2656 46.816C38.1389 46.9427 37.967 47.0139 37.7878 47.0139Z" fill="url(#paint0_linear_11442_92730)"/>
<path d="M7.03558 28.8179C6.02883 28.8179 4.0491 28.649 2.7045 27.4665C2.26383 27.0629 1.9151 26.5692 1.68194 26.0189C1.44879 25.4687 1.33665 24.8747 1.35315 24.2773C1.35315 24.0981 1.42434 23.9263 1.55105 23.7996C1.67777 23.6729 1.84963 23.6017 2.02883 23.6017C2.20803 23.6017 2.37989 23.6729 2.5066 23.7996C2.63332 23.9263 2.7045 24.0981 2.7045 24.2773C2.68785 24.6864 2.7595 25.0943 2.91457 25.4732C3.06963 25.8522 3.30449 26.1932 3.60315 26.4733C4.75856 27.5003 6.83964 27.5476 7.54234 27.4733C7.63115 27.464 7.72093 27.4723 7.80649 27.4979C7.89205 27.5235 7.97168 27.5658 8.0408 27.6223C8.10991 27.6789 8.16713 27.7486 8.20915 27.8274C8.25116 27.9062 8.27714 27.9925 8.28558 28.0814C8.30252 28.2597 8.24798 28.4374 8.13396 28.5755C8.01993 28.7136 7.85575 28.8008 7.67748 28.8179C7.46369 28.8303 7.24937 28.8303 7.03558 28.8179ZM38.7113 23.7368H38.2045C38.0253 23.7368 37.8534 23.6656 37.7267 23.5389C37.6 23.4122 37.5288 23.2403 37.5288 23.0611C37.5288 22.8819 37.6 22.7101 37.7267 22.5834C37.8534 22.4566 38.0253 22.3855 38.2045 22.3855H38.7113C38.8905 22.3855 39.0623 22.4566 39.189 22.5834C39.3157 22.7101 39.3869 22.8819 39.3869 23.0611C39.3869 23.2403 39.3157 23.4122 39.189 23.5389C39.0623 23.6656 38.8905 23.7368 38.7113 23.7368ZM22.8329 17.8652C22.7524 17.8643 22.6726 17.8506 22.5964 17.8246C20.9481 17.2078 19.5624 16.0423 18.6721 14.5241C17.7819 13.0059 17.4415 11.2275 17.7081 9.4879C17.9747 7.74825 18.832 6.15341 20.136 4.97144C21.44 3.78947 23.1111 3.09243 24.8685 2.99749C26.6259 2.90255 28.3624 3.41549 29.7861 4.4501C31.2099 5.48471 32.234 6.9779 32.6865 8.6787C33.1389 10.3795 32.9921 12.1842 32.2706 13.7895C31.5491 15.3948 30.297 16.7027 28.7248 17.4936C28.6454 17.5335 28.5589 17.5574 28.4702 17.5639C28.3816 17.5704 28.2925 17.5594 28.2081 17.5314C28.1237 17.5035 28.0457 17.4593 27.9784 17.4012C27.9111 17.3431 27.8559 17.2723 27.816 17.1929C27.7761 17.1135 27.7522 17.027 27.7457 16.9383C27.7392 16.8497 27.7502 16.7606 27.7781 16.6762C27.8345 16.5058 27.9563 16.3647 28.1167 16.2841C29.4139 15.6332 30.4475 14.5555 31.0436 13.2322C31.6397 11.9089 31.7619 10.4206 31.3898 9.01778C31.0177 7.61491 30.1739 6.38295 29.0003 5.52904C27.8267 4.67513 26.3949 4.25134 24.9456 4.32895C23.4963 4.40656 22.1179 4.98082 21.0422 5.95517C19.9665 6.92953 19.2591 8.24456 19.039 9.67914C18.8188 11.1137 19.0993 12.5804 19.8333 13.8325C20.5673 15.0845 21.71 16.0457 23.0694 16.5544C23.2192 16.6088 23.3451 16.7144 23.4246 16.8526C23.5041 16.9907 23.5322 17.1526 23.5039 17.3095C23.4756 17.4664 23.3927 17.6082 23.2699 17.7099C23.1471 17.8116 22.9923 17.8666 22.8329 17.8652Z" fill="url(#paint1_linear_11442_92730)"/>
<path d="M19.9278 18.824C19.7809 18.8211 19.639 18.7703 19.5235 18.6795C19.4081 18.5886 19.3253 18.4626 19.2879 18.3206C19.2505 18.1785 19.2604 18.0281 19.3161 17.8922C19.3718 17.7562 19.4704 17.6421 19.5967 17.5672C19.7994 17.4591 24.6913 14.9794 31.4278 16.7767C31.5706 16.8445 31.6851 16.9603 31.7514 17.1038C31.8176 17.2473 31.8315 17.4095 31.7905 17.5622C31.7495 17.7149 31.6563 17.8483 31.5271 17.9394C31.3978 18.0304 31.2408 18.0733 31.0832 18.0605C27.4903 17.0425 23.6575 17.2809 20.2184 18.7361C20.1294 18.7871 20.0301 18.8171 19.9278 18.824ZM25.2792 11.101C24.8542 11.101 24.4388 10.975 24.0854 10.7389C23.7321 10.5028 23.4567 10.1672 23.2941 9.77461C23.1314 9.382 23.0889 8.94998 23.1718 8.53318C23.2547 8.11638 23.4593 7.73353 23.7598 7.43304C24.0603 7.13254 24.4432 6.9279 24.86 6.845C25.2768 6.76209 25.7088 6.80464 26.1014 6.96727C26.494 7.12989 26.8296 7.40529 27.0657 7.75864C27.3018 8.11198 27.4278 8.5274 27.4278 8.95236C27.4278 9.13156 27.3566 9.30342 27.2299 9.43014C27.1032 9.55685 26.9313 9.62804 26.7521 9.62804C26.5729 9.62804 26.4011 9.55685 26.2744 9.43014C26.1477 9.30342 26.0765 9.13156 26.0765 8.95236C26.0765 8.79467 26.0297 8.64052 25.9421 8.50941C25.8545 8.37829 25.73 8.2761 25.5843 8.21575C25.4386 8.15541 25.2783 8.13962 25.1236 8.17038C24.969 8.20115 24.8269 8.27708 24.7154 8.38859C24.6039 8.50009 24.528 8.64216 24.4972 8.79682C24.4664 8.95148 24.4822 9.11179 24.5426 9.25747C24.6029 9.40316 24.7051 9.52768 24.8362 9.61529C24.9673 9.7029 25.1215 9.74966 25.2792 9.74966C25.4584 9.74966 25.6302 9.82084 25.7569 9.94756C25.8837 10.0743 25.9548 10.2461 25.9548 10.4253C25.9548 10.6045 25.8837 10.7764 25.7569 10.9031C25.6302 11.0298 25.4584 11.101 25.2792 11.101Z" fill="url(#paint2_linear_11442_92730)"/>
<path d="M25.2736 14.0473C24.7043 14.0455 24.1589 13.8186 23.7563 13.416C23.3537 13.0134 23.1268 12.468 23.125 11.8986C23.125 11.7194 23.1962 11.5476 23.3229 11.4209C23.4496 11.2942 23.6215 11.223 23.8007 11.223C23.9799 11.223 24.1517 11.2942 24.2785 11.4209C24.4052 11.5476 24.4764 11.7194 24.4764 11.8986C24.4764 12.0563 24.5231 12.2105 24.6107 12.3416C24.6983 12.4727 24.8229 12.5749 24.9685 12.6353C25.1142 12.6956 25.2745 12.7114 25.4292 12.6806C25.5839 12.6499 25.7259 12.5739 25.8374 12.4624C25.9489 12.3509 26.0249 12.2089 26.0556 12.0542C26.0864 11.8995 26.0706 11.7392 26.0103 11.5935C25.9499 11.4478 25.8477 11.3233 25.7166 11.2357C25.5855 11.1481 25.4313 11.1014 25.2736 11.1014C25.0944 11.1014 24.9226 11.0302 24.7959 10.9034C24.6692 10.7767 24.598 10.6049 24.598 10.4257C24.598 10.2465 24.6692 10.0746 24.7959 9.9479C24.9226 9.82119 25.0944 9.75 25.2736 9.75C25.8435 9.75 26.39 9.97637 26.793 10.3793C27.1959 10.7823 27.4223 11.3288 27.4223 11.8986C27.4223 12.4685 27.1959 13.015 26.793 13.418C26.39 13.8209 25.8435 14.0473 25.2736 14.0473Z" fill="url(#paint3_linear_11442_92730)"/>
<path d="M25.2772 14.5268C25.098 14.5268 24.9262 14.4557 24.7995 14.3289C24.6727 14.2022 24.6016 14.0304 24.6016 13.8512V13.3714C24.6016 13.1922 24.6727 13.0204 24.7995 12.8937C24.9262 12.7669 25.098 12.6958 25.2772 12.6958C25.4564 12.6958 25.6283 12.7669 25.755 12.8937C25.8817 13.0204 25.9529 13.1922 25.9529 13.3714V13.8512C25.9529 14.0304 25.8817 14.2022 25.755 14.3289C25.6283 14.4557 25.4564 14.5268 25.2772 14.5268ZM25.2772 8.15522C25.098 8.15522 24.9262 8.08403 24.7995 7.95732C24.6727 7.83061 24.6016 7.65874 24.6016 7.47954V6.99306C24.6016 6.81386 24.6727 6.642 24.7995 6.51528C24.9262 6.38857 25.098 6.31738 25.2772 6.31738C25.4564 6.31738 25.6283 6.38857 25.755 6.51528C25.8817 6.642 25.9529 6.81386 25.9529 6.99306V7.47954C25.9529 7.65874 25.8817 7.83061 25.755 7.95732C25.6283 8.08403 25.4564 8.15522 25.2772 8.15522Z" fill="url(#paint4_linear_11442_92730)"/>
<defs>
<linearGradient id="paint0_linear_11442_92730" x1="6.92969" y1="38.9398" x2="46.6217" y2="18.1862" gradientUnits="userSpaceOnUse">
<stop stop-color="#0575E6"/>
<stop offset="1" stop-color="#021B79"/>
</linearGradient>
<linearGradient id="paint1_linear_11442_92730" x1="1.35156" y1="23.1422" x2="32.9496" y2="1.74785" gradientUnits="userSpaceOnUse">
<stop stop-color="#0575E6"/>
<stop offset="1" stop-color="#021B79"/>
</linearGradient>
<linearGradient id="paint2_linear_11442_92730" x1="19.2656" y1="16.1795" x2="31.62" y2="10.247" gradientUnits="userSpaceOnUse">
<stop stop-color="#0575E6"/>
<stop offset="1" stop-color="#021B79"/>
</linearGradient>
<linearGradient id="paint3_linear_11442_92730" x1="23.125" y1="13.1019" x2="27.4223" y2="11.1251" gradientUnits="userSpaceOnUse">
<stop stop-color="#0575E6"/>
<stop offset="1" stop-color="#021B79"/>
</linearGradient>
<linearGradient id="paint4_linear_11442_92730" x1="24.6016" y1="12.7208" x2="26.2295" y2="12.5975" gradientUnits="userSpaceOnUse">
<stop stop-color="#0575E6"/>
<stop offset="1" stop-color="#021B79"/>
</linearGradient>
</defs>
</svg>
