<svg width="50" height="50" viewBox="0 0 50 50" fill="none" xmlns="http://www.w3.org/2000/svg">
<g clip-path="url(#clip0_11442_92769)">
<path d="M27.5391 50C21.543 50 15.8984 47.666 11.6602 43.418C7.42188 39.1699 5.07812 33.5352 5.07812 27.5391C5.07812 22.5391 6.68945 17.8125 9.72656 13.8574L10.498 14.4531C7.58789 18.2324 6.05469 22.7539 6.05469 27.5391C6.05469 39.3848 15.6934 49.0234 27.5391 49.0234C39.3848 49.0234 49.0234 39.3848 49.0234 27.5391C49.0234 15.6934 39.3848 6.05469 27.5391 6.05469C23.5449 6.05469 19.6484 7.1582 16.2695 9.24805L15.752 8.41797C19.2871 6.23047 23.3691 5.07812 27.5391 5.07812C33.5352 5.07812 39.1797 7.41211 43.418 11.6602C47.6563 15.9082 50 21.543 50 27.5391C50 33.5352 47.666 39.1797 43.418 43.418C39.1699 47.6563 33.5352 50 27.5391 50Z" fill="url(#paint0_linear_11442_92769)"/>
<path d="M27.541 44.3066C18.293 44.3066 10.7734 36.7871 10.7734 27.5391C10.7734 18.291 18.293 10.7715 27.541 10.7715C36.7891 10.7715 44.3086 18.291 44.3086 27.5391C44.3086 36.7871 36.7891 44.3066 27.541 44.3066ZM27.541 11.748C18.8398 11.748 11.75 18.8281 11.75 27.5391C11.75 36.25 18.8398 43.3301 27.541 43.3301C36.2422 43.3301 43.332 36.2402 43.332 27.5391C43.332 18.8379 36.2422 11.748 27.541 11.748Z" fill="url(#paint1_linear_11442_92769)"/>
<path d="M27.541 38.6035C21.4375 38.6035 16.4766 33.6426 16.4766 27.5391C16.4766 21.4355 21.4375 16.4746 27.541 16.4746C33.6445 16.4746 38.6055 21.4844 38.6055 27.5391H37.6289C37.6289 21.9727 33.0977 17.4512 27.541 17.4512C21.9844 17.4512 17.4531 21.9727 17.4531 27.5391C17.4531 33.1055 21.9746 37.627 27.541 37.627C32.3945 37.627 36.5742 34.1699 37.4629 29.4043L38.4199 29.5801C37.4434 34.8145 32.873 38.6035 27.541 38.6035Z" fill="url(#paint2_linear_11442_92769)"/>
<path d="M27.543 32.9102C24.584 32.9102 22.1719 30.498 22.1719 27.5391C22.1719 24.5801 24.584 22.168 27.543 22.168C30.502 22.168 32.9141 24.5801 32.9141 27.5391C32.9141 30.498 30.502 32.9102 27.543 32.9102ZM27.543 23.1445C25.1211 23.1445 23.1484 25.1172 23.1484 27.5391C23.1484 29.9609 25.1211 31.9336 27.543 31.9336C29.9648 31.9336 31.9375 29.9609 31.9375 27.5391C31.9375 25.1172 29.9648 23.1445 27.543 23.1445Z" fill="url(#paint3_linear_11442_92769)"/>
<path d="M27.8842 27.1975L6.42969 5.74219L5.73914 6.43271L27.1937 27.888L27.8842 27.1975Z" fill="url(#paint4_linear_11442_92769)"/>
<path d="M14.1584 14.6486H8.56268C8.43572 14.6486 8.30877 14.5998 8.22088 14.5021L0.144707 6.42596C0.00798815 6.28924 -0.04084 6.07439 0.037285 5.89861C0.11541 5.71307 0.291191 5.59588 0.486504 5.59588H5.59393V0.488457C5.59393 0.293144 5.71111 0.117363 5.89666 0.0392381C6.08221 -0.0388869 6.28729 0.00994128 6.424 0.14666L14.5002 8.22283C14.5881 8.31072 14.6467 8.43768 14.6467 8.56463V14.1603C14.6467 14.4338 14.4318 14.6486 14.1584 14.6486ZM8.76775 13.6721H13.6701V8.76971L6.57049 1.6701V6.08416C6.57049 6.3576 6.35564 6.57244 6.08221 6.57244H1.66814L8.76775 13.6721Z" fill="url(#paint5_linear_11442_92769)"/>
<path d="M8.73633 9.22852H3.14062V8.25195H8.24805V3.14453H9.22461V8.74023C9.22461 9.00391 9 9.22852 8.73633 9.22852Z" fill="url(#paint6_linear_11442_92769)"/>
<path d="M11.3848 11.875H5.78906V10.8984H10.8965V5.79102H11.873V11.3867C11.873 11.6602 11.6582 11.875 11.3848 11.875Z" fill="url(#paint7_linear_11442_92769)"/>
<path d="M28.0234 14.0625H27.0469V19.9219H28.0234V14.0625Z" fill="url(#paint8_linear_11442_92769)"/>
<path d="M28.0234 35.1562H27.0469V41.0156H28.0234V35.1562Z" fill="url(#paint9_linear_11442_92769)"/>
<path d="M19.9219 27.0508H14.0625V28.0273H19.9219V27.0508Z" fill="url(#paint10_linear_11442_92769)"/>
<path d="M41.0156 27.0508H35.1562V28.0273H41.0156V27.0508Z" fill="url(#paint11_linear_11442_92769)"/>
</g>
<defs>
<linearGradient id="paint0_linear_11442_92769" x1="5.07812" y1="40.1172" x2="50" y2="19.4531" gradientUnits="userSpaceOnUse">
<stop stop-color="#0575E6"/>
<stop offset="1" stop-color="#021B79"/>
</linearGradient>
<linearGradient id="paint1_linear_11442_92769" x1="10.7734" y1="36.9289" x2="44.3086" y2="21.5027" gradientUnits="userSpaceOnUse">
<stop stop-color="#0575E6"/>
<stop offset="1" stop-color="#021B79"/>
</linearGradient>
<linearGradient id="paint2_linear_11442_92769" x1="16.4766" y1="33.7352" x2="38.6055" y2="23.5559" gradientUnits="userSpaceOnUse">
<stop stop-color="#0575E6"/>
<stop offset="1" stop-color="#021B79"/>
</linearGradient>
<linearGradient id="paint3_linear_11442_92769" x1="22.1719" y1="30.5469" x2="32.9141" y2="25.6055" gradientUnits="userSpaceOnUse">
<stop stop-color="#0575E6"/>
<stop offset="1" stop-color="#021B79"/>
</linearGradient>
<linearGradient id="paint4_linear_11442_92769" x1="5.89106" y1="6.28079" x2="7.82768" y2="4.59752" gradientUnits="userSpaceOnUse">
<stop stop-color="#0575E6"/>
<stop offset="1" stop-color="#021B79"/>
</linearGradient>
<linearGradient id="paint5_linear_11442_92769" x1="-8.86977e-08" y1="11.4263" x2="14.6467" y2="4.68888" gradientUnits="userSpaceOnUse">
<stop stop-color="#0575E6"/>
<stop offset="1" stop-color="#021B79"/>
</linearGradient>
<linearGradient id="paint6_linear_11442_92769" x1="3.14062" y1="7.89004" x2="9.22461" y2="5.09141" gradientUnits="userSpaceOnUse">
<stop stop-color="#0575E6"/>
<stop offset="1" stop-color="#021B79"/>
</linearGradient>
<linearGradient id="paint7_linear_11442_92769" x1="5.78906" y1="10.5365" x2="11.873" y2="7.73789" gradientUnits="userSpaceOnUse">
<stop stop-color="#0575E6"/>
<stop offset="1" stop-color="#021B79"/>
</linearGradient>
<linearGradient id="paint8_linear_11442_92769" x1="27.0469" y1="18.6328" x2="28.2232" y2="18.5426" gradientUnits="userSpaceOnUse">
<stop stop-color="#0575E6"/>
<stop offset="1" stop-color="#021B79"/>
</linearGradient>
<linearGradient id="paint9_linear_11442_92769" x1="27.0469" y1="39.7266" x2="28.2232" y2="39.6364" gradientUnits="userSpaceOnUse">
<stop stop-color="#0575E6"/>
<stop offset="1" stop-color="#021B79"/>
</linearGradient>
<linearGradient id="paint10_linear_11442_92769" x1="14.0625" y1="27.8125" x2="14.8863" y2="25.5388" gradientUnits="userSpaceOnUse">
<stop stop-color="#0575E6"/>
<stop offset="1" stop-color="#021B79"/>
</linearGradient>
<linearGradient id="paint11_linear_11442_92769" x1="35.1562" y1="27.8125" x2="35.9801" y2="25.5388" gradientUnits="userSpaceOnUse">
<stop stop-color="#0575E6"/>
<stop offset="1" stop-color="#021B79"/>
</linearGradient>
<clipPath id="clip0_11442_92769">
<rect width="50" height="50" fill="white"/>
</clipPath>
</defs>
</svg>
