<svg width="256" height="256" viewBox="0 0 256 256" fill="none" xmlns="http://www.w3.org/2000/svg">
<rect width="256" height="256" rx="128" fill="#DBE9FE"/>
<path d="M162.125 162.125V176.75H91.4375C85.6193 176.75 80.0394 174.439 75.9253 170.325C71.8113 166.211 69.5 160.631 69.5 154.812C69.5 148.994 71.8113 143.414 75.9253 139.3C80.0394 135.186 85.6193 132.875 91.4375 132.875H93.875V123.125H91.4375C83.0335 123.125 74.9736 126.463 69.0311 132.406C63.0885 138.349 59.75 146.408 59.75 154.812C59.75 163.217 63.0885 171.276 69.0311 177.219C74.9736 183.162 83.0335 186.5 91.4375 186.5H162.125V201.125H201.125V162.125H162.125ZM191.375 191.375H171.875V171.875H191.375V191.375Z" fill="url(#paint0_linear_10021_60943)"/>
<path d="M152.375 157.25H142.625V142.625H113.375V157.25H103.625V142.625C103.628 140.04 104.656 137.561 106.484 135.734C108.311 133.906 110.79 132.878 113.375 132.875H142.625C145.21 132.878 147.689 133.906 149.516 135.734C151.344 137.561 152.372 140.04 152.375 142.625V157.25ZM128 128C125.107 128 122.28 127.142 119.875 125.535C117.47 123.928 115.595 121.644 114.488 118.972C113.381 116.299 113.092 113.359 113.656 110.522C114.22 107.685 115.613 105.079 117.659 103.034C119.704 100.988 122.31 99.5953 125.147 99.031C127.984 98.4667 130.924 98.7563 133.597 99.8633C136.269 100.97 138.553 102.845 140.16 105.25C141.767 107.655 142.625 110.482 142.625 113.375C142.621 117.253 141.079 120.97 138.337 123.712C135.595 126.454 131.878 127.996 128 128ZM128 108.5C127.036 108.5 126.093 108.786 125.292 109.322C124.49 109.857 123.865 110.619 123.496 111.509C123.127 112.4 123.031 113.38 123.219 114.326C123.407 115.272 123.871 116.14 124.553 116.822C125.235 117.504 126.103 117.968 127.049 118.156C127.995 118.344 128.975 118.248 129.866 117.879C130.756 117.51 131.518 116.885 132.053 116.083C132.589 115.282 132.875 114.339 132.875 113.375C132.874 112.082 132.36 110.843 131.446 109.929C130.532 109.015 129.293 108.501 128 108.5Z" fill="url(#paint1_linear_10021_60943)"/>
<path d="M164.562 69.5H93.875V54.875H54.875V93.875H93.875V79.25H164.562C170.381 79.25 175.961 81.5613 180.075 85.6753C184.189 89.7894 186.5 95.3693 186.5 101.188C186.5 107.006 184.189 112.586 180.075 116.7C175.961 120.814 170.381 123.125 164.562 123.125H162.125V132.875H164.562C172.967 132.875 181.026 129.537 186.969 123.594C192.911 117.651 196.25 109.592 196.25 101.188C196.25 92.7835 192.911 84.7236 186.969 78.7811C181.026 72.8385 172.967 69.5 164.562 69.5ZM84.125 84.125H64.625V64.625H84.125V84.125Z" fill="url(#paint2_linear_10021_60943)"/>
<defs>
<linearGradient id="paint0_linear_10021_60943" x1="59.75" y1="183.965" x2="160.798" y2="99.7165" gradientUnits="userSpaceOnUse">
<stop stop-color="#0575E6"/>
<stop offset="1" stop-color="#021B79"/>
</linearGradient>
<linearGradient id="paint1_linear_10021_60943" x1="103.625" y1="144.38" x2="155.123" y2="124.639" gradientUnits="userSpaceOnUse">
<stop stop-color="#0575E6"/>
<stop offset="1" stop-color="#021B79"/>
</linearGradient>
<linearGradient id="paint2_linear_10021_60943" x1="54.875" y1="115.715" x2="155.923" y2="31.4665" gradientUnits="userSpaceOnUse">
<stop stop-color="#0575E6"/>
<stop offset="1" stop-color="#021B79"/>
</linearGradient>
</defs>
</svg>
