<svg width="256" height="256" viewBox="0 0 256 256" fill="none" xmlns="http://www.w3.org/2000/svg">
<rect width="256" height="256" rx="128" fill="#DBE9FE"/>
<path fill-rule="evenodd" clip-rule="evenodd" d="M124.75 168.625H176.75C179.441 168.625 181.625 166.441 181.625 163.75V69.5C181.625 66.484 180.429 63.5915 178.29 61.4595C176.158 59.321 173.266 58.125 170.25 58.125C154.37 58.125 113.368 58.125 92.25 58.125C87.5115 58.125 82.9615 60.01 79.6075 63.3575C76.26 66.7115 74.375 71.2615 74.375 76C74.375 106.485 74.375 180 74.375 180C74.375 182.691 76.559 184.875 79.25 184.875C81.941 184.875 84.125 182.691 84.125 180C84.125 180 84.125 106.485 84.125 76C84.125 73.842 84.983 71.7815 86.504 70.254C88.0315 68.733 90.092 67.875 92.25 67.875H170.25C170.679 67.875 171.095 68.044 171.4 68.3495C171.706 68.655 171.875 69.071 171.875 69.5V158.875H124.75C122.059 158.875 119.875 161.059 119.875 163.75C119.875 166.441 122.059 168.625 124.75 168.625Z" fill="url(#paint0_linear_10021_60995)"/>
<path fill-rule="evenodd" clip-rule="evenodd" d="M124.75 158.875H93.875C83.1045 158.875 74.375 167.604 74.375 178.375C74.375 183.549 76.429 188.508 80.0885 192.161C83.7415 195.821 88.701 197.875 93.875 197.875C115.41 197.875 154.767 197.875 170.25 197.875C173.266 197.875 176.158 196.679 178.29 194.54C180.429 192.408 181.625 189.516 181.625 186.5C181.625 181.976 181.625 176.75 181.625 176.75C181.625 174.059 179.441 171.875 176.75 171.875C174.059 171.875 171.875 174.059 171.875 176.75V186.5C171.875 186.929 171.706 187.345 171.4 187.65C171.095 187.956 170.679 188.125 170.25 188.125H93.875C91.288 188.125 88.8115 187.098 86.9785 185.271C85.152 183.438 84.125 180.962 84.125 178.375C84.125 172.993 88.493 168.625 93.875 168.625H124.75C127.441 168.625 129.625 166.441 129.625 163.75C129.625 161.059 127.441 158.875 124.75 158.875ZM105.016 145.303L123.405 126.921C125.309 125.016 125.309 121.929 123.405 120.024C121.5 118.12 118.413 118.12 116.508 120.024L98.126 138.406C96.2215 140.311 96.2215 143.398 98.126 145.303C100.03 147.207 103.118 147.207 105.016 145.303Z" fill="url(#paint1_linear_10021_60995)"/>
<path fill-rule="evenodd" clip-rule="evenodd" d="M119.381 89.5789C116.67 92.2829 111.47 97.4894 108.877 100.096C106.491 102.481 105.835 106.115 107.245 109.196C107.245 109.202 107.252 109.209 107.252 109.215C112.939 121.507 121.909 130.516 134.214 136.197C134.22 136.203 134.233 136.21 134.24 136.21C137.327 137.614 140.961 136.951 143.353 134.546C145.946 131.959 151.14 126.759 153.844 124.042C156.431 121.455 156.964 117.444 155.137 114.266C155.131 114.259 155.124 114.246 155.124 114.24C148.754 103.307 140.142 94.6229 129.176 88.2789C129.17 88.2724 129.157 88.2659 129.15 88.2594C125.965 86.4459 121.968 86.9854 119.381 89.5789ZM120.993 101.753L125.387 97.3594C133.96 102.546 140.831 109.475 146.044 118.055L137.256 126.856C128.013 122.326 121.136 115.416 116.599 106.16L120.993 101.753Z" fill="url(#paint2_linear_10021_60995)"/>
<path fill-rule="evenodd" clip-rule="evenodd" d="M123.405 85.5553L105.016 103.937C103.118 105.842 103.118 108.929 105.016 110.834C106.921 112.732 110.008 112.732 111.913 110.834L130.301 92.4453C132.199 90.5473 132.199 87.4533 130.301 85.5553C128.397 83.6508 125.309 83.6508 123.405 85.5553ZM150.984 113.128L132.596 131.517C130.691 133.415 130.691 136.509 132.596 138.407C134.5 140.311 137.588 140.311 139.492 138.407L157.874 120.025C159.779 118.12 159.779 115.033 157.874 113.128C155.97 111.23 152.882 111.23 150.984 113.128Z" fill="url(#paint3_linear_10021_60995)"/>
<defs>
<linearGradient id="paint0_linear_10021_60995" x1="74.375" y1="156.99" x2="187.223" y2="113.066" gradientUnits="userSpaceOnUse">
<stop stop-color="#0575E6"/>
<stop offset="1" stop-color="#021B79"/>
</linearGradient>
<linearGradient id="paint1_linear_10021_60995" x1="74.375" y1="180.433" x2="168.045" y2="122.143" gradientUnits="userSpaceOnUse">
<stop stop-color="#0575E6"/>
<stop offset="1" stop-color="#021B79"/>
</linearGradient>
<linearGradient id="paint2_linear_10021_60995" x1="106.51" y1="125.995" x2="156.23" y2="103.141" gradientUnits="userSpaceOnUse">
<stop stop-color="#0575E6"/>
<stop offset="1" stop-color="#021B79"/>
</linearGradient>
<linearGradient id="paint3_linear_10021_60995" x1="103.593" y1="127.579" x2="159.302" y2="101.952" gradientUnits="userSpaceOnUse">
<stop stop-color="#0575E6"/>
<stop offset="1" stop-color="#021B79"/>
</linearGradient>
</defs>
</svg>
