<svg width="256" height="256" viewBox="0 0 256 256" fill="none" xmlns="http://www.w3.org/2000/svg">
<rect width="256" height="256" rx="128" fill="#DBE9FE"/>
<path d="M84.125 132.875H108.5V142.625H84.125V132.875ZM84.125 108.5H142.625V118.25H84.125V108.5ZM84.125 84.125H142.625V93.875H84.125V84.125Z" fill="white"/>
<path d="M157.25 59.75H69.5C66.9165 59.7577 64.441 60.7874 62.6142 62.6142C60.7874 64.441 59.7577 66.9165 59.75 69.5V186.5C59.7577 189.083 60.7874 191.559 62.6142 193.386C64.441 195.213 66.9165 196.242 69.5 196.25H108.5V186.5H69.5V69.5H157.25V123.125H167V69.5C166.992 66.9165 165.963 64.441 164.136 62.6142C162.309 60.7874 159.833 59.7577 157.25 59.75Z" fill="white"/>
<path d="M155.292 140.973C150.658 141.284 146.164 142.694 142.182 145.086C138.201 147.479 134.846 150.785 132.396 154.732C129.947 158.678 128.472 163.151 128.094 167.781C127.716 172.41 128.446 177.063 130.223 181.355C132 185.647 134.774 189.453 138.315 192.46C141.856 195.466 146.061 197.587 150.584 198.645C155.107 199.704 159.817 199.67 164.324 198.547C168.831 197.424 173.006 195.244 176.503 192.187L155.877 171.557C155.692 171.375 155.545 171.159 155.445 170.919C155.344 170.68 155.292 170.424 155.292 170.164V140.973Z" fill="white"/>
<path d="M179.261 189.425C183.935 184.098 186.507 177.251 186.497 170.164C186.502 166.28 185.732 162.435 184.23 158.853L160.535 170.699L179.261 189.425ZM182.479 155.366C180.066 151.249 176.683 147.786 172.624 145.277C168.565 142.768 163.954 141.29 159.193 140.973V167.009L182.479 155.366Z" fill="white"/>
</svg>
