<svg width="256" height="256" viewBox="0 0 256 256" fill="none" xmlns="http://www.w3.org/2000/svg">
<rect width="256" height="256" rx="128" fill="#DBE9FE"/>
<path d="M128 100.143C130.216 100.143 132.342 99.2622 133.909 97.6949C135.477 96.1277 136.357 94.002 136.357 91.7855C136.357 89.5691 135.477 87.4434 133.909 85.8761C132.342 84.3089 130.216 83.4284 128 83.4284C125.784 83.4284 123.658 84.3089 122.091 85.8761C120.523 87.4434 119.643 89.5691 119.643 91.7855C119.643 94.002 120.523 96.1277 122.091 97.6949C123.658 99.2622 125.784 100.143 128 100.143ZM132.959 62.7863C131.522 61.7275 129.784 61.1562 128 61.1562C126.215 61.1562 124.478 61.7275 123.041 62.7863L70.1128 101.814C63.6277 106.6 67.0095 116.896 75.0714 116.896H77.8571V157.244C74.5564 158.62 71.7368 160.941 69.7538 163.917C67.7708 166.892 66.7131 170.388 66.7142 173.964V182.321C66.7142 184.628 68.5862 186.5 70.8928 186.5H185.107C186.215 186.5 187.278 186.06 188.062 185.276C188.845 184.492 189.286 183.429 189.286 182.321V173.964C189.286 170.389 188.228 166.894 186.245 163.92C184.262 160.946 181.443 158.625 178.143 157.25V116.896H180.923C188.99 116.896 192.372 106.6 185.882 101.814L132.959 62.7863ZM86.2142 155.857V116.896H100.143V155.857H86.2142ZM169.786 116.896V155.857H155.857V116.896H169.786ZM147.5 116.896V155.857H132.179V116.896H147.5ZM123.821 116.896V155.857H108.5V116.896H123.821ZM75.0714 108.539L128 69.511L180.923 108.539H75.0714ZM75.0714 173.964C75.0714 168.582 79.4394 164.214 84.8214 164.214H171.179C176.561 164.214 180.929 168.582 180.929 173.964V178.143H75.0714V173.964Z" fill="white"/>
</svg>
