<svg width="256" height="256" viewBox="0 0 256 256" fill="none" xmlns="http://www.w3.org/2000/svg">
<rect width="256" height="256" rx="128" fill="url(#paint0_linear_10021_60973)"/>
<path d="M79.25 132.875H118.25V142.625H79.25V132.875Z" fill="white"/>
<path d="M64.625 142.625C67.3174 142.625 69.5 140.442 69.5 137.75C69.5 135.058 67.3174 132.875 64.625 132.875C61.9326 132.875 59.75 135.058 59.75 137.75C59.75 140.442 61.9326 142.625 64.625 142.625Z" fill="white"/>
<path d="M113.375 123.125C116.067 123.125 118.25 120.942 118.25 118.25C118.25 115.558 116.067 113.375 113.375 113.375C110.683 113.375 108.5 115.558 108.5 118.25C108.5 120.942 110.683 123.125 113.375 123.125Z" fill="white"/>
<path d="M59.75 113.375H98.75V123.125H59.75V113.375ZM79.25 93.875H118.25V103.625H79.25V93.875Z" fill="white"/>
<path d="M64.625 103.625C67.3174 103.625 69.5 101.442 69.5 98.75C69.5 96.0576 67.3174 93.875 64.625 93.875C61.9326 93.875 59.75 96.0576 59.75 98.75C59.75 101.442 61.9326 103.625 64.625 103.625Z" fill="white"/>
<path d="M196.25 189.425L160.175 153.35C167.488 143.6 171.875 131.412 171.875 118.25C171.875 86.075 145.55 59.75 113.375 59.75C97.2875 59.75 82.175 66.0875 70.9625 78.275L78.275 85.1C87.05 74.8625 99.725 69.5 113.375 69.5C140.188 69.5 162.125 91.4375 162.125 118.25C162.125 145.062 140.188 167 113.375 167C98.75 167 85.1 160.662 75.8375 149.45L68.525 155.788C79.25 168.95 95.825 176.75 113.375 176.75C128.975 176.75 143.113 170.413 153.838 160.663L189.425 196.25L196.25 189.425Z" fill="white"/>
<defs>
<linearGradient id="paint0_linear_10021_60973" x1="-1.55029e-06" y1="199.68" x2="256" y2="81.92" gradientUnits="userSpaceOnUse">
<stop stop-color="#0575E6"/>
<stop offset="1" stop-color="#021B79"/>
</linearGradient>
</defs>
</svg>
