<svg width="256" height="256" viewBox="0 0 256 256" fill="none" xmlns="http://www.w3.org/2000/svg">
<rect width="256" height="256" rx="128" fill="#DBE9FE"/>
<path d="M89 79.25H147.5V89H89V79.25ZM89 98.75H147.5V108.5H89V98.75ZM89 118.25H118.25V128H89V118.25ZM89 167H108.5V176.75H89V167Z" fill="white"/>
<path d="M194.822 144.053L180.197 129.428C179.282 128.514 178.043 128.001 176.75 128.001C175.457 128.001 174.218 128.514 173.303 129.428L128 174.732V196.25H149.518L194.822 150.947C195.736 150.032 196.249 148.793 196.249 147.5C196.249 146.207 195.736 144.968 194.822 144.053ZM145.482 186.5H137.75V178.768L162.125 154.393L169.857 162.125L145.482 186.5ZM176.75 155.232L169.018 147.5L176.75 139.768L184.482 147.5L176.75 155.232ZM108.5 196.25H79.25C76.6649 196.247 74.1865 195.219 72.3586 193.391C70.5306 191.564 69.5026 189.085 69.5 186.5V69.5C69.5026 66.9149 70.5306 64.4365 72.3586 62.6086C74.1865 60.7806 76.6649 59.7526 79.25 59.75H157.25C159.835 59.7526 162.314 60.7806 164.141 62.6086C165.969 64.4365 166.997 66.9149 167 69.5V118.25H157.25V69.5H79.25V186.5H108.5V196.25Z" fill="white"/>
</svg>
