<svg width="256" height="256" viewBox="0 0 256 256" fill="none" xmlns="http://www.w3.org/2000/svg">
<rect width="256" height="256" rx="128" fill="#DBE9FE"/>
<path d="M128 186.5H113.375C94.3625 186.5 79.25 171.387 79.25 152.375V132.875H89V152.375C89 166.025 99.725 176.75 113.375 176.75H128V186.5ZM186.5 196.25H197.225L174.8 142.625H164.075L141.65 196.25H152.375L156.275 186.5H182.113L186.5 196.25ZM160.663 176.75L169.438 155.3L178.212 176.75H160.663ZM186.5 123.125H176.75V103.625C176.75 89.975 166.025 79.25 152.375 79.25H132.875V69.5H152.375C171.387 69.5 186.5 84.6125 186.5 103.625V123.125ZM118.25 74.375V64.625H93.875V54.875H84.125V64.625H59.75V74.375H99.725C98.75 78.7625 95.825 86.5625 89 93.875C86.075 90.4625 83.6375 87.05 82.175 84.125H70.9625C72.9125 89 76.325 94.85 81.2 100.213C77.3 103.625 71.45 106.55 64.625 108.988L68.0375 118.25C76.8125 114.838 83.6375 110.938 89 107.037C94.3625 111.425 101.188 115.325 109.963 118.25L113.375 108.988C106.55 106.55 100.7 103.138 96.3125 100.213C105.575 90.4625 108.5 80.225 109.475 74.375H118.25Z" fill="white"/>
</svg>
