<svg width="256" height="256" viewBox="0 0 256 256" fill="none" xmlns="http://www.w3.org/2000/svg">
<rect width="256" height="256" rx="128" fill="#DBE9FE"/>
<path d="M103.625 152.375H93.875V142.625C93.8789 138.747 95.421 135.03 98.1628 132.288C100.905 129.546 104.622 128.004 108.5 128H137.75V137.75H108.5C107.207 137.751 105.968 138.265 105.054 139.179C104.14 140.093 103.626 141.332 103.625 142.625V152.375ZM123.125 123.125C119.268 123.125 115.498 121.981 112.291 119.839C109.085 117.696 106.585 114.65 105.109 111.087C103.633 107.524 103.247 103.603 104 99.8207C104.752 96.0381 106.609 92.5635 109.336 89.8364C112.064 87.1093 115.538 85.2521 119.321 84.4997C123.103 83.7473 127.024 84.1334 130.587 85.6094C134.15 87.0853 137.196 89.5846 139.339 92.7914C141.481 95.9981 142.625 99.7683 142.625 103.625C142.619 108.795 140.562 113.751 136.906 117.406C133.251 121.062 128.295 123.119 123.125 123.125ZM123.125 93.875C121.197 93.875 119.312 94.4468 117.708 95.5182C116.105 96.5895 114.855 98.1123 114.117 99.8938C113.379 101.675 113.186 103.636 113.562 105.527C113.939 107.418 114.867 109.156 116.231 110.519C117.594 111.883 119.332 112.811 121.223 113.188C123.114 113.564 125.075 113.371 126.856 112.633C128.638 111.895 130.16 110.645 131.232 109.042C132.303 107.438 132.875 105.553 132.875 103.625C132.872 101.04 131.844 98.5615 130.016 96.7336C128.189 94.9056 125.71 93.8776 123.125 93.875ZM167 157.25C163.143 157.25 159.373 156.106 156.166 153.964C152.96 151.821 150.46 148.775 148.984 145.212C147.508 141.649 147.122 137.728 147.875 133.946C148.627 130.163 150.484 126.689 153.211 123.961C155.939 121.234 159.413 119.377 163.196 118.625C166.978 117.872 170.899 118.258 174.462 119.734C178.025 121.21 181.071 123.71 183.214 126.916C185.356 130.123 186.5 133.893 186.5 137.75C186.494 142.92 184.437 147.876 180.781 151.531C177.126 155.187 172.17 157.244 167 157.25ZM167 128C165.072 128 163.187 128.572 161.583 129.643C159.98 130.715 158.73 132.237 157.992 134.019C157.254 135.8 157.061 137.761 157.437 139.652C157.814 141.543 158.742 143.281 160.106 144.644C161.469 146.008 163.207 146.936 165.098 147.313C166.989 147.689 168.95 147.496 170.731 146.758C172.513 146.02 174.035 144.77 175.107 143.167C176.178 141.563 176.75 139.678 176.75 137.75C176.747 135.165 175.719 132.686 173.891 130.859C172.064 129.031 169.585 128.003 167 128ZM196.25 186.5H186.5V176.75C186.499 175.457 185.985 174.218 185.071 173.304C184.157 172.39 182.918 171.876 181.625 171.875H152.375C151.082 171.876 149.843 172.39 148.929 173.304C148.015 174.218 147.501 175.457 147.5 176.75V186.5H137.75V176.75C137.754 172.872 139.296 169.155 142.038 166.413C144.78 163.671 148.497 162.129 152.375 162.125H181.625C185.503 162.129 189.22 163.671 191.962 166.413C194.704 169.155 196.246 172.872 196.25 176.75V186.5Z" fill="url(#paint0_linear_10205_69545)"/>
<path d="M118.25 185.198L92.7342 171.597C85.7103 167.861 79.8365 162.283 75.7431 155.461C71.6498 148.639 69.4915 140.831 69.5 132.875V69.5H167V98.75H176.75V69.5C176.747 66.9149 175.719 64.4365 173.891 62.6086C172.063 60.7806 169.585 59.7526 167 59.75H69.5C66.9149 59.7526 64.4365 60.7806 62.6085 62.6086C60.7806 64.4365 59.7526 66.9149 59.75 69.5V132.875C59.7391 142.597 62.3762 152.139 67.3783 160.476C72.3803 168.813 79.5584 175.631 88.142 180.197L118.25 196.25V185.198Z" fill="url(#paint1_linear_10205_69545)"/>
<defs>
<linearGradient id="paint0_linear_10205_69545" x1="93.875" y1="163.978" x2="196.25" y2="116.885" gradientUnits="userSpaceOnUse">
<stop stop-color="#0575E6"/>
<stop offset="1" stop-color="#021B79"/>
</linearGradient>
<linearGradient id="paint1_linear_10205_69545" x1="59.7499" y1="166.22" x2="182.434" y2="117.847" gradientUnits="userSpaceOnUse">
<stop stop-color="#0575E6"/>
<stop offset="1" stop-color="#021B79"/>
</linearGradient>
</defs>
</svg>
