<svg width="256" height="256" viewBox="0 0 256 256" fill="none" xmlns="http://www.w3.org/2000/svg">
<rect width="256" height="256" rx="128" fill="#DBE9FE"/>
<path d="M128 181.125H109V172.375H124.783H125.112L125.242 172.071L138.599 140.902C138.599 140.902 138.599 140.902 138.599 140.902C139.312 139.255 141.004 138.206 142.748 138.249C143.625 138.274 144.474 138.561 145.186 139.075C145.897 139.588 146.438 140.303 146.738 141.128L146.738 141.128L162.026 183.18L162.457 184.367L162.955 183.206L172.729 160.401C173.067 159.614 173.627 158.943 174.342 158.472C175.057 158.001 175.894 157.75 176.75 157.75H195.75V166.5H179.967H179.638L179.508 166.803L166.15 197.973C165.813 198.761 165.251 199.432 164.536 199.903C163.82 200.374 162.982 200.625 162.125 200.625H162.125C161.227 200.625 160.35 200.349 159.615 199.834C158.879 199.319 158.319 198.59 158.012 197.746L142.724 155.699L142.293 154.512L141.795 155.673L132.021 178.473C131.683 179.26 131.123 179.931 130.408 180.402C129.693 180.873 128.856 181.124 128 181.125Z" fill="url(#paint0_linear_10264_71773)" stroke="url(#paint1_linear_10264_71773)"/>
<path d="M93.875 171.875H69.5V98.75H186.5V142.625H196.25V98.75C196.25 93.3729 191.877 89 186.5 89H157.25V69.5C157.25 64.1229 152.877 59.75 147.5 59.75H108.5C103.123 59.75 98.75 64.1229 98.75 69.5V89H69.5C64.1229 89 59.75 93.3729 59.75 98.75V171.875C59.75 177.252 64.1229 181.625 69.5 181.625H93.875V171.875ZM108.5 69.5H147.5V89H108.5V69.5Z" fill="url(#paint2_linear_10264_71773)"/>
<defs>
<linearGradient id="paint0_linear_10264_71773" x1="108.5" y1="187.182" x2="184.136" y2="139.009" gradientUnits="userSpaceOnUse">
<stop stop-color="#0575E6"/>
<stop offset="1" stop-color="#021B79"/>
</linearGradient>
<linearGradient id="paint1_linear_10264_71773" x1="108.5" y1="187.182" x2="184.136" y2="139.009" gradientUnits="userSpaceOnUse">
<stop stop-color="#0575E6"/>
<stop offset="1" stop-color="#021B79"/>
</linearGradient>
<linearGradient id="paint2_linear_10264_71773" x1="59.75" y1="154.813" x2="190.443" y2="87.4793" gradientUnits="userSpaceOnUse">
<stop stop-color="#0575E6"/>
<stop offset="1" stop-color="#021B79"/>
</linearGradient>
</defs>
</svg>
