<svg width="256" height="256" viewBox="0 0 256 256" fill="none" xmlns="http://www.w3.org/2000/svg">
<rect width="256" height="256" rx="128" fill="#DBE9FE"/>
<path d="M75 186.5V187H75.5H114V195.75H75.5015C73.0501 195.743 70.7012 194.766 68.9678 193.032C67.2346 191.299 66.2575 188.95 66.25 186.499V69.5008C66.2575 67.0496 67.2346 64.701 68.9678 62.9678C70.701 61.2346 73.0496 60.2575 75.5008 60.25H163.249C165.7 60.2575 168.049 61.2346 169.782 62.9678C171.516 64.7012 172.493 67.0501 172.5 69.5015V122.625H163.75V69.5V69H163.25H75.5H75V69.5V186.5ZM137.513 169.102L137.601 168.526H137.019H123.809V168.526L123.795 168.526C123.453 168.535 123.113 168.466 122.802 168.323C122.491 168.18 122.217 167.968 122.001 167.702C121.785 167.436 121.633 167.125 121.556 166.791C121.48 166.457 121.481 166.11 121.56 165.777L121.561 165.774L129.765 130.222C129.765 130.221 129.765 130.221 129.765 130.221C129.883 129.721 130.17 129.277 130.577 128.964C130.984 128.651 131.487 128.487 132 128.501L132 128.501H132.014H159.364H159.365C159.699 128.5 160.029 128.574 160.331 128.717C160.632 128.86 160.898 129.069 161.109 129.328L161.109 129.328C161.322 129.591 161.473 129.898 161.551 130.227C161.628 130.556 161.63 130.898 161.556 131.228L161.556 131.229L156.824 152.507L156.689 153.116H157.312H170.304H170.305C170.723 153.115 171.134 153.232 171.49 153.453C171.843 153.673 172.127 153.987 172.312 154.359C172.469 154.718 172.529 155.112 172.487 155.501C172.444 155.892 172.298 156.265 172.065 156.582C172.064 156.583 172.063 156.584 172.062 156.585L136.512 203.074L136.503 203.086L136.495 203.098C136.298 203.389 136.036 203.63 135.729 203.801C135.427 203.969 135.089 204.065 134.743 204.081C134.445 204.073 134.15 204.012 133.873 203.9C133.417 203.707 133.038 203.368 132.796 202.936C132.553 202.503 132.462 202.001 132.535 201.51L137.513 169.102ZM151.098 157.586L156.433 133.579L156.568 132.971H155.945H134.202H133.804L133.714 133.358L126.767 163.443L126.626 164.056H127.255H142.835L138.576 191.595L139.467 191.976L165.23 158.39L165.847 157.586H164.834H151.098ZM90.625 133.375H114V142.125H90.625V133.375ZM90.625 109H148.125V117.75H90.625V109ZM90.625 84.625H148.125V93.375H90.625V84.625Z" fill="url(#paint0_linear_10205_69547)" stroke="url(#paint1_linear_10205_69547)"/>
<defs>
<linearGradient id="paint0_linear_10205_69547" x1="65.75" y1="172.718" x2="182.184" y2="133.056" gradientUnits="userSpaceOnUse">
<stop stop-color="#0575E6"/>
<stop offset="1" stop-color="#021B79"/>
</linearGradient>
<linearGradient id="paint1_linear_10205_69547" x1="65.75" y1="172.718" x2="182.184" y2="133.056" gradientUnits="userSpaceOnUse">
<stop stop-color="#0575E6"/>
<stop offset="1" stop-color="#021B79"/>
</linearGradient>
</defs>
</svg>
