<svg width="256" height="256" viewBox="0 0 256 256" fill="none" xmlns="http://www.w3.org/2000/svg">
<rect width="256" height="256" rx="128" fill="#DBE9FE"/>
<path d="M89 118.25H118.25V128H89V118.25ZM89 79.25H147.5V89H89V79.25ZM89 98.75H147.5V108.5H89V98.75ZM89 167H118.25V176.75H89V167ZM196.25 167V157.25H186.008C185.379 154.198 184.167 151.297 182.439 148.704L189.703 141.44L182.81 134.547L175.546 141.811C172.953 140.083 170.052 138.871 167 138.242V128H157.25V138.242C154.198 138.871 151.297 140.083 148.704 141.811L141.44 134.547L134.547 141.44L141.811 148.704C140.083 151.297 138.871 154.198 138.242 157.25H128V167H138.242C138.871 170.052 140.083 172.953 141.811 175.546L134.547 182.81L141.44 189.703L148.704 182.439C151.297 184.167 154.198 185.379 157.25 186.008V196.25H167V186.008C170.052 185.379 172.953 184.167 175.546 182.439L182.81 189.703L189.703 182.81L182.439 175.546C184.167 172.953 185.379 170.052 186.008 167H196.25ZM162.125 176.75C159.232 176.75 156.405 175.892 154 174.285C151.595 172.678 149.72 170.394 148.613 167.722C147.506 165.049 147.217 162.109 147.781 159.272C148.345 156.435 149.738 153.829 151.784 151.784C153.829 149.738 156.435 148.345 159.272 147.781C162.109 147.217 165.049 147.506 167.722 148.613C170.394 149.72 172.678 151.595 174.285 154C175.892 156.405 176.75 159.232 176.75 162.125C176.746 166.003 175.204 169.72 172.462 172.462C169.72 175.204 166.003 176.746 162.125 176.75Z" fill="white"/>
<path d="M118.25 196.25H79.25C76.6649 196.247 74.1865 195.219 72.3586 193.391C70.5306 191.564 69.5026 189.085 69.5 186.5V69.5C69.5026 66.9149 70.5306 64.4365 72.3586 62.6086C74.1865 60.7806 76.6649 59.7526 79.25 59.75H157.25C159.835 59.7526 162.314 60.7806 164.141 62.6086C165.969 64.4365 166.997 66.9149 167 69.5V118.25H157.25V69.5H79.25V186.5H118.25V196.25Z" fill="white"/>
</svg>
