<svg width="256" height="256" viewBox="0 0 256 256" fill="none" xmlns="http://www.w3.org/2000/svg">
<rect width="256" height="256" rx="128" fill="#DBE9FE"/>
<path d="M84.125 132.875H108.5V142.625H84.125V132.875ZM84.125 108.5H142.625V118.25H84.125V108.5ZM84.125 84.125H142.625V93.875H84.125V84.125Z" fill="url(#paint0_linear_10021_60985)"/>
<path d="M157.25 59.75H69.5C66.9165 59.7577 64.441 60.7874 62.6142 62.6142C60.7874 64.441 59.7577 66.9165 59.75 69.5V186.5C59.7577 189.083 60.7874 191.559 62.6142 193.386C64.441 195.213 66.9165 196.242 69.5 196.25H108.5V186.5H69.5V69.5H157.25V123.125H167V69.5C166.992 66.9165 165.963 64.441 164.136 62.6142C162.309 60.7874 159.833 59.7577 157.25 59.75Z" fill="url(#paint1_linear_10021_60985)"/>
<path d="M154 199.5C136.05 199.5 121.5 184.95 121.5 167C121.5 149.05 136.05 134.5 154 134.5C171.95 134.5 186.5 149.05 186.5 167C186.5 184.95 171.95 199.5 154 199.5ZM154 193C160.896 193 167.509 190.261 172.385 185.385C177.261 180.509 180 173.896 180 167C180 160.104 177.261 153.491 172.385 148.615C167.509 143.739 160.896 141 154 141C147.104 141 140.491 143.739 135.615 148.615C130.739 153.491 128 160.104 128 167C128 173.896 130.739 180.509 135.615 185.385C140.491 190.261 147.104 193 154 193ZM154 150.75C154.862 150.75 155.689 151.092 156.298 151.702C156.908 152.311 157.25 153.138 157.25 154V170.25C157.25 171.112 156.908 171.939 156.298 172.548C155.689 173.158 154.862 173.5 154 173.5C153.138 173.5 152.311 173.158 151.702 172.548C151.092 171.939 150.75 171.112 150.75 170.25V154C150.75 153.138 151.092 152.311 151.702 151.702C152.311 151.092 153.138 150.75 154 150.75ZM154 183.25C153.138 183.25 152.311 182.908 151.702 182.298C151.092 181.689 150.75 180.862 150.75 180C150.75 179.138 151.092 178.311 151.702 177.702C152.311 177.092 153.138 176.75 154 176.75C154.862 176.75 155.689 177.092 156.298 177.702C156.908 178.311 157.25 179.138 157.25 180C157.25 180.862 156.908 181.689 156.298 182.298C155.689 182.908 154.862 183.25 154 183.25Z" fill="url(#paint2_linear_10021_60985)"/>
<defs>
<linearGradient id="paint0_linear_10021_60985" x1="59.75" y1="166.22" x2="174.681" y2="124.681" gradientUnits="userSpaceOnUse">
<stop stop-color="#0575E6"/>
<stop offset="1" stop-color="#021B79"/>
</linearGradient>
<linearGradient id="paint1_linear_10021_60985" x1="59.75" y1="166.22" x2="174.681" y2="124.681" gradientUnits="userSpaceOnUse">
<stop stop-color="#0575E6"/>
<stop offset="1" stop-color="#021B79"/>
</linearGradient>
<linearGradient id="paint2_linear_10021_60985" x1="121.5" y1="185.2" x2="186.5" y2="155.3" gradientUnits="userSpaceOnUse">
<stop stop-color="#0575E6"/>
<stop offset="1" stop-color="#021B79"/>
</linearGradient>
</defs>
</svg>
