<svg width="256" height="256" viewBox="0 0 256 256" fill="none" xmlns="http://www.w3.org/2000/svg">
<rect width="256" height="256" rx="128" fill="#DBE9FE"/>
<path d="M118.25 137.75H69.5C64.1375 137.75 59.75 142.137 59.75 147.5V176.75C59.75 182.113 64.1375 186.5 69.5 186.5H81.2L89.4875 201.125L97.775 196.25L86.5625 176.75H69.5V147.5H118.25V176.75H103.625V186.5H118.25C123.612 186.5 128 182.113 128 176.75V147.5C128 142.137 123.612 137.75 118.25 137.75ZM142.625 176.75H152.375C171.388 176.75 186.5 161.638 186.5 142.625V132.875H176.75V142.625C176.75 156.275 166.025 167 152.375 167H142.625V176.75ZM69.5 118.25H79.25V108.5C79.25 94.85 89.975 84.125 103.625 84.125H123.125V74.375H103.625C84.6125 74.375 69.5 89.4875 69.5 108.5V118.25Z" fill="url(#paint0_linear_10021_60981)"/>
<path d="M170.25 87.375V110.125H193V87.05C193 71.45 178.375 69.5 178.375 69.5L176.425 74.05C176.425 74.05 182.925 75.025 184.225 80.225C185.525 84.125 182.925 87.375 182.925 87.375H170.25ZM141 87.375V110.125H163.75V87.05C163.75 71.45 149.125 69.5 149.125 69.5L147.175 74.05C147.175 74.05 153.675 75.025 154.975 80.225C156.275 84.125 153.675 87.375 153.675 87.375H141Z" fill="url(#paint1_linear_10021_60981)"/>
<defs>
<linearGradient id="paint0_linear_10021_60981" x1="59.75" y1="172.168" x2="192.424" y2="110.384" gradientUnits="userSpaceOnUse">
<stop stop-color="#0575E6"/>
<stop offset="1" stop-color="#021B79"/>
</linearGradient>
<linearGradient id="paint1_linear_10021_60981" x1="59.75" y1="172.168" x2="192.424" y2="110.384" gradientUnits="userSpaceOnUse">
<stop stop-color="#0575E6"/>
<stop offset="1" stop-color="#021B79"/>
</linearGradient>
</defs>
</svg>
