<svg width="256" height="256" viewBox="0 0 256 256" fill="none" xmlns="http://www.w3.org/2000/svg">
<rect width="256" height="256" rx="128" fill="#DBE9FE"/>
<path d="M186.5 59.75H137.75C132.373 59.75 128 64.118 128 69.5V98.75C128 104.127 132.368 108.5 137.75 108.5H149.562L158.001 123.125L166.449 118.25L155.188 98.75H137.75V69.5H186.5V98.75H171.875V108.5H186.5C191.877 108.5 196.25 104.132 196.25 98.75V69.5C196.25 64.1229 191.877 59.75 186.5 59.75ZM121.614 201.125L113.17 196.25L130.062 167H157.25C159.836 167 162.316 165.973 164.144 164.144C165.973 162.316 167 159.836 167 157.25V132.875H176.75V157.25C176.75 162.422 174.696 167.382 171.039 171.039C167.382 174.696 162.422 176.75 157.25 176.75H135.688L121.614 201.125Z" fill="url(#paint0_linear_10021_60977)"/>
<path d="M98.75 137.75C101.442 137.75 103.625 135.567 103.625 132.875C103.625 130.183 101.442 128 98.75 128C96.0576 128 93.875 130.183 93.875 132.875C93.875 135.567 96.0576 137.75 98.75 137.75Z" fill="url(#paint1_linear_10021_60977)"/>
<path d="M118.25 137.75C120.942 137.75 123.125 135.567 123.125 132.875C123.125 130.183 120.942 128 118.25 128C115.558 128 113.375 130.183 113.375 132.875C113.375 135.567 115.558 137.75 118.25 137.75Z" fill="url(#paint2_linear_10021_60977)"/>
<path d="M137.75 137.75C140.442 137.75 142.625 135.567 142.625 132.875C142.625 130.183 140.442 128 137.75 128C135.058 128 132.875 130.183 132.875 132.875C132.875 135.567 135.058 137.75 137.75 137.75Z" fill="url(#paint3_linear_10021_60977)"/>
<path d="M108.5 176.75H79.25C74.0783 176.75 69.1184 174.696 65.4614 171.039C61.8045 167.382 59.75 162.422 59.75 157.25V108.5C59.75 103.328 61.8045 98.3684 65.4614 94.7114C69.1184 91.0545 74.0783 89 79.25 89H118.25V98.75H79.25C76.6641 98.75 74.1842 99.7772 72.3557 101.606C70.5272 103.434 69.5 105.914 69.5 108.5V157.25C69.5 159.836 70.5272 162.316 72.3557 164.144C74.1842 165.973 76.6641 167 79.25 167H108.5V176.75Z" fill="url(#paint4_linear_10021_60977)"/>
<defs>
<linearGradient id="paint0_linear_10021_60977" x1="113.17" y1="170.023" x2="206.975" y2="144.665" gradientUnits="userSpaceOnUse">
<stop stop-color="#0575E6"/>
<stop offset="1" stop-color="#021B79"/>
</linearGradient>
<linearGradient id="paint1_linear_10021_60977" x1="93.875" y1="135.605" x2="103.625" y2="131.12" gradientUnits="userSpaceOnUse">
<stop stop-color="#0575E6"/>
<stop offset="1" stop-color="#021B79"/>
</linearGradient>
<linearGradient id="paint2_linear_10021_60977" x1="113.375" y1="135.605" x2="123.125" y2="131.12" gradientUnits="userSpaceOnUse">
<stop stop-color="#0575E6"/>
<stop offset="1" stop-color="#021B79"/>
</linearGradient>
<linearGradient id="paint3_linear_10021_60977" x1="132.875" y1="135.605" x2="142.625" y2="131.12" gradientUnits="userSpaceOnUse">
<stop stop-color="#0575E6"/>
<stop offset="1" stop-color="#021B79"/>
</linearGradient>
<linearGradient id="paint4_linear_10021_60977" x1="59.75" y1="157.445" x2="124.536" y2="137.577" gradientUnits="userSpaceOnUse">
<stop stop-color="#0575E6"/>
<stop offset="1" stop-color="#021B79"/>
</linearGradient>
</defs>
</svg>
