<svg width="256" height="256" viewBox="0 0 256 256" fill="none" xmlns="http://www.w3.org/2000/svg">
<rect width="256" height="256" rx="128" fill="#DBE9FE"/>
<path d="M69.5 167H118.25V176.75H69.5V167ZM69.5 137.75H118.25V147.5H69.5V137.75ZM176.75 118.25H79.25C76.6641 118.25 74.1842 117.223 72.3557 115.394C70.5272 113.566 69.5 111.086 69.5 108.5V79.25C69.5 76.6641 70.5272 74.1842 72.3557 72.3557C74.1842 70.5272 76.6641 69.5 79.25 69.5H176.75C179.336 69.5 181.816 70.5272 183.644 72.3557C185.473 74.1842 186.5 76.6641 186.5 79.25V108.5C186.5 111.086 185.473 113.566 183.644 115.394C181.816 117.223 179.336 118.25 176.75 118.25ZM79.25 79.25V108.5H176.75V79.25H79.25ZM176.75 186.5H147.5C144.914 186.5 142.434 185.473 140.606 183.644C138.777 181.816 137.75 179.336 137.75 176.75V147.5C137.75 144.914 138.777 142.434 140.606 140.606C142.434 138.777 144.914 137.75 147.5 137.75H176.75C179.336 137.75 181.816 138.777 183.644 140.606C185.473 142.434 186.5 144.914 186.5 147.5V176.75C186.5 179.336 185.473 181.816 183.644 183.644C181.816 185.473 179.336 186.5 176.75 186.5ZM147.5 147.5V176.75H176.75V147.5H147.5Z" fill="url(#paint0_linear_10021_60941)"/>
<defs>
<linearGradient id="paint0_linear_10021_60941" x1="69.5" y1="160.76" x2="186.5" y2="106.94" gradientUnits="userSpaceOnUse">
<stop stop-color="#0575E6"/>
<stop offset="1" stop-color="#021B79"/>
</linearGradient>
</defs>
</svg>
