<svg width="256" height="256" viewBox="0 0 256 256" fill="none" xmlns="http://www.w3.org/2000/svg">
<rect width="256" height="256" rx="128" fill="#DBE9FE"/>
<path d="M84.125 132.875H108.5V142.625H84.125V132.875ZM84.125 108.5H142.625V118.25H84.125V108.5ZM84.125 84.125H142.625V93.875H84.125V84.125Z" fill="url(#paint0_linear_10021_60949)"/>
<path d="M157.25 59.75H69.5C66.9165 59.7577 64.441 60.7874 62.6142 62.6142C60.7874 64.441 59.7577 66.9165 59.75 69.5V186.5C59.7577 189.083 60.7874 191.559 62.6142 193.386C64.441 195.213 66.9165 196.242 69.5 196.25H108.5V186.5H69.5V69.5H157.25V123.125H167V69.5C166.992 66.9165 165.963 64.441 164.136 62.6142C162.309 60.7874 159.833 59.7577 157.25 59.75Z" fill="url(#paint1_linear_10021_60949)"/>
<path d="M164.563 177.562V184.875H173.557C171.513 187.181 169.002 189.025 166.19 190.286C163.379 191.547 160.331 192.195 157.25 192.187C151.434 192.181 145.858 189.867 141.745 185.755C137.633 181.642 135.319 176.066 135.313 170.25H128C127.988 176.198 129.793 182.007 133.174 186.9C136.554 191.794 141.349 195.538 146.916 197.632C152.483 199.725 158.557 200.068 164.324 198.615C170.091 197.162 175.277 193.982 179.188 189.5V199.5H186.5V177.562H164.563ZM157.25 141C153.094 141.021 148.99 141.924 145.209 143.647C141.428 145.371 138.055 147.877 135.313 151V141H128V162.937H149.938V155.625H140.943C142.987 153.319 145.498 151.474 148.31 150.214C151.121 148.953 154.169 148.305 157.25 148.312C163.066 148.319 168.642 150.633 172.755 154.745C176.867 158.858 179.181 164.434 179.188 170.25H186.5C186.49 162.495 183.406 155.061 177.922 149.578C172.439 144.094 165.005 141.01 157.25 141Z" fill="url(#paint2_linear_10021_60949)"/>
<defs>
<linearGradient id="paint0_linear_10021_60949" x1="59.75" y1="168.755" x2="190.552" y2="114.183" gradientUnits="userSpaceOnUse">
<stop stop-color="#0575E6"/>
<stop offset="1" stop-color="#021B79"/>
</linearGradient>
<linearGradient id="paint1_linear_10021_60949" x1="59.75" y1="168.755" x2="190.552" y2="114.183" gradientUnits="userSpaceOnUse">
<stop stop-color="#0575E6"/>
<stop offset="1" stop-color="#021B79"/>
</linearGradient>
<linearGradient id="paint2_linear_10021_60949" x1="59.75" y1="168.755" x2="190.552" y2="114.183" gradientUnits="userSpaceOnUse">
<stop stop-color="#0575E6"/>
<stop offset="1" stop-color="#021B79"/>
</linearGradient>
</defs>
</svg>
