<svg width="256" height="256" viewBox="0 0 256 256" fill="none" xmlns="http://www.w3.org/2000/svg">
<rect width="256" height="256" rx="128" fill="#DBE9FE"/>
<mask id="path-2-inside-1_10205_69521" fill="white">
<path d="M84.125 132.875H108.5V142.625H84.125V132.875ZM84.125 108.5H142.625V118.25H84.125V108.5ZM84.125 84.125H142.625V93.875H84.125V84.125Z"/>
<path d="M157.25 59.75H69.5C66.9165 59.7577 64.441 60.7874 62.6142 62.6142C60.7874 64.441 59.7577 66.9165 59.75 69.5V186.5C59.7577 189.083 60.7874 191.559 62.6142 193.386C64.441 195.213 66.9165 196.242 69.5 196.25H108.5V186.5H69.5V69.5H157.25V123.125H167V69.5C166.992 66.9165 165.963 64.441 164.136 62.6142C162.309 60.7874 159.833 59.7577 157.25 59.75Z"/>
<path d="M180 195.167H175.667V188.667C175.667 186.943 174.982 185.289 173.763 184.07C172.544 182.851 170.891 182.167 169.167 182.167H160.5C158.776 182.167 157.123 182.851 155.904 184.07C154.685 185.289 154 186.943 154 188.667V195.167H149.667V188.667C149.667 185.793 150.808 183.038 152.84 181.006C154.871 178.975 157.627 177.833 160.5 177.833H169.167C172.04 177.833 174.795 178.975 176.827 181.006C178.859 183.038 180 185.793 180 188.667V195.167ZM164.833 156.167C166.119 156.167 167.376 156.548 168.445 157.262C169.513 157.976 170.347 158.992 170.839 160.179C171.331 161.367 171.459 162.674 171.208 163.935C170.958 165.196 170.339 166.354 169.43 167.263C168.52 168.172 167.362 168.791 166.101 169.042C164.841 169.293 163.534 169.164 162.346 168.672C161.158 168.18 160.143 167.347 159.429 166.278C158.715 165.209 158.333 163.952 158.333 162.667C158.333 160.943 159.018 159.289 160.237 158.07C161.456 156.851 163.109 156.167 164.833 156.167ZM164.833 151.833C162.691 151.833 160.596 152.469 158.815 153.659C157.033 154.849 155.645 156.541 154.825 158.521C154.005 160.5 153.79 162.679 154.208 164.78C154.626 166.882 155.658 168.812 157.173 170.327C158.688 171.842 160.618 172.874 162.72 173.292C164.821 173.71 167 173.495 168.979 172.675C170.959 171.855 172.651 170.467 173.841 168.685C175.031 166.904 175.667 164.809 175.667 162.667C175.667 159.793 174.525 157.038 172.494 155.006C170.462 152.975 167.707 151.833 164.833 151.833ZM145.333 177.833H141V171.333C141 169.609 140.315 167.956 139.096 166.737C137.877 165.518 136.224 164.833 134.5 164.833H125.833C124.109 164.833 122.456 165.518 121.237 166.737C120.018 167.956 119.333 169.609 119.333 171.333V177.833H115V171.333C115 168.46 116.141 165.705 118.173 163.673C120.205 161.641 122.96 160.5 125.833 160.5H134.5C137.373 160.5 140.129 161.641 142.16 163.673C144.192 165.705 145.333 168.46 145.333 171.333V177.833ZM130.167 138.833C131.452 138.833 132.709 139.215 133.778 139.929C134.847 140.643 135.68 141.658 136.172 142.846C136.664 144.034 136.793 145.341 136.542 146.601C136.291 147.862 135.672 149.02 134.763 149.93C133.854 150.839 132.696 151.458 131.435 151.708C130.174 151.959 128.867 151.831 127.679 151.339C126.492 150.847 125.476 150.013 124.762 148.945C124.048 147.876 123.667 146.619 123.667 145.333C123.667 143.609 124.351 141.956 125.57 140.737C126.789 139.518 128.443 138.833 130.167 138.833ZM130.167 134.5C128.024 134.5 125.93 135.135 124.148 136.326C122.366 137.516 120.978 139.208 120.158 141.188C119.338 143.167 119.123 145.345 119.541 147.447C119.959 149.548 120.991 151.479 122.506 152.994C124.021 154.509 125.952 155.54 128.053 155.959C130.155 156.377 132.333 156.162 134.312 155.342C136.292 154.522 137.984 153.134 139.174 151.352C140.365 149.57 141 147.476 141 145.333C141 142.46 139.859 139.705 137.827 137.673C135.795 135.641 133.04 134.5 130.167 134.5Z"/>
</mask>
<path d="M84.125 132.875H108.5V142.625H84.125V132.875ZM84.125 108.5H142.625V118.25H84.125V108.5ZM84.125 84.125H142.625V93.875H84.125V84.125Z" fill="url(#paint0_linear_10205_69521)"/>
<path d="M157.25 59.75H69.5C66.9165 59.7577 64.441 60.7874 62.6142 62.6142C60.7874 64.441 59.7577 66.9165 59.75 69.5V186.5C59.7577 189.083 60.7874 191.559 62.6142 193.386C64.441 195.213 66.9165 196.242 69.5 196.25H108.5V186.5H69.5V69.5H157.25V123.125H167V69.5C166.992 66.9165 165.963 64.441 164.136 62.6142C162.309 60.7874 159.833 59.7577 157.25 59.75Z" fill="url(#paint1_linear_10205_69521)"/>
<path d="M180 195.167H175.667V188.667C175.667 186.943 174.982 185.289 173.763 184.07C172.544 182.851 170.891 182.167 169.167 182.167H160.5C158.776 182.167 157.123 182.851 155.904 184.07C154.685 185.289 154 186.943 154 188.667V195.167H149.667V188.667C149.667 185.793 150.808 183.038 152.84 181.006C154.871 178.975 157.627 177.833 160.5 177.833H169.167C172.04 177.833 174.795 178.975 176.827 181.006C178.859 183.038 180 185.793 180 188.667V195.167ZM164.833 156.167C166.119 156.167 167.376 156.548 168.445 157.262C169.513 157.976 170.347 158.992 170.839 160.179C171.331 161.367 171.459 162.674 171.208 163.935C170.958 165.196 170.339 166.354 169.43 167.263C168.52 168.172 167.362 168.791 166.101 169.042C164.841 169.293 163.534 169.164 162.346 168.672C161.158 168.18 160.143 167.347 159.429 166.278C158.715 165.209 158.333 163.952 158.333 162.667C158.333 160.943 159.018 159.289 160.237 158.07C161.456 156.851 163.109 156.167 164.833 156.167ZM164.833 151.833C162.691 151.833 160.596 152.469 158.815 153.659C157.033 154.849 155.645 156.541 154.825 158.521C154.005 160.5 153.79 162.679 154.208 164.78C154.626 166.882 155.658 168.812 157.173 170.327C158.688 171.842 160.618 172.874 162.72 173.292C164.821 173.71 167 173.495 168.979 172.675C170.959 171.855 172.651 170.467 173.841 168.685C175.031 166.904 175.667 164.809 175.667 162.667C175.667 159.793 174.525 157.038 172.494 155.006C170.462 152.975 167.707 151.833 164.833 151.833ZM145.333 177.833H141V171.333C141 169.609 140.315 167.956 139.096 166.737C137.877 165.518 136.224 164.833 134.5 164.833H125.833C124.109 164.833 122.456 165.518 121.237 166.737C120.018 167.956 119.333 169.609 119.333 171.333V177.833H115V171.333C115 168.46 116.141 165.705 118.173 163.673C120.205 161.641 122.96 160.5 125.833 160.5H134.5C137.373 160.5 140.129 161.641 142.16 163.673C144.192 165.705 145.333 168.46 145.333 171.333V177.833ZM130.167 138.833C131.452 138.833 132.709 139.215 133.778 139.929C134.847 140.643 135.68 141.658 136.172 142.846C136.664 144.034 136.793 145.341 136.542 146.601C136.291 147.862 135.672 149.02 134.763 149.93C133.854 150.839 132.696 151.458 131.435 151.708C130.174 151.959 128.867 151.831 127.679 151.339C126.492 150.847 125.476 150.013 124.762 148.945C124.048 147.876 123.667 146.619 123.667 145.333C123.667 143.609 124.351 141.956 125.57 140.737C126.789 139.518 128.443 138.833 130.167 138.833ZM130.167 134.5C128.024 134.5 125.93 135.135 124.148 136.326C122.366 137.516 120.978 139.208 120.158 141.188C119.338 143.167 119.123 145.345 119.541 147.447C119.959 149.548 120.991 151.479 122.506 152.994C124.021 154.509 125.952 155.54 128.053 155.959C130.155 156.377 132.333 156.162 134.312 155.342C136.292 154.522 137.984 153.134 139.174 151.352C140.365 149.57 141 147.476 141 145.333C141 142.46 139.859 139.705 137.827 137.673C135.795 135.641 133.04 134.5 130.167 134.5Z" fill="url(#paint2_linear_10205_69521)"/>
<path d="M84.125 132.875H108.5V142.625H84.125V132.875ZM84.125 108.5H142.625V118.25H84.125V108.5ZM84.125 84.125H142.625V93.875H84.125V84.125Z" stroke="#025BD4" stroke-width="2" mask="url(#path-2-inside-1_10205_69521)"/>
<path d="M157.25 59.75H69.5C66.9165 59.7577 64.441 60.7874 62.6142 62.6142C60.7874 64.441 59.7577 66.9165 59.75 69.5V186.5C59.7577 189.083 60.7874 191.559 62.6142 193.386C64.441 195.213 66.9165 196.242 69.5 196.25H108.5V186.5H69.5V69.5H157.25V123.125H167V69.5C166.992 66.9165 165.963 64.441 164.136 62.6142C162.309 60.7874 159.833 59.7577 157.25 59.75Z" stroke="#025BD4" stroke-width="2" mask="url(#path-2-inside-1_10205_69521)"/>
<path d="M180 195.167H175.667V188.667C175.667 186.943 174.982 185.289 173.763 184.07C172.544 182.851 170.891 182.167 169.167 182.167H160.5C158.776 182.167 157.123 182.851 155.904 184.07C154.685 185.289 154 186.943 154 188.667V195.167H149.667V188.667C149.667 185.793 150.808 183.038 152.84 181.006C154.871 178.975 157.627 177.833 160.5 177.833H169.167C172.04 177.833 174.795 178.975 176.827 181.006C178.859 183.038 180 185.793 180 188.667V195.167ZM164.833 156.167C166.119 156.167 167.376 156.548 168.445 157.262C169.513 157.976 170.347 158.992 170.839 160.179C171.331 161.367 171.459 162.674 171.208 163.935C170.958 165.196 170.339 166.354 169.43 167.263C168.52 168.172 167.362 168.791 166.101 169.042C164.841 169.293 163.534 169.164 162.346 168.672C161.158 168.18 160.143 167.347 159.429 166.278C158.715 165.209 158.333 163.952 158.333 162.667C158.333 160.943 159.018 159.289 160.237 158.07C161.456 156.851 163.109 156.167 164.833 156.167ZM164.833 151.833C162.691 151.833 160.596 152.469 158.815 153.659C157.033 154.849 155.645 156.541 154.825 158.521C154.005 160.5 153.79 162.679 154.208 164.78C154.626 166.882 155.658 168.812 157.173 170.327C158.688 171.842 160.618 172.874 162.72 173.292C164.821 173.71 167 173.495 168.979 172.675C170.959 171.855 172.651 170.467 173.841 168.685C175.031 166.904 175.667 164.809 175.667 162.667C175.667 159.793 174.525 157.038 172.494 155.006C170.462 152.975 167.707 151.833 164.833 151.833ZM145.333 177.833H141V171.333C141 169.609 140.315 167.956 139.096 166.737C137.877 165.518 136.224 164.833 134.5 164.833H125.833C124.109 164.833 122.456 165.518 121.237 166.737C120.018 167.956 119.333 169.609 119.333 171.333V177.833H115V171.333C115 168.46 116.141 165.705 118.173 163.673C120.205 161.641 122.96 160.5 125.833 160.5H134.5C137.373 160.5 140.129 161.641 142.16 163.673C144.192 165.705 145.333 168.46 145.333 171.333V177.833ZM130.167 138.833C131.452 138.833 132.709 139.215 133.778 139.929C134.847 140.643 135.68 141.658 136.172 142.846C136.664 144.034 136.793 145.341 136.542 146.601C136.291 147.862 135.672 149.02 134.763 149.93C133.854 150.839 132.696 151.458 131.435 151.708C130.174 151.959 128.867 151.831 127.679 151.339C126.492 150.847 125.476 150.013 124.762 148.945C124.048 147.876 123.667 146.619 123.667 145.333C123.667 143.609 124.351 141.956 125.57 140.737C126.789 139.518 128.443 138.833 130.167 138.833ZM130.167 134.5C128.024 134.5 125.93 135.135 124.148 136.326C122.366 137.516 120.978 139.208 120.158 141.188C119.338 143.167 119.123 145.345 119.541 147.447C119.959 149.548 120.991 151.479 122.506 152.994C124.021 154.509 125.952 155.54 128.053 155.959C130.155 156.377 132.333 156.162 134.312 155.342C136.292 154.522 137.984 153.134 139.174 151.352C140.365 149.57 141 147.476 141 145.333C141 142.46 139.859 139.705 137.827 137.673C135.795 135.641 133.04 134.5 130.167 134.5Z" stroke="#025BD4" stroke-width="2" mask="url(#path-2-inside-1_10205_69521)"/>
<defs>
<linearGradient id="paint0_linear_10205_69521" x1="59.75" y1="166.22" x2="184.894" y2="115.507" gradientUnits="userSpaceOnUse">
<stop stop-color="#0575E6"/>
<stop offset="1" stop-color="#021B79"/>
</linearGradient>
<linearGradient id="paint1_linear_10205_69521" x1="59.75" y1="166.22" x2="184.894" y2="115.507" gradientUnits="userSpaceOnUse">
<stop stop-color="#0575E6"/>
<stop offset="1" stop-color="#021B79"/>
</linearGradient>
<linearGradient id="paint2_linear_10205_69521" x1="59.75" y1="166.22" x2="184.894" y2="115.507" gradientUnits="userSpaceOnUse">
<stop stop-color="#0575E6"/>
<stop offset="1" stop-color="#021B79"/>
</linearGradient>
</defs>
</svg>
