<svg width="256" height="256" viewBox="0 0 256 256" fill="none" xmlns="http://www.w3.org/2000/svg">
<rect width="256" height="256" rx="128" fill="#DBE9FE"/>
<path d="M132.987 119.44L130.178 122.248L67.7784 184.648C66.8055 185.621 66.8055 187.249 67.7784 188.221L67.7813 188.224C68.0111 188.455 68.284 188.637 68.5845 188.762C68.5845 188.762 68.5846 188.762 68.5846 188.762L67.0519 192.457C67.8383 192.783 68.6812 192.951 69.5325 192.951C70.3838 192.951 71.2267 192.783 72.013 192.457L132.987 119.44ZM132.987 119.44L130.198 116.612M132.987 119.44L130.198 116.612M130.198 116.612L121.098 107.382L118.29 104.533M130.198 116.612L118.29 104.533M118.29 104.533L115.441 107.342M118.29 104.533L115.441 107.342M115.441 107.342L110.761 111.957L110.75 111.968M115.441 107.342L110.75 111.968M110.75 111.968L110.739 111.979M110.75 111.968L110.739 111.979M110.739 111.979C110.509 112.21 110.236 112.392 109.935 112.517C109.635 112.642 109.313 112.706 108.987 112.706C108.662 112.706 108.34 112.642 108.04 112.517C107.739 112.392 107.466 112.21 107.236 111.979L107.233 111.976M110.739 111.979L107.233 111.976M107.233 111.976L102.618 107.361L102.616 107.359M107.233 111.976L102.616 107.359M102.616 107.359C102.385 107.129 102.203 106.856 102.078 106.555C101.953 106.255 101.889 105.933 101.889 105.607C101.889 105.282 101.953 104.96 102.078 104.659C102.203 104.359 102.385 104.086 102.616 103.856L102.618 103.853M102.616 107.359L102.618 103.853M102.618 103.853L139.408 67.0633L139.411 67.0604M102.618 103.853L139.411 67.0604M139.411 67.0604C139.641 66.8301 139.914 66.6474 140.215 66.5228C140.515 66.3981 140.837 66.334 141.162 66.334C141.488 66.334 141.81 66.3981 142.11 66.5228C142.411 66.6474 142.684 66.8301 142.914 67.0604L142.917 67.0633M139.411 67.0604L142.917 67.0633M142.917 67.0633L147.532 71.6783L150.36 68.8499L142.917 67.0633ZM180 177.5C182.387 177.5 184.676 178.448 186.364 180.136C188.052 181.824 189 184.113 189 186.5V189H132V186.5C132 184.113 132.948 181.824 134.636 180.136C136.324 178.448 138.613 177.5 141 177.5H180Z" stroke="white" stroke-width="8"/>
</svg>
