<svg width="256" height="256" viewBox="0 0 256 256" fill="none" xmlns="http://www.w3.org/2000/svg">
<rect width="256" height="256" rx="128" fill="#DBE9FE"/>
<path d="M181.625 171.875H152.375C148.496 171.875 144.776 173.416 142.034 176.159C139.291 178.901 137.75 182.621 137.75 186.5V196.25H147.5V186.5C147.5 185.207 148.014 183.967 148.928 183.053C149.842 182.139 151.082 181.625 152.375 181.625H181.625C182.918 181.625 184.158 182.139 185.072 183.053C185.986 183.967 186.5 185.207 186.5 186.5V196.25H196.25V186.5C196.25 182.621 194.709 178.901 191.966 176.159C189.224 173.416 185.504 171.875 181.625 171.875ZM147.5 147.5C147.5 151.357 148.644 155.127 150.786 158.334C152.929 161.54 155.975 164.04 159.538 165.516C163.101 166.992 167.022 167.378 170.804 166.625C174.587 165.873 178.061 164.016 180.789 161.289C183.516 158.561 185.373 155.087 186.125 151.304C186.878 147.522 186.492 143.601 185.016 140.038C183.54 136.475 181.04 133.429 177.834 131.286C174.627 129.144 170.857 128 167 128C161.828 128 156.868 130.054 153.211 133.711C149.554 137.368 147.5 142.328 147.5 147.5ZM176.75 147.5C176.75 149.428 176.178 151.313 175.107 152.917C174.035 154.52 172.513 155.77 170.731 156.508C168.95 157.246 166.989 157.439 165.098 157.063C163.207 156.686 161.469 155.758 160.106 154.394C158.742 153.031 157.814 151.293 157.437 149.402C157.061 147.511 157.254 145.55 157.992 143.769C158.73 141.987 159.98 140.465 161.583 139.393C163.187 138.322 165.072 137.75 167 137.75C169.586 137.75 172.066 138.777 173.894 140.606C175.723 142.434 176.75 144.914 176.75 147.5ZM79.25 152.375V147.5H69.5V152.375C69.5 161.426 73.0953 170.105 79.495 176.505C85.8947 182.905 94.5745 186.5 103.625 186.5H118.25V176.75H103.625C97.1603 176.75 90.9605 174.182 86.3893 169.611C81.8181 165.04 79.25 158.84 79.25 152.375ZM142.625 98.75H176.75V108.5H142.625V98.75ZM142.625 79.25H191.375V89H142.625V79.25ZM142.625 59.75H191.375V69.5H142.625V59.75ZM103.625 103.625H74.375C70.4962 103.625 66.7763 105.166 64.0336 107.909C61.2908 110.651 59.75 114.371 59.75 118.25V128H69.5V118.25C69.5 116.957 70.0136 115.717 70.9279 114.803C71.8421 113.889 73.0821 113.375 74.375 113.375H103.625C104.918 113.375 106.158 113.889 107.072 114.803C107.986 115.717 108.5 116.957 108.5 118.25V128H118.25V118.25C118.25 114.371 116.709 110.651 113.966 107.909C111.224 105.166 107.504 103.625 103.625 103.625ZM89 98.75C92.8567 98.75 96.6269 97.6063 99.8336 95.4637C103.04 93.321 105.54 90.2755 107.016 86.7123C108.492 83.1492 108.878 79.2284 108.125 75.4457C107.373 71.6631 105.516 68.1885 102.789 65.4614C100.061 62.7343 96.5869 60.8771 92.8043 60.1247C89.0216 59.3723 85.1008 59.7584 81.5377 61.2344C77.9745 62.7103 74.929 65.2096 72.7863 68.4164C70.6437 71.6231 69.5 75.3933 69.5 79.25C69.5 84.4217 71.5545 89.3816 75.2114 93.0386C78.8684 96.6955 83.8283 98.75 89 98.75ZM89 69.5C90.9284 69.5 92.8134 70.0718 94.4168 71.1432C96.0202 72.2145 97.2699 73.7373 98.0078 75.5188C98.7458 77.3004 98.9389 79.2608 98.5627 81.1521C98.1865 83.0435 97.2579 84.7807 95.8943 86.1443C94.5307 87.5079 92.7934 88.4365 90.9021 88.8127C89.0108 89.1889 87.0504 88.9958 85.2688 88.2578C83.4873 87.5199 81.9645 86.2702 80.8932 84.6668C79.8218 83.0634 79.25 81.1784 79.25 79.25C79.25 76.6641 80.2772 74.1842 82.1057 72.3557C83.9342 70.5272 86.4141 69.5 89 69.5Z" fill="url(#paint0_linear_10021_60945)"/>
<defs>
<linearGradient id="paint0_linear_10021_60945" x1="59.75" y1="166.22" x2="196.25" y2="103.43" gradientUnits="userSpaceOnUse">
<stop stop-color="#0575E6"/>
<stop offset="1" stop-color="#021B79"/>
</linearGradient>
</defs>
</svg>
