<svg width="350" height="359" viewBox="0 0 350 359" fill="none" xmlns="http://www.w3.org/2000/svg">
<circle cx="175" cy="184" r="174.5" stroke="white"/>
<circle cx="175" cy="184" r="124.5" stroke="white"/>
<path d="M120.718 162.031C121.984 162.031 123.188 162.278 124.331 162.772C125.473 163.266 126.461 163.946 127.326 164.779C128.191 165.613 128.87 166.632 129.364 167.775C129.858 168.917 130.136 170.122 130.136 171.388V195.228C130.136 196.525 129.889 197.76 129.395 198.934C128.901 200.107 128.222 201.095 127.388 201.96C126.523 202.825 125.535 203.504 124.392 203.998C123.25 204.523 122.015 204.77 120.718 204.77H117.166C116.827 204.77 116.58 204.678 116.394 204.461C116.209 204.245 116.116 203.998 116.116 203.72V203.597C116.116 203.319 116.209 203.072 116.394 202.856C116.58 202.639 116.827 202.547 117.166 202.547H120.718C121.737 202.547 122.694 202.361 123.559 201.96C124.423 201.559 125.195 201.064 125.875 200.416C126.554 199.767 127.079 198.995 127.45 198.1C127.851 197.204 128.036 196.247 128.036 195.228V171.388C128.036 170.369 127.851 169.411 127.45 168.547C127.048 167.682 126.523 166.91 125.875 166.262C125.195 165.613 124.423 165.088 123.559 164.718C122.694 164.316 121.737 164.131 120.718 164.131L117.166 164.069H116.981H114.418C113.739 164.069 113.121 164.316 112.596 164.841C112.071 165.366 111.793 165.984 111.793 166.694V203.628C111.793 203.906 111.7 204.153 111.515 204.369C111.33 204.585 111.083 204.678 110.805 204.678C110.465 204.678 110.218 204.585 110.033 204.369C109.848 204.153 109.755 203.906 109.755 203.628V166.663C109.755 165.366 110.218 164.254 111.114 163.359C112.009 162.463 113.121 162 114.418 162H117.043H117.166H120.718V162.031Z" fill="white"/>
<path d="M136.128 163.513C136.035 163.173 136.066 162.864 136.19 162.524C136.313 162.185 136.56 162.03 136.931 162.03C137.085 162.03 137.332 162.092 137.61 162.185C137.888 162.277 138.074 162.586 138.166 163.08L145.207 199.335L152.248 163.204C152.372 162.648 152.557 162.308 152.835 162.185C153.113 162.092 153.329 162.03 153.545 162.03C153.916 162.061 154.163 162.216 154.286 162.494C154.41 162.772 154.379 163.235 154.224 163.945L146.535 203.627C146.411 204.214 146.195 204.523 145.917 204.646C145.639 204.739 145.392 204.801 145.238 204.801C145.114 204.801 144.898 204.739 144.589 204.646C144.281 204.554 144.095 204.214 144.003 203.627L136.128 163.513Z" fill="white"/>
<path d="M169.416 162.03C170.713 162.03 171.948 162.277 173.091 162.772C174.233 163.266 175.221 163.945 176.086 164.779C176.951 165.613 177.63 166.632 178.093 167.774C178.587 168.917 178.834 170.152 178.834 171.449V195.289C178.834 196.586 178.587 197.821 178.093 198.964C177.599 200.107 176.92 201.095 176.086 201.96C175.252 202.824 174.233 203.504 173.091 203.998C171.948 204.523 170.713 204.77 169.416 204.77C168.119 204.77 166.884 204.523 165.741 203.998C164.598 203.504 163.61 202.793 162.745 201.96C161.881 201.126 161.201 200.107 160.738 198.964C160.244 197.821 159.997 196.586 159.997 195.289V171.449C159.997 170.152 160.244 168.917 160.738 167.774C161.232 166.632 161.912 165.643 162.745 164.779C163.579 163.914 164.598 163.266 165.741 162.772C166.884 162.277 168.088 162.03 169.416 162.03ZM176.735 171.449C176.735 170.43 176.549 169.473 176.148 168.608C175.746 167.743 175.221 166.971 174.573 166.292C173.894 165.613 173.121 165.088 172.257 164.717C171.392 164.316 170.435 164.13 169.416 164.13C168.397 164.13 167.439 164.316 166.575 164.717C165.71 165.118 164.938 165.643 164.259 166.292C163.579 166.971 163.054 167.743 162.684 168.608C162.282 169.473 162.097 170.43 162.097 171.449V195.289C162.097 196.308 162.282 197.266 162.684 198.161C163.085 199.057 163.61 199.829 164.259 200.508C164.938 201.187 165.71 201.712 166.575 202.083C167.439 202.485 168.397 202.67 169.416 202.67C170.435 202.67 171.392 202.485 172.257 202.083C173.121 201.682 173.894 201.157 174.573 200.508C175.252 199.829 175.777 199.057 176.148 198.161C176.549 197.266 176.735 196.308 176.735 195.289V171.449Z" fill="white"/>
<path d="M200.634 202.639C200.912 202.639 201.159 202.732 201.375 202.917C201.591 203.103 201.684 203.35 201.684 203.689C201.684 203.967 201.591 204.214 201.375 204.43C201.159 204.647 200.912 204.739 200.634 204.739H196.156V204.801C194.797 204.801 193.562 204.554 192.389 204.091C191.215 203.628 190.196 202.979 189.301 202.145C188.405 201.312 187.695 200.323 187.201 199.15C186.676 197.976 186.429 196.741 186.429 195.382V171.48C186.429 170.214 186.676 169.01 187.139 167.898C187.602 166.787 188.251 165.798 189.054 164.934C189.857 164.069 190.814 163.39 191.895 162.865C192.976 162.34 194.149 162.062 195.415 162H195.539H195.847H196.156H200.634C200.912 162 201.159 162.093 201.375 162.309C201.591 162.525 201.684 162.772 201.684 163.05C201.684 163.39 201.591 163.637 201.375 163.822C201.159 164.007 200.912 164.1 200.634 164.1H196.156V164.162C196.064 164.162 196.033 164.162 196.002 164.131C195.971 164.1 195.94 164.1 195.847 164.1C194.828 164.1 193.871 164.285 193.006 164.687C192.142 165.088 191.37 165.613 190.69 166.262C190.011 166.941 189.486 167.713 189.115 168.609C188.714 169.504 188.529 170.461 188.529 171.48V195.382C188.529 196.371 188.714 197.266 189.084 198.131C189.455 198.995 189.949 199.737 190.567 200.385C191.184 201.034 191.895 201.559 192.728 201.96C193.562 202.361 194.458 202.578 195.446 202.639H200.634Z" fill="white"/>
<path d="M227.724 203.01C227.878 203.689 227.909 204.153 227.754 204.338C227.6 204.523 227.384 204.647 227.044 204.678C226.766 204.678 226.488 204.585 226.241 204.43C225.994 204.276 225.809 203.844 225.685 203.133L224.45 197.081L218.953 168.053L214.074 193.684L213.765 195.043L212.19 203.35C212.098 203.936 211.912 204.307 211.635 204.523C211.357 204.739 211.11 204.801 210.893 204.708C210.677 204.708 210.492 204.585 210.276 204.369C210.06 204.153 209.998 203.782 210.091 203.226L217.842 162.741C217.934 162.371 218.058 162.154 218.212 162.093C218.367 162.031 218.521 162 218.645 162H219.2C219.324 162 219.478 162.031 219.633 162.062C219.787 162.093 219.911 162.34 220.003 162.741L227.724 203.01Z" fill="white"/>
<path d="M251.985 192.726C252.325 193.962 252.418 195.166 252.294 196.339C252.171 197.513 251.893 198.625 251.46 199.613C251.028 200.601 250.441 201.497 249.7 202.269C248.959 203.041 248.094 203.658 247.106 204.091C246.89 204.183 246.643 204.276 246.365 204.399C246.087 204.523 245.84 204.585 245.624 204.585C245.284 204.585 245.006 204.461 244.759 204.245C244.512 204.029 244.389 203.751 244.389 203.411C244.389 202.855 244.667 202.454 245.192 202.238C245.408 202.145 245.593 202.083 245.747 202.022C245.902 201.96 246.087 201.898 246.303 201.805C247.477 201.157 248.403 200.2 249.083 198.933C249.762 197.667 250.04 196.37 249.978 195.012C249.855 193.313 249.422 191.831 248.65 190.596C247.909 189.36 246.983 188.28 245.933 187.322C244.883 186.365 243.709 185.469 242.443 184.666C241.177 183.864 239.973 182.968 238.799 182.042C237.626 181.115 236.576 180.034 235.649 178.861C234.723 177.687 234.044 176.267 233.642 174.568C233.302 173.333 233.21 172.129 233.302 170.955C233.395 169.782 233.673 168.67 234.136 167.682C234.599 166.694 235.186 165.798 235.927 165.026C236.668 164.254 237.533 163.636 238.521 163.204C239.942 162.556 241.362 162.216 242.752 162.216C244.79 162.216 246.581 162.803 248.094 164.007C249.638 165.211 250.719 166.786 251.43 168.732C251.553 169.072 251.584 169.319 251.522 169.504C251.46 169.689 251.368 169.813 251.244 169.905C251.121 169.998 250.997 170.029 250.874 170.06C250.75 170.091 250.658 170.091 250.627 170.091C250.41 170.091 250.163 170.029 249.824 169.936C249.484 169.844 249.237 169.504 249.021 168.979C248.496 167.682 247.662 166.601 246.581 165.767C245.47 164.933 244.203 164.501 242.783 164.501C241.671 164.501 240.529 164.81 239.293 165.428C238.12 166.076 237.162 167.033 236.483 168.299C235.804 169.566 235.495 170.863 235.618 172.221C235.773 173.92 236.236 175.371 236.977 176.576C237.718 177.749 238.583 178.83 239.633 179.756C240.683 180.683 241.826 181.547 243.061 182.35C244.296 183.153 245.5 184.018 246.674 184.944C247.847 185.871 248.897 186.952 249.855 188.187C250.843 189.484 251.553 190.966 251.985 192.726Z" fill="white"/>
<path d="M274.995 163.142C274.995 163.358 274.933 163.574 274.779 163.852C274.625 164.13 274.285 164.223 273.698 164.192H259.709C259.431 164.192 259.184 164.099 258.968 163.883C258.752 163.667 258.659 163.42 258.659 163.08C258.659 162.802 258.752 162.555 258.968 162.339C259.184 162.123 259.431 162.03 259.709 162.03H273.76C274.316 162.03 274.686 162.154 274.81 162.401C274.933 162.648 274.995 162.895 274.995 163.142ZM273.76 182.072C274.316 182.072 274.686 182.227 274.81 182.535C274.933 182.844 274.995 183.06 274.995 183.184C274.995 183.307 274.933 183.524 274.841 183.832C274.748 184.141 274.378 184.296 273.76 184.296H259.709C259.431 184.296 259.184 184.203 258.968 183.987C258.752 183.771 258.659 183.524 258.659 183.184C258.659 182.844 258.752 182.597 258.968 182.381C259.184 182.165 259.431 182.072 259.709 182.072H273.76ZM274.995 203.658C274.995 203.442 274.903 203.195 274.748 202.917C274.594 202.639 274.192 202.515 273.575 202.546H259.709C259.431 202.546 259.184 202.639 258.968 202.855C258.752 203.071 258.659 203.318 258.659 203.658C258.659 203.998 258.752 204.245 258.968 204.461C259.184 204.677 259.431 204.77 259.709 204.77H273.575C274.254 204.77 274.686 204.646 274.81 204.368C274.933 204.121 274.995 203.874 274.995 203.658Z" fill="white"/>
<path d="M100.168 185.809C100.786 185.655 101.372 185.284 101.99 184.574C100.137 185.562 97.9755 184.79 95.9373 183.925C95.3197 183.648 94.733 183.493 94.2389 183.4L94.1771 183.092L90.3479 163.081C90.2552 162.679 90.1317 162.432 89.9773 162.401C89.8229 162.37 89.6685 162.34 89.5449 162.34H88.9891C88.8656 162.34 88.7112 162.37 88.5568 162.432C88.4023 162.494 88.2788 162.71 88.1862 163.081L84.4496 182.567C84.4496 182.567 84.9128 182.412 85.5613 182.412C85.7157 182.412 85.8701 182.412 85.9936 182.443C86.3333 182.474 86.6421 182.227 86.7039 181.918L89.267 168.423L91.9846 182.814C92.0463 183.123 91.861 183.431 91.5831 183.524C90.7802 183.771 89.9773 184.296 89.267 185.284C85.5613 180.343 80.4659 186.736 76.5749 184.667C77.2234 185.408 77.8411 185.778 78.4587 185.933L75 197.235C75.4323 199.459 79.2307 200.014 81.2997 198.903L81.238 199.273L80.4042 203.628C80.3115 204.153 80.3733 204.523 80.5895 204.77C80.8056 204.986 80.9909 205.11 81.2071 205.11C81.4232 205.202 81.6703 205.141 81.9482 204.925C82.2262 204.708 82.4114 204.338 82.5041 203.751L84.079 195.444L84.3878 194.085L85.9319 185.933C85.9936 185.531 86.4569 185.315 86.7966 185.5C87.198 185.686 87.5686 185.964 87.9083 186.365C88.4332 186.983 87.5377 188.063 89.2053 188.836H89.2361H89.267C90.9346 188.063 90.039 186.983 90.564 186.365C91.9228 184.821 93.7756 185.099 95.4123 185.346C97.049 185.593 98.2843 186.025 99.3651 186.025L96.9255 193.962C96.802 194.363 96.2461 194.332 96.1535 193.931L94.6403 186.056C94.6403 186.056 94.1462 185.933 93.5286 185.933C92.911 185.933 92.5404 186.118 92.5404 186.118L94.7021 197.575L95.9373 203.628C96.0608 204.307 96.2461 204.739 96.4932 204.925C96.7402 205.079 96.9873 205.172 97.2961 205.172C97.6358 205.141 97.8519 205.017 98.0064 204.832C98.1608 204.647 98.1299 204.214 97.9755 203.504L97.1726 199.242L97.1108 198.841C99.1489 200.076 103.163 199.582 103.596 197.266L100.168 185.809ZM81.5777 197.575C80.9292 197.76 79.9101 197.853 78.8601 197.853C77.1926 197.853 75.4941 197.606 75.525 197.112L78.8601 186.211L81.8865 196.031L82.2261 197.112C82.2261 197.297 81.9791 197.451 81.5777 197.575ZM83.832 185.964L82.3806 193.529C82.2879 193.931 81.732 193.962 81.6085 193.56L79.2616 185.933C79.9101 185.933 80.6203 185.778 81.4541 185.593C81.4541 185.593 82.1953 185.408 83.1217 185.253C83.554 185.161 83.8937 185.531 83.832 185.964ZM103.04 197.328C103.009 197.359 102.978 197.39 102.947 197.39C102.916 197.39 102.916 197.42 102.886 197.42C102.855 197.451 102.793 197.451 102.731 197.482C102.577 197.544 102.422 197.575 102.206 197.637C101.341 197.822 100.014 197.884 98.871 197.822C98.8093 197.822 98.7784 197.822 98.7166 197.822C98.5622 197.822 98.4078 197.791 98.2843 197.791C98.099 197.76 97.9137 197.76 97.7593 197.729C97.6667 197.729 97.6049 197.698 97.5122 197.698C97.2961 197.667 97.0799 197.606 96.9255 197.544H96.8946C96.8329 197.513 96.802 197.513 96.7711 197.482C96.7402 197.482 96.7093 197.451 96.7093 197.451C96.6785 197.451 96.6785 197.42 96.6476 197.42C96.6167 197.42 96.6167 197.39 96.5858 197.39L96.5549 197.359L96.5241 197.328C96.5241 197.328 96.5241 197.297 96.4932 197.297V197.266C96.4932 197.235 96.4932 197.204 96.4932 197.204L96.7402 196.432L99.8592 186.303L103.194 197.204C103.163 197.204 103.133 197.266 103.04 197.328Z" fill="url(#paint0_linear_12372_97032)"/>
<rect x="203" width="48" height="48" rx="24" fill="white"/>
<path d="M230.751 20.7501L230.606 20.5H230.318H228.5C227.949 20.5 227.5 20.0513 227.5 19.5V15C227.5 14.4483 227.949 14 228.5 14H236C236.551 14 237 14.4489 237 15V19.5C237 20.0517 236.552 20.5 236 20.5H234.25V20H236H236.5V19.5V15V14.5H236H228.5H228V15V19.5V20H228.5H230.894L232.232 22.3169L231.799 22.567L230.751 20.7501ZM233.5 28.5V25.25H234V28.5C234 29.163 233.737 29.7989 233.268 30.2678C232.799 30.7366 232.163 31 231.5 31H228.183H227.894L227.75 31.25L225.835 34.567L225.402 34.317L227.606 30.5H231.5C232.031 30.5 232.539 30.2893 232.914 29.9142C233.29 29.5391 233.5 29.0304 233.5 28.5Z" fill="url(#paint1_linear_12372_97032)" stroke="url(#paint2_linear_12372_97032)"/>
<path d="M222.5 25.5C222.914 25.5 223.25 25.1642 223.25 24.75C223.25 24.3358 222.914 24 222.5 24C222.086 24 221.75 24.3358 221.75 24.75C221.75 25.1642 222.086 25.5 222.5 25.5Z" fill="url(#paint3_linear_12372_97032)"/>
<path d="M225.5 25.5C225.914 25.5 226.25 25.1642 226.25 24.75C226.25 24.3358 225.914 24 225.5 24C225.086 24 224.75 24.3358 224.75 24.75C224.75 25.1642 225.086 25.5 225.5 25.5Z" fill="url(#paint4_linear_12372_97032)"/>
<path d="M228.5 25.5C228.914 25.5 229.25 25.1642 229.25 24.75C229.25 24.3358 228.914 24 228.5 24C228.086 24 227.75 24.3358 227.75 24.75C227.75 25.1642 228.086 25.5 228.5 25.5Z" fill="url(#paint5_linear_12372_97032)"/>
<path d="M224 31.5H219.5C218.704 31.5 217.941 31.1839 217.379 30.6213C216.816 30.0587 216.5 29.2956 216.5 28.5V21C216.5 20.2044 216.816 19.4413 217.379 18.8787C217.941 18.3161 218.704 18 219.5 18H225.5V19.5H219.5C219.102 19.5 218.721 19.658 218.439 19.9393C218.158 20.2206 218 20.6022 218 21V28.5C218 28.8978 218.158 29.2794 218.439 29.5607C218.721 29.842 219.102 30 219.5 30H224V31.5Z" fill="url(#paint6_linear_12372_97032)"/>
<rect x="6" y="91" width="48" height="48" rx="24" fill="white"/>
<path d="M23 116.25H28V116.75H23V116.25Z" fill="url(#paint7_linear_12372_97032)" stroke="url(#paint8_linear_12372_97032)"/>
<path d="M20.25 117.25C20.6642 117.25 21 116.914 21 116.5C21 116.086 20.6642 115.75 20.25 115.75C19.8358 115.75 19.5 116.086 19.5 116.5C19.5 116.914 19.8358 117.25 20.25 117.25Z" fill="url(#paint9_linear_12372_97032)"/>
<path d="M27.75 114.25C28.1642 114.25 28.5 113.914 28.5 113.5C28.5 113.086 28.1642 112.75 27.75 112.75C27.3358 112.75 27 113.086 27 113.5C27 113.914 27.3358 114.25 27.75 114.25Z" fill="url(#paint10_linear_12372_97032)"/>
<path d="M19.5 112.75H25.5V114.25H19.5V112.75ZM22.5 109.75H28.5V111.25H22.5V109.75Z" fill="url(#paint11_linear_12372_97032)"/>
<path d="M20.25 111.25C20.6642 111.25 21 110.914 21 110.5C21 110.086 20.6642 109.75 20.25 109.75C19.8358 109.75 19.5 110.086 19.5 110.5C19.5 110.914 19.8358 111.25 20.25 111.25Z" fill="url(#paint12_linear_12372_97032)"/>
<path d="M40.4996 124.45L34.9496 118.9C36.0746 117.4 36.7496 115.525 36.7496 113.5C36.7496 108.55 32.6996 104.5 27.7496 104.5C25.2746 104.5 22.9496 105.475 21.2246 107.35L22.3496 108.4C23.6996 106.825 25.6496 106 27.7496 106C31.8746 106 35.2496 109.375 35.2496 113.5C35.2496 117.625 31.8746 121 27.7496 121C25.4996 121 23.3996 120.025 21.9746 118.3L20.8496 119.275C22.4996 121.3 25.0496 122.5 27.7496 122.5C30.1496 122.5 32.3246 121.525 33.9746 120.025L39.4496 125.5L40.4996 124.45Z" fill="url(#paint13_linear_12372_97032)"/>
<rect x="203" y="309" width="48" height="48" rx="24" fill="white"/>
<path d="M234.383 323.116L234.384 323.117C234.619 323.351 234.75 323.668 234.75 324V338.5C234.75 338.638 234.638 338.75 234.5 338.75H226.5C226.362 338.75 226.25 338.638 226.25 338.5C226.25 338.362 226.362 338.25 226.5 338.25H233.75H234.25V337.75V324C234.25 323.804 234.173 323.612 234.031 323.469C233.888 323.327 233.696 323.25 233.5 323.25H221.5C221.035 323.25 220.591 323.435 220.263 323.762L220.263 323.762L220.262 323.763C219.935 324.091 219.75 324.535 219.75 325V325.028V325.055V325.083V325.111V325.139V325.168V325.196V325.225V325.253V325.282V325.311V325.34V325.37V325.399V325.429V325.459V325.488V325.518V325.549V325.579V325.609V325.64V325.671V325.701V325.732V325.763V325.795V325.826V325.857V325.889V325.921V325.953V325.985V326.017V326.049V326.081V326.114V326.146V326.179V326.212V326.245V326.278V326.311V326.344V326.378V326.411V326.445V326.479V326.513V326.547V326.581V326.615V326.649V326.684V326.718V326.753V326.788V326.823V326.858V326.893V326.928V326.963V326.999V327.034V327.07V327.105V327.141V327.177V327.213V327.249V327.285V327.321V327.358V327.394V327.431V327.467V327.504V327.541V327.578V327.615V327.652V327.689V327.726V327.764V327.801V327.839V327.876V327.914V327.952V327.99V328.027V328.065V328.103V328.142V328.18V328.218V328.257V328.295V328.333V328.372V328.411V328.449V328.488V328.527V328.566V328.605V328.644V328.683V328.722V328.762V328.801V328.84V328.88V328.919V328.959V328.999V329.038V329.078V329.118V329.158V329.198V329.238V329.278V329.318V329.358V329.398V329.438V329.479V329.519V329.559V329.6V329.64V329.681V329.721V329.762V329.803V329.843V329.884V329.925V329.966V330.006V330.047V330.088V330.129V330.17V330.211V330.252V330.293V330.335V330.376V330.417V330.458V330.5V330.541V330.582V330.623V330.665V330.706V330.748V330.789V330.831V330.872V330.914V330.955V330.997V331.038V331.08V331.122V331.163V331.205V331.246V331.288V331.33V331.372V331.413V331.455V331.497V331.538V331.58V331.622V331.664V331.706V331.747V331.789V331.831V331.873V331.915V331.956V331.998V332.04V332.082V332.124V332.165V332.207V332.249V332.291V332.332V332.374V332.416V332.458V332.5V332.541V332.583V332.625V332.666V332.708V332.75V332.791V332.833V332.875V332.916V332.958V333V333.041V333.083V333.124V333.166V333.207V333.249V333.29V333.331V333.373V333.414V333.455V333.497V333.538V333.579V333.621V333.662V333.703V333.744V333.785V333.826V333.867V333.908V333.949V333.99V334.031V334.072V334.112V334.153V334.194V334.234V334.275V334.316V334.356V334.397V334.437V334.477V334.518V334.558V334.598V334.638V334.679V334.719V334.759V334.799V334.839V334.879V334.918V334.958V334.998V335.037V335.077V335.117V335.156V335.195V335.235V335.274V335.313V335.352V335.391V335.43V335.469V335.508V335.547V335.586V335.624V335.663V335.702V335.74V335.778V335.817V335.855V335.893V335.931V335.969V336.007V336.045V336.083V336.12V336.158V336.195V336.233V336.27V336.307V336.345V336.382V336.419V336.456V336.492V336.529V336.566V336.602V336.639V336.675V336.711V336.748V336.784V336.82V336.856V336.891V336.927V336.963V336.998V337.034V337.069V337.104V337.139V337.174V337.209V337.244V337.278V337.313V337.347V337.382V337.416V337.45V337.484V337.518V337.552V337.585V337.619V337.652V337.686V337.719V337.752V337.785V337.818V337.851V337.883V337.916V337.948V337.98V338.012V338.044V338.076V338.108V338.14V338.171V338.202V338.234V338.265V338.296V338.327V338.357V338.388V338.418V338.449V338.479V338.509V338.539V338.568V338.598V338.627V338.657V338.686V338.715V338.744V338.773V338.801V338.83V338.858V338.886V338.914V338.942V338.97V338.997V339.025V339.052V339.079V339.106V339.133V339.16V339.186V339.212V339.239V339.265V339.29V339.316V339.342V339.367V339.392V339.417V339.442V339.467V339.491V339.516V339.54V339.564V339.588V339.612V339.635V339.659V339.682V339.705V339.728V339.75V339.773V339.795V339.817V339.839V339.861V339.883V339.904V339.925V339.946V339.967V339.988V340.009V340.029V340.049V340.069V340.089V340.108V340.128V340.147V340.166V340.185V340.203V340.222V340.24V340.258V340.276V340.294V340.311V340.328V340.345V340.362V340.379V340.395V340.412V340.428V340.444V340.459V340.475V340.49V340.505V340.52V340.534V340.549V340.563V340.577V340.591V340.604V340.618V340.631V340.644V340.656V340.669V340.681V340.693V340.705V340.717V340.728V340.739V340.75V340.761V340.771V340.782V340.792V340.801V340.811V340.82V340.83V340.838V340.847V340.856V340.864V340.872V340.88V340.887V340.894V340.901V340.908V340.915V340.921V340.927V340.933V340.939V340.944V340.949V340.954V340.959V340.963V340.967V340.971V340.975V340.978V340.982V340.985V340.987V340.99V340.992V340.994V340.995V340.997V340.998V340.999V340.999V341C219.75 341 219.75 341 220.25 341H219.75C219.75 341.138 219.638 341.25 219.5 341.25C219.362 341.25 219.25 341.138 219.25 341H218.75C219.25 341 219.25 341 219.25 341V340.999V340.999V340.998V340.997V340.995V340.994V340.992V340.99V340.987V340.985V340.982V340.978V340.975V340.971V340.967V340.963V340.959V340.954V340.949V340.944V340.939V340.933V340.927V340.921V340.915V340.908V340.901V340.894V340.887V340.88V340.872V340.864V340.856V340.847V340.838V340.83V340.82V340.811V340.801V340.792V340.782V340.771V340.761V340.75V340.739V340.728V340.717V340.705V340.693V340.681V340.669V340.656V340.644V340.631V340.618V340.604V340.591V340.577V340.563V340.549V340.534V340.52V340.505V340.49V340.475V340.459V340.444V340.428V340.412V340.395V340.379V340.362V340.345V340.328V340.311V340.294V340.276V340.258V340.24V340.222V340.203V340.185V340.166V340.147V340.128V340.108V340.089V340.069V340.049V340.029V340.009V339.988V339.967V339.946V339.925V339.904V339.883V339.861V339.839V339.817V339.795V339.773V339.75V339.728V339.705V339.682V339.659V339.635V339.612V339.588V339.564V339.54V339.516V339.491V339.467V339.442V339.417V339.392V339.367V339.342V339.316V339.29V339.265V339.239V339.212V339.186V339.16V339.133V339.106V339.079V339.052V339.025V338.997V338.97V338.942V338.914V338.886V338.858V338.83V338.801V338.773V338.744V338.715V338.686V338.657V338.627V338.598V338.568V338.539V338.509V338.479V338.449V338.418V338.388V338.357V338.327V338.296V338.265V338.234V338.202V338.171V338.14V338.108V338.076V338.044V338.012V337.98V337.948V337.916V337.883V337.851V337.818V337.785V337.752V337.719V337.686V337.652V337.619V337.585V337.552V337.518V337.484V337.45V337.416V337.382V337.347V337.313V337.278V337.244V337.209V337.174V337.139V337.104V337.069V337.034V336.998V336.963V336.927V336.891V336.856V336.82V336.784V336.748V336.711V336.675V336.639V336.602V336.566V336.529V336.492V336.456V336.419V336.382V336.345V336.307V336.27V336.233V336.195V336.158V336.12V336.083V336.045V336.007V335.969V335.931V335.893V335.855V335.817V335.778V335.74V335.702V335.663V335.624V335.586V335.547V335.508V335.469V335.43V335.391V335.352V335.313V335.274V335.235V335.195V335.156V335.117V335.077V335.037V334.998V334.958V334.918V334.879V334.839V334.799V334.759V334.719V334.679V334.638V334.598V334.558V334.518V334.477V334.437V334.397V334.356V334.316V334.275V334.234V334.194V334.153V334.112V334.072V334.031V333.99V333.949V333.908V333.867V333.826V333.785V333.744V333.703V333.662V333.621V333.579V333.538V333.497V333.455V333.414V333.373V333.331V333.29V333.249V333.207V333.166V333.124V333.083V333.041V333V332.958V332.916V332.875V332.833V332.791V332.75V332.708V332.666V332.625V332.583V332.541V332.5V332.458V332.416V332.374V332.332V332.291V332.249V332.207V332.165V332.124V332.082V332.04V331.998V331.956V331.915V331.873V331.831V331.789V331.747V331.706V331.664V331.622V331.58V331.538V331.497V331.455V331.413V331.372V331.33V331.288V331.246V331.205V331.163V331.122V331.08V331.038V330.997V330.955V330.914V330.872V330.831V330.789V330.748V330.706V330.665V330.623V330.582V330.541V330.5V330.458V330.417V330.376V330.335V330.293V330.252V330.211V330.17V330.129V330.088V330.047V330.006V329.966V329.925V329.884V329.843V329.803V329.762V329.721V329.681V329.64V329.6V329.559V329.519V329.479V329.438V329.398V329.358V329.318V329.278V329.238V329.198V329.158V329.118V329.078V329.038V328.999V328.959V328.919V328.88V328.84V328.801V328.762V328.722V328.683V328.644V328.605V328.566V328.527V328.488V328.449V328.411V328.372V328.333V328.295V328.257V328.218V328.18V328.142V328.103V328.065V328.027V327.99V327.952V327.914V327.876V327.839V327.801V327.764V327.726V327.689V327.652V327.615V327.578V327.541V327.504V327.467V327.431V327.394V327.358V327.321V327.285V327.249V327.213V327.177V327.141V327.105V327.07V327.034V326.999V326.963V326.928V326.893V326.858V326.823V326.788V326.753V326.718V326.684V326.649V326.615V326.581V326.547V326.513V326.479V326.445V326.411V326.378V326.344V326.311V326.278V326.245V326.212V326.179V326.146V326.114V326.081V326.049V326.017V325.985V325.953V325.921V325.889V325.857V325.826V325.795V325.763V325.732V325.701V325.671V325.64V325.609V325.579V325.549V325.518V325.488V325.459V325.429V325.399V325.37V325.34V325.311V325.282V325.253V325.225V325.196V325.168V325.139V325.111V325.083V325.055V325.028V325C219.25 324.404 219.487 323.831 219.909 323.409C220.331 322.987 220.904 322.75 221.5 322.75H221.519H221.538H221.557H221.577H221.596H221.615H221.635H221.655H221.674H221.694H221.714H221.733H221.753H221.773H221.793H221.813H221.833H221.854H221.874H221.894H221.915H221.935H221.956H221.976H221.997H222.018H222.039H222.059H222.08H222.101H222.122H222.143H222.164H222.186H222.207H222.228H222.25H222.271H222.293H222.314H222.336H222.357H222.379H222.401H222.423H222.445H222.467H222.489H222.511H222.533H222.555H222.577H222.6H222.622H222.644H222.667H222.689H222.712H222.734H222.757H222.78H222.803H222.825H222.848H222.871H222.894H222.917H222.94H222.963H222.986H223.01H223.033H223.056H223.08H223.103H223.126H223.15H223.173H223.197H223.221H223.244H223.268H223.292H223.316H223.339H223.363H223.387H223.411H223.435H223.459H223.483H223.508H223.532H223.556H223.58H223.605H223.629H223.653H223.678H223.702H223.727H223.751H223.776H223.8H223.825H223.85H223.875H223.899H223.924H223.949H223.974H223.999H224.024H224.049H224.074H224.099H224.124H224.149H224.174H224.199H224.225H224.25H224.275H224.301H224.326H224.351H224.377H224.402H224.428H224.453H224.479H224.504H224.53H224.555H224.581H224.607H224.632H224.658H224.684H224.71H224.736H224.761H224.787H224.813H224.839H224.865H224.891H224.917H224.943H224.969H224.995H225.021H225.047H225.074H225.1H225.126H225.152H225.178H225.205H225.231H225.257H225.283H225.31H225.336H225.362H225.389H225.415H225.442H225.468H225.495H225.521H225.548H225.574H225.601H225.627H225.654H225.68H225.707H225.733H225.76H225.787H225.813H225.84H225.867H225.893H225.92H225.947H225.973H226H226.027H226.054H226.081H226.107H226.134H226.161H226.188H226.215H226.241H226.268H226.295H226.322H226.349H226.376H226.402H226.429H226.456H226.483H226.51H226.537H226.564H226.591H226.618H226.645H226.672H226.699H226.725H226.752H226.779H226.806H226.833H226.86H226.887H226.914H226.941H226.968H226.995H227.022H227.049H227.076H227.103H227.13H227.157H227.184H227.211H227.238H227.264H227.291H227.318H227.345H227.372H227.399H227.426H227.453H227.48H227.507H227.534H227.561H227.587H227.614H227.641H227.668H227.695H227.722H227.749H227.775H227.802H227.829H227.856H227.883H227.909H227.936H227.963H227.99H228.016H228.043H228.07H228.097H228.123H228.15H228.177H228.203H228.23H228.257H228.283H228.31H228.336H228.363H228.389H228.416H228.443H228.469H228.496H228.522H228.548H228.575H228.601H228.628H228.654H228.68H228.707H228.733H228.759H228.786H228.812H228.838H228.864H228.89H228.917H228.943H228.969H228.995H229.021H229.047H229.073H229.099H229.125H229.151H229.177H229.203H229.229H229.255H229.281H229.306H229.332H229.358H229.384H229.409H229.435H229.461H229.486H229.512H229.537H229.563H229.588H229.614H229.639H229.665H229.69H229.715H229.741H229.766H229.791H229.816H229.842H229.867H229.892H229.917H229.942H229.967H229.992H230.017H230.042H230.067H230.091H230.116H230.141H230.166H230.19H230.215H230.24H230.264H230.289H230.313H230.338H230.362H230.386H230.411H230.435H230.459H230.483H230.508H230.532H230.556H230.58H230.604H230.628H230.652H230.676H230.699H230.723H230.747H230.771H230.794H230.818H230.841H230.865H230.888H230.912H230.935H230.958H230.982H231.005H231.028H231.051H231.074H231.097H231.12H231.143H231.166H231.189H231.212H231.234H231.257H231.28H231.302H231.325H231.347H231.37H231.392H231.414H231.437H231.459H231.481H231.503H231.525H231.547H231.569H231.591H231.613H231.634H231.656H231.678H231.699H231.721H231.742H231.764H231.785H231.806H231.828H231.849H231.87H231.891H231.912H231.933H231.954H231.975H231.995H232.016H232.037H232.057H232.078H232.098H232.119H232.139H232.159H232.179H232.199H232.219H232.239H232.259H232.279H232.299H232.319H232.338H232.358H232.377H232.397H232.416H232.436H232.455H232.474H232.493H232.512H232.531H232.55H232.569H232.587H232.606H232.625H232.643H232.662H232.68H232.698H232.717H232.735H232.753H232.771H232.789H232.807H232.825H232.842H232.86H232.878H232.895H232.912H232.93H232.947H232.964H232.981H232.998H233.015H233.032H233.049H233.066H233.082H233.099H233.115H233.132H233.148H233.164H233.18H233.196H233.212H233.228H233.244H233.26H233.276H233.291H233.307H233.322H233.337H233.352H233.368H233.383H233.398H233.413H233.427H233.442H233.457H233.471H233.486H233.5C233.832 322.75 234.149 322.881 234.383 323.116Z" fill="url(#paint14_linear_12372_97032)" stroke="url(#paint15_linear_12372_97032)"/>
<path d="M219.983 342.518L219.982 342.517C219.513 342.049 219.25 341.413 219.25 340.75C219.25 339.369 220.369 338.25 221.75 338.25H226.5C226.638 338.25 226.75 338.362 226.75 338.5C226.75 338.638 226.638 338.75 226.5 338.75H221.75C220.646 338.75 219.75 339.646 219.75 340.75C219.75 341.281 219.961 341.789 220.335 342.164L220.336 342.165C220.711 342.539 221.219 342.75 221.75 342.75H233.5C233.696 342.75 233.888 342.673 234.031 342.531C234.173 342.388 234.25 342.196 234.25 342V340.5C234.25 340.362 234.362 340.25 234.5 340.25C234.638 340.25 234.75 340.362 234.75 340.5V340.5V340.5V340.5V340.5V340.5V340.5V340.501V340.501V340.501V340.501V340.501V340.502V340.502V340.502V340.502V340.503V340.503V340.503V340.504V340.504V340.504V340.505V340.505V340.506V340.506V340.507V340.507V340.508V340.508V340.509V340.509V340.51V340.51V340.511V340.512V340.512V340.513V340.514V340.514V340.515V340.516V340.516V340.517V340.518V340.519V340.52V340.52V340.521V340.522V340.523V340.524V340.525V340.526V340.527V340.528V340.529V340.53V340.531V340.532V340.533V340.534V340.535V340.536V340.537V340.538V340.539V340.54V340.542V340.543V340.544V340.545V340.546V340.548V340.549V340.55V340.551V340.553V340.554V340.555V340.557V340.558V340.56V340.561V340.562V340.564V340.565V340.567V340.568V340.57V340.571V340.573V340.574V340.576V340.577V340.579V340.58V340.582V340.584V340.585V340.587V340.589V340.59V340.592V340.594V340.595V340.597V340.599V340.601V340.602V340.604V340.606V340.608V340.61V340.611V340.613V340.615V340.617V340.619V340.621V340.623V340.625V340.627V340.629V340.63V340.632V340.634V340.637V340.639V340.641V340.643V340.645V340.647V340.649V340.651V340.653V340.655V340.657V340.66V340.662V340.664V340.666V340.668V340.671V340.673V340.675V340.677V340.68V340.682V340.684V340.686V340.689V340.691V340.693V340.696V340.698V340.701V340.703V340.705V340.708V340.71V340.713V340.715V340.718V340.72V340.722V340.725V340.727V340.73V340.733V340.735V340.738V340.74V340.743V340.745V340.748V340.751V340.753V340.756V340.758V340.761V340.764V340.766V340.769V340.772V340.775V340.777V340.78V340.783V340.786V340.788V340.791V340.794V340.797V340.799V340.802V340.805V340.808V340.811V340.814V340.817V340.819V340.822V340.825V340.828V340.831V340.834V340.837V340.84V340.843V340.846V340.849V340.852V340.855V340.858V340.861V340.864V340.867V340.87V340.873V340.876V340.879V340.882V340.885V340.888V340.892V340.895V340.898V340.901V340.904V340.907V340.91V340.914V340.917V340.92V340.923V340.926V340.93V340.933V340.936V340.939V340.943V340.946V340.949V340.952V340.956V340.959V340.962V340.966V340.969V340.972V340.976V340.979V340.982V340.986V340.989V340.992V340.996V340.999V341.003V341.006V341.009V341.013V341.016V341.02V341.023V341.027V341.03V341.034V341.037V341.041V341.044V341.047V341.051V341.055V341.058V341.062V341.065V341.069V341.072V341.076V341.079V341.083V341.086V341.09V341.094V341.097V341.101V341.104V341.108V341.112V341.115V341.119V341.123V341.126V341.13V341.134V341.137V341.141V341.145V341.148V341.152V341.156V341.159V341.163V341.167V341.171V341.174V341.178V341.182V341.186V341.189V341.193V341.197V341.201V341.204V341.208V341.212V341.216V341.22V341.223V341.227V341.231V341.235V341.239V341.242V341.246V341.25V341.254V341.258V341.262V341.266V341.269V341.273V341.277V341.281V341.285V341.289V341.293V341.297V341.3V341.304V341.308V341.312V341.316V341.32V341.324V341.328V341.332V341.336V341.34V341.344V341.348V341.352V341.356V341.36V341.364V341.367V341.371V341.375V341.379V341.383V341.387V341.391V341.395V341.399V341.403V341.407V341.411V341.415V341.419V341.423V341.428V341.432V341.436V341.44V341.444V341.448V341.452V341.456V341.46V341.464V341.468V341.472V341.476V341.48V341.484V341.488V341.492V341.496V341.5V341.505V341.509V341.513V341.517V341.521V341.525V341.529V341.533V341.537V341.541V341.545V341.55V341.554V341.558V341.562V341.566V341.57V341.574V341.578V341.583V341.587V341.591V341.595V341.599V341.603V341.607V341.611V341.616V341.62V341.624V341.628V341.632V341.636V341.64V341.644V341.649V341.653V341.657V341.661V341.665V341.669V341.673V341.678V341.682V341.686V341.69V341.694V341.698V341.703V341.707V341.711V341.715V341.719V341.723V341.727V341.732V341.736V341.74V341.744V341.748V341.752V341.756V341.761V341.765V341.769V341.773V341.777V341.781V341.786V341.79V341.794V341.798V341.802V341.806V341.81V341.815V341.819V341.823V341.827V341.831V341.835V341.839V341.844V341.848V341.852V341.856V341.86V341.864V341.868V341.873V341.877V341.881V341.885V341.889V341.893V341.897V341.902V341.906V341.91V341.914V341.918V341.922V341.926V341.93V341.934V341.939V341.943V341.947V341.951V341.955V341.959V341.963V341.967V341.971V341.975V341.98V341.984V341.988V341.992V341.996V342C234.75 342.332 234.619 342.649 234.384 342.883L234.383 342.884C234.149 343.119 233.832 343.25 233.5 343.25H233.486H233.472H233.458H233.444H233.429H233.415H233.4H233.386H233.371H233.356H233.341H233.327H233.312H233.296H233.281H233.266H233.251H233.235H233.22H233.204H233.189H233.173H233.157H233.141H233.126H233.11H233.093H233.077H233.061H233.045H233.028H233.012H232.995H232.979H232.962H232.945H232.928H232.912H232.895H232.878H232.86H232.843H232.826H232.809H232.791H232.774H232.756H232.739H232.721H232.703H232.685H232.667H232.649H232.631H232.613H232.595H232.577H232.558H232.54H232.522H232.503H232.484H232.466H232.447H232.428H232.409H232.391H232.372H232.353H232.333H232.314H232.295H232.276H232.256H232.237H232.217H232.198H232.178H232.159H232.139H232.119H232.099H232.079H232.059H232.039H232.019H231.999H231.979H231.959H231.938H231.918H231.897H231.877H231.856H231.836H231.815H231.794H231.773H231.753H231.732H231.711H231.69H231.669H231.648H231.626H231.605H231.584H231.563H231.541H231.52H231.498H231.477H231.455H231.433H231.412H231.39H231.368H231.346H231.324H231.302H231.28H231.258H231.236H231.214H231.192H231.17H231.147H231.125H231.103H231.08H231.058H231.035H231.013H230.99H230.967H230.945H230.922H230.899H230.876H230.853H230.83H230.807H230.784H230.761H230.738H230.715H230.692H230.669H230.645H230.622H230.599H230.575H230.552H230.528H230.505H230.481H230.458H230.434H230.41H230.387H230.363H230.339H230.315H230.291H230.267H230.243H230.219H230.195H230.171H230.147H230.123H230.099H230.075H230.051H230.026H230.002H229.978H229.953H229.929H229.905H229.88H229.856H229.831H229.807H229.782H229.757H229.733H229.708H229.683H229.659H229.634H229.609H229.584H229.559H229.534H229.51H229.485H229.46H229.435H229.41H229.385H229.359H229.334H229.309H229.284H229.259H229.234H229.208H229.183H229.158H229.133H229.107H229.082H229.057H229.031H229.006H228.98H228.955H228.929H228.904H228.878H228.853H228.827H228.802H228.776H228.75H228.725H228.699H228.674H228.648H228.622H228.596H228.571H228.545H228.519H228.493H228.467H228.442H228.416H228.39H228.364H228.338H228.312H228.286H228.26H228.234H228.208H228.182H228.156H228.13H228.104H228.078H228.052H228.026H228H227.974H227.948H227.922H227.896H227.87H227.844H227.817H227.791H227.765H227.739H227.713H227.687H227.66H227.634H227.608H227.582H227.556H227.529H227.503H227.477H227.451H227.425H227.398H227.372H227.346H227.32H227.293H227.267H227.241H227.214H227.188H227.162H227.136H227.109H227.083H227.057H227.031H227.004H226.978H226.952H226.925H226.899H226.873H226.847H226.82H226.794H226.768H226.741H226.715H226.689H226.663H226.636H226.61H226.584H226.558H226.531H226.505H226.479H226.453H226.427H226.4H226.374H226.348H226.322H226.296H226.269H226.243H226.217H226.191H226.165H226.139H226.113H226.086H226.06H226.034H226.008H225.982H225.956H225.93H225.904H225.878H225.852H225.826H225.8H225.774H225.748H225.722H225.696H225.67H225.644H225.618H225.593H225.567H225.541H225.515H225.489H225.463H225.438H225.412H225.386H225.36H225.335H225.309H225.283H225.258H225.232H225.207H225.181H225.155H225.13H225.104H225.079H225.053H225.028H225.002H224.977H224.952H224.926H224.901H224.876H224.85H224.825H224.8H224.774H224.749H224.724H224.699H224.674H224.649H224.624H224.599H224.573H224.548H224.523H224.499H224.474H224.449H224.424H224.399H224.374H224.349H224.325H224.3H224.275H224.251H224.226H224.201H224.177H224.152H224.128H224.103H224.079H224.054H224.03H224.006H223.981H223.957H223.933H223.909H223.885H223.86H223.836H223.812H223.788H223.764H223.74H223.716H223.693H223.669H223.645H223.621H223.597H223.574H223.55H223.526H223.503H223.479H223.456H223.432H223.409H223.386H223.362H223.339H223.316H223.293H223.269H223.246H223.223H223.2H223.177H223.154H223.131H223.108H223.086H223.063H223.04H223.017H222.995H222.972H222.95H222.927H222.905H222.882H222.86H222.838H222.815H222.793H222.771H222.749H222.727H222.705H222.683H222.661H222.639H222.617H222.595H222.574H222.552H222.53H222.509H222.487H222.466H222.444H222.423H222.402H222.381H222.359H222.338H222.317H222.296H222.275H222.254H222.233H222.212H222.192H222.171H222.15H222.13H222.109H222.089H222.068H222.048H222.028H222.008H221.987H221.967H221.947H221.927H221.907H221.887H221.868H221.848H221.828H221.809H221.789H221.769H221.75C221.087 343.25 220.451 342.987 219.983 342.518ZM223.111 335.308L223.11 335.309C223.014 335.406 222.856 335.407 222.758 335.308C222.66 335.211 222.66 335.052 222.758 334.955L225.586 332.127C225.683 332.029 225.842 332.029 225.939 332.127C226.037 332.224 226.037 332.383 225.94 332.48C225.939 332.48 225.939 332.48 225.939 332.48L223.111 335.308Z" fill="url(#paint16_linear_12372_97032)" stroke="url(#paint17_linear_12372_97032)"/>
<path fill-rule="evenodd" clip-rule="evenodd" d="M225.674 327.089C225.257 327.505 224.457 328.306 224.058 328.707C223.691 329.074 223.59 329.633 223.807 330.107C223.807 330.108 223.808 330.109 223.808 330.11C224.683 332.001 226.063 333.387 227.956 334.261C227.957 334.262 227.959 334.263 227.96 334.263C228.435 334.479 228.994 334.377 229.362 334.007C229.761 333.609 230.56 332.809 230.976 332.391C231.374 331.993 231.456 331.376 231.175 330.887C231.174 330.886 231.173 330.884 231.173 330.883C230.193 329.201 228.868 327.865 227.181 326.889C227.18 326.888 227.178 326.887 227.177 326.886C226.687 326.607 226.072 326.69 225.674 327.089ZM225.922 328.962L226.598 328.286C227.917 329.084 228.974 330.15 229.776 331.47L228.424 332.824C227.002 332.127 225.944 331.064 225.246 329.64L225.922 328.962Z" fill="url(#paint18_linear_12372_97032)"/>
<path fill-rule="evenodd" clip-rule="evenodd" d="M226.293 326.47L223.464 329.298C223.172 329.591 223.172 330.066 223.464 330.359C223.757 330.651 224.232 330.651 224.525 330.359L227.354 327.53C227.646 327.238 227.646 326.762 227.354 326.47C227.061 326.177 226.586 326.177 226.293 326.47ZM230.536 330.712L227.707 333.541C227.414 333.833 227.414 334.309 227.707 334.601C228 334.894 228.475 334.894 228.768 334.601L231.596 331.773C231.889 331.48 231.889 331.005 231.596 330.712C231.303 330.42 230.828 330.42 230.536 330.712Z" fill="url(#paint19_linear_12372_97032)"/>
<rect x="296" y="211" width="48" height="48" rx="24" fill="white"/>
<path d="M327.298 239.75C327.391 239.289 327.621 238.886 328.004 238.504L328.379 238.129C329.075 237.433 329.5 236.404 329.5 235.375C329.5 233.224 327.776 231.5 325.625 231.5C323.474 231.5 321.75 233.224 321.75 235.375C321.75 236.42 322.186 237.359 322.851 238.107L322.861 238.118L322.871 238.129L323.246 238.504C323.629 238.886 323.859 239.289 323.952 239.75H323.433C323.344 239.419 323.165 239.108 322.904 238.846L322.529 238.471C321.723 237.666 321.25 236.518 321.25 235.375C321.25 232.951 323.201 231 325.625 231C328.049 231 330 232.951 330 235.375C330 236.518 329.527 237.666 328.721 238.471L328.346 238.846C328.085 239.108 327.906 239.419 327.817 239.75H327.298ZM323.5 242.25H327.75V242.75H323.5V242.25ZM326.25 245.25V245.75H325V245.25H326.25ZM313 240H318V240.5H313V240Z" fill="url(#paint20_linear_12372_97032)" stroke="url(#paint21_linear_12372_97032)"/>
<path d="M317 238C317.414 238 317.75 237.664 317.75 237.25C317.75 236.836 317.414 236.5 317 236.5C316.586 236.5 316.25 236.836 316.25 237.25C316.25 237.664 316.586 238 317 238Z" fill="url(#paint22_linear_12372_97032)"/>
<path d="M312.5 236.5H314.75V238H312.5V236.5ZM312.5 233.5H317.75V235H312.5V233.5ZM315.5 230.5H320.75V232H315.5V230.5Z" fill="url(#paint23_linear_12372_97032)"/>
<path d="M313.25 232C313.664 232 314 231.664 314 231.25C314 230.836 313.664 230.5 313.25 230.5C312.836 230.5 312.5 230.836 312.5 231.25C312.5 231.664 312.836 232 313.25 232Z" fill="url(#paint24_linear_12372_97032)"/>
<path d="M320 227.5H323V229H320V227.5Z" fill="url(#paint25_linear_12372_97032)"/>
<path d="M317.75 229C318.164 229 318.5 228.664 318.5 228.25C318.5 227.836 318.164 227.5 317.75 227.5C317.336 227.5 317 227.836 317 228.25C317 228.664 317.336 229 317.75 229Z" fill="url(#paint26_linear_12372_97032)"/>
<path d="M312.5 227.5H315.5V229H312.5V227.5Z" fill="url(#paint27_linear_12372_97032)"/>
<path d="M321.5 244H311V226H324.5V229H326V226C326 225.175 325.325 224.5 324.5 224.5H311C310.175 224.5 309.5 225.175 309.5 226V244C309.5 244.825 310.175 245.5 311 245.5H321.5V244Z" fill="url(#paint28_linear_12372_97032)"/>
<rect x="296" y="91" width="48" height="48" rx="24" fill="white"/>
<path d="M314.5 108H322.5V108.5H314.5V108ZM314.5 111H322.5V111.5H314.5V111ZM314.5 114H318V114.5H314.5V114ZM314.5 121.5H316.5V122H314.5V121.5Z" fill="url(#paint29_linear_12372_97032)" stroke="url(#paint30_linear_12372_97032)"/>
<path d="M330.28 117.47L328.03 115.22C327.89 115.079 327.699 115 327.5 115C327.301 115 327.11 115.079 326.97 115.22L320 122.19V125.5H323.31L330.28 118.53C330.421 118.39 330.5 118.199 330.5 118C330.5 117.801 330.421 117.61 330.28 117.47ZM322.69 124H321.5V122.81L325.25 119.06L326.44 120.25L322.69 124ZM327.5 119.19L326.31 118L327.5 116.81L328.69 118L327.5 119.19ZM317 125.5H312.5C312.102 125.5 311.721 125.341 311.44 125.06C311.159 124.779 311 124.398 311 124V106C311 105.602 311.159 105.221 311.44 104.94C311.721 104.659 312.102 104.5 312.5 104.5H324.5C324.898 104.5 325.279 104.659 325.56 104.94C325.841 105.221 326 105.602 326 106V113.5H324.5V106H312.5V124H317V125.5Z" fill="url(#paint31_linear_12372_97032)"/>
<rect x="93" y="1" width="48" height="48" rx="24" fill="white"/>
<path d="M125.435 29.6009L125.517 30H125.924H127V30.5H125.924H125.517L125.435 30.8991C125.351 31.3056 125.189 31.6921 124.959 32.0374L124.732 32.3785L125.022 32.6683L125.786 33.4323L125.432 33.7856L124.668 33.0217L124.378 32.7319L124.037 32.9592C123.692 33.1894 123.306 33.3508 122.899 33.4345L122.5 33.5168V33.9242V35H122V33.9242V33.5168L121.601 33.4345C121.194 33.3508 120.808 33.1894 120.463 32.9592L120.122 32.7319L119.832 33.0217L119.068 33.7856L118.714 33.4323L119.478 32.6683L119.768 32.3785L119.541 32.0374C119.311 31.6921 119.149 31.3056 119.065 30.8991L118.983 30.5H118.576H117.5V30H118.576H118.983L119.065 29.6009C119.149 29.1944 119.311 28.8079 119.541 28.4626L119.768 28.1215L119.478 27.8317L118.714 27.0677L119.068 26.7144L119.832 27.4783L120.122 27.7681L120.463 27.5408C120.808 27.3106 121.194 27.1492 121.601 27.0655L122 26.9832V26.5758V25.5H122.5V26.5758V26.9832L122.899 27.0655C123.306 27.1492 123.692 27.3106 124.037 27.5408L124.378 27.7681L124.668 27.4783L125.432 26.7144L125.786 27.0677L125.022 27.8317L124.732 28.1215L124.959 28.4626C125.189 28.8079 125.351 29.1944 125.435 29.6009ZM122.25 33H122.25C122.979 32.9993 123.678 32.7094 124.194 32.1939C124.709 31.6784 124.999 30.9795 125 30.2505V30.25C125 29.7061 124.839 29.1744 124.537 28.7222C124.234 28.2699 123.805 27.9175 123.302 27.7093C122.8 27.5012 122.247 27.4467 121.714 27.5528C121.18 27.6589 120.69 27.9209 120.305 28.3055C119.921 28.6901 119.659 29.1801 119.553 29.7135C119.447 30.2469 119.501 30.7999 119.709 31.3024C119.917 31.8049 120.27 32.2344 120.722 32.5365C121.174 32.8387 121.706 33 122.25 33ZM111.5 24H115V24.5H111.5V24ZM111.5 18H119.5V18.5H111.5V18ZM111.5 21H119.5V21.5H111.5V21ZM111.5 31.5H115V32H111.5V31.5Z" fill="url(#paint32_linear_12372_97032)" stroke="url(#paint33_linear_12372_97032)"/>
<path d="M115.5 35.5H109.5C109.102 35.4996 108.721 35.3414 108.44 35.0602C108.159 34.779 108 34.3977 108 34V16C108 15.6023 108.159 15.221 108.44 14.9398C108.721 14.6586 109.102 14.5004 109.5 14.5H121.5C121.898 14.5004 122.279 14.6586 122.56 14.9398C122.841 15.221 123 15.6023 123 16V23.5H121.5V16H109.5V34H115.5V35.5Z" fill="url(#paint34_linear_12372_97032)"/>
<rect x="6" y="211" width="48" height="48" rx="24" fill="white"/>
<path d="M24.3964 240.207L20.5605 244.043L20.2071 243.689L24.0431 239.854L24.8966 239H23.6895H21.5V238.5H25.75V242.75H25.25V240.56V239.353L24.3964 240.207ZM32.75 231H37V231.5H32.75V231ZM32.75 234.75H37V235.25H32.75V234.75ZM32.75 238.5H37V239H32.75V238.5Z" fill="url(#paint35_linear_12372_97032)" stroke="url(#paint36_linear_12372_97032)"/>
<path d="M39 226.75H21C20.6023 226.75 20.221 226.909 19.9398 227.19C19.6586 227.471 19.5004 227.852 19.5 228.25V235.75H21V228.25H29.25V243.25H39C39.3977 243.25 39.779 243.091 40.0602 242.81C40.3414 242.529 40.4996 242.148 40.5 241.75V228.25C40.4996 227.852 40.3414 227.471 40.0602 227.19C39.779 226.909 39.3977 226.75 39 226.75ZM30.75 241.75V228.25H39L39.0015 241.75H30.75Z" fill="url(#paint37_linear_12372_97032)"/>
<rect x="93" y="309" width="48" height="48" rx="24" fill="white"/>
<path d="M119.513 340.763C119.841 340.434 120.286 340.25 120.75 340.25H125.25C125.714 340.25 126.159 340.434 126.487 340.763C126.816 341.091 127 341.536 127 342V343H126.5V342C126.5 341.668 126.368 341.351 126.134 341.116C125.899 340.882 125.582 340.75 125.25 340.75H120.75C120.418 340.75 120.101 340.882 119.866 341.116C119.632 341.351 119.5 341.668 119.5 342V343H119V342C119 341.536 119.184 341.091 119.513 340.763ZM120.921 337.389C120.647 336.978 120.5 336.494 120.5 336C120.5 335.337 120.763 334.701 121.232 334.232C121.701 333.763 122.337 333.5 123 333.5C123.494 333.5 123.978 333.647 124.389 333.921C124.8 334.196 125.12 334.586 125.31 335.043C125.499 335.5 125.548 336.003 125.452 336.488C125.356 336.973 125.117 337.418 124.768 337.768C124.418 338.117 123.973 338.356 123.488 338.452C123.003 338.548 122.5 338.499 122.043 338.31C121.586 338.12 121.196 337.8 120.921 337.389ZM124.663 337.111C124.883 336.782 125 336.396 125 336C125 335.47 124.789 334.961 124.414 334.586C124.039 334.211 123.53 334 123 334C122.604 334 122.218 334.117 121.889 334.337C121.56 334.557 121.304 334.869 121.152 335.235C121.001 335.6 120.961 336.002 121.038 336.39C121.116 336.778 121.306 337.135 121.586 337.414C121.865 337.694 122.222 337.884 122.61 337.962C122.998 338.039 123.4 337.999 123.765 337.848C124.131 337.696 124.443 337.44 124.663 337.111ZM113.25 341H115V341.5H113.25C111.99 341.5 110.782 341 109.891 340.109C109 339.218 108.5 338.01 108.5 336.75V336.5H109V336.75C109 337.877 109.448 338.958 110.245 339.755C111.042 340.552 112.123 341 113.25 341ZM119.75 329H124V329.5H119.75V329ZM119.75 326H126.25V326.5H119.75V326ZM119.75 323H126.25V323.5H119.75V323ZM107.513 330.263C107.841 329.934 108.286 329.75 108.75 329.75H113.25C113.714 329.75 114.159 329.934 114.487 330.263C114.816 330.591 115 331.036 115 331.5V332.5H114.5V331.5C114.5 331.168 114.368 330.851 114.134 330.616C113.899 330.382 113.582 330.25 113.25 330.25H108.75C108.418 330.25 108.101 330.382 107.866 330.616C107.632 330.851 107.5 331.168 107.5 331.5V332.5H107V331.5C107 331.036 107.184 330.591 107.513 330.263ZM112.389 327.579C111.978 327.853 111.494 328 111 328C110.337 328 109.701 327.737 109.232 327.268C108.763 326.799 108.5 326.163 108.5 325.5C108.5 325.006 108.647 324.522 108.921 324.111C109.196 323.7 109.586 323.38 110.043 323.19C110.5 323.001 111.003 322.952 111.488 323.048C111.973 323.145 112.418 323.383 112.768 323.732C113.117 324.082 113.356 324.527 113.452 325.012C113.548 325.497 113.499 326 113.31 326.457C113.12 326.914 112.8 327.304 112.389 327.579ZM112.111 323.837C111.782 323.617 111.396 323.5 111 323.5C110.47 323.5 109.961 323.711 109.586 324.086C109.211 324.461 109 324.97 109 325.5C109 325.896 109.117 326.282 109.337 326.611C109.557 326.94 109.869 327.196 110.235 327.348C110.6 327.499 111.002 327.539 111.39 327.462C111.778 327.384 112.135 327.194 112.414 326.914C112.694 326.635 112.884 326.278 112.962 325.89C113.039 325.502 112.999 325.1 112.848 324.735C112.696 324.369 112.44 324.057 112.111 323.837Z" fill="url(#paint38_linear_12372_97032)" stroke="url(#paint39_linear_12372_97032)"/>
<defs>
<linearGradient id="paint0_linear_12372_97032" x1="75.0463" y1="183.696" x2="103.642" y2="183.696" gradientUnits="userSpaceOnUse">
<stop stop-color="#0575E6"/>
<stop offset="1" stop-color="#021B79"/>
</linearGradient>
<linearGradient id="paint1_linear_12372_97032" x1="224.719" y1="30.465" x2="239.15" y2="26.5639" gradientUnits="userSpaceOnUse">
<stop stop-color="#0575E6"/>
<stop offset="1" stop-color="#021B79"/>
</linearGradient>
<linearGradient id="paint2_linear_12372_97032" x1="224.719" y1="30.465" x2="239.15" y2="26.5639" gradientUnits="userSpaceOnUse">
<stop stop-color="#0575E6"/>
<stop offset="1" stop-color="#021B79"/>
</linearGradient>
<linearGradient id="paint3_linear_12372_97032" x1="221.75" y1="25.17" x2="223.25" y2="24.48" gradientUnits="userSpaceOnUse">
<stop stop-color="#0575E6"/>
<stop offset="1" stop-color="#021B79"/>
</linearGradient>
<linearGradient id="paint4_linear_12372_97032" x1="224.75" y1="25.17" x2="226.25" y2="24.48" gradientUnits="userSpaceOnUse">
<stop stop-color="#0575E6"/>
<stop offset="1" stop-color="#021B79"/>
</linearGradient>
<linearGradient id="paint5_linear_12372_97032" x1="227.75" y1="25.17" x2="229.25" y2="24.48" gradientUnits="userSpaceOnUse">
<stop stop-color="#0575E6"/>
<stop offset="1" stop-color="#021B79"/>
</linearGradient>
<linearGradient id="paint6_linear_12372_97032" x1="216.5" y1="28.53" x2="226.467" y2="25.4734" gradientUnits="userSpaceOnUse">
<stop stop-color="#0575E6"/>
<stop offset="1" stop-color="#021B79"/>
</linearGradient>
<linearGradient id="paint7_linear_12372_97032" x1="22.5" y1="116.92" x2="24.1576" y2="113.87" gradientUnits="userSpaceOnUse">
<stop stop-color="#0575E6"/>
<stop offset="1" stop-color="#021B79"/>
</linearGradient>
<linearGradient id="paint8_linear_12372_97032" x1="22.5" y1="116.92" x2="24.1576" y2="113.87" gradientUnits="userSpaceOnUse">
<stop stop-color="#0575E6"/>
<stop offset="1" stop-color="#021B79"/>
</linearGradient>
<linearGradient id="paint9_linear_12372_97032" x1="19.5" y1="116.92" x2="21" y2="116.23" gradientUnits="userSpaceOnUse">
<stop stop-color="#0575E6"/>
<stop offset="1" stop-color="#021B79"/>
</linearGradient>
<linearGradient id="paint10_linear_12372_97032" x1="27" y1="113.92" x2="28.5" y2="113.23" gradientUnits="userSpaceOnUse">
<stop stop-color="#0575E6"/>
<stop offset="1" stop-color="#021B79"/>
</linearGradient>
<linearGradient id="paint11_linear_12372_97032" x1="19.5" y1="113.26" x2="25.4058" y2="107.827" gradientUnits="userSpaceOnUse">
<stop stop-color="#0575E6"/>
<stop offset="1" stop-color="#021B79"/>
</linearGradient>
<linearGradient id="paint12_linear_12372_97032" x1="19.5" y1="110.92" x2="21" y2="110.23" gradientUnits="userSpaceOnUse">
<stop stop-color="#0575E6"/>
<stop offset="1" stop-color="#021B79"/>
</linearGradient>
<linearGradient id="paint13_linear_12372_97032" x1="20.8496" y1="120.88" x2="40.9361" y2="112.234" gradientUnits="userSpaceOnUse">
<stop stop-color="#0575E6"/>
<stop offset="1" stop-color="#021B79"/>
</linearGradient>
<linearGradient id="paint14_linear_12372_97032" x1="218.75" y1="337.46" x2="236.111" y2="330.702" gradientUnits="userSpaceOnUse">
<stop stop-color="#0575E6"/>
<stop offset="1" stop-color="#021B79"/>
</linearGradient>
<linearGradient id="paint15_linear_12372_97032" x1="218.75" y1="337.46" x2="236.111" y2="330.702" gradientUnits="userSpaceOnUse">
<stop stop-color="#0575E6"/>
<stop offset="1" stop-color="#021B79"/>
</linearGradient>
<linearGradient id="paint16_linear_12372_97032" x1="218.75" y1="341.067" x2="233.161" y2="332.099" gradientUnits="userSpaceOnUse">
<stop stop-color="#0575E6"/>
<stop offset="1" stop-color="#021B79"/>
</linearGradient>
<linearGradient id="paint17_linear_12372_97032" x1="218.75" y1="341.067" x2="233.161" y2="332.099" gradientUnits="userSpaceOnUse">
<stop stop-color="#0575E6"/>
<stop offset="1" stop-color="#021B79"/>
</linearGradient>
<linearGradient id="paint18_linear_12372_97032" x1="223.693" y1="332.691" x2="231.343" y2="329.175" gradientUnits="userSpaceOnUse">
<stop stop-color="#0575E6"/>
<stop offset="1" stop-color="#021B79"/>
</linearGradient>
<linearGradient id="paint19_linear_12372_97032" x1="223.245" y1="332.935" x2="231.816" y2="328.993" gradientUnits="userSpaceOnUse">
<stop stop-color="#0575E6"/>
<stop offset="1" stop-color="#021B79"/>
</linearGradient>
<linearGradient id="paint20_linear_12372_97032" x1="312.5" y1="242.785" x2="329.587" y2="233.802" gradientUnits="userSpaceOnUse">
<stop stop-color="#0575E6"/>
<stop offset="1" stop-color="#021B79"/>
</linearGradient>
<linearGradient id="paint21_linear_12372_97032" x1="312.5" y1="242.785" x2="329.587" y2="233.802" gradientUnits="userSpaceOnUse">
<stop stop-color="#0575E6"/>
<stop offset="1" stop-color="#021B79"/>
</linearGradient>
<linearGradient id="paint22_linear_12372_97032" x1="316.25" y1="237.67" x2="317.75" y2="236.98" gradientUnits="userSpaceOnUse">
<stop stop-color="#0575E6"/>
<stop offset="1" stop-color="#021B79"/>
</linearGradient>
<linearGradient id="paint23_linear_12372_97032" x1="312.5" y1="236.35" x2="320.458" y2="232.323" gradientUnits="userSpaceOnUse">
<stop stop-color="#0575E6"/>
<stop offset="1" stop-color="#021B79"/>
</linearGradient>
<linearGradient id="paint24_linear_12372_97032" x1="312.5" y1="231.67" x2="314" y2="230.98" gradientUnits="userSpaceOnUse">
<stop stop-color="#0575E6"/>
<stop offset="1" stop-color="#021B79"/>
</linearGradient>
<linearGradient id="paint25_linear_12372_97032" x1="320" y1="228.67" x2="321.969" y2="226.859" gradientUnits="userSpaceOnUse">
<stop stop-color="#0575E6"/>
<stop offset="1" stop-color="#021B79"/>
</linearGradient>
<linearGradient id="paint26_linear_12372_97032" x1="317" y1="228.67" x2="318.5" y2="227.98" gradientUnits="userSpaceOnUse">
<stop stop-color="#0575E6"/>
<stop offset="1" stop-color="#021B79"/>
</linearGradient>
<linearGradient id="paint27_linear_12372_97032" x1="312.5" y1="228.67" x2="314.469" y2="226.859" gradientUnits="userSpaceOnUse">
<stop stop-color="#0575E6"/>
<stop offset="1" stop-color="#021B79"/>
</linearGradient>
<linearGradient id="paint28_linear_12372_97032" x1="309.5" y1="240.88" x2="327.182" y2="234.489" gradientUnits="userSpaceOnUse">
<stop stop-color="#0575E6"/>
<stop offset="1" stop-color="#021B79"/>
</linearGradient>
<linearGradient id="paint29_linear_12372_97032" x1="314" y1="119.2" x2="324.133" y2="116.403" gradientUnits="userSpaceOnUse">
<stop stop-color="#0575E6"/>
<stop offset="1" stop-color="#021B79"/>
</linearGradient>
<linearGradient id="paint30_linear_12372_97032" x1="314" y1="119.2" x2="324.133" y2="116.403" gradientUnits="userSpaceOnUse">
<stop stop-color="#0575E6"/>
<stop offset="1" stop-color="#021B79"/>
</linearGradient>
<linearGradient id="paint31_linear_12372_97032" x1="311" y1="120.88" x2="330.981" y2="112.346" gradientUnits="userSpaceOnUse">
<stop stop-color="#0575E6"/>
<stop offset="1" stop-color="#021B79"/>
</linearGradient>
<linearGradient id="paint32_linear_12372_97032" x1="111" y1="31.54" x2="127.973" y2="24.3829" gradientUnits="userSpaceOnUse">
<stop stop-color="#0575E6"/>
<stop offset="1" stop-color="#021B79"/>
</linearGradient>
<linearGradient id="paint33_linear_12372_97032" x1="111" y1="31.54" x2="127.973" y2="24.3829" gradientUnits="userSpaceOnUse">
<stop stop-color="#0575E6"/>
<stop offset="1" stop-color="#021B79"/>
</linearGradient>
<linearGradient id="paint34_linear_12372_97032" x1="108" y1="30.88" x2="124.403" y2="25.4904" gradientUnits="userSpaceOnUse">
<stop stop-color="#0575E6"/>
<stop offset="1" stop-color="#021B79"/>
</linearGradient>
<linearGradient id="paint35_linear_12372_97032" x1="19.5" y1="241.615" x2="35.8042" y2="232.141" gradientUnits="userSpaceOnUse">
<stop stop-color="#0575E6"/>
<stop offset="1" stop-color="#021B79"/>
</linearGradient>
<linearGradient id="paint36_linear_12372_97032" x1="19.5" y1="241.615" x2="35.8042" y2="232.141" gradientUnits="userSpaceOnUse">
<stop stop-color="#0575E6"/>
<stop offset="1" stop-color="#021B79"/>
</linearGradient>
<linearGradient id="paint37_linear_12372_97032" x1="19.5" y1="239.62" x2="38.4488" y2="228.526" gradientUnits="userSpaceOnUse">
<stop stop-color="#0575E6"/>
<stop offset="1" stop-color="#021B79"/>
</linearGradient>
<linearGradient id="paint38_linear_12372_97032" x1="106.5" y1="338.88" x2="127.5" y2="329.22" gradientUnits="userSpaceOnUse">
<stop stop-color="#0575E6"/>
<stop offset="1" stop-color="#021B79"/>
</linearGradient>
<linearGradient id="paint39_linear_12372_97032" x1="106.5" y1="338.88" x2="127.5" y2="329.22" gradientUnits="userSpaceOnUse">
<stop stop-color="#0575E6"/>
<stop offset="1" stop-color="#021B79"/>
</linearGradient>
</defs>
</svg>
