<svg xmlns="http://www.w3.org/2000/svg" viewBox="0 0 48 48" id="book"><g data-name="Layer 19" fill="#021b79" class="color000000 svgShape"><path d="M11 23h9a1 1 0 0 0 1-1V14a1 1 0 0 0-1-1H11a1 1 0 0 0-1 1v8A1 1 0 0 0 11 23zm1-8h7v6H12zM11 27h7a1 1 0 0 0 0-2H11a1 1 0 0 0 0 2zM11 31h9a1 1 0 0 0 0-2H11a1 1 0 0 0 0 2zM28 19h9a1 1 0 0 0 0-2H28a1 1 0 0 0 0 2zM28 15h9a1 1 0 0 0 0-2H28a1 1 0 0 0 0 2zM28 23h9a1 1 0 0 0 0-2H28a1 1 0 0 0 0 2zM28 27h9a1 1 0 0 0 0-2H28a1 1 0 0 0 0 2zM28 31h7a1 1 0 0 0 0-2H28a1 1 0 0 0 0 2z" fill="#021b79" class="color000000 svgShape"></path><path d="M45,12H42V9a1,1,0,0,0-1-1H28a5,5,0,0,0-4,2,5,5,0,0,0-4-2H7A1,1,0,0,0,6,9v3H3a1,1,0,0,0-1,1V39a1,1,0,0,0,1,1H45a1,1,0,0,0,1-1V13A1,1,0,0,0,45,12ZM28,10H40V34H28a4.51,4.51,0,0,0-.73.07l-.12,0a4.07,4.07,0,0,0-.68.2l-.12.05a5,5,0,0,0-.66.31l0,0a4.89,4.89,0,0,0-.6.41l-.06,0V13A3,3,0,0,1,28,10ZM8,10H20a3,3,0,0,1,3,3V35.12l-.06,0a4.89,4.89,0,0,0-.6-.41l0,0a5,5,0,0,0-.66-.31l-.12-.05a4.07,4.07,0,0,0-.68-.2l-.12,0A4.51,4.51,0,0,0,20,34H8V10ZM4,14H6V35a1,1,0,0,0,1,1H20a2.84,2.84,0,0,1,.5.06l.15,0,.35.12.15.07.37.22.09.06a3.31,3.31,0,0,1,.41.35l.1.11a2.55,2.55,0,0,1,.26.3l.1.15a3.62,3.62,0,0,1,.2.33l.07.13,0,0H4ZM44,38H25.23l0,0,.07-.13a3.62,3.62,0,0,1,.2-.33l.1-.15a2.55,2.55,0,0,1,.26-.3l.1-.11a3.31,3.31,0,0,1,.41-.35l.09-.06.37-.22.16-.07a2.3,2.3,0,0,1,.34-.12l.15,0A2.84,2.84,0,0,1,28,36H41a1,1,0,0,0,1-1V14h2Z" fill="#021b79" class="color000000 svgShape"></path></g></svg>