<svg xmlns="http://www.w3.org/2000/svg" id="Book" version="1.1" viewBox="0 0 32 32"><g id="layer1" transform="translate(0 -1020.362)" fill="#021b79" class="color000000 svgShape"><path style="line-height:normal;text-indent:0;text-align:start;text-decoration-line:none;text-decoration-style:solid;text-decoration-color:#000;text-transform:none;block-progression:tb;white-space:normal;isolation:auto;mix-blend-mode:normal;solid-color:#000;solid-opacity:1" id="rect7218" fill="#021b79" fill-opacity="1" fill-rule="nonzero" stroke="none" stroke-dasharray="none" stroke-dashoffset="0" stroke-linecap="round" stroke-linejoin="round" stroke-miterlimit="4" stroke-opacity="1" stroke-width="1" d="M 1.46484,1021.3622 A 0.50004997,0.50004997 0 0 0 1,1021.8622 l 0,3 0,2 0,17 0,2 0,2.5 -0.5,0 a 0.50004994,0.50004994 0 0 0 -0.5,0.5 l 0,2 a 0.50004994,0.50004994 0 0 0 0.5,0.5 l 31,0 a 0.50004994,0.50004994 0 0 0 0.5,-0.5 l 0,-2 a 0.50004994,0.50004994 0 0 0 -0.5,-0.5 l -3.68945,0 3.32031,-0.8945 a 0.50004997,0.50004997 0 0 0 0.35156,-0.6113 l -0.68554,-2.5743 -0.45704,-1.7129 a 0.49940202,0.5006988 29.999774 0 0 -0.01,-0.035 l -3.63867,-13.6485 a 0.50005,0.50005 0 0 0 -0.008,-0.031 l -0.45703,-1.7148 -0.68554,-2.5723 a 0.50004997,0.50004997 0 0 0 -0.47657,-0.3711 0.50004997,0.50004997 0 0 0 -0.13476,0.018 l -4.92969,1.3301 0,-2.6797 a 0.50004997,0.50004997 0 0 0 -0.5,-0.5 l -6,0 a 0.50004997,0.50004997 0 0 0 -0.5,0.5 l 0,3 0,1.498 -5,0 0,-0.5 0,-2 0,-3 a 0.50004997,0.50004997 0 0 0 -0.5,-0.5 l -6,0 a 0.50004997,0.50004997 0 0 0 -0.0352,0 z m 0.53516,1 5,0 0,2 -5,0 0,-2 z m 12,1.002 5,0 0,2 -5,0 0,-2 z m 10.70508,1.9453 0.42773,1.6054 -4.15234,1.1192 -0.42774,-1.6055 4.15235,-1.1191 z M 2,1025.3622 l 5,0 0,1 -5,0 0,-1 z m 12,1.002 5,0 0,1 -5,0 0,-1 z m -12,0.998 5,0 0,16 -5,0 0,-16 z m 23.39062,0.5195 0.19922,0.7481 -4.15039,1.1172 -0.20117,-0.7481 4.15234,-1.1172 z M 20,1028.2353 l 0.14453,0.539 0.45703,1.7149 3.6543,13.7089 a 0.49940202,0.5006988 29.999774 0 0 0.002,0.01 l 0.45703,1.7149 a 0.49940202,0.5006988 29.999774 0 0 0.01,0.033 l 0.64034,2.4082 -5.36523,0 0,-2.5 0,-2 0,-15.627 z m -14.50781,0.125 A 0.50005,0.50005 0 0 0 5,1028.8681 l 0,1.8789 a 0.50005,0.50005 0 1 0 1,0 l 0,-1.8789 a 0.50005,0.50005 0 0 0 -0.50781,-0.5078 z m 2.50781,0 5,0 0,16 -5,0 0,-0.5 0,-15.5 z m 6,0 5,0 0,14.9981 -5,0 0,-14.9981 z m 11.84766,1.2324 3.39843,12.7481 -4.15234,1.1191 -3.39844,-12.748 4.15235,-1.1192 z m -0.88282,1.0567 a 0.50005,0.50005 0 0 0 -0.0508,0 0.50005,0.50005 0 0 0 -0.44336,0.6347 l 1.58985,5.961 a 0.50005,0.50005 0 1 0 0.96484,-0.2578 l -1.58789,-5.961 a 0.50005,0.50005 0 0 0 -0.47266,-0.3789 z m -19.47265,2.1269 A 0.50005,0.50005 0 0 0 5,1033.286 l 0,8.5723 a 0.50005,0.50005 0 1 0 1,0 l 0,-8.5723 a 0.50005,0.50005 0 0 0 -0.50781,-0.5058 z m 6,1.5801 A 0.50005,0.50005 0 0 0 11,1034.8681 l 0,3.4941 a 0.50005,0.50005 0 1 0 1,0 l 0,-3.4941 a 0.50005,0.50005 0 0 0 -0.50781,-0.5078 z m 15.64258,4.4316 a 0.50005,0.50005 0 0 0 -0.0508,0 0.50005,0.50005 0 0 0 -0.44336,0.6348 l 0.57032,2.1387 a 0.50005,0.50005 0 1 0 0.96484,-0.2578 l -0.56836,-2.1387 a 0.50005,0.50005 0 0 0 -0.47265,-0.3789 z m -15.64258,1.6055 A 0.50005,0.50005 0 0 0 11,1040.9032 l 0,0.9551 a 0.50005,0.50005 0 1 0 1,0 l 0,-0.9551 a 0.50005,0.50005 0 0 0 -0.50781,-0.5058 z m 18.00976,2.9141 0.19922,0.748 -4.15039,1.1172 -0.19922,-0.748 4.15039,-1.1172 z M 2,1044.3622 l 5,0 0,1 -5,0 0,-1 z m 12,0 5,0 0,1 -5,0 0,-0.5 0,-0.5 z m 15.96094,0.6621 0.42773,1.6074 -4.15234,1.1192 -0.42774,-1.6074 4.15235,-1.1192 z M 8,1045.3622 l 5,0 0,0.5 0,0.5 -5,0 0,-0.5 0,-0.5 z m -6,1 5,0 0,0.5 0,1.5 -5,0 0,-2 z m 12,0 5,0 0,2 -5,0 0,-1.5 0,-0.5 z m -6,1 5,0 0,1 -5,0 0,-1 z m -7,2 30,0 0,1 -30,0 0,-1 z" baseline-shift="baseline" clip-rule="nonzero" color="#000" color-interpolation="sRGB" color-interpolation-filters="linearRGB" color-rendering="auto" direction="ltr" display="inline" enable-background="accumulate" font-family="sans-serif" font-size="medium" font-stretch="normal" font-style="normal" font-variant="normal" font-weight="400" image-rendering="auto" letter-spacing="normal" opacity="1" overflow="visible" paint-order="fill markers stroke" shape-rendering="auto" text-anchor="start" text-decoration="none" text-rendering="auto" visibility="visible" word-spacing="normal" writing-mode="lr-tb" class="color000000 svgShape"></path></g></svg>