<svg xmlns="http://www.w3.org/2000/svg" viewBox="0 0 63 63" id="Collaboration"><path d="M12 26.2c1.6 0 3.1.2 4.4.4 2.4.4 4.4.7 5.8-.5.9-.7 1.3-2 1.3-3.8 0-4.1-2.2-7.2-6.5-9 1-1.2 1.6-2.7 1.6-4.3 0-3.6-3-6.6-6.6-6.6S5.4 5.4 5.4 9c0 1.6.6 3.1 1.6 4.3-4.3 1.8-6.5 4.9-6.5 9 0 1.8.4 3 1.3 3.8 1.5 1.3 4.7.7 5.8.5 1.3-.2 2.8-.4 4.4-.4zm0-21.7c2.5 0 4.6 2.1 4.6 4.6s-2.1 4.6-4.6 4.6-4.6-2.1-4.6-4.6S9.5 4.5 12 4.5zM3.1 24.6c-.4-.3-.6-1.1-.6-2.2 0-3.7 2.1-6.1 6.3-7.5.9.5 2 .8 3.2.8s2.3-.3 3.2-.8c4.2 1.4 6.3 3.9 6.3 7.5 0 1.1-.2 1.9-.6 2.2-.7.6-2.3.3-4.2 0-1.4-.2-3-.5-4.7-.5s-3.3.2-4.7.5c-1.9.4-3.5.6-4.2 0zM56 13.4c1-1.2 1.6-2.7 1.6-4.3 0-3.6-3-6.6-6.6-6.6s-6.6 3-6.6 6.6c0 1.6.6 3.1 1.6 4.3-4.3 1.8-6.5 4.9-6.5 9 0 1.8.4 3 1.3 3.8 1.5 1.3 4.7.7 5.8.5 1.3-.2 2.9-.4 4.4-.4 1.6 0 3.1.2 4.4.4 2.4.4 4.4.7 5.8-.5.9-.7 1.3-2 1.3-3.8 0-4.1-2.2-7.2-6.5-9zm-5-8.9c2.5 0 4.6 2.1 4.6 4.6s-2.1 4.6-4.6 4.6-4.6-2.1-4.6-4.6 2.1-4.6 4.6-4.6zm8.9 20.1c-.7.6-2.3.3-4.2 0-1.4-.2-3-.5-4.7-.5s-3.3.2-4.7.5c-1.9.3-3.5.5-4.2 0-.4-.3-.6-1.1-.6-2.2 0-3.7 2.1-6.1 6.3-7.5.9.5 2 .8 3.2.8s2.3-.3 3.2-.8c4.2 1.4 6.3 3.9 6.3 7.5 0 1.1-.2 1.9-.6 2.2zM36.5 46.9c1-1.2 1.6-2.7 1.6-4.3 0-3.6-3-6.6-6.6-6.6s-6.6 3-6.6 6.6c0 1.6.6 3.1 1.6 4.3-4.3 1.8-6.5 4.9-6.5 9 0 1.8.4 3 1.3 3.8 1.5 1.3 4.7.7 5.8.5 1.3-.2 2.9-.4 4.4-.4 1.6 0 3.1.2 4.4.4 2.4.4 4.4.7 5.8-.5.9-.7 1.3-2 1.3-3.8 0-4.1-2.2-7.2-6.5-9zm-5-8.9c2.5 0 4.6 2.1 4.6 4.6s-2.1 4.6-4.6 4.6-4.6-2.1-4.6-4.6c0-2.5 2.1-4.6 4.6-4.6zm8.9 20.2c-.7.6-2.3.3-4.2 0-1.4-.2-3-.5-4.7-.5s-3.3.2-4.7.5c-1.9.3-3.5.5-4.2 0-.4-.3-.6-1.1-.6-2.2 0-3.7 2.1-6.1 6.3-7.5.9.5 2 .8 3.2.8s2.3-.3 3.2-.8c4.2 1.4 6.3 3.9 6.3 7.5 0 1.1-.2 1.8-.6 2.2zM42 46.8l1 1.8c7.4-4 12.1-11.7 12.5-20l-2-.1c-.3 7.6-4.7 14.6-11.5 18.3zM31.5 5.5c3.7 0 7.3.9 10.5 2.7l1-1.8c-3.5-1.9-7.4-2.9-11.4-2.9s-8 1-11.5 2.9l1 1.8c3.1-1.8 6.7-2.7 10.4-2.7zM21.9 47.3c-7.3-3.5-12-10.7-12.4-18.8l-2 .1c.4 8.8 5.6 16.7 13.5 20.6l.9-1.9zM30.5 24.5h2v2h-2zM34.5 24.5h2v2h-2zM26.5 24.5h2v2h-2z" fill="#021b79" class="color000000 svgShape"></path></svg>