<svg xmlns="http://www.w3.org/2000/svg" viewBox="0 0 49 49" id="Compass"><path d="m20.46 29.55.06.09c.01.02.01.04.03.06.01.01.02.01.02.02.06.07.13.13.21.18l12.11 6.71a.763.763 0 0 0 .87-.11c.24-.22.31-.57.17-.86l-5.39-11.87a.777.777 0 0 0-.32-.35l-12.11-6.71c-.28-.16-.63-.11-.87.11s-.31.57-.17.86l5.39 11.87zm6.82-4.94 4.35 9.58-9.13-5.05 3.57-2.74a.749.749 0 1 0-.91-1.19l-3.72 2.86-4.07-8.95 9.91 5.49z" fill="#021b79" class="color000000 svgShape"></path><path d="M24.5 44.63c9.91 0 17.98-8.06 17.98-17.98S34.41 8.68 24.5 8.68 6.52 16.74 6.52 26.66s8.07 17.97 17.98 17.97zm-.75-34.41v1.99c0 .41.34.75.75.75s.75-.34.75-.75v-1.99c8.49.38 15.3 7.2 15.69 15.69h-1.99c-.41 0-.75.34-.75.75s.34.75.75.75h1.99c-.38 8.49-7.2 15.3-15.69 15.69v-2c0-.41-.34-.75-.75-.75s-.75.34-.75.75v1.99c-8.49-.38-15.3-7.2-15.69-15.69h1.99c.41 0 .75-.34.75-.75s-.34-.75-.75-.75H8.06c.39-8.48 7.2-15.3 15.69-15.68z" fill="#021b79" class="color000000 svgShape"></path><path d="M2.91 26.66c0 11.91 9.69 21.59 21.59 21.59s21.59-9.69 21.59-21.59C46.09 15 36.81 5.5 25.25 5.1V2.25h3c.41 0 .75-.34.75-.75s-.34-.75-.75-.75h-7.51c-.41 0-.75.34-.75.75s.34.75.75.75h3.01V5.1C12.19 5.5 2.91 15 2.91 26.66zM24.5 6.56c11.08 0 20.09 9.01 20.09 20.09s-9.01 20.1-20.09 20.1S4.41 37.74 4.41 26.66s9.01-20.1 20.09-20.1z" fill="#021b79" class="color000000 svgShape"></path></svg>