<svg xmlns="http://www.w3.org/2000/svg" viewBox="0 0 24 24" id="Compass"><path d="M12,22.05 C6.44953826,22.05 1.95,17.5504617 1.95,12 C1.95,6.44953826 6.44953826,1.95 12,1.95 C17.5504617,1.95 22.05,6.44953826 22.05,12 C22.05,17.5504617 17.5504617,22.05 12,22.05 Z M12,19.95 C16.3906638,19.95 19.95,16.3906638 19.95,12 C19.95,7.60933624 16.3906638,4.05 12,4.05 C7.60933624,4.05 4.05,7.60933624 4.05,12 C4.05,16.3906638 7.60933624,19.95 12,19.95 Z M11.1548011,8.88742741 L16.1668657,6.92618475 C16.5268836,6.7853082 16.9329387,6.96295732 17.0738153,7.32297518 C17.1379887,7.48697389 17.1379887,7.66913559 17.0738153,7.8331343 L15.1125726,12.8451989 C14.706042,13.8841105 13.8841105,14.706042 12.8451989,15.1125726 L7.8331343,17.0738153 C7.47311645,17.2146918 7.0670613,17.0370427 6.92618475,16.6770248 C6.86201134,16.5130261 6.86201134,16.3308644 6.92618475,16.1668657 L8.88742741,11.1548011 C9.29395804,10.1158895 10.1158895,9.29395804 11.1548011,8.88742741 Z M12,13 C12.5522847,13 13,12.5522847 13,12 C13,11.4477153 12.5522847,11 12,11 C11.4477153,11 11,11.4477153 11,12 C11,12.5522847 11.4477153,13 12,13 Z" fill="#021b79" class="color000000 svgShape"></path></svg>