<svg xmlns="http://www.w3.org/2000/svg" fill-rule="evenodd" clip-rule="evenodd" image-rendering="optimizeQuality" shape-rendering="geometricPrecision" text-rendering="geometricPrecision" viewBox="0 0 28.058 30.488" id="eco-friendly"><g fill="#021b79" class="color000000 svgShape"><path fill-rule="nonzero" d="M1.015 16.624c0.038,0.191 -0.086,0.377 -0.278,0.415 -0.191,0.038 -0.377,-0.086 -0.415,-0.277 -0.088,-0.443 -0.156,-0.9 -0.203,-1.371 -0.045,-0.464 -0.069,-0.926 -0.069,-1.387 0,-3.867 1.568,-7.368 4.102,-9.902 2.534,-2.534 6.035,-4.102 9.902,-4.102 3.867,0 7.368,1.568 9.902,4.102 0.537,0.537 1.03,1.117 1.474,1.735l0.005 0.007c1.651,2.298 2.623,5.115 2.623,8.16 0,3.867 -1.568,7.368 -4.102,9.902 -2.534,2.534 -6.035,4.102 -9.902,4.102 -0.2,0 -0.414,-0.006 -0.641,-0.016 -0.209,-0.01 -0.42,-0.024 -0.635,-0.044 -0.193,-0.017 -0.336,-0.188 -0.318,-0.382 0.017,-0.193 0.188,-0.336 0.382,-0.319 0.195,0.018 0.396,0.032 0.601,0.041 0.083,0.004 0.169,0.007 0.258,0.009l0 -7.686c-0.999,0.006 -1.996,0.072 -2.988,0.198 -0.193,0.025 -0.369,-0.112 -0.393,-0.304 -0.024,-0.193 0.112,-0.369 0.305,-0.394 1.021,-0.129 2.049,-0.198 3.076,-0.204l0 -4.55 -5.859 0c0.016,0.794 0.087,1.578 0.209,2.345 0.143,0.894 0.357,1.774 0.638,2.632 0.06,0.185 -0.041,0.384 -0.226,0.444 -0.186,0.06 -0.384,-0.041 -0.445,-0.226 -0.291,-0.889 -0.513,-1.804 -0.662,-2.739 -0.13,-0.811 -0.204,-1.632 -0.22,-2.456l-6.375 0c0.008,0.329 0.028,0.651 0.059,0.965 0.043,0.434 0.108,0.869 0.195,1.302zm8.616 13.258c-0.261,0.215 -0.531,0.413 -0.809,0.606 0.465,-1.081 0.788,-2.172 0.882,-3.349 0.082,-1.019 -0.018,-2.013 -0.299,-2.983 -0.093,1.386 -0.26,2.585 -0.504,3.598 -0.216,0.901 -0.519,1.794 -1.018,2.58 -0.924,-1.574 -1.313,-3.226 -1.03,-5.042 0.315,-2.016 1.395,-3.832 2.648,-5.406 2.706,3.285 3.888,6.902 0.13,9.996zm-9.104 -12.002c2.254,0.676 5.51,1.891 6.859,3.943l0.008 0.013c-0.628,1.048 -0.844,2.484 -0.959,3.682l-0.038 -0.078c-0.335,-0.703 -0.816,-1.435 -1.441,-2.195 -0.584,-0.71 -1.294,-1.445 -2.131,-2.204 2.025,2.74 3.61,5.924 3.635,9.397 -2.442,-0.567 -4.517,-1.757 -5.622,-4.093 -0.989,-2.089 -1.102,-4.905 -0.342,-8.447l0.006 -0.026 0.025 0.008zm13.88 1.032c1.253,0.027 2.504,0.145 3.743,0.355 0.406,0.069 0.81,0.147 1.213,0.236 0.556,-1.642 0.866,-3.375 0.903,-5.146l-5.859 0 0 4.555zm5.645 0.752c1.712,0.425 3.389,1.029 5.003,1.812 1.387,-2.039 2.223,-4.483 2.292,-7.119l-6.375 0c-0.036,1.824 -0.352,3.612 -0.92,5.307zm4.584 2.394c-1.558,-0.747 -3.175,-1.322 -4.822,-1.727 -0.181,0.475 -0.381,0.943 -0.602,1.401 -1,2.078 -2.403,3.962 -4.152,5.532 3.271,-0.245 6.212,-1.673 8.397,-3.857 0.422,-0.423 0.816,-0.873 1.179,-1.349zm-5.515 -1.887c-0.361,-0.078 -0.723,-0.147 -1.087,-0.209 -1.201,-0.204 -2.413,-0.319 -3.627,-0.345l0 7.284c1.765,-1.539 3.176,-3.408 4.171,-5.476 0.197,-0.41 0.378,-0.828 0.543,-1.254zm-15.725 -14.12c1.579,0.73 3.215,1.286 4.882,1.669 0.184,-0.49 0.39,-0.972 0.617,-1.444 1,-2.078 2.404,-3.962 4.152,-5.532 -3.27,0.245 -6.212,1.673 -8.396,3.857 -0.452,0.452 -0.872,0.937 -1.255,1.45zm5.579 1.818c1.56,0.312 3.143,0.473 4.726,0.483l0 -7.245c-1.765,1.539 -3.176,3.408 -4.171,5.476 -0.203,0.421 -0.388,0.85 -0.555,1.286zm5.432 0.478c1.575,-0.035 3.148,-0.219 4.697,-0.552 -0.16,-0.411 -0.335,-0.815 -0.526,-1.212 -0.995,-2.068 -2.406,-3.937 -4.171,-5.476l0 7.24zm5.391 -0.711c1.644,-0.404 3.257,-0.977 4.812,-1.719 -0.355,-0.464 -0.741,-0.903 -1.153,-1.316 -2.185,-2.184 -5.126,-3.612 -8.397,-3.857 1.749,1.57 3.152,3.454 4.152,5.532 0.214,0.445 0.41,0.899 0.586,1.36zm5.234 -1.139c-1.612,0.78 -3.286,1.382 -4.994,1.805 0.577,1.708 0.898,3.51 0.934,5.349l6.375 0c-0.069,-2.651 -0.914,-5.108 -2.315,-7.154zm-5.684 1.966c-1.628,0.356 -3.283,0.552 -4.941,0.587l0 4.601 5.859 0c-0.037,-1.786 -0.352,-3.534 -0.918,-5.188zm-5.647 0.593c-1.665,-0.011 -3.329,-0.183 -4.968,-0.517 -0.549,1.631 -0.855,3.353 -0.891,5.112l5.859 0 0 -4.595zm-5.66 -0.668c-1.728,-0.402 -3.423,-0.986 -5.059,-1.752 -1.345,2.018 -2.154,4.424 -2.221,7.015l6.375 0c0.035,-1.808 0.346,-3.581 0.905,-5.263z" fill="#021b79" class="color000000 svgShape"></path></g></svg>