<svg xmlns="http://www.w3.org/2000/svg" enable-background="new 0 0 100 100" viewBox="0 0 100 100" id="EcoFriendly"><path d="M91.839 42.628c-1.405-1.405-3.274-2.18-5.262-2.18s-3.856.774-5.26 2.18l-11.33 11.331c-.597-.4-1.247-.709-1.934-.921-.03-.009-.061-.017-.091-.025-.286-.084-.577-.15-.873-.2-.073-.012-.145-.025-.218-.036-.333-.046-.671-.076-1.013-.076 0 0 0 0-.001 0s-.001 0-.001 0l-34.162.006c-3.066 0-5.976 1.175-8.22 3.335L6.566 72.935C6.191 73.31 5.98 73.818 5.98 74.35c0 .53.21 1.039.586 1.414l15.39 15.392c.375.375.884.586 1.414.586.531 0 1.04-.211 1.415-.586l7.249-7.251h25.973c1.987 0 3.854-.773 5.259-2.179l28.573-28.573c1.407-1.405 2.181-3.273 2.181-5.262S93.246 44.033 91.839 42.628zM89.011 50.323L60.438 78.897c-.649.649-1.513 1.007-2.436 1.007H31.205c-.531 0-1.04.211-1.415.586l-6.42 6.422L10.809 74.351l15.465-15.453c1.468-1.413 3.393-2.191 5.42-2.191L65.856 56.7c1.02 0 1.984.467 2.648 1.281.031.038.07.067.103.103.448.597.691 1.302.691 2.056 0 .92-.358 1.784-1.008 2.435-.649.649-1.512 1.007-2.43 1.007-.001 0-.002 0-.002 0H47.013c-1.104 0-2 .896-2 2s.896 2 2 2h18.844c.002 0 .003 0 .005 0 1.986 0 3.853-.773 5.258-2.179s2.179-3.274 2.179-5.263c0-1.086-.264-2.146-.716-3.121l11.563-11.562c1.3-1.301 3.565-1.298 4.865 0 .65.65 1.009 1.516 1.009 2.435S89.662 49.673 89.011 50.323zM47.957 46.16c.082 0 .163-.013.243-.023.054.006.105.019.16.02.156.002.311.004.466.004 6.83 0 13.229-2.646 18.064-7.48 4.945-4.945 7.601-11.525 7.476-18.529-.019-1.077-.887-1.945-1.964-1.965-5.682-.118-11.088 1.623-15.569 4.928-.867-5.421-3.447-10.393-7.486-14.293-.775-.748-2.002-.749-2.778-.001-5.042 4.863-7.818 11.395-7.818 18.389 0 6.995 2.776 13.526 7.817 18.392C46.955 45.974 47.456 46.16 47.957 46.16zM64.062 35.852c-3.181 3.181-7.167 5.242-11.502 5.988 2.825-4.021 4.413-8.753 4.58-13.752 3.631-3.438 8.225-5.483 13.172-5.847C69.932 27.387 67.753 32.16 64.062 35.852zM47.957 13.166c3.37 3.907 5.204 8.823 5.204 14.044s-1.834 10.136-5.205 14.043c-3.371-3.907-5.206-8.823-5.206-14.045S44.586 17.071 47.957 13.166z" fill="#021b79" class="color000000 svgShape"></path></svg>