<svg xmlns="http://www.w3.org/2000/svg" viewBox="0 0 48 48" id="Idea"><path d="M24 9.4c-.5 0-1 0-1.5.1-5.7.6-10.5 5.2-11.4 10.9-.6 3.7.4 7.3 2.6 10.1 2.5 3.1 3.8 6.7 3.8 10.2 0 .6.4 1 1 1h11c.6 0 1-.4 1-1 0-3.8 1.2-7.2 3.4-9.8 2-2.4 3.1-5.4 3.1-8.5.1-7.1-5.8-13-13-13zm8.4 20.2c-2.3 2.7-3.7 6.3-3.9 10.1h-9c-.2-3.7-1.6-7.3-4.2-10.5-1.9-2.4-2.7-5.5-2.2-8.6.7-4.8 4.8-8.7 9.6-9.2.4 0 .9-.1 1.3-.1 6.1 0 11.1 5 11.1 11.1 0 2.7-1 5.2-2.7 7.2z" fill="#021b79" class="color000000 svgShape"></path><path d="M24 13.6c-.6 0-1 .4-1 1s.4 1 1 1c3.8 0 6.9 3.1 6.9 6.9 0 .6.4 1 1 1s1-.4 1-1c0-4.9-4-8.9-8.9-8.9zM45.8 21.8h-5.9c-.6 0-1 .4-1 1s.4 1 1 1h5.9c.6 0 1-.4 1-1s-.5-1-1-1zM9.2 22.8c0-.6-.4-1-1-1h-6c-.6 0-1 .4-1 1s.4 1 1 1h5.9c.6 0 1.1-.5 1.1-1zM24 7.6c.6 0 1-.4 1-1V1c0-.6-.4-1-1-1s-1 .4-1 1v5.6c0 .6.4 1 1 1zM35.3 12.4c.3 0 .5-.1.7-.3l4-4c.4-.4.4-1 0-1.4-.4-.4-1-.4-1.4 0l-4 4c-.4.4-.4 1 0 1.4.2.2.5.3.7.3zM12.1 33.3l-4.2 4.2c-.4.4-.4 1 0 1.4.2.2.5.3.7.3.3 0 .5-.1.7-.3l4.2-4.2c.4-.4.4-1 0-1.4-.4-.4-1-.4-1.4 0zM35.9 33.2c-.4-.4-1-.4-1.4 0-.4.4-.4 1 0 1.4l4.2 4.2c.2.2.5.3.7.3.3 0 .5-.1.7-.3.4-.4.4-1 0-1.4l-4.2-4.2zM11.9 12.1c.2.2.5.3.7.3.3 0 .5-.1.7-.3.4-.4.4-1 0-1.4l-4-4c-.4-.4-1-.4-1.4 0s-.4 1 0 1.4l4 4zM29.2 42.9H18.8c-.6 0-1 .4-1 1s.4 1 1 1h10.4c.6 0 1-.4 1-1s-.5-1-1-1zM29.2 46H18.8c-.6 0-1 .4-1 1s.4 1 1 1h10.4c.6 0 1-.4 1-1s-.5-1-1-1z" fill="#021b79" class="color000000 svgShape"></path></svg>