<svg xmlns="http://www.w3.org/2000/svg" viewBox="0 0 8.467 8.467" id="Leaf"><path d="m 5.5562495,289.59167 c -2.487269,0 -4.4979166,2.01065 -4.4979166,4.49792 v 0.42685 c -0.11859375,0.20243 -0.21598185,0.39588 -0.29248875,0.57257 -0.1576686,0.36414 -0.236678,0.63218 -0.236678,0.85266 H 1.0583329 c 0,-0.0441 0.053282,-0.31903 0.19327,-0.64233 0.055343,-0.12782 0.1273683,-0.26935 0.2087726,-0.416 h 1.9792074 c 2.487269,0 4.4979159,-2.01065 4.4979167,-4.49792 v -0.79375 z m 0,0.52917 H 7.408333 v 0.26458 c -8e-7,2.20327 -1.7654864,3.96875 -3.9687501,3.96875 H 1.7983395 c 0.042462,-0.0588 0.082641,-0.11755 0.129191,-0.17673 0.6308566,-0.80209 1.6331104,-1.61953 3.154846,-1.94562 l -0.1105873,-0.5178 c -1.5849054,0.33963 -2.6701181,1.18292 -3.3672364,2.02727 0.1748684,-2.0378 1.8660634,-3.62045 3.9516967,-3.62045 z" color="#000" font-family="sans-serif" font-weight="400" overflow="visible" transform="translate(0 -288.533)" style="line-height:normal;font-variant-ligatures:normal;font-variant-position:normal;font-variant-caps:normal;font-variant-numeric:normal;font-variant-alternates:normal;font-feature-settings:normal;text-indent:0;text-align:start;text-decoration-line:none;text-decoration-style:solid;text-decoration-color:#000;text-transform:none;text-orientation:mixed;shape-padding:0;isolation:auto;mix-blend-mode:normal" fill="#021b79" class="color000000 svgShape"></path></svg>