<svg xmlns="http://www.w3.org/2000/svg" viewBox="0 0 66 66" id="LightBulb"><path d="M32.2 9.3c-8.5.3-15.6 7.3-16.3 15.7-.9 11 7.3 12.2 7.3 22.5 0 .6.4 1 1 1v3.6h-1.9c-.6 0-1 .4-1 1s.4 1 1 1h1.9v2.1c0 .4 0 .8.1 1.2h-2c-.6 0-1 .4-1 1s.4 1 1 1h2.5c1.3 3.3 4.5 5.6 8.2 5.6s6.9-2.3 8.2-5.6h2.5c.6 0 1-.4 1-1s-.4-1-1-1h-2c.1-.4.1-.8.1-1.2v-2.1h1.9c.6 0 1-.4 1-1s-.4-1-1-1h-1.9v-3.6c.6 0 1-.4 1-1 0-10.4 7.4-10.7 7.4-21.1 0-9.7-8.2-17.6-18-17.1zm-1.3 26L27.7 31c3.5-2.6 6.9-2.6 10.6 0l-3.2 4.2c-.1.2-.2.4-.2.6v10.7h-3.8V35.9c0-.3-.1-.5-.2-.6zM33 63c-2.6 0-4.8-1.5-6-3.6h12c-1.2 2.1-3.4 3.6-6 3.6zm6.8-6.8c0 .4 0 .8-.1 1.2H26.3c-.1-.4-.1-.8-.1-1.2v-2.1h13.6v2.1zm-13.6-4.1v-3.6h13.6v3.6H26.2zm14.6-5.6h-3.9V36.2l3.6-4.7c.3-.4.3-1-.2-1.4-5-4-9.9-4-14.7 0-.4.3-.5.9-.1 1.4l3.6 4.7v10.3h-3.9c-.6-10.5-8.1-11.3-7.3-21.3.6-7.5 6.9-13.6 14.4-13.9 8.7-.4 15.8 6.6 15.8 15.1 0 9.5-6.7 9.5-7.3 20.1zM33 6.4c.6 0 1-.4 1-1V2c0-.6-.4-1-1-1s-1 .4-1 1v3.4c0 .6.4 1 1 1zM23 9.1c.5-.3.6-.9.4-1.4l-1.7-3c-.3-.5-.9-.6-1.4-.4-.5.3-.6.9-.4 1.4l1.7 3c.3.5.9.7 1.4.4zM15.3 15l-3-1.7c-.5-.3-1.1-.1-1.4.4-.3.5-.1 1.1.4 1.4l3 1.7c.5.3 1.1.1 1.4-.4.3-.5.1-1.1-.4-1.4zM12 25.4H8.6c-.6 0-1 .4-1 1s.4 1 1 1H12c.6 0 1-.4 1-1s-.4-1-1-1zm45.4 0H54c-.6 0-1 .4-1 1s.4 1 1 1h3.4c.6 0 1-.4 1-1s-.5-1-1-1zM55 13.7c-.3-.5-.9-.6-1.4-.4l-3 1.7c-.5.3-.6.9-.4 1.4.3.5.9.6 1.4.4l3-1.7c.5-.3.7-.9.4-1.4zm-10.7-5 1.7-3c.3-.5.1-1.1-.4-1.4-.5-.3-1.1-.1-1.4.4l-1.7 3c-.3.5-.1 1.1.4 1.4.6.3 1.2.1 1.4-.4z" fill="#021b79" class="color000000 svgShape"></path><path d="M40.9 16.2c-.5-.3-1.1-.2-1.4.2-.3.5-.2 1.1.2 1.4 2 1.4 3 3.2 2.9 5.3 0 .6.4 1 1 1 .5 0 1-.4 1-1 .2-2.7-1.1-5-3.7-6.9z" fill="#021b79" class="color000000 svgShape"></path></svg>