<svg xmlns="http://www.w3.org/2000/svg" data-name="Layer 1" viewBox="0 0 512 512" id="network"><path d="M185.8 195.006A92.653 92.653 0 0 0 163.093 251H125a6 6 0 0 0 0 12h38.22a92.676 92.676 0 0 0 23.153 54.643l-27.386 27.386a6 6 0 0 0 8.487 8.486L194.889 326.1A92.652 92.652 0 0 0 250 348.843V387a6 6 0 0 0 12 0V348.843a92.66 92.66 0 0 0 55.526-23.113l27.284 27.283a6 6 0 1 0 8.484-8.486l-27.3-27.3A92.653 92.653 0 0 0 348.843 262H387a6 6 0 0 0 0-12H348.843a92.665 92.665 0 0 0-23.216-55.643l27.165-27.166a6 6 0 0 0-8.486-8.485l-27.195 27.2A92.644 92.644 0 0 0 261 163.094V125a6 6 0 0 0-12 0v38.221a92.67 92.67 0 0 0-54.761 23.257l-27.269-27.27a6 6 0 0 0-8.485 8.486zM256.1 270.513a24.544 24.544 0 1 1 24.543-24.544A24.571 24.571 0 0 1 256.1 270.513zM263.739 285a39.628 39.628 0 0 1 39.286 36.729 80.2 80.2 0 0 1-94.05-.053A39.583 39.583 0 0 1 248.261 285zM256 174.958a80.99 80.99 0 0 1 57.713 137.864 51.576 51.576 0 0 0-35.952-37.441 36.542 36.542 0 1 0-43.374-.042 51.575 51.575 0 0 0-36.1 37.483A80.99 80.99 0 0 1 256 174.958zM222.655 111h66.69A5.666 5.666 0 0 0 295 105.059V98.973C295 79.956 279.873 64 260.856 64H260.2c11.915-1 21.029-12.11 21.029-24.577a25.165 25.165 0 0 0-50.33-.061C230.9 51.829 240.014 63 251.929 64h-.785C232.127 64 217 79.956 217 98.973v6.086A5.666 5.666 0 0 0 222.655 111zM242.9 39.665A13.165 13.165 0 1 1 256.064 52.83 13.181 13.181 0 0 1 242.9 39.665zM229 98.973C229 86.573 238.743 76 251.144 76h9.712C273.257 76 283 86.573 283 98.973V99H229zM217 485.414V491.5c0 3.313 2.342 6.5 5.655 6.5h66.69c3.313 0 5.655-3.187 5.655-6.5v-6.086A34.171 34.171 0 0 0 260.856 451H260.2a25.166 25.166 0 1 0-8.271 0h-.785A34.171 34.171 0 0 0 217 485.414zm25.9-59.308a13.165 13.165 0 1 1 13.165 13.165A13.181 13.181 0 0 1 242.9 426.106zM283 485.414V486H229v-.586A22.158 22.158 0 0 1 251.144 463h9.712A22.158 22.158 0 0 1 283 485.414zM433.056 233.033A25.374 25.374 0 0 0 454.085 258H453.3A34.115 34.115 0 0 0 419 292.193v6.086A5.609 5.609 0 0 0 424.812 304H491.5a5.359 5.359 0 0 0 5.5-5.721v-6.086A33.852 33.852 0 0 0 463.012 258h-.656a25.231 25.231 0 1 0-29.3-24.967zM485 292.193V292H431v.193A22.1 22.1 0 0 1 453.3 270h9.712A21.84 21.84 0 0 1 485 292.193zm-26.779-72.472a13.165 13.165 0 1 1-13.165 13.165A13.18 13.18 0 0 1 458.221 219.721zM20.5 304H87.188A5.609 5.609 0 0 0 93 298.279v-6.086A34.115 34.115 0 0 0 58.7 258h-.655a25.165 25.165 0 1 0-8.272 0h-.785C29.972 258 14 273.176 14 292.193v6.086C14 301.593 17.187 304 20.5 304zm20.244-71.114A13.165 13.165 0 1 1 53.909 246.05 13.18 13.18 0 0 1 40.744 232.886zM26 292.193C26 279.793 36.588 270 48.988 270H58.7A22.1 22.1 0 0 1 81 292.193V292H26zM373 439.914V446a6.275 6.275 0 0 0 6.312 6H446a6 6 0 0 0 6-6v-6.086C452 420.9 436.528 405 417.512 405h-.656a25.165 25.165 0 1 0-8.271 0H407.8A35.161 35.161 0 0 0 373 439.914zm26.556-59.308a13.165 13.165 0 1 1 13.165 13.165A13.18 13.18 0 0 1 399.556 380.606zM440 439.914V440H385v-.086A23.149 23.149 0 0 1 407.8 417h9.712C429.912 417 440 427.514 440 439.914zM60 439.914V446a6 6 0 0 0 6 6h66.688A6.275 6.275 0 0 0 139 446v-6.086A35.161 35.161 0 0 0 104.2 405h-.655a25.166 25.166 0 1 0-8.272 0h-.785C75.472 405 60 420.9 60 439.914zm26.244-59.308a13.165 13.165 0 1 1 13.165 13.165A13.18 13.18 0 0 1 86.244 380.606zM127 439.914V440H72v-.086C72 427.514 82.088 417 94.488 417H104.2A23.149 23.149 0 0 1 127 439.914zM379.312 157H446c3.313 0 6-3.128 6-6.441v-6.086A34.515 34.515 0 0 0 417.512 110h-.656a25.165 25.165 0 1 0-8.271 0H407.8c-19.017 0-34.8 15.456-34.8 34.473v6.086A6.664 6.664 0 0 0 379.312 157zm20.244-71.835A13.165 13.165 0 1 1 412.721 98.33 13.18 13.18 0 0 1 399.556 85.165zM385 144.473A22.769 22.769 0 0 1 407.8 122h9.712A22.5 22.5 0 0 1 440 144.473V145H385zM66 157h66.688A6.664 6.664 0 0 0 139 150.559v-6.086C139 125.456 123.217 110 104.2 110h-.655a25.165 25.165 0 1 0-8.272 0h-.785A34.515 34.515 0 0 0 60 144.473v6.086C60 153.872 62.687 157 66 157zM86.244 85.165A13.165 13.165 0 1 1 99.409 98.33 13.18 13.18 0 0 1 86.244 85.165zM72 144.473A22.5 22.5 0 0 1 94.488 122H104.2A22.769 22.769 0 0 1 127 144.473V145H72z" fill="#021b79" class="color000000 svgShape"></path></svg>