<svg xmlns="http://www.w3.org/2000/svg" data-name="Layer 1 copy 2" viewBox="0 0 48 48" id="piggybank"><path fill="#021b79" d="M47.969,17.532a1,1,0,0,0-1.961-.216c-.4,1.4-1.37,2.179-2.192,1.629A18.985,18.985,0,0,0,36,12.613a1,1,0,0,0-.829,1.821,16.932,16.932,0,0,1,7.088,5.776.974.974,0,0,0,.2.221,3.062,3.062,0,0,0,2.62.623,2.131,2.131,0,0,1-.837.687A1,1,0,0,0,43.686,23a11.1,11.1,0,0,1,.656,3.748,12.711,12.711,0,0,1-5.154,9.839c-.026.022-.052.045-.077.069a9.246,9.246,0,0,0-2.213,3.32,12.655,12.655,0,0,0-.834,3.768A15.885,15.885,0,0,0,36.136,46h-4.78a7.369,7.369,0,0,0,.363-2.74,4.676,4.676,0,0,0-.532-1.67,1.528,1.528,0,0,0-1.637-.8,24.943,24.943,0,0,1-6.326.281,1.008,1.008,0,0,0-.825.328,6.477,6.477,0,0,0-1.378,2.327A9.822,9.822,0,0,0,20.663,46H16.479a9.024,9.024,0,0,0,.273-1.59l.006-.118a5.806,5.806,0,0,0-.641-3.113,8.351,8.351,0,0,0-3.226-3.233,10.466,10.466,0,0,1-1.068-.775c-1.41-1.233-2.992-2.687-3.25-2.967a10.9,10.9,0,0,0-6.556-3.469V23.4h.57c2.159,0,3.594-.453,4.387-1.384.285-.336.781-1.006,1.068-1.428a14.461,14.461,0,0,1,1.991-2.482A1,1,0,0,0,10,16.671a8.029,8.029,0,0,1-1.029-1.166A8.078,8.078,0,0,1,8,13.559c.378.017.783.046,1.137.1a7.2,7.2,0,0,1,3.529,1.476,1,1,0,0,0,1.151.113,21.112,21.112,0,0,1,4.1-1.809,1,1,0,0,0-.607-1.906,22.882,22.882,0,0,0-3.9,1.652,9.444,9.444,0,0,0-4-1.506,21.506,21.506,0,0,0-2.786-.138,1,1,0,0,0-.956,1.215,12.1,12.1,0,0,0,1.682,3.929c.186.255.381.5.584.732A15.75,15.75,0,0,0,6.369,19.5c-.233.342-.685.952-.918,1.226-.175.205-.8.681-2.864.681H1.494A1.479,1.479,0,0,0,.017,22.881v8.006A1.822,1.822,0,0,0,1.623,32.7,8.874,8.874,0,0,1,7.1,35.558c.371.4,2.135,2.007,3.4,3.112a11.721,11.721,0,0,0,1.28.939,6.685,6.685,0,0,1,2.531,2.429,3.823,3.823,0,0,1,.449,2.156l-.006.131a12.566,12.566,0,0,1-.357,1.8A1.523,1.523,0,0,0,15.879,48h4.969a1.789,1.789,0,0,0,1.789-1.631,11.122,11.122,0,0,1,.274-1.99,4.382,4.382,0,0,1,.674-1.276,26.9,26.9,0,0,0,5.969-.286,2.328,2.328,0,0,1,.175.639,6.035,6.035,0,0,1-.364,2.216A1.786,1.786,0,0,0,31.07,48h5.183a1.89,1.89,0,0,0,1.886-2.024,17.277,17.277,0,0,1-.081-2.076,10.684,10.684,0,0,1,.726-3.256,7.2,7.2,0,0,1,1.7-2.532A14.655,14.655,0,0,0,46.342,26.75a13.062,13.062,0,0,0-.517-3.63A6.547,6.547,0,0,0,47.969,17.532Z" class="color1c1c1b svgShape"></path><path fill="#021b79" d="M27.005,16.064a8.032,8.032,0,1,0-8.032-8.032A8.041,8.041,0,0,0,27.005,16.064ZM27.005,2a6.032,6.032,0,1,1-6.032,6.032A6.039,6.039,0,0,1,27.005,2Z" class="color1c1c1b svgShape"></path><path fill="#021b79" d="M26.18 9.032h1.456a.436.436 0 0 1 0 .871H26.18a.433.433 0 0 1-.346-.17 1 1 0 1 0-1.587 1.216 2.4 2.4 0 0 0 1.661.923V12.6a1 1 0 0 0 2 0v-.719a2.429 2.429 0 0 0-.272-4.844H26.18a.436.436 0 0 1 0-.871h1.456a.436.436 0 0 1 .352.179A1 1 0 0 0 29.6 5.153a2.432 2.432 0 0 0-1.69-.959V3.469a1 1 0 0 0-2 0v.72a2.429 2.429 0 0 0 .272 4.843zM10.188 20.529v1.409a1 1 0 0 0 2 0V20.529a1 1 0 0 0-2 0z" class="color1c1c1b svgShape"></path></svg>