<svg xmlns="http://www.w3.org/2000/svg" data-name="Flat Gradient" viewBox="0 0 64 64" id="SaveTime"><defs><linearGradient id="a" x1="5.982" x2="58.018" y1="32" y2="32" gradientUnits="userSpaceOnUse"><stop offset="0" stop-color="#0575e6" class="stopColorffde00 svgShape"></stop><stop offset="1" stop-color="#021b79" class="stopColorfd5900 svgShape"></stop></linearGradient></defs><path fill="url(#a)" d="M36.00007,17.49928a1,1,0,1,1,1.71005.7h-.01c0,.00995,0,.00995-.01.00995a.9672.9672,0,0,1-.69.29A1.003,1.003,0,0,1,36.00007,17.49928ZM29.77,6.02906c6.57012-4.41,16.94029-1.34,19.77029,6.39012C54.4504,24.82937,40.30013,36.14957,29.28,28.54946,21.41981,23.24938,21.66981,11.00918,29.77,6.02906ZM34,17.49928a3.00247,3.00247,0,0,0,3.00005,3.00006,2.90407,2.90407,0,0,0,1.28005-.3l2.66,2.66a1.02437,1.02437,0,0,0,.71.29,1.00091,1.00091,0,0,0,.7-.29.99011.99011,0,0,0,0-1.42l-2.65-2.65007a3.13044,3.13044,0,0,0,.3-1.29,3.01044,3.01044,0,0,0-2-2.82V9.60913a1,1,0,0,0-2,0v5.0701A3.01044,3.01044,0,0,0,34,17.49928ZM56.7453,29.31919a4.50446,4.50446,0,0,0-6.50756-.16016L43.6401,35.7767a6.49668,6.49668,0,0,1-5.89683,9.2006l-7.72767.00885a1.00134,1.00134,0,0,1-.00226-2.0023l7.72993-.00885a4.49019,4.49019,0,1,0,0-8.98038l-14.49665.01a5.30137,5.30137,0,0,0-3.68427,1.54184l-5.3262,5.33609L26.69053,53.357c3.19378-.4405,12.33425-1.70194,12.33425-1.70194a5.87187,5.87187,0,0,0,3.34381-1.65194L56.71521,35.62649A4.50484,4.50484,0,0,0,56.7453,29.31919ZM13.53533,43.005a2.1599,2.1599,0,0,0-3.21368-.37037L6.56738,46.39889a1.994,1.994,0,0,0,0,2.82329L16.74913,59.424a2.02966,2.02966,0,0,0,2.84325-.01l3.75434-3.76435a2.0094,2.0094,0,0,0,0-2.81328C22.28023,51.76336,14.6302,44.126,13.53533,43.005Z"></path></svg>