<svg xmlns="http://www.w3.org/2000/svg" data-name="line copy" viewBox="0 0 64 64" id="SaveTime"><defs><linearGradient id="a" x1="4" x2="60" y1="31.995" y2="31.995" gradientUnits="userSpaceOnUse"><stop offset="0" stop-color="#0575e6" class="stopColorffde00 svgShape"></stop><stop offset="1" stop-color="#021b79" class="stopColorfd5900 svgShape"></stop></linearGradient></defs><path fill="url(#a)" d="M58.722,37.3515a4.38226,4.38226,0,0,0-4.7041-.96973l-16.426,6.575L28.6628,32.97754a6.498,6.498,0,0,0-4.83686-2.16309H15.35433V28.22467a2.08966,2.08966,0,0,0-2.08686-2.08691H6.08687A2.08969,2.08969,0,0,0,4,28.22467V51.2644a2.08965,2.08965,0,0,0,2.08685,2.08686h7.1806a2.08962,2.08962,0,0,0,2.08686-2.08686V49.50629l8.00775,6.75024a9.2315,9.2315,0,0,0,10.94519,1.39056L57.80208,44.21954a4.35966,4.35966,0,0,0,.91992-6.868ZM13.35439,51.2644a.08711.08711,0,0,1-.08692.08692H6.08687A.0871.0871,0,0,1,6,51.2644V28.22467a.0871.0871,0,0,1,.08691-.08691h7.1806a.08711.08711,0,0,1,.08692.08691ZM57.97786,40.74792a2.34288,2.34288,0,0,1-1.168,1.73536L33.317,55.90985a7.24625,7.24625,0,0,1-8.61322-1.13476l-9.34948-7.88465v-14.076h8.47161a4.49785,4.49785,0,0,1,3.34662,1.497l8.993,10.05066a3.66937,3.66937,0,0,1-.2832,5.19232,3.70165,3.70165,0,0,1-5.19623-.2832l-7.84655-8.76941a1,1,0,0,0-1.49024,1.334l7.84955,8.77233a5.70656,5.70656,0,0,0,8.01355.43946,5.59986,5.59986,0,0,0,1.45709-6.367L54.7552,38.24109a2.376,2.376,0,0,1,2.55274.52441A2.34231,2.34231,0,0,1,57.97786,40.74792Zm-16.63263-4.5224a15.53839,15.53839,0,1,0-15.5379-15.53887A15.55638,15.55638,0,0,0,41.34523,36.22552Zm0-29.07678a13.53839,13.53839,0,1,1-13.5379,13.53791A13.55354,13.55354,0,0,1,41.34523,7.14874Zm-1,13.53791V10.46216a1,1,0,1,1,2,0v9.22449h5.6601a1,1,0,0,1,0,2h-6.6601A.99943.99943,0,0,1,40.34523,20.68665Z"></path></svg>