<svg xmlns="http://www.w3.org/2000/svg" viewBox="0 0 22 28" id="security"><g fill="#021b79" class="color000000 svgShape"><path d="M20.84,5.92 L20.55,5.92 C16.9936874,5.27230283 13.7614985,3.4394367 11.38,0.72 C11.281662,0.614726374 11.1440586,0.554964787 11,0.554964787 C10.8559414,0.554964787 10.718338,0.614726374 10.62,0.72 C8.23850153,3.4394367 5.00631259,5.27230283 1.45,5.92 L1.16,5.92 C0.919453737,5.96398367 0.746011874,6.17549813 0.75,6.42 L0.75,11.8 C0.742034392,17.4035658 3.54329259,22.6380885 8.21,25.74 L10.72,27.42 C10.8914286,27.5266667 11.1085714,27.5266667 11.28,27.42 L13.79,25.74 C18.4567074,22.6380885 21.2579656,17.4035658 21.25,11.8 L21.25,6.42 C21.2539881,6.17549813 21.0805463,5.96398367 20.84,5.92 Z M20.25,11.8 C20.2583299,17.0662487 17.6307742,21.9872851 13.25,24.91 L11,26.4 L8.76,24.91 C4.37922583,21.9872851 1.75167013,17.0662487 1.76,11.8 L1.76,6.8 C5.2942835,6.12984347 8.52744392,4.36280233 11,1.75 C13.4693629,4.3778529 16.707493,6.1561989 20.25,6.83 L20.25,11.8 Z" fill="#021b79" class="color000000 svgShape"></path><path d="M10.62,4.73 C9.00777303,6.57386985 6.81910007,7.81799474 4.41,8.26 L4.21,8.26 C3.96945374,8.30398367 3.79601187,8.51549813 3.8,8.76 L3.8,12.46 C3.78709477,16.3740518 5.74053853,20.0330023 9,22.2 L10.73,23.35 C10.897326,23.470171 11.122674,23.470171 11.29,23.35 L13,22.2 C16.2467764,20.036579 18.1950579,16.3915282 18.19,12.49 L18.19,11.75 C18.19,11.4738576 17.9661424,11.25 17.69,11.25 C17.4138576,11.25 17.19,11.4738576 17.19,11.75 L17.19,12.49 C17.1981718,16.059808 15.4139522,19.3953597 12.44,21.37 L10.99,22.37 L9.54,21.37 C6.56985545,19.3930582 4.78960502,16.0579055 4.8,12.49 L4.8,9.2 C7.16408317,8.72284464 9.32673149,7.53687621 11,5.8 C12.7243787,7.58874528 14.9661833,8.79183539 17.41,9.24 L17.61,9.24 C17.7414015,9.26632381 17.8778702,9.23879727 17.9887933,9.16359516 C18.0997164,9.08839305 18.1758083,8.97181069 18.2,8.84 C18.2430098,8.56535691 18.0624024,8.30545834 17.79,8.25 L17.59,8.25 C15.1808999,7.80799474 12.992227,6.56386985 11.38,4.72 C11.1668116,4.51429898 10.8277024,4.51876095 10.62,4.73 Z" fill="#021b79" class="color000000 svgShape"></path><path d="M9.79,14 C9.66495705,13.874957 9.48270296,13.8261222 9.3118911,13.8718911 C9.14107924,13.91766 9.00765999,14.0510792 8.96189109,14.2218911 C8.9161222,14.392703 8.96495704,14.574957 9.09,14.7 L10.41,16 C10.5007333,16.0966772 10.6274141,16.1515186 10.76,16.1515186 C10.8925859,16.1515186 11.0192667,16.0966772 11.11,16 L14.79,12.32 C14.9832997,12.1267003 14.9832997,11.8132997 14.79,11.62 C14.5967003,11.4267003 14.2832997,11.4267003 14.09,11.62 L10.76,14.94 L9.79,14 Z" fill="#021b79" class="color000000 svgShape"></path><path d="M11,10.25 C8.790861,10.25 7,12.040861 7,14.25 C7,16.459139 8.790861,18.25 11,18.25 C13.209139,18.25 15,16.459139 15,14.25 C15,13.9738576 14.7761424,13.75 14.5,13.75 C14.2238576,13.75 14,13.9738576 14,14.25 C14,15.9068542 12.6568542,17.25 11,17.25 C9.34314575,17.25 8,15.9068542 8,14.25 C8,12.5931458 9.34314575,11.25 11,11.25 C11.2761424,11.25 11.5,11.0261424 11.5,10.75 C11.5,10.4738576 11.2761424,10.25 11,10.25 Z" fill="#021b79" class="color000000 svgShape"></path></g></svg>