<svg xmlns="http://www.w3.org/2000/svg" viewBox="0 0 50 50" id="Target"><path d="M48.779 9.635 42.77 7.23l-2.404-6.01-3.146 3.145A23.909 23.909 0 0 0 25 1C11.767 1 1 11.767 1 25s10.767 24 24 24 24-10.767 24-24c0-4.318-1.17-8.521-3.365-12.22l3.144-3.145zM41.23 8.77l3.99 1.596-2.462 2.461-3.988-1.597-1.596-3.989 2.461-2.462L41.23 8.77zM47 25c0 12.131-9.869 22-22 22S3 37.131 3 25 12.869 3 25 3c3.788 0 7.485.971 10.767 2.818l-.941.941 2 5.001-1.259 1.259C32.746 10.526 29.052 9 25 9 16.178 9 9 16.178 9 25s7.178 16 16 16 16-7.178 16-16c0-4.052-1.526-7.746-4.018-10.568l1.259-1.259 5.001 2 .941-.941A21.937 21.937 0 0 1 47 25zm-16 0c0 3.309-2.691 6-6 6s-6-2.691-6-6 2.691-6 6-6c1.294 0 2.49.416 3.471 1.115l-2.959 2.959A2.017 2.017 0 0 0 25 23a2 2 0 1 0 2 2c0-.178-.031-.347-.074-.512l2.959-2.959A5.961 5.961 0 0 1 31 25zm-1.102-6.312A7.953 7.953 0 0 0 25 17c-4.411 0-8 3.589-8 8s3.589 8 8 8 8-3.589 8-8a7.953 7.953 0 0 0-1.688-4.898l4.257-4.257A13.931 13.931 0 0 1 39 25c0 7.72-6.28 14-14 14s-14-6.28-14-14 6.28-14 14-14c3.5 0 6.697 1.3 9.154 3.432l-4.256 4.256z" fill="#021b79" class="color000000 svgShape"></path></svg>