<svg xmlns="http://www.w3.org/2000/svg" enable-background="new 0 0 492 492" viewBox="0 0 492 492" id="TimeSaving"><linearGradient id="a" x1="110.727" x2="398.874" y1="103.921" y2="392.067" gradientUnits="userSpaceOnUse"><stop offset="0" stop-color="#0575e6" class="stopColor009fff svgShape"></stop><stop offset="1" stop-color="#021b79" class="stopColorec2f4b svgShape"></stop></linearGradient><path fill="url(#a)" d="M267.07,403.27c-13.21,0-17.09-0.81-32.96-9.02c-26.56-13.74-37.25-26.38-52.06-43.88
	c-4.8-5.68-10.25-12.11-16.83-19.26c-8.82-9.58-26.04-20.58-58-18.63c-2.76,0.15-5.13-1.93-5.29-4.69c-0.17-2.76,1.93-5.13,4.69-5.3
	c35.87-2.17,55.67,10.67,65.96,21.84c6.73,7.3,12.24,13.82,17.11,19.57c14.59,17.24,24.22,28.63,49.02,41.46
	c15.43,7.99,16.97,7.97,31.66,7.89c1.67-0.01,3.51-0.02,5.53-0.02h104.36c4.42,0,8.02-3.6,8.02-8.02v-9.4
	c0-9.6-7.81-17.42-17.42-17.42h-79.64c-0.94,1.19-1.99,2.36-3.12,3.52c-5.5,5.58-9.84,10-15.5,10c-0.01,0-0.03,0-0.04,0
	c-4.79-0.02-8.85-3.21-13.84-8.36l-77.28-79.71c-1.92-1.98-1.87-5.15,0.11-7.07s5.15-1.87,7.07,0.11l77.28,79.71
	c4.48,4.62,6.12,5.32,6.7,5.32l0,0c1.46,0,5.79-4.39,8.37-7.01c1.17-1.18,2.18-2.36,3.06-3.54c0.25-0.56,0.61-1.07,1.04-1.5
	c2.08-3.26,3.05-6.53,2.96-9.88c-0.32-11.47-13.09-23.08-23.35-32.4c-1.58-1.43-3.11-2.82-4.53-4.16
	c-19.63-18.35-34.85-48.84-35.49-50.13c-0.05-0.1-0.09-0.2-0.13-0.3c-20.01-48.03-116.12-38.98-117.09-38.89
	c-2.74,0.27-5.2-1.73-5.47-4.48c-0.28-2.75,1.73-5.2,4.47-5.47c4.25-0.43,104.26-9.85,127.25,44.82
	c1.1,2.19,15.63,30.62,33.29,47.13c1.4,1.31,2.89,2.66,4.43,4.06c11.67,10.6,26.18,23.79,26.62,39.52c0.08,2.95-0.34,5.85-1.27,8.7
	h74.11c15.12,0,27.42,12.3,27.42,27.42v9.4c0,9.93-8.08,18.02-18.02,18.02H275.9c-2,0-3.81,0.01-5.47,0.02
	C269.24,403.26,268.13,403.27,267.07,403.27z M345.04,403.23c-2.76,0-5-2.24-5-5v-13.3c0-9.54,7.76-17.29,17.29-17.29h35.55
	c2.76,0,5,2.24,5,5s-2.24,5-5,5h-35.55c-4.02,0-7.29,3.27-7.29,7.29v13.3C350.04,401,347.8,403.23,345.04,403.23z M99.54,330.73
	H37.65c-6.83,0-12.39-5.56-12.39-12.39V194.51c0-6.83,5.56-12.39,12.39-12.39h61.89c6.83,0,12.39,5.56,12.39,12.39v123.83
	C111.93,325.17,106.37,330.73,99.54,330.73z M37.65,192.12c-1.3,0-2.39,1.1-2.39,2.39v123.83c0,1.3,1.1,2.39,2.39,2.39h61.89
	c1.3,0,2.39-1.1,2.39-2.39V194.51c0-1.3-1.1-2.39-2.39-2.39H37.65z M282,365.95c-1.77,0-3.48-0.94-4.39-2.6l0,0
	c-2.55-4.66-11.71-18.22-20.07-19.42c-1.71-0.25-4.37-0.18-7.72,3.16c-1.95,1.95-5.12,1.95-7.07,0c-1.95-1.95-1.95-5.12,0-7.07
	c6.01-6.01,12.14-6.57,16.22-5.99c14.81,2.13,26.17,22.24,27.41,24.52c1.32,2.42,0.43,5.46-2,6.78
	C283.63,365.75,282.81,365.95,282,365.95z M356.02,291.76c-49.8,0-90.31-40.51-90.31-90.31s40.51-90.32,90.31-90.32
	s90.32,40.52,90.32,90.32S405.82,291.76,356.02,291.76z M356.02,121.13c-44.29,0-80.31,36.03-80.31,80.32s36.03,80.31,80.31,80.31
	c44.29,0,80.32-36.03,80.32-80.31C436.34,157.16,400.31,121.13,356.02,121.13z M356.02,142.4c-2.76,0-5-2.24-5-5v-21.26
	c0-2.76,2.24-5,5-5s5,2.24,5,5v21.26C361.02,140.16,358.79,142.4,356.02,142.4z M388.04,150.98c-0.85,0-1.71-0.22-2.5-0.67
	c-2.39-1.38-3.21-4.44-1.83-6.83l10.63-18.42c1.38-2.39,4.44-3.21,6.83-1.83c2.39,1.38,3.21,4.44,1.83,6.83l-10.63,18.42
	C391.45,150.08,389.77,150.98,388.04,150.98z M411.5,174.42c-1.73,0-3.41-0.9-4.33-2.5c-1.38-2.39-0.56-5.45,1.83-6.83l18.42-10.63
	c2.39-1.38,5.45-0.56,6.83,1.83c1.38,2.39,0.56,5.45-1.83,6.83L414,173.75C413.21,174.21,412.35,174.42,411.5,174.42z
	 M441.34,206.45h-21.26c-2.76,0-5-2.24-5-5s2.24-5,5-5h21.26c2.76,0,5,2.24,5,5S444.1,206.45,441.34,206.45z M429.91,249.1
	c-0.85,0-1.71-0.22-2.5-0.67l-18.42-10.63c-2.39-1.38-3.21-4.44-1.83-6.83s4.44-3.21,6.83-1.83l18.42,10.63
	c2.39,1.38,3.21,4.44,1.83,6.83C433.31,248.21,431.63,249.1,429.91,249.1z M398.69,280.33c-1.73,0-3.41-0.9-4.33-2.5l-10.63-18.42
	c-1.38-2.39-0.56-5.45,1.83-6.83c2.39-1.38,5.45-0.56,6.83,1.83l10.63,18.42c1.38,2.39,0.56,5.45-1.83,6.83
	C400.4,280.12,399.54,280.33,398.69,280.33z M356.02,291.76c-2.76,0-5-2.24-5-5V265.5c0-2.76,2.24-5,5-5s5,2.24,5,5v21.26
	C361.02,289.52,358.79,291.76,356.02,291.76z M313.36,280.33c-0.85,0-1.71-0.22-2.5-0.67c-2.39-1.38-3.21-4.44-1.83-6.83
	l10.63-18.42c1.38-2.39,4.43-3.21,6.83-1.83c2.39,1.38,3.21,4.44,1.83,6.83l-10.63,18.42C316.77,279.43,315.09,280.33,313.36,280.33
	z M282.14,249.1c-1.73,0-3.41-0.9-4.33-2.5c-1.38-2.39-0.56-5.45,1.83-6.83l18.42-10.63c2.39-1.38,5.45-0.56,6.83,1.83
	c1.38,2.39,0.56,5.45-1.83,6.83l-18.42,10.63C283.85,248.89,282.99,249.1,282.14,249.1z M291.97,206.45h-21.26c-2.76,0-5-2.24-5-5
	s2.24-5,5-5h21.26c2.76,0,5,2.24,5,5S294.74,206.45,291.97,206.45z M300.55,174.42c-0.85,0-1.71-0.22-2.5-0.67l-18.42-10.63
	c-2.39-1.38-3.21-4.44-1.83-6.83s4.44-3.21,6.83-1.83l18.42,10.63c2.39,1.38,3.21,4.44,1.83,6.83
	C303.96,173.52,302.28,174.42,300.55,174.42z M324,150.98c-1.73,0-3.41-0.9-4.33-2.5l-10.63-18.42c-1.38-2.39-0.56-5.45,1.83-6.83
	c2.39-1.38,5.45-0.56,6.83,1.83l10.63,18.42c1.38,2.39,0.56,5.45-1.83,6.83C325.71,150.76,324.85,150.98,324,150.98z M356.02,217.95
	c-9.1,0-16.51-7.41-16.51-16.51c0-9.1,7.41-16.51,16.51-16.51s16.51,7.41,16.51,16.51C372.53,210.55,365.13,217.95,356.02,217.95z
	 M356.02,194.94c-3.59,0-6.51,2.92-6.51,6.51s2.92,6.51,6.51,6.51s6.51-2.92,6.51-6.51S359.61,194.94,356.02,194.94z M356.02,194.94
	c-2.76,0-5-2.24-5-5v-37.05c0-2.76,2.24-5,5-5s5,2.24,5,5v37.05C361.02,192.7,358.79,194.94,356.02,194.94z M381.19,248.83
	c-1.68,0-3.32-0.85-4.27-2.39l-19.77-32.22c-1.44-2.35-0.71-5.43,1.65-6.88c2.36-1.45,5.43-0.71,6.88,1.65l19.77,32.22
	c1.44,2.35,0.71,5.43-1.65,6.88C382.98,248.59,382.08,248.83,381.19,248.83z M356.02,312.68c-61.33,0-111.24-49.9-111.24-111.23
	s49.9-111.24,111.24-111.24s111.24,49.9,111.24,111.24S417.36,312.68,356.02,312.68z M356.02,100.21
	c-55.82,0-101.24,45.41-101.24,101.24c0,55.82,45.41,101.23,101.24,101.23s101.24-45.41,101.24-101.23
	C457.26,145.62,411.85,100.21,356.02,100.21z"></path></svg>