<svg xmlns="http://www.w3.org/2000/svg" fill="none" viewBox="0 0 64 64" id="timesave"><path fill="#021b79" d="M58 25C58 14.5066 49.4934 6 39 6C28.5066 6 20 14.5066 20 25C20 26.0812 20.0901 27.1398 20.2628 28.1691C20.4455 29.2584 19.7106 30.2897 18.6213 30.4724C17.5319 30.6552 16.5007 29.9203 16.3179 28.8309C16.1087 27.5838 16 26.3038 16 25C16 12.2975 26.2975 2 39 2C51.7025 2 62 12.2975 62 25C62 37.7025 51.7025 48 39 48C37.8954 48 37 47.1046 37 46C37 44.8954 37.8954 44 39 44C49.4934 44 58 35.4934 58 25Z" class="color000000 svgShape"></path><path fill="#021b79" fill-rule="evenodd" d="M2 37C2 35.8954 2.89543 35 4 35H20.0005C20.4543 35 20.8945 35.1543 21.249 35.4375L30.105 42.5136C32.4347 44.3751 33.0129 47.6238 31.5879 50.1463H45.0732C48.3465 50.1463 51 52.7999 51 56.0732C51 59.3465 48.3465 62 45.0732 62H12.6975C12.2543 62 11.8238 61.8528 11.4733 61.5816L2.77586 54.8499C2.28648 54.4711 2 53.8871 2 53.2683V37ZM27.2309 49.3415L24.4626 47.1989C23.5891 46.5228 22.3329 46.6828 21.6568 47.5564C20.9808 48.4298 21.1408 49.686 22.0143 50.3621L26.363 53.728C26.7135 53.9992 27.1441 54.1463 27.5872 54.1463H45.0732C46.1373 54.1463 47 55.009 47 56.0732C47 57.1373 46.1373 58 45.0732 58H13.381L6 52.2872V39H19.2996L27.6081 45.6386C28.4621 46.3209 28.61 47.5625 27.9403 48.4264L27.2309 49.3415Z" clip-rule="evenodd" class="color000000 svgShape"></path><path fill="#021b79" d="M50 27C51.1046 27 52 26.1046 52 25C52 23.8954 51.1046 23 50 23H41V10.5C41 9.39543 40.1046 8.5 39 8.5C37.8954 8.5 37 9.39543 37 10.5V25C37 26.1046 37.8954 27 39 27H50Z" class="color000000 svgShape"></path></svg>