<svg width="570" height="395" viewBox="0 0 570 395" fill="none" xmlns="http://www.w3.org/2000/svg">
<g clip-path="url(#clip0_54_2)">
<rect width="570" height="395" fill="white"/>
<path d="M514.106 348C515.286 348.022 516.272 348.47 517.094 349.28C519.292 351.455 518.979 354.53 518.991 357.33L518.954 364.176C518.934 364.964 518.771 365.66 518.502 366.399L518.433 366.605C517.916 368.037 516.846 369.043 515.665 370L438.959 369.889C437.904 369.225 436.842 368.47 436.089 367.483C433.841 364.534 433.707 359.826 434.301 356.317C434.9 352.791 436.671 350.835 439.537 348.821L460.176 348.743L491.085 348.75L507.238 348.745C509.188 348.733 512.478 349.087 514.106 348Z" fill="url(#paint0_linear_54_2)"/>
<path d="M266.831 172L253 176.638L274.898 278.681L284.695 210.266L278.932 200.41L287.576 193.452L296.22 200.41L291.61 210.266L299.678 281L321 176.638L307.746 172L287.576 191.713L266.831 172Z" fill="white" stroke="black" stroke-opacity="0.01"/>
<path d="M46.3881 21.0776C47.0972 20.9321 47.5849 20.9842 48.2585 21.2934C49.4044 21.8194 50.382 22.9415 50.7923 24.254C51.1416 25.3721 51.043 26.4221 50.552 27.4672C49.9217 28.8097 48.8629 29.4598 47.6286 29.9205C46.9655 30.0909 46.1842 29.9676 45.5401 29.7373C44.5642 29.3882 43.6879 28.2466 43.2789 27.2106C42.8856 26.2163 42.9159 24.5678 43.3217 23.5799C43.9282 22.1041 45.1093 21.5378 46.3881 21.0776Z" fill="url(#paint1_linear_54_2)"/>
<path d="M527.675 130.036C528.475 129.949 529.37 130.015 530.128 130.299C531.247 130.72 532.238 131.808 532.672 132.915C533.083 133.964 533.138 135.371 532.663 136.407C532.046 137.749 531.051 138.416 529.712 138.929C528.635 139.079 527.552 139.01 526.561 138.529C525.488 138.008 524.606 136.87 524.213 135.748C523.811 134.603 523.999 133.171 524.597 132.128C525.296 130.913 526.383 130.41 527.675 130.036Z" fill="url(#paint2_linear_54_2)"/>
<path d="M534.04 284.132C534.868 283.984 535.603 283.896 536.412 284.228C537.391 284.632 538.247 285.607 538.659 286.667C539.149 287.928 539.102 289.065 538.577 290.299C537.971 291.732 536.952 292.329 535.704 292.874C535.136 293.062 534.642 293.032 534.079 292.832C533.006 292.449 531.867 291.433 531.381 290.272C530.898 289.122 530.875 288.001 531.307 286.824C531.835 285.382 532.831 284.719 534.04 284.132Z" fill="url(#paint3_linear_54_2)"/>
<path d="M225.427 36.1065C226.13 35.9889 226.77 35.9417 227.472 36.1073C228.716 36.4005 229.858 37.196 230.472 38.3248C230.981 39.2589 231.171 40.7799 230.823 41.7957C230.245 43.4857 228.73 44.298 227.19 44.9317C226.491 45.0475 225.93 45.0303 225.271 44.769C224.008 44.2685 222.901 43.4174 222.379 42.126C221.91 40.9636 221.845 39.9397 222.363 38.787C222.995 37.3806 224.055 36.6786 225.427 36.1065Z" fill="url(#paint4_linear_54_2)"/>
<path d="M219.691 140.073C220.59 139.918 221.524 140.005 222.365 140.383C223.504 140.894 224.289 141.794 224.74 142.937C225.173 144.034 225.041 145.498 224.524 146.55C223.855 147.911 222.666 148.467 221.316 148.998C220.411 149.01 219.638 148.986 218.796 148.621C217.641 148.119 216.619 147.099 216.247 145.905C215.868 144.687 215.896 143.441 216.537 142.314C217.229 141.098 218.385 140.456 219.691 140.073Z" fill="url(#paint5_linear_54_2)"/>
<path d="M295.687 200L305.352 206.291C306.738 207.18 309.133 208.347 310 209.607L307.833 213L294 202.964L295.687 200Z" fill="#9BD1F3"/>
<path d="M279 203.295L266.615 215L265 209.649C268.659 206.106 273.194 202.935 277.308 200L279 203.295Z" fill="#9BD1F3"/>
<path d="M132.983 104C134.189 106.155 135.015 108.54 135.954 110.818L141.394 124.406L149.668 144.556C151.499 148.993 153.51 153.439 155 158L153.54 157.962C152.601 153.852 150.066 149.575 148.5 145.616L132 104.982C132.268 104.346 132.405 104.339 132.983 104Z" fill="#F9A538"/>
<path d="M46.7811 130C47.2074 130.173 47.6106 130.329 48 130.573L26.6985 181.792L25 182C26.96 178.022 28.4105 173.523 30.1187 169.416L41.3208 142.777C43.0743 138.565 44.5991 134.013 46.7811 130Z" fill="#F9A538"/>
<path d="M278 199.786L287.334 193L297 199.793L295.354 202.942L291.742 209.965L283.747 210L279.846 203.146L278 199.786Z" fill="#1C1C1C"/>
<path d="M476.284 92.9763C475.825 92.1057 476.06 90.2597 476.06 89.2451V79L498.972 79.0153L498.988 90.5474L499 93L476.284 92.9763Z" fill="url(#paint6_linear_54_2)"/>
<path d="M476.029 92.9814C476.041 92.2847 475.811 91.508 476.473 91L498.988 91.0689L499 93L476.029 92.9814Z" fill="white"/>
<path d="M418 90.6692L418.016 79L441 79.1795L440.956 90.6864L440.931 93L418.04 92.9289L418 90.6692Z" fill="url(#paint7_linear_54_2)"/>
<path d="M418 91L441 91.0148L440.976 93L418.041 92.939L418 91Z" fill="white"/>
<path d="M119.7 93.9245L120.335 93.6215C121.364 90.7078 122.739 88.4099 125.629 87.041C127.845 85.9912 130.514 85.6075 132.849 86.4922C135.27 87.4095 137.327 89.4237 138.326 91.801C139.256 94.0173 139.215 96.7394 138.256 98.946C137.133 101.529 135.441 103.167 132.971 104.439C132.681 104.588 132.576 104.661 132.403 104.931C131.836 105.264 131.701 105.271 131.438 105.897L130.656 105.161C129.818 106.089 129.422 107.522 128.957 108.67L125.989 116.186L109.499 157.954L108 158L128.589 105.635C128.512 105.036 126.258 104.629 125.588 104.32C123.708 103.454 122.546 101.886 121.437 100.212C120.628 98.1698 120.314 96.6868 120.318 94.4846L119.7 93.9245Z" fill="url(#paint8_linear_54_2)"/>
<path d="M45.9849 129.44C46.0139 129.159 45.9808 128.908 45.9536 128.628C44.064 128.157 42.612 127.484 41.1958 126.134C39.396 124.418 38.0083 122.057 38.0001 119.524C37.9897 116.504 39.0799 113.914 41.2537 111.772C42.992 110.058 45.3603 108.976 47.8472 109C51.2082 109.033 53.6935 110.832 55.944 113.067C56.8169 115.299 57.7956 117.064 57.7191 119.524C57.0536 122.587 55.98 125.323 53.2386 127.155C52.2691 127.803 51.1021 128.249 49.9949 128.608L71 182L69.5327 181.863L56.6496 149.635L50.5427 134.105C49.8351 132.361 49.2976 130.243 48.2814 128.674L47.8311 128.782L47.185 130.02C46.8016 129.773 46.4047 129.616 45.9849 129.44Z" fill="#FDBD33"/>
<path d="M152.474 158.001L153.917 158.039L161 158C159.563 164.282 156.065 169.391 150.646 172.795C142.213 178.091 130.563 179.173 121.002 176.823C116.923 175.82 112.109 174.064 109 171.148C109.208 170.998 109.383 170.782 109.624 170.696C110.747 170.292 114.368 171.294 115.623 171.44C118.195 171.739 121.018 171.952 123.605 171.867C127.861 171.728 132.078 171.041 136.069 169.496C141.886 167.243 146.201 163.818 148.781 158.009L152.474 158.001Z" fill="#F9BD2C"/>
<path d="M83.2865 96.3133C86.5577 95.6261 89.6678 96.0375 92.5153 97.8644C95.1392 99.548 97.2308 102.454 97.7869 105.569C97.9216 106.326 98.0367 107.244 97.989 108.013C97.6319 109.499 97.2485 110.889 96.6476 112.295C95.0407 115.45 93.0932 117.474 89.6892 118.598L88.7905 118.872C86.9132 119.122 85.1214 118.988 83.27 118.628C82.3717 118.387 81.4104 117.835 80.5488 117.458C78.4604 115.892 77.2102 114.371 75.9504 112.074L75 107.673L75.5295 104.386L76.862 101.375C78.0052 99.8741 79.1461 98.7417 80.64 97.5951L83.2865 96.3133Z" fill="#D5352F"/>
<path d="M120.242 93L120.868 93.5868C120.864 95.8942 121.181 97.448 122 99.5882L57.7534 120C57.8289 117.452 56.8622 115.624 56 113.312L120.242 93Z" fill="#F9A538"/>
<path d="M69.559 182.07L71.003 182.201C72.5978 182.169 78.0483 181.624 79 182.475C78.8618 186.188 75.8672 190.607 73.1028 193.068C66.1392 199.268 56.3501 201.34 47.0737 200.956C39.5946 200.645 31.9725 198.643 26 194.165C27.0659 193.703 28.0953 194.02 29.2442 194.16L35.4455 194.813C42.4128 195.306 50.4716 194.304 56.5127 190.73C58.2413 189.707 60.2289 187.931 61.3733 186.311C61.6681 185.893 63.1113 182.549 63.2548 182.475C63.8979 182.145 64.7199 182.651 65.4907 182.111L69.559 182.07Z" fill="#F9BD2C"/>
<path d="M482.577 246.646C483.337 243.729 483.771 239.03 486.553 237.473C487.5 236.944 488.641 236.868 489.668 237.199C490.68 237.524 491.443 238.229 491.91 239.18C493.291 241.99 492.178 246.422 491.813 249.432L491.248 255.111C489.916 260.981 492.471 269.641 495.525 274.607C495.667 274.84 495.821 275.022 496 275.228L490.883 281L474 259.553C475.677 257.205 477.046 254.463 478.268 251.85C479.276 252.05 480.242 252.455 481.209 252.071L482.577 246.646Z" fill="#F7A780"/>
<path d="M141.354 370.244L200.907 370L200.869 371.809L201 373L38.7754 372.948L38 372.013C38.0138 371.101 38.1193 371.061 38.7608 370.346C40.6117 369.827 43.521 370.171 45.4827 370.174L61.2364 370.245C64.5991 370.945 69.0155 370.511 72.5 370.52L95.7498 370.549L127.7 370.515L136.546 370.487C138.117 370.48 139.839 370.638 141.354 370.244Z" fill="#54A6ED"/>
<path d="M26.8201 182L65 182.048C64.2369 182.594 63.423 182.082 62.7862 182.416C62.6441 182.491 61.2153 185.869 60.9234 186.291C59.7904 187.928 57.8225 189.723 56.1111 190.756C50.1299 194.367 42.151 195.379 35.2529 194.881L29.1131 194.222C27.9757 194.08 26.9565 193.759 25.9012 194.226L25.7216 194.134C21.3927 191.572 19.2212 186.776 18 182.22C20.374 182.161 22.8264 181.97 25.1907 182.205L26.8201 182Z" fill="#F9BD2C"/>
<path d="M110.012 158.008L149 158.098C146.464 163.917 142.221 167.349 136.503 169.606C132.579 171.154 128.434 171.842 124.25 171.981C121.707 172.066 118.932 171.853 116.403 171.554C115.169 171.407 111.609 170.404 110.506 170.808C110.269 170.895 110.096 171.11 109.892 171.261C105.482 168.338 103.081 163.095 102 158L108.53 158.056L110.012 158.008Z" fill="#F9BD2C"/>
<path d="M418.041 93L441 93.0812L440.996 121L418 120.981L418.041 93Z" fill="url(#paint9_linear_54_2)"/>
<path d="M498.968 93.0256L499 120L476 119.995L476.208 93L498.968 93.0256Z" fill="url(#paint10_linear_54_2)"/>
<path d="M60.3876 215L112.175 215.021C112.462 216.096 112.882 217.254 112.963 218.362L113.356 219.214C117.017 219.481 124.356 217.948 126.844 220.994C127.627 221.954 128.154 223.533 127.959 224.766C127.774 225.941 127.18 226.748 126.35 227.573C124.846 227.993 123.136 227.824 121.577 227.831L112.796 227.862L81.0796 227.898L58.0002 227.866C54.5413 227.857 50.1572 228.321 46.8191 227.573C45.9218 226.71 45.2597 225.961 45.0493 224.68C44.8646 223.556 45.2099 222.388 45.9033 221.49C48.4127 218.236 55.3808 219.903 59.1526 219.439L59.5372 218.608C59.6207 217.438 60.0869 216.144 60.3876 215Z" fill="#F9A538"/>
<path d="M59.8595 215L112.203 215.022C112.494 216.191 112.918 217.448 113 218.652L112.775 219.608C107.993 220.045 103.041 219.758 98.2387 219.733L72.4683 219.67L63.1917 219.819C62.1881 219.843 60.4662 220.144 59.5243 219.914C59.3876 219.881 59.2914 219.748 59.1753 219.665L59 218.919C59.0844 217.648 59.5556 216.243 59.8595 215Z" fill="#F07121"/>
<path d="M83.5451 119C85.4304 119.358 87.2548 119.491 89.1664 119.242L89.0928 187.824L89.0785 197.138C96.7896 197.733 103.241 201.027 108.229 206.79C110.323 209.209 111.92 212.01 113 215L60 214.979C61.2031 212.133 62.6828 209.604 64.5964 207.163C69.4111 201.022 76.1196 198.066 83.7514 197.106L83.5451 119Z" fill="#F9A538"/>
<path d="M283.795 210.035L291.378 210L299 280.856L296.499 294L275 281.44L275.088 279.26L283.795 210.035Z" fill="#1C1C1C"/>
<path d="M444 56.9515L444.013 48.0809L472 48L471.826 120L444.106 119.964L444.03 59.5818L444 56.9515Z" fill="url(#paint11_linear_54_2)"/>
<path d="M444 58.0102C447.609 58.1204 470.106 57.7914 471 58.2648L470.975 59.6851C469.667 60.2404 447.038 59.887 444.029 59.9117L444 58.0102Z" fill="white"/>
<path d="M451.008 69L464.988 69.0028L465 89L451 88.9654L451.008 69Z" fill="white"/>
<path d="M253.161 176L275 278.817L274.909 281L254.948 269.679C254.468 267.543 253.036 265.333 251.973 263.429L246.916 254.4L237.631 237.194C238.295 235.553 248.071 227.195 250.001 225.504L238.616 221.412C236.719 220.75 233.426 220.129 232.049 218.709C231.424 218.065 230.99 216.934 231 216.028C231.036 212.72 232.561 208.46 233.348 205.198L237.61 187.622C238.194 185.535 239.659 182.71 239.684 180.613L238.98 180.247L253.161 176Z" fill="#2C2C2C"/>
<path d="M374.769 117.035C380.999 116.772 386.424 117.954 391.671 121.658C397.378 125.687 401.483 132.443 402.629 139.449C403.75 146.33 402.335 153.95 398.321 159.666C393.867 166.009 387.772 169.485 380.277 170.796C373.748 171.661 367.019 169.74 361.739 165.747C355.935 161.359 352.187 154.325 351.225 147.057C350.346 140.415 352.065 133.062 356.032 127.726C360.844 121.252 367.014 118.063 374.769 117.035Z" fill="url(#paint12_linear_54_2)"/>
<path d="M389.264 132L394 135.646C392.778 137.338 391.118 138.798 389.657 140.284L381.813 148.278L376.814 153.364C375.965 154.227 375.056 155.379 374.021 156L368.699 150.753C366.714 148.849 364.676 146.994 363 144.801C364.654 143.211 366.324 142.32 368.468 141.54L373.801 146.908L389.264 132Z" fill="#FEFEFE"/>
<path d="M380.817 22.1341C381.946 21.9196 383.349 22.0274 384.506 22.025C391.839 22.01 398.946 25.5827 404.046 30.7246C409.153 35.8717 412.044 43.3494 411.999 50.5914C411.947 58.2438 408.722 65.1986 403.268 70.4899C397.588 76 390.283 78.133 382.567 77.9936C379.839 77.753 376.84 77.0027 374.324 75.9076C373.568 75.5783 372.008 74.416 371.348 74.3321C370.436 74.2162 368.355 74.9216 367.364 75.1035L356.739 76.8654C356.527 76.2111 357.112 74.6044 357.278 73.8881L358.798 66.734C358.984 65.7974 359.441 64.4248 359.431 63.4967C359.42 62.5564 358.152 60.6596 357.759 59.6593C356.966 57.6394 356.495 55.3727 356.217 53.2252C355.253 45.7701 357.553 38.2246 362.157 32.354C366.738 26.5114 373.555 23.0495 380.817 22.1341Z" fill="url(#paint13_linear_54_2)"/>
<path d="M382.219 34.0904C385.523 33.8199 388.986 34.1 391.946 35.7076C393.318 36.4524 395.619 37.9278 396.068 39.4947L393.957 41.337L391.417 39.4884C388.378 37.5712 384.889 37.1235 381.409 37.9469C378.174 38.7116 375.776 40.8203 374.145 43.6383C372.585 46.3315 371.985 49.4175 372.869 52.4481C373.776 55.5524 375.96 58.4299 378.855 59.9677C382.253 61.7735 385.653 61.7069 389.255 60.626C391.253 59.691 392.785 58.3625 394.385 56.8909L397 59.2213L396.908 59.5092C394.561 61.56 391.975 63.6994 388.886 64.4954C385.003 65.4944 380.304 65.023 376.845 62.9663C372.994 60.6767 370.446 57.1489 369.398 52.8542C368.43 48.8845 369.273 44.5137 371.438 41.0699C374.007 36.9837 377.622 35.1264 382.219 34.0904Z" fill="#FEFEFE"/>
<path d="M477.858 251.701L428.837 239.338L417.033 236.22C414.727 235.633 412.094 235.232 409.901 234.335C408.617 233.808 407.466 232.809 406.756 231.61C405.556 229.586 406.009 227.687 406.582 225.543L420.902 174.665L426.208 155.693C427.29 151.68 428.167 147.243 429.645 143.376C430.206 141.904 431.066 140.673 432.459 139.9C433.55 139.296 434.826 138.939 436.078 139.009C438.569 139.149 441.388 140.231 443.827 140.829L460.844 145.014C461.434 145.169 464.62 146.291 465.032 146.19C465.589 146.053 466.126 144.973 466.393 144.528C467.814 144.43 469.482 145.158 470.843 145.558L478.807 147.744C479.905 145.607 480.838 143.811 483.261 143.042C485.967 142.184 490.029 143.931 492.731 144.711C493.918 145.054 495.501 145.342 496.551 145.936C497.609 146.531 498.8 148.392 499.034 149.579C499.273 150.767 499.067 152.034 499.18 153.242L513.067 156.645L512.494 159.945C520.853 161.438 529.164 163.676 537.378 165.805C539.906 166.461 542.894 166.846 545.277 167.877C546.25 168.299 547.126 169.096 547.712 169.979C548.851 171.687 549.263 174.256 548.834 176.256C548.059 179.89 546.755 183.52 545.701 187.087L539.292 209.075L530 242.306C528.615 247.202 527.589 252.597 525.667 257.282C525.073 258.726 523.854 260.159 522.553 261.003C520.841 262.11 518.895 262.477 516.9 262.04L514.537 261.383C509.946 266.037 505.516 270.694 499.636 273.736C498.622 274.259 497.387 275.002 496.224 275L495.489 274.947C495.311 274.742 495.158 274.561 495.016 274.329C491.98 269.391 489.439 260.78 490.764 254.943L491.325 249.297L509.776 254.145C512.171 254.755 514.99 255.806 517.425 256.03C518.091 256.091 518.701 255.832 519.266 255.501C520.102 255.011 520.554 254.381 520.882 253.491C523.442 246.553 524.9 238.909 526.951 231.774L537.337 193.806L542.288 176.198C542.51 175.326 542.652 174.053 542.127 173.273C541.812 172.801 541.343 172.501 540.818 172.302C538.262 171.334 535.221 170.883 532.548 170.21L512.599 165.207L512.013 170.601L460.695 157.701L462.706 151.49L448.625 147.92C444.796 146.917 440.847 145.658 436.966 144.951C436.146 144.801 435.153 144.639 434.402 145.074C433.517 145.588 433.077 146.494 432.819 147.442L429.095 163.205L421.148 197.675L416.714 217.031C416.023 220.036 415.022 223.205 414.65 226.261C414.554 227.035 414.695 227.744 415.123 228.402C415.624 229.184 416.528 229.959 417.405 230.301C420.672 231.582 424.742 232.205 428.187 233.021L441.743 236.433L482.142 246.526L480.781 251.921C479.82 252.302 478.859 251.9 477.858 251.701Z" fill="#E39631"/>
<path d="M495.267 274.944C495.083 274.73 494.924 274.54 494.778 274.298C491.632 269.127 489 260.111 490.373 254C490.527 254.219 490.64 254.48 490.841 254.656C491.761 255.458 512.147 260.02 515 260.742C510.244 265.616 505.654 270.492 499.563 273.677C498.513 274.224 497.233 275.002 496.028 275L495.267 274.944Z" fill="#EF8164"/>
<path d="M163.875 34.2268L165.782 34.0561C172.991 33.5875 180.383 36.0785 185.802 40.698C192.448 46.3635 194.736 53.3415 195.267 61.66C196.749 61.2009 198.354 60.8165 199.908 60.7121C202.715 60.5239 205.888 61.6143 207.973 63.4486C210.274 65.4722 211.877 68.2988 211.992 71.3533C212.097 74.1549 211.166 76.9108 209.109 78.9241C207.809 80.1965 206.176 81.2651 204.351 81.6336C200.892 82.3317 196.32 81.8178 192.752 81.817L166.311 81.792L145.167 81.8055C140.177 81.8051 133.89 82.5231 129.194 80.9101C124.89 79.4316 121.483 76.2993 119.571 72.2976C117.625 68.2269 117.495 63.7388 119.135 59.5522C120.719 55.5085 124.219 51.9484 128.294 50.1857C132.943 48.1739 137.215 48.6659 141.79 50.3703C142.588 48.6369 143.582 46.8698 144.718 45.3223C149.336 39.031 156.143 35.4547 163.875 34.2268Z" fill="url(#paint14_linear_54_2)"/>
<path d="M246.395 106.649C246.031 105.017 246.159 103.23 246.137 101.556L246.035 92.3658C244.718 91.6402 243.405 90.7094 242.3 89.674C238.999 86.5786 234.171 79.6749 234 74.9125C234.377 74.009 234.653 73.5217 235.463 72.9716C236.625 72.8582 237.858 72.7986 238.747 71.9232C241.706 69.0107 238.9 61.5662 242.802 57.9216C243.076 57.8355 243.816 57.5016 244.062 57.5269C244.901 57.6126 246.853 59.0271 247.761 59.4034C252.873 61.5238 258.187 60.0934 262.138 56.3545C264.553 54.0704 266.447 51.2301 268.869 48.9423C270.693 47.2185 272.67 46.0016 274.945 45.0181C283.314 41.4016 292.874 42.7919 300.265 48.0196C302.577 49.6548 304.602 51.8614 307.228 52.9502C310.458 52.2405 312.457 50.7922 315.006 48.7787C317.882 51.7561 319.239 56.479 319.333 60.5921C319.352 61.3997 319.127 63.1337 319.357 63.8373C319.398 63.963 319.891 64.1833 320.021 64.2352C324.008 65.8145 327.698 67.8774 330.391 71.3821C331.677 73.0553 332.799 75.1047 332.962 77.2623C333.358 82.5083 330.573 88.6052 329.511 93.7721C328.658 97.9236 328.145 102.215 327.618 106.421C325.983 105.885 323.724 106.258 322.021 106.401L322.059 97.3666L321.829 97.2299C320.337 96.2876 319.18 94.807 318.01 93.4934L312.908 88.0119L305.673 81.3844C298.285 88.0433 290.193 93.6652 280.708 96.7487C272.799 99.3197 263.87 99.8266 255.63 99.3034L252.847 99.0838L252.821 107L252.446 106.882C250.691 106.338 248.125 105.812 246.395 106.649Z" fill="#1C1C1C"/>
<path d="M253 98.6033L253.01 93.8329C267.005 95.6717 281.384 90.968 293.218 83.7041C296.978 81.3967 300.465 78.6683 303.973 76L322 91.8504L321.981 96.9194L321.752 96.7854C320.265 95.8614 319.112 94.4095 317.945 93.1214L312.86 87.7463L305.65 81.2475C298.286 87.7771 290.222 93.2898 280.767 96.3135C272.885 98.8346 263.986 99.3317 255.773 98.8186L253 98.6033Z" fill="#EF8164"/>
<path d="M251.829 98.4934L254.637 98.7104C262.954 99.2275 271.967 98.7266 279.95 96.1855C289.525 93.1378 297.692 87.5814 305.15 81L312.452 87.5503L317.602 92.968C318.783 94.2664 319.951 95.7297 321.457 96.661L321.689 96.7962L321.651 105.725C323.37 105.584 325.649 105.216 327.3 105.745L327.508 105.85C331.025 107.594 333.996 107.755 335.479 111.965C336.303 114.303 336.145 117.093 335.038 119.308C334.006 121.373 332.023 123.048 329.813 123.74C327.682 124.406 324.435 123.878 322.303 123.405C322.049 123.349 321.849 123.355 321.593 123.392C319.782 132.686 316.402 139.299 309.542 145.911C308.964 146.468 306.446 148.276 306.201 148.824C305.929 149.434 306.06 169.719 306.201 171.955C304.23 174.352 301.514 176.459 299.258 178.611L286.558 191L266.494 171.754L266.487 155.096L266.461 148.042L266.408 148.036C258.776 141.768 253.906 133.676 252.405 123.883C248.843 124.345 244.696 124.837 241.444 123.035C239.396 121.9 237.844 119.899 237.255 117.633C236.704 115.512 237.059 112.853 238.199 110.969C239.771 108.371 242.222 107.27 245.047 106.526L245.316 105.971C247.062 105.144 249.652 105.663 251.424 106.201L251.802 106.317L251.829 98.4934Z" fill="#F7A780"/>
<path d="M325.843 121L325.472 120.88C325.176 120.738 324.723 120.286 324.578 119.965C323.784 118.206 323.882 116.351 324.425 114.504C324.968 112.654 325.741 111.847 327.205 111C328.511 111.001 328.824 110.962 329.945 111.836L330 112.998C328.679 112.964 327.816 112.976 326.815 114.117C325.929 115.128 325.493 116.392 325.534 117.81C325.562 118.767 325.739 119.569 326.097 120.442L325.843 121Z" fill="#F07121"/>
<path d="M269.325 100.16C271.114 100.059 273.523 99.6014 274.958 100.904L275 102.047C274.9 102.157 274.478 102.7 274.384 102.725C273.254 103.029 270.942 102.597 269.687 102.621C268.299 102.881 267.083 103.406 265.781 104L265.133 103.4C264.917 102.483 264.946 102.503 265.351 101.666C266.6 100.779 267.902 100.505 269.325 100.16Z" fill="#152C61"/>
<path d="M303.808 100C305.741 100.043 308.032 100.146 309.805 100.94C310.64 101.314 310.758 101.553 311 102.307L310.581 102.907C309.351 103.223 307.889 102.657 306.679 102.344C304.205 102.099 302.14 102.579 299.747 102.592C299.187 102.106 299.103 102.111 299 101.376C300.224 100.021 301.983 100.176 303.808 100Z" fill="#152C61"/>
<path d="M280.468 136.067C282.077 135.689 283.148 137.016 284.699 137.495C287.356 138.315 289.582 137.557 291.921 136.29C292.657 136.587 292.632 136.58 293 137.302L292.534 138.228C292.015 138.683 291.409 139.015 290.789 139.305C288.315 140.459 285.252 140.035 282.79 139.058C281.702 138.626 280.482 137.977 280 136.844L280.468 136.067Z" fill="#D5352F"/>
<path d="M325.313 120.697L325.568 120.161C325.209 119.323 325.031 118.551 325.003 117.632C324.962 116.27 325.399 115.055 326.289 114.084C327.295 112.988 328.162 112.976 329.489 113.008C329.055 116.106 331.542 117.675 328.326 120.308C327.561 120.934 326.776 121.105 325.849 120.942C325.504 120.881 325.628 120.916 325.313 120.697Z" fill="#EF8164"/>
<path d="M303.066 109C303.599 109.007 304.168 109.009 304.685 109.126C305.557 109.322 306.25 109.994 306.664 110.636C307.104 111.319 307.085 112.276 306.762 112.989C306.283 114.045 305.443 114.532 304.238 114.954C303.544 115.037 302.973 115.017 302.301 114.822C301.298 114.531 300.628 113.87 300.228 113.071C299.879 112.376 299.937 111.283 300.36 110.624C300.972 109.672 301.854 109.262 303.066 109Z" fill="#152C61"/>
<path d="M270.323 109.051C270.882 108.964 271.324 108.995 271.885 109.094C273.003 109.292 274.033 109.839 274.561 110.614C275.082 111.378 275.149 112.311 274.71 113.103C274.201 114.022 273.183 114.519 272.016 114.91C271.023 115.06 270.287 115.041 269.359 114.708C268.291 114.325 267.539 113.742 267.18 112.89C266.872 112.162 266.961 111.356 267.435 110.68C268.098 109.732 269.012 109.383 270.323 109.051Z" fill="#152C61"/>
<path d="M287.7 111L288.628 111.078C288.762 111.242 289.312 111.803 289.35 111.969C289.46 112.45 289.063 114.015 288.989 114.556C288.477 118.257 287.269 122.905 287.393 126.574C288.637 126.673 289.884 126.535 290.928 127.303L291 128.433L290.245 129L285 128.85L285.001 128.643C285.045 126.013 286.622 112.143 287.7 111Z" fill="#D5352F"/>
<path d="M243.852 112.631C244.258 111.864 244.613 111.446 245.39 111.195C246.287 110.904 247.276 110.898 248.093 111.46C248.457 111.711 248.9 112.231 249.004 112.721L249.043 113.082C249.557 114.523 250.24 116.639 249.916 118.191C249.644 119.495 248.899 120.201 247.939 120.877C247.284 120.99 246.543 121.119 245.918 120.794C244.187 119.894 243.6 117.522 243 115.671C243.184 114.558 243.358 113.637 243.852 112.631Z" fill="#EF8164"/>
<path d="M244 112.612C244.39 111.854 244.733 111.44 245.481 111.192C246.345 110.905 247.298 110.899 248.085 111.454C248.436 111.702 248.863 112.216 248.962 112.7L249 113.057C248.734 113.66 248.6 114.124 248.557 114.807C248.526 115.292 248.496 115.668 248.365 116.129C247.83 115.442 247.559 115.117 246.767 114.932C245.683 115.379 245.177 116.186 244.331 117L244.108 116.55C244.264 115.798 244.482 115.121 244.735 114.405C244.605 113.51 244.491 113.328 244 112.612Z" fill="#F07121"/>
<path d="M267 149C276.028 154.481 284.996 156.844 295.516 154.492C299.675 153.562 303.375 151.846 307 149.695L306.903 169L267.026 155.97L267 149Z" fill="#EF8164"/>
<path d="M463.812 261L483.244 288.327L484.959 290.796L471.89 302.182L500.308 302.2C503.53 302.21 507.602 301.71 510.735 302.249C512.097 302.483 513.474 303.364 514.429 304.33C517.571 307.513 516.994 312.664 516.896 316.775C516.839 319.181 516.307 321.42 514.503 323.163C513.856 323.788 513.121 324.271 512.341 324.714L515.193 325.289C513.568 326.398 510.284 326.037 508.338 326.049L492.213 326.054L461.357 326.046L440.754 326.126C437.897 326.21 435 329.284 432.907 331.024C428.457 334.728 423.816 339.432 418.611 341.984C413.669 344.405 407.549 344.583 402.356 342.853C393.07 339.76 388.206 333.026 384 324.725C385.223 323.248 385.703 320.218 386.459 318.383C387.149 316.694 388.047 315.079 388.909 313.47C390.762 310.887 391.993 307.835 393.855 305.195C398.536 298.553 405.298 293.107 412.247 288.961L420.895 284.34C423.032 283.022 425.608 282.042 427.884 280.943L448.703 271.03C450.791 269.939 452.762 268.365 454.721 267.06L463.812 261Z" fill="#1C1C1C"/>
<path d="M512.288 324.917L449.262 324.866L439.279 324.913C438.811 324.917 437.13 325.091 436.776 324.936C436.653 324.883 436.575 324.768 436.476 324.683C433.608 322.233 432.317 319.159 432.058 315.466C431.791 311.652 432.383 307.624 435.083 304.684C435.991 303.696 437.307 302.715 438.651 302.439C441.33 301.889 444.791 302.229 447.536 302.22L471.378 302.184L500.118 302.204C503.377 302.213 507.496 301.709 510.664 302.253C512.041 302.489 513.434 303.377 514.4 304.352C517.577 307.563 516.994 312.76 516.895 316.907C516.837 319.335 516.299 321.593 514.474 323.352C513.821 323.983 513.077 324.47 512.288 324.917Z" fill="url(#paint15_linear_54_2)"/>
<path d="M500.185 308.176C501.09 308.031 502.028 307.934 502.941 308.054C504.24 308.224 505.281 308.946 506.025 310.039C506.897 311.318 507.23 312.855 506.835 314.388C506.428 315.968 504.898 317.139 503.59 317.894C502.772 317.97 501.908 318.056 501.09 317.952C499.704 317.776 498.581 316.76 497.771 315.654C496.965 314.559 496.887 313.197 497.105 311.879C497.388 310.12 498.848 309.07 500.185 308.176Z" fill="white"/>
<path d="M440 307L450 307.032L449.977 319.98L440.014 320L440 307Z" fill="#FEFEFE"/>
<path d="M451.231 307L461 307.07L460.955 319.952L451.325 320C450.661 318.54 451.219 309.248 451.231 307Z" fill="#FEFEFE"/>
<path d="M470.015 307.108L482 307L481.952 319.889L474.1 319.9L463 320L463.036 307.123L470.015 307.108Z" fill="#FEFEFE"/>
<path d="M506.918 355C507.644 355.088 508.434 355.162 509.113 355.445C510.21 355.904 511.362 356.988 511.747 358.104C512.233 359.514 511.994 361.379 511.243 362.642C510.308 364.212 508.95 364.548 507.281 365C506.38 364.852 505.373 364.677 504.566 364.246C503.456 363.653 502.457 362.428 502.15 361.226C501.834 359.995 502.018 358.49 502.701 357.416C503.725 355.801 505.138 355.395 506.918 355Z" fill="white"/>
<path d="M441 353.01L450 353L449.955 365.984L441.041 366L441 353.01Z" fill="#FEFEFE"/>
<path d="M451.055 353L461 353.027L460.992 365.972L451 366L451.055 353Z" fill="#FEFEFE"/>
<path d="M463.008 353.026L487.992 353L488 365.982L463 366L463.008 353.026Z" fill="#FEFEFE"/>
<path d="M201 342L216.198 345.305C218.491 345.847 220.931 346.24 223.142 347.055C225.067 347.007 227.293 347.841 229.169 348.281L240.833 350.948C242.02 351.222 244.077 351.949 245.212 351.718C246.053 351.649 247.539 352.353 248.447 352.514C249.615 352.72 250.368 352.536 251.335 351.864C253.453 350.396 253.949 345.277 254.43 342.788L255.931 343.403L255.87 344.182C257.642 345.972 259.892 347.159 262.09 348.361C268.203 351.701 274.227 353.819 281 355.413L278.319 359.623L274.214 366.041C272.93 368.096 271.824 370.44 269.552 371.566L268.064 371.487C262.223 372.311 255.753 371.787 249.827 371.79L215.011 371.815L205.329 371.839C204.01 371.861 202.291 371.727 201.01 372L201.047 370.046L201.062 343.93L201 342Z" fill="#1C1C1C"/>
<path d="M201 342L216.312 345.198C218.622 345.723 221.08 346.103 223.308 346.891L241.715 356.467C245.763 358.527 250.241 360.518 254 362.986C253.221 363.038 252.6 362.95 251.875 362.671L239.124 357.313L211.003 346.902C207.708 345.845 204.437 344.679 201.063 343.867L201 342Z" fill="#1C1C1C"/>
<path d="M254.365 342L255.87 342.641L255.808 343.453C257.584 345.319 259.84 346.557 262.044 347.81C268.172 351.292 274.211 353.499 281 355.161L278.312 359.55L274.198 366.241C272.91 368.383 271.801 370.826 269.524 372L268.032 371.918L267.87 371.849C262.945 369.808 258.277 366.336 253.538 363.789C249.798 361.13 245.342 358.986 241.315 356.766L223 346.448C224.93 346.398 227.161 347.267 229.042 347.726L240.735 350.506C241.925 350.793 243.987 351.55 245.125 351.309C245.968 351.238 247.457 351.971 248.368 352.139C249.538 352.354 250.293 352.162 251.263 351.462C253.386 349.931 253.883 344.595 254.365 342Z" fill="#F07121"/>
<path d="M514.106 326C515.286 326.022 516.272 326.47 517.094 327.28C519.292 329.455 518.979 332.53 518.991 335.33L518.954 342.176C518.934 342.964 518.771 343.66 518.502 344.399L518.433 344.605C517.916 346.037 516.846 347.043 515.665 348L438.959 347.889C437.904 347.225 436.842 346.47 436.089 345.483C433.841 342.534 433.707 337.826 434.301 334.317C434.9 330.791 436.671 328.835 439.537 326.821L460.176 326.743L491.085 326.75L507.238 326.745C509.188 326.733 512.478 327.087 514.106 326Z" fill="url(#paint16_linear_54_2)"/>
<path d="M500.139 331.184C500.941 331.016 501.949 330.883 502.736 331.159C503.931 331.579 504.923 332.445 505.479 333.671C506.14 335.124 506.167 336.647 505.589 338.139C505.079 339.456 503.995 340.244 502.839 340.796C502.155 341.039 500.888 341.086 500.192 340.821C499.028 340.379 498.005 339.52 497.477 338.296C496.876 336.914 496.853 335.549 497.351 334.14C497.922 332.543 498.77 331.842 500.139 331.184Z" fill="white"/>
<path d="M441.017 330L449.936 330.016L450 343L441 342.988L441.017 330Z" fill="#FEFEFE"/>
<path d="M451.121 330.047L461 330L460.992 342.998L451 343L451.121 330.047Z" fill="#FEFEFE"/>
<path d="M463.083 329.002L478.951 329L479 343.964L463 344L463.083 329.002Z" fill="#FEFEFE"/>
<path d="M481.591 245.508L441.15 235.437L427.58 232.033C424.131 231.218 420.057 230.597 416.786 229.319C415.909 228.978 415.003 228.204 414.502 227.425C414.074 226.768 413.932 226.061 414.029 225.288C414.401 222.239 415.404 219.076 416.095 216.078L420.534 196.765L428.489 162.372L432.216 146.643C432.475 145.697 432.916 144.793 433.801 144.281C434.553 143.846 435.547 144.008 436.368 144.157C440.253 144.863 444.206 146.119 448.039 147.12L462.135 150.682L460.122 156.88L511.494 169.751L512.08 164.369L532.05 169.361C534.726 170.032 537.77 170.482 540.329 171.449C540.854 171.646 541.323 171.946 541.639 172.417C542.164 173.196 542.023 174.465 541.8 175.336L536.844 192.905L526.447 230.789C524.393 237.909 522.934 245.535 520.371 252.458C520.044 253.346 519.591 253.974 518.754 254.463C518.188 254.794 517.578 255.052 516.911 254.991C514.473 254.768 511.651 253.719 509.254 253.11L490.784 248.273C491.148 245.286 492.256 240.888 490.881 238.1C490.416 237.157 489.656 236.457 488.65 236.135C487.627 235.807 486.491 235.882 485.549 236.407C482.78 237.952 482.347 242.614 481.591 245.508Z" fill="#F9BD2C"/>
<path d="M431.377 211.075C431.552 211.025 431.588 211.005 431.8 211C434.117 210.95 460.614 217.253 461.846 218.242C462.09 219.035 462.045 219.083 461.7 219.851C461.179 219.993 460.675 220.052 460.139 219.946C456.402 219.207 452.621 217.948 448.905 217.036L437.736 214.37C435.585 213.867 433.105 213.453 431.125 212.551C430.881 211.787 431.011 211.761 431.377 211.075Z" fill="#FEFEFE"/>
<path d="M433.561 202.106L433.856 202.001C434.218 201.897 467.026 209.959 468.264 210.761C468.845 211.141 468.849 211.36 469 212.028L468.367 212.998C468.045 213.129 436.458 205.024 433.967 203.965C433.294 203.68 433.275 203.709 433 203.022L433.561 202.106Z" fill="#FEFEFE"/>
<path d="M434.601 194.148C434.978 194.052 435.243 193.98 435.637 194.005C438.037 194.158 440.9 195.226 443.25 195.81L463.831 200.96C465.646 201.417 468.348 201.712 469.981 202.457C470.374 202.636 470.669 202.876 470.955 203.185C471.091 204.113 470.917 204.205 470.449 204.989C470.167 205.012 469.935 205 469.662 204.94L444.493 198.539L436.872 196.584C436.304 196.427 434.825 196.14 434.394 195.788C434.207 195.639 434.133 195.398 434 195.203L434.601 194.148Z" fill="#FEFEFE"/>
<path d="M439.668 178.102C439.9 178.04 440.095 177.976 440.335 178.009C442.162 178.256 444.133 179.005 445.936 179.471L458.402 182.674L507.996 196.045L519.506 199.159C520.285 199.367 522.068 199.572 522.628 199.968C522.784 200.078 522.876 200.256 523 200.401L522.48 201.939C520.901 202.285 517.695 201.067 516.088 200.663L467.765 187.679L448.771 182.702C445.976 181.971 442.614 181.455 439.999 180.285C439.324 179.983 439.28 179.998 439 179.307L439.668 178.102Z" fill="#FEFEFE"/>
<path d="M441.598 171.03C443.366 170.811 445.946 171.847 447.675 172.294L461.343 175.853L509.397 188.448L520.61 191.42C522.176 191.817 524.692 192.084 526 192.982L525.641 194.904C525.37 194.979 525.362 194.997 525.035 195C523.48 195.015 521.13 194.017 519.568 193.595L505.726 189.915L457.85 177.371L447.848 174.818C446.055 174.41 442.248 173.954 441 172.692C441.024 171.808 441.061 171.736 441.598 171.03Z" fill="#FEFEFE"/>
<path d="M484.2 212.256C484.489 212.131 484.719 212.036 485.037 212.013C487.006 211.867 489.594 212.988 491.516 213.452L507.067 217.436C509.438 218.06 512.123 218.512 514.388 219.434C514.92 219.651 515.352 220.015 515.762 220.404C515.951 220.856 516.039 221.273 515.984 221.766C515.578 225.442 514.217 229.153 513.354 232.747C513.002 234.224 512.763 236.707 511.963 237.953C511.808 238.192 511.197 238.551 510.95 238.744C510.636 238.861 510.343 238.98 510.003 238.996C508.63 239.059 506.682 238.381 505.342 238.047L493.104 234.757C490.432 234.052 480.874 232.394 479.337 230.793C478.931 230.374 478.998 230.105 479.015 229.533C479.069 227.954 482.445 214.222 483.148 213.196C483.366 212.881 483.902 212.523 484.2 212.256Z" fill="#FEFEFE"/>
<path d="M149.431 288.68C150.531 287.309 151.94 285.948 152.872 284.474C154.61 281.723 155.928 278.481 157.355 275.552L165.049 260.01L184.28 221.76L195.845 198.636C197.727 195.211 201.4 191.893 204.857 190.082C208.379 188.236 213.196 187.377 217.078 186.258L238.423 180L239.126 180.365C239.101 182.453 237.639 185.267 237.057 187.345L232.803 204.848C232.018 208.097 230.496 212.34 230.461 215.634C230.451 216.536 230.884 217.662 231.507 218.304C232.881 219.718 236.167 220.336 238.06 220.995L249.421 225.071C247.495 226.754 237.74 235.078 237.077 236.712L246.343 253.847L251.389 262.839C252.449 264.735 253.878 266.936 254.358 269.063L274.277 280.338L296.4 292.863L303 296.674L292.023 314.551C290.878 316.417 288.629 319.146 288.118 321.223C284.394 319.351 280.835 317.756 276.661 319.103C273.186 320.225 269.436 322.759 266.309 324.673C265.611 323.294 264.91 322.05 263.963 320.827C262.755 320.159 261.335 319.652 259.992 320.009L258.415 326.838L254.684 342.052C254.199 344.578 253.7 349.77 251.568 351.26C250.594 351.941 249.835 352.128 248.66 351.919C247.746 351.756 246.25 351.042 245.404 351.111C244.261 351.346 242.19 350.608 240.995 350.33L229.253 347.624C227.364 347.178 225.124 346.332 223.185 346.381C220.959 345.555 218.503 345.156 216.195 344.606L200.895 341.253C200.531 340.645 171.475 334.661 167.57 333.573C165.339 332.952 163.118 332.074 161.055 331.015C156.155 328.497 152.598 325.152 149.21 320.878L146.344 315.933C143.228 309.341 143.384 301.938 145.837 295.184L147.787 291.333L149.223 289.013L149.431 288.68Z" fill="#1C1C1C"/>
<path d="M198 296.952C197.674 297.046 197.276 296.988 196.951 296.898C191.622 295.412 186.23 293.041 180.969 291.24L172.54 288.428C171.533 288.08 170.358 287.856 169.409 287.392C169.072 287.226 169.197 287.334 169 287C172.658 287.4 195.529 292.649 197.439 294.076C197.499 295.131 197.676 295.953 198 296.952Z" fill="#1C1C1C"/>
<path d="M200.552 288C199.784 286.895 200.137 283.871 200.14 282.476L200.128 268.661L200 222.711V206C200.744 207.417 201.258 224.347 201.431 227.37L202.973 252.015C203.485 261.364 203.866 270.8 205 280.092L200.552 288Z" fill="#1C1C1C"/>
<path d="M253.051 317.205C254.669 317.083 257.155 316.625 258.517 317.673C259.434 318.378 259.878 319.332 259.989 320.427L260 320.665L258.379 327.354L254.542 342.256C254.044 344.73 253.53 349.816 251.338 351.275C250.336 351.942 249.557 352.126 248.349 351.92C247.409 351.761 245.87 351.061 245 351.129L253.051 317.205Z" fill="#FEFEFE"/>
<path d="M206.049 280.364C208.555 276.486 220.642 254.185 223.172 253.236C223.919 252.956 224.868 252.915 225.629 253.167C228.239 254.033 231.162 256.242 233.558 257.633L254.665 269.718L274.458 280.926L296.441 293.378L303 297.166L292.092 314.937C290.955 316.792 288.72 319.505 288.212 321.57C284.511 319.71 280.975 318.124 276.828 319.463C273.375 320.578 269.648 323.098 266.54 325C265.847 323.629 265.151 322.392 264.21 321.177C263.009 320.512 261.598 320.009 260.263 320.364L260.253 320.122C260.145 319.011 259.716 318.043 258.831 317.327C257.514 316.263 255.111 316.728 253.548 316.853L253.63 315.349C252.768 314.325 210.783 301.321 206.418 299.909L198.551 297.073C198.233 296.123 198.059 295.34 198 294.335L201.403 288.262L206.049 280.364Z" fill="#F9A538"/>
<path d="M321.063 176C325.003 177.584 329.407 178.506 333.515 179.6L353.424 185.126L366.562 188.906C368.347 189.474 370.714 190.037 372.215 191.165C373.571 192.322 374.652 193.45 375.726 194.868L375.844 195.028C379.278 200.34 382.033 206.164 384.912 211.792L397.283 236.233L419.589 281.026L421 283.675L412.371 288.345C405.438 292.536 398.69 298.041 394.019 304.754C392.162 307.422 390.934 310.506 389.085 313.117C388.225 314.743 387.329 316.375 386.64 318.082C385.885 319.937 385.407 322.999 384.186 324.492L383.25 322.672L372.306 302.191L372.376 363.044C372.316 365.074 372.757 369.584 371.404 370.987C370.8 371.613 370.072 371.782 369.236 371.849C364.95 372.195 360.355 371.842 356.046 371.821L329.265 371.755L291.203 371.722L271.857 371.655C271.43 371.633 270.594 371.639 270.227 371.439C272.515 370.297 273.629 367.92 274.923 365.836L279.056 359.327L281.756 355.057C274.935 353.44 268.869 351.293 262.713 347.905C260.5 346.686 258.234 345.482 256.45 343.666L256.511 342.876L255 342.253L258.732 327.043L260.31 320.215C261.653 319.859 263.074 320.365 264.282 321.033C265.229 322.256 265.931 323.499 266.628 324.878C269.757 322.965 273.508 320.431 276.984 319.31C281.159 317.963 284.719 319.558 288.444 321.429C288.955 319.352 291.205 316.624 292.351 314.758L303.331 296.886L296.728 293.076L299.303 279.972C300.405 276.63 300.878 272.889 301.587 269.438L305.948 247.899L316.492 197.394L321.063 176Z" fill="#1C1C1C"/>
<path d="M281.73 355C283.752 355.717 285.861 356.378 288 356.475C287.259 358.116 286.206 361.015 284.585 361.762C283.411 362.302 282.416 361.835 281.361 361.239L279 359.666L281.73 355Z" fill="#1C1C1C"/>
<path d="M302.087 297L305.252 298.766C307.012 299.724 312.287 302.018 312.825 303.809C313.179 304.988 312.988 305.903 312.33 306.935L295.557 333L283 329.715C284.065 328.829 284.604 327.928 285.244 326.728L285.495 326.618C286.488 326.148 287.454 325.313 287.712 324.232C288.002 323.013 287.659 322.146 287.068 321.107C287.584 319.067 289.854 316.387 291.009 314.555L302.087 297Z" fill="#F07121"/>
<path d="M266.501 325.134C269.594 323.201 273.305 320.64 276.743 319.506C280.872 318.145 284.392 319.757 288.076 321.648C288.656 322.717 288.992 323.609 288.708 324.863C288.455 325.976 287.508 326.835 286.534 327.319L286.289 327.432C285.661 328.667 285.133 329.594 284.089 330.506L296.398 333.885C297.43 334.337 298.201 334.636 298.855 335.632C299.011 336.662 299.118 337.089 298.757 338.094C297.505 339.275 296.421 339.405 294.786 339.325C293.51 339.262 292.186 339.022 290.917 339.191C292.654 339.813 295.147 340.347 296.016 342.154C296.333 342.813 296.219 343.314 296.186 344.031C295.653 344.889 295.162 345.259 294.179 345.475C292.351 345.878 289.783 345.131 287.924 344.836C289.724 345.645 291.924 346.419 292.964 348.248C293.06 349.056 293.253 349.714 292.683 350.402C291.971 351.262 290.772 351.272 289.749 351.232C288.105 351.167 286.362 350.632 284.76 350.249C286.468 351.468 288.943 352.037 289.708 354.248C289.648 355.148 289.708 355.771 288.916 356.363C288.542 356.644 288.025 356.824 287.595 357C285.502 356.911 283.44 356.299 281.461 355.636C274.716 354.002 268.717 351.831 262.629 348.407C260.439 347.175 258.198 345.958 256.434 344.123L256.495 343.325L255 342.695L258.691 327.322L260.251 320.422C261.58 320.061 262.985 320.573 264.18 321.248C265.117 322.484 265.811 323.741 266.501 325.134Z" fill="#F7A780"/>
<path d="M284.435 330C282.542 329.792 279.344 329.703 278 328.931L278.233 328.591C280.032 327.95 284.659 328.142 287 328C286.269 328.804 285.653 329.407 284.435 330Z" fill="#F9A538"/>
<path d="M259.598 320.116C260.959 319.765 262.399 320.263 263.623 320.92C264.583 322.123 265.293 323.347 266 324.703L259.384 329C258.827 328.33 258.428 327.584 258 326.832L259.598 320.116Z" fill="#F07121"/>
<path d="M320.867 176C324.731 177.588 329.05 178.512 333.079 179.609C332.059 182.039 334.217 186.918 335.12 189.208L347 216.072L323.857 225.544L336.717 236.694L317.282 276.826L309.215 293.665C308.476 295.205 307.664 297.853 306.552 299L303.476 297.198L297 293.379L299.525 280.24C300.605 276.889 301.07 273.139 301.765 269.679L306.042 248.085L316.383 197.449L320.867 176Z" fill="#2C2C2C"/>
<path d="M371.487 302.586C370.968 299.809 371.334 296.416 371.335 293.579L371.332 273.758L371.002 192.357C370.984 191.762 371.07 191.504 371.394 191C372.773 192.163 373.873 193.296 374.964 194.721L375.085 194.883C378.576 200.221 381.378 206.074 384.305 211.731L396.884 236.295L419.565 281.314L421 283.977L412.226 288.67C405.176 292.882 398.315 298.415 393.565 305.162C391.677 307.843 390.428 310.943 388.548 313.567C387.674 315.202 386.762 316.842 386.062 318.558C385.295 320.422 384.808 323.499 383.567 325L382.615 323.17L371.487 302.586Z" fill="#1C1C1C"/>
<path d="M419.56 282L421 284.642L412.195 289.299C405.119 293.477 398.234 298.966 393.467 305.66C391.572 308.321 390.318 311.396 388.432 314C387.79 313.661 387.463 313.411 387 312.861C387.575 309.718 389.127 306.686 390.695 303.915C396.926 292.914 407.341 285.464 419.56 282Z" fill="#1C1C1C"/>
<path d="M371.516 301.599C370.967 298.846 371.353 295.483 371.354 292.671L371.352 273.026L371.002 192.345C370.984 191.755 371.074 191.5 371.418 191C372.879 192.153 374.043 193.276 375.199 194.689L375.327 194.848C374.462 197.613 374.981 199.839 375.218 202.609L375.968 211.47L377.607 229.461L382.076 290.876L383.696 313.341C383.784 315.619 384.102 318.022 383.967 320.292C383.932 320.882 383.626 321.499 383.303 322L371.516 301.599Z" fill="#1C1C1C"/>
<path d="M37.2571 341C34.4631 338.976 32.2102 336.322 30.295 333.472C26.885 328.398 24.6642 322.781 22.9038 316.959C16.9809 297.374 18.5992 276.812 22.4605 257L36.8866 262.838C44.9306 266.519 52.7025 271.557 58.9163 277.877C61.1309 280.13 63.55 282.847 65 285.663L37.2543 285.725L37.2571 341Z" fill="url(#paint17_linear_54_2)"/>
<path d="M116.013 373C115.339 372.391 114.677 371.853 114.205 371.048C113.927 366.876 114.055 362.637 114.048 358.455L114.033 337.53L114.059 312.426L114 296.317C114.022 295.528 114.102 294.618 114.575 293.973C114.984 293.417 115.665 293.177 116.309 293.127C119.566 292.878 123.009 293.103 126.287 293.102C128.673 293.1 131.432 292.837 133.778 293.163C134.272 293.232 134.766 293.471 135.139 293.818C135.428 294.086 135.695 294.428 135.732 294.843C135.955 297.325 135.79 299.983 135.798 302.484L135.838 317.204L135.929 364.823C135.922 367.641 136.5 370.557 134.469 372.743L134.231 372.989L116.013 373Z" fill="url(#paint18_linear_54_2)"/>
<path d="M118.082 304.34C119.136 303.916 128.704 303.889 129.903 304.256C130.091 305.104 129.959 305.98 129.897 306.839C129.082 307.121 127.685 306.946 126.791 306.95L118.311 306.929C117.808 306.332 118.061 305.135 118.082 304.34Z" fill="#FEFEFE"/>
<path d="M118.072 310.339C119.059 309.79 120.494 310.073 121.573 310.073L129.949 310.097L130 314L118.324 313.944C117.813 313.032 118.055 311.506 118.072 310.339Z" fill="#FEFEFE"/>
<path d="M122.504 353.045C123.615 352.998 124.722 352.902 125.785 353.3C127.065 353.779 128.013 354.712 128.548 355.971C129.04 357.125 129.185 358.559 128.707 359.741C128.067 361.312 126.823 362.149 125.347 362.805C124.599 362.918 123.799 363.099 123.047 362.933C121.64 362.624 120.436 361.653 119.691 360.417C119.029 359.314 118.815 357.917 119.17 356.671C119.672 354.902 121 353.898 122.504 353.045Z" fill="#FEFEFE"/>
<path d="M30 373C31.4685 372.184 35.9902 372.741 37.8059 372.765C38.4175 372.773 39.3292 372.918 39.8377 372.572L39.66 372.399C39.0139 371.748 38.788 371.318 38.5761 370.449L38.501 370.155C37.9054 367.583 38.2767 364.137 38.274 361.482L38.2806 343.105L38.2985 306.801L38.2814 288.957C38.2969 288.546 38.4093 288.289 38.594 287.927C38.9493 287.588 39.2934 287.269 39.7969 287.171C41.4648 286.849 43.686 287.082 45.4084 287.072L57.9413 287.033C59.0509 287.05 59.6714 287.017 60.4684 287.869C60.7806 288.203 60.9089 288.604 60.9206 289.051L60.8856 305.078L60.9167 339.055L60.9128 359.741C60.9051 363.041 61.1461 366.556 60.8584 369.836C60.7495 371.068 60.0769 372.036 59.3207 372.986L30 373Z" fill="url(#paint19_linear_54_2)"/>
<path d="M43 298.022L52.4745 298.064C53.4926 298.071 55.0748 297.782 55.9487 298.377C56.0195 299.568 56.0353 300.6 55.876 301.791C54.6032 302.156 53.0434 301.932 51.7229 301.932L43.0459 301.924L43 298.022Z" fill="#FEFEFE"/>
<path d="M43 305.109C45.3543 305.118 54.3279 304.721 55.9226 305.389C56.0123 306.309 56.0799 307.056 55.7929 307.961L43.0087 308L43 305.109Z" fill="#FEFEFE"/>
<path d="M46.524 353.088C47.4417 352.963 48.493 352.959 49.4024 353.158C50.6061 353.421 51.8138 354.481 52.4036 355.521C53.0831 356.72 53.1472 358.047 52.7713 359.346C52.2685 361.082 51.0998 361.981 49.557 362.798C48.6157 362.959 47.6964 363.122 46.7536 362.869C45.4944 362.532 44.3122 361.558 43.6658 360.464C42.972 359.288 42.8069 357.581 43.2343 356.282C43.7599 354.685 45.0588 353.809 46.524 353.088Z" fill="#FEFEFE"/>
<path d="M65.5203 373C64.2148 371.88 63.3887 371.191 63.1748 369.359C62.8245 366.32 63.1084 362.95 63.1121 359.869L63.1269 339.829L63.0678 310.063L63.0162 294.534C63.0494 293.614 63.2117 292.574 63.787 291.837C64.2591 291.23 65.0925 291.084 65.8117 291.043C68.2457 290.902 70.7941 291.155 73.2429 291.155C76.599 291.155 80.346 290.814 83.6541 291.193C84.1741 291.253 84.6572 291.469 85.0334 291.844C85.5829 292.392 85.8336 292.911 85.8926 293.689C86.1213 296.82 85.9148 300.11 85.9074 303.254L85.8595 322.641L85.8816 369.271C85.8521 370.778 85.0554 371.859 83.9859 372.878L83.8643 372.99L65.5203 373Z" fill="url(#paint20_linear_54_2)"/>
<path d="M68.1653 310.244C69.6269 309.888 80.0106 309.858 80.9668 310.586C81.025 311.698 81.0178 312.641 80.8542 313.737C79.3453 314.038 68.9579 314.217 68.0526 313.494C67.9799 312.324 67.9544 311.399 68.1653 310.244Z" fill="#FEFEFE"/>
<path d="M68 304.081L77.3607 304.063C78.4048 304.061 80.1353 303.8 80.9698 304.358C81.0132 305.267 81.0493 305.999 80.7819 306.882C79.4777 307.108 77.9242 306.939 76.5839 306.938L68 306.931V304.081Z" fill="#FEFEFE"/>
<path d="M72.5802 353.118C73.421 352.994 74.4841 352.913 75.3138 353.165C76.7176 353.589 77.8955 354.733 78.503 356.039C79.1734 357.466 79.1253 358.358 78.5993 359.807C78.0067 361.429 76.7991 362.22 75.3027 362.9C74.3359 363.046 73.2247 363.053 72.2764 362.781C71.1504 362.459 70.1985 361.538 69.654 360.533C68.9391 359.209 68.7983 357.626 69.291 356.202C69.8429 354.602 71.1578 353.856 72.5802 353.118Z" fill="#FEFEFE"/>
<path d="M91.1312 373C90.1964 371.993 89.4231 371.122 89.2016 369.698C88.8036 367.12 89.119 364.002 89.1115 361.375L89.0852 343.182L89.1003 303.114L89.134 284.333C89.149 283.833 89.2429 283.255 89.6221 282.896C90.0313 282.512 90.4067 282.236 90.9698 282.156C93.2185 281.838 95.8726 282.104 98.1589 282.106C101.932 282.108 105.836 281.923 109.594 282.167C110.671 282.236 110.99 282.69 111.677 283.442C112.177 284.857 111.948 286.768 111.948 288.264L111.94 298.4L111.966 333.24L111.97 369.396C111.951 369.867 111.869 370.291 111.662 370.72C111.279 371.528 110.664 372.313 110.086 372.987L91.1312 373Z" fill="url(#paint21_linear_54_2)"/>
<path d="M93 305.09C94.7968 305.097 104.101 304.722 104.988 305.453C105.018 306.303 105.001 307.033 104.833 307.865C103.612 308.11 102.159 307.946 100.899 307.95L93.0472 307.968L93 305.09Z" fill="#FEFEFE"/>
<path d="M93 298.178C94.8228 298.171 104.033 297.607 104.962 298.525C104.992 299.717 105.109 300.808 104.691 301.891L93.024 302L93 298.178Z" fill="#FEFEFE"/>
<path d="M97.3875 353.166C98.2768 352.99 99.3053 352.919 100.198 353.128C101.443 353.42 102.5 354.273 103.174 355.357C103.876 356.496 104.195 357.814 103.876 359.129C103.423 360.999 102.185 361.946 100.626 362.871C99.6968 362.993 98.5733 363.071 97.6473 362.904C96.403 362.678 95.3417 361.799 94.7049 360.721C94.0315 359.584 93.8228 358.032 94.1559 356.75C94.6463 354.861 95.7955 354.044 97.3875 353.166Z" fill="#FEFEFE"/>
<path d="M462.383 260.387C463.753 258.341 465.618 255.012 467.803 254.064C469.272 253.427 470.533 253.531 471.614 254.134L471.837 254.281L476.338 260.76L486.161 275.467C487.918 277.74 491.999 281.793 491.298 285.44C490.978 287.106 490.43 288.176 489.14 289.505C488.137 290.539 486.103 291.936 485.368 293.038L462.383 260.387Z" fill="#FEFEFE"/>
<path d="M472.988 370.244L532.906 370L532.868 371.809L533 373L369.78 372.948L369 372.013C369.014 371.101 369.12 371.061 369.765 370.346C371.628 369.827 374.555 370.171 376.529 370.174L392.379 370.245C395.762 370.945 400.206 370.511 403.712 370.52L427.104 370.549L459.25 370.515L468.15 370.487C469.731 370.48 471.464 370.638 472.988 370.244Z" fill="#54A6ED"/>
</g>
<defs>
<linearGradient id="paint0_linear_54_2" x1="434" y1="365.16" x2="458.764" y2="321.148" gradientUnits="userSpaceOnUse">
<stop stop-color="#0575E6"/>
<stop offset="1" stop-color="#021B79"/>
</linearGradient>
<linearGradient id="paint1_linear_54_2" x1="43" y1="28.02" x2="51.3044" y2="24.6244" gradientUnits="userSpaceOnUse">
<stop stop-color="#0575E6"/>
<stop offset="1" stop-color="#021B79"/>
</linearGradient>
<linearGradient id="paint2_linear_54_2" x1="524" y1="137.02" x2="533" y2="132.88" gradientUnits="userSpaceOnUse">
<stop stop-color="#0575E6"/>
<stop offset="1" stop-color="#021B79"/>
</linearGradient>
<linearGradient id="paint3_linear_54_2" x1="531" y1="291.02" x2="539.304" y2="287.624" gradientUnits="userSpaceOnUse">
<stop stop-color="#0575E6"/>
<stop offset="1" stop-color="#021B79"/>
</linearGradient>
<linearGradient id="paint4_linear_54_2" x1="222" y1="43.02" x2="231" y2="38.88" gradientUnits="userSpaceOnUse">
<stop stop-color="#0575E6"/>
<stop offset="1" stop-color="#021B79"/>
</linearGradient>
<linearGradient id="paint5_linear_54_2" x1="216" y1="147.02" x2="225" y2="142.88" gradientUnits="userSpaceOnUse">
<stop stop-color="#0575E6"/>
<stop offset="1" stop-color="#021B79"/>
</linearGradient>
<linearGradient id="paint6_linear_54_2" x1="476" y1="89.92" x2="493.737" y2="76.5158" gradientUnits="userSpaceOnUse">
<stop stop-color="#0575E6"/>
<stop offset="1" stop-color="#021B79"/>
</linearGradient>
<linearGradient id="paint7_linear_54_2" x1="418" y1="89.92" x2="435.737" y2="76.5158" gradientUnits="userSpaceOnUse">
<stop stop-color="#0575E6"/>
<stop offset="1" stop-color="#021B79"/>
</linearGradient>
<linearGradient id="paint8_linear_54_2" x1="127.845" y1="154.303" x2="117.859" y2="88.0305" gradientUnits="userSpaceOnUse">
<stop stop-color="#FFA928"/>
<stop offset="1" stop-color="#F9BF2D"/>
</linearGradient>
<linearGradient id="paint9_linear_54_2" x1="418" y1="114.84" x2="442.385" y2="105.626" gradientUnits="userSpaceOnUse">
<stop stop-color="#0575E6"/>
<stop offset="1" stop-color="#021B79"/>
</linearGradient>
<linearGradient id="paint10_linear_54_2" x1="476" y1="114.06" x2="500.157" y2="104.594" gradientUnits="userSpaceOnUse">
<stop stop-color="#0575E6"/>
<stop offset="1" stop-color="#021B79"/>
</linearGradient>
<linearGradient id="paint11_linear_54_2" x1="444" y1="104.16" x2="476.873" y2="98.2794" gradientUnits="userSpaceOnUse">
<stop stop-color="#0575E6"/>
<stop offset="1" stop-color="#021B79"/>
</linearGradient>
<linearGradient id="paint12_linear_54_2" x1="351" y1="159.12" x2="403.669" y2="135.79" gradientUnits="userSpaceOnUse">
<stop stop-color="#0575E6"/>
<stop offset="1" stop-color="#021B79"/>
</linearGradient>
<linearGradient id="paint13_linear_54_2" x1="356" y1="65.68" x2="412" y2="39.92" gradientUnits="userSpaceOnUse">
<stop stop-color="#0575E6"/>
<stop offset="1" stop-color="#021B79"/>
</linearGradient>
<linearGradient id="paint14_linear_54_2" x1="118" y1="71.44" x2="180.871" y2="14.8039" gradientUnits="userSpaceOnUse">
<stop stop-color="#0575E6"/>
<stop offset="1" stop-color="#021B79"/>
</linearGradient>
<linearGradient id="paint15_linear_54_2" x1="432" y1="319.94" x2="458.475" y2="274.933" gradientUnits="userSpaceOnUse">
<stop stop-color="#0575E6"/>
<stop offset="1" stop-color="#021B79"/>
</linearGradient>
<linearGradient id="paint16_linear_54_2" x1="434" y1="343.16" x2="458.764" y2="299.148" gradientUnits="userSpaceOnUse">
<stop stop-color="#0575E6"/>
<stop offset="1" stop-color="#021B79"/>
</linearGradient>
<linearGradient id="paint17_linear_54_2" x1="19" y1="322.52" x2="71.408" y2="309.318" gradientUnits="userSpaceOnUse">
<stop stop-color="#0575E6"/>
<stop offset="1" stop-color="#021B79"/>
</linearGradient>
<linearGradient id="paint18_linear_54_2" x1="114" y1="355.4" x2="140.235" y2="352.081" gradientUnits="userSpaceOnUse">
<stop stop-color="#0575E6"/>
<stop offset="1" stop-color="#021B79"/>
</linearGradient>
<linearGradient id="paint19_linear_54_2" x1="30" y1="354.08" x2="66.5546" y2="348.019" gradientUnits="userSpaceOnUse">
<stop stop-color="#0575E6"/>
<stop offset="1" stop-color="#021B79"/>
</linearGradient>
<linearGradient id="paint20_linear_54_2" x1="63" y1="354.96" x2="90.4105" y2="351.423" gradientUnits="userSpaceOnUse">
<stop stop-color="#0575E6"/>
<stop offset="1" stop-color="#021B79"/>
</linearGradient>
<linearGradient id="paint21_linear_54_2" x1="89" y1="352.98" x2="116.495" y2="349.783" gradientUnits="userSpaceOnUse">
<stop stop-color="#0575E6"/>
<stop offset="1" stop-color="#021B79"/>
</linearGradient>
<clipPath id="clip0_54_2">
<rect width="570" height="395" fill="white"/>
</clipPath>
</defs>
</svg>
