<svg width="320" height="200" viewBox="0 0 320 200" fill="none" xmlns="http://www.w3.org/2000/svg">
<g filter="url(#filter0_d_12355_39073)">
<rect x="10" y="5" width="300" height="180" rx="16" fill="white" shape-rendering="crispEdges"/>
<path d="M173.062 106.254H167.211L173.212 83.6006H178.913L173.062 106.254Z" fill="#1B1A8E"/>
<path d="M167.201 106.254H173.052L167.051 83.6006H161.5L167.201 106.254Z" fill="#2369E4"/>
<path d="M157.609 97.703L161.51 83.6006H167.061L163.46 97.703H157.609Z" fill="#1B1A8E"/>
<path d="M152.5 83.6006C153.85 83.6006 155.651 83.6006 158.351 83.6006L162.102 97.703H156.251L152.5 83.6006Z" fill="#2369E4"/>
<path d="M75.8256 83.6006L77.4759 89.9017C77.4759 89.9017 75.6756 91.2519 75.6756 94.5524C75.6756 97.853 78.8261 100.403 81.0765 100.403C83.3269 100.403 89.3279 100.403 89.3279 100.403L90.9782 106.404C90.9782 106.404 81.9767 106.404 81.3766 106.404C80.3264 106.404 75.8256 106.254 72.375 101.754C68.3243 96.5028 70.4247 90.3517 71.6249 88.2514C73.1252 85.5509 75.0755 84.2007 75.8256 83.6006Z" fill="#2369E4"/>
<path d="M85.7344 99.0532L91.2853 83.6006H96.2362L104.638 106.254H100.587L93.6857 86.151L89.335 99.0532H85.7344Z" fill="#2C2C2C" stroke="#2C2C2C" stroke-width="0.5" stroke-miterlimit="10"/>
<path d="M122.176 100.703C122.176 102.503 120.376 104.003 116.325 104.003C112.124 104.003 111.074 99.5025 111.074 99.5025H107.773C107.773 99.5025 107.923 106.704 116.325 106.854C120.976 107.004 125.626 104.603 125.476 100.253C125.476 98.6023 124.576 96.802 122.026 95.4518C119.775 94.2516 115.575 93.3514 114.825 93.0514C113.024 92.4513 111.224 90.951 111.224 89.1507C111.224 87.3504 113.024 86.0002 117.075 86.0002C121.276 86.0002 122.176 90.3509 122.176 90.3509H125.476C125.476 90.3509 125.476 83.4497 116.925 83.2997C108.224 83.1497 108.073 89.0007 108.073 89.0007C108.073 93.8015 113.024 94.8517 113.024 94.8517C113.024 94.8517 117.075 95.7518 119.926 96.952C121.726 97.8522 122.176 98.4523 122.176 100.703Z" fill="#2C2C2C" stroke="#2C2C2C" stroke-width="0.5" stroke-miterlimit="10"/>
<path d="M145.734 83.75H129.531V86.9005H145.734V83.75Z" fill="#2C2C2C" stroke="#2C2C2C" stroke-width="0.5" stroke-miterlimit="10"/>
<path d="M145.734 93.501H129.531V96.6515H145.734V93.501Z" fill="#2C2C2C" stroke="#2C2C2C" stroke-width="0.5" stroke-miterlimit="10"/>
<path d="M145.734 102.953H129.531V106.104H145.734V102.953Z" fill="#2C2C2C" stroke="#2C2C2C" stroke-width="0.5" stroke-miterlimit="10"/>
<path d="M233.81 83.6006H230.359V106.404H233.81V83.6006Z" fill="#2C2C2C" stroke="#2C2C2C" stroke-width="0.5" stroke-miterlimit="10"/>
<path d="M245.053 83.6006L249.404 83.7506L239.502 93.8023L250.004 106.254H245.503L237.102 95.7527V92.6021L245.053 83.6006Z" fill="#2C2C2C" stroke="#2C2C2C" stroke-width="0.5" stroke-miterlimit="10"/>
<path d="M209.648 83.6006C209.648 83.6006 218.8 83.6006 219.55 83.6006C220.3 83.6006 226.001 84.3507 226.151 90.5018C226.151 95.9027 222.101 97.553 222.101 97.553L227.051 106.254H223.601L218.95 98.003H213.099V106.104H209.648L209.798 95.3026C209.798 95.3026 215.95 95.3026 218.2 95.3026C220.45 95.3026 223.151 94.2524 223.151 90.9518C223.151 88.1014 221.5 86.6011 219.55 86.6011C217.6 86.6011 209.648 86.6011 209.648 86.6011V83.6006Z" fill="#2C2C2C" stroke="#2C2C2C" stroke-width="0.5" stroke-miterlimit="10"/>
<path d="M185.496 95.4521C185.496 100.103 188.946 103.553 193.897 103.553C198.398 103.553 202.149 99.8029 201.999 95.002C201.849 89.3011 198.398 86.4506 193.897 86.4506V83C193.897 83 205.299 83 205.149 94.552C204.999 106.104 195.548 106.254 194.047 106.254C192.397 106.254 182.945 106.404 182.195 95.1521L185.496 95.4521Z" fill="#2C2C2C" stroke="#2C2C2C" stroke-width="0.5" stroke-miterlimit="10"/>
</g>
<defs>
<filter id="filter0_d_12355_39073" x="0" y="0" width="320" height="200" filterUnits="userSpaceOnUse" color-interpolation-filters="sRGB">
<feFlood flood-opacity="0" result="BackgroundImageFix"/>
<feColorMatrix in="SourceAlpha" type="matrix" values="0 0 0 0 0 0 0 0 0 0 0 0 0 0 0 0 0 0 127 0" result="hardAlpha"/>
<feOffset dy="5"/>
<feGaussianBlur stdDeviation="5"/>
<feComposite in2="hardAlpha" operator="out"/>
<feColorMatrix type="matrix" values="0 0 0 0 0.254902 0 0 0 0 0.254902 0 0 0 0 0.254902 0 0 0 0.12 0"/>
<feBlend mode="normal" in2="BackgroundImageFix" result="effect1_dropShadow_12355_39073"/>
<feBlend mode="normal" in="SourceGraphic" in2="effect1_dropShadow_12355_39073" result="shape"/>
</filter>
</defs>
</svg>
