<svg width="320" height="200" viewBox="0 0 320 200" fill="none" xmlns="http://www.w3.org/2000/svg">
<g filter="url(#filter0_d_12355_39104)">
<rect x="10" y="5" width="300" height="180" rx="16" fill="white" shape-rendering="crispEdges"/>
<path d="M84 110C84 110 84 109.545 84 107.98C84 106.414 84 82.1717 84 81.4142C84 80.6061 84 80.0505 84 80.0505L90.9192 80H229.96L236.879 80.0505C236.879 80.0505 236.879 80.6566 236.879 81.4142C236.879 82.2222 236.879 106.465 236.879 107.98C236.879 109.545 236.879 110 236.879 110H84Z" fill="url(#paint0_linear_12355_39104)"/>
<path d="M90.4141 102.424H92.5858V88.2824H90.4141V102.424ZM99.303 96.7672L97.0807 88.2824H94.3535V102.424H96.3232V92.1713L99.0504 102.424H101.273V88.2824H99.3535L99.303 96.7672ZM106.374 88.2824H102.889V102.424H106.374C107.485 102.424 108.293 102.121 108.798 101.515C109.303 100.909 109.606 100.05 109.606 98.8884V91.7167C109.606 90.5551 109.353 89.6965 108.798 89.0905C108.293 88.5854 107.485 88.2824 106.374 88.2824ZM107.485 99.04C107.485 99.545 107.384 99.8985 107.182 100.101C106.98 100.303 106.727 100.404 106.374 100.404H105.111V90.3026H106.374C106.727 90.3026 106.98 90.4036 107.182 90.6056C107.384 90.8076 107.485 91.1612 107.485 91.6662V99.04ZM111.172 102.424H113.343V88.2824H111.172V102.424ZM116.727 88.2824L114.505 102.424H116.475L116.879 99.848H119.555L119.96 102.424H122.131L119.909 88.2824H116.727ZM117.131 97.9793L118.192 90.8076L119.252 97.9793H117.131ZM128.242 96.7672L126.02 88.2824H123.293V102.424H125.263V92.1713L127.99 102.424H130.212V88.2824H128.293L128.242 96.7672ZM140.111 95.9591C139.808 95.5551 139.454 95.2016 139.05 94.8985C138.697 94.545 138.343 94.242 137.99 93.8884C137.687 93.5349 137.384 93.2319 137.182 92.8278C136.98 92.4743 136.879 92.0197 136.879 91.5652C136.879 91.0601 136.98 90.7066 137.182 90.5046C137.384 90.3026 137.636 90.2016 137.99 90.2016C138.343 90.2016 138.596 90.3026 138.798 90.5046C139 90.7066 139.101 91.0601 139.101 91.5652V92.1713H141.172V91.7167C141.172 90.5551 140.919 89.6965 140.364 89.0905C139.808 88.4844 139 88.1814 137.939 88.1814C136.828 88.1814 136.071 88.4844 135.515 89.0905C134.96 89.6965 134.707 90.6056 134.707 91.7167C134.707 92.3733 134.808 92.9793 135.01 93.4844C135.212 93.9894 135.515 94.444 135.818 94.7975C136.121 95.2016 136.475 95.5551 136.879 95.8581C137.232 96.2117 137.586 96.5147 137.939 96.8682C138.242 97.2218 138.545 97.5248 138.747 97.9288C138.949 98.2824 139.05 98.7369 139.05 99.1915C139.05 99.6965 138.949 100.05 138.747 100.252C138.545 100.454 138.242 100.555 137.889 100.555C137.535 100.555 137.283 100.454 137.03 100.252C136.828 100.05 136.727 99.6965 136.727 99.1915V98.1814H134.657V99.04C134.657 100.202 134.96 101.06 135.515 101.666C136.071 102.272 136.879 102.575 137.939 102.575C139.05 102.575 139.808 102.272 140.364 101.666C140.919 101.06 141.222 100.151 141.222 99.04C141.222 98.3834 141.121 97.7773 140.919 97.2723C140.717 96.7672 140.465 96.3632 140.111 95.9591ZM145.717 88.1309C144.606 88.1309 143.848 88.4339 143.293 89.0399C142.737 89.646 142.434 90.5551 142.434 91.6662V99.04C142.434 100.202 142.737 101.06 143.293 101.666C143.848 102.272 144.656 102.575 145.717 102.575C146.828 102.575 147.586 102.272 148.141 101.666C148.697 101.06 149 100.151 149 99.04V97.1713H146.929V99.1915C146.929 99.6965 146.828 100.05 146.626 100.252C146.424 100.454 146.121 100.555 145.768 100.555C145.414 100.555 145.162 100.454 144.909 100.252C144.707 100.05 144.606 99.6965 144.606 99.1915V91.5652C144.606 91.0601 144.707 90.7066 144.909 90.5046C145.111 90.3026 145.414 90.2016 145.768 90.2016C146.121 90.2016 146.374 90.3026 146.626 90.5046C146.828 90.7066 146.929 91.0601 146.929 91.5652V93.0803H149V91.7167C149 90.5551 148.697 89.6965 148.141 89.0905C147.636 88.4339 146.778 88.1309 145.717 88.1309ZM155.111 94.343H152.636V88.2824H150.465V102.424H152.636V96.3632H155.111V102.424H157.333V88.2824H155.111V94.343ZM162.182 88.1309C161.071 88.1309 160.313 88.4339 159.707 89.0399C159.151 89.646 158.848 90.5551 158.848 91.6662V99.04C158.848 100.202 159.151 101.06 159.707 101.666C160.263 102.272 161.071 102.575 162.182 102.575C163.293 102.575 164.05 102.272 164.656 101.666C165.212 101.06 165.515 100.151 165.515 99.04V91.6662C165.515 90.5046 165.212 89.646 164.656 89.0399C164.101 88.4339 163.242 88.1309 162.182 88.1309ZM163.343 99.1915C163.343 99.6965 163.242 100.05 163.04 100.252C162.838 100.454 162.535 100.555 162.182 100.555C161.828 100.555 161.576 100.454 161.323 100.252C161.121 100.05 161.02 99.6965 161.02 99.1915V91.5652C161.02 91.0601 161.121 90.7066 161.323 90.5046C161.525 90.3026 161.828 90.2016 162.182 90.2016C162.535 90.2016 162.788 90.3026 163.04 90.5046C163.242 90.7066 163.343 91.0601 163.343 91.5652V99.1915ZM170.162 88.1309C169.05 88.1309 168.293 88.4339 167.687 89.0399C167.131 89.646 166.828 90.5551 166.828 91.6662V99.04C166.828 100.202 167.131 101.06 167.687 101.666C168.242 102.272 169.05 102.575 170.162 102.575C171.273 102.575 172.03 102.272 172.636 101.666C173.192 101.06 173.495 100.151 173.495 99.04V91.6662C173.495 90.5046 173.192 89.646 172.636 89.0399C172.081 88.4339 171.273 88.1309 170.162 88.1309ZM171.323 99.1915C171.323 99.6965 171.222 100.05 171.02 100.252C170.818 100.454 170.515 100.555 170.162 100.555C169.808 100.555 169.555 100.454 169.303 100.252C169.101 100.05 169 99.6965 169 99.1915V91.5652C169 91.0601 169.101 90.7066 169.303 90.5046C169.505 90.3026 169.808 90.2016 170.162 90.2016C170.515 90.2016 170.768 90.3026 171.02 90.5046C171.222 90.7066 171.323 91.0601 171.323 91.5652V99.1915ZM177.232 88.2824H175.061V102.424H180.818V100.404H177.232V88.2824ZM188.242 88.1309C187.131 88.1309 186.374 88.4339 185.768 89.0399C185.212 89.646 184.909 90.5551 184.909 91.6662V99.04C184.909 100.202 185.212 101.06 185.768 101.666C186.323 102.272 187.131 102.575 188.242 102.575C189.353 102.575 190.111 102.272 190.717 101.666C191.273 101.06 191.576 100.151 191.576 99.04V91.6662C191.576 90.5046 191.273 89.646 190.717 89.0399C190.162 88.4339 189.303 88.1309 188.242 88.1309ZM189.353 99.1915C189.353 99.6965 189.252 100.05 189.05 100.252C188.848 100.454 188.545 100.555 188.192 100.555C187.838 100.555 187.586 100.454 187.333 100.252C187.131 100.05 187.03 99.6965 187.03 99.1915V91.5652C187.03 91.0601 187.131 90.7066 187.333 90.5046C187.535 90.3026 187.838 90.2016 188.192 90.2016C188.545 90.2016 188.798 90.3026 189.05 90.5046C189.252 90.7066 189.353 91.0601 189.353 91.5652V99.1915ZM193.091 102.424H195.263V96.5652H198.091V94.545H195.263V90.3026H198.848V88.2824H193.091V102.424ZM205.465 88.2824H203.293V102.424H209.05V100.404H205.465V88.2824ZM211.778 88.2824L209.555 102.424H211.525L211.929 99.848H214.606L215.01 102.424H217.182L214.96 88.2824H211.778ZM212.232 97.9793L213.293 90.8076L214.353 97.9793H212.232ZM226.475 88.2824L225.313 99.4945L224.202 88.2824H222.131L221.071 99.444L219.859 88.2824H217.737L219.252 102.424H222.232L223.04 94.8985L223.848 102.424H226.727L228.242 88.2824H226.475Z" fill="black"/>
</g>
<defs>
<filter id="filter0_d_12355_39104" x="0" y="0" width="320" height="200" filterUnits="userSpaceOnUse" color-interpolation-filters="sRGB">
<feFlood flood-opacity="0" result="BackgroundImageFix"/>
<feColorMatrix in="SourceAlpha" type="matrix" values="0 0 0 0 0 0 0 0 0 0 0 0 0 0 0 0 0 0 127 0" result="hardAlpha"/>
<feOffset dy="5"/>
<feGaussianBlur stdDeviation="5"/>
<feComposite in2="hardAlpha" operator="out"/>
<feColorMatrix type="matrix" values="0 0 0 0 0.254902 0 0 0 0 0.254902 0 0 0 0 0.254902 0 0 0 0.12 0"/>
<feBlend mode="normal" in2="BackgroundImageFix" result="effect1_dropShadow_12355_39104"/>
<feBlend mode="normal" in="SourceGraphic" in2="effect1_dropShadow_12355_39104" result="shape"/>
</filter>
<linearGradient id="paint0_linear_12355_39104" x1="84" y1="95" x2="236.879" y2="95" gradientUnits="userSpaceOnUse">
<stop stop-color="#F9DF7B"/>
<stop offset="0.2038" stop-color="#B57E10"/>
<stop offset="0.2643" stop-color="#B78114"/>
<stop offset="0.3227" stop-color="#BF8C1F"/>
<stop offset="0.3803" stop-color="#CB9E33"/>
<stop offset="0.4373" stop-color="#DDB64E"/>
<stop offset="0.4935" stop-color="#F3D671"/>
<stop offset="0.5077" stop-color="#F9DF7B"/>
<stop offset="0.5189" stop-color="#FFF3A6"/>
<stop offset="0.5934" stop-color="#F9DF7B"/>
<stop offset="0.8428" stop-color="#B57E10"/>
<stop offset="0.9493" stop-color="#E5C35C"/>
<stop offset="1" stop-color="#F9DF7B"/>
</linearGradient>
</defs>
</svg>
