<svg width="320" height="200" viewBox="0 0 320 200" fill="none" xmlns="http://www.w3.org/2000/svg">
<g filter="url(#filter0_d_12355_39090)">
<rect x="10" y="5" width="300" height="180" rx="16" fill="white" shape-rendering="crispEdges"/>
<g clip-path="url(#clip0_12355_39090)">
<rect width="180" height="20.8361" transform="translate(70 85)" fill="white"/>
<path d="M81.1697 91.1183C81.1915 90.7264 81.1915 90.3781 81.1697 90.0515C81.1479 89.7902 81.1044 89.5289 81.0608 89.2894C80.9955 89.0499 80.9084 88.941 80.7995 88.941C80.5818 88.941 80.3859 89.1805 80.1899 89.6813C79.9939 90.1821 79.6891 90.9442 79.2972 91.9675L73.8321 105.641H70L75.4216 91.9675C75.8352 90.8788 76.2272 89.8991 76.6191 89.0717C77.011 88.2443 77.4465 87.5475 77.9037 87.0032C78.3609 86.4589 78.8617 86.0452 79.4278 85.7621C79.9722 85.4791 80.6036 85.3484 81.3221 85.3484C82.3455 85.3484 83.1728 85.8492 83.8043 86.829C84.4357 87.8088 84.7623 89.2459 84.7623 91.0966V99.8712C84.7405 100.285 84.7405 100.633 84.7623 100.96C84.7841 101.221 84.8058 101.482 84.8494 101.7C84.8929 101.918 84.98 102.027 85.1107 102.027C85.2848 102.027 85.459 101.853 85.6114 101.482C85.7856 101.112 86.0034 100.568 86.2864 99.8277H86.2646L89.4218 91.9457C89.8355 90.8571 90.2274 89.8773 90.6193 89.0499C91.0112 88.2225 91.4467 87.5258 91.9039 86.9814C92.3612 86.4371 92.8619 86.0234 93.4281 85.7404C93.9724 85.4573 94.6038 85.3267 95.3223 85.3267C96.3457 85.3267 97.1731 85.8274 97.8045 86.8072C98.4359 87.787 98.7625 89.2241 98.7625 91.0748V105.598H95.1699V91.0748C95.1917 90.6829 95.1917 90.3345 95.1699 90.0079C95.1481 89.7466 95.1046 89.4854 95.0611 89.2459C94.9957 89.0063 94.9086 88.8975 94.7998 88.8975C94.582 88.8975 94.3861 89.137 94.1901 89.6378C93.9942 90.1386 93.6893 90.9006 93.2974 91.924L90.4669 99.0221C90.0532 100.111 89.6613 101.069 89.2694 101.896C88.8774 102.724 88.442 103.398 88.0065 103.943C87.5493 104.487 87.0485 104.901 86.5042 105.162C85.9598 105.423 85.3284 105.576 84.6099 105.576C83.5865 105.576 82.7591 105.075 82.1495 104.095C81.5181 103.094 81.2132 101.678 81.2132 99.8277V91.1183H81.1697Z" fill="black"/>
<path d="M109.389 85.1729C110.304 85.1729 111.088 85.2599 111.762 85.4559C112.437 85.6301 113.047 85.8696 113.591 86.1526C114.136 86.4357 114.615 86.7405 115.05 87.0671C115.486 87.3937 115.899 87.6986 116.313 87.9816C116.727 88.2647 117.119 88.5259 117.532 88.7437C117.946 88.9614 118.403 89.0703 118.904 89.1138C119.405 89.0703 119.862 88.9396 120.276 88.7437C120.69 88.5259 121.103 88.2864 121.495 87.9816C121.909 87.6986 122.323 87.3937 122.736 87.0671C123.15 86.7405 123.651 86.4357 124.173 86.1526C124.718 85.8696 125.327 85.6519 126.002 85.4559C126.677 85.2817 127.483 85.1729 128.375 85.1729C129.791 85.1729 131.141 85.4341 132.382 85.9785C133.645 86.5228 134.733 87.2631 135.67 88.1993C136.606 89.1356 137.346 90.2243 137.89 91.4871C138.435 92.75 138.696 94.0999 138.696 95.5152C138.696 96.9304 138.435 98.2804 137.89 99.5215C137.346 100.784 136.606 101.873 135.67 102.809C134.733 103.745 133.623 104.486 132.382 105.03C131.119 105.574 129.791 105.836 128.375 105.836C127.461 105.836 126.677 105.749 126.002 105.553C125.327 105.378 124.696 105.139 124.173 104.856C123.629 104.573 123.15 104.268 122.736 103.941C122.323 103.615 121.909 103.288 121.495 103.005C121.081 102.722 120.69 102.461 120.276 102.265C119.862 102.069 119.405 101.938 118.904 101.895C118.403 101.938 117.946 102.047 117.532 102.265C117.119 102.461 116.705 102.722 116.313 103.005C115.899 103.288 115.486 103.615 115.05 103.941C114.615 104.268 114.136 104.595 113.591 104.856C113.047 105.139 112.437 105.357 111.762 105.553C111.088 105.727 110.304 105.836 109.389 105.836C107.974 105.836 106.624 105.574 105.361 105.03C104.098 104.486 103.01 103.745 102.073 102.809C101.137 101.873 100.397 100.763 99.8525 99.5215C99.3082 98.2586 99.0469 96.9304 99.0469 95.5152C99.0469 94.0999 99.3082 92.75 99.8525 91.4871C100.397 90.2243 101.137 89.1356 102.073 88.1993C103.01 87.2631 104.098 86.5228 105.361 85.9785C106.624 85.4341 107.974 85.1729 109.389 85.1729ZM118.904 98.2151C119.666 98.2151 120.341 98.3239 120.907 98.5199C121.473 98.7158 121.996 98.9771 122.431 99.2819C122.889 99.5868 123.302 99.9134 123.716 100.24C124.13 100.588 124.543 100.915 124.979 101.198C125.414 101.503 125.915 101.742 126.459 101.96C127.004 102.156 127.635 102.265 128.397 102.265C129.312 102.265 130.183 102.091 131.01 101.721C131.837 101.372 132.556 100.871 133.166 100.24C133.775 99.6085 134.276 98.89 134.624 98.0626C134.973 97.2353 135.169 96.3643 135.169 95.4498C135.169 94.5354 134.995 93.6644 134.624 92.8371C134.276 92.0097 133.775 91.3129 133.166 90.7033C132.556 90.0936 131.837 89.6146 131.01 89.2662C130.183 88.9179 129.312 88.7219 128.397 88.7219C127.657 88.7219 127.026 88.8308 126.481 89.0267C125.937 89.2227 125.436 89.484 125.001 89.7888C124.565 90.0936 124.13 90.4202 123.738 90.7468C123.324 91.0952 122.91 91.4218 122.453 91.7048C121.996 92.0097 121.495 92.2492 120.929 92.4669C120.363 92.6629 119.688 92.7717 118.926 92.7717C118.164 92.7717 117.489 92.6629 116.923 92.4669C116.357 92.2709 115.834 92.0097 115.377 91.7048C114.92 91.4 114.484 91.0734 114.092 90.7468C113.7 90.3984 113.265 90.0718 112.829 89.7888C112.372 89.484 111.871 89.2445 111.349 89.0267C110.804 88.8308 110.173 88.7219 109.433 88.7219C108.518 88.7219 107.647 88.8961 106.82 89.2662C105.993 89.6146 105.274 90.0936 104.664 90.7033C104.055 91.3129 103.554 92.0314 103.206 92.8371C102.857 93.6644 102.661 94.5354 102.661 95.4498C102.661 96.3643 102.835 97.2353 103.206 98.0626C103.554 98.89 104.055 99.6085 104.664 100.24C105.274 100.871 105.993 101.35 106.82 101.721C107.647 102.069 108.518 102.265 109.433 102.265C110.173 102.265 110.804 102.156 111.349 101.96C111.893 101.764 112.394 101.503 112.829 101.198C113.287 100.893 113.7 100.567 114.092 100.24C114.484 99.8916 114.92 99.565 115.377 99.2819C115.834 98.9771 116.357 98.7376 116.923 98.5199C117.467 98.3239 118.142 98.2151 118.904 98.2151Z" fill="black"/>
<path d="M143.466 88.9412H136.891V85.3486H153.678V88.9412H147.059V105.641H143.466V88.9412Z" fill="black"/>
<path d="M166.473 105.488C165.08 105.466 163.773 105.204 162.554 104.66C161.313 104.138 160.246 103.397 159.353 102.483C158.439 101.568 157.72 100.501 157.198 99.2604C156.675 98.0193 156.414 96.7129 156.414 95.3412C156.414 93.9259 156.675 92.6195 157.198 91.3784C157.72 90.1374 158.439 89.0705 159.375 88.156C160.29 87.2415 161.357 86.523 162.598 85.9787C163.839 85.4561 165.145 85.1948 166.517 85.1948H173.854V88.7874H166.517C165.602 88.7874 164.753 88.9616 163.969 89.31C163.186 89.6583 162.489 90.1156 161.879 90.7035C161.291 91.2913 160.812 91.9881 160.486 92.7937C160.159 93.5993 159.985 94.4485 159.985 95.3412C159.985 96.2556 160.159 97.1048 160.486 97.8886C160.812 98.6943 161.291 99.391 161.879 99.9789C162.467 100.567 163.164 101.024 163.969 101.372C164.753 101.721 165.602 101.895 166.517 101.895H173.854V105.488H166.473Z" fill="black"/>
<path d="M184.827 85C186.242 85 187.592 85.2613 188.833 85.8056C190.096 86.3499 191.184 87.0902 192.121 88.0265C193.057 88.9627 193.797 90.0514 194.342 91.3143C194.886 92.5771 195.147 93.927 195.147 95.3423C195.147 96.7576 194.886 98.1075 194.342 99.3486C193.797 100.611 193.057 101.7 192.121 102.636C191.184 103.573 190.074 104.313 188.833 104.857C187.57 105.402 186.242 105.663 184.827 105.663C183.411 105.663 182.061 105.402 180.799 104.857C179.536 104.313 178.447 103.573 177.511 102.636C176.575 101.7 175.834 100.59 175.29 99.3486C174.746 98.1075 174.484 96.7576 174.484 95.3423C174.484 93.927 174.746 92.5771 175.29 91.3143C175.834 90.0514 176.575 88.9627 177.511 88.0265C178.447 87.0902 179.536 86.3499 180.799 85.8056C182.04 85.2613 183.39 85 184.827 85ZM184.827 102.114C185.741 102.114 186.612 101.94 187.439 101.569C188.267 101.221 188.985 100.72 189.595 100.089C190.205 99.4575 190.705 98.7389 191.054 97.9116C191.402 97.0842 191.598 96.2132 191.598 95.2988C191.598 94.3843 191.424 93.5134 191.054 92.686C190.705 91.8586 190.205 91.1618 189.595 90.5522C188.985 89.9425 188.267 89.4635 187.439 89.1152C186.612 88.7668 185.741 88.5708 184.827 88.5708C183.912 88.5708 183.041 88.745 182.214 89.1152C181.387 89.4635 180.668 89.9425 180.058 90.5522C179.449 91.1618 178.948 91.8804 178.6 92.686C178.251 93.5134 178.055 94.3843 178.055 95.2988C178.055 96.2132 178.229 97.1059 178.6 97.9116C178.948 98.7389 179.449 99.4575 180.058 100.089C180.668 100.72 181.387 101.199 182.214 101.569C183.02 101.918 183.89 102.114 184.827 102.114Z" fill="black"/>
<path d="M204.659 105.554C203.527 105.554 202.46 105.336 201.48 104.922C200.5 104.509 199.629 103.921 198.889 103.18C198.149 102.44 197.561 101.569 197.147 100.589C196.733 99.6095 196.516 98.5426 196.516 97.4104V85.2827H200.108V97.4104C200.108 98.0419 200.239 98.6297 200.478 99.1959C200.718 99.7402 201.044 100.219 201.458 100.633C201.872 101.047 202.351 101.373 202.895 101.613C203.44 101.852 204.027 101.983 204.681 101.983C205.312 101.983 205.9 101.852 206.466 101.613C207.01 101.373 207.489 101.047 207.903 100.633C208.317 100.219 208.622 99.7402 208.861 99.1959C209.101 98.6515 209.231 98.0636 209.231 97.4104V85.2827H212.824V97.4104C212.824 98.5426 212.606 99.6095 212.192 100.589C211.779 101.569 211.191 102.44 210.451 103.18C209.71 103.921 208.839 104.509 207.86 104.922C206.836 105.336 205.791 105.554 204.659 105.554Z" fill="black"/>
<path d="M227.9 96.6911L232.581 105.466H228.531L226.528 101.655C226.267 101.198 225.984 100.697 225.701 100.153C225.418 99.6087 225.156 99.1297 224.873 98.6725C224.612 98.237 224.329 97.8669 224.046 97.562C223.763 97.2572 223.458 97.1048 223.175 97.1048H220.802C220.149 97.1048 219.583 97.3443 219.125 97.8015C218.668 98.2588 218.429 98.8249 218.429 99.4781V105.466H214.836V99.4781C214.836 98.6507 214.988 97.8669 215.293 97.1484C215.598 96.4298 216.033 95.7984 216.556 95.2541C217.1 94.7097 217.732 94.2961 218.45 93.9912C219.169 93.6864 219.953 93.534 220.78 93.534H225.614C226.136 93.534 226.572 93.4251 226.92 93.1856C227.268 92.9461 227.552 92.6631 227.704 92.3147C227.878 91.9663 227.965 91.5744 227.965 91.1607C227.965 90.747 227.878 90.3551 227.704 90.0067C227.53 89.6583 227.268 89.3535 226.92 89.1358C226.572 88.8963 226.136 88.7874 225.614 88.7874H214.836V85.1948H225.614C226.702 85.1948 227.639 85.4126 228.466 85.8698C229.293 86.327 229.947 86.9149 230.447 87.6117C230.948 88.3302 231.275 89.114 231.449 90.0067C231.623 90.8994 231.601 91.7704 231.405 92.5977C231.209 93.4469 230.818 94.2307 230.23 94.971C229.685 95.7331 228.901 96.2992 227.9 96.6911Z" fill="black"/>
<path d="M239.808 88.7874H233.211V85.1948H249.998V88.7874H243.379V105.488H239.786V88.7874H239.808Z" fill="black"/>
</g>
</g>
<defs>
<filter id="filter0_d_12355_39090" x="0" y="0" width="320" height="200" filterUnits="userSpaceOnUse" color-interpolation-filters="sRGB">
<feFlood flood-opacity="0" result="BackgroundImageFix"/>
<feColorMatrix in="SourceAlpha" type="matrix" values="0 0 0 0 0 0 0 0 0 0 0 0 0 0 0 0 0 0 127 0" result="hardAlpha"/>
<feOffset dy="5"/>
<feGaussianBlur stdDeviation="5"/>
<feComposite in2="hardAlpha" operator="out"/>
<feColorMatrix type="matrix" values="0 0 0 0 0.254902 0 0 0 0 0.254902 0 0 0 0 0.254902 0 0 0 0.12 0"/>
<feBlend mode="normal" in2="BackgroundImageFix" result="effect1_dropShadow_12355_39090"/>
<feBlend mode="normal" in="SourceGraphic" in2="effect1_dropShadow_12355_39090" result="shape"/>
</filter>
<clipPath id="clip0_12355_39090">
<rect width="180" height="20.8361" fill="white" transform="translate(70 85)"/>
</clipPath>
</defs>
</svg>
