<svg width="320" height="200" viewBox="0 0 320 200" fill="none" xmlns="http://www.w3.org/2000/svg">
<g filter="url(#filter0_d_12355_39109)">
<rect x="10" y="5" width="300" height="180" rx="16" fill="white" shape-rendering="crispEdges"/>
<path d="M122.002 80.0216C122.888 80.0216 123.731 80.1945 124.531 80.5404C125.331 80.8863 126.023 81.3618 126.628 81.9455C127.233 82.5291 127.709 83.2425 128.055 84.0423C128.4 84.8421 128.595 85.6851 128.595 86.5714V103.259C128.595 104.167 128.422 105.032 128.076 105.853C127.73 106.675 127.255 107.366 126.671 107.972C126.066 108.577 125.374 109.053 124.574 109.398C123.775 109.766 122.91 109.939 122.002 109.939H119.516C119.278 109.939 119.105 109.874 118.976 109.723C118.846 109.571 118.781 109.398 118.781 109.204V109.117C118.781 108.923 118.846 108.75 118.976 108.599C119.105 108.447 119.278 108.382 119.516 108.382H122.002C122.715 108.382 123.385 108.253 123.991 107.972C124.596 107.691 125.136 107.345 125.612 106.891C126.087 106.437 126.455 105.897 126.714 105.27C126.995 104.643 127.125 103.973 127.125 103.259V86.5714C127.125 85.8581 126.995 85.1879 126.714 84.5827C126.433 83.9774 126.066 83.437 125.612 82.9831C125.136 82.5291 124.596 82.1616 123.991 81.9022C123.385 81.6212 122.715 81.4915 122.002 81.4915L119.516 81.4483H119.386H117.592C117.117 81.4483 116.684 81.6212 116.317 81.9887C115.949 82.3562 115.755 82.7885 115.755 83.2857V109.139C115.755 109.334 115.69 109.507 115.56 109.658C115.431 109.809 115.258 109.874 115.063 109.874C114.825 109.874 114.652 109.809 114.523 109.658C114.393 109.507 114.328 109.334 114.328 109.139V83.2641C114.328 82.3562 114.652 81.578 115.279 80.9511C115.906 80.3242 116.684 80 117.592 80H119.43H119.516H122.002V80.0216Z" fill="#0D1A46"/>
<path d="M132.788 81.0591C132.723 80.8213 132.744 80.6051 132.831 80.3673C132.917 80.1296 133.09 80.0215 133.35 80.0215C133.458 80.0215 133.631 80.0647 133.825 80.1296C134.02 80.1944 134.15 80.4106 134.214 80.7565L139.143 106.134L144.072 80.8429C144.158 80.4538 144.288 80.216 144.482 80.1296C144.677 80.0647 144.828 80.0215 144.979 80.0215C145.239 80.0431 145.412 80.1512 145.498 80.3457C145.585 80.5403 145.563 80.8645 145.455 81.3617L140.072 109.139C139.986 109.55 139.835 109.766 139.64 109.852C139.446 109.917 139.273 109.96 139.165 109.96C139.078 109.96 138.927 109.917 138.711 109.852C138.494 109.787 138.365 109.55 138.3 109.139L132.788 81.0591Z" fill="#0D1A46"/>
<path d="M156.093 80.0215C157.001 80.0215 157.866 80.1944 158.665 80.5403C159.465 80.8861 160.157 81.3617 160.762 81.9454C161.367 82.529 161.843 83.2423 162.167 84.0421C162.513 84.842 162.686 85.7066 162.686 86.6145V103.302C162.686 104.21 162.513 105.075 162.167 105.875C161.821 106.675 161.346 107.366 160.762 107.972C160.179 108.577 159.465 109.052 158.665 109.398C157.866 109.766 157.001 109.939 156.093 109.939C155.185 109.939 154.32 109.766 153.521 109.398C152.721 109.052 152.029 108.555 151.424 107.972C150.819 107.388 150.343 106.675 150.019 105.875C149.673 105.075 149.5 104.21 149.5 103.302V86.6145C149.5 85.7066 149.673 84.842 150.019 84.0421C150.365 83.2423 150.84 82.5506 151.424 81.9454C152.008 81.3401 152.721 80.8861 153.521 80.5403C154.32 80.1944 155.164 80.0215 156.093 80.0215ZM161.216 86.6145C161.216 85.9012 161.086 85.2311 160.805 84.6258C160.524 84.0205 160.157 83.4801 159.703 83.0046C159.227 82.529 158.687 82.1615 158.082 81.9021C157.476 81.6211 156.806 81.4914 156.093 81.4914C155.38 81.4914 154.71 81.6211 154.104 81.9021C153.499 82.1831 152.959 82.5506 152.483 83.0046C152.008 83.4801 151.64 84.0205 151.381 84.6258C151.1 85.2311 150.97 85.9012 150.97 86.6145V103.302C150.97 104.016 151.1 104.686 151.381 105.313C151.662 105.94 152.029 106.48 152.483 106.956C152.959 107.431 153.499 107.799 154.104 108.058C154.71 108.339 155.38 108.469 156.093 108.469C156.806 108.469 157.476 108.339 158.082 108.058C158.687 107.777 159.227 107.41 159.703 106.956C160.179 106.48 160.546 105.94 160.805 105.313C161.086 104.686 161.216 104.016 161.216 103.302V86.6145Z" fill="#0D1A46"/>
<path d="M177.944 108.447C178.138 108.447 178.311 108.512 178.462 108.642C178.614 108.772 178.679 108.944 178.679 109.182C178.679 109.377 178.614 109.55 178.462 109.701C178.311 109.852 178.138 109.917 177.944 109.917H174.809V109.96C173.858 109.96 172.993 109.788 172.172 109.463C171.351 109.139 170.637 108.685 170.01 108.101C169.383 107.518 168.886 106.826 168.54 106.005C168.173 105.183 168 104.319 168 103.367V86.6363C168 85.75 168.173 84.9069 168.497 84.1287C168.821 83.3506 169.275 82.6588 169.837 82.0536C170.399 81.4483 171.07 80.9727 171.826 80.6053C172.583 80.2378 173.404 80.0432 174.29 80H174.377H174.593H174.809H177.944C178.138 80 178.311 80.0648 178.462 80.2162C178.614 80.3675 178.679 80.5404 178.679 80.735C178.679 80.9727 178.614 81.1457 178.462 81.2754C178.311 81.4051 178.138 81.4699 177.944 81.4699H174.809V81.5132C174.744 81.5132 174.723 81.5131 174.701 81.4915C174.679 81.4699 174.658 81.4699 174.593 81.4699C173.88 81.4699 173.21 81.5996 172.604 81.8806C171.999 82.1616 171.459 82.5291 170.983 82.9831C170.508 83.4586 170.14 83.999 169.881 84.6259C169.6 85.2528 169.47 85.9229 169.47 86.6363V103.367C169.47 104.059 169.6 104.686 169.859 105.291C170.118 105.897 170.464 106.415 170.897 106.869C171.329 107.323 171.826 107.691 172.41 107.972C172.993 108.253 173.62 108.404 174.312 108.447H177.944Z" fill="#0D1A46"/>
<path d="M196.903 108.707C197.012 109.182 197.033 109.507 196.925 109.636C196.817 109.766 196.666 109.852 196.428 109.874C196.233 109.874 196.039 109.809 195.866 109.701C195.693 109.593 195.563 109.29 195.477 108.793L194.612 104.556L190.764 84.2368L187.349 102.179L187.133 103.13L186.03 108.944C185.966 109.355 185.836 109.615 185.641 109.766C185.447 109.917 185.274 109.96 185.122 109.896C184.971 109.896 184.841 109.809 184.69 109.658C184.539 109.507 184.496 109.247 184.56 108.858L189.986 80.5188C190.051 80.2594 190.137 80.1081 190.246 80.0648C190.354 80.0216 190.462 80 190.548 80H190.937C191.024 80 191.132 80.0216 191.24 80.0432C191.348 80.0648 191.434 80.2378 191.499 80.5188L196.903 108.707Z" fill="#0D1A46"/>
<path d="M213.891 101.508C214.129 102.373 214.193 103.216 214.107 104.038C214.02 104.859 213.826 105.637 213.523 106.329C213.221 107.021 212.81 107.648 212.291 108.188C211.772 108.728 211.167 109.161 210.475 109.463C210.324 109.528 210.151 109.593 209.957 109.68C209.762 109.766 209.589 109.809 209.438 109.809C209.2 109.809 209.005 109.723 208.832 109.571C208.66 109.42 208.573 109.226 208.573 108.988C208.573 108.599 208.768 108.318 209.135 108.166C209.286 108.102 209.416 108.058 209.524 108.015C209.632 107.972 209.762 107.929 209.913 107.864C210.735 107.41 211.383 106.74 211.859 105.853C212.334 104.967 212.529 104.059 212.486 103.108C212.399 101.919 212.097 100.882 211.556 100.017C211.037 99.1523 210.389 98.3957 209.654 97.7256C208.919 97.0555 208.097 96.4286 207.211 95.8666C206.325 95.3045 205.482 94.6777 204.66 94.0292C203.839 93.3807 203.104 92.6241 202.456 91.8027C201.807 90.9812 201.332 89.9869 201.051 88.798C200.813 87.9333 200.748 87.0903 200.813 86.2688C200.878 85.4474 201.072 84.6692 201.396 83.9775C201.721 83.2858 202.131 82.6589 202.65 82.1185C203.169 81.5781 203.774 81.1457 204.466 80.8431C205.46 80.3892 206.455 80.1514 207.427 80.1514C208.854 80.1514 210.108 80.5621 211.167 81.4051C212.248 82.2482 213.004 83.3506 213.502 84.7125C213.588 84.9502 213.61 85.1232 213.566 85.2529C213.523 85.3826 213.458 85.469 213.372 85.5339C213.285 85.5987 213.199 85.6203 213.113 85.642C213.026 85.6636 212.961 85.6636 212.94 85.6636C212.788 85.6636 212.615 85.6203 212.378 85.5555C212.14 85.4906 211.967 85.2529 211.816 84.8854C211.448 83.9775 210.864 83.2209 210.108 82.6373C209.33 82.0536 208.443 81.751 207.449 81.751C206.671 81.751 205.871 81.9672 205.006 82.3995C204.185 82.8534 203.515 83.5235 203.039 84.4098C202.564 85.2961 202.348 86.204 202.434 87.1551C202.542 88.344 202.866 89.36 203.385 90.203C203.904 91.0245 204.509 91.7811 205.244 92.4295C205.979 93.078 206.779 93.6833 207.644 94.2453C208.508 94.8074 209.351 95.4126 210.173 96.0611C210.994 96.7096 211.729 97.4662 212.399 98.3308C213.091 99.2387 213.588 100.276 213.891 101.508Z" fill="#0D1A46"/>
<path d="M229.998 80.7997C229.998 80.951 229.954 81.1023 229.846 81.2969C229.738 81.4914 229.5 81.5563 229.09 81.5346H219.297C219.103 81.5346 218.93 81.4698 218.779 81.3185C218.627 81.1672 218.562 80.9942 218.562 80.7565C218.562 80.5619 218.627 80.389 218.779 80.2376C218.93 80.0863 219.103 80.0215 219.297 80.0215H229.133C229.522 80.0215 229.781 80.108 229.868 80.2809C229.954 80.4538 229.998 80.6267 229.998 80.7997ZM229.133 94.0506C229.522 94.0506 229.781 94.1587 229.868 94.3748C229.954 94.591 229.998 94.7423 229.998 94.8288C229.998 94.9152 229.954 95.0666 229.89 95.2827C229.825 95.4989 229.565 95.607 229.133 95.607H219.297C219.103 95.607 218.93 95.5421 218.779 95.3908C218.627 95.2395 218.562 95.0666 218.562 94.8288C218.562 94.591 218.627 94.4181 218.779 94.2668C218.93 94.1154 219.103 94.0506 219.297 94.0506H229.133ZM229.998 109.161C229.998 109.009 229.933 108.836 229.825 108.642C229.717 108.447 229.436 108.361 229.003 108.382H219.297C219.103 108.382 218.93 108.447 218.779 108.598C218.627 108.75 218.562 108.923 218.562 109.161C218.562 109.398 218.627 109.571 218.779 109.723C218.93 109.874 219.103 109.939 219.297 109.939H229.003C229.479 109.939 229.781 109.852 229.868 109.658C229.954 109.485 229.998 109.312 229.998 109.161Z" fill="#0D1A46"/>
<path d="M107.617 96.6663C108.05 96.5582 108.46 96.2988 108.893 95.8017C107.596 96.4934 106.083 95.953 104.656 95.3477C104.224 95.1532 103.813 95.0451 103.467 94.9802L103.424 94.7641L100.743 80.7566C100.679 80.4756 100.592 80.3026 100.484 80.281C100.376 80.2594 100.268 80.2378 100.181 80.2378H99.7923C99.7058 80.2378 99.5977 80.2594 99.4896 80.3026C99.3816 80.3459 99.2951 80.4972 99.2302 80.7566L96.6146 94.3966C96.6146 94.3966 96.9389 94.2885 97.3928 94.2885C97.5009 94.2885 97.609 94.2885 97.6955 94.3101C97.9332 94.3317 98.1494 94.1588 98.1926 93.9427L99.9868 84.4962L101.889 94.5695C101.932 94.7857 101.803 95.0019 101.608 95.0667C101.046 95.2396 100.484 95.6071 99.9868 96.2988C97.3928 92.8402 93.8261 97.3148 91.1024 95.8665C91.5564 96.3853 91.9887 96.6447 92.4211 96.7528L90 104.664C90.3026 106.221 92.9615 106.61 94.4098 105.832L94.3665 106.091L93.7829 109.139C93.718 109.507 93.7613 109.766 93.9126 109.939C94.0639 110.09 94.1936 110.177 94.3449 110.177C94.4962 110.241 94.6692 110.198 94.8637 110.047C95.0583 109.896 95.188 109.636 95.2528 109.226L96.3552 103.411L96.5714 102.46L97.6522 96.7528C97.6955 96.4718 98.0197 96.3205 98.2575 96.4502C98.5385 96.5799 98.7979 96.7744 99.0357 97.0554C99.4032 97.4878 98.7763 98.2443 99.9436 98.7847H99.9652H99.9868C101.154 98.2443 100.527 97.4878 100.895 97.0554C101.846 95.9746 103.143 96.1691 104.288 96.3421C105.434 96.515 106.299 96.8176 107.055 96.8176L105.348 102.373C105.261 102.654 104.872 102.632 104.807 102.351L103.748 96.8393C103.748 96.8393 103.402 96.7528 102.97 96.7528C102.538 96.7528 102.278 96.8825 102.278 96.8825L103.791 104.902L104.656 109.139C104.742 109.615 104.872 109.917 105.045 110.047C105.218 110.155 105.391 110.22 105.607 110.22C105.845 110.198 105.996 110.112 106.104 109.982C106.212 109.852 106.191 109.55 106.083 109.053L105.521 106.07L105.477 105.788C106.904 106.653 109.714 106.307 110.017 104.686L107.617 96.6663ZM94.6043 104.902C94.1504 105.032 93.437 105.097 92.7021 105.097C91.5348 105.097 90.3459 104.924 90.3675 104.578L92.7021 96.9473L94.8205 103.821L95.0583 104.578C95.0583 104.708 94.8853 104.816 94.6043 104.902ZM96.1823 96.7744L95.1663 102.07C95.1015 102.351 94.7124 102.373 94.6259 102.092L92.9831 96.7528C93.437 96.7528 93.9342 96.6447 94.5178 96.515C94.5178 96.515 95.0366 96.3853 95.6851 96.2772C95.9878 96.2124 96.2255 96.4718 96.1823 96.7744ZM109.628 104.729C109.606 104.751 109.585 104.773 109.563 104.773C109.541 104.773 109.541 104.794 109.52 104.794C109.498 104.816 109.455 104.816 109.412 104.837C109.304 104.881 109.195 104.902 109.044 104.945C108.439 105.075 107.509 105.118 106.71 105.075C106.666 105.075 106.645 105.075 106.601 105.075C106.493 105.075 106.385 105.054 106.299 105.054C106.169 105.032 106.039 105.032 105.931 105.01C105.867 105.01 105.823 104.989 105.758 104.989C105.607 104.967 105.456 104.924 105.348 104.881H105.326C105.283 104.859 105.261 104.859 105.24 104.837C105.218 104.837 105.196 104.816 105.196 104.816C105.175 104.816 105.175 104.794 105.153 104.794C105.132 104.794 105.132 104.773 105.11 104.773L105.088 104.751L105.067 104.729C105.067 104.729 105.067 104.708 105.045 104.708V104.686C105.045 104.664 105.045 104.643 105.045 104.643L105.218 104.102L107.401 97.0122L109.736 104.643C109.714 104.643 109.693 104.686 109.628 104.729Z" fill="url(#paint0_linear_12355_39109)"/>
</g>
<defs>
<filter id="filter0_d_12355_39109" x="0" y="0" width="320" height="200" filterUnits="userSpaceOnUse" color-interpolation-filters="sRGB">
<feFlood flood-opacity="0" result="BackgroundImageFix"/>
<feColorMatrix in="SourceAlpha" type="matrix" values="0 0 0 0 0 0 0 0 0 0 0 0 0 0 0 0 0 0 127 0" result="hardAlpha"/>
<feOffset dy="5"/>
<feGaussianBlur stdDeviation="5"/>
<feComposite in2="hardAlpha" operator="out"/>
<feColorMatrix type="matrix" values="0 0 0 0 0.254902 0 0 0 0 0.254902 0 0 0 0 0.254902 0 0 0 0.12 0"/>
<feBlend mode="normal" in2="BackgroundImageFix" result="effect1_dropShadow_12355_39109"/>
<feBlend mode="normal" in="SourceGraphic" in2="effect1_dropShadow_12355_39109" result="shape"/>
</filter>
<linearGradient id="paint0_linear_12355_39109" x1="90.0324" y1="95.1874" x2="110.049" y2="95.1874" gradientUnits="userSpaceOnUse">
<stop stop-color="#0575E6"/>
<stop offset="1" stop-color="#021B79"/>
</linearGradient>
</defs>
</svg>
