<svg width="320" height="200" viewBox="0 0 320 200" fill="none" xmlns="http://www.w3.org/2000/svg">
<g filter="url(#filter0_d_12355_39050)">
<rect x="10" y="5" width="300" height="180" rx="16" fill="white" shape-rendering="crispEdges"/>
<g clip-path="url(#clip0_12355_39050)">
<path d="M125.006 89.1091C123.185 89.1091 121.773 89.7507 120.674 91.0299C119.575 92.3112 119.026 94.0167 119.026 96.1466V105.991H113.953V95.9748C113.953 92.4643 114.98 89.6141 117.031 87.4263C119.084 85.2384 121.86 84.1455 125.039 84.1455L125.006 89.1111V89.1091Z" fill="black"/>
<path d="M147.312 112.583C147.312 112.583 148.556 111.944 149.44 110.18C150.074 108.92 149.929 106.606 149.929 105.506V84.1392H154.826V105.463C154.826 108.249 155.066 112.196 152.233 115.028C151.81 115.45 150.802 116.11 150.802 116.11L147.312 112.581V112.583Z" fill="black"/>
<path d="M138.153 105.778C138.153 105.778 137.876 105.833 137.752 105.852L135.965 106.022C132.931 106.022 130.364 104.991 128.265 102.929C126.167 100.868 125.117 98.3011 125.117 95.2294C125.117 92.1578 126.194 89.4566 128.35 87.2956C130.505 85.1347 133.142 84.0542 136.261 84.0542C139.381 84.0542 141.947 85.1347 143.959 87.2956C145.973 89.4566 146.979 92.2737 146.979 95.7428V106.055H142.003V95.9146C142.003 93.8095 141.465 92.1246 140.387 90.8599C139.308 89.5952 137.878 88.9619 136.09 88.9619C134.473 88.9619 133.084 89.5559 131.921 90.7482C130.758 91.9383 130.178 93.3417 130.178 94.9562C130.178 96.6846 130.795 98.1459 132.028 99.3361C133.262 100.526 134.786 101.12 136.601 101.12C137.224 101.12 138.174 100.977 138.174 100.977L138.151 105.782L138.153 105.778Z" fill="black"/>
<path d="M170.169 105.778C170.169 105.778 169.892 105.833 169.767 105.852L167.981 106.022C164.947 106.022 162.38 104.991 160.281 102.929C158.182 100.868 157.133 98.3011 157.133 95.2294C157.133 92.1578 158.209 89.4566 160.366 87.2956C162.521 85.1347 165.158 84.0542 168.277 84.0542C171.396 84.0542 173.963 85.1347 175.975 87.2956C177.989 89.4566 178.995 92.2737 178.995 95.7428V106.055H174.019V95.9146C174.019 93.8095 173.481 92.1246 172.402 90.8599C171.324 89.5952 169.894 88.9619 168.105 88.9619C166.489 88.9619 165.1 89.5559 163.936 90.7482C162.773 91.9383 162.194 93.3417 162.194 94.9562C162.194 96.6846 162.81 98.1459 164.044 99.3361C165.278 100.526 166.801 101.12 168.616 101.12C169.24 101.12 170.19 100.977 170.19 100.977L170.167 105.782L170.169 105.778Z" fill="black"/>
<path d="M181.539 79.5214L186.436 74.3467V106.032H181.539V79.5214Z" fill="black"/>
<path d="M199.315 84.1456C202.31 84.1456 204.852 85.1951 206.942 87.296C209.033 89.3969 210.078 91.978 210.078 95.0435C210.078 98.109 209.033 100.74 206.942 102.853C204.852 104.969 202.281 106.024 199.23 106.024C196.179 106.024 193.769 104.954 191.664 102.81C189.559 100.667 188.508 98.0779 188.508 95.0414C188.508 92.0049 189.553 89.3948 191.644 87.2939C193.734 85.1951 196.291 84.1436 199.315 84.1436V84.1456ZM193.55 95.1698C193.55 96.7863 194.121 98.2063 195.266 99.4254C196.411 100.647 197.76 101.255 199.313 101.255C200.865 101.255 202.138 100.645 203.297 99.4254C204.454 98.2063 205.034 96.7594 205.034 95.0849C205.034 93.4104 204.469 92.007 203.338 90.7858C202.208 89.5666 200.865 88.956 199.313 88.956C197.76 88.956 196.373 89.5666 195.243 90.7858C194.113 92.007 193.548 93.4683 193.548 95.1698H193.55Z" fill="black"/>
<path d="M211.938 79.1757L216.793 74.001L216.835 89.4505H217.683C219.522 89.4505 220.915 88.9765 222.316 87.8919C223.717 86.8094 224.315 85.4681 224.485 84.0026L224.613 82.8849H228.975C228.975 82.8849 229.353 86.3747 227.847 88.5211C226.963 89.7817 226.336 90.7462 224.814 91.4769L225.828 92.0254C226.054 92.1372 226.503 92.4829 227.18 93.0604C227.855 93.6379 228.488 94.5445 229.08 95.7843C229.672 97.0242 229.966 98.3034 229.966 99.626V105.48H225.108L225.025 99.7523C225.025 97.9784 224.328 96.5357 222.935 95.4242C221.542 94.3126 219.749 93.7558 217.559 93.7558H216.835V105.48H211.938V79.1757Z" fill="black"/>
<path d="M101.362 84.4849H90.0234V114.999L97.032 115.015C97.032 115.015 97.0258 105.415 97.0258 104.637C97.0258 103.579 97.0175 99.537 97.0175 99.479C97.0196 99.4211 97.03 99.4066 96.9761 99.3631C96.9244 99.3196 96.5456 98.9616 96.3159 98.738C96.0861 98.5145 95.906 98.3178 95.8501 98.2143C95.7922 98.1108 95.7756 98.0591 95.697 97.8231C95.6204 97.5851 95.5045 97.2249 95.4092 96.8192C95.314 96.4156 95.2333 96.0679 95.2437 95.745C95.254 95.42 95.2581 95.391 95.2726 95.3227C95.2851 95.2544 95.3223 95.3165 95.3678 95.3517C95.4134 95.3869 96.6698 96.4384 96.7981 96.5439C96.9265 96.6495 96.9927 96.6992 97.032 96.6599C97.0714 96.6205 97.7337 96.1238 97.9531 95.9913C98.1746 95.8588 98.3319 95.7408 98.4354 95.7305C98.5368 95.7201 99.3668 95.5897 99.7953 95.5401C100.226 95.4924 100.269 95.4904 100.333 95.4821C100.396 95.4759 100.373 95.48 100.304 95.5256C100.238 95.5711 99.7643 95.8609 99.2882 96.3846C98.8121 96.9062 98.4375 97.3201 98.2429 97.9535C98.0463 98.5848 98.0794 98.7898 98.0773 98.9553C98.0752 99.1209 98.0752 99.1416 98.1187 99.1603C98.1622 99.1768 98.0007 98.5724 99.3296 96.9207C99.8657 96.2562 100.193 96.0348 100.594 95.745C100.996 95.4531 101.267 95.2751 101.474 95.2068C101.681 95.1385 102.089 95.0205 102.451 94.975C102.813 94.9274 103.055 94.8901 102.809 94.857C102.561 94.8259 102.347 94.8073 102.285 94.7846C102.223 94.7639 102.138 94.6935 102.078 94.6107C102.02 94.5279 102.025 94.4327 102.051 94.3499C102.078 94.2671 102.269 93.8055 102.3 93.7103C102.331 93.613 102.318 93.5964 102.229 93.6813C102.143 93.7662 101.758 94.1325 101.584 94.2174C101.41 94.3043 101.333 94.3623 100.938 94.2774C100.543 94.1905 100.249 94.0767 100.002 93.9566C99.7581 93.8366 99.6794 93.8221 99.6587 93.6958C99.638 93.5675 99.58 93.2632 99.5759 92.9113C99.578 92.8058 99.5987 92.7664 99.6856 92.7354C99.7725 92.7064 102.656 91.8515 102.809 91.806C102.962 91.7605 103.134 91.7398 103.275 91.7915C103.418 91.8433 103.583 91.9054 103.633 92.0813C103.685 92.2593 104.254 93.9649 104.444 94.6107C104.637 95.2565 104.703 95.5007 104.734 95.5835C104.763 95.6684 104.802 95.7657 104.72 95.8609C104.637 95.9561 102.027 98.707 101.9 98.8249C101.774 98.9429 101.755 98.9512 101.776 99.1023C101.799 99.2513 102.089 102.356 102.107 102.472C102.126 102.59 102.232 103.058 102.258 103.265C102.511 105.13 103.349 106.047 103.536 106.047C103.761 106.047 111.366 105.235 111.401 95.4738C111.436 85.2279 103.086 84.4849 101.362 84.4849ZM97.8289 95.716C97.7896 95.7884 97.3549 96.1672 97.1686 96.2376C96.9844 96.31 96.9844 96.3225 96.854 96.2231C96.7215 96.1258 96.2724 95.7408 95.8212 95.3227C95.372 94.9046 94.9994 94.5217 94.9145 94.4223C94.8276 94.3209 94.7862 94.1843 94.8587 94.058C94.9311 93.9338 95.2043 93.5281 95.5748 93.2446C95.6928 93.1597 95.9371 92.992 96.055 93.1287C96.1751 93.2653 97.4212 95.0102 97.7875 95.5401C97.8455 95.6291 97.8703 95.6415 97.8289 95.716ZM99.756 95.1054C99.8098 95.1965 99.7767 95.1654 99.6028 95.2068C99.431 95.2482 98.334 95.4304 98.2015 95.4386C98.067 95.449 98.0918 95.4428 98.0214 95.3662C97.9097 95.2523 97.7689 95.0826 97.5536 94.7846C97.3404 94.4865 97.0196 94.0477 96.7981 93.7393C96.5767 93.4309 96.2952 92.9299 96.2475 92.8078C96.202 92.6878 96.2186 92.6733 96.2765 92.5615C96.3883 92.3628 96.6822 92.0792 96.9223 91.9219C97.1624 91.7646 97.3508 91.6922 97.5143 91.6321C97.6758 91.5721 97.7337 91.6156 97.7875 91.6901C97.8434 91.7625 98.4209 92.7271 98.7521 93.288C99.0812 93.849 99.7001 95.0143 99.756 95.1054ZM100.429 92.2283C100.3 92.2634 99.5014 92.5201 99.3979 92.5615C99.2923 92.605 99.2592 92.634 99.2468 92.7644C99.2344 92.8968 99.2675 93.3108 99.2737 93.4329C99.2903 93.5675 99.2861 93.5261 99.2178 93.4184C99.1516 93.3129 98.8887 92.903 98.5451 92.3587C98.2015 91.8143 98.1001 91.6321 98.0504 91.5162C97.9987 91.4003 97.9759 91.4293 98.2429 91.1954C98.5078 90.9615 98.7935 90.827 99.1081 90.7007C99.4248 90.5765 99.5449 90.5434 99.6856 90.5413C99.8264 90.5392 99.8367 90.5662 99.8781 90.6427C99.9216 90.7214 100.441 91.9012 100.511 92.0523C100.582 92.2055 100.557 92.191 100.429 92.2283ZM102.697 91.5742C102.608 91.599 101.089 92.0275 101.006 92.0523C100.923 92.0792 100.903 92.0958 100.855 91.9944C100.797 91.8536 100.315 90.916 100.222 90.7007C100.131 90.4854 100.077 90.3944 100.182 90.3385C100.286 90.2826 100.727 90.1087 100.994 90.0321C101.259 89.9576 101.712 89.8086 101.818 89.7713C101.923 89.7341 101.989 89.7196 102.025 89.8003C102.06 89.881 102.706 91.3341 102.739 91.4272C102.772 91.5224 102.786 91.5493 102.697 91.5742Z" fill="#03947E"/>
<path d="M101.362 84.4849H90.0234V114.999L97.032 115.015C97.032 115.015 97.0258 105.415 97.0258 104.637C97.0258 103.579 97.0175 99.537 97.0175 99.479C97.0196 99.4211 97.03 99.4066 96.9761 99.3631C96.9244 99.3196 96.5456 98.9616 96.3159 98.738C96.0861 98.5145 95.906 98.3178 95.8501 98.2143C95.7922 98.1108 95.7756 98.0591 95.697 97.8231C95.6204 97.5851 95.5045 97.2249 95.4092 96.8192C95.314 96.4156 95.2333 96.0679 95.2437 95.745C95.2499 95.5525 95.254 95.4635 95.2602 95.4097C95.2602 95.3952 95.2602 95.3848 95.2602 95.3724C95.2664 95.2503 95.2706 95.2213 95.2809 95.1716C95.2933 95.1012 95.3327 95.1654 95.3803 95.2027C95.4258 95.2399 96.7257 96.3266 96.8582 96.4342C96.9906 96.5439 97.0589 96.5957 97.1003 96.5543C97.1417 96.515 97.8248 96.0016 98.0525 95.863C98.2822 95.7263 98.4437 95.6042 98.5513 95.5939C98.6569 95.5835 99.5138 95.449 99.9568 95.3972C100.402 95.3476 100.447 95.3455 100.514 95.3372C100.578 95.331 100.555 95.3372 100.483 95.3827C100.464 95.3952 100.412 95.4283 100.336 95.4821C100.394 95.4759 100.369 95.48 100.302 95.5256C100.269 95.5483 100.141 95.6291 99.963 95.7636C99.9588 95.7677 99.9526 95.774 99.9464 95.776C99.7891 95.9106 99.6111 96.0741 99.4331 96.2707C98.9405 96.8089 98.5534 97.2374 98.3526 97.8914C98.1808 98.4482 98.1787 98.6842 98.1808 98.8477C98.274 98.5165 98.5368 97.9039 99.3275 96.9207C99.8471 96.2749 100.17 96.0492 100.555 95.7719C100.629 95.7181 100.706 95.6642 100.783 95.6084C101.199 95.3082 101.478 95.124 101.693 95.0536C101.884 94.9895 102.244 94.886 102.585 94.8301C102.439 94.8135 102.325 94.8011 102.283 94.7846C102.221 94.7639 102.136 94.6935 102.076 94.6107C102.018 94.5279 102.022 94.4327 102.049 94.3499C102.076 94.2671 102.267 93.8055 102.298 93.7103C102.31 93.6689 102.316 93.642 102.31 93.6316C102.304 93.6171 102.277 93.6337 102.227 93.6813C102.188 93.7206 102.087 93.8159 101.973 93.9193C101.969 93.9214 101.967 93.9235 101.965 93.9256C101.828 94.0456 101.675 94.1719 101.582 94.2174C101.408 94.3043 101.331 94.3623 100.936 94.2774C100.54 94.1905 100.247 94.0767 100 93.9566C99.756 93.8366 99.6773 93.8221 99.6566 93.6958C99.6359 93.5675 99.578 93.2632 99.5738 92.9113C99.5759 92.8058 99.5966 92.7664 99.6835 92.7354C99.6897 92.7354 99.7063 92.7292 99.7332 92.7209C99.7311 92.7085 99.7311 92.694 99.7311 92.6795C99.7332 92.5698 99.7539 92.5305 99.8429 92.4973C99.934 92.4684 102.915 91.5845 103.072 91.5369C103.231 91.4893 103.409 91.4686 103.554 91.5224C103.701 91.5762 103.873 91.6404 103.925 91.8205C103.979 92.0047 104.566 93.7682 104.763 94.4368C104.962 95.1033 105.03 95.3558 105.063 95.4428C105.092 95.5297 105.134 95.6311 105.049 95.7284C104.962 95.8278 102.265 98.6718 102.134 98.7939C102.004 98.916 101.983 98.9243 102.006 99.0795C102.029 99.2348 102.329 102.443 102.347 102.563C102.366 102.685 102.476 103.17 102.505 103.383C102.695 104.784 103.204 105.668 103.54 106.047C103.875 106.034 111.364 105.161 111.399 95.4738C111.434 85.2279 103.084 84.4849 101.36 84.4849H101.362ZM97.9262 95.5794C97.9179 95.5959 97.889 95.627 97.8476 95.6663C97.8476 95.6808 97.8413 95.6953 97.8289 95.716C97.7896 95.7884 97.3549 96.1672 97.1686 96.2376C96.9844 96.31 96.9844 96.3225 96.854 96.2231C96.7215 96.1258 96.2724 95.7408 95.8212 95.3227C95.372 94.9046 94.9994 94.5217 94.9145 94.4223C94.84 94.3354 94.7986 94.2195 94.8359 94.1098C94.8069 94.0311 94.809 93.9463 94.8545 93.8655C94.9311 93.7372 95.2126 93.317 95.5955 93.0231C95.7177 92.9362 95.9702 92.7623 96.0923 92.9051C96.2165 93.0459 97.504 94.8487 97.8827 95.3972C97.9428 95.4883 97.9697 95.5028 97.9262 95.5794ZM99.9195 94.9481C99.9733 95.0412 99.9402 95.0102 99.7601 95.0536C99.7518 95.0557 99.7415 95.0578 99.7291 95.0598C99.7415 95.0826 99.7518 95.0971 99.756 95.1054C99.8098 95.1965 99.7767 95.1654 99.6028 95.2068C99.431 95.2482 98.334 95.4304 98.2015 95.4386C98.067 95.449 98.0918 95.4428 98.0214 95.3662C97.9097 95.2523 97.7689 95.0826 97.5536 94.7846C97.3404 94.4865 97.0196 94.0477 96.7981 93.7393C96.5767 93.4309 96.2952 92.9299 96.2475 92.8078C96.202 92.6878 96.2186 92.6733 96.2765 92.5615C96.2786 92.5574 96.2807 92.5553 96.2827 92.5512C96.2455 92.4456 96.2662 92.427 96.3221 92.3173C96.4359 92.1123 96.7402 91.8184 96.9886 91.657C97.2369 91.4935 97.4315 91.4189 97.6012 91.3568C97.7668 91.2947 97.8269 91.3403 97.8827 91.4169C97.9407 91.4914 98.5389 92.4891 98.8804 93.0686C99.2199 93.6482 99.8615 94.8529 99.9195 94.9481ZM100.615 91.9737C100.592 91.9799 100.549 91.9923 100.491 92.0089C100.499 92.0275 100.507 92.042 100.511 92.0523C100.582 92.2055 100.557 92.191 100.429 92.2283C100.3 92.2634 99.5014 92.5201 99.3979 92.5615C99.3958 92.5615 99.3938 92.5636 99.3917 92.5656C99.2903 92.607 99.2592 92.636 99.2468 92.7644C99.2427 92.8182 99.2468 92.9175 99.2509 93.0272C99.2571 93.1845 99.2696 93.3605 99.2737 93.4329C99.2903 93.5675 99.2861 93.5261 99.2178 93.4184C99.1516 93.3129 98.8887 92.903 98.5451 92.3587C98.2015 91.8143 98.1001 91.6321 98.0504 91.5162C98.0049 91.4127 97.9821 91.4251 98.1663 91.2616C98.1622 91.2533 98.1601 91.2451 98.156 91.2368C98.1022 91.1167 98.0773 91.1478 98.3547 90.9056C98.6279 90.6634 98.9239 90.5248 99.2489 90.3943C99.5759 90.266 99.7001 90.2308 99.845 90.2288C99.9919 90.2267 100.002 90.2557 100.046 90.3343C100.089 90.4151 100.627 91.6363 100.7 91.7915C100.772 91.9488 100.747 91.9343 100.615 91.9737ZM102.96 91.2968C102.939 91.303 102.846 91.3299 102.714 91.3672C102.726 91.3982 102.737 91.4189 102.739 91.4272C102.772 91.5224 102.786 91.5493 102.697 91.5742C102.608 91.599 101.089 92.0275 101.006 92.0523C100.923 92.0792 100.903 92.0958 100.855 91.9944C100.797 91.8536 100.315 90.916 100.222 90.7007C100.131 90.4854 100.077 90.3944 100.182 90.3385C100.213 90.3219 100.271 90.295 100.346 90.2639C100.29 90.1315 100.276 90.0652 100.358 90.0197C100.466 89.9617 100.921 89.7817 101.199 89.703C101.472 89.6264 101.94 89.4712 102.049 89.4339C102.159 89.3946 102.227 89.3801 102.265 89.4629C102.3 89.5457 102.968 91.0484 103.002 91.1457C103.037 91.243 103.051 91.272 102.96 91.2968Z" fill="url(#paint0_linear_12355_39050)"/>
<path d="M101.362 84.5886C102.078 84.5886 105.792 84.7252 108.485 87.4264C110.364 89.312 111.31 92.0194 111.298 95.4741C111.264 104.817 104.235 105.867 103.585 105.939C103.217 105.501 102.778 104.61 102.61 103.369C102.592 103.236 102.544 103.006 102.507 102.82C102.482 102.698 102.459 102.592 102.453 102.547C102.445 102.491 102.362 101.64 102.292 100.887C102.207 99.9905 102.124 99.146 102.114 99.0632C102.104 99.0011 102.129 98.9432 102.188 98.8893L102.211 98.8686C102.318 98.7672 104.995 95.9522 105.134 95.7949C105.254 95.6583 105.202 95.5113 105.173 95.4223L105.167 95.4037C105.148 95.3561 105.117 95.2443 105.057 95.0414C105.013 94.8903 104.951 94.6834 104.871 94.406C104.742 93.9713 104.455 93.0916 104.246 92.4479C104.136 92.1146 104.051 91.8518 104.032 91.7897C103.966 91.5579 103.753 91.4792 103.598 91.4233C103.529 91.3985 103.451 91.384 103.368 91.384C103.271 91.384 103.163 91.4005 103.051 91.4357C103.033 91.4419 102.968 91.4606 102.873 91.4895C102.871 91.4709 102.865 91.4523 102.859 91.4337C102.933 91.413 102.983 91.3985 102.995 91.3943C103.041 91.3819 103.095 91.3612 103.124 91.3053C103.155 91.2432 103.134 91.1832 103.109 91.119L103.105 91.1108C103.082 91.0425 102.799 90.4029 102.513 89.7529C102.434 89.5728 102.376 89.4424 102.366 89.4176C102.331 89.3389 102.267 89.2955 102.184 89.2955C102.134 89.2955 102.085 89.31 102.022 89.3327C101.921 89.3679 101.449 89.5232 101.176 89.5998C100.896 89.6784 100.435 89.8606 100.315 89.9247C100.187 89.9951 100.191 90.1069 100.22 90.2042C100.187 90.2186 100.16 90.2331 100.139 90.2435C100.135 90.2456 100.129 90.2497 100.124 90.2518C100.071 90.1607 100.017 90.1214 99.8636 90.1214H99.8471C99.6773 90.1234 99.5345 90.169 99.2137 90.2952C98.8556 90.4381 98.5617 90.585 98.2905 90.8251L98.2491 90.8624C98.0442 91.0404 97.9842 91.0942 98.0442 91.2329C98.0049 91.2701 97.9738 91.3012 97.9511 91.3302C97.9076 91.2764 97.8413 91.2225 97.7358 91.2225C97.6861 91.2225 97.6323 91.235 97.5681 91.2577C97.3756 91.3281 97.1831 91.4047 96.9347 91.5682C96.6926 91.7255 96.3655 92.0277 96.2331 92.2678L96.2165 92.2989C96.173 92.3837 96.1482 92.4375 96.173 92.5369C96.1213 92.6363 96.1027 92.6901 96.1378 92.8018C96.0923 92.7646 96.0343 92.7439 95.9702 92.7439C95.8253 92.7439 95.6701 92.8412 95.5334 92.9385C95.1733 93.2138 94.8814 93.6153 94.7655 93.8119C94.7138 93.9051 94.7014 94.0065 94.7283 94.11C94.6993 94.2363 94.7386 94.3729 94.8359 94.4867C94.9042 94.5654 95.1712 94.8448 95.5355 95.1925C95.4858 95.1512 95.4527 95.1242 95.4465 95.118C95.4382 95.1118 95.4299 95.1035 95.4217 95.0953C95.3927 95.0684 95.3575 95.0332 95.3037 95.0332C95.2871 95.0332 95.2023 95.0394 95.1816 95.147C95.1691 95.205 95.165 95.2402 95.1588 95.3685C95.1588 95.3768 95.1588 95.383 95.1588 95.3933C95.1526 95.4492 95.1484 95.532 95.1422 95.7369C95.1319 96.0785 95.2188 96.4469 95.3099 96.8381C95.4051 97.2479 95.5231 97.6102 95.5997 97.8503L95.6059 97.8689C95.6804 98.0904 95.699 98.1483 95.7591 98.258C95.8315 98.3926 96.0633 98.6306 96.2434 98.8065C96.467 99.0239 96.854 99.3903 96.9099 99.4379C96.9099 99.4379 96.914 99.4399 96.914 99.442C96.914 99.442 96.914 99.442 96.914 99.4441V99.473V99.8891C96.914 100.957 96.9223 103.774 96.9223 104.631C96.9223 105.362 96.9285 113.867 96.9285 114.906L90.1269 114.889V84.5886H101.362ZM100.76 92.036C100.76 92.036 100.76 92.036 100.76 92.0381C100.768 92.0567 100.781 92.0815 100.797 92.1043C100.747 92.1188 100.698 92.1333 100.652 92.1478C100.65 92.1229 100.644 92.1002 100.634 92.0753C100.638 92.0753 100.64 92.0753 100.644 92.0733L100.681 92.0629C100.708 92.0546 100.735 92.0484 100.76 92.036ZM99.638 92.5887C99.6339 92.6073 99.6318 92.6259 99.6318 92.6466C99.5035 92.7004 99.4745 92.7915 99.4724 92.9136C99.4765 93.2345 99.5242 93.5139 99.549 93.665L99.5573 93.7126C99.5842 93.872 99.6835 93.9196 99.8512 93.9982C99.8822 94.0127 99.9174 94.0293 99.9568 94.05C100.257 94.1969 100.563 94.3004 100.915 94.3791C101.054 94.4081 101.161 94.4226 101.248 94.4226C101.406 94.4226 101.495 94.377 101.598 94.3253L101.629 94.3108C101.714 94.2694 101.84 94.1742 102.029 94.0086H102.033L102.043 93.9962C102.062 93.9796 102.078 93.963 102.097 93.9486C102.089 93.9693 102.08 93.99 102.072 94.0107C102.016 94.1535 101.967 94.2756 101.952 94.3191C101.909 94.4515 101.923 94.5716 101.994 94.673C102.035 94.731 102.087 94.7827 102.136 94.82C101.95 94.8655 101.782 94.9173 101.662 94.9566C101.433 95.0311 101.145 95.2215 100.723 95.5258C100.679 95.5589 100.634 95.59 100.59 95.621L100.495 95.6893L100.466 95.71C100.089 95.9812 99.7622 96.2171 99.2468 96.8567C98.8556 97.3431 98.5886 97.7447 98.4085 98.0697C98.4209 98.0241 98.4354 97.9745 98.452 97.9227C98.6486 97.2831 99.0295 96.8671 99.5097 96.3413C99.6546 96.1819 99.816 96.0246 100.004 95.8632C100.015 95.857 100.023 95.8487 100.029 95.8425C100.168 95.7369 100.278 95.6666 100.329 95.6314L100.36 95.6107C100.377 95.5982 100.391 95.59 100.402 95.5838C100.416 95.5755 100.449 95.5527 100.466 95.5175C100.493 95.4989 100.511 95.4865 100.526 95.4782L100.54 95.4678C100.557 95.4575 100.569 95.4492 100.58 95.443C100.609 95.4264 100.675 95.385 100.652 95.3064L100.623 95.2298H100.545C100.545 95.2298 100.524 95.2298 100.501 95.2319C100.476 95.2339 100.456 95.236 100.416 95.2402C100.348 95.2464 100.226 95.2588 99.9464 95.2898C99.6711 95.323 99.2406 95.385 98.9239 95.4327C98.868 95.4409 98.8142 95.4492 98.7666 95.4554C99.1185 95.3975 99.5221 95.3292 99.6276 95.3023C99.6711 95.2919 99.7042 95.2857 99.7311 95.2816C99.787 95.2733 99.845 95.2629 99.874 95.2029C99.8864 95.176 99.8885 95.1512 99.8822 95.1284C99.8864 95.1284 99.8885 95.1284 99.8905 95.1284C99.9485 95.118 100.006 95.1098 100.035 95.0477C100.064 94.9856 100.033 94.9317 100.009 94.8883C99.9899 94.8593 99.9029 94.6958 99.7912 94.4909C99.6566 94.2404 99.4807 93.9196 99.313 93.6153H99.3296L99.3606 93.5801C99.3938 93.5408 99.3896 93.5097 99.3793 93.4207L99.3751 93.3462C99.3689 93.2593 99.3606 93.133 99.3565 93.015C99.3503 92.9053 99.3482 92.8122 99.3524 92.7687C99.3606 92.6859 99.3627 92.6859 99.4331 92.6549L99.4538 92.6466C99.489 92.6321 99.5552 92.6093 99.6401 92.5824M98.4747 95.501C98.3899 95.5279 98.2926 95.5879 98.1705 95.6666C98.1187 95.6997 98.0628 95.7328 98.0028 95.77C97.9469 95.8032 97.862 95.8611 97.7668 95.9294C97.8455 95.859 97.9034 95.797 97.92 95.7638C97.9283 95.7493 97.9386 95.7328 97.9448 95.7142C97.9966 95.6624 98.0131 95.6396 98.0194 95.6252C98.0401 95.5879 98.0504 95.5548 98.0525 95.5258C98.0732 95.5341 98.1001 95.5403 98.1332 95.5403C98.1518 95.5403 98.1767 95.5403 98.2098 95.5361C98.245 95.5341 98.3443 95.5196 98.4747 95.501ZM97.2328 96.3186C97.1562 96.3765 97.0941 96.4241 97.0589 96.451C97.0382 96.4386 97.0072 96.4158 96.9803 96.3931C96.9844 96.3931 96.9886 96.3931 96.9927 96.3931C97.0465 96.3931 97.0921 96.3744 97.1686 96.3434L97.2059 96.3289C97.2059 96.3289 97.2225 96.3227 97.2328 96.3186ZM101.364 84.481H90.0234V114.995L97.032 115.012C97.032 115.012 97.0258 105.412 97.0258 104.633C97.0258 103.576 97.0175 99.5331 97.0175 99.4751C97.0196 99.4172 97.03 99.4027 96.9761 99.3592C96.9244 99.3157 96.5456 98.9576 96.3159 98.7341C96.0861 98.5106 95.906 98.3139 95.8501 98.2104C95.7922 98.1069 95.7756 98.0552 95.697 97.8192C95.6204 97.5812 95.5045 97.221 95.4092 96.8153C95.314 96.4117 95.2333 96.064 95.2437 95.7411C95.2499 95.5486 95.254 95.4596 95.2602 95.4057C95.2602 95.3913 95.2602 95.3809 95.2602 95.3685C95.2664 95.2464 95.2706 95.2174 95.2809 95.1677C95.2851 95.1449 95.2913 95.1367 95.3016 95.1367C95.3202 95.1367 95.3492 95.1739 95.3803 95.1988C95.4258 95.236 96.7257 96.3227 96.8582 96.4303C96.9596 96.5152 97.0237 96.5649 97.0672 96.5649C97.0796 96.5649 97.0921 96.5607 97.1003 96.5504C97.1417 96.5111 97.8248 95.9977 98.0525 95.859C98.2822 95.7224 98.4437 95.6003 98.5513 95.59C98.6569 95.5796 99.5138 95.4451 99.9568 95.3933C100.402 95.3437 100.447 95.3416 100.514 95.3333C100.528 95.3333 100.538 95.3312 100.545 95.3312C100.565 95.3312 100.54 95.3416 100.483 95.3788C100.464 95.3913 100.412 95.4244 100.336 95.4782C100.348 95.4782 100.358 95.4761 100.362 95.4761C100.381 95.4761 100.354 95.4865 100.302 95.5217C100.269 95.5444 100.141 95.6252 99.963 95.7597C99.9588 95.7638 99.9526 95.77 99.9464 95.7721C99.7891 95.9067 99.6111 96.0702 99.4331 96.2668C98.9405 96.805 98.5534 97.2334 98.3526 97.8875C98.1808 98.4443 98.1787 98.6803 98.1808 98.8438C98.274 98.5126 98.5368 97.8999 99.3275 96.9168C99.8471 96.271 100.17 96.0453 100.555 95.768C100.629 95.7142 100.706 95.6603 100.783 95.6045C101.199 95.3043 101.478 95.1201 101.693 95.0497C101.884 94.9856 102.244 94.8821 102.585 94.8262C102.439 94.8096 102.325 94.7972 102.283 94.7806C102.221 94.7599 102.136 94.6896 102.076 94.6068C102.018 94.524 102.022 94.4288 102.049 94.346C102.076 94.2632 102.267 93.8016 102.298 93.7064C102.31 93.665 102.316 93.6381 102.31 93.6277C102.31 93.6277 102.306 93.6215 102.304 93.6215C102.292 93.6215 102.267 93.6401 102.227 93.6774C102.188 93.7167 102.087 93.8119 101.973 93.9154C101.969 93.9175 101.967 93.9196 101.965 93.9216C101.828 94.0417 101.675 94.168 101.582 94.2135C101.468 94.2715 101.395 94.3149 101.248 94.3149C101.172 94.3149 101.072 94.3025 100.936 94.2735C100.54 94.1866 100.247 94.0727 100 93.9527C99.756 93.8326 99.6773 93.8182 99.6566 93.6919C99.6359 93.5636 99.578 93.2593 99.5738 92.9074C99.5759 92.8018 99.5966 92.7625 99.6835 92.7315C99.6897 92.7315 99.7063 92.7253 99.7332 92.717C99.7311 92.7046 99.7311 92.6901 99.7311 92.6756C99.7332 92.5659 99.7539 92.5266 99.8429 92.4934C99.934 92.4645 102.915 91.5806 103.072 91.533C103.165 91.5061 103.264 91.4875 103.36 91.4875C103.428 91.4875 103.494 91.4978 103.554 91.5185C103.701 91.5723 103.873 91.6365 103.925 91.8166C103.979 92.0008 104.566 93.7643 104.763 94.4329C104.962 95.0994 105.03 95.3519 105.063 95.4389C105.092 95.5258 105.134 95.6272 105.049 95.7245C104.962 95.8239 102.265 98.6679 102.134 98.79C102.004 98.9121 101.983 98.9204 102.006 99.0756C102.029 99.2309 102.329 102.439 102.347 102.559C102.366 102.681 102.476 103.166 102.505 103.379C102.695 104.78 103.204 105.664 103.54 106.043C103.875 106.03 111.364 105.157 111.399 95.4699C111.434 85.224 103.084 84.481 101.36 84.481H101.364ZM100.932 92.0691C100.905 92.0691 100.886 92.0505 100.857 91.9905C100.799 91.8497 100.317 90.9121 100.224 90.6968C100.133 90.4815 100.079 90.3904 100.184 90.3346C100.215 90.318 100.273 90.2911 100.348 90.26C100.292 90.1276 100.278 90.0613 100.36 90.0158C100.468 89.9578 100.923 89.7778 101.201 89.6991C101.474 89.6225 101.942 89.4673 102.051 89.43C102.103 89.4114 102.145 89.399 102.18 89.399C102.219 89.399 102.246 89.4155 102.267 89.459C102.302 89.5418 102.97 91.0445 103.004 91.1418C103.039 91.2391 103.053 91.2681 102.962 91.2929C102.942 91.2991 102.848 91.326 102.716 91.3633C102.728 91.3943 102.739 91.415 102.741 91.4233C102.774 91.5185 102.788 91.5454 102.699 91.5703C102.61 91.5951 101.091 92.0236 101.008 92.0484C100.973 92.0588 100.95 92.0691 100.932 92.0691ZM99.282 93.5139C99.282 93.5139 99.2571 93.4746 99.2199 93.4145C99.1536 93.309 98.8908 92.8991 98.5472 92.3548C98.2036 91.8104 98.1022 91.6282 98.0525 91.5123C98.0069 91.4088 97.9842 91.4212 98.1684 91.2577C98.1642 91.2494 98.1622 91.2412 98.158 91.2329C98.1042 91.1128 98.0794 91.1439 98.3567 90.9017C98.63 90.6595 98.926 90.5208 99.2509 90.3904C99.578 90.2621 99.7022 90.2269 99.8471 90.2249C99.8512 90.2249 99.8574 90.2249 99.8615 90.2249C99.9961 90.2249 100.006 90.2538 100.048 90.3304C100.091 90.4111 100.629 91.6324 100.702 91.7876C100.774 91.9449 100.75 91.9304 100.617 91.9698C100.594 91.976 100.551 91.9884 100.493 92.0049C100.501 92.0236 100.509 92.0381 100.514 92.0484C100.584 92.2016 100.559 92.1871 100.431 92.2244C100.302 92.2595 99.5035 92.5162 99.4 92.5576C99.3979 92.5576 99.3958 92.5597 99.3938 92.5617C99.2923 92.6031 99.2613 92.6321 99.2489 92.7604C99.2447 92.8143 99.2489 92.9136 99.253 93.0233C99.2592 93.1806 99.2716 93.3566 99.2758 93.429C99.2841 93.489 99.2861 93.5139 99.282 93.5139ZM98.1332 95.4389C98.0752 95.4389 98.0773 95.4223 98.0235 95.3623C97.9117 95.2484 97.771 95.0787 97.5557 94.7806C97.3425 94.4826 97.0217 94.0438 96.8002 93.7354C96.5787 93.4269 96.2972 92.926 96.2496 92.8039C96.2041 92.6839 96.2206 92.6694 96.2786 92.5576C96.2807 92.5535 96.2827 92.5514 96.2848 92.5473C96.2475 92.4417 96.2682 92.4231 96.3241 92.3134C96.438 92.1084 96.7422 91.8145 96.9906 91.6531C97.239 91.4895 97.4336 91.415 97.6033 91.3529C97.6571 91.3322 97.7006 91.324 97.7358 91.324C97.8082 91.324 97.8476 91.3612 97.8848 91.413C97.9428 91.4875 98.541 92.4852 98.8825 93.0647C99.222 93.6443 99.8636 94.849 99.9216 94.9442C99.9754 95.0373 99.9423 95.0063 99.7622 95.0497C99.7539 95.0518 99.7436 95.0539 99.7311 95.0559C99.7436 95.0787 99.7539 95.0932 99.7581 95.1015C99.8119 95.1926 99.7788 95.1615 99.6049 95.2029C99.4331 95.2443 98.336 95.4264 98.2036 95.4347C98.1725 95.4368 98.1498 95.4389 98.1332 95.4389ZM96.9927 96.2917C96.9534 96.2917 96.9203 96.271 96.854 96.2192C96.7215 96.1219 96.2724 95.7369 95.8212 95.3188C95.372 94.9007 94.9994 94.5178 94.9145 94.4184C94.84 94.3315 94.7986 94.2156 94.8359 94.1059C94.8069 94.0272 94.809 93.9423 94.8545 93.8616C94.9311 93.7333 95.2126 93.3131 95.5955 93.0192C95.6845 92.955 95.8419 92.8474 95.9681 92.8474C96.0157 92.8474 96.0592 92.8619 96.0923 92.9012C96.2165 93.042 97.504 94.8448 97.8827 95.3933C97.9428 95.4844 97.9697 95.4989 97.9262 95.5755C97.9179 95.592 97.889 95.6231 97.8476 95.6624C97.8476 95.6769 97.8413 95.6914 97.8289 95.7121C97.7896 95.7845 97.3549 96.1633 97.1686 96.2337C97.0776 96.2689 97.032 96.2917 96.9927 96.2917Z" fill="url(#paint1_linear_12355_39050)"/>
<path d="M99.9502 95.7764C99.7929 95.9109 99.6149 96.0744 99.4369 96.2711C98.9443 96.8092 98.5572 97.2377 98.3564 97.8918C98.1846 98.4486 98.1826 98.6845 98.1846 98.8481C98.1225 99.0737 98.137 99.1668 98.1205 99.1606C98.077 99.142 98.077 99.1213 98.0791 98.9557C98.0811 98.7901 98.048 98.5852 98.2446 97.9539C98.4392 97.3205 98.8139 96.9065 99.2899 96.3849C99.528 96.122 99.7639 95.9213 99.9502 95.7764Z" fill="#EA5300"/>
<path d="M102.447 94.975C102.085 95.0205 101.678 95.1385 101.471 95.2068C101.299 95.2627 101.081 95.3972 100.781 95.6084C101.197 95.3082 101.477 95.124 101.692 95.0536C101.882 94.9895 102.243 94.886 102.584 94.8301C102.652 94.8384 102.727 94.8466 102.806 94.857C103.052 94.8901 102.81 94.9274 102.447 94.975Z" fill="#EA5300"/>
<path d="M100.488 95.3828C100.469 95.3952 100.418 95.4283 100.341 95.4821H100.337C100.273 95.4904 100.229 95.4925 99.7986 95.5401C99.3702 95.5898 98.5402 95.7202 98.4387 95.7305C98.3352 95.7409 98.1779 95.8589 97.9565 95.9913C97.7371 96.1238 97.0747 96.6206 97.0354 96.6599C96.996 96.6992 96.9298 96.6496 96.8015 96.544C96.6731 96.4384 95.4167 95.3869 95.3712 95.3517C95.3257 95.3166 95.2884 95.2545 95.276 95.3228C95.2718 95.3393 95.2677 95.3538 95.2656 95.3724C95.2718 95.2503 95.276 95.2213 95.2863 95.1717C95.2987 95.1013 95.3381 95.1655 95.3857 95.2027C95.4312 95.24 96.7311 96.3267 96.8636 96.4343C96.996 96.544 97.0643 96.5957 97.1057 96.5543C97.1471 96.515 97.8302 96.0017 98.0579 95.863C98.2876 95.7264 98.4491 95.6043 98.5567 95.5939C98.6623 95.5836 99.5192 95.449 99.9622 95.3973C100.407 95.3476 100.453 95.3455 100.519 95.3373C100.583 95.331 100.56 95.3373 100.488 95.3828Z" fill="#EA5300"/>
<path d="M102.009 99.0797C102.032 99.235 102.332 102.443 102.351 102.563C102.369 102.685 102.479 103.17 102.508 103.383C102.698 104.784 103.208 105.668 103.543 106.047H103.537C103.353 106.047 102.512 105.128 102.262 103.265C102.233 103.058 102.127 102.59 102.109 102.472C102.09 102.356 101.8 99.2515 101.777 99.1025C101.757 98.9514 101.775 98.9431 101.902 98.8251C102.028 98.7072 104.638 95.9563 104.721 95.8611C104.803 95.7659 104.764 95.6686 104.735 95.5837C104.704 95.5009 104.638 95.2567 104.445 94.6109C104.255 93.9651 103.686 92.2595 103.634 92.0815C103.584 91.9056 103.419 91.8435 103.276 91.7917C103.135 91.74 102.963 91.7607 102.81 91.8062C102.667 91.8497 100.132 92.601 99.7364 92.7211C99.7344 92.7087 99.7344 92.6942 99.7344 92.6797C99.7364 92.57 99.7571 92.5307 99.8461 92.4975C99.9372 92.4686 102.918 91.5847 103.075 91.5371C103.235 91.4895 103.413 91.4688 103.557 91.5226C103.704 91.5764 103.876 91.6406 103.928 91.8207C103.982 92.0049 104.57 93.7684 104.766 94.437C104.965 95.1035 105.033 95.356 105.066 95.443C105.095 95.5299 105.137 95.6313 105.052 95.7286C104.965 95.828 102.268 98.672 102.137 98.7941C102.007 98.9162 101.986 98.9245 102.009 99.0797Z" fill="#EA5300"/>
<path d="M97.9298 95.5797C97.9215 95.5963 97.8925 95.6273 97.8511 95.6667C97.8574 95.6294 97.8325 95.6046 97.7911 95.5404C97.4248 95.0105 96.1787 93.2656 96.0586 93.129C95.9407 92.9924 95.6964 93.16 95.5784 93.2449C95.2079 93.5285 94.9347 93.9342 94.8623 94.0584C94.854 94.0749 94.8457 94.0936 94.8395 94.1101C94.8105 94.0315 94.8126 93.9466 94.8581 93.8659C94.9347 93.7375 95.2162 93.3174 95.5991 93.0234C95.7213 92.9365 95.9738 92.7626 96.0959 92.9054C96.2201 93.0462 97.5076 94.8491 97.8863 95.3976C97.9464 95.4887 97.9733 95.5031 97.9298 95.5797Z" fill="#EA5300"/>
<path d="M99.7618 95.054C99.7618 95.054 99.7432 95.0581 99.7308 95.0602C99.5983 94.8201 99.0539 93.8017 98.7538 93.2884C98.4226 92.7274 97.8451 91.7629 97.7892 91.6904C97.7354 91.6159 97.6775 91.5725 97.516 91.6325C97.3525 91.6925 97.1641 91.765 96.924 91.9223C96.6881 92.0775 96.4003 92.3528 96.2844 92.5515C96.2472 92.4459 96.2679 92.4273 96.3238 92.3176C96.4376 92.1127 96.7419 91.8188 96.9903 91.6573C97.2386 91.4938 97.4332 91.4193 97.6029 91.3572C97.7685 91.2951 97.8286 91.3406 97.8844 91.4172C97.9424 91.4917 98.5406 92.4894 98.8821 93.069C99.2216 93.6485 99.8632 94.8532 99.9212 94.9484C99.975 95.0416 99.9419 95.0105 99.7618 95.054Z" fill="#EA5300"/>
<path d="M100.618 91.974C100.595 91.9802 100.552 91.9926 100.494 92.0092C100.376 91.7484 99.9227 90.7155 99.8813 90.6431C99.8399 90.5665 99.8295 90.5396 99.6888 90.5417C99.548 90.5437 99.428 90.5768 99.1113 90.701C98.7967 90.8273 98.511 90.9618 98.2461 91.1957C98.2171 91.2206 98.1923 91.2433 98.1695 91.262C98.1654 91.2537 98.1633 91.2454 98.1591 91.2371C98.1053 91.1171 98.0805 91.1481 98.3579 90.906C98.6311 90.6638 98.9271 90.5251 99.252 90.3947C99.5791 90.2664 99.7033 90.2312 99.8482 90.2291C99.9951 90.227 100.005 90.256 100.049 90.3347C100.092 90.4154 100.631 91.6366 100.703 91.7919C100.775 91.9492 100.751 91.9347 100.618 91.974Z" fill="#EA5300"/>
<path d="M102.957 91.2972C102.936 91.3034 102.843 91.3303 102.711 91.3676C102.586 91.0736 102.052 89.8731 102.021 89.8007C101.986 89.7199 101.92 89.7344 101.814 89.7717C101.709 89.809 101.255 89.958 100.991 90.0325C100.802 90.0863 100.525 90.1898 100.343 90.2643C100.287 90.1318 100.272 90.0656 100.355 90.0201C100.463 89.9621 100.918 89.782 101.195 89.7034C101.469 89.6268 101.936 89.4716 102.046 89.4343C102.156 89.395 102.224 89.3805 102.261 89.4633C102.297 89.5461 102.965 91.0488 102.998 91.1461C103.034 91.2434 103.048 91.2723 102.957 91.2972Z" fill="#EA5300"/>
</g>
</g>
<defs>
<filter id="filter0_d_12355_39050" x="0" y="0" width="320" height="200" filterUnits="userSpaceOnUse" color-interpolation-filters="sRGB">
<feFlood flood-opacity="0" result="BackgroundImageFix"/>
<feColorMatrix in="SourceAlpha" type="matrix" values="0 0 0 0 0 0 0 0 0 0 0 0 0 0 0 0 0 0 127 0" result="hardAlpha"/>
<feOffset dy="5"/>
<feGaussianBlur stdDeviation="5"/>
<feComposite in2="hardAlpha" operator="out"/>
<feColorMatrix type="matrix" values="0 0 0 0 0.254902 0 0 0 0 0.254902 0 0 0 0 0.254902 0 0 0 0.12 0"/>
<feBlend mode="normal" in2="BackgroundImageFix" result="effect1_dropShadow_12355_39050"/>
<feBlend mode="normal" in="SourceGraphic" in2="effect1_dropShadow_12355_39050" result="shape"/>
</filter>
<linearGradient id="paint0_linear_12355_39050" x1="100.712" y1="113.134" x2="100.712" y2="91.7563" gradientUnits="userSpaceOnUse">
<stop stop-color="#FF2200"/>
<stop offset="0.11" stop-color="#FE2B00"/>
<stop offset="0.3" stop-color="#FE4400"/>
<stop offset="0.54" stop-color="#FD6E00"/>
<stop offset="0.81" stop-color="#FCA700"/>
<stop offset="1" stop-color="#FCD200"/>
</linearGradient>
<linearGradient id="paint1_linear_12355_39050" x1="90.0234" y1="99.7504" x2="111.401" y2="99.7504" gradientUnits="userSpaceOnUse">
<stop stop-color="#FF2C00" stop-opacity="0"/>
<stop offset="0.59" stop-color="#FDF400" stop-opacity="0"/>
<stop offset="0.62" stop-color="#FCF100" stop-opacity="0.03"/>
<stop offset="0.65" stop-color="#FCEA00" stop-opacity="0.11"/>
<stop offset="0.69" stop-color="#FCDF00" stop-opacity="0.23"/>
<stop offset="0.73" stop-color="#FCD100" stop-opacity="0.4"/>
<stop offset="0.75" stop-color="#FCD600" stop-opacity="0.5"/>
<stop offset="0.79" stop-color="#FCDF00" stop-opacity="0.65"/>
<stop offset="0.83" stop-color="#FCE600" stop-opacity="0.78"/>
<stop offset="0.87" stop-color="#FCEC00" stop-opacity="0.87"/>
<stop offset="0.91" stop-color="#FCF000" stop-opacity="0.94"/>
<stop offset="0.95" stop-color="#FCF300" stop-opacity="0.99"/>
<stop offset="1" stop-color="#FDF400"/>
</linearGradient>
<clipPath id="clip0_12355_39050">
<rect width="139.946" height="42.1095" fill="white" transform="translate(90.0234 74.001)"/>
</clipPath>
</defs>
</svg>
