<svg width="370" height="195" viewBox="0 0 370 195" fill="none" xmlns="http://www.w3.org/2000/svg">
<rect width="370" height="195" fill="white"/>
<path d="M162.008 80L163.988 80.0254L164 82.4458L163.246 83L162.524 82.7728C161.855 82.0804 162.024 80.8603 162.008 80Z" fill="#4C60CD"/>
<path d="M200.355 55.0717C200.685 55.0205 201.15 54.9463 201.468 55.0592C201.82 55.1847 201.843 55.2014 202 55.553L201.74 55.9532C201.206 56.0095 200.529 56.0656 200.062 55.7966L200 55.3925L200.355 55.0717Z" fill="#4C60CD"/>
<path d="M203.913 79.7733C203.498 79.9106 202.711 80.1494 202.327 79.8712C202.089 79.6991 202.082 79.3895 202 78.9479L202.145 78.2815C202.669 77.8099 203.43 78.0626 204 78.11L203.913 79.7733Z" fill="#4C60CD"/>
<path d="M162.448 84.0569C162.798 83.9822 163.143 84.0025 163.501 84.0025C163.674 84.1897 163.807 84.3162 163.87 84.5578C164.103 85.4559 164.059 86.2998 163.438 87L162.502 86.8765C162.34 86.6809 162.223 86.5501 162.15 86.3119C161.877 85.4215 161.977 84.8349 162.448 84.0569Z" fill="#4C60CD"/>
<path d="M198.468 78.2283L198.635 78.1675C199.29 77.9876 200.946 77.8756 201.522 78.2445C201.895 78.4829 201.876 78.735 202 79.1495L201.494 79.8396C200.657 79.9692 199.655 80.1004 198.829 79.887C198.297 79.7495 198.27 79.4718 198 78.9961L198.468 78.2283Z" fill="#4C60CD"/>
<path d="M203.81 55L204 55.3212C203.985 55.6756 203.999 55.7118 203.869 55.9822C203.601 55.9863 203.229 56.0841 203.009 55.7742L203 55.3212C203.228 54.9266 203.512 55.0257 203.81 55Z" fill="#4C60CD"/>
<path d="M99.304 53.2499C100.169 52.9055 100.849 52.9477 101.721 53.191L102 53.8797L101.721 54.6379C101.058 55.1788 100.04 54.99 99.3174 54.8547L99 54.1943L99.304 53.2499Z" fill="#4C60CD"/>
<path d="M110.131 53.2577C110.667 52.9004 111.261 52.9471 111.802 53.2002L112 53.8961L111.795 54.8534C111.282 55.123 110.731 54.951 110.21 54.8839L110 54.2149L110.131 53.2577Z" fill="#4C60CD"/>
<path d="M103.066 53.3119L103.179 53.1294C103.396 52.9086 103.783 52.9378 103.972 53.4738L104 54.0863L103.872 54.8318C103.657 55.0308 103.446 55.0378 103.228 54.9329C103.083 54.863 103.087 54.7276 103 54.2477L103.066 53.3119Z" fill="#4C60CD"/>
<path d="M196.244 78.0702L196.312 78.0316C196.549 77.917 196.813 78.1127 196.996 78.6422L197 79.5006L196.807 79.9705C196.517 79.9724 196.268 80.1578 196.018 79.5749L196 78.6422L196.244 78.0702Z" fill="#4C60CD"/>
<path d="M113.179 53.2915C113.62 52.9609 114.341 52.8729 114.781 53.2309C114.898 53.3263 114.949 53.8198 115 54.0798L114.811 54.8901C114.262 54.9962 113.763 55.0813 113.217 54.8681L113 54.0798L113.179 53.2915Z" fill="#4C60CD"/>
<path d="M106.262 53.2968C106.943 52.9035 108.186 52.8986 108.871 53.2968C109.095 54.0736 109 54.1062 108.795 54.8574C108.112 55.125 107.135 54.9364 106.416 54.9234L106 54.233L106.262 53.2968Z" fill="#4C60CD"/>
<path d="M196.313 55.0867C196.654 55.0099 197.323 54.944 197.646 55.0733C197.884 55.1683 197.907 55.2853 198 55.5195L197.702 55.8707L197.511 55.9376C197.08 56.0631 196.512 55.9994 196.133 55.7458C196.027 55.6747 196.027 55.5021 196 55.3752L196.313 55.0867Z" fill="#4C60CD"/>
<path d="M120.242 53.2574C121.053 52.8816 121.889 52.9667 122.709 53.1985L123 53.8883L122.719 54.8342C121.896 55.0695 121.15 55.0134 120.317 54.9155L120 54.2034L120.242 53.2574Z" fill="#4C60CD"/>
<path d="M127.188 53.3003C127.667 52.8077 128.323 53.0156 128.819 53.2567L129 53.9205L128.8 54.8391C128.274 55.0599 127.732 55.0348 127.204 54.8767L127 54.2303L127.188 53.3003Z" fill="#4C60CD"/>
<path d="M115.38 53.3056C116.255 52.8875 117.635 52.9309 118.535 53.2396C118.833 53.3418 118.862 53.6221 119 53.9134L118.675 54.8248C117.54 55.0545 116.581 55.035 115.435 54.9003L115 54.217L115.38 53.3056Z" fill="#4C60CD"/>
<path d="M123.182 53.2959C123.545 52.9562 124.305 52.9078 124.684 53.157C124.903 53.3015 124.892 53.4494 125 53.9148L124.831 54.8428C124.297 55.1018 123.739 54.9751 123.198 54.9214L123 54.2239L123.182 53.2959Z" fill="#4C60CD"/>
<path d="M73.0054 92.0607C74.6415 92.0363 76.338 91.9335 77.9661 92.0673L78 97.7473C76.157 97.4372 74.7886 97.5334 73 98L73.0054 92.0607Z" fill="#3B54C2"/>
<path d="M51.3223 106C51.7137 106.041 51.7235 106.036 52 106.416L45.6771 117.791C45.0769 118.82 44.4873 120.092 43.806 121L43 120.997L51.3223 106Z" fill="#455ECE"/>
<path d="M74.3593 96.4133C75.6144 95.9672 76.5746 95.8751 77.8678 96.1717C79.4113 97.006 80.214 97.7904 80.9105 99.5438C81.0286 100.938 81.1091 101.984 80.6179 103.319C79.8613 104.439 79.142 105.174 78.0327 105.83C76.6667 106.151 75.6951 105.991 74.365 105.568C73.4891 104.875 72.9531 104.238 72.3629 103.225C71.927 101.998 71.9343 100.946 72.1212 99.6592L72.1518 99.4954C72.5875 98.0924 73.3195 97.3045 74.3593 96.4133Z" fill="#05245A"/>
<path d="M96.0748 99.4232C96.5644 97.8711 97.1187 96.919 98.2764 96.3153C99.0701 95.9014 100.057 95.8681 100.832 96.3768C101.751 96.9794 102.496 98.0309 102.844 99.3677C103.088 100.306 103.041 102.013 102.735 102.902C102.288 104.201 101.438 105.308 100.442 105.752L99.6088 106L99.1771 105.948L99.0205 105.898C97.6354 105.422 96.8801 104.615 96.1755 102.921C95.9611 101.683 95.9631 100.692 96.0748 99.4232Z" fill="#3779E7"/>
<path d="M99.7478 99.0184C100.173 98.9482 100.621 99.0834 100.993 99.3488C101.433 99.6636 101.802 100.221 101.934 100.837C102.082 101.526 101.974 102.219 101.673 102.819C101.317 103.53 100.833 103.809 100.202 103.999C99.7562 104.009 99.3777 103.944 98.9887 103.658C98.5034 103.3 98.1836 102.705 98.0529 102.025C97.9307 101.391 98.023 100.718 98.3002 100.164C98.6402 99.4847 99.1477 99.1991 99.7478 99.0184Z" fill="#FDFDFC"/>
<path d="M43 127L64 127.026C62.1722 131.224 60.3352 134.009 56.5355 135.396L55.6525 135.67C53.5265 136.333 51.3818 135.933 49.3448 135.039L48.1189 134.346C45.6856 132.783 43.8572 130.303 43 127Z" fill="#455ECE"/>
<path d="M49 134.802C49.5595 134.595 54.8831 132.917 55 133.003L54.9997 135.589C52.9775 136.415 50.9375 135.917 49 134.802Z" fill="#3B54C2"/>
<path d="M52.2448 106.005L51.8641 105.857C50.629 105.317 49.8701 104.318 49.2931 102.893C48.9733 102.103 48.9684 101.244 49.0323 100.375C49.1205 99.1761 49.8212 97.8016 50.5796 97.0772C51.5418 96.1578 52.8193 95.8168 54.0177 96.0933C55.3749 96.4064 56.2962 97.8347 57.011 99.1741L71.8214 99.1746L71.7954 99.3275C71.6373 100.529 71.6311 101.511 72 102.656L57.3679 102.683C56.6762 103.056 56.1419 104.35 55.5134 104.982C55.015 105.483 54.3445 105.817 53.7709 106.182L63.1033 120.979L61.8954 121C61.6247 119.773 60.3571 118.223 59.6965 117.179C57.4824 113.679 54.9192 110.16 53.0012 106.422C52.6926 106.041 52.6816 106.047 52.2448 106.005Z" fill="#3779E7"/>
<path d="M52.6376 99.0418C52.9605 98.9582 53.3458 99.0057 53.6604 99.1335C54.1111 99.3169 54.5275 99.8406 54.7386 100.356C54.9622 100.901 55.0881 101.627 54.9278 102.217C54.6861 103.105 54.1685 103.534 53.516 103.918C53.1648 104.003 52.6637 104.058 52.327 103.896C51.839 103.662 51.356 103.113 51.1499 102.52C50.9192 101.856 50.9697 101.169 51.1996 100.52C51.4939 99.6915 51.9815 99.3512 52.6376 99.0418Z" fill="#FDFDFC"/>
<path d="M57.3666 103L57.0401 102.851L57 101.01L71.7954 101C71.6373 101.716 71.6311 102.302 72 102.984L57.3666 103Z" fill="#3B54C2"/>
<path d="M73 106C74.8133 106.372 76.1378 106.512 78 106.231L77.9983 171.999L73.0205 172L73 106Z" fill="#3B54C2"/>
<path d="M326.591 152.734L327 152.967V156.747C326.867 157.013 326.722 157.298 326.503 157.494C326.145 157.811 325.685 157.879 325.241 157.899L308.583 157.856C303.331 157.859 297.924 158.175 292.689 157.861C292.231 157.834 291.774 157.684 291.473 157.283C291.264 157.002 291.157 156.741 291.122 156.379C290.97 154.775 291.068 153.066 291.062 151.446L291.038 142.055L291.032 132.59C291.036 130.968 290.931 129.237 291.081 127.625C291.208 126.27 292.237 125.49 293.045 124.56C293.808 123.685 294.497 122.754 295.367 122C295.145 124.379 295.229 126.808 295.225 129.198L295.223 140.547L295.201 147.062C295.199 148.078 295.1 149.266 295.233 150.263C295.298 150.745 295.593 151.301 295.881 151.67C296.349 152.267 296.953 152.651 297.677 152.706L326.591 152.734Z" fill="white"/>
<path d="M76.8414 172.106L83.876 172.068C84.7582 172.066 85.8806 171.901 86.7401 172.093C87.13 172.181 87.3756 172.416 87.665 172.739C87.9744 173.384 87.9411 174.775 87.7983 175.503C87.7517 175.741 87.6641 175.965 87.5671 176.176L91.6589 176.212C91.965 176.216 92.6386 176.112 92.9103 176.228C93.0713 176.297 93.3594 176.548 93.4887 176.704C94.1409 177.49 93.9885 178.876 93.9754 179.918C93.8605 181.389 93.8196 181.916 92.9151 182.961L58.2728 183C57.9292 182.82 57.627 182.608 57.3736 182.26C56.8809 181.582 57.011 180.419 57.0282 179.561C57.0365 178.919 56.9856 178.069 57.1112 177.452C57.6635 174.736 62.3873 177.176 63.7855 176.023C63.6605 175.419 63.6103 174.814 63.5988 174.191C63.5835 173.361 63.7676 172.973 64.2175 172.396C65.0422 171.858 66.5194 172.098 67.4489 172.096L73.7367 172.107L76.8414 172.106Z" fill="#2C40AA"/>
<path d="M77.6219 172.121L84.8576 172.077C85.765 172.075 86.9195 171.887 87.8035 172.106C88.2046 172.206 88.4572 172.475 88.7548 172.843C89.0731 173.578 89.0388 175.165 88.892 175.995C88.844 176.266 88.7539 176.521 88.6542 176.762C86.3085 177.258 83.495 176.824 81.0933 176.824L70.1101 176.839L65.9067 176.861C65.3234 176.861 64.723 176.976 64.1929 176.588C64.0644 175.899 64.0128 175.209 64.0009 174.499C63.9852 173.552 64.1745 173.11 64.6372 172.452C65.4855 171.838 67.005 172.112 67.9611 172.109L74.4285 172.121L77.6219 172.121Z" fill="#05245A"/>
<path d="M127 179.026L160.236 179.046L168.612 179.08C169.771 179.082 171.2 178.875 172.333 179.119L172.413 179.207C173.281 180.056 174.632 179.095 175.478 179.666C175.618 179.76 175.823 180.11 175.943 180.265C175.983 180.921 176.084 181.581 175.856 182.191C175.545 182.576 175.308 182.8 174.867 182.873C173.425 183.109 171.786 182.939 170.327 182.947L160.682 182.983L128.712 182.995C128.203 182.977 127.415 183.096 127.011 182.725L127 179.026Z" fill="#F54844"/>
<path d="M194.103 168C194.556 168.349 195.161 168.223 195.689 168.223L199.615 168.218L215.534 168.209L215.533 168.308L215.518 175.342C215.518 176.395 215.636 177.699 215.445 178.713C215.254 179.716 214.712 180.848 214.068 181.557C213.635 182.031 213.051 182.412 212.554 182.798L223.468 182.819C224.834 182.817 226.726 182.528 228 182.996L189.377 183C189.026 182.544 188.404 182.281 187.98 181.896C187.211 181.199 186.508 180.229 186.22 179.136C186 178.304 186.087 177.275 186.084 176.403C186.076 174.224 186.231 171.894 186.017 169.736L186 169.573L186.081 168.631C186.501 168.182 187.627 168.36 188.224 168.357L193.847 168.328L194.103 168Z" fill="#455ECE"/>
<path d="M42.0994 126.968L41.5971 126.935C40.9578 126.853 40.5694 126.672 40.1446 125.882C39.9629 125.063 39.9556 124.717 40.1049 123.881C40.5337 123.14 40.6658 123.181 41.2712 123.042C46.3186 123.48 51.4785 123.141 56.537 123.136L61.181 123.129C61.9569 123.127 62.8819 123.279 63.6354 123C64.0599 123.133 64.5776 123.239 64.8184 123.881C65.098 124.627 65 125.008 64.8861 125.772C64.4277 126.579 64.2107 126.893 63.4908 126.963L62.9678 127L42.0994 126.968Z" fill="#2C40AA"/>
<path d="M62.9011 121C63.4027 121.01 64.0848 120.953 64.4812 121.333C64.9681 121.799 64.9737 122.238 65 122.883C64.8189 123.339 64.6012 123.7 64.14 123.882C63.9693 123.949 63.7751 123.963 63.5945 123.973L41.375 124C41.0029 123.971 40.7462 123.929 40.4204 123.73C40.1938 123.442 40.0421 123.213 40.0107 122.828C39.9726 122.358 40.0265 121.947 40.333 121.585C40.8915 120.926 41.6862 121.043 42.4509 121.038L43.3641 121.041L61.6751 121.019L62.9011 121Z" fill="#2C40AA"/>
<path d="M216 168L232.628 168.005L232.729 170.168L236.194 170.139L236.23 170.311L236.265 170.395C236.591 171.271 236.39 173.125 236.377 174.123L271 174.126L270.996 182.801C269.529 183.184 267.392 182.866 265.862 182.866L252.556 182.868L252.573 182.965L228.556 183C227.273 182.522 225.367 182.818 223.991 182.82L213 182.799C213.5 182.404 214.088 182.015 214.525 181.53C215.173 180.807 215.719 179.651 215.912 178.626C216.104 177.591 215.985 176.259 215.985 175.184L216 168Z" fill="#05245A"/>
<path d="M215.881 168L231.848 168.005L231.945 170.168L235.272 170.139L235.307 170.311L232.08 170.333C232.105 173.606 232.789 178.672 230.762 181.156C230.125 181.938 229.298 182.379 228.49 182.837L245.026 182.833C246.893 182.827 249.152 182.528 250.984 182.868L251 182.965L227.938 183C226.706 182.522 224.876 182.818 223.554 182.82L213 182.799C213.48 182.404 214.045 182.015 214.464 181.53C215.087 180.807 215.611 179.651 215.796 178.626C215.981 177.591 215.867 176.259 215.867 175.184L215.881 168Z" fill="#2C40AA"/>
<path d="M212.26 78.1144L212.847 78.0042C213.287 77.9736 213.67 78.0994 214 78.7784L213.803 79.7745C213.3 80.0685 212.612 80.0782 212.109 79.785L212 78.9499L212.26 78.1144Z" fill="#4C60CD"/>
<path d="M218.147 78.2184L218.265 78.0832C218.524 77.8937 218.742 78.0311 218.964 78.4633L219 79.2082L218.794 79.8539C218.633 79.9404 218.441 80.0915 218.282 79.9255C218.08 79.7159 218.077 79.5241 218 78.9255L218.147 78.2184Z" fill="#4C60CD"/>
<path d="M204.441 78.1584L205.76 78C206.391 78.0409 206.612 78.2942 207 78.97L206.596 79.7811C205.982 80.1075 205.228 79.9735 204.583 79.9688C204.101 79.5614 204.144 79.5606 204 78.8075L204.441 78.1584Z" fill="#4C60CD"/>
<path d="M214.6 78.1266C215.504 77.9158 216.219 77.8946 216.966 78.6495L217 79.4062L216.478 79.9222C215.965 79.9394 214.684 80.1611 214.268 79.7682C214.027 79.5386 214.056 79.1655 214 78.7664L214.6 78.1266Z" fill="#4C60CD"/>
<path d="M213.184 55.0759C213.351 54.9725 213.54 55.005 213.714 55.0043C213.9 55.2493 213.931 55.2567 214 55.6728L213.769 55.9713C213.609 56.0191 213.433 55.9922 213.271 55.9944C213.096 55.7695 213.068 55.7621 213 55.3743L213.184 55.0759Z" fill="#4C60CD"/>
<path d="M208.141 78.174C208.343 77.9922 208.65 77.8725 208.843 78.2364C208.955 78.447 208.954 78.6477 209 79.1246L208.864 79.8763C208.68 79.9105 208.262 80.1825 208.109 79.7908C208.026 79.5758 208.027 79.2091 208 78.8077L208.141 78.174Z" fill="#4C60CD"/>
<path d="M208.663 55.0729C209.922 54.9495 210.86 54.9593 211.929 55.2872L212 55.6724L211.134 55.9721C210.234 55.989 209.164 56.0663 208.338 55.8571C208.118 55.8008 208.068 55.5673 208 55.4477L208.663 55.0729Z" fill="#4C60CD"/>
<path d="M206.366 55.0721C206.943 54.9559 207.423 54.9545 207.926 55.2615L208 55.6192L207.661 55.9704C207.113 56.0107 206.477 56.0599 206.018 55.7446L206 55.3847L206.366 55.0721Z" fill="#4C60CD"/>
<path d="M217.621 36.418L219.532 36.2731C219.916 33.2862 220.953 30.5633 223.061 28.7531C223.993 27.9528 224.999 27.5236 226.103 27.202C227.1 26.9118 228.223 27.0223 229.243 27.0182L234.793 27.0137L254.94 27L254.945 34.9372C254.943 37.0659 255.268 40.0911 254.359 42.0068C253.726 43.3369 253.913 44.9417 253.97 46.4213L253.995 56C252.857 55.819 251.744 55.9069 250.604 55.979L250.616 50.6769C245.02 50.7135 239.082 50.5385 233.913 47.6992C233.056 47.2283 232.239 46.7055 231.443 46.0989C231.027 45.7816 230.12 44.858 229.656 44.7609C228.745 44.5702 227.537 44.7491 226.582 44.7438L218.232 44.6973L218.254 52.6594C218.254 53.5046 218.426 55.0606 218.127 55.8085C217.967 55.8641 218.039 55.8631 217.87 55.8209C216.913 55.5795 216.044 55.5481 215.087 55.8111L215.072 44.5621C215.074 43.0679 214.816 40.5759 215.264 39.2435L215.302 39.1348C215.753 37.7983 216.589 37.0894 217.621 36.418Z" fill="#05245A"/>
<path d="M218 56L218.015 42.1197L229.33 42.1105C230.022 42.1099 231.77 41.8638 232.342 42.1081C232.698 42.2602 233.229 42.8318 233.58 43.0904C234.355 43.6639 235.186 44.1632 236.037 44.5569C239.521 46.171 242.734 46.2521 246.414 46.2465C248.232 46.244 250.089 46.3155 251.899 46.1433L252 46.1328V50.6446C246.144 50.6828 239.93 50.5001 234.52 47.537C233.623 47.0455 232.768 46.4999 231.935 45.8669C231.5 45.5357 230.551 44.5719 230.065 44.4705C229.112 44.2715 227.848 44.4582 226.848 44.4526L218.111 44.4042L218.133 52.7135C218.133 53.5956 218.313 55.2195 218 56Z" fill="#FA8049"/>
<path d="M162.384 81.8888L144.421 81.9456L138.345 81.9535C136.835 81.9546 134.987 82.2299 133.6 81.4277C132.474 80.7765 131.617 79.534 131.253 78.1244C130.773 76.2638 131.122 73.4389 131.128 71.4655L131.249 54.5878L131.145 22.1668C131.156 21.3995 131.156 20.5483 131.475 19.8607C131.709 19.3584 131.937 18.8595 132.289 18.4556C132.808 17.8603 133.492 17.3624 134.207 17.1869C135.755 16.8066 137.932 17.1231 139.541 17.1313L152.729 17.2631C151.633 18.033 150.803 18.7594 150.489 20.2898C150.246 21.475 150.406 23.1677 150.409 24.407L140.288 24.3982C139.502 24.398 137.99 24.1527 137.283 24.4429C137.143 24.5 136.797 24.8129 136.695 24.9471C136.619 25.0479 136.471 25.2966 136.453 25.4358C136.256 26.9692 136.45 28.8891 136.449 30.462L136.44 43.6613L136.432 63.7457C136.43 67.0227 136.209 70.5161 136.467 73.7668C136.501 74.1966 136.72 74.4926 137.004 74.7403C137.22 74.9289 137.345 74.9488 137.609 74.9928C138.544 75.1481 139.611 75.0379 140.558 75.0379L146.26 75.0331L166.513 75.0124L182.447 75.0146C184.557 75.0152 187.01 75.3408 189.076 74.999C189.546 74.9212 189.993 74.3425 190.228 73.8825C190.44 73.4671 190.431 73.0529 190.438 72.5842L190.439 38.6442L190.434 29.4227C190.432 28.3918 190.601 26.8715 190.378 25.9206C190.278 25.4977 189.888 24.9147 189.552 24.7095C188.738 24.2124 186.838 24.4603 185.908 24.4614L176.869 24.4938L176.877 21.4452C176.783 19.7114 176.2 18.7657 175.118 17.6204L186.836 17.6413C188.447 17.6424 190.519 17.3673 192.084 17.73C192.991 17.9402 193.82 18.6211 194.459 19.3838C195.158 20.2186 195.739 21.3469 195.885 22.5243C196.115 24.3781 195.929 26.5884 195.93 28.4746L195.92 41.7887L195.917 63.1303L195.932 76.1642C195.918 76.5862 195.814 76.9685 195.683 77.3567L195.636 77.4961C194.997 79.3883 193.686 80.843 192.116 81.6407C191.166 82.1236 189.876 81.955 188.857 81.9548L183.04 81.9533L163.419 81.908L162.384 81.8888Z" fill="#EDEDED"/>
<path d="M218.181 54.7065C218.487 53.9875 218.311 52.4914 218.311 51.6788L218.289 44.0236L226.814 44.0683C227.79 44.0734 229.024 43.9014 229.953 44.0847C230.427 44.1781 231.354 45.0661 231.778 45.3712C232.591 45.9544 233.425 46.457 234.3 46.9098C239.579 49.6396 246.286 49.5352 252 49.5V55C253.164 54.9307 253.645 54.7166 254.807 54.8906C255.491 55.1418 256.148 55.4245 256.705 55.9547C257.014 56.2485 257.503 57.0415 257.843 57.1923C258.407 57.4404 258.53 56.9286 259 57.6026L258.821 57.9451L258.272 58.0928C258.292 58.2994 258.328 58.4578 258.394 58.6491C258.938 60.2501 258.634 62.1058 258.017 63.6298C257.431 65.0769 256.106 66.3179 254.783 66.8433C253.734 67.2589 252.618 67.1865 251.562 66.8229C250.897 71.7812 248.573 75.8791 244.984 78.8589L243.373 80.0145C243.36 81.5033 243.51 83.25 243.3 84.7053L243.558 85.4558L238.041 92.1871C237.344 93.0491 236.427 93.9714 235.852 94.929C235.291 94.4585 234.853 94.5087 234.178 94.5556L233.555 95C232.556 93.2846 231.02 91.7873 229.743 90.3312L225.312 84.9812C225.711 84.1636 225.436 81.5418 225.431 80.5142L225.374 80.1575C225.38 79.9943 225.383 79.5022 225.314 79.3642C225.222 79.1844 224.801 78.8834 224.633 78.7252C223.934 78.0654 223.212 77.4124 222.555 76.7027C220.183 74.1473 218.635 70.5232 217.861 66.9925C216.687 67.3562 215.913 67.3358 214.76 66.8653C213.239 66.2448 212.05 64.7986 211.405 63.1562C210.869 61.7894 210.876 59.9374 211.36 58.5537C212.042 56.5941 213.422 55.5035 215.077 54.709C216.054 54.4561 216.942 54.4864 217.919 54.7184C218.091 54.759 218.018 54.76 218.181 54.7065Z" fill="#F9A976"/>
<path d="M244.018 60.0712C244.304 60.0057 244.678 59.9628 244.963 60.0457C245.336 60.1543 245.68 60.4862 245.85 60.818C246.03 61.1722 246.05 61.6562 245.898 62.0234C245.687 62.5367 245.343 62.7516 244.836 62.9518C244.631 63.0001 244.449 63.0181 244.24 62.9776C243.804 62.8933 243.451 62.6263 243.224 62.266C243.002 61.9126 242.939 61.5218 243.062 61.1253C243.224 60.5932 243.527 60.3337 244.018 60.0712Z" fill="#05245A"/>
<path d="M240 55.0729C241.28 55.0749 247.302 54.806 247.975 55.2887C248.006 55.8661 248.042 56.3667 247.855 56.9235C247.062 57.0644 246.086 56.967 245.271 56.9697L240.027 56.9835L240 55.0729Z" fill="#05245A"/>
<path d="M225.304 60.068C225.775 59.9594 226.195 60.0047 226.673 60.0412C227.01 60.1922 227.324 60.3426 227.546 60.589C227.862 60.9373 228.104 61.4464 227.955 61.8672C227.76 62.4072 227.299 62.6607 226.673 62.9254C226.275 63.0019 225.946 63.0283 225.545 62.963C225.015 62.8768 224.552 62.608 224.272 62.2661C223.999 61.9313 223.933 61.4978 224.067 61.1214C224.259 60.5852 224.671 60.3269 225.304 60.068Z" fill="#05245A"/>
<path d="M222.017 55.2181L222.163 55.1514C222.705 54.9234 228.538 54.9588 228.989 55.2181C229.018 55.8082 228.991 56.3121 228.893 56.8924L228.084 56.9499L223.448 56.9591C223.202 56.9591 222.35 57.0511 222.187 56.9591C222.109 56.915 222.063 56.8205 222 56.7514L222.017 55.2181Z" fill="#05245A"/>
<path d="M215.691 58.1338C216.049 58.0016 216.552 57.932 216.908 58.0945C217.367 58.304 217.699 58.7125 217.926 59.4058C217.92 60.7849 218.175 65.7666 217.771 66.7025C217.361 67.002 216.905 66.9735 216.465 67C215.51 66.4458 214.78 65.7395 214.298 64.2022C213.997 63.2489 213.905 62.1194 214.11 61.0806L214.31 60.1562C214.576 59.184 215.11 58.5166 215.691 58.1338Z" fill="#FA8049"/>
<path d="M252.744 58.0917C253.186 57.9944 253.71 57.9372 254.138 58.1161L254.277 58.1798C254.838 58.4296 255.509 59.1109 255.772 59.7863C256.094 60.6109 256.04 61.6272 255.823 62.4756C255.53 63.6125 254.879 64.1956 254.056 64.7314C253.496 64.9144 252.916 65.0852 252.334 64.9533C251.838 64.8406 251.387 64.4605 251.127 63.9178C250.935 63.5165 250.98 60.1488 251.135 59.6813C251.395 58.8953 252.145 58.401 252.744 58.0917Z" fill="#FA8049"/>
<path d="M225.065 82.5415C225.124 82.3046 225.177 82.1847 225.341 82C227.457 83.4633 229.654 84.5275 232.183 85.1287C236.458 86.1452 240.217 84.5226 243.808 82.4119C243.794 83.7619 243.95 85.3457 243.731 86.6653L244 87.3458L238.256 93.4494C237.529 94.231 236.575 95.0673 235.976 95.9356C235.391 95.509 234.935 95.5545 234.232 95.5971L233.584 96C232.544 94.4446 230.945 93.0869 229.614 91.7666L225 86.9155C225.415 86.1741 225.13 83.7968 225.124 82.865L225.065 82.5415Z" fill="#FA8049"/>
<path d="M225 82.6057C225.06 82.3407 225.114 82.2066 225.28 82C227.419 83.6367 229.642 84.8271 232.2 85.4996C236.524 86.6366 240.326 84.8217 243.958 82.4607C243.944 83.9708 244.102 85.7423 243.881 87.2183C241.995 89.1705 239.422 90.0383 236.848 89.9987C232.289 89.9288 228.084 86.3199 225.06 82.9675L225 82.6057Z" fill="#F54844"/>
<path d="M296.193 121.484L296.313 121.352C296.87 120.729 297.339 119.954 297.889 119.304L303.125 113.21C303.826 112.38 304.924 110.675 305.84 110.255C306.717 109.853 325.314 110.037 327.758 110.077C328.297 110.086 328.862 110.328 329.242 110.793C329.629 111.267 329.871 111.889 329.932 112.54C330.068 113.998 329.958 115.62 329.962 117.096L329.969 126.299L329.953 150.47C329.932 151.232 329.749 151.856 329.263 152.369C328.381 153.301 326.877 152.823 325.76 153L298.38 152.971C297.694 152.914 297.123 152.521 296.679 151.908C296.407 151.53 296.127 150.96 296.065 150.465C295.94 149.444 296.033 148.225 296.035 147.184L296.056 140.503L296.058 128.864C296.062 126.414 295.982 123.923 296.193 121.484Z" fill="#4C60CD"/>
<path d="M309 118.015L324 118L323.99 121.962L309.002 122L309 118.015Z" fill="white"/>
<path d="M300.016 142.012L324 142L323.998 147L300 146.986L300.016 142.012Z" fill="white"/>
<path d="M300 134.049L323.962 134C323.957 134.984 324.154 137.324 323.696 137.999L300 138V134.049Z" fill="white"/>
<path d="M300.002 126L324 126.02L323.997 130.997L300 131L300.002 126Z" fill="white"/>
<path d="M261.025 58.0766L261.371 58.0372C262.24 57.9684 263.324 57.9085 264 58.7007L263.942 59.3808L263.125 59.9438L262.819 59.9683C261.772 60.0363 260.774 60.0805 260 59.1491L260.184 58.4985L261.025 58.0766Z" fill="#4C60CD"/>
<path d="M267.521 58.1316C268.061 58.0856 268.935 57.8472 269.437 58.1543C269.841 58.4007 269.836 58.4979 270 59.1555L269.507 59.9056C268.739 59.9539 267.726 60.2238 267.048 59.5539L267 58.6768L267.521 58.1316Z" fill="#4C60CD"/>
<path d="M279.391 58.1255C279.806 58.0603 280.403 57.7934 280.772 58.3199C280.97 58.6016 280.947 58.7532 281 59.2851L280.699 59.9439C280.136 59.9512 279.502 60.2078 279.006 59.5592L279 58.6793L279.391 58.1255Z" fill="#4C60CD"/>
<path d="M275.421 58.0982C275.939 57.9473 276.57 57.8713 276.988 58.6338L277 59.3048L276.677 59.928C276.158 59.9602 275.488 60.2057 275.027 59.5557L275 58.7878L275.421 58.0982Z" fill="#4C60CD"/>
<path d="M265.295 58.0829L265.329 58.0635C265.585 57.9641 265.806 57.8551 266 58.8013L265.948 59.8162L265.756 60L265.074 59.8784L265 59.1604L265.055 58.4659L265.295 58.0829Z" fill="#4C60CD"/>
<path d="M271.908 58.1061L272.032 58.0863C273.146 57.9338 274.122 57.8876 275 58.7855L274.834 59.6211L274.184 59.9593C273.241 59.9459 271.739 60.2176 271 59.5149L271.124 58.6074L271.908 58.1061Z" fill="#4C60CD"/>
<path d="M79.2697 101L95.877 101.012C95.7405 101.728 95.738 102.288 96 102.987L79 103C79.4528 102.293 79.3785 101.739 79.2697 101Z" fill="#3B54C2"/>
<path d="M87.5755 123C91.0283 123.483 94.7322 123.119 98.2096 123.116C102.607 123.112 107.114 123.392 111.5 123.034C112.123 123.19 112.356 123.166 112.828 123.767C113.004 124.438 113.098 124.968 112.845 125.64C112.638 126.189 112.23 126.636 111.787 126.768C111.357 126.897 110.858 126.854 110.418 126.844L99.2507 126.953L99.2293 127L88.7021 126.984C88.2132 127.007 87.7138 127.005 87.2328 126.868C86.6357 126.698 86.3663 126.301 86.0516 125.64C85.9946 125.019 85.9196 124.317 86.2284 123.786C86.5974 123.152 87.0395 123.143 87.5755 123Z" fill="#2C40AA"/>
<path d="M87.5683 124C87.1872 123.941 86.8968 123.821 86.5489 123.659C86.2906 123.347 86.057 123.06 86.0119 122.643C85.9389 121.968 86.2093 121.7 86.611 121.236C87.2692 120.9 88.164 121.017 88.8917 121.031L90.9297 121.058L109.637 121.059L110.676 121.05C111.416 121.082 112.002 121.04 112.537 121.633C112.806 121.931 112.937 122.176 113 122.568C112.884 123.027 112.811 123.385 112.369 123.659C112.146 123.797 111.834 123.862 111.583 123.932L111.453 123.969L111.374 123.988C110.114 123.855 108.767 123.943 107.499 123.939L100.616 123.923L92.4661 123.909C90.8558 123.907 89.1666 123.799 87.5683 124Z" fill="#2C40AA"/>
<path d="M99.1801 127.108L99.2007 127.075L110 127C108.571 129.942 106.528 132.232 103.338 133.359C102.075 133.805 100.777 133.991 99.4396 134C98.7079 134.001 98.0056 133.887 97.285 133.774C96.5898 133.746 95.6558 133.42 95.0043 133.159C92.1978 132.036 90.1514 129.82 89 127.097L99.1801 127.108Z" fill="#455ECE"/>
<path d="M99.7885 127.108L99.808 127.075L110 127C108.651 129.942 106.723 132.232 103.712 133.359C102.521 133.805 101.296 133.991 100.033 134C99.3429 134.001 98.68 133.887 98 133.774C98.485 133.516 98.998 133.455 99.5144 133.294C102.672 132.31 104.635 130.073 106.153 127.152L99.9214 127.123L99.7885 127.108Z" fill="#3B54C2"/>
<path d="M99.1501 106L99.6554 106.05L110 120.989L108.999 121L101.94 110.713C101.184 109.605 100.337 107.914 99.3943 107.048L92.2309 117.649C91.7893 118.296 90.2383 120.161 90.2383 120.868L90.9646 120.999L89 120.969L99.1501 106Z" fill="#455ECE"/>
<path d="M152.644 18.2696L158.904 18.2072C158.898 15.9541 159.021 14.3037 160.515 12.6148C161.382 11.6354 162.675 10.9698 163.909 11.0011C165.339 11.0372 166.634 11.8574 167.582 13.0471C167.905 13.4518 168.128 13.8914 168.364 14.3623C168.872 15.3797 168.681 17.1039 168.663 18.2603C170.671 18.251 173.289 17.9213 175.19 18.5698L175.384 18.6197C176.483 19.742 177.074 20.6687 177.17 22.3678L177.163 25.3551L186.342 25.3234C187.288 25.3224 189.217 25.0794 190.044 25.5666C190.385 25.7676 190.782 26.3389 190.882 26.7533C191.109 27.6851 190.938 29.1749 190.94 30.1851L190.945 39.2216L190.944 72.4806C190.937 72.9398 190.946 73.3458 190.731 73.7528C190.492 74.2036 190.038 74.7706 189.561 74.8469C187.462 75.1819 184.97 74.8628 182.828 74.8622L166.644 74.8601L146.073 74.8804L140.283 74.885C139.32 74.885 138.237 74.993 137.287 74.8408C137.019 74.7977 136.892 74.7782 136.672 74.5934C136.384 74.3507 136.162 74.0606 136.127 73.6394C135.865 70.454 136.089 67.0307 136.092 63.8194L136.1 44.1381L136.109 31.2036C136.11 29.6623 135.913 27.7809 136.113 26.2783C136.131 26.1419 136.282 25.8981 136.359 25.7994C136.462 25.6678 136.814 25.3613 136.956 25.3052C137.674 25.0209 139.21 25.2613 140.008 25.2615L150.287 25.2701C150.284 24.0557 150.122 22.397 150.369 21.2356C150.688 19.7359 151.531 19.024 152.644 18.2696Z" fill="#4C60CD"/>
<path d="M141.751 63.2581L141.973 63.1589C142.671 62.9607 143.543 63.1443 144.266 63.1539L149.057 63.2086C152.895 63.2254 156.905 62.7433 160.723 63.1909C161.117 63.2373 161.404 63.3548 161.721 63.7601C161.933 64.4236 162.066 64.7017 161.966 65.47C161.881 66.1329 161.51 66.4471 161.188 66.7731C160.367 67.0642 159.45 66.9155 158.609 66.9102L153.79 66.8757L146.143 66.8866C144.706 66.904 142.99 67.2253 141.59 66.7015C141.199 66.024 141.092 65.8791 141 64.917C141.123 64.0756 141.363 63.7692 141.751 63.2581Z" fill="white"/>
<path d="M160.666 36.0464C161.392 35.9712 162.256 36.0101 163.003 36.0096L167.39 36.0077L184.186 36.011C184.622 36.1229 184.8 36.1986 185 36.4201C184.919 36.6702 184.818 36.7322 184.505 36.9232C183.653 37.0531 182.345 36.9756 181.442 36.9754L174.701 36.9723L165.598 36.9808C163.942 36.9819 162.174 37.0481 160.542 36.9281C160.157 36.7474 160.099 36.7282 160 36.4753C160.179 36.2131 160.195 36.1995 160.666 36.0464Z" fill="#2C40AA"/>
<path d="M160.599 41.0476C161.182 40.965 162.081 41.015 162.698 41.0149L167.276 41.0133L184.222 41.0273C184.691 41.1905 184.772 41.2588 185 41.5012C184.833 41.7425 184.703 41.782 184.301 41.9366C183.783 42.0157 161.278 42.0375 160.675 41.9034C160.218 41.8018 160.171 41.7159 160 41.5012C160.142 41.249 160.186 41.2214 160.599 41.0476Z" fill="#2C40AA"/>
<path d="M141.633 52.2626C142.506 51.8092 144.148 52.0801 145.106 52.0822L153.533 52.1022L184.276 52.1667C184.754 52.5713 184.786 52.6374 185 53.323C184.855 54.18 184.774 54.2628 184.282 54.8076C184.09 54.8603 183.895 54.9068 183.698 54.9159L174.437 54.9278L155.911 54.9276L146.231 54.9164C144.933 54.9138 143.373 55.1264 142.101 54.8835C141.592 54.7863 141.398 54.4597 141.051 54.0319C141.023 53.8016 140.991 53.5566 141.003 53.323C141.027 52.8422 141.366 52.5367 141.633 52.2626Z" fill="white"/>
<path d="M141.554 57.1865C142.509 56.8485 143.863 57.0723 144.881 57.0768L152.071 57.0805L183.325 57.0368C183.661 57.0437 184.045 57.0119 184.34 57.2494C184.677 57.5211 184.986 57.8749 184.999 58.4054C185.015 59.054 184.753 59.3122 184.423 59.7455L184.21 59.86C183.419 60.1354 182.089 59.9195 181.243 59.9195L173.438 59.9158L142.773 59.8614C142.287 59.8454 141.831 59.8004 141.405 59.48C141.188 59.1404 140.975 58.761 141.002 58.3037C141.035 57.7485 141.254 57.5517 141.554 57.1865Z" fill="white"/>
<path d="M146.571 31.0973C148.137 30.8505 149.677 31.068 151.102 31.8089C152.758 32.6699 154.037 34.253 154.612 36.0996C155.248 38.1428 155.105 39.9885 154.158 41.8971C153.123 43.9836 151.534 45.1209 149.439 45.8071C148.041 46.2041 146.39 45.9605 145.096 45.3314C143.427 44.5195 141.971 42.8768 141.362 41.0452C140.778 39.2906 140.913 37.1077 141.681 35.4403C142.755 33.1098 144.309 31.9134 146.571 31.0973Z" fill="#04BDC1"/>
<path d="M150.885 36L151.444 36.0205C151.82 36.3026 151.876 36.3221 152 36.7577C151.869 37.4521 147.879 41.3003 147.102 42C146.408 41.5913 145.813 41.0256 145.208 40.5064C144.877 40.2263 144.416 39.892 144.173 39.545C143.911 39.1711 144.001 38.9846 144.091 38.5764C144.375 38.3319 144.556 38.2654 144.935 38.2247C145.685 38.5663 146.323 39.255 146.929 39.7926C147.815 38.9986 148.613 38.1109 149.44 37.2605C149.886 36.801 150.297 36.2972 150.885 36Z" fill="#FDFDFC"/>
<path d="M152.328 17.9947L158.368 17.9346C158.363 15.7668 158.481 14.1788 159.923 12.5537C160.76 11.6114 162.007 10.971 163.199 11.001C164.579 11.0358 165.828 11.825 166.743 12.9697C167.054 13.3591 167.27 13.7821 167.497 14.2351C167.988 15.2141 167.803 16.8731 167.786 17.9857C169.724 17.9767 172.25 17.6596 174.085 18.2835L174.272 18.3315C175.332 19.4114 175.903 20.3031 175.995 21.9379L175.988 24.8123C175.974 25.6903 176.115 26.7689 175.701 27.5088C175.459 27.6907 175.208 27.8557 174.911 27.8704L161.1 27.8583L154.351 27.9293C153.282 27.9391 152.058 28.0799 151.003 27.9346C150.629 27.8834 150.357 27.6099 150.094 27.328L150.053 24.7305C150.05 23.5619 149.894 21.966 150.132 20.8485C150.44 19.4055 151.253 18.7205 152.328 17.9947Z" fill="#CACACA"/>
<path d="M163.168 15.0083C163.511 14.9869 163.77 15.0021 164.087 15.1101C164.473 15.2419 164.751 15.4678 164.893 15.7905C165.03 16.1038 165.048 16.6444 164.872 16.9374L164.213 16.9665C163.681 16.9684 162.407 17.0946 162.003 16.8445C162.006 16.4919 161.96 16.0236 162.14 15.6961C162.355 15.3052 162.684 15.1352 163.168 15.0083Z" fill="#212121"/>
<path d="M289.054 25.1044L310.836 25.0663L320.271 25.0542C321.801 25.0546 323.451 24.9172 324.97 25.0783C325.299 25.1132 325.609 25.2443 325.909 25.3987C326.86 25.8902 327.523 26.8543 327.838 27.9756C328.133 29.0266 327.936 30.7372 327.929 31.8484L327.951 39.412L327.993 74.2109L327.904 92.0867C327.891 92.6025 327.86 93.0377 327.632 93.493C326.991 94.7765 326.323 95.3053 325.135 95.8827C323.755 96.1017 322.262 95.9496 320.869 95.9356L313.644 95.9186L298.304 95.8674L289.061 95.8335C288.541 95.8099 287.993 95.7682 287.517 95.4969C286.791 95.0806 286.397 94.476 286.168 93.5925C285.844 92.337 286.088 90.1877 286.095 88.8476L286.113 77.879L286.097 44.8555L286.12 28.9303C286.144 28.2803 286.346 27.5576 286.629 26.9933C287.166 25.9203 288.051 25.4303 289.054 25.1044Z" fill="#EDEDED"/>
<path d="M306.931 90.0907C307.237 90.0155 307.596 89.9556 307.904 90.0442C308.319 90.1631 308.645 90.4335 308.839 90.8296C309.009 91.1786 309.052 91.623 308.931 91.9937C308.769 92.4894 308.448 92.7022 308.022 92.9209C307.805 93.0141 307.494 93.0092 307.258 92.9851C306.901 92.9485 306.565 92.7307 306.351 92.4387C306.105 92.103 305.935 91.5765 306.024 91.1587C306.139 90.6207 306.508 90.3599 306.931 90.0907Z" fill="#C1C1C1"/>
<path d="M295.116 28.0746L314.913 28.024L320.226 28.0236C321.183 28.0253 322.233 27.9113 323.158 28.1994C323.528 28.5441 323.841 28.7638 323.895 29.3689C324.121 31.9131 323.913 34.747 323.908 37.3136L323.89 53.6188L323.879 74.4932C323.879 77.9818 324.067 81.6352 323.854 85.1082C323.822 85.6478 323.687 86.0973 323.357 86.492C323.217 86.658 322.949 86.8901 322.76 86.9455C322.348 87.0667 321.633 86.9477 321.176 86.9488L316.867 86.9577L295.304 86.9542L290.314 86.9475C289.608 86.9465 288.683 87.0744 288.005 86.8652L288.009 50.9671L288 35.5005L288.011 31.2809C288.014 30.4484 287.952 29.6102 288.194 28.8143C288.355 28.6506 288.563 28.3833 288.744 28.2595C289.387 27.8174 294.075 28.0739 295.116 28.0746Z" fill="#4C60CD"/>
<path d="M293.111 35.2415C294.576 34.7774 296.957 35.1256 298.509 35.1225L310.644 35.1133C311.713 35.1142 314.027 34.7931 314.955 35.2798C315.038 35.8698 315.005 36.2249 314.862 36.7948C313.521 37.1668 293.505 36.9707 293.102 36.6978C292.976 36.1323 292.953 35.8001 293.111 35.2415Z" fill="white"/>
<path d="M293.014 61.0099L318 61L317.992 63L293 62.9914L293.014 61.0099Z" fill="#FDFDFC"/>
<path d="M293 56L317.994 56.0063L318 58L293.002 57.9948L293 56Z" fill="#FDFDFC"/>
<path d="M293 48L318 48.0247L317.998 51.9852L293.002 52L293 48Z" fill="#FDFDFC"/>
<path d="M303.24 43L318 43.0312L317.996 45.9842L307.838 46L293.002 45.9965L293 43.0654L303.24 43Z" fill="#FDFDFC"/>
<path d="M296.545 71.1544L297.048 71.0583C298.248 70.9405 299.534 71.038 300.741 71.0356L308.234 71.0316L314.203 71.0451C315.135 71.0494 316.19 70.9457 317.109 71.0714C317.331 71.1016 317.528 71.2662 317.694 71.4227C317.934 71.8092 317.96 72.0562 317.969 72.5113L317.995 77.6979C317.993 78.109 318.047 78.8933 317.844 79.2517C317.753 79.4146 317.559 79.5891 317.438 79.733C317.321 79.8069 317.233 79.8676 317.098 79.8906C315.718 80.126 313.987 79.9084 312.574 79.9082L301.661 79.9055L298.05 79.9038C297.737 79.9036 297.054 80.0011 296.777 79.9032C296.652 79.8597 296.449 79.6496 296.332 79.5606C296.214 79.3541 296.104 79.1316 296.078 78.8838C295.985 77.9937 295.93 72.1417 296.181 71.6146C296.253 71.466 296.441 71.2861 296.545 71.1544Z" fill="#FDFDFC"/>
<path d="M74.4608 91.9097L62.6766 91.9149C60.933 91.9126 58.7418 92.1839 57.0507 91.7694C56.3375 91.5946 55.6792 91.0884 55.1761 90.5001C54.5637 89.7839 54.2097 88.7832 54.1197 87.7991C53.871 85.0829 54.0897 82.1116 54.095 79.3715L54.104 62.354L54.101 39.3211C54.0986 35.717 53.8851 31.983 54.0862 28.3937C54.1358 27.5059 54.6678 26.5978 55.2496 26.032C55.735 25.5601 56.4227 25.1643 57.0663 25.0942C58.8722 24.8973 60.8496 25.0699 62.6707 25.0713L74.6417 25.094L88.9951 25.0884C91.3357 25.0876 93.7582 24.9244 96.0879 25.1044C96.8375 25.1622 97.622 25.7052 98.0868 26.3577C98.4652 26.8886 98.8067 27.625 98.8644 28.3102C98.9678 29.5335 98.8904 30.8536 98.8923 32.0851L98.8915 39.4113L98.8936 62.4571L98.8915 80.5034C98.891 82.9837 99.1603 85.9242 98.8523 88.3562C98.6994 89.5629 97.9243 90.5741 97.0653 91.243C96.6234 91.5871 96.1022 91.8569 95.5655 91.9247C94.4507 92.0656 93.2138 91.9521 92.0881 91.9525L85.4257 91.9478L80.143 91.9363C79.3099 91.9343 78.3385 92.0411 77.5203 91.9153C76.5162 91.8012 75.4699 91.8889 74.4608 91.9097Z" fill="#EDEDED"/>
<path d="M74.6838 86.0932C75.2123 85.9559 75.7553 86.0064 76.3031 86.0221C76.83 86.2501 77.2253 86.4639 77.5615 86.8732C77.973 87.3745 78.0996 87.9801 77.9213 88.5637C77.7166 89.2342 77.1638 89.5278 76.4819 89.8586C76.1101 89.9607 75.6402 90.0183 75.2445 89.9948C74.5494 89.9536 73.8784 89.6497 73.4669 89.2001C73.0489 88.7434 72.9026 88.1869 73.0644 87.6319C73.2941 86.8438 73.8488 86.4741 74.6838 86.0932Z" fill="white"/>
<path d="M59.456 28.0971L81.6002 28.1239L89.3636 28.0632C90.7577 28.0505 92.2227 27.9285 93.611 28.0617C94.0895 28.1077 94.4434 28.2872 94.8269 28.6233C95.3667 29.0964 95.8431 29.7919 95.9121 30.6063C96.1032 32.8592 95.9246 35.348 95.9153 37.6192L95.9026 51.253L95.9199 70.8801C95.9223 74.0382 96.0696 77.3023 95.9093 80.4502C95.8728 81.1646 95.7662 81.6289 95.3628 82.17C94.9181 82.7663 94.3769 82.9272 93.732 82.9723L66.9601 82.907C65.7011 82.9074 58.6293 83.2359 57.9476 82.6557C57.5763 82.3398 57.1418 81.8326 57.096 81.2723C56.8901 78.7612 57.0798 75.9976 57.0778 73.4645L57.0738 56.8513L57.0836 38.9284C57.0852 36.112 56.9014 33.1194 57.0992 30.324C57.1291 29.8979 57.3299 29.5402 57.552 29.2149C58.0891 28.4275 58.6233 28.2008 59.456 28.0971Z" fill="#4C60CD"/>
<path d="M72 75.0594C71.8653 75.5364 71.7255 75.6456 71.3819 76L62.5425 75.9858C62.0762 75.9569 61.6853 75.7356 61.4093 75.3352C60.9413 74.6555 61.0578 73.7239 61.0521 72.9284C61.0373 70.8952 60.8848 68.6011 61.1828 66.6043C61.296 65.8458 61.5138 65.4366 62.0987 65L61.9873 71.2548C61.9707 72.3556 61.8275 73.6162 62.1082 74.6844C62.2138 74.7795 62.4251 75.0277 62.5425 75.0756C63.1271 75.314 64.3699 75.1511 65.0272 75.1471C67.255 75.1337 69.5573 75.2379 71.7768 75.0827L72 75.0594Z" fill="#06A1B0"/>
<path d="M82.6761 43.2538C83.6676 42.8811 89.7364 42.9029 90.5786 43.4257C90.8976 43.9853 90.9254 44.137 91 44.843C90.834 45.3922 90.7547 45.4915 90.412 45.8667C89.2928 46.079 88.0302 45.9457 86.8927 45.9515C85.4826 45.9587 83.9697 46.1137 82.5781 45.8287C82.2046 45.3084 82.1214 45.2019 82 44.5025C82.1684 43.8004 82.2502 43.7253 82.6761 43.2538Z" fill="#FDFDFC"/>
<path d="M62.5685 55.1683C63.7875 54.8618 65.5659 55.0678 66.875 55.0671L77.3142 55.1072C77.7148 55.3763 77.8299 55.4231 78 55.8366C77.8974 56.4153 77.8441 56.4761 77.397 56.861C75.5663 57.1272 73.388 56.9276 71.5147 56.936L66.0269 56.9552C64.8801 56.9575 63.6982 57.02 62.5629 56.8601C62.216 56.6019 62.1669 56.5125 62 56.1336C62.083 55.5973 62.1643 55.5372 62.5685 55.1683Z" fill="#FDFDFC"/>
<path d="M62.6624 43.2044C63.8294 42.8231 65.5466 43.0926 66.7775 43.0899L74.1421 43.0907C75.1514 43.0936 76.5882 42.8521 77.5046 43.3483C77.9185 43.9056 77.9231 43.9622 78 44.7428C77.7654 45.3485 77.6945 45.4298 77.257 45.7896C76.0668 46.1684 74.3557 45.9073 73.1045 45.913L65.6915 45.9327C64.7172 45.9327 63.2878 46.1797 62.4012 45.727C62.1027 45.2884 62.0431 44.9967 62 44.4132C62.1739 43.759 62.2606 43.6576 62.6624 43.2044Z" fill="#FDFDFC"/>
<path d="M77.9622 67.1563C79.1162 66.8738 80.6535 67.0613 81.8477 67.0576L89.167 67.0534C89.7681 67.0713 90.1851 67.153 90.5977 67.6542C91.0151 68.1613 91.0248 68.7341 90.9844 69.3693C90.6952 70.0562 90.4622 70.362 89.8615 70.7639C89.0777 71.0112 88.0217 70.89 87.2013 70.8956L81.9149 70.9201C80.8241 70.9232 79.267 71.1307 78.2262 70.8645C77.8063 70.757 77.5204 70.4417 77.297 70.0602C76.9975 69.5486 76.9253 68.7561 77.0768 68.1706C77.2224 67.6065 77.5286 67.4422 77.9622 67.1563Z" fill="white"/>
<path d="M62.8704 48.267C63.8717 47.972 65.0486 48.1564 66.0714 48.1515L72.0821 48.1408L84.4842 48.1586C86.2558 48.1654 88.7337 47.6392 90.4207 48.4672C90.8004 49.0905 90.9022 49.1979 91 50.1359C90.7896 51.1269 90.7406 51.2424 90.2577 51.8695C88.0383 52.1361 85.7168 51.9116 83.486 51.9122L70.1506 51.9048L64.6064 51.887C63.9427 51.8831 62.9724 52.1325 62.383 51.5587C62.0866 50.8255 62.0614 50.6062 62 49.7047C62.2779 48.8608 62.4054 48.723 62.8704 48.267Z" fill="#FDFDFC"/>
<path d="M62.6156 37.1792C62.8884 37.092 63.1372 37.0464 63.4175 37.044L84.5917 37.0161L88.936 37.0208C89.305 37.0218 90.1529 36.9274 90.4658 37.1326C90.5985 37.2199 90.8148 37.599 90.9299 37.7527C90.96 38.0308 91.0273 38.4361 90.988 38.712C90.9014 39.3202 90.6575 39.4798 90.3087 39.8067L89.8728 39.9114C88.3457 40.0994 86.6781 39.9296 85.133 39.9309L75.1257 39.9304L66.8141 39.9198C65.591 39.9168 64.2268 40.0868 63.0277 39.8914C62.6046 39.8225 62.4647 39.6173 62.1503 39.2593C62.0524 38.9603 61.9775 38.708 62.0062 38.3737C62.0652 37.6882 62.2539 37.5886 62.6156 37.1792Z" fill="#FDFDFC"/>
<path d="M62.1552 65.5422C62.2505 65.4573 62.4773 65.1986 62.5789 65.1647C63.1488 64.9756 64.2357 65.1471 64.8745 65.1418C66.8276 65.1255 69.1459 64.8404 71.0672 65.1276C71.5012 65.1926 71.5589 65.2783 71.795 65.6526C71.9441 67.4219 72.2508 74.4826 71.6075 75.8507L71.3944 75.8745C69.2756 76.0336 67.0777 75.9268 64.9509 75.9405C64.3234 75.9446 63.137 76.1116 62.5789 75.8672C62.4668 75.8181 62.2651 75.5639 62.1643 75.4663C61.8963 74.3717 62.033 73.0799 62.0488 71.9519L62.1552 65.5422Z" fill="white"/>
<path d="M67.2535 68.0585C67.3713 68.0329 67.5238 67.989 67.6481 68.0025C67.7903 68.0183 68.0385 68.1038 68.1277 68.215C68.573 68.7705 68.1796 69.4358 68.4889 69.9326C68.6937 70.2614 69.5318 69.9589 70 70.4325C69.9885 72.0096 68.8044 70.913 68.3684 71.5984C68.0633 72.0779 68.453 72.4558 67.9039 72.9978C67.4103 72.9978 67.2435 73.0407 66.831 72.7508L66.7534 71.9277C66.5924 71.1077 66.1587 71.6404 65.5914 71.4107C65.429 71.345 65.2284 71.1633 65.0792 71.0616L65 70.5281C65.4784 69.9495 66.3219 70.402 66.6683 70.0341C66.8229 69.8698 66.6631 68.7366 66.8095 68.4463C66.8608 68.3445 67.1538 68.1455 67.2535 68.0585Z" fill="#FDFDFC"/>
<path d="M162.811 106C163.359 106.012 163.542 106.148 163.959 106.317C163.976 106.968 164.183 107.43 163.476 108L162.442 107.935L162.031 107.585C162.037 106.846 161.751 106.545 162.811 106Z" fill="#4C60CD"/>
<path d="M162.471 102.017C162.809 101.993 163.147 102.001 163.487 102.001L163.947 102.417C164.021 103.001 164.112 103.417 163.502 103.935L162.685 104L162.124 103.696C162.039 103.127 161.765 102.501 162.471 102.017Z" fill="#4C60CD"/>
<path d="M162.533 99.0019L163.432 99L163.96 99.3065C163.969 99.9352 164.199 100.443 163.446 100.982L162.563 101L162.032 100.677C162.029 100.055 161.815 99.5409 162.533 99.0019Z" fill="#4C60CD"/>
<path d="M162.617 95.0987L163.373 95L163.956 95.3297C163.969 96.3069 164.187 97.1506 163.517 98L162.475 97.9592C162.292 97.7695 162.156 97.6464 162.093 97.4084C161.865 96.5421 162.061 95.8244 162.617 95.0987Z" fill="#4C60CD"/>
<path d="M162.569 88.0064L163.492 88L163.975 88.3042C163.986 88.9476 164.147 89.3616 163.492 89.9372L162.873 90C162.416 89.8588 162.241 89.8471 162.117 89.5695C161.864 89.0009 162.023 88.4984 162.569 88.0064Z" fill="#4C60CD"/>
<path d="M162.338 91.0784L163.392 91L163.919 91.3687C164.062 91.9368 164.049 92.2867 163.604 92.8199L162.795 93L162.056 92.6748C162.012 92.1332 161.867 91.5848 162.338 91.0784Z" fill="#4C60CD"/>
<path d="M162 112L162.041 110.222L162.656 110L163.484 110.059C164.207 110.559 163.966 111.378 163.944 111.981L162 112Z" fill="#4C60CD"/>
<path d="M119.782 152L119.926 153.938C118.738 154.515 117.82 155.226 117.312 156.675C116.846 158.001 116.749 159.473 117.259 160.806C117.78 162.168 118.722 163.093 119.904 163.607L120 163.647C119.575 164.532 119.548 165.01 119.576 166C119.215 165.909 118.841 165.687 118.512 165.493C117.054 164.628 115.762 163.039 115.276 161.186C114.802 159.38 114.937 157.272 115.696 155.592C116.571 153.654 118.053 152.632 119.782 152Z" fill="#D82638"/>
<path d="M113.104 178.405C113.104 176.744 112.77 168.559 113.3 167.475C114.523 166.668 118.102 167.124 119.591 167.169C119.66 167.26 119.878 167.488 119.906 167.585C120.114 168.323 119.913 169.999 119.915 170.819L119.92 182.996L113.81 183L113.268 182.498C112.889 181.532 113.106 179.506 113.104 178.405Z" fill="#D82638"/>
<path d="M114.024 168L118.996 168.027L119 179.974L114 180L114.024 168Z" fill="#FDFDFC"/>
<path d="M120.218 166C120.86 166.092 121.5 166.203 122.149 166.198L128.17 166.198L128.19 169.731L128.201 179.365L128.212 182.588C128.637 182.912 129.465 182.808 130 182.824L119.347 183L119.342 170.667C119.339 169.836 119.551 168.139 119.332 167.391C119.303 167.292 119.072 167.062 119 166.97L119.084 166.96C119.515 166.852 119.974 166.37 120.218 166Z" fill="#A30E39"/>
<path d="M122.003 169.005L125 169L124.984 180L122 179.972L122.003 169.005Z" fill="#FDFDFC"/>
<path d="M134.131 152L127.556 127.178L125.809 120.479C125.522 119.398 125.028 118.102 125.001 116.972C124.972 115.71 125.475 114.419 126.264 113.536C126.813 112.921 127.554 112.365 128.316 112.17C129.52 111.863 131.148 112.067 132.407 112.061L142.011 112.036C141.195 112.663 140.213 113.423 139.991 114.597C139.875 115.212 139.861 115.969 139.994 116.583C140.778 120.218 142.042 123.798 143.035 127.37L148.749 147.611C149.103 148.826 149.408 150.94 150 151.962L134.131 152Z" fill="#05245A"/>
<path d="M134.26 152.037L150.053 152L159.268 152.119C159.68 152.723 159.609 152.89 159.604 153.628C159.201 154.118 159.119 154.158 158.532 154.179L157.066 154.078L157.056 155.537L157.004 163.44L157.096 163.466L157.142 163.645C158.033 163.644 158.887 163.43 159.598 164.059C159.759 164.783 159.655 165.252 159.469 165.955C163.076 166.157 166.763 165.96 170.38 165.927C171.579 165.915 173.684 165.571 174.704 166.182C175.036 166.828 175.014 167.031 174.984 167.748C174.726 168.18 174.578 168.518 174.077 168.613C173.065 168.805 172.409 168.451 171.517 169.148L171.295 169.578C170.879 171.213 170.75 172.623 170.782 174.319C171.009 176.041 171.364 177.538 172.265 179C171.141 178.791 169.722 178.968 168.573 178.966L160.26 178.937L127.28 178.921L127.27 169.466L127.25 165.999L121.564 165.999C120.952 166.005 120.347 165.895 119.741 165.805C119.711 164.836 119.74 164.368 120.178 163.501L120.079 163.462C118.86 162.959 117.889 162.054 117.352 160.72C116.826 159.415 116.927 157.974 117.407 156.676C117.931 155.258 118.876 154.562 120.101 153.997L119.953 152.1L134.26 152.037Z" fill="#FB6E69"/>
<path d="M150.911 163L151.01 163.112C151.14 163.278 151.161 163.382 151.2 163.587C152.011 163.686 153.011 163.861 153.689 163.292L157.228 163.307C158.116 163.306 158.965 163.1 159.672 163.704C159.833 164.398 159.73 164.849 159.544 165.523C163.134 165.718 166.803 165.528 170.402 165.496C171.595 165.485 173.691 165.155 174.706 165.741C175.036 166.361 175.014 166.555 174.984 167.244C174.727 167.659 174.581 167.983 174.081 168.074C173.074 168.258 172.421 167.919 171.534 168.587L171.312 169L127.501 168.893L127.482 165.566L121.823 165.566C121.213 165.571 120.611 165.466 120.008 165.379C119.979 164.449 120.007 164 120.443 163.168L121.254 163.283L150.911 163Z" fill="#F54844"/>
<path d="M151.104 163L151.204 163.131C151.335 163.325 151.356 163.446 151.395 163.686C152.211 163.802 153.217 164.007 153.9 163.341L157.461 163.359C158.354 163.357 159.208 163.117 159.92 163.823C160.081 164.635 159.978 165.161 159.791 165.95L127.528 166L121.834 166C121.221 166.006 120.615 165.883 120.008 165.782C119.979 164.694 120.007 164.169 120.446 163.197L121.262 163.331L151.104 163Z" fill="#FCA62C"/>
<path d="M120.486 164L121.376 164.095C121.976 164.616 121.942 165.326 122 166C121.331 166.004 120.671 165.917 120.009 165.844C119.977 165.068 120.008 164.694 120.486 164Z" fill="#FA8049"/>
<path d="M134.417 152.037L150.354 152L159.653 152.119C160.069 152.72 159.997 152.887 159.992 153.622C159.585 154.11 159.502 154.149 158.91 154.17L157.431 154.07L157.421 155.523L157.369 163.396L157.461 163.421L157.507 163.6L153.919 163.584C153.23 164.175 152.217 163.994 151.395 163.891C151.355 163.678 151.334 163.57 151.202 163.398L151.102 163.281L121.029 163.575L120.207 163.456L120.107 163.418C118.877 162.916 117.897 162.014 117.355 160.686C116.825 159.386 116.926 157.951 117.41 156.658C117.939 155.246 118.893 154.552 120.13 153.989L119.98 152.1L134.417 152.037Z" fill="#FDFDFC"/>
<path d="M122.001 156.195C122.982 155.931 142.054 155.936 143 156.203V156.779C142.435 157.019 123.176 157.106 122 156.822L122.001 156.195Z" fill="#79CCE0"/>
<path d="M122.072 159.352C123.307 158.703 124.855 159.151 126.122 159.147L135.141 159.138L140.193 159.156C140.963 159.161 141.893 158.889 142.647 159.185C142.79 159.241 142.88 159.421 142.996 159.625L143 161.453C142.874 161.605 142.779 161.727 142.639 161.773C141.099 162.28 139.277 161.782 137.713 161.766L126.257 161.629L123.241 161.59C123.01 161.587 122.42 161.768 122.222 161.577C122.127 161.485 122.074 161.214 122 161.033L122.072 159.352Z" fill="#79CCE0"/>
<path d="M134.43 152.037L150.359 152L159.653 152.119C160.069 152.72 159.997 152.887 159.992 153.622C159.585 154.11 159.503 154.149 158.91 154.17L157.432 154.07L157.422 155.523L157.37 163.396L157.463 163.421L157.508 163.6L153.922 163.584C153.234 164.175 152.221 163.994 151.399 163.891C151.36 163.678 151.338 163.57 151.207 163.398L151.106 163.281C150.709 162.977 150.333 162.663 149.993 162.28C149.081 161.25 148.675 160.018 148.716 158.578C148.774 156.498 149.901 155.392 151.177 154.067L120.15 153.989L120 152.1L134.43 152.037Z" fill="#F38B15"/>
<path d="M153.275 163.982L152.553 163.85C152.445 163.829 152.339 163.815 152.235 163.754C151.553 163.349 150.67 162.167 150.385 161.06L150.147 160.142C149.958 159.401 149.977 158.445 150.06 157.662C150.211 156.23 150.856 154.979 151.575 154.175C152.761 152.85 154.567 152.82 155.942 153.237L155.935 154.877L155.895 163.769L155.965 163.798L156 164L153.275 163.982Z" fill="#FCA62C"/>
<path d="M153.275 163.982L152.553 163.85C152.445 163.829 152.339 163.815 152.235 163.754C151.553 163.349 150.67 162.167 150.385 161.06L150.147 160.142C149.958 159.401 149.977 158.445 150.06 157.662C150.211 156.23 150.856 154.979 151.575 154.175C152.761 152.85 154.567 152.82 155.942 153.237L155.935 154.877C154.555 154.858 152.76 154.326 151.704 156.076C151.165 156.969 151.056 158.034 151.077 159.247C151.1 160.594 151.503 161.896 152.103 162.803C152.298 163.097 152.685 163.665 152.949 163.769C153.751 164.082 155.043 163.8 155.895 163.769L155.965 163.798L156 164L153.275 163.982Z" fill="#F7AF29"/>
<path d="M151.063 112.025L152.53 112L185.513 112.008L187.081 161.259L195.622 161.197L198 167.652L197.627 167.977L189.453 168.006C188.586 168.009 186.949 167.832 186.338 168.277L186.221 169.211L167.968 173.496L163.074 174C163.029 172.292 163.213 170.873 163.808 169.227L164.127 168.794C165.404 168.093 166.343 168.45 167.792 168.256C168.51 168.16 168.721 167.821 169.092 167.385C169.134 166.664 169.166 166.46 168.691 165.809C167.23 165.195 164.215 165.541 162.499 165.552C157.32 165.586 152.041 165.785 146.876 165.581C147.143 164.873 147.291 164.401 147.061 163.672C146.043 163.039 144.821 163.255 143.544 163.256L143.479 163.076L143.347 163.05L143.422 155.094L143.435 153.627L145.534 153.727C146.375 153.707 146.492 153.666 147.07 153.173C147.077 152.43 147.179 152.263 146.589 151.655L133.394 151.535C132.549 150.527 132.115 148.441 131.61 147.243L123.469 127.275C122.054 123.752 120.253 120.22 119.135 116.635C118.946 116.029 118.966 115.282 119.131 114.676C119.447 113.518 120.847 112.767 122.009 112.149C124.962 111.872 128.326 112.068 131.318 112.057L151.063 112.025Z" fill="#2C40AA"/>
<path d="M159.453 136.051C160.215 136.02 161.097 135.893 161.823 136.213C163.008 136.735 164.052 137.874 164.569 139.226C165.113 140.652 165.148 142.217 164.641 143.667C164.035 145.396 163.078 146.183 161.64 146.9C160.744 147.035 159.79 147.091 158.936 146.687C157.778 146.14 156.853 145.09 156.362 143.749C155.894 142.469 155.876 140.623 156.33 139.327C156.931 137.607 158.05 136.763 159.453 136.051Z" fill="#FDFDFC"/>
<path d="M184.387 162.058L191.906 162L194 168.05L193.671 168.355L186.476 168.382C185.712 168.385 184.271 168.219 183.733 168.636L183.63 169.512L167.56 173.527L163.252 174C163.212 172.399 163.374 171.069 163.898 169.527L164.179 169.121C165.303 168.464 166.13 168.798 167.405 168.616C168.038 168.526 168.223 168.208 168.549 167.8C168.587 167.124 168.615 166.933 168.196 166.323C166.91 165.747 164.256 166.071 162.745 166.082C158.186 166.114 153.538 166.3 148.991 166.109C149.226 165.446 149.356 165.003 149.153 164.32C148.257 163.727 147.181 163.929 146.057 163.93L146 163.761C146.019 163.3 146.039 162.873 146.18 162.424L184.387 162.058Z" fill="#05245A"/>
<path d="M220.385 90.8368C222.216 90.1072 223.177 88.1111 224.793 87L229.151 92.4212C230.407 93.8967 231.917 95.4139 232.9 97.1521L233.512 96.7018C234.176 96.6543 234.606 96.6034 235.159 97.0802C235.724 96.1098 236.626 95.1752 237.312 94.3017L242.737 87.4809L243.351 87.0215C244.587 87.7509 245.775 88.7371 246.943 89.6098C247.467 90.0009 248.281 90.486 248.662 91.0499L249.504 91.3993L262.23 94.3197C268.712 95.7543 275.456 96.1162 279.475 103.08L280.276 104.678C281.039 106.562 281.712 108.397 281.874 110.494C282.089 113.262 281.932 116.205 281.937 118.991L281.95 135.877L281.946 157.3C281.945 160.947 282.09 164.675 281.909 168.309C281.874 168.958 281.739 169.607 281.55 170.217C281.086 171.713 280.298 172.788 279.182 173.698C276.469 175.174 272.821 174.609 269.874 174.542C269.878 175.829 270.123 182.345 269.716 183L269.719 174.526L235.712 174.523C235.724 173.548 235.922 171.737 235.602 170.881L235.568 170.799L235.532 170.631L232.128 170.659L232.029 168.546L215.696 168.542L215.698 168.443L199.95 168.452L196.067 168.457C195.545 168.458 194.946 168.582 194.498 168.235L192.88 161.741L187.067 161.803L186 112.257C186.157 107.711 187.501 104.258 189.976 100.79C192.807 97.3587 196.292 95.525 200.41 95.5482C201.662 95.5553 202.535 95.9388 203.792 95.5234L203.891 95.4892L218.753 91.2646L220.385 90.8368Z" fill="#09437E"/>
<path d="M233 157.188C233.921 156.875 235.017 157.043 235.965 157.061L235.959 167.568C235.957 168.496 236.101 170.13 235.86 170.97L233.088 171L233.007 168.717L233 157.188Z" fill="#FDFDFC"/>
<path d="M197.093 114L197.209 114.013C197.593 114.819 197.834 116.431 197.935 117.538C198.073 119.058 197.95 120.815 197.94 122.368C197.928 124.181 198.021 135.132 197.758 135.942L197.061 136L196 135.996C196.035 131.485 196.22 127.007 196.444 122.523C196.586 119.68 196.683 116.744 197.093 114Z" fill="#05245A"/>
<path d="M228 154.076C228.645 153.597 230.038 153.819 230.831 153.818H238.174L269.184 153.882L269.171 127.479L269.168 119.551C269.162 118.233 269.055 116.815 269.164 115.506C269.195 115.128 269.368 114.874 269.6 114.616C269.986 114.186 270.181 114.127 270.713 114C271.122 114.19 271.659 114.596 271.865 115.066C272.044 115.469 272.055 155.34 271.838 155.904C271.687 156.299 271.342 156.691 270.978 156.824C270.4 157.034 269.589 156.93 268.976 156.933L264.573 156.945L245.456 156.93C242.345 156.914 239.046 156.622 235.956 156.882C234.779 156.866 233.415 156.712 232.271 156.999C231.33 157.063 228.886 154.764 228 154.076Z" fill="#05245A"/>
<path d="M192.147 161.392C191.894 159.417 191.201 157.337 190.726 155.398L188.27 145.198C187.844 143.503 186.891 141.082 187.01 139.386C187.085 138.322 187.798 137.806 188.489 137.16C189.379 136.973 190.435 137.085 191.343 137.086L196.908 137.081L207.163 137.049C208.938 137.044 210.777 136.932 212.542 137.065C212.931 137.094 213.26 137.185 213.594 137.401L213.891 137.593C214.573 138.042 215.155 138.719 215.5 139.499C216.255 141.209 216.567 143.466 217.014 145.309L219.101 153.625L225.19 153.612C225.579 153.611 226.561 153.479 226.896 153.608C227.418 153.81 228.103 154.441 228.59 154.777C229.503 155.45 232.021 157.7 232.991 157.637L233 168L215.957 167.995L215.959 167.9L199.525 167.908L195.473 167.914C194.928 167.914 194.304 168.035 193.836 167.697L192.147 161.392Z" fill="#CAE8F4"/>
<path d="M202.355 147.011C202.874 146.999 203.431 146.959 203.927 147.166C205.105 147.658 206.098 148.767 206.619 150.134C207.024 151.203 207.148 152.457 206.784 153.574C206.377 154.826 205.639 155.457 204.667 155.989C204.038 156.018 203.385 156.009 202.794 155.714C201.717 155.176 200.713 153.908 200.28 152.596C199.931 151.538 199.886 150.274 200.273 149.223L200.31 149.122C200.719 148.01 201.456 147.453 202.355 147.011Z" fill="#79CCE0"/>
<path d="M219.454 153.076L225.389 153.062C225.768 153.062 226.725 152.925 227.051 153.059C227.56 153.268 228.228 153.923 228.702 154.272C229.592 154.971 232.046 157.307 232.991 157.242L233 168L216.39 167.995L216.392 167.896C216.383 167.396 216.372 166.94 216.255 166.452L215.385 166.145L215.262 166.144C214.766 166.044 214.6 165.812 214.305 165.39C214.272 164.884 214.186 164.607 214.474 164.171C214.823 163.643 215.484 163.574 216.015 163.484C215.909 162.897 215.651 162.281 215.46 161.718C214.871 161.729 214.382 161.77 213.849 161.431C213.481 160.902 213.478 160.748 213.43 160.101C213.564 159.674 213.712 159.53 214.045 159.297L214.904 158.98C214.977 158.448 214.847 158.118 214.669 157.643L213.849 157.412C213.324 157.192 213.234 157.004 213 156.459C213.024 156.04 213.033 155.505 213.319 155.194C213.43 155.072 213.701 154.83 213.849 154.78C214.181 154.668 214.94 154.779 215.316 154.779L219.67 154.831L219.797 154.639C219.775 154.102 219.595 153.585 219.454 153.076Z" fill="#F9A976"/>
<path d="M215.705 164L215.828 164.024C217.493 164.333 219.379 164.11 221.072 164.121C221.689 164.125 222.423 164.024 223.016 164.211C223.409 164.335 223.643 164.583 223.908 164.974C223.984 165.421 224.088 165.876 223.866 166.28C223.643 166.69 223.422 166.929 223.036 167L215.091 166.983L214.971 166.982C214.487 166.87 214.325 166.609 214.037 166.137C214.005 165.57 213.921 165.259 214.201 164.77C214.543 164.178 215.187 164.102 215.705 164Z" fill="#FA8049"/>
<path d="M213.611 159.255C215.05 159.047 222.9 158.61 223.651 159.776C223.824 160.044 223.916 160.411 224 160.783C223.909 161.742 223.784 161.935 223.431 162.633C222.777 163.166 221.855 162.96 221.141 162.964C219.163 162.975 216.968 162.603 215.016 162.988C214.43 163.006 213.945 163.068 213.416 162.546C213.051 161.731 213.047 161.492 213 160.495C213.133 159.837 213.28 159.615 213.611 159.255Z" fill="#FA8049"/>
<path d="M214.62 158L213.824 157.682C213.314 157.381 213.227 157.123 213 156.374C213.023 155.799 213.032 155.063 213.309 154.637C213.417 154.47 213.68 154.137 213.824 154.069C214.145 153.915 214.882 154.067 215.247 154.067L219.471 154.138L219.558 154.163C220.8 154.484 222.977 153.571 223.76 155.407C223.876 155.674 223.936 155.94 224 156.245C223.821 156.954 223.654 157.123 223.293 157.586C221.21 157.919 219.054 157.779 216.959 157.815C216.284 157.826 215.245 157.637 214.62 158Z" fill="#FA8049"/>
<path d="M221.263 90.8366C223.106 90.107 224.074 88.1111 225.701 87L230.089 92.4208C231.354 93.8962 232.874 95.4134 233.864 97.1514L234.48 96.7012C235.149 96.6537 235.582 96.6028 236.138 97.0795C236.707 96.1092 237.615 95.1747 238.306 94.3013L243.768 87.4809L244.386 87.0215C245.632 87.7508 246.828 88.737 248.004 89.6096C248.531 90.0007 249.35 90.4857 249.735 91.0496L250.583 91.399L256 102.896L249.582 106.742L253.093 110.918L234.799 151C234.254 150.076 233.838 148.93 233.365 147.941L228.554 136.965L219.082 115.55L217.794 112.641C217.578 112.195 217.174 111.565 217.078 111.079C216.978 110.582 219.369 106.127 219.809 105.184L213 102.251L219.619 91.2643L221.263 90.8366Z" fill="#3B54C2"/>
<path d="M236 103C238.464 103.801 240.023 105.23 242.208 106.511C242.702 105.549 243.133 104.27 243.793 103.45L244 103.388L238.239 131C237.541 128.255 237.668 124.817 237.444 121.959L236 103Z" fill="#FDFDFC"/>
<path d="M222 90.7426C223.755 90.0309 224.677 88.0838 226.227 87L230.405 92.2881C231.61 93.7274 233.058 95.2073 234 96.9028L231.637 99.8857L233.7 102.729L233.482 102.899L227.992 106C227.556 105.232 227.138 104.415 226.593 103.747L226.31 103.705C226.123 103.538 225.785 102.162 225.68 101.844C224.918 99.5482 224.069 97.2859 223.424 94.9403L222 90.7426Z" fill="#FDFDFC"/>
<path d="M223 95L228.627 103.12L231.792 99.9187L234 102.746L233.767 102.916L227.89 106C227.423 105.236 226.976 104.423 226.392 103.759L226.089 103.718C225.889 103.551 225.527 102.183 225.415 101.866C224.6 99.583 223.691 97.333 223 95Z" fill="#CAE8F4"/>
<path d="M242.823 87.4539L243.463 87C244.752 87.7206 245.99 88.6948 247.208 89.5569C247.754 89.9432 248.602 90.4224 249 90.9795L248.298 91.1495C248.092 91.5316 246.964 93.8685 246.748 93.9679C245.699 96.3331 244.395 98.5761 243.393 100.962C243.146 101.551 243.116 102.555 242.857 103.015L242.665 103.075C242.054 103.858 241.654 105.081 241.196 106C239.172 104.776 237.727 103.41 235.443 102.645L235.342 102.486C234.7 103.057 234.304 103.406 233.441 103.294C233.023 103.24 232.631 103.073 232.242 102.907L230 100.028L232.569 97.0075L233.207 96.5627C233.899 96.5158 234.348 96.4655 234.924 96.9365C235.513 95.9779 236.453 95.0547 237.168 94.1918L242.823 87.4539Z" fill="#FDFDFC"/>
<path d="M238.12 99.3388C239.133 99.9418 240.189 101.614 240.982 102.589L245.457 96.5822C246.241 95.4813 246.958 94.0313 247.882 93.1168L248 93C246.897 95.5554 245.525 97.9789 244.47 100.557C244.21 101.193 244.178 102.278 243.906 102.775L243.705 102.84C243.061 103.686 242.641 105.007 242.159 106C240.029 104.678 238.509 103.202 236.107 102.375L236 102.203L238.12 99.3388Z" fill="#CAE8F4"/>
<path d="M232.793 96.4891L233.487 96.0299C234.24 95.9815 234.727 95.9296 235.354 96.4157C236.139 97.5092 237.074 98.4458 238 99.4075L235.809 102.144C235.111 102.733 234.68 103.094 233.742 102.979C233.287 102.923 232.86 102.75 232.438 102.579L230 99.6073L232.793 96.4891Z" fill="#D82638"/>
<path d="M232.847 102.436C233.226 102.607 233.609 102.78 234.018 102.836C234.861 102.951 235.248 102.59 235.874 102L235.973 102.164L237.28 120.886C237.483 123.709 237.368 127.104 238 129.815L234.199 151L230.796 131.458L225 103.458L225.301 103.501C225.88 104.2 226.323 105.055 226.787 105.859L232.616 102.614L232.847 102.436Z" fill="#F54844"/>
<path d="M234 103L232.488 124.236C232.291 126.718 232.343 129.582 231.85 132L225 103.848L225.355 103.892C226.039 104.595 226.564 105.454 227.111 106.262L234 103Z" fill="#FDFDFC"/>
<path d="M230.288 76.0335C231.278 75.8443 231.937 76.508 232.892 76.7473C234.527 77.1575 235.896 76.7786 237.336 76.145C237.789 76.2934 237.774 76.2901 238 76.651L237.713 77.1141C237.394 77.3417 237.021 77.5077 236.639 77.6524C235.117 78.2295 233.232 78.0177 231.717 77.5289C231.047 77.3129 230.297 76.9883 230 76.4218L230.288 76.0335Z" fill="#D5352F"/>
<path d="M234.9 63L235.209 63.0389C235.254 63.1211 235.437 63.4017 235.45 63.4844C235.487 63.7251 235.354 64.5077 235.33 64.778C235.159 66.6284 234.756 68.9523 234.798 70.7871C235.212 70.8366 235.628 70.7677 235.976 71.1516L236 71.7166L235.748 72L234 71.9249L234 71.8216C234.015 70.5063 234.541 63.5715 234.9 63Z" fill="#D5352F"/>
</svg>
