<svg width="645" height="430" viewBox="0 0 645 430" fill="none" xmlns="http://www.w3.org/2000/svg">
<g clip-path="url(#clip0_31_2)">
<path d="M319.5 126.5C295.1 98.9 219 98.6667 184 102V279H198L249.5 297.5H306.5L319.5 308.5L337.5 297.5H470V241.5V210V102C440.8 92.4 357.5 114.333 319.5 126.5Z" fill="white"/>
<path d="M339.365 192.39L343.076 196.527C341.884 197.425 340.471 198.127 339.176 198.873L339.365 192.39Z" fill="#E0E0E0"/>
<path d="M205.502 165.61C205.188 164.906 204.929 164.927 204.24 164.637L204.228 159.158L208.44 158.477C207.027 160.909 206.341 162.97 205.502 165.61Z" fill="#E0E0E0"/>
<path d="M426.053 192.115L438.269 191.851L438.092 195.176C437.089 194.469 436.043 193.536 434.779 193.449C433.65 194.331 433.377 195.703 432.684 196.904C430.529 195.383 428.392 194.136 426.02 192.981L426.053 192.115Z" fill="#E0E0E0"/>
<path d="M426.019 192.981C428.392 194.136 430.529 195.383 432.683 196.904L429.253 202.065C427.136 201.066 425.23 199.769 423.281 198.483C424.52 196.68 425.389 195.09 426.019 192.981Z" fill="#7A8285"/>
<path d="M211.553 153.724C210.301 152.959 205.52 153.421 203.878 153.419L203.92 147.459L214.976 147.831C214.155 149.826 213.053 152.136 211.553 153.724Z" fill="#E0E0E0"/>
<path d="M346.679 199.81L352.317 203.746C347.676 205.247 343.416 207.491 339.246 210.001L339.41 204.202L346.679 199.81Z" fill="#E0E0E0"/>
<path d="M216.542 142.068L203.831 141.942L203.826 136.079L219.96 136.32C218.5 138.074 217.331 139.915 216.542 142.068Z" fill="#E0E0E0"/>
<path d="M129.153 166.747C129.271 162.063 127.832 157.612 126.491 153.182L133.519 156.722C136.529 159.012 138.946 161.752 140.787 165.062L135.019 165.22C133.91 165.206 132.292 164.99 131.266 165.348C130.518 165.61 129.775 166.261 129.153 166.747Z" fill="#263238"/>
<path d="M280.907 197.266C287.637 199.119 294.169 202.927 299.561 207.298L299.54 212.713C293.325 207.587 286.401 203.681 278.571 201.669L277.779 201.916L277.721 199.372L279.983 199.112C280.757 198.49 280.69 198.21 280.907 197.266Z" fill="#E0E0E0"/>
<path d="M412.001 180.807L438.613 180.51L438.617 186.13L428.203 186.028C427.036 186.019 425.406 185.768 424.335 186.183C423.76 185.837 423.218 184.995 422.723 184.505C421.698 183.491 420.241 182.865 418.857 182.517C415.856 181.76 413.363 182.703 410.796 184.134L412.001 180.807Z" fill="#E0E0E0"/>
<path d="M278.1 184.958C285.916 187.113 293.289 190.649 299.459 195.946L299.478 201.309C293.708 196.446 285.627 191.822 278.042 191L278.1 184.958Z" fill="#E0E0E0"/>
<path d="M414.168 169.406L438.394 169.179L438.336 174.51L413.546 174.749L414.168 169.406Z" fill="#E0E0E0"/>
<path d="M360.553 231.096C360.824 233.427 361.217 234.851 362.422 236.884C354.119 239.148 346.703 241.542 339.203 245.862L339.163 240.358C345.875 235.8 352.702 233.053 360.553 231.096Z" fill="#E0E0E0"/>
<path d="M275.356 206.4C281.089 207.992 286.786 209.889 291.867 213.053C294.624 214.769 297.009 216.853 299.539 218.864L299.569 224.377C296.746 222.17 293.89 219.9 290.797 218.079C285.406 214.904 278.921 212.632 272.821 211.226L275.356 206.4Z" fill="#E0E0E0"/>
<path d="M360.576 207.414L364.709 208.563L364.718 212.183C355.709 214.318 346.986 216.731 339.194 221.938L339.201 216.352C344.032 213.105 349.307 210.455 354.879 208.725C356.685 208.164 358.629 208.19 360.372 207.499L360.576 207.414Z" fill="#E0E0E0"/>
<path d="M413.048 157.836L438.369 157.211L438.323 163.059C435.274 163.063 415.582 162.748 414.007 163.736C413.512 161.868 413.43 159.76 413.048 157.836Z" fill="#E0E0E0"/>
<path d="M364.809 218.419L364.872 223.552L363.372 224.638C361.769 224.372 360.095 224.984 358.553 225.376C351.505 227.163 345.392 230.104 339.185 233.821L339.229 228.067C347.174 223.064 355.603 220.06 364.809 218.419Z" fill="#E0E0E0"/>
<path d="M408.712 146.276L438.386 146.01L438.348 151.529L417.77 151.631C415.794 151.726 413.253 151.619 411.411 152.38L408.712 146.276Z" fill="#E0E0E0"/>
<path d="M265.919 221.327C267.288 219.885 268.429 218.209 269.612 216.613C276.551 217.904 283.81 220.008 289.965 223.54C293.401 225.512 296.488 228.077 299.514 230.616L299.44 235.884C292.754 230.38 284.768 225.897 276.361 223.674L265.919 221.327Z" fill="#E0E0E0"/>
<path d="M538.617 160.375L540.238 159.592C540.498 160.125 541.237 161.227 541.3 161.762C541.431 162.847 540.952 164.707 540.838 165.851L539.81 177.435C539.041 186.765 538.642 196.086 538.844 205.449C537.135 203.049 534.582 200.987 532.621 198.733L536.224 170.574C536.61 168.132 538.302 163.636 537.66 161.447C538.004 161.246 538.172 161.065 538.39 160.734L538.617 160.375Z" fill="#263238"/>
<path d="M248.24 171.951C264.598 170.269 285.555 172.925 298.638 183.533L299.517 184.338L299.542 189.922C293.5 185.684 287.977 182.505 280.961 180.042L278.234 179.617C278.14 178.977 277.979 178.706 277.62 178.191L277.827 178.03L277.757 175.503C275.588 175.523 273.578 176.435 271.44 176.683C267.869 177.098 264.123 176.812 260.524 176.992C259.529 177.041 259.827 177.441 259.197 177.635C257.305 178.217 253.748 177.712 251.713 177.668L248.24 171.951Z" fill="#E0E0E0"/>
<path d="M277.757 175.503C278.267 175.383 278.762 175.218 279.288 175.308C279.794 176.263 280.024 177.341 280.31 178.379L280.961 180.042L278.234 179.617C278.14 178.977 277.979 178.706 277.62 178.191L277.827 178.03L277.757 175.503Z" fill="#A2A8AA"/>
<path d="M397.965 134.059C411.214 132.337 424.902 132.243 438.235 132.898C438.831 134.304 438.39 138.186 438.377 139.849L404.758 140.606L397.965 134.059Z" fill="#E0E0E0"/>
<path d="M410.796 184.134C413.363 182.703 415.855 181.76 418.857 182.517C420.241 182.865 421.698 183.491 422.723 184.505C423.218 184.995 423.76 185.837 424.335 186.183C425.251 188.07 426.103 189.971 426.053 192.115L426.019 192.981C425.389 195.09 424.52 196.68 423.281 198.483C422.538 199.494 419.989 200.391 418.753 200.645C415.451 201.324 413.208 200.261 410.49 198.491C410.075 198.069 409.68 197.631 409.348 197.14C407.654 194.639 407.409 192.84 407.936 189.891L408.019 189.814C408.602 187.711 409.651 185.975 410.796 184.134Z" fill="#5385F6"/>
<path d="M71.1415 324.802C72.7204 326.03 74.4269 327.209 75.9189 328.539C76.6294 329.172 77.1363 329.98 77.9203 330.524C77.6524 331.257 77.4075 331.879 77.3983 332.666C78.7185 336.065 79.0557 340.138 79.6554 343.73C80.0085 345.844 80.7564 348.164 80.4301 350.295C79.7112 350.306 79.6063 350.268 78.981 349.909L58.27 332.25C59.6784 329.972 61.5114 327.011 64.188 326.113C66.5106 325.335 68.2037 325.713 70.3537 326.761L71.1415 324.802Z" fill="#263238"/>
<path d="M71.1416 324.802C72.7206 326.03 74.4271 327.209 75.9191 328.539C76.6296 329.172 77.1365 329.98 77.9204 330.524C77.6525 331.257 77.4077 331.879 77.3985 332.666C76.9706 332.495 77.1352 332.501 76.7186 332.537L75.5861 332.621C74.4498 332.616 70.9304 330.855 70.1851 329.998C69.792 329.546 70.3077 327.715 70.3438 326.997L70.3539 326.761L71.1416 324.802Z" fill="#F4CC76"/>
<path d="M246.734 146.876C250.849 146.811 255.043 146.599 259.15 146.864C268.451 147.464 278.593 149.613 287.069 153.518C291.431 155.527 295.538 158.126 299.517 160.795L299.656 167.056C284.718 154.886 264.835 152.185 246.176 153.448C246.873 151.235 246.935 149.171 246.734 146.876Z" fill="#E0E0E0"/>
<path d="M251.26 225.495C253.523 226.691 256.082 227.247 258.608 226.519L259.123 226.344C271.78 228.469 283.466 230.794 294.313 238.12C295.946 239.223 298.235 240.528 299.45 242.05L299.508 247.423C293.985 243.504 288.402 240.248 282.03 237.861C270.917 233.699 259.252 232.778 247.512 232.22L246.817 225.545C248.213 225.602 249.982 226.096 251.26 225.495Z" fill="#E0E0E0"/>
<path d="M239.865 135.267C246.544 134.609 253.105 134.116 259.827 134.601C269.285 135.282 280.04 138.017 288.533 142.297C292.385 144.239 295.851 146.676 299.314 149.226C299.947 150.438 299.53 153.87 299.531 155.343C287.348 145.166 270.586 140.83 254.947 140.587C251.509 140.534 247.979 140.922 244.548 141.166C243.293 138.862 241.755 137.055 239.865 135.267Z" fill="#E0E0E0"/>
<path d="M527.829 134.468C527.8 132.395 527.477 130.041 528.631 128.237C530.735 124.941 533.456 122.666 537.332 121.809C539.436 121.344 542.165 121.381 544.265 121.787C547.469 122.406 550.707 124.165 552.621 126.867C554.352 129.314 555.002 132.757 554.801 135.714C554.469 137.596 554.104 139.372 553.491 141.19C552.798 142.816 551.803 144.764 550.047 145.466C549.598 145.645 549.098 145.728 548.624 145.808C548.674 144.784 548.51 144.511 547.826 143.701C547.419 143.224 547.196 142.992 547.087 142.342L546.789 142.682C544.803 139.987 544.282 137.339 544.072 134.052C538.395 135.118 533.637 134.425 528.757 131.342L527.829 134.468Z" fill="#263238"/>
<path d="M547.087 142.342C547.406 141.579 547.721 140.755 548.271 140.128C549.044 139.248 550.005 139.093 551.118 139.043C552.286 139.498 552.781 140.224 553.491 141.19C552.798 142.816 551.803 144.764 550.047 145.466C549.598 145.645 549.098 145.728 548.624 145.808C548.674 144.784 548.51 144.511 547.826 143.701C547.419 143.224 547.196 142.992 547.087 142.342Z" fill="#F7C666"/>
<path d="M527.829 134.468L528.757 131.342C533.637 134.425 538.394 135.118 544.072 134.052C544.282 137.339 544.802 139.987 546.789 142.682L547.087 142.342C547.196 142.992 547.418 143.224 547.826 143.701C548.51 144.511 548.674 144.784 548.624 145.808L548.342 146.117L548.414 154.287C545.819 155.988 543.014 158.263 540.238 159.592L538.617 160.375C539.306 159.49 539.503 159.398 539.495 158.297C538.705 157.464 538.021 156.688 537.601 155.594C537.261 154.7 537.051 152.902 536.4 152.254L536.19 152.059C536.148 151.428 536.354 150.77 536.479 150.155C534.342 149.735 532.906 149.242 531.348 147.671C528.266 144.563 527.842 138.615 527.829 134.468Z" fill="#F7C666"/>
<path d="M547.087 142.342C547.196 142.992 547.419 143.224 547.826 143.701C548.511 144.511 548.674 144.784 548.624 145.808L548.343 146.117C546.394 147.116 544.563 148.331 542.447 148.91L542.325 148.519L543.274 147.941C544.299 147.315 545.105 146.717 545.811 145.729C546.466 144.813 546.974 143.833 546.789 142.682L547.087 142.342Z" fill="#F2AB5E"/>
<path d="M104.245 136.411C104.641 135.427 105.01 134.886 105.82 134.2C108.423 133.893 107.369 136.125 109.127 137.115C109.672 137.004 109.984 137.068 110.331 136.594C110.997 135.686 110.943 134.524 110.782 133.469L110.566 131.993L111.231 131.205C112.831 130.877 113.451 132.073 114.855 132.798C115.966 133.372 117.156 133.548 118.393 133.48C121.234 133.323 122.783 131.378 124.559 129.432L125.391 129.743C126.284 130.792 126.091 132.849 126.127 134.189C125.711 137.788 125.446 141.092 122.7 143.774C122.287 144.178 121.049 144.987 120.821 145.417C120.41 146.192 122.387 152.078 122.009 153.886C121.814 154.819 121.689 155.742 121.275 156.619C120.815 157.594 119.985 158.217 120.017 159.319C118.857 159.438 117.301 159.613 116.21 160.02L116.499 159.243L111.425 153.271C110.883 152.582 109.597 151.186 109.524 150.334C109.433 149.289 109.83 147.76 109.958 146.685L109.789 143.884L109.319 143.018C108.552 141.771 108.39 141.519 106.923 141.184C105.281 139.829 105.019 138.352 104.245 136.411Z" fill="#F7C666"/>
<path d="M109.789 143.884L110.383 143.721L110.651 143.939C113.008 145.831 115.524 146.492 118.504 146.109L119.678 145.899L120.15 146.362C119.48 147.349 118.891 147.818 117.684 148.062C115.625 148.479 113.155 148.236 111.268 147.325L109.958 146.685L109.789 143.884Z" fill="#F2AB5E"/>
<path d="M240.663 160.234L240.89 160.272C242.622 160.511 244.494 160.003 246.223 159.789C249.232 159.418 252.291 159.113 255.322 159.053C268.582 158.792 283.577 162.215 294.81 169.322C296.341 170.291 298.461 171.441 299.6 172.825L299.767 178.421C287.753 169.184 272.163 165.362 257.174 165.172C252.208 165.11 247.113 165.612 242.175 166.094C239.935 165.162 237.014 163.997 234.563 164.586L234.038 163.838L240.663 160.234Z" fill="#E0E0E0"/>
<path d="M249.86 212.303C258.316 209.033 267.591 207.748 275.948 204.245L275.355 206.4L272.821 211.226L269.612 216.613C268.429 218.209 267.288 219.885 265.919 221.327C263.77 223.295 261.703 224.948 259.123 226.344L258.608 226.519C256.082 227.247 253.523 226.691 251.26 225.495C249.982 226.096 248.213 225.602 246.818 225.545L246.236 222.982C246.393 222.504 246.64 222.322 246.99 221.981C246.145 220.301 247.633 215.562 247.737 213.439L246.878 213.21L247.79 212.659C248.457 212.735 249.205 212.463 249.86 212.303Z" fill="#8AAEFF"/>
<path d="M247.862 221.159C248.881 222.759 249.797 224.256 251.26 225.495C249.982 226.096 248.213 225.602 246.818 225.545L246.236 222.982C246.393 222.504 246.64 222.322 246.99 221.981L247.862 221.159Z" fill="white"/>
<path d="M247.791 212.659C248.457 212.735 249.205 212.463 249.86 212.303C249.635 215.306 249.519 218.559 247.862 221.159L246.99 221.981C246.145 220.301 247.633 215.562 247.737 213.439L246.878 213.21L247.791 212.659Z" fill="#5385F6"/>
<path d="M523.676 155.96C527.309 154.024 530.706 153.43 534.67 152.605C532.44 158.017 530.983 163.743 529.56 169.412C527.838 176.271 526.305 182.958 525.562 189.999L525.159 190.564L524.012 189.52C522.144 187.764 520.443 185.795 518.696 183.92C517.957 183.126 517.151 182.06 516.244 181.474C515.832 181.207 515.669 180.99 515.408 180.574L517.579 166.688C518.129 164.061 518.612 160.611 520.393 158.51C521.283 157.459 522.534 156.709 523.676 155.96Z" fill="#263238"/>
<path d="M120.016 159.319C121.867 161.378 124.767 190.406 125.135 194.872C126.299 193.941 127.059 193.364 128.451 192.871L128.643 192.767L128.653 194.295L129.126 194.731C131.893 194.317 133.445 190.875 136.625 191.689C137.413 192.394 137.929 193.028 137.998 194.125C138.068 195.234 138.023 196.109 138.369 197.202C138.205 197.757 138.043 198.26 137.78 198.778C137.517 199.297 137.491 199.759 137.472 200.332L136.51 201.719C135.668 202.282 134.265 203.002 133.677 203.795C130.688 204.345 127.81 204.751 124.765 204.848C123.617 204.851 121.967 205.094 120.895 204.746C120.196 204.519 120.098 204.046 119.785 203.451L118.976 194.926L113.857 194.771C114.82 194.79 115.887 194.937 116.777 194.524L116.381 171.911C116.295 169.115 116.558 165.925 116.011 163.208C115.735 161.836 115.656 161.351 116.21 160.02C117.301 159.613 118.857 159.439 120.016 159.319Z" fill="#F4CD70"/>
<path d="M104.245 136.411C102.854 136.407 101.603 136.211 100.435 135.368C99.1823 134.463 98.1459 132.781 97.9708 131.239C97.7546 129.335 98.1203 128.035 99.3226 126.543L99.5057 126.322C99.3557 125.686 99.3444 124.921 99.4204 124.275C99.5691 123.01 100.238 122.011 101.259 121.281C102.517 120.381 103.528 120.289 104.988 120.56C105.108 120.582 105.233 120.67 105.348 120.629C105.477 120.584 106.316 118.604 106.528 118.289C107.168 117.344 108.154 116.486 109.195 116.015C111.211 115.101 112.623 115.45 114.639 116.17C116.067 115.308 117.407 114.561 119.129 114.728C121.006 114.911 123.046 115.863 124.005 117.545C124.462 118.347 124.831 119.641 125.367 120.331C126.082 121.252 127.781 121.545 128.695 122.692C130.001 124.33 130.107 126.921 129.837 128.928C129.502 131.416 128.019 132.721 126.127 134.189C126.091 132.849 126.284 130.792 125.391 129.743L124.559 129.432C122.783 131.378 121.235 133.323 118.393 133.48C117.157 133.548 115.966 133.372 114.855 132.798C113.452 132.073 112.831 130.877 111.231 131.205L110.566 131.993L110.782 133.469C110.943 134.524 110.997 135.686 110.332 136.594C109.984 137.068 109.672 137.004 109.127 137.115C107.369 136.125 108.423 133.893 105.82 134.2C105.01 134.886 104.641 135.427 104.245 136.411Z" fill="#263238"/>
<path d="M471.618 103.404C473.664 103.465 476.128 103.148 477.657 104.744C478.169 105.278 478.488 105.939 478.581 106.672C478.854 108.861 478.644 111.333 478.644 113.546L478.64 127.475L478.539 166.785L478.644 188.685C476.141 187.437 474.676 186.162 471.791 186.815C471.018 185.784 471.472 172.535 471.467 169.756L471.618 103.404Z" fill="#4769B0"/>
<path d="M245.564 122.047C258.115 121.208 271.477 122.795 283.139 127.661C289.113 130.154 294.369 133.387 299.596 137.184L299.55 143.321C296.81 141.737 294.306 139.709 291.585 138.064C284.885 134.011 277.418 131.704 269.828 129.985C264.033 128.895 258.141 128.21 252.238 128.25C242.465 128.316 232.563 129.807 222.781 130.336C216.512 130.675 210.131 130.45 203.866 130.099L203.883 123.989C208.868 124.31 213.815 124.627 218.816 124.405L245.564 122.047Z" fill="#E0E0E0"/>
<path d="M219.959 136.32C222.373 134.31 225.532 132.561 228.667 132.044C232.926 131.344 236.49 132.859 239.865 135.267C241.755 137.055 243.293 138.862 244.548 141.166C245.449 143.058 246.2 144.837 246.734 146.876C246.935 149.171 246.873 151.234 246.176 153.448C244.72 156.258 243.029 158.195 240.663 160.234L234.037 163.838L234.563 164.586L233.037 165.344C229.65 166.898 225.604 166.092 222.217 164.855C218.453 164.622 214.98 166.483 212.209 168.909C209.914 170.917 207.807 173.371 205.932 175.773C204.65 172.325 205.035 169.158 205.502 165.61C206.34 162.97 207.026 160.909 208.44 158.477L211.553 153.724C213.053 152.136 214.155 149.826 214.976 147.831L216.541 142.068C217.331 139.915 218.499 138.074 219.959 136.32Z" fill="#263238"/>
<path d="M225.588 156.966L225.95 157.119C226.581 157.408 227.019 157.949 227.516 158.414C229.278 160.062 230.56 159.606 232.717 159.841L233.175 161.913L234.038 163.838L234.563 164.586L233.037 165.344C229.65 166.898 225.604 166.092 222.217 164.855C223.611 163.516 224.364 162.251 225.116 160.479C225.415 159.328 225.486 158.147 225.588 156.966Z" fill="#F4CD70"/>
<path d="M225.589 156.966L225.95 157.119C226.581 157.408 227.019 157.949 227.516 158.414C229.278 160.062 230.56 159.606 232.717 159.841L233.175 161.913C229.988 162.396 228.031 161.822 225.116 160.479C225.415 159.328 225.486 158.147 225.589 156.966Z" fill="#F2AB5E"/>
<path d="M225.588 156.966C224.37 155.991 223.632 154.369 223.063 152.941L222.863 152.819C221.931 152.214 221.515 151.444 221.286 150.365C221.084 149.412 221.248 149.325 221.747 148.531L222.664 148.11C223.337 148.424 223.888 148.713 224.459 149.191C228.302 146.815 231.168 144.597 233.784 140.859C236.18 141.847 239.077 143.698 240.202 146.145C241.114 148.13 240.402 150.951 239.582 152.869C238.473 155.463 236.587 158.357 233.866 159.452L232.717 159.841C230.56 159.606 229.278 160.062 227.516 158.414C227.019 157.949 226.581 157.408 225.95 157.119L225.588 156.966Z" fill="#F7C666"/>
<path d="M251.713 177.668C253.748 177.712 257.306 178.217 259.197 177.635C259.827 177.441 259.529 177.041 260.524 176.992C264.123 176.812 267.869 177.098 271.44 176.683C273.578 176.435 275.588 175.523 277.757 175.503L277.828 178.03L277.62 178.191C277.979 178.706 278.14 178.977 278.234 179.617L278.1 184.958L278.042 191L278.321 192.109C279.592 193.166 279.908 195.796 280.907 197.266C280.69 198.21 280.757 198.49 279.983 199.112L277.721 199.372L277.779 201.916C277.152 202.582 276.211 203.359 275.948 204.245C267.591 207.748 258.316 209.033 249.86 212.303C249.205 212.463 248.457 212.735 247.79 212.659L246.878 213.21L245.024 213.261C244.253 212.365 244.634 207.902 244.638 206.511L244.471 201.076L244.512 194.019C244.493 192.156 243.938 187.43 244.775 185.956L247.673 185.49L247.767 185.351C247.281 184.369 247.434 182.52 247.401 181.393C248.708 181.161 251.709 180.71 252.562 179.718L251.713 177.668Z" fill="#515B60"/>
<path d="M274.045 195.257L272.897 194.627L273.094 194.123L274.442 193.894C273.921 193.471 273.784 193.48 273.684 192.791L273.914 192.654C274.844 192.278 276.767 192.816 277.712 193.092L277.867 196.603C277.328 196.236 276.887 196.119 276.734 195.469C276.088 194.928 274.888 195.221 274.045 195.257Z" fill="#F4CC76"/>
<path d="M274.045 195.257C274.888 195.221 276.087 194.928 276.734 195.469C276.887 196.119 277.328 196.236 277.867 196.603C277.859 197.353 277.826 198.205 277.355 198.82L274.084 197.727C273.887 197.442 273.75 197.261 273.699 196.907L273.683 196.679L272.897 196.302L272.881 195.784C273.25 195.687 273.612 195.632 273.915 195.388L274.045 195.257Z" fill="#F4CD70"/>
<path d="M278.321 192.109C279.592 193.166 279.908 195.796 280.907 197.266C280.69 198.21 280.757 198.49 279.983 199.112L277.721 199.372L277.354 198.82C277.826 198.205 277.858 197.353 277.867 196.603L277.711 193.092L278.321 192.109Z" fill="#F7C666"/>
<path d="M244.512 194.019C244.493 192.156 243.938 187.43 244.775 185.956L247.673 185.49C248.16 187.831 247.937 190.57 247.939 192.971L247.85 206.609C247.806 208.531 247.435 210.783 247.79 212.659L246.878 213.21L245.024 213.261C244.253 212.365 244.634 207.902 244.638 206.511L244.471 201.076L244.512 194.019Z" fill="#263238"/>
<path d="M251.714 177.668C253.748 177.712 257.306 178.217 259.197 177.635C259.827 177.441 259.53 177.041 260.524 176.992C264.124 176.812 267.87 177.098 271.44 176.683C273.578 176.435 275.589 175.523 277.757 175.503L277.828 178.03L277.62 178.191L270.233 179.664L260.929 179.617C260.323 180.453 260.507 181.2 260.501 182.21L247.767 185.351C247.281 184.369 247.434 182.52 247.401 181.393C248.709 181.161 251.709 180.71 252.562 179.718L251.714 177.668Z" fill="white"/>
<path d="M512.645 183.382C514.035 182.472 514.959 182.215 515.408 180.574C515.668 180.99 515.832 181.207 516.244 181.474C517.151 182.06 517.957 183.126 518.696 183.92C520.443 185.795 522.143 187.764 524.012 189.52L525.159 190.564L525.562 189.999C525.591 190.299 525.562 190.967 525.671 191.216C525.893 191.712 527.006 192.644 527.418 193.087L532.621 198.733C534.582 200.987 537.135 203.049 538.844 205.449C539.919 207.169 541.586 208.38 542.669 210.046C541.069 210.833 539.642 212.191 538.268 213.317C536.207 215.01 533.931 216.776 532.091 218.713L524.251 224.657C522.988 225.441 521.98 226.541 520.934 227.584L505.313 210.743L498.149 202.714C496.747 201.157 495.277 199.33 493.387 198.363L495.029 196.987L512.645 183.382Z" fill="#8AAEFF"/>
<path d="M140.786 165.062L159.667 165.27C160.695 165.367 162.288 165.356 162.991 166.224C164.261 167.793 163.813 170.913 163.794 172.886C162.836 173.689 161.976 174.039 161.843 175.352L161.8 182.153L163.764 184.199L163.783 194.715C163.782 196.314 163.968 198.215 163.728 199.78C163.628 200.43 163.263 200.875 162.825 201.338C161.751 201.869 160.553 201.787 159.384 201.799C157.512 201.56 155.426 201.738 153.534 201.737L142.704 201.846L136.51 201.719L137.472 200.332C137.492 199.759 137.517 199.297 137.781 198.778C138.043 198.26 138.205 197.757 138.369 197.202C138.023 196.109 138.069 195.234 137.999 194.125C137.929 193.028 137.413 192.394 136.625 191.689C133.445 190.875 131.893 194.317 129.126 194.731L128.654 194.295L128.644 192.767C129.021 191.633 128.745 189.551 128.749 188.303L128.805 174.123C128.818 171.835 128.499 168.938 129.153 166.747C129.774 166.261 130.518 165.61 131.266 165.348C132.291 164.99 133.91 165.206 135.019 165.22L140.786 165.062Z" fill="#8AAEFF"/>
<path d="M234.563 164.586C237.014 163.997 239.935 165.162 242.175 166.094C244.564 167.757 246.487 169.613 248.24 171.951L251.713 177.668L252.562 179.718C251.709 180.71 248.708 181.161 247.401 181.393C247.434 182.52 247.281 184.369 247.767 185.351L247.673 185.49L244.775 185.956C243.938 187.43 244.493 192.156 244.512 194.019L244.471 201.076L244.638 206.511C244.634 207.902 244.253 212.365 245.024 213.261L246.878 213.21L247.737 213.439C247.633 215.562 246.145 220.301 246.99 221.981C246.64 222.322 246.393 222.504 246.236 222.982C245.151 222.476 244.114 222.758 242.937 222.858L236.794 223.307C228.565 223.798 220.16 224.243 211.932 223.506C211.221 223.36 210.841 223.47 210.165 223.711L208.442 220.324C205.524 220.114 202.665 219.749 200.086 218.265C198.019 217.075 196.503 215.167 195.879 212.867C195.144 210.16 195.454 206.579 195.815 203.816C197.16 193.512 200.841 184.736 205.932 175.773C207.807 173.371 209.914 170.917 212.209 168.909C214.98 166.483 218.453 164.622 222.217 164.855C225.604 166.092 229.65 166.898 233.037 165.344L234.563 164.586Z" fill="#8AAEFF"/>
<path d="M216.908 189.022L217.06 202.644C218.336 202.514 223.526 201.393 224.248 201.769C222.618 202.139 221.136 202.565 219.466 202.79C217.331 203.309 213.487 204.086 211.373 203.613L214.032 203.151C214.595 201.333 214.752 199.384 215.114 197.517L216.908 189.022Z" fill="#5385F6"/>
<path d="M244.512 194.019L244.472 201.076C243.317 201.942 241.89 202.814 240.903 203.852C238.965 202.151 237.575 200.091 236.091 198.003C239.059 195.494 240.681 194.514 244.512 194.019Z" fill="#F4CD70"/>
<path d="M240.903 203.852C241.89 202.814 243.317 201.942 244.472 201.076L244.638 206.511L244.237 204.322C243.041 205.283 242.189 206.52 241.088 207.573C239.075 209.5 236.561 211.056 234.179 212.476C230.084 214.917 225.864 217.428 221.455 219.256C218.767 220.37 215.722 221.093 213.142 222.37C212.452 222.712 212.348 222.877 211.933 223.506C211.221 223.36 210.842 223.47 210.165 223.711L208.442 220.324L212.271 219.904C220.516 218.06 228.423 213.704 235.277 208.857C237.192 207.503 239.645 205.829 240.903 203.852Z" fill="#5385F6"/>
<path d="M211.933 223.506C212.348 222.877 212.452 222.712 213.142 222.37C215.722 221.093 218.767 220.37 221.455 219.256C225.864 217.428 230.084 214.917 234.179 212.476C236.561 211.056 239.075 209.5 241.088 207.573C242.188 206.52 243.04 205.283 244.237 204.322L244.638 206.511C244.634 207.902 244.253 212.365 245.025 213.261L246.878 213.21L247.737 213.439C247.633 215.562 246.145 220.301 246.99 221.981C246.64 222.322 246.394 222.504 246.236 222.982C245.151 222.476 244.114 222.758 242.937 222.858L236.795 223.307C228.565 223.798 220.16 224.243 211.933 223.506Z" fill="#8AAEFF"/>
<path d="M166.698 104.065L167.706 103.752L167.967 101.278C169.477 100.858 171.499 101.095 173.092 101.096L183.56 101.117L183.39 276.799L197.135 276.83L195.688 298.011C190.541 298.003 185.17 297.74 180.074 298.543C176.018 299.182 172.04 300.677 167.924 301C167.713 300.327 167.669 299.738 167.643 299.034C168.036 295.64 167.701 291.734 167.709 288.293L167.756 264.207L167.751 185.519C166.722 184.929 164.937 184.622 163.763 184.199L161.8 182.153L161.843 175.352C161.976 174.039 162.836 173.689 163.793 172.886C163.813 170.913 164.261 167.793 162.99 166.224C162.288 165.356 160.695 165.367 159.666 165.27L159.629 127.731C159.88 126.214 159.647 124.235 159.648 122.676L159.679 111.364C159.692 109.092 159.516 107.072 161.313 105.367C162.902 103.86 164.662 104.022 166.698 104.065Z" fill="#E0E0E0"/>
<path d="M163.794 172.886C165.299 172.457 166.563 172.692 167.95 173.397C169.67 175.089 171.944 177.408 172 179.981C172.034 181.577 171.131 183.131 169.974 184.19C169.327 184.783 168.569 185.212 167.752 185.519C166.723 184.929 164.937 184.623 163.764 184.199L161.8 182.153L161.844 175.352C161.976 174.039 162.836 173.689 163.794 172.886Z" fill="#F4CC76"/>
<path d="M166.698 104.065L167.777 104.429L167.95 173.397C166.563 172.692 165.299 172.457 163.793 172.886C163.813 170.913 164.261 167.793 162.99 166.224C162.288 165.356 160.695 165.367 159.666 165.27L159.629 127.731C159.88 126.214 159.647 124.235 159.648 122.676L159.679 111.364C159.692 109.092 159.516 107.072 161.313 105.367C162.902 103.86 164.662 104.022 166.698 104.065Z" fill="#4769B0"/>
<path d="M163.764 184.199C164.937 184.623 166.722 184.929 167.752 185.519L167.756 264.207L167.709 288.293C167.702 291.734 168.036 295.64 167.643 299.034C167.669 299.738 167.713 300.327 167.925 301C172.04 300.677 176.018 299.182 180.074 298.543C185.17 297.74 190.541 298.003 195.688 298.012L195.189 307.346L195.115 307.396L192.498 329.822C192.42 331.177 192.399 332.565 192.166 333.903C194.13 333.96 196.187 333.896 198.125 334.221L197.503 336.503C197.415 337.808 197.446 339.275 196.988 340.501C195.378 343.978 194.806 347.197 194.284 350.958C191.772 351.608 188.254 351.199 185.628 351.203L166.713 351.221C165.073 351.224 161.897 350.791 160.508 351.57C158.425 349.415 155.805 347.59 153.394 345.823C150.25 343.519 147.017 341.152 143.635 339.216C143.05 337.7 143.192 335.518 143.113 333.877C144.855 333.884 146.732 334.026 148.444 333.695L148.653 333.65C149.246 332.329 148.999 330.407 149 328.95L148.967 318.083L148.694 288.771C148.613 282.497 148.681 276.118 148.14 269.868C147.359 260.867 145.418 251.842 144.239 242.876L149.331 242.872L142.704 201.846L153.533 201.737C155.426 201.738 157.511 201.56 159.384 201.799C160.552 201.787 161.751 201.869 162.825 201.338C163.263 200.875 163.628 200.43 163.727 199.78C163.968 198.215 163.782 196.314 163.783 194.715L163.764 184.199Z" fill="white"/>
<path d="M162.439 329.926L192.498 329.822C192.42 331.177 192.399 332.565 192.166 333.903C194.13 333.96 196.187 333.896 198.125 334.221L197.503 336.503L164.18 336.485C159.54 336.492 154.231 337.022 149.66 336.361L149.357 335.652C149.812 334.628 150.645 334.22 151.555 333.596C152.987 332.615 155.609 330.395 157.254 330.067C158.836 329.751 160.814 329.931 162.439 329.926Z" fill="#4769B0"/>
<path d="M160.748 306.199L181.314 306.129C185.475 306.114 190.992 305.444 194.936 306.675L195.114 307.396L192.498 329.822L162.439 329.926L162.54 329.701C165.857 322.038 163.605 313.572 160.748 306.199Z" fill="#E0E0E0"/>
<path d="M163.764 184.199C164.937 184.623 166.722 184.929 167.752 185.519L167.756 264.207L167.709 288.293C167.702 291.734 168.036 295.64 167.643 299.034C167.669 299.738 167.713 300.327 167.925 301C172.04 300.677 176.018 299.182 180.074 298.543C185.17 297.74 190.541 298.003 195.688 298.012L195.189 307.346L195.114 307.396L194.936 306.675C190.992 305.444 185.475 306.114 181.314 306.129L160.748 306.199L155.109 306.276C154.473 305.66 154.529 305.615 154.443 304.78C155.418 303.308 157.72 302.986 159.362 302.495L159.384 201.799C160.552 201.787 161.751 201.869 162.825 201.338C163.263 200.875 163.627 200.43 163.727 199.78C163.968 198.215 163.782 196.314 163.782 194.715L163.764 184.199Z" fill="#4769B0"/>
<path d="M211.933 223.506C220.16 224.243 228.565 223.798 236.795 223.307L242.937 222.858C244.114 222.758 245.151 222.476 246.236 222.982L246.818 225.545L247.513 232.22L248.859 267.596L248.8 297.864L248.784 306.847L248.039 329.256L248.01 329.433C247.76 331.125 247.823 332.913 247.785 334.622L243.377 334.92L232.381 334.902L232.119 336.475L210.368 336.481C209.894 337.241 209.418 338.252 208.819 338.901C207.384 340.018 205.991 341.251 204.24 341.823L203.919 341.932C202.325 342.422 199.89 342.245 198.413 341.431L196.988 340.501C197.447 339.275 197.415 337.808 197.503 336.503L198.126 334.221C196.188 333.896 194.13 333.96 192.167 333.903C192.4 332.565 192.421 331.177 192.498 329.822L195.115 307.396L195.189 307.346L195.688 298.012L197.135 276.83C198.078 267.3 199.435 257.827 201.859 248.55C204.084 240.027 207.169 231.967 210.165 223.711C210.842 223.47 211.221 223.36 211.933 223.506Z" fill="#263238"/>
<path d="M220.064 312.516L220.492 320.041C220.928 323.246 220.866 326.643 220.798 329.876C219.918 330.503 217.954 330.227 216.858 330.205L218.053 322.616C218.549 319.622 218.662 315.108 220.064 312.516Z" fill="#F0F0F0"/>
<path d="M220.797 329.876C222.518 329.326 224.446 329.467 226.237 329.46L225.87 334.905L232.381 334.902L232.118 336.475L210.368 336.481C210.53 336.02 210.495 335.24 210.532 334.737C212.331 335.106 214.451 334.879 216.293 334.863L216.858 330.205C217.954 330.227 219.918 330.503 220.797 329.876Z" fill="#4769B0"/>
<path d="M198.125 334.221L206.498 334.495C207.7 334.535 209.402 334.389 210.532 334.737C210.495 335.24 210.53 336.02 210.368 336.481C209.894 337.241 209.418 338.252 208.819 338.901C207.383 340.018 205.991 341.251 204.239 341.823L203.919 341.932C202.325 342.422 199.889 342.245 198.413 341.431L196.988 340.501C197.446 339.275 197.415 337.808 197.503 336.503L198.125 334.221Z" fill="#F2AB5E"/>
<path d="M339.365 192.39C336.124 187.531 333.931 182.119 332.69 176.406C330.232 165.085 332.821 153.281 339.066 143.639C344.711 134.926 354.913 128.402 365.017 126.374C373.056 124.761 382.236 125.613 389.706 129.053C392.64 130.405 395.296 132.259 397.965 134.059L404.758 140.606L408.712 146.276L411.411 152.38L413.048 157.837C413.43 159.76 413.512 161.868 414.006 163.736L414.168 169.406L413.546 174.749L412.001 180.807L410.796 184.134C409.651 185.975 408.602 187.711 408.019 189.814L407.936 189.891C407.409 192.84 407.654 194.639 409.348 197.14C409.68 197.631 410.075 198.069 410.49 198.491L399.966 198.933C396.573 201.352 393.299 203.41 389.553 205.236C385.438 206.909 381.426 208.044 377.001 208.606L377.037 214.854C377.045 215.781 376.923 216.858 377.28 217.721C377.273 219.75 376.958 222.366 377.501 224.317C378.999 225.976 379.944 227.445 380.54 229.614C380.542 231.82 380.488 233.665 379.595 235.717C379.422 236.002 378.943 236.599 378.883 236.894C378.769 237.443 378.943 238.454 378.965 239.036L379.159 244.891L380.112 274.82L380.131 278.634C381.134 279.575 382.144 278.516 382.856 279.737L383.244 297.132L390.685 297.136L383.312 297.377L383.561 306.515L383.545 310.23L383.592 311.484L383.518 312.96L383.657 313.885L383.627 315.495C383.306 315.774 382.946 316.04 382.517 316.111C381.148 316.339 379.523 316.211 378.13 316.208C372.61 316.196 367.365 315.566 362.694 312.386L362.391 306.287L361.289 306.117L362.34 305.824C362.904 304.153 362.305 300.476 362.227 298.604L358.715 298.411L361.71 298.386C361.871 298.26 362.086 298.182 362.193 298.007C362.604 297.333 361.915 285.7 361.894 283.645C361.882 282.472 361.592 280.77 362.232 279.827L364.072 279.67C364.713 278.991 364.451 277.831 364.449 276.907C364.418 273.108 364.398 239.416 364.012 238.504C363.833 238.082 362.787 237.256 362.422 236.884C361.217 234.851 360.824 233.427 360.552 231.097C361.262 228.383 361.607 226.926 363.371 224.638L364.872 223.552L364.808 218.419L364.717 212.183L364.708 208.563L360.575 207.414L352.317 203.746L346.679 199.81L343.076 196.527L339.365 192.39Z" fill="#8AAEFF"/>
<path d="M399.966 198.933C403.133 196.306 405.424 193.11 407.937 189.891C407.409 192.84 407.655 194.639 409.348 197.14C409.681 197.631 410.075 198.069 410.491 198.491L399.966 198.933Z" fill="#E0E0E0"/>
<path d="M355.58 139.451C356.583 138.696 357.715 138.114 358.824 137.533C366.339 133.594 374.658 133.097 382.681 135.613C377.83 136.864 372.175 136.912 367.149 137.619C363.338 138.155 359.392 139.275 355.58 139.451Z" fill="white"/>
<path d="M359.861 197.77C362.798 197.16 365.739 196.356 368.698 195.887C376.386 194.667 384.078 194.292 391.846 194.048C384.404 199.085 375.888 201.661 366.888 199.914C364.503 199.452 362.035 198.893 359.861 197.77Z" fill="#E0E0E0"/>
<path d="M353.366 194.117C354.26 193.413 355.814 193.108 356.889 192.743C365.531 189.805 374.9 188.98 383.96 188.456C388.611 188.186 393.476 187.839 398.126 188.158C396.196 190.201 394.203 192.491 391.846 194.048C384.078 194.292 376.386 194.667 368.698 195.887C365.739 196.356 362.798 197.16 359.862 197.77C357.464 197.065 355.37 195.56 353.366 194.117Z" fill="white"/>
<path d="M382.681 135.613C386.635 137.014 389.891 138.77 393.222 141.297C383.425 142.733 373.457 142.626 363.625 144.083C357.618 144.973 352.087 147.06 346.207 148.326C348.799 144.976 351.926 141.642 355.58 139.451C359.392 139.275 363.338 138.155 367.149 137.619C372.175 136.912 377.831 136.863 382.681 135.613Z" fill="#E0E0E0"/>
<path d="M348.365 189.575C350.191 188.635 352.808 188.141 354.797 187.542C370.442 182.83 386.206 182.632 402.379 181.935C401.219 184.018 399.904 186.549 398.126 188.158C393.476 187.839 388.611 188.186 383.96 188.456C374.9 188.98 365.53 189.805 356.888 192.743C355.814 193.108 354.26 193.413 353.366 194.117C351.564 192.78 349.981 191.127 348.365 189.575Z" fill="#E0E0E0"/>
<path d="M346.207 148.326C352.086 147.06 357.618 144.973 363.625 144.083C373.456 142.626 383.425 142.733 393.222 141.297C395.454 143.154 397.4 144.931 399.095 147.316C387.162 148.039 375.114 148.11 363.306 150.121C359.476 150.773 355.648 151.675 351.916 152.749L345.44 154.887C344.859 155.075 343.714 155.592 343.135 155.598C342.893 155.601 342.674 155.447 342.443 155.371C343.329 152.876 344.734 150.513 346.207 148.326Z" fill="white"/>
<path d="M344.825 185.049C349.272 183.537 353.651 181.667 358.182 180.427C370.285 177.114 382.595 176.923 395.036 176.342L400.361 176.065C401.749 175.944 403.26 175.574 404.605 176.024L402.379 181.935C386.205 182.632 370.442 182.83 354.797 187.542C352.808 188.141 350.19 188.635 348.365 189.575C346.985 188.238 345.929 186.612 344.825 185.049Z" fill="white"/>
<path d="M399.094 147.316L402.477 152.79C388.987 153.983 375.412 153.499 362.049 156.101C354.502 157.571 347.568 159.992 340.424 162.74L342.443 155.371C342.674 155.447 342.893 155.601 343.135 155.598C343.714 155.592 344.859 155.075 345.44 154.887L351.915 152.749C355.648 151.675 359.476 150.773 363.305 150.121C375.114 148.11 387.162 148.039 399.094 147.316Z" fill="#E0E0E0"/>
<path d="M342.412 180.1C346.372 178.388 350.578 176.677 354.732 175.506C371.105 170.891 388.687 170.684 405.591 170.346C405.335 172.135 405.193 174.322 404.605 176.024C403.26 175.574 401.75 175.944 400.362 176.065L395.036 176.342C382.596 176.923 370.286 177.114 358.183 180.427C353.652 181.667 349.272 183.537 344.825 185.049L342.412 180.1Z" fill="#E0E0E0"/>
<path d="M340.424 162.74C347.569 159.992 354.502 157.571 362.05 156.101C375.412 153.499 388.987 153.983 402.478 152.79L404.62 158.493C402.967 158.93 401.13 158.852 399.427 158.914L391.776 159.229C384.241 159.548 376.765 159.903 369.282 160.903C362.635 161.792 355.571 163.078 349.29 165.425C346.209 166.575 343.146 168.63 340.01 169.467C339.795 167.232 340.112 164.951 340.424 162.74Z" fill="white"/>
<path d="M404.62 158.493L405.678 164.054L405.591 170.346C388.687 170.684 371.105 170.891 354.732 175.506C350.578 176.677 346.372 178.388 342.412 180.1L340.682 174.994L340.01 169.468C343.146 168.63 346.209 166.576 349.29 165.425C355.571 163.078 362.635 161.792 369.282 160.903C376.765 159.903 384.241 159.548 391.776 159.229L399.427 158.914C401.13 158.852 402.967 158.93 404.62 158.493Z" fill="white"/>
<path d="M404.62 158.493L405.678 164.054C383.656 165.987 360.96 164.546 340.682 174.994L340.01 169.468C343.146 168.63 346.209 166.576 349.29 165.425C355.571 163.078 362.635 161.792 369.282 160.903C376.765 159.903 384.241 159.548 391.776 159.229L399.427 158.914C401.13 158.852 402.967 158.93 404.62 158.493Z" fill="#E0E0E0"/>
<path d="M543.135 210.929C543.82 210.706 544.085 210.737 544.483 210.117C543.518 201.02 544.202 191.361 544.651 182.236C544.924 176.706 544.992 170.936 545.865 165.468C546.314 162.627 551.127 158.872 551.156 157.037C551.169 156.309 550.576 155.319 550.257 154.674L550.677 154.366C559.794 156.884 569.171 162.876 573.92 171.233C579.068 180.289 579.291 192.587 576.481 202.448C575.369 206.358 573.735 209.958 570.716 212.756C570.149 213.28 568.818 214.119 568.499 214.762L568.516 216.726L569.901 244.639C568.373 244.746 564.875 244.545 563.737 245.397L563.468 246.005L563.413 247.935C562.087 265.158 563.061 282.568 564.354 299.763C564.74 304.902 564.766 310.4 565.568 315.465L566.777 332.187C565.946 332.721 565.097 332.759 564.14 332.874C560.012 333.381 556.111 332.973 551.983 332.644C552.659 334.959 553.617 337.492 553.772 339.894C552.08 341.072 550.241 342.076 548.603 343.312C545.617 345.565 542.758 348.342 540.175 351.043C539.23 350.687 538.008 350.834 537 350.835C534.577 350.836 532.066 350.722 529.669 351.068L529.03 340.467L528.594 338.496C528.316 337.125 527.678 334.337 528.421 333.219L517.096 333.133L514.585 332.434C514.392 332.241 513.938 331.887 513.825 331.664C513.615 331.235 513.741 329.732 513.712 329.15L513.346 320.926C512.796 304.783 512.746 288.572 514.022 272.462L515.757 253.943C516.109 250.793 516.857 247.477 516.84 244.317L510.424 246.33L514.341 224.058C513.203 222.454 511.646 221.036 510.306 219.589L503.167 211.788L496.331 204.216C495.193 202.961 494.021 201.357 492.678 200.345C489.167 197.698 484.258 195.973 480.361 193.857L478.778 193.195C477.073 191.633 473.722 190.577 471.568 189.64C470.863 189.241 470.237 188.988 469.884 188.223L470.363 187.535L471.518 187.67L481.277 192.64L493.387 198.363C495.277 199.33 496.747 201.157 498.149 202.714L505.313 210.743L520.934 227.584C521.98 226.541 522.988 225.441 524.252 224.657L532.092 218.713C533.931 216.776 536.207 215.01 538.269 213.317C539.642 212.191 541.069 210.833 542.669 210.046L543.135 210.929Z" fill="#263238"/>
<path d="M541.515 224.251L543.413 222.814C543.925 223.605 544.731 224.559 544.824 225.509L541.599 225.69L540.771 225.396L541.515 224.251Z" fill="white"/>
<path d="M538.772 215.344C539.743 218.088 541.687 220.493 543.413 222.814L541.515 224.251C540.553 223.107 540.246 221.605 539.398 220.386C538.369 218.916 536.937 218.778 535.287 218.441L538.772 215.344Z" fill="#F7C666"/>
<path d="M535.287 218.441C536.937 218.778 538.369 218.916 539.398 220.386C540.246 221.605 540.553 223.107 541.515 224.251L540.771 225.396L541.599 225.69C541.237 225.774 540.561 225.834 540.259 226.002C539.289 226.535 538.201 228.062 537.248 228.795C534.729 230.734 531.646 232.522 528.804 233.94L526.75 234.358C525.982 233.645 525.268 233.099 525.066 232.011C526.208 230.58 527.993 229.91 529.169 228.546C528.371 228.196 527.913 227.803 527.33 227.152C527.057 226.848 527.225 226.881 526.842 227.148C525.83 227.864 524.197 229.111 522.962 228.913L522.916 228.74C522.538 227.147 523.458 225.946 524.252 224.657L532.091 218.713L535.287 218.441Z" fill="#F4CC76"/>
<path d="M530.811 332.117C531.772 329.153 531.449 325.39 531.65 322.264L532.759 309.931L538.541 267.562L547.49 323.477C548.128 326.324 548.498 329.425 549.417 332.175C550.266 332.425 551.105 332.535 551.983 332.644C552.659 334.959 553.617 337.492 553.772 339.894C552.08 341.072 550.24 342.076 548.603 343.312C545.617 345.565 542.757 348.342 540.175 351.043C539.23 350.687 538.008 350.834 537 350.835C534.577 350.836 532.066 350.722 529.668 351.068L529.03 340.467L528.593 338.496C528.316 337.125 527.678 334.337 528.421 333.219C529.362 332.963 530.08 332.811 530.811 332.117Z" fill="white"/>
<path d="M102.333 153.101C103.592 152.635 105.04 152.728 106.368 152.699L107.15 167.193C107.597 174.33 107.899 181.321 107.492 188.474C107.391 190.236 107.466 192.373 107.118 194.089L107.144 194.266C109.07 194.985 111.801 194.718 113.857 194.771L118.976 194.926L119.785 203.451C120.098 204.046 120.196 204.519 120.895 204.746C121.967 205.094 123.617 204.851 124.765 204.848C127.81 204.751 130.688 204.345 133.677 203.795C134.265 203.002 135.668 202.282 136.51 201.719L142.704 201.846L149.331 242.872L144.238 242.876C145.418 251.842 147.359 260.867 148.139 269.867C148.681 276.118 148.613 282.497 148.694 288.771L148.967 318.082L149 328.95C148.999 330.407 149.246 332.329 148.653 333.65L148.444 333.695C146.731 334.026 144.855 333.884 143.113 333.877C143.191 335.518 143.05 337.7 143.635 339.216L143.297 339.317C140.551 340.173 136.632 343.778 133.658 342.372C133.067 342.092 132.523 341.556 132.038 341.123C130.574 343.025 131.026 348.414 130.779 350.904C130.059 350.689 128.877 350.797 128.101 350.776L122.084 350.697L94.499 350.461L85.2721 350.463C83.7158 350.463 81.9295 350.663 80.43 350.295C80.7562 348.164 80.0084 345.844 79.6552 343.73C79.0555 340.138 78.7184 336.065 77.3981 332.666C77.4074 331.879 77.6522 331.257 77.9201 330.524C77.1361 329.98 76.6292 329.172 75.9187 328.539C74.4268 327.209 72.7202 326.03 71.1413 324.802C71.5263 323.638 72.1239 322.561 72.6774 321.47L68.8867 319.353L93.9674 276.462C94.9975 274.609 94.0829 269.419 93.9607 267.123L92.5808 242.321L85.2599 242.459L88.9149 210.569C84.7887 209.951 82.3293 208.753 79.04 206.276L78.8586 206.089C75.7898 202.821 74.4935 198.803 74.6514 194.366C74.7879 190.537 75.7243 186.58 76.5709 182.854C78.4374 174.642 80.5102 165.527 86.9224 159.588C90.8276 155.972 96.856 152.901 102.333 153.101Z" fill="#263238"/>
<path d="M72.6777 321.47L79.9919 326.773L77.9204 330.524C77.1364 329.98 76.6296 329.172 75.9191 328.539C74.4271 327.209 72.7205 326.03 71.1416 324.803C71.5267 323.638 72.1242 322.561 72.6777 321.47Z" fill="#F2AB5E"/>
<path d="M143.058 333.699L148.653 333.65L148.444 333.695C146.731 334.026 144.855 333.884 143.113 333.877C143.192 335.518 143.05 337.7 143.635 339.216L143.297 339.317C140.551 340.173 136.632 343.778 133.658 342.372C133.067 342.092 132.523 341.556 132.038 341.123L132.277 341.054C132.79 340.113 131.927 337.917 131.808 336.712L131.779 336.41L131.17 334.089C132.466 333.819 134.053 333.99 135.384 333.975L143.058 333.699Z" fill="#F4CC76"/>
<path d="M143.058 333.699L142.826 335.342C139.45 336.294 135.259 336.485 131.779 336.41L131.17 334.089C132.466 333.819 134.053 333.99 135.384 333.975L143.058 333.699Z" fill="#F2AB5E"/>
<path d="M116.828 217.701L105.487 217.628L106.198 206.642L117.411 206.529C116.622 208.949 117.137 212.48 117.151 215.055C117.156 215.867 117.324 217.017 116.828 217.701Z" fill="white"/>
<path d="M124.765 204.848C127.81 204.751 130.689 204.345 133.678 203.795L136.564 217.241C135.248 217.882 131.142 217.442 129.516 217.444C128.389 217.443 127.195 217.536 126.098 217.254L124.765 204.848Z" fill="white"/>
<path d="M119.785 203.451C120.098 204.046 120.196 204.519 120.895 204.746C121.967 205.094 123.617 204.851 124.765 204.848L126.098 217.254C127.195 217.536 128.389 217.443 129.516 217.444L126.606 217.647C126.509 217.907 126.382 218.119 126.415 218.4C125.411 220.415 123.426 222.176 121.906 223.83C120.287 221.749 118.149 219.992 116.828 217.701C117.324 217.017 117.156 215.867 117.151 215.055C117.137 212.48 116.622 208.949 117.411 206.529C118.616 206.162 117.679 204.874 118.4 204.29C118.859 203.918 119.253 204.02 119.785 203.451Z" fill="#F4CC76"/>
<path d="M120.736 265.234C122.896 270.233 123.385 276.106 123.703 281.485L124.499 296.929L126.272 333.927L130.43 333.919L131.171 334.089L131.779 336.41L131.808 336.712C131.927 337.917 132.79 340.113 132.278 341.054L132.038 341.123C130.574 343.025 131.027 348.414 130.78 350.904C130.06 350.689 128.877 350.797 128.101 350.776L122.084 350.697L94.4993 350.461L85.2724 350.463C83.7162 350.463 81.9298 350.663 80.4303 350.295C80.7566 348.164 80.0087 345.844 79.6555 343.73C79.0559 340.138 78.7187 336.065 77.3984 332.666C77.4077 331.879 77.6525 331.257 77.9204 330.524L79.9919 326.773L86.9848 331.402L106.711 302.17C111.421 294.8 117.055 286.673 119.463 278.165C120.107 275.891 120.504 273.302 120.566 270.929C120.61 269.237 120.359 267.304 120.656 265.65L120.736 265.234Z" fill="white"/>
<path d="M248.8 297.864L280.847 297.722C287.228 297.72 294.205 297.139 300.466 298.388C303.611 299.016 306.48 300.033 309.296 301.564C312.329 303.212 315.874 307.138 319.42 307.248C322.399 307.34 325.581 303.897 328.179 302.469C329.857 301.546 331.655 300.848 333.479 300.274C341.6 297.717 350.307 298.382 358.716 298.411L362.227 298.604C362.306 300.476 362.904 304.153 362.34 305.824L361.289 306.117L362.392 306.287L362.694 312.386C367.365 315.565 372.61 316.196 378.131 316.208C379.523 316.211 381.148 316.339 382.517 316.111C382.946 316.04 383.307 315.774 383.627 315.495L383.672 317.692L383.862 320.216C385.464 321.337 395.301 320.308 398.086 320.919L398.502 321.006C401.407 321.629 403.524 323.491 405.35 325.727L407.327 329.205L407.954 336.663C408.817 336.972 409.567 337.045 410.478 337.1L410.252 337.892L410.333 340.377C411.68 340.881 413.411 340.589 414.851 340.728C417.497 340.983 421.031 343.06 422.072 345.581C422.454 346.504 422.656 347.688 422.605 348.687L421.426 351.203L485.107 350.896L498.708 351.017C499.338 351.035 501.74 350.935 502.143 351.206L510.046 344.308C511.759 342.768 514.044 339.788 516.231 339.285C517.084 338.156 516.983 334.617 517.096 333.133L528.422 333.219C527.678 334.337 528.317 337.125 528.594 338.496L529.031 340.467L529.669 351.068C532.067 350.722 534.578 350.836 537.001 350.835C538.009 350.834 539.23 350.687 540.175 351.043C542.758 348.342 545.617 345.565 548.603 343.312C550.241 342.076 552.08 341.072 553.772 339.894C553.617 337.492 552.66 334.959 551.983 332.644C556.111 332.973 560.012 333.381 564.14 332.874L563.905 340.719C564.669 340.965 565.518 340.893 566.231 341.138C567.365 343.172 566.689 348.382 566.689 350.871L587.58 350.647C590.339 350.638 593.812 350.234 596.508 350.74C597.469 350.921 598.062 351.334 598.746 352.01C599.443 352.695 599.867 353.618 599.859 354.605C599.85 355.89 599.351 356.823 598.381 357.645C596.714 359.058 591.897 358.486 589.676 358.503L421.405 358.515L353.35 358.742L223.549 358.467L102.051 358.452L64.9487 358.453C59.5459 358.443 53.7048 358.885 48.3437 358.386C47.2708 358.287 46.2596 357.762 45.6003 356.902C44.9188 356.012 44.3427 354.873 44.5526 353.725C44.7361 352.722 45.4483 351.441 46.3218 350.886C46.9747 350.472 47.9968 350.356 48.7607 350.298L68.8161 350.136C71.6834 350.18 75.3136 350.751 78.1057 350.328C78.4714 350.272 78.6826 350.109 78.9812 349.909C79.6065 350.268 79.7114 350.306 80.4303 350.295C81.9299 350.663 83.7162 350.463 85.2725 350.463L94.4994 350.461L122.084 350.697L128.101 350.776C128.877 350.797 130.06 350.689 130.78 350.904C131.027 348.414 130.574 343.025 132.038 341.123C132.523 341.556 133.068 342.092 133.659 342.372C136.633 343.778 140.551 340.173 143.298 339.317L143.635 339.216C147.017 341.152 150.25 343.519 153.394 345.823C155.806 347.59 158.425 349.415 160.508 351.57C161.898 350.791 165.073 351.224 166.713 351.221L185.628 351.203C188.255 351.199 191.773 351.608 194.285 350.958C194.807 347.197 195.378 343.978 196.988 340.501L198.413 341.431C199.89 342.245 202.325 342.422 203.919 341.932L204.24 341.823C205.991 341.251 207.384 340.018 208.819 338.901C209.418 338.252 209.894 337.241 210.369 336.481L232.119 336.475L232.381 334.902L243.377 334.92L247.785 334.622C247.823 332.913 247.76 331.125 248.01 329.433L248.039 329.256L248.784 306.847L248.8 297.864Z" fill="#E0E0E0"/>
<path d="M196.988 340.501L198.413 341.431C199.89 342.245 202.325 342.422 203.919 341.932L204.24 341.823C205.991 341.251 207.384 340.018 208.819 338.901L220.456 351.269C220.654 351.683 220.673 351.877 220.617 352.33L202.686 352.228C200.178 352.228 196.894 352.623 194.477 352.048L194.285 350.958C194.807 347.197 195.378 343.978 196.988 340.501Z" fill="#263238"/>
<path d="M143.635 339.216C147.017 341.152 150.25 343.519 153.394 345.823C155.805 347.59 158.425 349.415 160.508 351.57C160.352 352.012 160.209 352.145 159.833 352.42C156.84 352.252 132.139 351.924 131.331 351.452C131.107 351.321 130.963 351.087 130.78 350.904C131.027 348.414 130.574 343.025 132.038 341.123C132.523 341.556 133.068 342.092 133.659 342.372C136.633 343.778 140.551 340.173 143.298 339.317L143.635 339.216Z" fill="#263238"/>
<path d="M210.368 336.481L232.119 336.475C232.462 337.915 232.54 340.199 232.245 341.656C230.845 343.862 230.719 345.999 230.413 348.541C230.229 349.42 230.066 350.24 230.065 351.145C227.335 351.516 223.166 351.682 220.456 351.269L208.819 338.901C209.418 338.252 209.894 337.241 210.368 336.481Z" fill="white"/>
<path d="M551.983 332.644C556.111 332.973 560.012 333.381 564.14 332.874L563.905 340.719C564.669 340.965 565.517 340.894 566.231 341.138C566.664 344.403 566.378 347.953 566.353 351.253L547.943 351.246C545.609 351.243 542.405 351.653 540.175 351.043C542.757 348.342 545.617 345.565 548.603 343.312C550.24 342.076 552.08 341.072 553.772 339.894C553.617 337.492 552.659 334.959 551.983 332.644Z" fill="#263238"/>
<path d="M551.983 332.644C556.111 332.973 560.012 333.381 564.14 332.874L563.905 340.719C564.669 340.965 565.518 340.894 566.231 341.138C564.846 341.114 563.934 340.863 562.759 341.638C560.709 340.791 558.215 339.26 556.048 338.846C555.271 338.698 554.423 339.486 553.772 339.894C553.617 337.492 552.659 334.959 551.983 332.644Z" fill="#F7C666"/>
<path d="M232.381 334.902L243.377 334.92C243.506 335.382 243.843 336.211 243.754 336.661L243.131 339.622L260.357 351.436L260.527 351.68L260.299 351.938L230.852 351.896C230.149 351.056 230.423 349.633 230.414 348.541C230.719 345.999 230.845 343.862 232.245 341.656C232.54 340.199 232.462 337.915 232.119 336.475L232.381 334.902Z" fill="#263238"/>
<path d="M232.381 334.902L243.377 334.92C243.506 335.382 243.843 336.211 243.754 336.661L243.131 339.622C240.423 341.201 237.143 343.095 233.891 342.199L232.245 341.656C232.54 340.199 232.462 337.915 232.119 336.475L232.381 334.902Z" fill="#F2AB5E"/>
<path d="M517.096 333.133L528.421 333.219C527.678 334.337 528.316 337.125 528.593 338.496L529.03 340.467L529.668 351.068C527.636 351.847 523.752 351.333 521.522 351.332L502.143 351.206L510.045 344.308C511.759 342.768 514.043 339.788 516.231 339.285C517.083 338.156 516.983 334.617 517.096 333.133Z" fill="#263238"/>
<path d="M517.096 333.133L528.421 333.219C527.678 334.337 528.316 337.125 528.593 338.496L529.03 340.467C527.342 340.899 525.587 341.068 523.886 341.473C523.416 341.584 522.366 342 521.925 341.956C521.463 341.911 520.258 341.057 519.792 340.796C518.654 340.158 517.457 339.721 516.231 339.285C517.083 338.156 516.983 334.617 517.096 333.133Z" fill="#F4CD70"/>
<path d="M243.376 334.92L247.784 334.622C247.823 332.913 247.759 331.125 248.01 329.433L248.038 329.256L248.331 330.126L324.589 330.053L339.616 330.137C339.123 331.396 338.616 332.655 338.279 333.967C338.062 334.812 337.99 335.932 337.64 336.696C338.058 337.621 338.029 338.592 338.078 339.59L337.767 341.002C335.457 341.303 332.743 340.64 330.629 341.695C328.601 342.707 327.443 344.048 326.642 346.151C326.525 348.077 326.38 349.388 327.221 351.159C325.792 351.379 324.138 351.203 322.688 351.185L314.528 351.096L285.604 351.134L267.732 351.041C265.595 351.031 262.239 350.558 260.357 351.437L243.131 339.622L243.754 336.661C243.843 336.211 243.505 335.382 243.376 334.92Z" fill="white"/>
<path d="M243.377 334.92L247.785 334.622C247.823 332.913 247.76 331.125 248.01 329.433L248.039 329.256L248.332 330.126L324.589 330.053L339.616 330.137C339.123 331.396 338.616 332.655 338.279 333.967C338.062 334.812 337.99 335.932 337.64 336.696L243.754 336.661C243.843 336.211 243.506 335.382 243.377 334.92Z" fill="#515B60"/>
<path d="M362.694 312.386C367.365 315.565 372.61 316.196 378.131 316.208C379.523 316.211 381.148 316.339 382.517 316.111C382.946 316.04 383.307 315.774 383.627 315.495L383.672 317.692L383.862 320.216C385.464 321.337 395.301 320.308 398.086 320.919L398.502 321.006C401.407 321.629 403.524 323.491 405.35 325.727L407.327 329.205L407.954 336.663C408.816 336.972 409.567 337.045 410.478 337.1L410.252 337.892L410.333 340.377C411.679 340.881 413.411 340.589 414.851 340.728C417.497 340.983 421.031 343.06 422.072 345.581C422.454 346.504 422.656 347.688 422.605 348.687L421.425 351.203C420.686 351.748 419.907 352.417 418.952 352.462L399.565 352.491L360.215 352.503L339.029 352.52C335.961 352.522 332.331 352.881 329.313 352.45C328.435 352.325 327.812 351.775 327.221 351.159C326.38 349.388 326.525 348.077 326.642 346.151C327.444 344.048 328.601 342.707 330.63 341.695C332.743 340.64 335.457 341.303 337.768 341.002L338.079 339.59C338.029 338.591 338.058 337.621 337.64 336.696C337.99 335.932 338.062 334.812 338.279 333.966C338.616 332.655 339.123 331.396 339.616 330.137L324.589 330.053C328.414 329.704 332.499 329.923 336.346 329.942C336.925 329.945 339.132 330.151 339.522 329.96C339.753 329.847 340.724 327.865 340.975 327.481C341.637 326.47 342.535 325.593 343.427 324.785C349.24 319.519 355.64 320.245 362.834 320.586L362.694 312.386Z" fill="#8AAEFF"/>
<path d="M362.694 312.386C367.365 315.565 372.61 316.196 378.131 316.208C379.523 316.211 381.148 316.339 382.517 316.111C382.946 316.04 383.307 315.774 383.627 315.495L383.672 317.692L383.441 320.471C381.44 320.723 379.318 320.493 377.3 320.492L362.834 320.586L362.694 312.386Z" fill="#5385F6"/>
<path d="M248.799 297.864L280.847 297.722C287.228 297.72 294.205 297.139 300.466 298.388C303.611 299.016 306.48 300.033 309.296 301.564C312.329 303.212 315.874 307.138 319.419 307.248C322.399 307.34 325.581 303.897 328.179 302.469C329.857 301.546 331.655 300.848 333.478 300.274C341.6 297.717 350.307 298.382 358.715 298.411L362.227 298.604C362.305 300.476 362.904 304.153 362.34 305.824L361.289 306.117L362.391 306.287L362.694 312.386L362.834 320.586C355.639 320.245 349.24 319.519 343.426 324.785C342.534 325.593 341.637 326.47 340.975 327.481C340.723 327.865 339.753 329.847 339.522 329.96C339.132 330.151 336.925 329.945 336.346 329.942C332.498 329.923 328.414 329.704 324.589 330.053L248.331 330.126L248.039 329.256L248.784 306.847L248.799 297.864Z" fill="#E0E0E0"/>
<path d="M316.342 313.913C316.035 314.087 316.081 314.076 315.701 314.215C313.819 314.9 307.174 312.657 305.353 311.746C307.822 311.884 310.727 312.756 313.099 312.349L313.418 312.29L316.342 313.913Z" fill="white"/>
<path d="M248.8 297.864L280.847 297.722C287.228 297.72 294.205 297.139 300.466 298.388C303.611 299.016 306.48 300.033 309.296 301.564C312.329 303.212 315.874 307.138 319.42 307.248C322.399 307.34 325.581 303.897 328.179 302.469C329.857 301.546 331.655 300.848 333.479 300.274C341.6 297.717 350.307 298.382 358.715 298.411L362.227 298.604C362.305 300.476 362.904 304.153 362.34 305.824L361.289 306.117C355.106 306.346 349.008 305.887 342.832 305.849C339.19 305.827 335.077 305.549 331.676 307.065C328.447 308.504 326.316 311.518 323.227 312.98C322.131 313.499 321.056 313.83 319.847 313.943C319.232 314.001 316.608 313.73 316.342 313.913L313.418 312.29C310.747 310.099 308.08 307.6 304.706 306.579C301.579 305.633 298.127 305.533 294.884 305.45C285.56 305.213 276.486 306.796 267.216 307.145C261.081 307.375 254.929 306.805 248.784 306.847L248.8 297.864Z" fill="#515B60"/>
<path d="M471.568 189.64C473.723 190.577 477.074 191.633 478.778 193.195C478.161 196.054 478.472 199.446 478.455 202.371L478.543 217.95C476.486 216.428 473.702 215.272 471.442 213.985L471.568 189.64Z" fill="#4769B0"/>
<path d="M407.327 329.205L470.938 329.41L476.771 331.705C477.917 332.146 479.307 332.511 480.29 333.255C481 333.938 480.983 333.935 481.037 334.923C480.672 335.685 480.248 336.332 479.416 336.655L479.022 336.776C477.476 337.442 474.873 337.094 473.189 337.081L461.473 337.047L410.478 337.1C409.567 337.045 408.816 336.972 407.954 336.663L407.327 329.205Z" fill="#4769B0"/>
<path d="M480.29 333.255C481 333.938 480.983 333.935 481.038 334.923C480.672 335.685 480.248 336.332 479.417 336.655L479.022 336.776C478.388 336.119 478.039 335.488 477.922 334.568C478.674 333.994 479.425 333.631 480.29 333.255Z" fill="#515B60"/>
<path d="M432.684 196.904C433.376 195.703 433.649 194.331 434.779 193.449C436.043 193.536 437.089 194.469 438.092 195.176L454.457 204.202L471.442 213.985C473.702 215.272 476.486 216.428 478.543 217.95L478.732 218.079C484.783 222.108 491.666 225.39 497.998 229.002C499.46 229.838 502.819 231.295 503.785 232.641C503.995 232.935 504.163 233.551 504.222 233.901C504.658 236.432 501.694 240.409 500.203 242.247C499.468 243.155 498.775 243.851 497.608 244.143C495.663 243.95 493.614 242.364 491.914 241.409L481.936 235.921C480.954 235.397 479.555 234.432 478.464 234.282C476.864 232.628 473.517 231.222 471.472 230.059L454.671 220.465C448.561 217.048 442.333 212.605 435.879 209.915C433.208 208.184 429.622 206.901 427.246 204.876C427.766 203.855 428.552 202.966 429.253 202.065L432.684 196.904Z" fill="#8AAEFF"/>
<path d="M383.561 306.515L441.351 306.8L461.049 306.907C464.026 306.944 467.256 306.733 470.187 307.144C469.41 308.244 468.889 309.575 468.104 310.614C467.978 310.988 467.839 311.289 467.848 311.684L467.197 313.418L467.172 314.103L466.911 317.261C466.819 319.888 466.642 323.479 467.617 325.977L470.103 326.168C470.796 327.02 470.506 328.329 470.938 329.41L407.327 329.205L405.35 325.727C403.524 323.491 401.407 321.629 398.502 321.006L398.086 320.919C395.301 320.308 385.464 321.337 383.862 320.216L383.671 317.692L383.627 315.495L383.657 313.885L383.518 312.96L383.592 311.484L383.545 310.23L383.561 306.515Z" fill="#E0E0E0"/>
<path d="M454.67 220.465L471.471 230.059C473.516 231.222 476.863 232.628 478.463 234.282L478.53 301.865C479.597 302.365 480.642 302.734 481.218 303.835L481.071 304.587C478.648 306.069 475.141 304.187 472.416 304.78C472.357 305.479 472.328 306.161 472.105 306.832C471.45 307.04 470.871 307.105 470.186 307.144C467.255 306.733 464.026 306.945 461.049 306.907L441.35 306.8L383.561 306.515L383.312 297.377L390.685 297.136L383.244 297.132L382.856 279.736C382.144 278.516 381.134 279.575 380.13 278.634L380.112 274.82L388.612 273.875C402.773 272.891 417.468 273.201 431.558 275.031C435.778 275.579 440.078 276.152 444.227 277.107C447.137 277.777 450.068 278.848 452.986 279.376C453.511 279.471 453.814 279.404 454.305 279.209C454.674 277.653 454.515 275.89 454.519 274.285L454.544 265.585L454.523 236.662C454.519 231.304 454.263 225.803 454.67 220.465Z" fill="#E0E0E0"/>
<path d="M471.472 230.059C473.517 231.222 476.864 232.628 478.463 234.282L478.531 301.865C479.597 302.365 480.643 302.734 481.218 303.835L481.071 304.587C478.648 306.069 475.142 304.187 472.417 304.78C472.358 305.479 472.328 306.161 472.106 306.832C471.451 307.04 470.871 307.105 470.187 307.144C467.256 306.733 464.026 306.945 461.049 306.907L441.351 306.8L383.561 306.515L383.312 297.377L390.685 297.136L435.971 297.636C447.868 297.844 459.785 297.236 471.593 299.069L471.472 230.059Z" fill="#4769B0"/>
<path d="M410.491 198.491C413.208 200.261 415.451 201.324 418.753 200.645C419.989 200.391 422.538 199.494 423.281 198.483C425.23 199.769 427.136 201.066 429.253 202.065C428.551 202.966 427.766 203.855 427.246 204.876C429.622 206.901 433.208 208.184 435.879 209.915C442.333 212.605 448.561 217.048 454.671 220.465C454.263 225.803 454.519 231.304 454.524 236.662L454.545 265.585L454.519 274.286C454.515 275.89 454.675 277.653 454.305 279.21C453.814 279.404 453.512 279.471 452.987 279.376C450.068 278.848 447.137 277.777 444.227 277.107C440.078 276.152 435.778 275.579 431.558 275.031C417.468 273.201 402.774 272.891 388.612 273.875L380.113 274.82L379.159 244.891L378.965 239.036C378.944 238.454 378.769 237.443 378.883 236.894C378.943 236.599 379.422 236.002 379.595 235.717C380.489 233.665 380.542 231.82 380.541 229.614C379.944 227.445 378.999 225.976 377.501 224.317C376.959 222.366 377.273 219.75 377.28 217.721C376.923 216.858 377.045 215.781 377.037 214.854L377.001 208.606C381.426 208.044 385.439 206.909 389.553 205.236C393.299 203.41 396.574 201.352 399.966 198.933L410.491 198.491Z" fill="white"/>
<path d="M380.54 229.614L438.34 229.059L438.277 235.342L379.595 235.717C380.488 233.665 380.542 231.82 380.54 229.614Z" fill="#E0E0E0"/>
<path d="M377.28 217.721L390.341 217.058L429.92 216.084L435.988 216.288C436.719 216.338 437.718 216.288 438.356 216.633L438.302 222.999C421.522 221.716 404.436 222.525 387.641 223.353L381.062 223.665C379.886 223.723 378.528 223.66 377.5 224.317C376.958 222.366 377.272 219.75 377.28 217.721Z" fill="#E0E0E0"/>
<path d="M410.491 198.491C413.208 200.261 415.451 201.324 418.753 200.645C419.989 200.391 422.538 199.494 423.281 198.483C425.23 199.769 427.136 201.066 429.253 202.065C428.551 202.966 427.766 203.855 427.246 204.876C429.622 206.901 433.208 208.184 435.879 209.915L377.347 211.821C376.796 213.182 377.25 216.178 377.28 217.721C376.923 216.858 377.045 215.781 377.037 214.854L377.001 208.606C381.426 208.044 385.439 206.909 389.553 205.236C393.299 203.41 396.574 201.352 399.966 198.933L410.491 198.491Z" fill="#E0E0E0"/>
<path d="M410.491 198.491C413.208 200.261 415.451 201.324 418.753 200.645C419.989 200.391 422.538 199.494 423.281 198.483C425.23 199.769 427.136 201.066 429.253 202.065C428.551 202.966 427.766 203.855 427.245 204.876C425.65 204.334 423.941 204.447 422.274 204.443L413.847 204.617L396.535 205.066C394.307 205.146 391.744 205.505 389.553 205.236C393.299 203.41 396.573 201.352 399.966 198.933L410.491 198.491Z" fill="white"/>
<rect x="319" y="127" width="1" height="170" fill="#D9D9D9"/>
</g>
<defs>
<clipPath id="clip0_31_2">
<rect width="645" height="430" fill="white"/>
</clipPath>
</defs>
</svg>
