<svg width="60" height="60" viewBox="0 0 60 60" fill="none" xmlns="http://www.w3.org/2000/svg">
<g clip-path="url(#clip0_11909_41694)">
<path d="M56 0H22C20.9391 0 19.9217 0.421427 19.1716 1.17157C18.4214 1.92172 18 2.93913 18 4V19H4C2.93913 19 1.92172 19.4214 1.17157 20.1716C0.421427 20.9217 0 21.9391 0 23L0 49C0 50.0609 0.421427 51.0783 1.17157 51.8284C1.92172 52.5786 2.93913 53 4 53H7V57.61C7.00263 58.2425 7.25486 58.8485 7.70186 59.296C8.14885 59.7436 8.75446 59.9966 9.387 60C9.80049 59.9986 10.2066 59.8905 10.566 59.686L22.266 53H38C39.0609 53 40.0783 52.5786 40.8284 51.8284C41.5786 51.0783 42 50.0609 42 49V36.435L49.438 40.691C49.8015 40.8959 50.2123 41.002 50.6295 40.9987C51.0467 40.9955 51.4559 40.883 51.8161 40.6726C52.1764 40.4621 52.4752 40.1609 52.6829 39.7991C52.8907 39.4372 53 39.0272 53 38.61V34H56C57.0609 34 58.0783 33.5786 58.8284 32.8284C59.5786 32.0783 60 31.0609 60 30V4C60 2.93913 59.5786 1.92172 58.8284 1.17157C58.0783 0.421427 57.0609 0 56 0ZM40 49C40 49.5304 39.7893 50.0391 39.4142 50.4142C39.0391 50.7893 38.5304 51 38 51H22.266C21.9177 51.0006 21.5756 51.0916 21.273 51.264L9.578 57.948C9.51895 57.9815 9.45213 57.9989 9.38423 57.9984C9.31634 57.9979 9.24977 57.9796 9.19121 57.9452C9.13264 57.9109 9.08414 57.8617 9.05058 57.8027C9.01702 57.7437 8.99958 57.6769 9 57.609V53C9 52.4696 8.78929 51.9609 8.41421 51.5858C8.03914 51.2107 7.53043 51 7 51H4C3.46957 51 2.96086 50.7893 2.58579 50.4142C2.21071 50.0391 2 49.5304 2 49V23C2 22.4696 2.21071 21.9609 2.58579 21.5858C2.96086 21.2107 3.46957 21 4 21H38C38.5304 21 39.0391 21.2107 39.4142 21.5858C39.7893 21.9609 40 22.4696 40 23V49ZM58 30C58 30.5304 57.7893 31.0391 57.4142 31.4142C57.0391 31.7893 56.5304 32 56 32H53C52.4696 32 51.9609 32.2107 51.5858 32.5858C51.2107 32.9609 51 33.4696 51 34V38.61C51.0005 38.6774 50.9833 38.7438 50.9502 38.8026C50.9171 38.8613 50.8693 38.9104 50.8114 38.9449C50.7535 38.9795 50.6875 38.9983 50.6201 38.9996C50.5527 39.0008 50.4861 38.9844 50.427 38.952L42 34.13V27H47C47.2652 27 47.5196 26.8946 47.7071 26.7071C47.8946 26.5196 48 26.2652 48 26C48 25.7348 47.8946 25.4804 47.7071 25.2929C47.5196 25.1054 47.2652 25 47 25H42V23C41.9958 22.662 41.9481 22.3259 41.858 22H47C47.2652 22 47.5196 21.8946 47.7071 21.7071C47.8946 21.5196 48 21.2652 48 21C48 20.7348 47.8946 20.4804 47.7071 20.2929C47.5196 20.1054 47.2652 20 47 20H40.618C39.8963 19.3589 38.9654 19.0033 38 19H20V4C20 3.46957 20.2107 2.96086 20.5858 2.58579C20.9609 2.21071 21.4696 2 22 2H56C56.5304 2 57.0391 2.21071 57.4142 2.58579C57.7893 2.96086 58 3.46957 58 4V30Z" fill="url(#paint0_linear_11909_41694)"/>
<path d="M14 36C15.0609 36 16.0783 35.5786 16.8284 34.8284C17.5786 34.0783 18 33.0609 18 32V31C17.9956 30.82 17.9412 30.6449 17.843 30.494L15.766 27H18.184C18.3334 27.4182 18.5738 27.7981 18.8878 28.1122C19.2019 28.4262 19.5818 28.6666 20 28.816V38H17C16.7348 38 16.4804 38.1054 16.2929 38.2929C16.1054 38.4804 16 38.7348 16 39C16 39.2652 16.1054 39.5196 16.2929 39.7071C16.4804 39.8946 16.7348 40 17 40H25C25.2652 40 25.5196 39.8946 25.7071 39.7071C25.8946 39.5196 26 39.2652 26 39C26 38.7348 25.8946 38.4804 25.7071 38.2929C25.5196 38.1054 25.2652 38 25 38H22V28.816C22.4182 28.6666 22.7981 28.4262 23.1122 28.1122C23.4262 27.7981 23.6666 27.4182 23.816 27H26.234L24.157 30.494C24.0588 30.6449 24.0044 30.82 24 31V32C24 33.0609 24.4214 34.0783 25.1716 34.8284C25.9217 35.5786 26.9391 36 28 36C29.0609 36 30.0783 35.5786 30.8284 34.8284C31.5786 34.0783 32 33.0609 32 32V31C31.9956 30.82 31.9412 30.6449 31.843 30.494L29.766 27H31C31.2652 27 31.5196 26.8946 31.7071 26.7071C31.8946 26.5196 32 26.2652 32 26C32 25.7348 31.8946 25.4804 31.7071 25.2929C31.5196 25.1054 31.2652 25 31 25H23.816C23.6124 24.4155 23.2318 23.9088 22.7273 23.5502C22.2227 23.1917 21.619 22.9991 21 22.9991C20.381 22.9991 19.7773 23.1917 19.2727 23.5502C18.7682 23.9088 18.3876 24.4155 18.184 25H11C10.7348 25 10.4804 25.1054 10.2929 25.2929C10.1054 25.4804 10 25.7348 10 26C10 26.2652 10.1054 26.5196 10.2929 26.7071C10.4804 26.8946 10.7348 27 11 27H12.234L10.143 30.485L10.157 30.494C10.0588 30.6449 10.0044 30.82 10 31V32C10 33.0609 10.4214 34.0783 11.1716 34.8284C11.9217 35.5786 12.9391 36 14 36ZM30 32C30 32.5304 29.7893 33.0391 29.4142 33.4142C29.0391 33.7893 28.5304 34 28 34C27.4696 34 26.9609 33.7893 26.5858 33.4142C26.2107 33.0391 26 32.5304 26 32H30ZM28 27.943L29.234 30H26.766L28 27.943ZM21 25C21.1978 25 21.3911 25.0586 21.5556 25.1685C21.72 25.2784 21.8482 25.4346 21.9239 25.6173C21.9996 25.8 22.0194 26.0011 21.9808 26.1951C21.9422 26.3891 21.847 26.5673 21.7071 26.7071C21.5673 26.847 21.3891 26.9422 21.1951 26.9808C21.0011 27.0194 20.8 26.9996 20.6173 26.9239C20.4346 26.8482 20.2784 26.72 20.1685 26.5556C20.0586 26.3911 20 26.1978 20 26C20 25.7348 20.1054 25.4804 20.2929 25.2929C20.4804 25.1054 20.7348 25 21 25ZM14 27.943L15.234 30H12.766L14 27.943ZM16 32C16 32.5304 15.7893 33.0391 15.4142 33.4142C15.0391 33.7893 14.5304 34 14 34C13.4696 34 12.9609 33.7893 12.5858 33.4142C12.2107 33.0391 12 32.5304 12 32H16ZM51 5C49.9391 5 48.9217 5.42143 48.1716 6.17157C47.4214 6.92172 47 7.93913 47 9C47 9.26522 47.1054 9.51957 47.2929 9.70711C47.4804 9.89464 47.7348 10 48 10C48.2652 10 48.5196 9.89464 48.7071 9.70711C48.8946 9.51957 49 9.26522 49 9C49 8.60444 49.1173 8.21776 49.3371 7.88886C49.5568 7.55996 49.8692 7.30362 50.2346 7.15224C50.6001 7.00087 51.0022 6.96126 51.3902 7.03843C51.7781 7.1156 52.1345 7.30608 52.4142 7.58579C52.6939 7.86549 52.8844 8.22186 52.9616 8.60982C53.0387 8.99778 52.9991 9.39991 52.8478 9.76537C52.6964 10.1308 52.44 10.4432 52.1111 10.6629C51.7822 10.8827 51.3956 11 51 11C50.7348 11 50.4804 11.1054 50.2929 11.2929C50.1054 11.4804 50 11.7348 50 12V14C50 14.2652 50.1054 14.5196 50.2929 14.7071C50.4804 14.8946 50.7348 15 51 15C51.2652 15 51.5196 14.8946 51.7071 14.7071C51.8946 14.5196 52 14.2652 52 14V12.873C52.9427 12.6296 53.7642 12.0508 54.3106 11.245C54.8571 10.4392 55.0909 9.46181 54.9682 8.49598C54.8455 7.53016 54.3748 6.64223 53.6443 5.99864C52.9138 5.35505 51.9736 4.99998 51 5ZM51 16.954C50.73 16.9641 50.4746 17.079 50.288 17.2743C50.1013 17.4696 49.998 17.7299 50 18C50 18.2652 50.1054 18.5196 50.2929 18.7071C50.4804 18.8946 50.7348 19 51 19C51.2652 19 51.5196 18.8946 51.7071 18.7071C51.8946 18.5196 52 18.2652 52 18V17.908C51.9992 17.779 51.9724 17.6516 51.9213 17.5332C51.8701 17.4148 51.7957 17.3079 51.7024 17.2189C51.6091 17.1299 51.4988 17.0605 51.3781 17.015C51.2574 16.9695 51.1289 16.9488 51 16.954ZM43 5H24C23.7348 5 23.4804 5.10536 23.2929 5.29289C23.1054 5.48043 23 5.73478 23 6C23 6.26522 23.1054 6.51957 23.2929 6.70711C23.4804 6.89464 23.7348 7 24 7H43C43.2652 7 43.5196 6.89464 43.7071 6.70711C43.8946 6.51957 44 6.26522 44 6C44 5.73478 43.8946 5.48043 43.7071 5.29289C43.5196 5.10536 43.2652 5 43 5ZM43 10H24C23.7348 10 23.4804 10.1054 23.2929 10.2929C23.1054 10.4804 23 10.7348 23 11C23 11.2652 23.1054 11.5196 23.2929 11.7071C23.4804 11.8946 23.7348 12 24 12H43C43.2652 12 43.5196 11.8946 43.7071 11.7071C43.8946 11.5196 44 11.2652 44 11C44 10.7348 43.8946 10.4804 43.7071 10.2929C43.5196 10.1054 43.2652 10 43 10ZM43 15H24C23.7348 15 23.4804 15.1054 23.2929 15.2929C23.1054 15.4804 23 15.7348 23 16C23 16.2652 23.1054 16.5196 23.2929 16.7071C23.4804 16.8946 23.7348 17 24 17H43C43.2652 17 43.5196 16.8946 43.7071 16.7071C43.8946 16.5196 44 16.2652 44 16C44 15.7348 43.8946 15.4804 43.7071 15.2929C43.5196 15.1054 43.2652 15 43 15ZM36 42H6C5.73478 42 5.48043 42.1054 5.29289 42.2929C5.10536 42.4804 5 42.7348 5 43C5 43.2652 5.10536 43.5196 5.29289 43.7071C5.48043 43.8946 5.73478 44 6 44H36C36.2652 44 36.5196 43.8946 36.7071 43.7071C36.8946 43.5196 37 43.2652 37 43C37 42.7348 36.8946 42.4804 36.7071 42.2929C36.5196 42.1054 36.2652 42 36 42ZM24 46H6C5.73478 46 5.48043 46.1054 5.29289 46.2929C5.10536 46.4804 5 46.7348 5 47C5 47.2652 5.10536 47.5196 5.29289 47.7071C5.48043 47.8946 5.73478 48 6 48H24C24.2652 48 24.5196 47.8946 24.7071 47.7071C24.8946 47.5196 25 47.2652 25 47C25 46.7348 24.8946 46.4804 24.7071 46.2929C24.5196 46.1054 24.2652 46 24 46Z" fill="url(#paint1_linear_11909_41694)"/>
</g>
<defs>
<linearGradient id="paint0_linear_11909_41694" x1="-3.6335e-07" y1="46.8" x2="60" y2="19.2" gradientUnits="userSpaceOnUse">
<stop stop-color="#0575E6"/>
<stop offset="1" stop-color="#021B79"/>
</linearGradient>
<linearGradient id="paint1_linear_11909_41694" x1="5" y1="38.54" x2="52.1037" y2="13.345" gradientUnits="userSpaceOnUse">
<stop stop-color="#0575E6"/>
<stop offset="1" stop-color="#021B79"/>
</linearGradient>
<clipPath id="clip0_11909_41694">
<rect width="60" height="60" fill="white"/>
</clipPath>
</defs>
</svg>
