<svg xmlns="http://www.w3.org/2000/svg" enable-background="new 0 0 64 64" viewBox="0 0 64 64" id="AffordablePricing"><path fill="#0575e6" d="M55,40.5c-0.935,0-1.813,0.364-2.475,1.025L44.551,49.5h-1.104c0.649-0.636,1.053-1.521,1.053-2.5
			c0-1.93-1.57-3.5-3.5-3.5h-4.793l-1.511-1.51c-1.604-1.605-3.739-2.49-6.01-2.49h-1.373c-2.271,0-4.405,0.884-6.01,2.49
			l-1.511,1.51h-3.385c-0.207-0.581-0.757-1-1.408-1c-0.827,0-1.5,0.673-1.5,1.5v12c0,0.827,0.673,1.5,1.5,1.5
			c0.651,0,1.201-0.419,1.408-1H46c0.936,0,1.814-0.364,2.476-1.025l8.999-9C58.136,45.814,58.5,44.935,58.5,44
			C58.5,42.07,56.93,40.5,55,40.5z M15,56.5c-0.275,0-0.5-0.224-0.5-0.5V44c0-0.276,0.225-0.5,0.5-0.5s0.5,0.224,0.5,0.5v12
			C15.5,56.276,15.275,56.5,15,56.5z M56.768,45.768l-8.999,9C47.296,55.24,46.668,55.5,46,55.5H16.5v-11H20
			c0.133,0,0.26-0.053,0.354-0.146l1.657-1.657c1.416-1.417,3.3-2.197,5.303-2.197h1.373c2.003,0,3.887,0.78,5.303,2.197
			l1.657,1.657C35.74,44.447,35.867,44.5,36,44.5h5c1.379,0,2.5,1.122,2.5,2.5s-1.121,2.5-2.5,2.5h-9v1h12.758
			c0.133,0,0.26-0.053,0.354-0.146l8.121-8.121C53.705,41.76,54.333,41.5,55,41.5c1.379,0,2.5,1.122,2.5,2.5
			C57.5,44.668,57.24,45.296,56.768,45.768z" class="color231f20 svgShape"></path><rect width="4" height="1" x="8" y="43.5" fill="#0575e6" class="color231f20 svgShape"></rect><rect width="4" height="1" x="8" y="55.5" fill="#0575e6" class="color231f20 svgShape"></rect><path fill="#0575e6" d="M32,36.5c4.124,0,8.065-1.767,10.813-4.847l-0.746-0.666C39.509,33.855,35.839,35.5,32,35.5
			c-7.444,0-13.5-6.056-13.5-13.5S24.556,8.5,32,8.5c3.839,0,7.509,1.645,10.067,4.513l0.746-0.666C40.065,9.267,36.124,7.5,32,7.5
			c-7.995,0-14.5,6.505-14.5,14.5S24.005,36.5,32,36.5z" class="color231f20 svgShape"></path><path fill="#0575e6" d="M40.625,14.391l0.75-0.662C39,11.042,35.583,9.5,32,9.5c-6.893,0-12.5,5.607-12.5,12.5
			S25.107,34.5,32,34.5c3.583,0,7-1.542,9.375-4.229l-0.75-0.662C38.44,32.082,35.297,33.5,32,33.5c-6.341,0-11.5-5.159-11.5-11.5
			S25.659,10.5,32,10.5C35.297,10.5,38.44,11.918,40.625,14.391z" class="color231f20 svgShape"></path><path fill="#0575e6" d="M39.5,22c0,5.79,4.71,10.5,10.5,10.5S60.5,27.79,60.5,22S55.79,11.5,50,11.5S39.5,16.21,39.5,22z M50,12.5
			c5.238,0,9.5,4.262,9.5,9.5s-4.262,9.5-9.5,9.5s-9.5-4.262-9.5-9.5S44.762,12.5,50,12.5z" class="color231f20 svgShape"></path><path fill="#0575e6" d="M48.939 27.646c.292.292.677.438 1.061.438s.769-.146 1.061-.438l3.586-3.586c.438-.437.562-1.063.325-1.635-.236-.571-.768-.926-1.386-.926H52.5V17c0-.827-.673-1.5-1.5-1.5h-2c-.827 0-1.5.673-1.5 1.5v4.5h-1.086c-.618 0-1.149.355-1.386.926-.236.571-.112 1.198.325 1.635L48.939 27.646zM45.952 22.809c.03-.072.152-.309.462-.309H48c.276 0 .5-.224.5-.5v-5c0-.276.225-.5.5-.5h2c.275 0 .5.224.5.5v5c0 .276.224.5.5.5h1.586c.31 0 .432.236.462.309s.11.326-.108.545l-3.586 3.586c-.195.195-.512.195-.707 0l-3.586-3.586C45.842 23.134 45.922 22.881 45.952 22.809zM30 16.5h4c.827 0 1.5.673 1.5 1.5h1c0-1.378-1.121-2.5-2.5-2.5h-1.5V14h-1v1.5H30c-1.379 0-2.5 1.122-2.5 2.5v.764c0 .953.529 1.81 1.382 2.236l5.789 2.895c.512.256.829.77.829 1.341V26c0 .827-.673 1.5-1.5 1.5h-4c-.827 0-1.5-.673-1.5-1.5h-1c0 1.378 1.121 2.5 2.5 2.5h1.5V30h1v-1.5H34c1.379 0 2.5-1.122 2.5-2.5v-.764c0-.953-.529-1.81-1.382-2.236l-5.789-2.895c-.512-.256-.829-.77-.829-1.341V18C28.5 17.173 29.173 16.5 30 16.5z" class="color231f20 svgShape"></path></svg>