<svg width="60" height="60" viewBox="0 0 60 60" fill="none" xmlns="http://www.w3.org/2000/svg">
<g clip-path="url(#clip0_11909_41697)">
<path d="M58 28H55C54.4696 28 53.9609 28.2107 53.5858 28.5858C53.2107 28.9609 53 29.4696 53 30H41.42C41.2671 30.0022 41.116 29.968 40.979 29.9L34.409 26.6C34.277 26.532 34.138 26.476 34 26.42V10.46C35.0091 9.55549 35.6824 8.33596 35.91 7.00002H47.184L41.308 16.283C41.2107 16.3754 41.1332 16.4866 41.0803 16.6099C41.0273 16.7331 41 16.8659 41 17V21C41 22.0609 41.4214 23.0783 42.1716 23.8284C42.9217 24.5786 43.9391 25 45 25H53C54.0609 25 55.0783 24.5786 55.8284 23.8284C56.5786 23.0783 57 22.0609 57 21V17C57 16.8659 56.9727 16.7331 56.9197 16.6099C56.8668 16.4866 56.7893 16.3754 56.692 16.283L50.816 7.00002H59C59.2652 7.00002 59.5196 6.89466 59.7071 6.70713C59.8946 6.51959 60 6.26524 60 6.00002C60 5.7348 59.8946 5.48045 59.7071 5.29291C59.5196 5.10538 59.2652 5.00002 59 5.00002H35.91C35.675 3.60253 34.9523 2.33354 33.8704 1.41834C32.7884 0.503152 31.4171 0.000976562 30 0.000976562C28.5829 0.000976562 27.2116 0.503152 26.1296 1.41834C25.0477 2.33354 24.325 3.60253 24.09 5.00002H1C0.734784 5.00002 0.48043 5.10538 0.292893 5.29291C0.105357 5.48045 0 5.7348 0 6.00002C0 6.26524 0.105357 6.51959 0.292893 6.70713C0.48043 6.89466 0.734784 7.00002 1 7.00002H9.184L3.308 16.283C3.21072 16.3754 3.13324 16.4866 3.08029 16.6099C3.02734 16.7331 3.00003 16.8659 3 17V21C3 22.0609 3.42143 23.0783 4.17157 23.8284C4.92172 24.5786 5.93913 25 7 25H15C16.0609 25 17.0783 24.5786 17.8284 23.8284C18.5786 23.0783 19 22.0609 19 21V17C19 16.8659 18.9727 16.7331 18.9197 16.6099C18.8668 16.4866 18.7893 16.3754 18.692 16.283L12.816 7.00002H24.09C24.3176 8.33596 24.9909 9.55549 26 10.46V27.06C25.3341 27.0191 24.6671 26.9981 24 26.997C20.054 26.997 16.74 29.231 15.12 30.56C14.7671 30.8474 14.3251 31.0029 13.87 31H7C7 30.4696 6.78929 29.9609 6.41421 29.5858C6.03914 29.2107 5.53043 29 5 29H2C1.46957 29 0.960859 29.2107 0.585786 29.5858C0.210714 29.9609 0 30.4696 0 31L0 44C0 44.5305 0.210714 45.0392 0.585786 45.4142C0.960859 45.7893 1.46957 46 2 46H5C5.49236 45.9976 5.96651 45.8136 6.33166 45.4833C6.69682 45.153 6.92731 44.6997 6.979 44.21C9.30592 44.663 11.5185 45.5777 13.486 46.9L13.275 47.249C12.9541 47.7797 12.78 48.3861 12.7705 49.0061C12.7609 49.6262 12.9163 50.2376 13.2206 50.7779C13.525 51.3182 13.9675 51.7679 14.5028 52.0811C15.038 52.3942 15.6469 52.5595 16.267 52.56C16.5611 52.5596 16.854 52.5227 17.139 52.45V52.481C17.3259 53.2405 17.7614 53.9156 18.3763 54.3991C18.9911 54.8825 19.7499 55.1465 20.532 55.149C20.8146 55.1489 21.0963 55.1153 21.371 55.049C21.384 55.049 21.395 55.039 21.408 55.036C21.408 55.049 21.408 55.062 21.414 55.074C21.5996 55.8344 22.0347 56.5105 22.6497 56.9945C23.2648 57.4785 24.0243 57.7424 24.807 57.744C25.0341 57.7384 25.2602 57.711 25.482 57.662C25.6142 58.2439 25.917 58.7731 26.3516 59.1821C26.7862 59.591 27.3328 59.861 27.9217 59.9577C28.5105 60.0543 29.1148 59.9731 29.6573 59.7245C30.1997 59.4759 30.6558 59.0711 30.967 58.562L31.831 57.135L34.768 59.286C35.2047 59.6027 35.7186 59.7958 36.2558 59.845C36.793 59.8942 37.3335 59.7976 37.8204 59.5654C38.3073 59.3333 38.7226 58.9742 39.0226 58.5259C39.3226 58.0776 39.4961 57.5567 39.525 57.018H39.587C40.0445 57.0208 40.4981 56.9333 40.9218 56.7605C41.3455 56.5877 41.7309 56.333 42.056 56.0111C42.3811 55.6891 42.6395 55.3062 42.8164 54.8842C42.9934 54.4623 43.0853 54.0096 43.087 53.552C43.175 53.559 43.263 53.572 43.351 53.572C43.9237 53.5745 44.4882 53.4358 44.9946 53.1683C45.501 52.9007 45.9337 52.5126 46.2544 52.038C46.5751 51.5635 46.7739 51.0173 46.8333 50.4476C46.8927 49.878 46.8109 49.3025 46.595 48.772C46.8957 48.6779 47.181 48.5404 47.442 48.364C48.152 47.8913 48.6645 47.1753 48.8832 46.3508C49.1018 45.5264 49.0114 44.6504 48.629 43.888C50.0319 43.3706 51.5102 43.0868 53.005 43.048C53.0175 43.5692 53.2331 44.0649 53.6057 44.4296C53.9783 44.7942 54.4786 44.9989 55 45H58C58.5304 45 59.0391 44.7893 59.4142 44.4142C59.7893 44.0392 60 43.5305 60 43V30C60 29.4696 59.7893 28.9609 59.4142 28.5858C59.0391 28.2107 58.5304 28 58 28ZM49 7.87002L54.146 16H43.854L49 7.87002ZM55 21C55 21.5305 54.7893 22.0392 54.4142 22.4142C54.0391 22.7893 53.5304 23 53 23H45C44.4696 23 43.9609 22.7893 43.5858 22.4142C43.2107 22.0392 43 21.5305 43 21V18H55V21ZM11 7.87002L16.146 16H5.854L11 7.87002ZM17 21C17 21.5305 16.7893 22.0392 16.4142 22.4142C16.0391 22.7893 15.5304 23 15 23H7C6.46957 23 5.96086 22.7893 5.58579 22.4142C5.21071 22.0392 5 21.5305 5 21V18H17V21ZM5 44H2V31H5V44ZM40.07 31.678C40.4879 31.8916 40.9507 32.002 41.42 32H53V41.047C50.9906 41.0607 49.0077 41.5068 47.186 42.355L33.239 32.645C32.8641 32.382 32.4104 32.2556 31.9536 32.2869C31.4967 32.3182 31.0645 32.5053 30.729 32.817L25.639 37.547C25.4224 37.7629 25.1466 37.9097 24.8465 37.969C24.5465 38.0282 24.2356 37.9971 23.9532 37.8797C23.6708 37.7623 23.4295 37.5639 23.2598 37.3094C23.0902 37.0549 22.9998 36.7559 23 36.45C22.9946 36.0749 23.1286 35.7111 23.376 35.429L29.394 29.091C29.918 28.5576 30.5958 28.2016 31.3324 28.073C32.0689 27.9444 32.8273 28.0497 33.501 28.374L40.07 31.678ZM30 2.00002C30.7911 2.00002 31.5645 2.23462 32.2223 2.67414C32.8801 3.11367 33.3928 3.73838 33.6955 4.46929C33.9983 5.20019 34.0775 6.00446 33.9231 6.78038C33.7688 7.55631 33.3878 8.26904 32.8284 8.82845C32.269 9.38786 31.5563 9.76882 30.7804 9.92316C30.0044 10.0775 29.2002 9.99829 28.4693 9.69554C27.7384 9.39279 27.1136 8.8801 26.6741 8.2223C26.2346 7.5645 26 6.79115 26 6.00002C26 4.93915 26.4214 3.92174 27.1716 3.17159C27.9217 2.42145 28.9391 2.00002 30 2.00002ZM28 11.65C29.2925 12.1167 30.7075 12.1167 32 11.65V26H31.94C30.6343 26.0029 29.3715 26.4664 28.374 27.309C28.25 27.29 28.127 27.27 28 27.252V11.65ZM15.5 50.341C15.3312 50.2391 15.1842 50.105 15.0673 49.9462C14.9504 49.7875 14.8659 49.6072 14.8188 49.4158C14.7716 49.2244 14.7626 49.0256 14.7923 48.8307C14.8221 48.6358 14.8899 48.4487 14.992 48.28L16.873 45.165C16.9744 44.9958 17.1085 44.8485 17.2675 44.7318C17.4265 44.615 17.6072 44.5311 17.799 44.485C17.9165 44.4561 18.037 44.4413 18.158 44.441C18.4199 44.4409 18.6772 44.5094 18.9044 44.6397C19.1316 44.7699 19.3207 44.9574 19.453 45.1834C19.5853 45.4094 19.6561 45.6661 19.6584 45.928C19.6606 46.1898 19.5943 46.4477 19.466 46.676L17.552 49.83C17.552 49.838 17.544 49.847 17.54 49.855C17.3309 50.1865 17.0003 50.4229 16.619 50.5137C16.2378 50.6046 15.8361 50.5426 15.5 50.341ZM19.771 52.927C19.435 52.7245 19.1922 52.398 19.0951 52.0179C18.998 51.6379 19.0544 51.2349 19.252 50.896C19.252 50.888 19.264 50.883 19.269 50.875L21.154 47.761C21.164 47.745 21.169 47.727 21.178 47.711L21.668 46.902C21.7696 46.7331 21.9038 46.5861 22.0628 46.4695C22.2218 46.353 22.4023 46.2692 22.594 46.223C22.8822 46.1525 23.1847 46.169 23.4635 46.2705C23.7423 46.3719 23.9847 46.5538 24.1601 46.793C24.3356 47.0322 24.4361 47.3181 24.4491 47.6145C24.4621 47.9108 24.3869 48.2044 24.233 48.458L21.833 52.424C21.7315 52.5929 21.5975 52.74 21.4387 52.8568C21.2799 52.9735 21.0995 53.0575 20.908 53.104C20.7154 53.1512 20.5153 53.1599 20.3193 53.1295C20.1233 53.0991 19.9353 53.0303 19.766 52.927H19.771ZM24.045 55.521C23.7055 55.3139 23.4621 54.9805 23.3683 54.594C23.2745 54.2076 23.3381 53.7997 23.545 53.46L25.43 50.349C25.5315 50.1804 25.6654 50.0336 25.824 49.917C25.9826 49.8005 26.1628 49.7165 26.354 49.67C26.4719 49.6414 26.5927 49.627 26.714 49.627C26.987 49.6268 27.2549 49.7019 27.488 49.844C27.6563 49.9466 27.8027 50.0812 27.9189 50.2404C28.035 50.3995 28.1187 50.5799 28.1652 50.7714C28.2116 50.9629 28.2199 51.1617 28.1895 51.3564C28.1591 51.551 28.0906 51.7378 27.988 51.906L27.072 53.421L26.105 55.021C25.8979 55.3603 25.5647 55.6035 25.1784 55.6972C24.7922 55.791 24.3846 55.7276 24.045 55.521ZM29.266 57.521C29.1994 57.6363 29.1104 57.7371 29.0043 57.8175C28.8981 57.8979 28.777 57.9563 28.6481 57.9893C28.5191 58.0223 28.3848 58.0292 28.2531 58.0096C28.1214 57.99 27.9949 57.9443 27.8811 57.8752C27.7673 57.8061 27.6685 57.715 27.5904 57.6071C27.5123 57.4993 27.4565 57.377 27.4263 57.2473C27.3961 57.1176 27.3921 56.9832 27.4146 56.852C27.437 56.7207 27.4854 56.5953 27.557 56.483L27.813 56.061V56.056L29.176 53.8L29.436 53.371C29.5736 53.1445 29.7955 52.9819 30.053 52.9189C30.3104 52.8559 30.5823 52.8976 30.809 53.035C30.9213 53.1032 31.0191 53.1928 31.0967 53.2987C31.1744 53.4046 31.2304 53.5248 31.2616 53.6524C31.2928 53.78 31.2986 53.9125 31.2786 54.0423C31.2586 54.1721 31.2132 54.2967 31.145 54.409L29.266 57.521ZM46.321 46.721C46.0462 46.8844 45.7281 46.9603 45.4092 46.9387C45.0902 46.9171 44.7853 46.799 44.535 46.6L41.595 44.449C41.4889 44.3715 41.3686 44.3157 41.2409 44.2847C41.1132 44.2538 40.9807 44.2482 40.8508 44.2685C40.721 44.2887 40.5965 44.3343 40.4843 44.4027C40.3721 44.4711 40.2745 44.5609 40.197 44.667C40.1195 44.7731 40.0637 44.8935 40.0327 45.0211C40.0017 45.1488 39.9962 45.2814 40.0165 45.4112C40.0367 45.541 40.0823 45.6655 40.1507 45.7777C40.2191 45.8899 40.3089 45.9875 40.415 46.065L43.355 48.214C43.5521 48.3559 43.7624 48.4784 43.983 48.58C44.0506 48.692 44.1396 48.7896 44.245 48.867C44.5663 49.1017 44.7812 49.4545 44.8424 49.8476C44.9037 50.2408 44.8062 50.6422 44.5715 50.9635C44.3368 51.2848 43.984 51.4997 43.5909 51.561C43.1977 51.6222 42.7963 51.5247 42.475 51.29L41.675 50.703L38.261 48.203C38.047 48.0463 37.7794 47.981 37.5173 48.0215C37.2551 48.062 37.0197 48.205 36.863 48.419C36.7063 48.633 36.641 48.9006 36.6815 49.1628C36.722 49.4249 36.865 49.6603 37.079 49.817L40.502 52.317C40.8222 52.5531 41.0356 52.9067 41.0952 53.3C41.1547 53.6934 41.0555 54.0943 40.8195 54.4145C40.5835 54.7348 40.2299 54.9481 39.8365 55.0077C39.4431 55.0672 39.0422 54.9681 38.722 54.732L38.35 54.463L38.324 54.439L36.587 53.19C36.4806 53.1129 36.3601 53.0576 36.2323 53.027C36.1046 52.9965 35.972 52.9915 35.8423 53.0122C35.7126 53.0329 35.5882 53.079 35.4763 53.1477C35.3644 53.2165 35.2671 53.3066 35.19 53.413C35.1129 53.5194 35.0575 53.6399 35.027 53.7677C34.9965 53.8954 34.9915 54.028 35.0122 54.1577C35.0329 54.2874 35.0789 54.4118 35.1477 54.5237C35.2165 54.6357 35.3066 54.7329 35.413 54.81L37.146 56.065C37.3491 56.2183 37.4847 56.4446 37.524 56.696C37.5548 56.8911 37.5272 57.0909 37.4446 57.2703C37.3621 57.4497 37.2282 57.6007 37.06 57.7041C36.8917 57.8075 36.6966 57.8588 36.4993 57.8515C36.3019 57.8442 36.1111 57.7786 35.951 57.663L32.872 55.409C33.2719 54.7298 33.3884 53.9206 33.1964 53.1562C33.0044 52.3918 32.5193 51.7337 31.846 51.324C31.3474 51.0192 30.7699 50.8686 30.186 50.891C30.1576 50.4298 30.0375 49.9789 29.8325 49.5648C29.6275 49.1507 29.3419 48.7817 28.9925 48.4794C28.643 48.1772 28.2366 47.9478 27.7973 47.8046C27.358 47.6615 26.8945 47.6076 26.434 47.646C26.4308 47.1187 26.3082 46.599 26.0752 46.126C25.8423 45.6529 25.5052 45.2388 25.0893 44.9147C24.6733 44.5907 24.1893 44.3651 23.6736 44.255C23.158 44.1449 22.624 44.1531 22.112 44.279C21.8522 44.3459 21.6009 44.4422 21.363 44.566C21.1093 43.9755 20.6979 43.4662 20.1739 43.094C19.6499 42.7218 19.0336 42.5011 18.3924 42.456C17.7512 42.411 17.1101 42.5434 16.5392 42.8387C15.9683 43.134 15.4897 43.5807 15.156 44.13L14.523 45.18C12.2426 43.6821 9.6842 42.6581 7 42.169V33H13.87C14.7848 33.0005 15.6721 32.6875 16.384 32.113C18.5077 30.2602 21.1866 29.1652 24 29C24.929 29 25.8 29.039 26.617 29.11L21.906 34.072C21.2881 34.7574 20.9613 35.6565 20.995 36.5788C21.0287 37.501 21.4202 38.3738 22.0865 39.0123C22.7528 39.6508 23.6416 40.0047 24.5644 39.9991C25.4872 39.9934 26.3716 39.6286 27.03 38.982L32.089 34.282L46.389 44.238C46.5795 44.3773 46.7342 44.5598 46.8404 44.7705C46.9466 44.9812 47.0013 45.2141 47 45.45C46.9995 45.7009 46.9368 45.9477 46.8174 46.1683C46.698 46.3889 46.5257 46.5764 46.316 46.714L46.321 46.721ZM58 43H55V30H58V43Z" fill="url(#paint0_linear_11909_41697)"/>
</g>
<defs>
<linearGradient id="paint0_linear_11909_41697" x1="-3.6335e-07" y1="46.7981" x2="59.9987" y2="19.1969" gradientUnits="userSpaceOnUse">
<stop stop-color="#0575E6"/>
<stop offset="1" stop-color="#021B79"/>
</linearGradient>
<clipPath id="clip0_11909_41697">
<rect width="60" height="60" fill="white"/>
</clipPath>
</defs>
</svg>
