<svg width="512" height="512" viewBox="0 0 512 512" fill="none" xmlns="http://www.w3.org/2000/svg">
<g clip-path="url(#clip0_11909_41722)">
<path d="M500.75 86.24C495.58 83.2567 489.438 82.4477 483.672 83.9909C477.906 85.5341 472.988 89.3032 470 94.47L455.4 119.76C452.099 119.487 448.789 120.159 445.855 121.695C442.922 123.232 440.485 125.571 438.83 128.44L424.98 152.44V75H477.48C479.469 75 481.377 74.2098 482.783 72.8033C484.19 71.3968 484.98 69.4891 484.98 67.5V37.5C484.969 27.5611 481.018 18.032 473.992 11.0022C466.966 3.9725 457.439 0.0158797 447.5 0H97.5C87.5576 0.0105883 78.0255 3.96487 70.9952 10.9952C63.9649 18.0255 60.0106 27.5576 60 37.5V437H7.5C5.51088 437 3.60322 437.79 2.1967 439.197C0.790176 440.603 0 442.511 0 444.5L0 474.5C0.0105883 484.442 3.96487 493.975 10.9952 501.005C18.0255 508.035 27.5576 511.989 37.5 512H387.5C397.442 511.989 406.975 508.035 414.005 501.005C421.035 493.975 424.989 484.442 425 474.5V282.41L425.14 282.19L481.39 184.76L492.22 191C492.792 191.332 493.209 191.878 493.379 192.517C493.55 193.156 493.46 193.837 493.13 194.41L463.13 246.41C462.638 247.264 462.318 248.206 462.19 249.183C462.061 250.16 462.127 251.153 462.382 252.105C462.638 253.056 463.078 253.949 463.678 254.73C464.278 255.512 465.026 256.168 465.88 256.66C466.734 257.152 467.676 257.472 468.653 257.6C469.63 257.729 470.623 257.663 471.575 257.408C472.526 257.152 473.419 256.712 474.2 256.112C474.982 255.512 475.638 254.764 476.13 253.91L506.13 201.91C508.449 197.892 509.078 193.117 507.878 188.635C506.678 184.153 503.747 180.332 499.73 178.01L488.9 171.76L495.15 160.93C496.809 158.067 497.619 154.792 497.486 151.486C497.353 148.18 496.283 144.98 494.4 142.26L509 117C511.985 111.827 512.792 105.68 511.245 99.9114C509.698 94.1429 505.923 89.2251 500.75 86.24ZM447.5 15C453.466 15.0053 459.186 17.3775 463.404 21.5959C467.622 25.8144 469.995 31.5343 470 37.5V60H425V37.5C425.005 31.5343 427.378 25.8144 431.596 21.5959C435.814 17.3775 441.534 15.0053 447.5 15ZM37.5 497C31.5343 496.995 25.8144 494.622 21.5959 490.404C17.3775 486.186 15.0053 480.466 15 474.5V452H350V474.5C349.991 482.619 352.632 490.518 357.52 497H37.5ZM387.5 497C381.534 496.995 375.814 494.622 371.596 490.404C367.378 486.186 365.005 480.466 365 474.5V444.5C365 442.511 364.21 440.603 362.803 439.197C361.397 437.79 359.489 437 357.5 437H75V37.5C75.0053 31.5343 77.3775 25.8144 81.5959 21.5959C85.8144 17.3775 91.5343 15.0053 97.5 15H417.5C412.619 21.4843 409.985 29.3838 410 37.5V178.41L368.85 249.69C367.689 251.681 366.936 253.884 366.636 256.169C366.335 258.454 366.493 260.776 367.1 263C367.37 264.001 367.731 264.975 368.18 265.91L327.72 335.98C315.694 356.832 309.408 380.499 309.5 404.57C309.513 405.878 309.869 407.16 310.53 408.288C311.192 409.417 312.138 410.352 313.273 411.002C314.408 411.652 315.694 411.994 317.002 411.994C318.31 411.993 319.595 411.651 320.73 411C341.618 399.051 358.964 381.777 371 360.94L410 293.43V474.5C409.995 480.466 407.622 486.186 403.404 490.404C399.186 494.622 393.466 496.995 387.5 497ZM379.59 276.09L396.91 286.09L358 353.44C349.716 367.787 338.572 380.278 325.26 390.14C327.154 373.683 332.402 357.789 340.68 343.44L379.59 276.09ZM412.15 274.69C411.986 274.974 411.768 275.223 411.508 275.423C411.248 275.623 410.951 275.769 410.634 275.853C410.317 275.938 409.987 275.959 409.662 275.916C409.337 275.872 409.023 275.765 408.74 275.6L382.74 260.6C382.455 260.437 382.205 260.22 382.004 259.96C381.804 259.7 381.656 259.403 381.571 259.086C381.485 258.769 381.463 258.439 381.506 258.113C381.549 257.788 381.656 257.474 381.82 257.19L451.82 135.94C451.984 135.656 452.203 135.407 452.464 135.208C452.725 135.009 453.023 134.864 453.34 134.78C453.551 134.719 453.77 134.688 453.99 134.69C454.429 134.691 454.861 134.808 455.24 135.03L481.24 150.03C481.812 150.362 482.229 150.908 482.399 151.547C482.57 152.186 482.48 152.867 482.15 153.44L472.15 170.76L412.15 274.69ZM496 109.47L482.25 133.29L469.25 125.79L483 102C483.995 100.276 485.633 99.0179 487.555 98.5022C489.478 97.9864 491.526 98.2554 493.25 99.25C494.974 100.245 496.232 101.883 496.748 103.805C497.264 105.728 496.995 107.776 496 109.5V109.47Z" fill="url(#paint0_linear_11909_41722)"/>
<path d="M177.08 60.8504C183.27 73.6939 184.519 88.3653 180.59 102.07C177.349 113.781 177.765 126.203 181.783 137.671C185.801 149.138 193.228 159.104 203.07 166.23C209.764 171.076 217.381 174.497 225.45 176.28L240.82 179.82C241.926 180.074 243.074 180.074 244.18 179.82L259.55 176.28C267.611 174.508 275.224 171.105 281.92 166.28C291.764 159.153 299.194 149.187 303.214 137.717C307.234 126.248 307.651 113.824 304.41 102.11C300.481 88.4053 301.73 73.7339 307.92 60.8904L308.7 59.3204C309.785 57.1313 310.205 54.6722 309.907 52.2471C309.61 49.822 308.608 47.5374 307.026 45.6755C305.444 43.8136 303.351 42.4562 301.005 41.771C298.66 41.0859 296.166 41.1031 293.83 41.8204L290.59 42.8204C284.241 44.7581 277.638 45.7356 271 45.7204C262.2 45.6985 253.489 43.9522 245.36 40.5804C244.448 40.1992 243.469 40.0029 242.48 40.0029C241.491 40.0029 240.512 40.1992 239.6 40.5804C231.484 43.9471 222.787 45.6932 214 45.7204C207.367 45.7206 200.77 44.7297 194.43 42.7804L191.19 41.7804C188.854 41.0631 186.36 41.0459 184.015 41.731C181.669 42.4162 179.576 43.7736 177.994 45.6355C176.412 47.4974 175.41 49.7821 175.113 52.2071C174.815 54.6322 175.235 57.0913 176.32 59.2804L177.08 60.8504ZM213.98 60.7204C223.717 60.6977 233.373 58.9508 242.5 55.5604C251.621 58.9484 261.27 60.6954 271 60.7204C278.376 60.7116 285.716 59.7024 292.82 57.7204C286.43 73.0282 285.408 90.048 289.92 106.01C292.351 114.802 292.033 124.128 289.008 132.733C285.983 141.339 280.397 148.813 273 154.15C267.951 157.778 262.214 160.334 256.14 161.66L242.46 164.81L228.77 161.66C222.728 160.323 217.021 157.768 212 154.15C204.597 148.815 199.006 141.341 195.977 132.733C192.949 124.125 192.629 114.796 195.06 106C199.573 90.0379 198.55 73.0182 192.16 57.7104C199.27 59.6976 206.617 60.7102 214 60.7204H213.98ZM203.17 204.51C203.169 205.496 203.362 206.472 203.738 207.382C204.115 208.293 204.667 209.12 205.364 209.817C206.06 210.513 206.888 211.066 207.798 211.442C208.709 211.819 209.685 212.012 210.67 212.01H367.5C369.489 212.01 371.397 211.22 372.803 209.814C374.21 208.407 375 206.5 375 204.51C375 202.521 374.21 200.614 372.803 199.207C371.397 197.801 369.489 197.01 367.5 197.01H210.67C208.681 197.01 206.773 197.801 205.367 199.207C203.96 200.614 203.17 202.521 203.17 204.51ZM107.5 212H162.33C164.319 212 166.227 211.21 167.633 209.804C169.04 208.397 169.83 206.49 169.83 204.5C169.83 202.511 169.04 200.604 167.633 199.197C166.227 197.791 164.319 197 162.33 197H107.5C105.511 197 103.603 197.791 102.197 199.197C100.79 200.604 100 202.511 100 204.5C100 206.49 100.79 208.397 102.197 209.804C103.603 211.21 105.511 212 107.5 212ZM107.5 262H337.5C339.489 262 341.397 261.21 342.803 259.804C344.21 258.397 345 256.49 345 254.5C345 252.511 344.21 250.604 342.803 249.197C341.397 247.791 339.489 247 337.5 247H107.5C105.511 247 103.603 247.791 102.197 249.197C100.79 250.604 100 252.511 100 254.5C100 256.49 100.79 258.397 102.197 259.804C103.603 261.21 105.511 262 107.5 262ZM107.5 312H317.5C319.489 312 321.397 311.21 322.803 309.804C324.21 308.397 325 306.49 325 304.5C325 302.511 324.21 300.604 322.803 299.197C321.397 297.791 319.489 297 317.5 297H107.5C105.511 297 103.603 297.791 102.197 299.197C100.79 300.604 100 302.511 100 304.5C100 306.49 100.79 308.397 102.197 309.804C103.603 311.21 105.511 312 107.5 312ZM297.5 347H107.5C105.511 347 103.603 347.791 102.197 349.197C100.79 350.604 100 352.511 100 354.5C100 356.49 100.79 358.397 102.197 359.804C103.603 361.21 105.511 362 107.5 362H297.5C299.489 362 301.397 361.21 302.803 359.804C304.21 358.397 305 356.49 305 354.5C305 352.511 304.21 350.604 302.803 349.197C301.397 347.791 299.489 347 297.5 347ZM187.5 397H107.5C105.511 397 103.603 397.791 102.197 399.197C100.79 400.604 100 402.511 100 404.5C100 406.49 100.79 408.397 102.197 409.804C103.603 411.21 105.511 412 107.5 412H187.5C189.489 412 191.397 411.21 192.803 409.804C194.21 408.397 195 406.49 195 404.5C195 402.511 194.21 400.604 192.803 399.197C191.397 397.791 189.489 397 187.5 397ZM297.5 397H217.5C215.511 397 213.603 397.791 212.197 399.197C210.79 400.604 210 402.511 210 404.5C210 406.49 210.79 408.397 212.197 409.804C213.603 411.21 215.511 412 217.5 412H297.5C299.489 412 301.397 411.21 302.803 409.804C304.21 408.397 305 406.49 305 404.5C305 402.511 304.21 400.604 302.803 399.197C301.397 397.791 299.489 397 297.5 397Z" fill="url(#paint1_linear_11909_41722)"/>
</g>
<defs>
<linearGradient id="paint0_linear_11909_41722" x1="-3.10067e-06" y1="399.36" x2="512.009" y2="163.829" gradientUnits="userSpaceOnUse">
<stop stop-color="#0575E6"/>
<stop offset="1" stop-color="#021B79"/>
</linearGradient>
<linearGradient id="paint1_linear_11909_41722" x1="100" y1="330.161" x2="398.654" y2="228.602" gradientUnits="userSpaceOnUse">
<stop stop-color="#0575E6"/>
<stop offset="1" stop-color="#021B79"/>
</linearGradient>
<clipPath id="clip0_11909_41722">
<rect width="512" height="512" fill="white"/>
</clipPath>
</defs>
</svg>
