<svg width="128" height="128" viewBox="0 0 128 128" fill="none" xmlns="http://www.w3.org/2000/svg">
<g clip-path="url(#clip0_11909_41725)">
<path d="M39.5635 33.9834H34.8672C34.3368 33.9834 33.828 34.1941 33.453 34.5692C33.0779 34.9443 32.8672 35.453 32.8672 35.9834C32.8672 36.5138 33.0779 37.0225 33.453 37.3976C33.828 37.7727 34.3368 37.9834 34.8672 37.9834H39.5635C40.0939 37.9834 40.6026 37.7727 40.9777 37.3976C41.3528 37.0225 41.5635 36.5138 41.5635 35.9834C41.5635 35.453 41.3528 34.9443 40.9777 34.5692C40.6026 34.1941 40.0939 33.9834 39.5635 33.9834ZM109.737 74.9033C109.533 74.8257 109.326 74.7475 109.117 74.6688L108.989 74.6209C108.792 74.5469 108.594 74.4732 108.394 74.3998L108.32 74.3725C108.092 74.2893 107.863 74.2073 107.632 74.1265L107.588 74.1115C107.372 74.0363 107.155 73.9628 106.936 73.8913L106.858 73.8654C106.383 73.7112 105.904 73.5679 105.422 73.4408L105.39 73.4327C103.612 72.9027 101.736 72.7839 99.9045 73.0854C99.8854 72.9199 99.87 72.7545 99.8398 72.5889C99.3613 69.9581 96.749 66.9922 96.4531 66.6631C96.2672 66.4562 96.0401 66.2903 95.7863 66.1761C95.5326 66.062 95.2579 66.002 94.9796 66.0001C94.7014 65.9981 94.4258 66.0543 94.1706 66.1649C93.9153 66.2756 93.6859 66.4383 93.4971 66.6426C92.9971 67.1826 90.4834 70.0128 90.0821 72.6446C90.0506 72.8521 90.0335 73.058 90.0171 73.2628C86.392 72.4118 82.6488 73.8049 79.3916 75.0216C73.3985 77.2589 69.5245 78.3488 65.6377 72.7882C65.4876 72.5723 65.2963 72.3881 65.0748 72.2462C64.8534 72.1043 64.6061 72.0074 64.3472 71.9612C64.0882 71.915 63.8227 71.9203 63.5659 71.9768C63.309 72.0333 63.0658 72.14 62.8502 72.2906C62.6346 72.4412 62.4508 72.6329 62.3093 72.8547C62.1679 73.0764 62.0716 73.3239 62.0259 73.5829C61.9802 73.8419 61.9861 74.1074 62.0432 74.3642C62.1002 74.6209 62.2074 74.8639 62.3584 75.0792C64.7875 78.5544 67.4077 80.138 70.042 80.6563L62.3199 102.363C62.1103 102.685 61.9985 103.06 61.998 103.444C61.998 103.472 62.005 103.498 62.0062 103.525C62.0042 103.571 62.0021 103.617 62.0032 103.663C62.0064 103.74 62.014 103.816 62.026 103.891C62.0317 103.932 62.0299 103.971 62.0381 104.012C62.0436 104.039 62.0519 104.065 62.0576 104.092L62.0654 104.124C62.119 104.375 62.1774 104.626 62.2461 104.869C62.9501 107.362 64.4488 109.556 66.5143 111.118C68.5798 112.681 71.099 113.526 73.6889 113.525C76.2787 113.525 78.7976 112.679 80.8624 111.115C82.9272 109.552 84.425 107.357 85.1279 104.864C85.1987 104.61 85.2589 104.352 85.3137 104.093L85.3196 104.068C85.3236 104.05 85.3292 104.031 85.333 104.013C85.3425 103.966 85.3408 103.92 85.3469 103.874C85.3584 103.801 85.3658 103.727 85.369 103.653C85.3686 103.587 85.3648 103.52 85.3577 103.454C85.3525 103.391 85.3499 103.329 85.3386 103.265C85.3233 103.189 85.3036 103.114 85.2794 103.041C85.2667 102.999 85.2617 102.956 85.2461 102.914L76.7336 80.1517C78.1379 79.7565 79.5006 79.2496 80.79 78.7685C86.3641 76.689 89.7556 75.7179 92.999 80.0467V113.067C92.409 113.419 91.9204 113.918 91.5808 114.516C91.2412 115.113 91.0623 115.788 91.0615 116.476V118.856C85.7363 120.034 82.7286 123.428 82.3835 125.593C82.3231 125.884 82.3283 126.185 82.3987 126.474C82.4691 126.762 82.6029 127.032 82.7905 127.262C82.978 127.493 83.2146 127.679 83.4829 127.806C83.7513 127.934 84.0447 128 84.3418 128H105.654C105.953 128.001 106.248 127.935 106.518 127.806C106.787 127.678 107.025 127.49 107.212 127.258C107.4 127.026 107.533 126.754 107.601 126.463C107.67 126.172 107.672 125.87 107.608 125.578C107.227 123.586 104.293 120.084 98.9365 118.868V116.476C98.9357 115.788 98.7568 115.113 98.4173 114.516C98.0777 113.918 97.5891 113.419 96.999 113.067V80.0365C97.2653 79.6024 97.5636 79.1888 97.8915 78.7992C98.1262 78.6033 98.3432 78.3872 98.54 78.1533L98.5547 78.1332C100.949 76.0332 103.82 76.9387 108.32 78.6436C109.799 79.2302 111.307 79.741 112.838 80.1741L104.738 102.943C104.723 102.987 104.718 103.031 104.706 103.075C104.664 103.206 104.64 103.343 104.636 103.481C104.632 103.542 104.627 103.602 104.628 103.663C104.631 103.74 104.639 103.816 104.651 103.891C104.657 103.932 104.655 103.971 104.663 104.012C104.669 104.039 104.677 104.065 104.683 104.092L104.69 104.124C104.744 104.375 104.802 104.626 104.871 104.869C105.575 107.361 107.073 109.555 109.137 111.117C111.202 112.68 113.72 113.525 116.309 113.525C118.898 113.526 121.417 112.68 123.482 111.118C125.547 109.556 127.045 107.363 127.749 104.871C127.821 104.616 127.883 104.357 127.938 104.095L127.945 104.067C127.949 104.049 127.954 104.031 127.958 104.013C127.967 103.966 127.966 103.92 127.972 103.874C127.983 103.801 127.991 103.727 127.994 103.653C127.995 103.61 127.992 103.568 127.99 103.526C127.991 103.498 127.998 103.472 127.998 103.444C127.998 103.041 127.876 102.647 127.647 102.315L119.531 80.6118C122.253 80.0949 124.996 78.5348 127.551 75.1348C127.869 74.7109 128.006 74.1777 127.932 73.6526C127.857 73.1276 127.577 72.6536 127.153 72.335C126.729 72.0165 126.196 71.8794 125.671 71.9539C125.146 72.0284 124.672 72.3085 124.354 72.7325C119.844 78.7305 115.162 76.957 109.737 74.9033ZM66.8928 101.444L73.4908 82.8978L80.4267 101.444H66.8928ZM73.6855 109.525C72.2798 109.518 70.9013 109.136 69.6923 108.419C68.4833 107.702 67.4876 106.675 66.8077 105.444H80.5643C79.8843 106.675 78.8884 107.702 77.6792 108.419C76.4701 109.136 75.0915 109.518 73.6855 109.525ZM94.0371 73.248C94.2153 72.5421 94.5251 71.8761 94.9502 71.2851C95.3831 71.8978 95.706 72.5812 95.9043 73.3046C96.0662 74.0241 95.95 74.7781 95.5791 75.4154C95.4399 75.5506 95.3017 75.6921 95.1645 75.84C95.1032 75.8727 95.0353 75.8911 94.9658 75.8935C94.87 75.8912 94.776 75.866 94.6919 75.82C94.6078 75.7739 94.536 75.7084 94.4824 75.6289C94.2487 75.2838 94.0886 74.8944 94.0119 74.4848C93.9353 74.0752 93.9439 73.6542 94.0371 73.248ZM88.6437 124C90.5775 122.903 92.7761 122.361 94.998 122.432C97.1759 122.379 99.327 122.921 101.22 124H88.6437ZM109.518 101.444L116.115 82.8966L123.052 101.444H109.518ZM116.311 109.525C114.905 109.518 113.526 109.136 112.317 108.419C111.108 107.702 110.113 106.675 109.433 105.444H123.189C122.509 106.675 121.513 107.702 120.304 108.419C119.095 109.137 117.716 109.518 116.311 109.525Z" fill="url(#paint0_linear_11909_41725)"/>
<path d="M2.0003 102H58.1827C58.293 101.551 58.4551 101.117 58.6658 100.706L59.6286 97.9996H48.3706L58.1702 57.6676L62.0354 58.8961C62.7647 59.1297 63.4181 59.5544 63.9278 60.1259C64.4375 60.6974 64.7849 61.3949 64.9339 62.1461L66.0783 68.3071C67.2269 68.7282 68.2184 69.4923 68.9183 70.4957C69.4119 71.3382 70.1051 72.0464 70.9369 72.5579L68.8626 61.3921C68.5767 59.9342 67.9047 58.5798 66.9168 57.4702C65.929 56.3605 64.6614 55.5363 63.2464 55.0836L54.4533 52.2886C57.9816 49.0538 59.892 44.8139 60.1683 42.7583C62.2903 26.9703 60.2757 15.1646 54.18 7.66948C51.1262 3.73276 46.6863 1.10855 41.7649 0.331559C40.2044 -0.176776 38.5152 -0.123938 36.9895 0.480939C35.4638 -0.123903 33.7747 -0.17674 32.2142 0.331559C27.2928 1.10855 22.8529 3.73275 19.7992 7.66945C13.7035 15.1646 11.6888 26.9702 13.8109 42.7573C14.6482 46.5309 16.5933 49.9685 19.3967 52.6297L12.5433 55.0376C11.1807 55.5242 9.96796 56.3564 9.02383 57.4528C8.07969 58.5491 7.43658 59.8719 7.15753 61.2916L0.0334953 99.6343C-0.0200011 99.923 -0.00931132 100.22 0.0648063 100.504C0.138924 100.788 0.274653 101.052 0.462362 101.278C0.650072 101.504 0.885161 101.685 1.15095 101.81C1.41674 101.935 1.70671 102 2.0003 102ZM44.2542 97.9996H31.746L21.5583 56.1098L27.6207 53.9799L25.9085 59.7857C25.8038 60.1405 25.7996 60.5175 25.8963 60.8746C25.9931 61.2317 26.187 61.5549 26.4566 61.8083C26.7261 62.0618 27.0607 62.2355 27.423 62.3101C27.7854 62.3847 28.1614 62.3573 28.5091 62.231L30.1419 61.6382L26.3206 72.4624C26.214 72.7641 26.1813 73.0869 26.2253 73.4038C26.2693 73.7207 26.3887 74.0224 26.5734 74.2835C26.7582 74.5447 27.0029 74.7578 27.287 74.9048C27.5712 75.0518 27.8864 75.1285 28.2063 75.1284H35.1478C35.602 75.1285 36.0427 74.9739 36.3973 74.69C36.752 74.4062 36.9994 74.0101 37.0989 73.5669L38.1497 68.8941L39.3938 73.6363C39.5061 74.0638 39.7568 74.4421 40.1068 74.7121C40.4568 74.9821 40.8864 75.1285 41.3284 75.1285H47.6038C47.9214 75.1285 48.2345 75.0528 48.5171 74.9078C48.7997 74.7628 49.0436 74.5525 49.2288 74.2944C49.414 74.0363 49.535 73.7378 49.5819 73.4237C49.6287 73.1095 49.6001 72.7887 49.4983 72.4878L45.845 61.6792L47.5374 62.2466C47.876 62.3604 48.2389 62.3813 48.5884 62.3073C48.9379 62.2333 49.2611 62.0671 49.5246 61.8258C49.788 61.5846 49.9821 61.2772 50.0865 60.9356C50.191 60.594 50.202 60.2307 50.1185 59.8833L48.8758 54.7134L54.3488 56.4529L44.2542 97.9996ZM48.4368 26.232C48.7298 26.4833 49.0896 26.6439 49.4723 26.6941C49.7352 26.797 50.0173 26.8419 50.2991 26.8257C50.3139 27.2498 50.2877 27.6743 50.221 28.0933C50.1755 28.4336 50.1109 28.771 50.0276 29.104C50.0013 29.1003 49.975 29.1042 49.9486 29.1015C49.9194 29.0984 49.8923 29.0893 49.8626 29.0875C49.8011 29.083 49.7425 29.0916 49.682 29.0928C49.6336 29.0941 49.5857 29.0922 49.5376 29.0971C49.4068 29.109 49.2775 29.1342 49.1518 29.1723L49.1316 29.1772C48.8418 29.2694 48.5772 29.4276 48.3589 29.6394L48.3451 29.65C48.3305 29.6642 48.3208 29.6811 48.3068 29.6955C48.2359 29.7678 48.1706 29.8455 48.1116 29.9277C48.0827 29.9682 48.0594 30.0106 48.034 30.0526C47.9934 30.1178 47.9567 30.1853 47.924 30.2548C47.8972 30.3135 47.8772 30.3736 47.8563 30.4342C47.8358 30.4942 47.8147 30.5532 47.7998 30.6156C47.7836 30.6888 47.7715 30.7629 47.7636 30.8375C47.7584 30.8791 47.7462 30.9182 47.7436 30.9605C47.6811 31.9663 47.5238 33.6011 47.4213 34.1197C47.1959 35.238 46.7561 36.3022 46.1263 37.2535C44.8385 39.3323 42.9839 41.0002 40.7806 42.0611C39.0977 42.8039 37.1949 42.8765 35.4603 42.2642C26.8304 39.3687 25.6488 30.438 25.6038 30.065C25.573 29.7992 25.4892 29.5422 25.3574 29.3094C25.2256 29.0765 25.0485 28.8724 24.8364 28.7092C24.6244 28.5459 24.3818 28.4268 24.1229 28.359C23.8641 28.2911 23.5943 28.2758 23.3294 28.314C23.2462 27.9806 23.1816 27.6429 23.1361 27.3023C23.0688 26.8833 23.0426 26.4588 23.0579 26.0347C23.5108 26.0691 23.9618 25.9478 24.3363 25.6909C28.9925 22.5359 33.2099 18.7776 36.8783 14.5142C40.2405 19.1333 47.4271 25.3648 48.4368 26.232ZM40.765 59.1402L44.8167 71.1285H42.8714L39.9349 59.9361C39.8212 59.5026 39.5651 59.1198 39.2079 58.8493C38.8506 58.5787 38.4128 58.4359 37.9647 58.4439C37.5167 58.4519 37.0842 58.6102 36.7369 58.8933C36.3895 59.1765 36.1473 59.5681 36.0491 60.0054L33.5471 71.1284H31.0335L35.3216 58.98C35.448 58.6227 35.4702 58.2368 35.3857 57.8673C35.3011 57.4978 35.1133 57.16 34.8441 56.8932C34.575 56.6263 34.2355 56.4415 33.8653 56.3602C33.4951 56.279 33.1094 56.3046 32.7532 56.4341L30.8646 57.1196L31.8343 53.8326L37.1243 56.4087C37.3664 56.5263 37.6296 56.594 37.8984 56.6077C38.1671 56.6215 38.4359 56.581 38.6887 56.4888L44.6624 54.2984L45.385 57.3052L43.2962 56.604C42.943 56.4852 42.5637 56.4674 42.201 56.5526C41.8383 56.6379 41.5066 56.8228 41.2434 57.0865C40.9802 57.3502 40.7959 57.6822 40.7114 58.0451C40.6268 58.408 40.6454 58.7873 40.765 59.1402ZM34.1888 46.0572C35.3914 46.4634 36.6518 46.6722 37.9212 46.6753C39.4833 46.6793 41.0278 46.3452 42.4485 45.6958C42.6327 45.6114 42.8101 45.5137 42.9905 45.422V50.2203C42.9935 50.3603 43.0046 50.5001 43.0238 50.6389L38.1107 52.44L32.9614 49.9327C32.9783 49.8026 32.9881 49.6717 32.9905 49.5406L32.9774 45.5942C33.3708 45.7564 33.7679 45.916 34.1888 46.0572ZM17.7757 42.2252C15.8431 27.8531 17.5901 16.8092 22.8275 10.2857C27.2132 4.82382 32.4876 4.31991 32.6985 4.30233C32.8145 4.29348 32.9295 4.27486 33.0423 4.24667C33.6512 4.06433 34.2864 3.98504 34.9214 4.01205C34.9265 4.08731 34.9299 4.16445 34.9398 4.23397C35.0138 4.76377 35.2927 5.2434 35.7165 5.56987C36.1403 5.89634 36.6752 6.04361 37.2064 5.98006C37.3738 5.95427 37.5374 5.90805 37.6935 5.84243C38.045 5.72556 38.357 5.51322 38.5947 5.22916C38.8324 4.9451 38.9863 4.60053 39.0394 4.23397C39.0493 4.16445 39.0526 4.0873 39.0577 4.01197C39.6927 3.98546 40.3278 4.06477 40.9368 4.24665C41.0496 4.27484 41.1646 4.29346 41.2806 4.30231C41.3343 4.30622 46.6478 4.74665 51.0765 10.1929C56.3724 16.7047 58.1458 27.7818 56.2035 42.2261C55.1648 45.7569 52.9027 48.8024 49.8225 50.8167L47.1445 49.9655C47.1041 49.9401 47.069 49.908 47.0267 49.8853C47.0151 49.8792 47.0022 49.8766 46.9905 49.8707V42.9107C46.9896 42.7874 46.9772 42.6645 46.9535 42.5435C47.9005 41.6016 48.7453 40.5623 49.474 39.4429C50.3849 38.062 51.0203 36.5181 51.3451 34.896C51.4233 34.5009 51.4983 33.8894 51.5627 33.2631C53.4082 32.5681 53.9453 30.3156 54.182 28.6558C54.3148 27.7173 54.7201 24.8609 52.8441 23.4009C52.1755 22.8921 51.3407 22.6521 50.504 22.7282C44.3469 17.3747 39.4547 11.9519 39.1293 10.5855C39.0645 10.1905 38.8827 9.82396 38.6073 9.5334C38.332 9.24283 37.9758 9.04157 37.5848 8.95564C37.1939 8.86971 36.7861 8.90306 36.4143 9.05139C36.0425 9.19972 35.7237 9.4562 35.4993 9.78765C31.9385 14.5043 27.6288 18.6055 22.7415 21.9283C21.9412 21.8869 21.1519 22.1286 20.512 22.6109C18.637 24.0709 19.0423 26.9263 19.1751 27.8648C19.4163 29.563 19.9632 31.8941 21.9144 32.5298C21.9574 32.5435 21.9994 32.5562 22.0414 32.5679C23.1042 36.8327 25.5544 40.6233 29.0066 43.3437C28.9836 43.464 28.9717 43.5861 28.9711 43.7085L28.9896 49.2593L24.1965 50.9433C20.3984 49.6018 17.9661 43.6447 17.7757 42.2252ZM11.0862 62.0455C11.2309 61.3117 11.5634 60.628 12.0512 60.0611C12.539 59.4943 13.1655 59.0636 13.8694 58.8111L17.7657 57.4422L27.6294 97.9996H4.40655L11.0862 62.0455Z" fill="url(#paint1_linear_11909_41725)"/>
</g>
<defs>
<linearGradient id="paint0_linear_11909_41725" x1="32.8672" y1="107.316" x2="127.604" y2="63.2211" gradientUnits="userSpaceOnUse">
<stop stop-color="#0575E6"/>
<stop offset="1" stop-color="#021B79"/>
</linearGradient>
<linearGradient id="paint1_linear_11909_41725" x1="-4.29582e-07" y1="79.5564" x2="77.9697" y2="54.6165" gradientUnits="userSpaceOnUse">
<stop stop-color="#0575E6"/>
<stop offset="1" stop-color="#021B79"/>
</linearGradient>
<clipPath id="clip0_11909_41725">
<rect width="128" height="128" fill="white"/>
</clipPath>
</defs>
</svg>
