<svg width="64" height="64" viewBox="0 0 64 64" fill="none" xmlns="http://www.w3.org/2000/svg">
<path d="M16.1969 19.0002C16.1969 20.4002 17.0969 21.6002 18.3969 21.8002C21.8969 22.5002 24.1969 24.4002 24.1969 29.5002C24.1969 29.8002 24.1969 30.1002 24.1969 30.3002C24.0969 32.3002 22.4969 33.8002 20.4969 33.8002H5.49688C3.49688 33.8002 1.89688 32.2002 1.79688 30.3002C1.79688 30.0002 1.79688 29.7002 1.79688 29.5002C1.79688 24.4002 4.19688 22.5002 7.59688 21.8002C8.89688 21.6002 9.79688 20.4002 9.79688 19.0002M9.19687 18.5002C6.69687 17.0002 4.99688 15.3002 4.99688 12.1002C4.99688 7.3002 8.09687 1.7002 12.9969 1.7002C17.8969 1.7002 20.9969 7.3002 20.9969 12.0002C20.9969 15.3002 19.2969 16.9002 16.7969 18.5002" stroke="url(#paint0_linear_11909_41702)" stroke-width="1.5" stroke-miterlimit="10" stroke-linecap="round" stroke-linejoin="round"/>
<path d="M17.5984 11.9996V15.1996C17.5984 20.0996 13.0984 20.2996 12.9984 20.2996C12.8984 20.2996 8.39844 20.1996 8.39844 15.1996V12.8996C9.59844 12.9996 11.1984 12.6996 12.4984 11.9996C14.4984 10.8996 15.6984 8.99961 15.1984 7.59961C16.5984 8.39961 17.5984 10.0996 17.5984 11.9996Z" stroke="url(#paint1_linear_11909_41702)" stroke-width="1.5" stroke-miterlimit="10" stroke-linecap="round" stroke-linejoin="round"/>
<path d="M12.9984 31.2004L11.3984 29.7004L12.9984 23.4004L14.4984 29.7004L12.9984 31.2004Z" stroke="url(#paint2_linear_11909_41702)" stroke-width="1.5" stroke-miterlimit="10" stroke-linecap="round" stroke-linejoin="round"/>
<path d="M11.3984 23.0996H14.4984" stroke="url(#paint3_linear_11909_41702)" stroke-width="1.5" stroke-miterlimit="10" stroke-linecap="round" stroke-linejoin="round"/>
<path d="M9.20156 51.4002C10.9136 51.4002 12.3016 50.0123 12.3016 48.3002C12.3016 46.5881 10.9136 45.2002 9.20156 45.2002C7.48948 45.2002 6.10156 46.5881 6.10156 48.3002C6.10156 50.0123 7.48948 51.4002 9.20156 51.4002Z" stroke="url(#paint4_linear_11909_41702)" stroke-width="1.5" stroke-miterlimit="10" stroke-linecap="round" stroke-linejoin="round"/>
<path d="M14.4031 62.2002C15.4031 62.2002 16.3031 61.5002 16.5031 60.6002C16.6031 60.1002 16.7031 59.6002 16.7031 59.0002C16.7031 54.9002 13.4031 54.7002 9.20312 54.7002C5.10313 54.7002 1.70312 54.9002 1.70312 59.0002C1.70312 59.5002 1.80312 60.1002 1.90312 60.6002C2.10312 61.6002 3.00312 62.2002 4.00312 62.2002H14.4031ZM60.0031 62.2002C61.0031 62.2002 61.9031 61.5002 62.1031 60.6002C62.2031 60.1002 62.3031 59.6002 62.3031 59.0002C62.3031 54.9002 59.0031 54.7002 54.8031 54.7002C50.7031 54.7002 47.3031 54.9002 47.3031 59.0002C47.3031 59.5002 47.4031 60.1002 47.5031 60.6002C47.7031 61.6002 48.6031 62.2002 49.6031 62.2002H60.0031Z" stroke="url(#paint5_linear_11909_41702)" stroke-width="1.5" stroke-miterlimit="10" stroke-linecap="round" stroke-linejoin="round"/>
<path d="M54.8031 51.4002C56.5152 51.4002 57.9031 50.0123 57.9031 48.3002C57.9031 46.5881 56.5152 45.2002 54.8031 45.2002C53.091 45.2002 51.7031 46.5881 51.7031 48.3002C51.7031 50.0123 53.091 51.4002 54.8031 51.4002Z" stroke="url(#paint6_linear_11909_41702)" stroke-width="1.5" stroke-miterlimit="10" stroke-linecap="round" stroke-linejoin="round"/>
<path d="M37.2 62.2002C38.2 62.2002 39.1 61.5002 39.3 60.6002C39.4 60.1002 39.5 59.6002 39.5 59.0002C39.5 54.9002 36.2 54.7002 32 54.7002C27.9 54.7002 24.5 54.9002 24.5 59.0002C24.5 59.5002 24.6 60.1002 24.7 60.6002C24.9 61.6002 25.8 62.2002 26.8 62.2002H37.2Z" stroke="url(#paint7_linear_11909_41702)" stroke-width="1.5" stroke-miterlimit="10" stroke-linecap="round" stroke-linejoin="round"/>
<path d="M31.9984 51.4002C33.7105 51.4002 35.0984 50.0123 35.0984 48.3002C35.0984 46.5881 33.7105 45.2002 31.9984 45.2002C30.2864 45.2002 28.8984 46.5881 28.8984 48.3002C28.8984 50.0123 30.2864 51.4002 31.9984 51.4002Z" stroke="url(#paint8_linear_11909_41702)" stroke-width="1.5" stroke-miterlimit="10" stroke-linecap="round" stroke-linejoin="round"/>
<path d="M50.8969 36.3998H28.5969C27.8969 36.3998 27.2969 35.7998 27.2969 35.0998V3.0998C27.2969 2.3998 27.8969 1.7998 28.5969 1.7998H51.3969C52.0969 1.7998 52.6969 2.3998 52.6969 3.0998V15.7998" stroke="url(#paint9_linear_11909_41702)" stroke-width="1.5" stroke-miterlimit="10" stroke-linecap="round" stroke-linejoin="round"/>
<path d="M53.1969 41.5C51.8969 41.5 50.7969 40.4 50.7969 39.1V22H55.5969V39.2C55.5969 40.5 54.5969 41.5 53.1969 41.5Z" stroke="url(#paint10_linear_11909_41702)" stroke-width="1.5" stroke-miterlimit="10" stroke-linecap="round" stroke-linejoin="round"/>
<path d="M58.6984 15.7998H47.8984V21.9998H58.6984V15.7998Z" stroke="url(#paint11_linear_11909_41702)" stroke-width="1.5" stroke-miterlimit="10" stroke-linecap="round" stroke-linejoin="round"/>
<path d="M60.3969 24.1996C61.3969 24.1996 62.1969 23.3996 62.1969 22.3996V15.3996C62.1969 14.3996 61.3969 13.5996 60.3969 13.5996C59.3969 13.5996 58.5969 14.3996 58.5969 15.3996V22.3996C58.5969 23.3996 59.3969 24.1996 60.3969 24.1996ZM46.0969 24.1996C47.0969 24.1996 47.8969 23.3996 47.8969 22.3996V15.3996C47.8969 14.3996 47.0969 13.5996 46.0969 13.5996C45.0969 13.5996 44.2969 14.3996 44.2969 15.3996V22.3996C44.2969 23.3996 45.0969 24.1996 46.0969 24.1996Z" stroke="url(#paint12_linear_11909_41702)" stroke-width="1.5" stroke-miterlimit="10" stroke-linecap="round" stroke-linejoin="round"/>
<path d="M31.8984 6.7998H48.0984" stroke="url(#paint13_linear_11909_41702)" stroke-width="1.5" stroke-miterlimit="10" stroke-linecap="round" stroke-linejoin="round"/>
<path d="M31.8984 11.7002H42.0984" stroke="url(#paint14_linear_11909_41702)" stroke-width="1.5" stroke-miterlimit="10" stroke-linecap="round" stroke-linejoin="round"/>
<path d="M31.8984 16.5996H39.6984" stroke="url(#paint15_linear_11909_41702)" stroke-width="1.5" stroke-miterlimit="10" stroke-linecap="round" stroke-linejoin="round"/>
<path d="M31.8984 21.5H39.6984" stroke="url(#paint16_linear_11909_41702)" stroke-width="1.5" stroke-miterlimit="10" stroke-linecap="round" stroke-linejoin="round"/>
<path d="M31.8984 26.4004H42.0984" stroke="url(#paint17_linear_11909_41702)" stroke-width="1.5" stroke-miterlimit="10" stroke-linecap="round" stroke-linejoin="round"/>
<path d="M31.8984 31.2998H46.0984" stroke="url(#paint18_linear_11909_41702)" stroke-width="1.5" stroke-miterlimit="10" stroke-linecap="round" stroke-linejoin="round"/>
<defs>
<linearGradient id="paint0_linear_11909_41702" x1="1.79687" y1="26.7382" x2="26.4015" y2="18.8402" gradientUnits="userSpaceOnUse">
<stop stop-color="#0575E6"/>
<stop offset="1" stop-color="#021B79"/>
</linearGradient>
<linearGradient id="paint1_linear_11909_41702" x1="8.39844" y1="17.5056" x2="18.4311" y2="14.1624" gradientUnits="userSpaceOnUse">
<stop stop-color="#0575E6"/>
<stop offset="1" stop-color="#021B79"/>
</linearGradient>
<linearGradient id="paint2_linear_11909_41702" x1="11.3984" y1="29.4844" x2="15.0329" y2="28.8199" gradientUnits="userSpaceOnUse">
<stop stop-color="#0575E6"/>
<stop offset="1" stop-color="#021B79"/>
</linearGradient>
<linearGradient id="paint3_linear_11909_41702" x1="11.3984" y1="23.8796" x2="12.6366" y2="22.114" gradientUnits="userSpaceOnUse">
<stop stop-color="#0575E6"/>
<stop offset="1" stop-color="#021B79"/>
</linearGradient>
<linearGradient id="paint4_linear_11909_41702" x1="6.10156" y1="50.0362" x2="12.3016" y2="47.1842" gradientUnits="userSpaceOnUse">
<stop stop-color="#0575E6"/>
<stop offset="1" stop-color="#021B79"/>
</linearGradient>
<linearGradient id="paint5_linear_11909_41702" x1="1.70312" y1="60.5502" x2="6.65925" y2="42.1293" gradientUnits="userSpaceOnUse">
<stop stop-color="#0575E6"/>
<stop offset="1" stop-color="#021B79"/>
</linearGradient>
<linearGradient id="paint6_linear_11909_41702" x1="51.7031" y1="50.0362" x2="57.9031" y2="47.1842" gradientUnits="userSpaceOnUse">
<stop stop-color="#0575E6"/>
<stop offset="1" stop-color="#021B79"/>
</linearGradient>
<linearGradient id="paint7_linear_11909_41702" x1="24.5" y1="60.5502" x2="34.3429" y2="51.4947" gradientUnits="userSpaceOnUse">
<stop stop-color="#0575E6"/>
<stop offset="1" stop-color="#021B79"/>
</linearGradient>
<linearGradient id="paint8_linear_11909_41702" x1="28.8984" y1="50.0362" x2="35.0984" y2="47.1842" gradientUnits="userSpaceOnUse">
<stop stop-color="#0575E6"/>
<stop offset="1" stop-color="#021B79"/>
</linearGradient>
<linearGradient id="paint9_linear_11909_41702" x1="27.2969" y1="28.7878" x2="54.9214" y2="19.4593" gradientUnits="userSpaceOnUse">
<stop stop-color="#0575E6"/>
<stop offset="1" stop-color="#021B79"/>
</linearGradient>
<linearGradient id="paint10_linear_11909_41702" x1="50.7969" y1="37.21" x2="56.5389" y2="36.5598" gradientUnits="userSpaceOnUse">
<stop stop-color="#0575E6"/>
<stop offset="1" stop-color="#021B79"/>
</linearGradient>
<linearGradient id="paint11_linear_11909_41702" x1="47.8984" y1="20.6358" x2="55.8672" y2="14.2505" gradientUnits="userSpaceOnUse">
<stop stop-color="#0575E6"/>
<stop offset="1" stop-color="#021B79"/>
</linearGradient>
<linearGradient id="paint12_linear_11909_41702" x1="44.2969" y1="21.8676" x2="57.8229" y2="11.3607" gradientUnits="userSpaceOnUse">
<stop stop-color="#0575E6"/>
<stop offset="1" stop-color="#021B79"/>
</linearGradient>
<linearGradient id="paint13_linear_11909_41702" x1="31.8984" y1="7.5798" x2="32.2456" y2="4.99248" gradientUnits="userSpaceOnUse">
<stop stop-color="#0575E6"/>
<stop offset="1" stop-color="#021B79"/>
</linearGradient>
<linearGradient id="paint14_linear_11909_41702" x1="31.8984" y1="12.4802" x2="32.4354" y2="9.96073" gradientUnits="userSpaceOnUse">
<stop stop-color="#0575E6"/>
<stop offset="1" stop-color="#021B79"/>
</linearGradient>
<linearGradient id="paint15_linear_11909_41702" x1="31.8984" y1="17.3796" x2="32.5796" y2="14.9355" gradientUnits="userSpaceOnUse">
<stop stop-color="#0575E6"/>
<stop offset="1" stop-color="#021B79"/>
</linearGradient>
<linearGradient id="paint16_linear_11909_41702" x1="31.8984" y1="22.28" x2="32.5796" y2="19.8359" gradientUnits="userSpaceOnUse">
<stop stop-color="#0575E6"/>
<stop offset="1" stop-color="#021B79"/>
</linearGradient>
<linearGradient id="paint17_linear_11909_41702" x1="31.8984" y1="27.1804" x2="32.4354" y2="24.6609" gradientUnits="userSpaceOnUse">
<stop stop-color="#0575E6"/>
<stop offset="1" stop-color="#021B79"/>
</linearGradient>
<linearGradient id="paint18_linear_11909_41702" x1="31.8984" y1="32.0798" x2="32.2924" y2="29.5062" gradientUnits="userSpaceOnUse">
<stop stop-color="#0575E6"/>
<stop offset="1" stop-color="#021B79"/>
</linearGradient>
</defs>
</svg>
