<svg xmlns="http://www.w3.org/2000/svg" enable-background="new 0 0 512 512" version="1.0" viewBox="0 0 512 512" id="ChatBot"><path fill="none" stroke="#0575e6" stroke-linecap="round" stroke-linejoin="round" stroke-miterlimit="10" stroke-width="15" d="
		M191.454,66.554h-2.176c-92.404,0-167.311,76.462-167.311,170.783v5.449c0,94.321,74.908,170.783,167.311,170.783h29.122
		l37.012,53.913l37.013-53.913h29.122c92.404,0,167.311-76.462,167.311-170.783v-5.449c0-94.321-74.908-170.783-167.311-170.783h0" class="colorStroke474747 svgStroke"></path><path fill="none" stroke="#0575e6" stroke-linecap="round" stroke-linejoin="round" stroke-miterlimit="10" stroke-width="15" d="
				M180.343,339.06c-11.948,0-21.634-9.686-21.634-21.634v-66.362c0-35.736,28.97-64.706,64.706-64.706h63.997
				c35.736,0,64.706,28.97,64.706,64.706v66.362c0,11.948-9.686,21.634-21.634,21.634" class="colorStroke474747 svgStroke"></path><circle cx="209.029" cy="250.246" r="12.395" fill="#021b79" class="color474747 svgShape"></circle><circle cx="301.797" cy="250.246" r="12.395" fill="#021b79" class="color474747 svgShape"></circle><path fill="none" stroke="#0575e6" stroke-linecap="round" stroke-linejoin="round" stroke-miterlimit="10" stroke-width="15" d="M110.699 211.216h10.167c.963 0 1.906.084 2.825.238 16.773-42.746 58.398-73.013 107.093-73.013h49.257c48.695 0 90.32 30.266 107.093 73.013.919-.154 1.862-.238 2.825-.238h10.167c9.394 0 17.009 7.615 17.009 17.009v37.489c0 9.394-7.615 17.009-17.009 17.009h-6.048c-5.437 32.019-33.305 56.402-66.873 56.402H183.621c-33.568 0-61.436-24.382-66.873-56.402h-6.048c-9.394 0-17.009-7.615-17.009-17.009v-37.489C93.691 218.831 101.306 211.216 110.699 211.216zM387.135 211.454c0 0 2.482 13.444 2.852 27.961M123.69 211.454c0 0-2.482 13.444-2.852 27.961" class="colorStroke474747 svgStroke"></path><path fill="none" stroke="#0575e6" stroke-linecap="round" stroke-linejoin="round" stroke-miterlimit="10" stroke-width="15" d="
			M282.804,278.998c0,15.127-12.263,27.39-27.39,27.39c-15.127,0-27.39-12.263-27.39-27.39" class="colorStroke474747 svgStroke"></path><line x1="255.413" x2="255.413" y1="138.441" y2="89.941" fill="none" stroke="#0575e6" stroke-linecap="round" stroke-linejoin="round" stroke-miterlimit="10" stroke-width="15" class="colorStroke474747 svgStroke"></line><circle cx="255.413" cy="66.554" r="23.387" fill="none" stroke="#0575e6" stroke-linecap="round" stroke-linejoin="round" stroke-miterlimit="10" stroke-width="15" class="colorStroke474747 svgStroke"></circle></svg>