<svg width="32" height="32" viewBox="0 0 32 32" fill="none" xmlns="http://www.w3.org/2000/svg">
<path d="M20 30.0001C15.59 30.0001 12 26.4101 12 22.0001C12 21.0901 12.15 20.1901 12.46 19.3301C12.55 19.0701 12.84 18.9301 13.1 19.0301C13.36 19.1201 13.5 19.4101 13.4 19.6701C13.13 20.4101 13 21.2001 13 22.0001C13 25.8601 16.14 29.0001 20 29.0001C23.86 29.0001 27 25.8601 27 22.0001C27 18.3301 24.13 15.2601 20.47 15.0201C20.19 15.0001 19.98 14.7601 20 14.4801C20.02 14.2001 20.26 14.0001 20.53 14.0101C24.72 14.2901 28 17.8001 28 22.0001C28 26.4101 24.41 30.0001 20 30.0001Z" fill="url(#paint0_linear_11909_41674)"/>
<path d="M22.5 25H17.5C16.67 25 16 24.33 16 23.5V19.5C16 18.67 16.67 18 17.5 18H19C19.28 18 19.5 18.22 19.5 18.5C19.5 18.78 19.28 19 19 19H17.5C17.22 19 17 19.22 17 19.5V23.5C17 23.78 17.22 24 17.5 24H22.5C22.78 24 23 23.78 23 23.5V19.5C23 19.22 22.78 19 22.5 19H20.5C20.37 19 20.24 18.95 20.15 18.85C20.06 18.75 20 18.63 20 18.5V17C20 16.72 20.22 16.5 20.5 16.5C20.78 16.5 21 16.72 21 17V18H22.5C23.33 18 24 18.67 24 19.5V23.5C24 24.33 23.33 25 22.5 25Z" fill="url(#paint1_linear_11909_41674)"/>
<path d="M20.4982 23.0005H19.4982C19.2182 23.0005 18.9982 22.7805 18.9982 22.5005C18.9982 22.2205 19.2182 22.0005 19.4982 22.0005H20.4982C20.7782 22.0005 20.9982 22.2205 20.9982 22.5005C20.9982 22.7805 20.7782 23.0005 20.4982 23.0005ZM21.4982 21.1005C21.2182 21.1005 20.9982 20.8805 20.9982 20.6005V20.5005C20.9982 20.2205 21.2182 20.0005 21.4982 20.0005C21.7782 20.0005 21.9982 20.2205 21.9982 20.5005V20.6005C21.9982 20.8805 21.7782 21.1005 21.4982 21.1005ZM18.4982 21.1005C18.2182 21.1005 17.9982 20.8805 17.9982 20.6005V20.5005C17.9982 20.2205 18.2182 20.0005 18.4982 20.0005C18.7782 20.0005 18.9982 20.2205 18.9982 20.5005V20.6005C18.9982 20.8805 18.7782 21.1005 18.4982 21.1005ZM20.0482 30.0005C18.7582 30.0005 17.4782 29.6905 16.3082 29.0705C16.1282 28.9705 16.0282 28.7805 16.0482 28.5805C16.2482 26.5405 17.9482 25.0005 19.9982 25.0005C22.0582 25.0005 23.7682 26.5605 23.9682 28.6205C23.9882 28.8205 23.8782 29.0205 23.6982 29.1105C22.5582 29.7005 21.2982 30.0005 20.0482 30.0005ZM17.0882 28.3505C18.9382 29.2105 21.0682 29.2205 22.9182 28.3905C22.6282 27.0005 21.4282 26.0005 19.9982 26.0005C18.5782 26.0005 17.3882 26.9905 17.0882 28.3505ZM17.1282 15.9905C16.9582 15.9905 16.7882 15.9005 16.6882 15.7405C16.4182 15.2605 16.0082 14.9005 15.5082 14.6805L13.3182 13.7405C13.0682 13.6305 12.9482 13.3405 13.0582 13.0805C13.1682 12.8305 13.4582 12.7105 13.7182 12.8205L15.9082 13.7605C16.6082 14.0605 17.1882 14.5905 17.5682 15.2405C17.7082 15.4805 17.6182 15.7905 17.3782 15.9205C17.2982 15.9705 17.2082 15.9905 17.1282 15.9905ZM6.90818 15.9905C6.82818 15.9905 6.73818 15.9705 6.65818 15.9205C6.41818 15.7805 6.33818 15.4805 6.46818 15.2405C6.84818 14.5805 7.42818 14.0505 8.12818 13.7605L10.3182 12.8105C10.5682 12.7005 10.8682 12.8205 10.9782 13.0705C11.0882 13.3205 10.9682 13.6205 10.7182 13.7305L8.52818 14.6805C8.02818 14.8905 7.60818 15.2705 7.34818 15.7405C7.24818 15.9005 7.07818 15.9905 6.90818 15.9905Z" fill="url(#paint2_linear_11909_41674)"/>
<path d="M13.5234 13.8C13.2434 13.8 13.0234 13.58 13.0234 13.3V11.49C13.0234 11.33 13.0934 11.19 13.2234 11.09C13.7334 10.7 14.0234 10.12 14.0234 9.5V8C14.0234 6.9 13.1234 6 12.0234 6C10.9234 6 10.0234 6.9 10.0234 8V9.5C10.0234 10.13 10.3134 10.7 10.8234 11.09C10.9534 11.18 11.0234 11.33 11.0234 11.49V13.3C11.0234 13.58 10.8034 13.8 10.5234 13.8C10.2434 13.8 10.0234 13.58 10.0234 13.3V11.72C9.38344 11.15 9.02344 10.35 9.02344 9.5V8C9.02344 6.35 10.3734 5 12.0234 5C13.6734 5 15.0234 6.35 15.0234 8V9.5C15.0234 10.36 14.6634 11.15 14.0234 11.72V13.3C14.0234 13.58 13.7934 13.8 13.5234 13.8Z" fill="url(#paint3_linear_11909_41674)"/>
<path d="M12.5172 12.45C12.2872 12.45 12.0772 12.29 12.0272 12.05C11.9672 11.78 12.1472 11.51 12.4172 11.46C13.3472 11.27 14.0172 10.45 14.0172 9.5C14.0172 9.22 14.2372 9 14.5172 9C14.7972 9 15.0172 9.22 15.0172 9.5C15.0172 10.92 14.0072 12.15 12.6172 12.44C12.5872 12.45 12.5472 12.45 12.5172 12.45Z" fill="url(#paint4_linear_11909_41674)"/>
<path d="M12.0391 17.9998C9.98906 17.9998 7.93906 17.2198 6.37906 15.6598C3.25906 12.5398 3.25906 7.46977 6.37906 4.34977C9.49906 1.22977 14.5791 1.22977 17.6891 4.34977C20.8091 7.46977 20.8091 12.5398 17.6891 15.6598C16.1391 17.2198 14.0891 17.9998 12.0391 17.9998ZM12.0391 2.99977C10.2491 2.99977 8.44906 3.67977 7.08906 5.04977C4.35906 7.77977 4.35906 12.2198 7.08906 14.9498C9.81906 17.6798 14.2591 17.6798 16.9891 14.9498C19.7191 12.2198 19.7191 7.77977 16.9891 5.04977C15.6291 3.68977 13.8391 2.99977 12.0391 2.99977Z" fill="url(#paint5_linear_11909_41674)"/>
<path d="M26.1617 5.5802C25.9617 5.5802 25.7617 5.4502 25.6917 5.2502C25.5917 5.0002 25.7017 4.6702 25.9617 4.5702C26.2117 4.4702 26.4817 4.5502 26.5917 4.8002C26.5917 4.8102 26.6317 4.9002 26.6317 4.9002C26.7317 5.1602 26.5917 5.4502 26.3317 5.5402C26.2717 5.5702 26.2117 5.5802 26.1617 5.5802ZM9.00169 31.0002C5.69169 31.0002 3.00169 28.3102 3.00169 25.0002V23.0002H1.00169C0.821693 23.0002 0.651693 22.9002 0.561693 22.7402C0.471693 22.5802 0.481693 22.3902 0.581693 22.2302L4.08169 16.7302C4.26169 16.4402 4.74169 16.4402 4.92169 16.7302L8.42169 22.2302C8.52169 22.3802 8.52169 22.5802 8.44169 22.7402C8.35169 22.9002 8.18169 23.0002 8.00169 23.0002H6.00169V25.0002C6.00169 25.2802 5.78169 25.5002 5.50169 25.5002C5.22169 25.5002 5.00169 25.2802 5.00169 25.0002V22.5002C5.00169 22.2202 5.22169 22.0002 5.50169 22.0002H7.09169L4.50169 17.9302L1.91169 22.0002H3.50169C3.78169 22.0002 4.00169 22.2202 4.00169 22.5002V25.0002C4.00169 27.7602 6.24169 30.0002 9.00169 30.0002C10.1617 30.0002 11.2917 29.6002 12.1817 28.8602C12.3917 28.6802 12.7117 28.7202 12.8817 28.9302C13.0617 29.1402 13.0317 29.4602 12.8117 29.6302C11.7517 30.5102 10.3917 31.0002 9.00169 31.0002Z" fill="url(#paint6_linear_11909_41674)"/>
<path d="M5.82837 27.47C5.64837 27.47 5.48837 27.38 5.40837 27.2C5.40837 27.19 5.36837 27.1 5.36837 27.1C5.26837 26.84 5.40837 26.55 5.66837 26.46C5.92837 26.37 6.21837 26.5 6.30837 26.76C6.40837 27 6.29837 27.33 6.03837 27.43C5.96837 27.46 5.89837 27.47 5.82837 27.47ZM27.4984 15.5C27.3284 15.5 27.1684 15.41 27.0784 15.27L23.5784 9.77C23.4784 9.62 23.4784 9.42 23.5584 9.26C23.6484 9.1 23.8184 9 23.9984 9H25.9984V7C25.9984 6.72 26.2184 6.5 26.4984 6.5C26.7784 6.5 26.9984 6.72 26.9984 7V9.5C26.9984 9.78 26.7784 10 26.4984 10H24.9084L27.4984 14.07L30.0884 10H28.4984C28.2184 10 27.9984 9.78 27.9984 9.5V7C27.9984 4.24 25.7584 2 22.9984 2C21.8384 2 20.7084 2.4 19.8184 3.14C19.6084 3.32 19.2884 3.29 19.1184 3.07C18.9384 2.86 18.9684 2.54 19.1884 2.37C20.2484 1.49 21.6084 1 22.9984 1C26.3084 1 28.9984 3.69 28.9984 7V9H30.9984C31.1784 9 31.3484 9.1 31.4384 9.26C31.5284 9.42 31.5184 9.61 31.4184 9.77L27.9184 15.27C27.8284 15.41 27.6684 15.5 27.4984 15.5Z" fill="url(#paint7_linear_11909_41674)"/>
<defs>
<linearGradient id="paint0_linear_11909_41674" x1="12" y1="26.4822" x2="27.9966" y2="19.1194" gradientUnits="userSpaceOnUse">
<stop stop-color="#0575E6"/>
<stop offset="1" stop-color="#021B79"/>
</linearGradient>
<linearGradient id="paint1_linear_11909_41674" x1="16" y1="23.13" x2="24.1628" y2="19.596" gradientUnits="userSpaceOnUse">
<stop stop-color="#0575E6"/>
<stop offset="1" stop-color="#021B79"/>
</linearGradient>
<linearGradient id="paint2_linear_11909_41674" x1="6.40625" y1="26.2097" x2="23.8515" y2="18.0296" gradientUnits="userSpaceOnUse">
<stop stop-color="#0575E6"/>
<stop offset="1" stop-color="#021B79"/>
</linearGradient>
<linearGradient id="paint3_linear_11909_41674" x1="9.02344" y1="11.864" x2="15.642" y2="9.78818" gradientUnits="userSpaceOnUse">
<stop stop-color="#0575E6"/>
<stop offset="1" stop-color="#021B79"/>
</linearGradient>
<linearGradient id="paint4_linear_11909_41674" x1="12.0156" y1="11.691" x2="15.1503" y2="10.4365" gradientUnits="userSpaceOnUse">
<stop stop-color="#0575E6"/>
<stop offset="1" stop-color="#021B79"/>
</linearGradient>
<linearGradient id="paint5_linear_11909_41674" x1="4.03906" y1="14.482" x2="20.0291" y2="7.12657" gradientUnits="userSpaceOnUse">
<stop stop-color="#0575E6"/>
<stop offset="1" stop-color="#021B79"/>
</linearGradient>
<linearGradient id="paint6_linear_11909_41674" x1="0.5" y1="25.1764" x2="26.7702" y2="13.2326" gradientUnits="userSpaceOnUse">
<stop stop-color="#0575E6"/>
<stop offset="1" stop-color="#021B79"/>
</linearGradient>
<linearGradient id="paint7_linear_11909_41674" x1="5.33594" y1="21.6466" x2="31.6055" y2="9.70225" gradientUnits="userSpaceOnUse">
<stop stop-color="#0575E6"/>
<stop offset="1" stop-color="#021B79"/>
</linearGradient>
</defs>
</svg>
