<svg width="32" height="32" viewBox="0 0 32 32" fill="none" xmlns="http://www.w3.org/2000/svg">
<path d="M23.5 27.0005H25.5C25.78 27.0005 26.01 27.2305 25.92 27.4905C25.72 28.0805 25.16 28.5005 24.5 28.5005C23.84 28.5005 23.29 28.0805 23.08 27.4905C22.99 27.2305 23.22 27.0005 23.5 27.0005ZM8 16.4705C6.76 16.4705 5.52 16.2605 4.33 15.8305C4.07 15.7405 3.93 15.4505 4.03 15.1905C4.12 14.9305 4.41 14.7905 4.67 14.8905C7.12 15.7605 9.76 15.6405 12.12 14.5705L13 14.1705V12.9605C13 11.9605 12.41 11.0605 11.49 10.6705L9.3 9.74047C9.05 9.63047 8.93 9.34047 9.04 9.08047C9.15 8.83047 9.44 8.71047 9.7 8.82047L11.89 9.76047C13.18 10.3105 14.01 11.5705 14.01 12.9705V14.5005C14.01 14.7005 13.9 14.8705 13.72 14.9605L12.55 15.4905C11.09 16.1405 9.55 16.4705 8 16.4705ZM2.5 15.0005C2.22 15.0005 2 14.7805 2 14.5005V12.9705C2 11.5705 2.83 10.3105 4.11 9.76047L6.3 8.81047C6.56 8.70047 6.85 8.82047 6.96 9.07047C7.07 9.32047 6.95 9.62047 6.7 9.73047L4.51 10.6805C3.59 11.0705 3 11.9705 3 12.9705V14.5005C3 14.7805 2.78 15.0005 2.5 15.0005Z" fill="url(#paint0_linear_11909_41668)"/>
<path d="M9.5 9.8C9.22 9.8 9 9.58 9 9.3V7.49C9 7.33 9.07 7.19 9.2 7.09C9.71 6.7 10 6.13 10 5.5V4C10 2.9 9.1 2 8 2C6.9 2 6 2.9 6 4V5.5C6 6.13 6.29 6.7 6.8 7.09C6.93 7.19 7 7.33 7 7.49V9.3C7 9.58 6.78 9.8 6.5 9.8C6.22 9.8 6 9.58 6 9.3V7.72C5.36 7.15 5 6.36 5 5.5V4C5 2.35 6.35 1 8 1C9.65 1 11 2.35 11 4V5.5C11 6.36 10.64 7.15 10 7.72V9.3C10 9.58 9.78 9.8 9.5 9.8Z" fill="url(#paint1_linear_11909_41668)"/>
<path d="M8.49871 8.45C8.26871 8.45 8.05871 8.29 8.00871 8.05C7.95871 7.78 8.12871 7.51 8.39871 7.46C9.32871 7.27 9.99871 6.45 9.99871 5.5C9.99871 5.22 10.2187 5 10.4987 5C10.7787 5 10.9987 5.22 10.9987 5.5C10.9987 6.92 9.98871 8.15 8.59871 8.44C8.56871 8.45 8.53871 8.45 8.49871 8.45ZM28.4987 31H20.4987C19.1187 31 17.9987 29.88 17.9987 28.5V22.5C17.9987 21.12 19.1187 20 20.4987 20H28.4987C29.8787 20 30.9987 21.12 30.9987 22.5V28.5C30.9987 29.88 29.8787 31 28.4987 31ZM20.4987 21C19.6687 21 18.9987 21.67 18.9987 22.5V28.5C18.9987 29.33 19.6687 30 20.4987 30H28.4987C29.3287 30 29.9987 29.33 29.9987 28.5V22.5C29.9987 21.67 29.3287 21 28.4987 21H20.4987Z" fill="url(#paint2_linear_11909_41668)"/>
<path d="M24.5 21C24.22 21 24 20.78 24 20.5V17.5C24 17.22 24.22 17 24.5 17C24.78 17 25 17.22 25 17.5V20.5C25 20.78 24.78 21 24.5 21ZM21.5 26.25C21.09 26.25 20.75 25.91 20.75 25.5C20.75 25.09 21.09 24.75 21.5 24.75C21.91 24.75 22.25 25.09 22.25 25.5C22.25 25.91 21.91 26.25 21.5 26.25ZM27.5 26.25C27.09 26.25 26.75 25.91 26.75 25.5C26.75 25.09 27.09 24.75 27.5 24.75C27.91 24.75 28.25 25.09 28.25 25.5C28.25 25.91 27.91 26.25 27.5 26.25ZM28.5 13H20.5C19.12 13 18 11.88 18 10.5V8.77L15.22 6.92C14.99 6.77 14.93 6.46 15.08 6.23C15.23 6 15.54 5.94 15.77 6.09L18.77 8.09C18.92 8.18 19 8.33 19 8.5V10.5C19 11.33 19.67 12 20.5 12H28.5C29.33 12 30 11.33 30 10.5V3.5C30 2.67 29.33 2 28.5 2H20.5C19.67 2 19 2.67 19 3.5V6C19 6.28 18.78 6.5 18.5 6.5C18.22 6.5 18 6.28 18 6V3.5C18 2.12 19.12 1 20.5 1H28.5C29.88 1 31 2.12 31 3.5V10.5C31 11.88 29.88 13 28.5 13ZM11.5 31H3.5C2.12 31 1 29.88 1 28.5V21.5C1 20.12 2.12 19 3.5 19H11.5C12.88 19 14 20.12 14 21.5V24C14 24.28 13.78 24.5 13.5 24.5C13.22 24.5 13 24.28 13 24V21.5C13 20.67 12.33 20 11.5 20H3.5C2.67 20 2 20.67 2 21.5V28.5C2 29.33 2.67 30 3.5 30H11.5C12.33 30 13 29.33 13 28.5V26.5C13 26.33 13.08 26.18 13.22 26.08L16.22 24.08C16.45 23.93 16.76 23.99 16.91 24.22C17.06 24.45 17 24.76 16.77 24.91L14 26.77V28.5C14 29.88 12.88 31 11.5 31Z" fill="url(#paint3_linear_11909_41668)"/>
<path d="M10.5 23H4.5C4.22 23 4 22.78 4 22.5C4 22.22 4.22 22 4.5 22H10.5C10.78 22 11 22.22 11 22.5C11 22.78 10.78 23 10.5 23ZM10.5 25H4.5C4.22 25 4 24.78 4 24.5C4 24.22 4.22 24 4.5 24H10.5C10.78 24 11 24.22 11 24.5C11 24.78 10.78 25 10.5 25ZM7.5 27H4.5C4.22 27 4 26.78 4 26.5C4 26.22 4.22 26 4.5 26H7.5C7.78 26 8 26.22 8 26.5C8 26.78 7.78 27 7.5 27ZM24.5 9C24.22 9 24 8.78 24 8.5V8.4C24 8.36 24 8.33 24.01 8.29C24.09 7.56 24.57 6.93 25.3 6.6C25.73 6.41 26 6.03 26 5.62V5.28C26 4.57 25.33 4 24.5 4C23.67 4 23 4.57 23 5.28C23 5.56 22.78 5.78 22.5 5.78C22.22 5.78 22 5.56 22 5.28C22 4.02 23.12 3 24.5 3C25.88 3 27 4.02 27 5.28V5.62C27 6.43 26.5 7.16 25.7 7.52C25.27 7.71 25 8.09 25 8.5C25 8.78 24.78 9 24.5 9ZM24.5 11C24.22 11 24 10.78 24 10.5V10.37C24 10.09 24.22 9.87 24.5 9.87C24.78 9.87 25 10.09 25 10.37V10.5C25 10.78 24.78 11 24.5 11Z" fill="url(#paint4_linear_11909_41668)"/>
<defs>
<linearGradient id="paint0_linear_11909_41668" x1="2" y1="24.1597" x2="24.1162" y2="11.8161" gradientUnits="userSpaceOnUse">
<stop stop-color="#0575E6"/>
<stop offset="1" stop-color="#021B79"/>
</linearGradient>
<linearGradient id="paint1_linear_11909_41668" x1="5" y1="7.864" x2="11.6185" y2="5.78818" gradientUnits="userSpaceOnUse">
<stop stop-color="#0575E6"/>
<stop offset="1" stop-color="#021B79"/>
</linearGradient>
<linearGradient id="paint2_linear_11909_41668" x1="8" y1="25.28" x2="31.907" y2="15.5522" gradientUnits="userSpaceOnUse">
<stop stop-color="#0575E6"/>
<stop offset="1" stop-color="#021B79"/>
</linearGradient>
<linearGradient id="paint3_linear_11909_41668" x1="1" y1="24.4" x2="31" y2="10.6" gradientUnits="userSpaceOnUse">
<stop stop-color="#0575E6"/>
<stop offset="1" stop-color="#021B79"/>
</linearGradient>
<linearGradient id="paint4_linear_11909_41668" x1="4" y1="21.72" x2="27.3325" y2="11.4343" gradientUnits="userSpaceOnUse">
<stop stop-color="#0575E6"/>
<stop offset="1" stop-color="#021B79"/>
</linearGradient>
</defs>
</svg>
