<svg width="32" height="32" viewBox="0 0 32 32" fill="none" xmlns="http://www.w3.org/2000/svg">
<path d="M11 25H13C13.28 25 13.51 25.23 13.42 25.49C13.22 26.08 12.66 26.5 12 26.5C11.34 26.5 10.79 26.08 10.58 25.49C10.49 25.23 10.72 25 11 25ZM3.5 23.48C3.22 23.48 3 23.26 3 22.98V21.5C3 21.22 3.22 21 3.5 21C3.78 21 4 21.22 4 21.5V22.98C4 23.26 3.78 23.48 3.5 23.48Z" fill="url(#paint0_linear_11909_41663)"/>
<path d="M16.5 31H7.5C5.02 31 3 28.98 3 26.5V26H2.5C1.67 26 1 25.33 1 24.5V22.5C1 21.67 1.67 21 2.5 21H3V20.5C3 17.47 5.47 15 8.5 15H10.5C10.78 15 11 15.22 11 15.5C11 15.78 10.78 16 10.5 16H8.5C6.02 16 4 18.02 4 20.5V21.5C4 21.78 3.78 22 3.5 22H2.5C2.22 22 2 22.22 2 22.5V24.5C2 24.78 2.22 25 2.5 25H3.5C3.78 25 4 25.22 4 25.5V26.5C4 28.43 5.57 30 7.5 30H16.5C18.43 30 20 28.43 20 26.5V25.5C20 25.22 20.22 25 20.5 25H21.5C21.78 25 22 24.78 22 24.5V22.5C22 22.22 21.78 22 21.5 22H21.03L21 22.99C20.99 23.26 20.77 23.48 20.5 23.48C20.5 23.48 20.5 23.48 20.49 23.48C20.22 23.48 20 23.25 20 22.98V20.5C20 18.02 17.98 16 15.5 16H12.5C12.22 16 12 15.78 12 15.5V12.5C12 12.22 12.22 12 12.5 12C12.78 12 13 12.22 13 12.5V15H15.5C18.53 15 21 17.47 21 20.5V21H21.5C22.33 21 23 21.67 23 22.5V24.5C23 25.33 22.33 26 21.5 26H21V26.5C21 28.98 18.98 31 16.5 31Z" fill="url(#paint1_linear_11909_41663)"/>
<path d="M15.5 24.2503C15.09 24.2503 14.75 23.9103 14.75 23.5003C14.75 23.0903 15.09 22.7503 15.5 22.7503C15.91 22.7503 16.25 23.0903 16.25 23.5003C16.25 23.9103 15.91 24.2503 15.5 24.2503ZM8.5 24.2503C8.09 24.2503 7.75 23.9103 7.75 23.5003C7.75 23.0903 8.09 22.7503 8.5 22.7503C8.91 22.7503 9.25 23.0903 9.25 23.5003C9.25 23.9103 8.91 24.2503 8.5 24.2503ZM21.5 16.0203C21.4 16.0203 21.31 15.9903 21.22 15.9403C20.99 15.7903 20.93 15.4803 21.08 15.2503L23.08 12.2503C23.17 12.1103 23.33 12.0303 23.5 12.0303H28.5C29.33 12.0303 30 11.3603 30 10.5303V3.53027C30 2.70027 29.33 2.03027 28.5 2.03027H16.5C15.67 2.03027 15 2.70027 15 3.53027V10.5303C15 11.3603 15.67 12.0303 16.5 12.0303H20.5C20.78 12.0303 21 12.2503 21 12.5303C21 12.8103 20.78 13.0303 20.5 13.0303H16.5C15.12 13.0303 14 11.9103 14 10.5303V3.53027C14 2.15027 15.12 1.03027 16.5 1.03027H28.5C29.88 1.03027 31 2.15027 31 3.53027V10.5303C31 11.9103 29.88 13.0303 28.5 13.0303H23.77L21.92 15.8103C21.82 15.9403 21.66 16.0203 21.5 16.0203Z" fill="url(#paint2_linear_11909_41663)"/>
<path d="M24.5 9C24.22 9 23.95 8.78 23.95 8.5C23.95 8.22 24.12 8 24.4 8H24.5C24.78 8 25 8.22 25 8.5C25 8.78 24.78 9 24.5 9ZM22.5 9C22.22 9 21.95 8.78 21.95 8.5C21.95 8.22 22.12 8 22.4 8H22.5C22.78 8 23 8.22 23 8.5C23 8.78 22.78 9 22.5 9ZM20.5 9C20.22 9 19.95 8.78 19.95 8.5C19.95 8.22 20.12 8 20.4 8H20.5C20.78 8 21 8.22 21 8.5C21 8.78 20.78 9 20.5 9ZM3.5 11H3C2.72 11 2.5 10.78 2.5 10.5C2.5 10.22 2.72 10 3 10H3.5C3.78 10 4 10.22 4 10.5C4 10.78 3.78 11 3.5 11ZM6 11H5.5C5.22 11 5 10.78 5 10.5C5 10.22 5.22 10 5.5 10H6C6.28 10 6.5 10.22 6.5 10.5C6.5 10.78 6.28 11 6 11ZM4.5 12.5C4.22 12.5 4 12.28 4 12V11.5C4 11.22 4.22 11 4.5 11C4.78 11 5 11.22 5 11.5V12C5 12.28 4.78 12.5 4.5 12.5ZM4.5 10C4.22 10 4 9.78 4 9.5V9C4 8.72 4.22 8.5 4.5 8.5C4.78 8.5 5 8.72 5 9V9.5C5 9.78 4.78 10 4.5 10ZM8.5 7H7.5C7.22 7 7 6.78 7 6.5C7 6.22 7.22 6 7.5 6H8.5C8.78 6 9 6.22 9 6.5C9 6.78 8.78 7 8.5 7ZM11.5 7H10.5C10.22 7 10 6.78 10 6.5C10 6.22 10.22 6 10.5 6H11.5C11.78 6 12 6.22 12 6.5C12 6.78 11.78 7 11.5 7ZM9.5 9C9.22 9 9 8.78 9 8.5V7.5C9 7.22 9.22 7 9.5 7C9.78 7 10 7.22 10 7.5V8.5C10 8.78 9.78 9 9.5 9ZM9.5 6C9.22 6 9 5.78 9 5.5V4.5C9 4.22 9.22 4 9.5 4C9.78 4 10 4.22 10 4.5V5.5C10 5.78 9.78 6 9.5 6ZM16.5 29H7.5C6.12 29 5 27.88 5 26.5V22.5C5 20.57 6.57 19 8.5 19H15.5C17.43 19 19 20.57 19 22.5V26.5C19 27.88 17.88 29 16.5 29ZM8.5 20C7.12 20 6 21.12 6 22.5V26.5C6 27.33 6.67 28 7.5 28H16.5C17.33 28 18 27.33 18 26.5V22.5C18 21.12 16.88 20 15.5 20H8.5Z" fill="url(#paint3_linear_11909_41663)"/>
<defs>
<linearGradient id="paint0_linear_11909_41663" x1="3" y1="25.29" x2="10.1771" y2="19.0233" gradientUnits="userSpaceOnUse">
<stop stop-color="#0575E6"/>
<stop offset="1" stop-color="#021B79"/>
</linearGradient>
<linearGradient id="paint1_linear_11909_41663" x1="1" y1="26.82" x2="21.7644" y2="15.7602" gradientUnits="userSpaceOnUse">
<stop stop-color="#0575E6"/>
<stop offset="1" stop-color="#021B79"/>
</linearGradient>
<linearGradient id="paint2_linear_11909_41663" x1="7.75" y1="19.1419" x2="30.9895" y2="8.43789" gradientUnits="userSpaceOnUse">
<stop stop-color="#0575E6"/>
<stop offset="1" stop-color="#021B79"/>
</linearGradient>
<linearGradient id="paint3_linear_11909_41663" x1="2.5" y1="23.5" x2="25.7722" y2="13.8653" gradientUnits="userSpaceOnUse">
<stop stop-color="#0575E6"/>
<stop offset="1" stop-color="#021B79"/>
</linearGradient>
</defs>
</svg>
