<svg xmlns="http://www.w3.org/2000/svg" enable-background="new 0 0 512 512" version="1.0" viewBox="0 0 512 512" id="ChatBot"><path fill="none" stroke="#474747" stroke-linecap="round" stroke-linejoin="round" stroke-miterlimit="10" stroke-width="15" d="M405.21 25.836c-49.323 0-89.308 39.984-89.308 89.308 0 29.592 14.396 55.817 36.562 72.068l-6.067 34.379 34.977-20.361c7.588 2.097 15.58 3.222 23.835 3.222 49.323 0 89.308-39.984 89.308-89.308S454.533 25.836 405.21 25.836zM157.146 320.746c10.488-20.985 34.178-37.396 59.234-37.396h63.244c35.316 0 63.945 28.629 63.945 63.945v19.54c0 11.808-9.572 21.38-21.38 21.38H201.522" class="colorStroke474747 svgStroke"></path><circle cx="202.163" cy="334.237" r="12.249" fill="#021b79" class="color474747 svgShape"></circle><circle cx="293.841" cy="334.237" r="12.249" fill="#021b79" class="color474747 svgShape"></circle><path fill="none" stroke="#474747" stroke-linecap="round" stroke-linejoin="round" stroke-miterlimit="10" stroke-width="15" d="M126.528 290.617c19.945-32.751 55.985-54.621 97.135-54.621h48.677c48.123 0 89.258 29.911 105.834 72.154.909-.152 1.841-.235 2.792-.235h10.047c9.283 0 16.809 7.525 16.809 16.809v35.207c0 9.283-7.525 16.809-16.809 16.809h-5.977c-5.373 31.643-32.914 55.739-66.087 55.739H200.753M378.175 308.15c0 0 2.452 13.286 2.818 27.632" class="colorStroke474747 svgStroke"></path><line x1="244.47" x2="244.47" y1="235.996" y2="194.733" fill="none" stroke="#474747" stroke-linecap="round" stroke-linejoin="round" stroke-miterlimit="10" stroke-width="15" class="colorStroke474747 svgStroke"></line><circle cx="244.47" cy="169.668" r="25.066" fill="none" stroke="#474747" stroke-linecap="round" stroke-linejoin="round" stroke-miterlimit="10" stroke-width="15" class="colorStroke474747 svgStroke"></circle><circle cx="373.686" cy="117.097" r="10.017" fill="#021b79" class="color474747 svgShape"></circle><circle cx="406.06" cy="117.097" r="10.017" fill="#021b79" class="color474747 svgShape"></circle><circle cx="438.433" cy="117.097" r="10.017" fill="#021b79" class="color474747 svgShape"></circle><g fill="#0575e6" class="color000000 svgShape"><path fill="none" stroke="#474747" stroke-linecap="round" stroke-linejoin="round" stroke-miterlimit="10" stroke-width="15" d="
				M94.032,338.079c40.519,0,73.367,32.847,73.367,73.367s-32.847,73.367-73.367,73.367s-73.367-32.848-73.367-73.367" class="colorStroke474747 svgStroke"></path><line x1="94.032" x2="94.032" y1="411.446" y2="365.278" fill="none" stroke="#474747" stroke-linecap="round" stroke-linejoin="round" stroke-miterlimit="10" stroke-width="15" class="colorStroke474747 svgStroke"></line><line x1="94.032" x2="94.032" y1="336.554" y2="314.566" fill="none" stroke="#474747" stroke-linecap="round" stroke-linejoin="round" stroke-miterlimit="10" stroke-width="15" class="colorStroke474747 svgStroke"></line><line x1="112.042" x2="76.022" y1="313.156" y2="313.156" fill="none" stroke="#474747" stroke-linecap="round" stroke-linejoin="round" stroke-miterlimit="10" stroke-width="15" class="colorStroke474747 svgStroke"></line></g><circle cx="63.149" cy="342.615" r="8.378" fill="#021b79" class="color474747 svgShape"></circle><circle cx="37.421" cy="359.371" r="8.378" fill="#021b79" class="color474747 svgShape"></circle><circle cx="20.665" cy="385.162" r="8.378" fill="#021b79" class="color474747 svgShape"></circle></svg>