<svg xmlns="http://www.w3.org/2000/svg" enable-background="new 0 0 512 512" version="1.0" viewBox="0 0 512 512" id="ChatBot"><path fill="none" stroke="#474747" stroke-linecap="round" stroke-linejoin="round" stroke-miterlimit="10" stroke-width="15" d="
			M262.617,240.796c-11.177,0-20.238-9.061-20.238-20.238v-18.497c0-33.43,27.101-60.531,60.531-60.531h59.867
			c33.43,0,60.531,27.101,60.531,60.531v18.497c0,11.177-9.061,20.238-20.238,20.238H262.617z" class="colorStroke474747 svgStroke"></path><circle cx="289.452" cy="189.7" r="11.595" fill="#021b79" class="color474747 svgShape"></circle><circle cx="376.234" cy="189.7" r="11.595" fill="#021b79" class="color474747 svgShape"></circle><path fill="none" stroke="#474747" stroke-linecap="round" stroke-linejoin="round" stroke-miterlimit="10" stroke-width="15" d="M456.065 165.006c0 0 2.321 12.577 2.668 26.157M209.619 165.006c0 0-2.321 12.577-2.668 26.157" class="colorStroke474747 svgStroke"></path><line x1="329.5" x2="329.5" y1="96.704" y2="61.465" fill="none" stroke="#474747" stroke-linecap="round" stroke-linejoin="round" stroke-miterlimit="10" stroke-width="15" class="colorStroke474747 svgStroke"></line><circle cx="329.5" cy="37.737" r="23.727" fill="none" stroke="#474747" stroke-linecap="round" stroke-linejoin="round" stroke-miterlimit="10" stroke-width="15" class="colorStroke474747 svgStroke"></circle><path fill="none" stroke="#474747" stroke-linecap="round" stroke-linejoin="round" stroke-miterlimit="10" stroke-width="15" d="
		M468.219,164.783h-9.511c-0.901,0-1.783,0.079-2.643,0.223c-15.691-39.988-54.63-68.302-100.183-68.302h-46.078
		c-45.554,0-84.492,28.314-100.183,68.302c-0.86-0.144-1.742-0.223-2.643-0.223h-9.511c-8.787,0-15.911,7.124-15.911,15.911v33.327
		c0,8.787,7.124,15.911,15.911,15.911h5.658c1.531,9.014,4.972,17.373,9.877,24.666l-37.169,50.395l77.513-23.51
		c3.992,0.787,8.114,1.212,12.337,1.212h134.321c31.402,0,57.472-22.809,62.558-52.763h5.658c8.787,0,15.911-7.124,15.911-15.911
		v-33.327C484.131,171.907,477.007,164.783,468.219,164.783z" class="colorStroke474747 svgStroke"></path><g fill="#0575e6" class="color000000 svgShape"><path fill="none" stroke="#474747" stroke-linecap="round" stroke-linejoin="round" stroke-miterlimit="10" stroke-width="15" d="
					M197.95,333.443v132.955c0,17.324-14.044,31.368-31.368,31.368H59.513c-17.324,0-31.368-14.044-31.368-31.368V218.581
					c0-17.324,14.044-31.368,31.368-31.368l89.687,0.386" class="colorStroke474747 svgStroke"></path><line x1="28.145" x2="197.95" y1="453.612" y2="453.612" fill="none" stroke="#474747" stroke-linecap="round" stroke-linejoin="round" stroke-miterlimit="10" stroke-width="15" class="colorStroke474747 svgStroke"></line><polyline fill="none" stroke="#474747" stroke-linecap="round" stroke-linejoin="round" stroke-miterlimit="10" stroke-width="15" points="57.339 354.733 86.558 354.733 94.098 330.227 112.948 393.163 127.086 304.993 137.454 354.733 168.558 354.733"></polyline></g></svg>