<svg width="180" height="180" viewBox="0 0 180 180" fill="none" xmlns="http://www.w3.org/2000/svg">
<path d="M180 89.9511C180 92.2977 179.902 94.742 179.707 96.9908C176.283 140.695 141.652 175.6 98.1196 179.511C95.4783 179.707 92.7391 179.902 90 179.902C40.3043 179.902 0 139.62 0 89.9511C0 40.2825 40.3043 0 90 0C139.696 0 180 40.2825 180 89.9511Z" fill="url(#paint0_linear_11834_41595)"/>
<path opacity="0.3" d="M141.362 76.4583L178.927 101.879C179.123 100.315 179.318 98.6527 179.416 96.9906C179.612 94.644 179.71 92.2975 179.71 89.9509C179.71 89.071 179.71 88.191 179.71 87.3111L149.677 66.7787L148.112 65.6055H31.9922L38.6444 76.4583H141.362Z" fill="black"/>
<path opacity="0.3" d="M178.048 106.866C173.646 130.038 160.439 150.082 141.95 163.281L107.809 140.109V94.4488H96.0696V140.109L135.885 167.29C133.733 168.561 131.581 169.734 129.428 170.809L84.2327 140.109V94.4488H72.4936V140.109L122.091 174.036C114.461 176.969 106.439 178.925 98.0261 179.609C95.3848 179.805 92.6457 180 89.9066 180C75.9175 180 62.7109 176.774 50.874 171.103L17.7109 140.011L27.4935 137.567L63.1022 137.762L63.787 96.5998L64.374 85.8448L50.0914 85.5515L43.2435 80.0762H138.917L178.048 106.866Z" fill="black"/>
<path d="M17.5078 133.949H60.3556V94.4488H49.9861L41.0839 80.0762H138.91L130.106 94.351H119.736V133.949H162.584V140.011H107.703V94.351H96.0622V140.011H84.0295V94.351H72.2904V140.011H17.5078V133.949Z" fill="white"/>
<path d="M38.7422 76.4583L31.9922 65.6055H148.014L141.362 76.4583H38.7422Z" fill="white"/>
<path d="M90.4851 23.4653L93.909 33.927L104.474 33.8293L95.7677 40.2823L99.1916 50.1573L90.3872 43.8999L81.9742 50.1573L85.2024 40.1845L76.5938 33.927H87.2568L90.4851 23.4653Z" fill="white"/>
<path d="M126.884 45.4644L128.645 50.9396H134.123L129.623 54.2639L131.384 59.4459L126.786 56.1216L122.384 59.4459L124.047 54.2639L119.547 50.9396H125.123L126.884 45.4644Z" fill="white"/>
<path d="M56.5401 45.4644L58.3009 50.9396H63.7792L59.2792 54.2639L61.0401 59.4459L56.4422 56.1216L52.0401 59.4459L53.7031 54.2639L49.2031 50.9396H54.7792L56.5401 45.4644Z" fill="white"/>
<defs>
<linearGradient id="paint0_linear_11834_41595" x1="12.0511" y1="134.943" x2="167.919" y2="44.9041" gradientUnits="userSpaceOnUse">
<stop stop-color="#0575E6"/>
<stop offset="1" stop-color="#021B79"/>
</linearGradient>
</defs>
</svg>
