<svg width="182" height="182" viewBox="0 0 182 182" fill="none" xmlns="http://www.w3.org/2000/svg">
<path d="M180.902 90.9511C180.902 93.2977 180.804 95.742 180.609 97.9907C177.187 141.695 142.673 176.502 99.0663 180.511C96.4264 180.707 93.6888 180.902 90.9511 180.902C76.9696 180.902 63.7702 177.676 51.9397 172.005C21.8256 157.437 1 126.638 1 90.9511C1 48.0288 31.0163 12.1461 71.2987 3.15099C77.654 1.68439 84.2048 1 90.9511 1C138.86 1 177.969 38.447 180.707 85.6714C180.804 86.5513 180.804 87.4313 180.804 88.409C180.902 89.1912 180.902 90.0712 180.902 90.9511Z" fill="white" stroke="#0071BC" stroke-width="0.5" stroke-miterlimit="10"/>
<path opacity="0.05" d="M142.677 77.4587L180.222 102.88C180.418 101.315 180.613 99.6532 180.711 97.991C180.907 95.6445 181.004 93.298 181.004 90.9514C181.004 90.0715 181.004 89.1915 181.004 88.3115L150.988 67.7792L149.424 66.606H33.3672L40.0158 77.4587H142.677Z" fill="black"/>
<path opacity="0.05" d="M179.336 107.866C174.936 131.038 161.737 151.082 143.258 164.281L109.135 141.109V95.4488H97.4021V141.109L137.196 168.29C135.045 169.561 132.894 170.734 130.743 171.809L85.5715 141.109V95.4488H73.8388V141.109L123.41 175.036C115.783 177.969 107.766 179.925 99.3575 180.609C96.7177 180.805 93.98 181 91.2424 181C77.2608 181 64.0615 177.774 52.231 172.103L19.0859 141.011L28.8632 138.567L64.4526 138.762L65.137 97.5998L65.7236 86.8448L51.4488 86.5515L44.6047 81.0762H140.227L179.336 107.866Z" fill="black"/>
<path d="M18.8906 134.949H61.7152V95.4488H51.3512L42.4539 81.0762H140.227L131.427 95.351H121.063V134.949H163.888V141.011H109.037V95.351H97.4023V141.011H85.3762V95.351H73.6435V141.011H18.8906V134.949Z" fill="black"/>
<path d="M40.1135 77.4587L33.3672 66.606H149.326L142.677 77.4587H40.1135Z" fill="black"/>
<path d="M91.8369 24.4653L95.2589 34.927L105.818 34.8293L97.1166 41.2823L100.539 51.1573L91.7391 44.8999L83.3306 51.1573L86.5571 41.1845L77.9531 34.927H88.6104L91.8369 24.4653Z" fill="black"/>
<path d="M128.208 46.4644L129.968 51.9396H135.443L130.946 55.2639L132.706 60.4459L128.11 57.1216L123.71 60.4459L125.373 55.2639L120.875 51.9396H126.448L128.208 46.4644Z" fill="black"/>
<path d="M57.9033 46.4644L59.6632 51.9396H65.1385L60.6409 55.2639L62.4008 60.4459L57.8055 57.1216L53.4057 60.4459L55.0679 55.2639L50.5703 51.9396H56.1434L57.9033 46.4644Z" fill="black"/>
</svg>
