<svg width="64" height="64" viewBox="0 0 64 64" fill="none" xmlns="http://www.w3.org/2000/svg">
<path d="M50.997 21C48.6109 21.0027 46.3233 21.9517 44.636 23.639C42.9488 25.3262 41.9997 27.6139 41.997 30C41.997 30.285 42.014 30.567 42.04 30.846L34.502 32.618C33.9678 31.3917 33.0417 30.3774 31.869 29.734L35.336 19.966C35.555 19.983 35.774 20 35.997 20C38.2676 20.0001 40.4542 19.142 42.1187 17.5977C43.7831 16.0534 44.8024 13.9371 44.9722 11.673C45.1419 9.4088 44.4496 7.16414 43.0341 5.38892C41.6185 3.6137 39.5843 2.43912 37.3391 2.10061C35.094 1.76211 32.8039 2.2847 30.9278 3.56363C29.0518 4.84256 27.7284 6.78332 27.2231 8.99688C26.7177 11.2104 27.0677 13.5332 28.2029 15.4996C29.338 17.466 31.1744 18.9307 33.344 19.6L29.976 29.087C28.6604 28.858 27.306 29.0841 26.136 29.728L19.023 22.665C20.7046 21.1285 21.7346 19.0069 21.9019 16.7352C22.0692 14.4636 21.3611 12.214 19.9228 10.4477C18.4845 8.68141 16.425 7.53228 14.1665 7.23593C11.9081 6.93957 9.62179 7.51844 7.77649 8.85384C5.93118 10.1892 4.66666 12.18 4.24221 14.4179C3.81775 16.6558 4.26551 18.9713 5.49369 20.8897C6.72186 22.808 8.63739 24.1838 10.8475 24.735C13.0576 25.2862 15.3949 24.971 17.38 23.854L24.556 30.979C23.8648 31.7327 23.3803 32.6525 23.1497 33.6488C22.9191 34.6452 22.9502 35.6843 23.24 36.665L20.746 38H19.566C20.1827 37.4662 20.6214 36.7566 20.8234 35.9664C21.0254 35.1762 20.981 34.3431 20.6962 33.5788C20.4113 32.8145 19.8996 32.1556 19.2297 31.6904C18.5598 31.2251 17.7637 30.9758 16.948 30.9758C16.1324 30.9758 15.3363 31.2251 14.6664 31.6904C13.9964 32.1556 13.4848 32.8145 13.1999 33.5788C12.9151 34.3431 12.8707 35.1762 13.0726 35.9664C13.2746 36.7566 13.7134 37.4662 14.33 38H13.997C11.492 38 9.99704 39.869 9.99704 43V50C9.99704 50.2652 10.1024 50.5196 10.2899 50.7071C10.4775 50.8947 10.7318 51 10.997 51H12.997V61C12.997 61.2652 13.1024 61.5196 13.2899 61.7071C13.4775 61.8947 13.7318 62 13.997 62H19.997C20.2623 62 20.5166 61.8947 20.7042 61.7071C20.8917 61.5196 20.997 61.2652 20.997 61V43.692L26.513 40.452C27.4259 40.8721 28.4298 41.0554 29.4322 40.9852C30.4347 40.915 31.4032 40.5934 32.2486 40.0502C33.0939 39.5069 33.7889 38.7595 34.2692 37.8769C34.7496 36.9943 34.9999 36.0049 34.997 35C34.997 34.852 34.985 34.707 34.975 34.562L42.45 32.8C42.9662 34.3769 43.9083 35.7804 45.1722 36.8554C46.436 37.9305 47.9725 38.6352 49.6118 38.8918C51.251 39.1483 52.9293 38.9467 54.4612 38.3093C55.9931 37.6718 57.3189 36.6233 58.2922 35.2795C59.2656 33.9357 59.8485 32.3491 59.9765 30.6948C60.1046 29.0405 59.7729 27.383 59.018 25.9054C58.2632 24.4279 57.1145 23.1877 55.699 22.3221C54.2835 21.4564 52.6563 20.9989 50.997 21ZM37.997 17.7C36.6927 18.0934 35.3014 18.0934 33.997 17.7V14C33.997 13.7348 34.1024 13.4805 34.2899 13.2929C34.4775 13.1054 34.7318 13 34.997 13H36.997C37.2623 13 37.5166 13.1054 37.7042 13.2929C37.8917 13.4805 37.997 13.7348 37.997 14V17.7ZM34.997 9.00003C34.997 8.80225 35.0557 8.60891 35.1656 8.44446C35.2755 8.28001 35.4316 8.15184 35.6144 8.07615C35.7971 8.00046 35.9982 7.98066 36.1921 8.01924C36.3861 8.05783 36.5643 8.15307 36.7042 8.29292C36.844 8.43277 36.9392 8.61096 36.9778 8.80494C37.0164 8.99892 36.9966 9.19999 36.9209 9.38271C36.8452 9.56544 36.7171 9.72162 36.5526 9.8315C36.3882 9.94138 36.1948 10 35.997 10C35.7318 10 35.4775 9.89467 35.2899 9.70713C35.1024 9.5196 34.997 9.26524 34.997 9.00003ZM31.997 14V16.736C30.7741 15.8845 29.8548 14.6648 29.373 13.2546C28.8912 11.8443 28.872 10.3171 29.3183 8.89527C29.7645 7.4734 30.6529 6.23106 31.8542 5.34907C33.0554 4.46707 34.5068 3.99147 35.997 3.99147C37.4873 3.99147 38.9387 4.46707 40.1399 5.34907C41.3411 6.23106 42.2295 7.4734 42.6758 8.89527C43.1221 10.3171 43.1029 11.8443 42.6211 13.2546C42.1393 14.6648 41.22 15.8845 39.997 16.736V14C39.9947 13.3872 39.8048 12.7898 39.4528 12.2881C39.1008 11.7865 38.6036 11.4046 38.028 11.194C38.4726 10.7851 38.7833 10.2515 38.9197 9.66311C39.056 9.07469 39.0115 8.45882 38.792 7.89609C38.5726 7.33336 38.1884 6.84998 37.6897 6.50919C37.191 6.1684 36.6011 5.98608 35.997 5.98608C35.393 5.98608 34.8031 6.1684 34.3044 6.50919C33.8057 6.84998 33.4215 7.33336 33.2021 7.89609C32.9826 8.45882 32.9381 9.07469 33.0744 9.66311C33.2107 10.2515 33.5215 10.7851 33.966 11.194C33.3905 11.4046 32.8933 11.7865 32.5413 12.2881C32.1893 12.7898 31.9993 13.3872 31.997 14ZM14.997 22.7C13.6927 23.0934 12.3014 23.0934 10.997 22.7V19C10.997 18.7348 11.1024 18.4805 11.2899 18.2929C11.4775 18.1054 11.7318 18 11.997 18H13.997C14.2623 18 14.5166 18.1054 14.7041 18.2929C14.8917 18.4805 14.997 18.7348 14.997 19V22.7ZM11.997 14C11.997 13.8022 12.0557 13.6089 12.1656 13.4445C12.2755 13.28 12.4316 13.1518 12.6144 13.0761C12.7971 13.0005 12.9982 12.9807 13.1921 13.0192C13.3861 13.0578 13.5643 13.1531 13.7041 13.2929C13.844 13.4328 13.9392 13.611 13.9778 13.8049C14.0164 13.9989 13.9966 14.2 13.9209 14.3827C13.8452 14.5654 13.7171 14.7216 13.5526 14.8315C13.3882 14.9414 13.1948 15 12.997 15C12.7318 15 12.4775 14.8947 12.2899 14.7071C12.1024 14.5196 11.997 14.2652 11.997 14ZM16.997 21.736V19C16.9947 18.3872 16.8048 17.7898 16.4528 17.2881C16.1008 16.7865 15.6036 16.4046 15.028 16.194C15.4726 15.7851 15.7833 15.2515 15.9196 14.6631C16.056 14.0747 16.0115 13.4588 15.792 12.8961C15.5726 12.3334 15.1884 11.85 14.6897 11.5092C14.191 11.1684 13.6011 10.9861 12.997 10.9861C12.393 10.9861 11.8031 11.1684 11.3044 11.5092C10.8057 11.85 10.4215 12.3334 10.2021 12.8961C9.98261 13.4588 9.93813 14.0747 10.0744 14.6631C10.2107 15.2515 10.5215 15.7851 10.966 16.194C10.3905 16.4046 9.89332 16.7865 9.5413 17.2881C9.18928 17.7898 8.99935 18.3872 8.99704 19V21.736C7.77406 20.8845 6.85477 19.6648 6.37297 18.2546C5.89117 16.8443 5.87201 15.3171 6.31827 13.8953C6.76454 12.4734 7.65295 11.2311 8.85418 10.3491C10.0554 9.46707 11.5068 8.99147 12.997 8.99147C14.4873 8.99147 15.9387 9.46707 17.1399 10.3491C18.3411 11.2311 19.2295 12.4734 19.6758 13.8953C20.1221 15.3171 20.1029 16.8443 19.6211 18.2546C19.1393 19.6648 18.22 20.8845 16.997 21.736ZM16.948 33C17.3436 33 17.7303 33.1173 18.0592 33.3371C18.3881 33.5569 18.6444 33.8692 18.7958 34.2347C18.9472 34.6001 18.9868 35.0022 18.9096 35.3902C18.8324 35.7782 18.642 36.1345 18.3623 36.4142C18.0826 36.6939 17.7262 36.8844 17.3382 36.9616C16.9503 37.0388 16.5481 36.9992 16.1827 36.8478C15.8172 36.6964 15.5049 36.4401 15.2851 36.1112C15.0653 35.7823 14.948 35.3956 14.948 35C14.948 34.4696 15.1588 33.9609 15.5338 33.5858C15.9089 33.2107 16.4176 33 16.948 33ZM25.755 38.578L19.49 42.258C19.3399 42.3463 19.2155 42.4723 19.129 42.6235C19.0425 42.7747 18.997 42.9459 18.997 43.12V60H17.997V49H15.997V60H14.997V43H12.997V49H11.997V43C11.997 40 13.502 40 13.997 40H20.997C21.1617 39.9999 21.3237 39.9593 21.469 39.882L24.702 38.15C24.7746 38.1111 24.8418 38.0631 24.902 38.007L27.849 35.317L28.562 36.03L25.755 38.578ZM28.997 39C28.775 38.998 28.5536 38.9772 28.335 38.938L30.685 36.807C30.7856 36.7161 30.8666 36.6056 30.9231 36.4824C30.9797 36.3592 31.0105 36.2258 31.0139 36.0903C31.0173 35.9547 30.993 35.8199 30.9427 35.694C30.8924 35.5682 30.8169 35.4539 30.721 35.358L28.591 33.228C28.4092 33.0461 28.1642 32.9412 27.907 32.9353C27.6498 32.9293 27.4002 33.0227 27.21 33.196L25.018 35.196C25.018 35.129 24.997 35.066 24.997 34.996C24.997 34.2049 25.2316 33.4315 25.6712 32.7737C26.1107 32.116 26.7354 31.6033 27.4663 31.3005C28.1972 30.9978 29.0015 30.9185 29.7774 31.0729C30.5533 31.2272 31.2661 31.6082 31.8255 32.1676C32.3849 32.727 32.7658 33.4397 32.9202 34.2157C33.0745 34.9916 32.9953 35.7959 32.6926 36.5268C32.3898 37.2577 31.8771 37.8824 31.2193 38.3219C30.5615 38.7614 29.7882 38.996 28.997 38.996V39ZM52.997 36.7C51.6927 37.0934 50.3014 37.0934 48.997 36.7V33C48.997 32.7348 49.1024 32.4805 49.2899 32.2929C49.4775 32.1054 49.7318 32 49.997 32H51.997C52.2623 32 52.5166 32.1054 52.7042 32.2929C52.8917 32.4805 52.997 32.7348 52.997 33V36.7ZM49.997 28C49.997 27.8022 50.0557 27.6089 50.1656 27.4445C50.2755 27.28 50.4316 27.1518 50.6144 27.0761C50.7971 27.0005 50.9982 26.9807 51.1921 27.0192C51.3861 27.0578 51.5643 27.1531 51.7042 27.2929C51.844 27.4328 51.9392 27.611 51.9778 27.8049C52.0164 27.9989 51.9966 28.2 51.9209 28.3827C51.8452 28.5654 51.7171 28.7216 51.5526 28.8315C51.3882 28.9414 51.1948 29 50.997 29C50.7318 29 50.4775 28.8947 50.2899 28.7071C50.1024 28.5196 49.997 28.2652 49.997 28ZM54.997 35.736V33C54.9947 32.3872 54.8048 31.7898 54.4528 31.2881C54.1008 30.7865 53.6036 30.4046 53.028 30.194C53.4726 29.7851 53.7833 29.2515 53.9197 28.6631C54.056 28.0747 54.0115 27.4588 53.792 26.8961C53.5726 26.3334 53.1884 25.85 52.6897 25.5092C52.191 25.1684 51.6011 24.9861 50.997 24.9861C50.393 24.9861 49.8031 25.1684 49.3044 25.5092C48.8057 25.85 48.4215 26.3334 48.2021 26.8961C47.9826 27.4588 47.9381 28.0747 48.0744 28.6631C48.2107 29.2515 48.5215 29.7851 48.966 30.194C48.3905 30.4046 47.8933 30.7865 47.5413 31.2881C47.1893 31.7898 46.9993 32.3872 46.997 33V35.736C45.7741 34.8844 44.8548 33.6648 44.373 32.2546C43.8912 30.8443 43.872 29.3171 44.3183 27.8953C44.7645 26.4734 45.6529 25.2311 46.8542 24.3491C48.0554 23.4671 49.5068 22.9915 50.997 22.9915C52.4873 22.9915 53.9387 23.4671 55.1399 24.3491C56.3411 25.2311 57.2295 26.4734 57.6758 27.8953C58.1221 29.3171 58.1029 30.8443 57.6211 32.2546C57.1393 33.6648 56.22 34.8844 54.997 35.736Z" fill="url(#paint0_linear_11909_41661)"/>
<defs>
<linearGradient id="paint0_linear_11909_41661" x1="4.08594" y1="48.8" x2="61.3173" y2="24.2649" gradientUnits="userSpaceOnUse">
<stop stop-color="#0575E6"/>
<stop offset="1" stop-color="#021B79"/>
</linearGradient>
</defs>
</svg>
