<svg width="48" height="48" viewBox="0 0 48 48" fill="none" xmlns="http://www.w3.org/2000/svg">
<path d="M31 14.9995C30.67 5.73952 17.33 5.72952 17 14.9995C17 17.4095 18.22 19.5395 20.08 20.7995C16.51 22.3295 14 25.8695 14 29.9995C14 33.3095 16.69 35.9995 20 35.9995H28C37.18 35.2395 34.69 23.3295 27.91 20.7995C29.77 19.5395 31 17.4095 31 14.9995ZM32 29.9995C32 32.2095 30.21 33.9995 28 33.9995H20C17.79 33.9995 16 32.2095 16 29.9995C16 25.5895 19.59 21.9995 24 21.9995C28.41 21.9995 32 25.5895 32 29.9995ZM19 14.9995C19.21 8.38952 28.79 8.38952 29 14.9995C28.79 21.6095 19.21 21.6095 19 14.9995ZM39 1.99952C36.94 1.99952 35.09 2.89952 33.81 4.31952C33.11 3.96952 32.4 3.64952 31.68 3.37952C31.16 3.18952 30.59 3.44952 30.39 3.96952C29.97 5.35952 31.85 5.44952 32.69 5.98952C32.25 6.89952 32 7.91952 32 8.99952C31.88 14.0295 37.55 17.5795 42.01 15.3095C42.54 16.0795 42.53 17.5895 43.68 17.6495C44.36 17.6595 44.87 16.9395 44.62 16.2995C44.35 15.5795 44.03 14.8795 43.69 14.1895C45.1 12.9095 46 11.0595 46 8.99952C46 5.13952 42.86 1.99952 39 1.99952ZM38 7.99952C38.01 6.68952 39.99 6.68952 40 7.99952C39.99 9.30952 38.01 9.30952 38 7.99952ZM37 13.5795C36.84 12.2695 37.59 11.0095 39 10.9995C40.41 11.0095 41.16 12.2695 41 13.5795C39.79 14.1395 38.21 14.1395 37 13.5795ZM42.89 12.0995C42.67 11.1595 42.13 10.3595 41.38 9.79952C42.9 7.94952 41.42 4.91952 39 4.99952C36.58 4.91952 35.1 7.94952 36.62 9.79952C35.87 10.3595 35.33 11.1595 35.11 12.0995C32.46 8.98953 34.89 3.90952 39 3.99952C43.11 3.90952 45.54 8.98953 42.89 12.0995ZM4.32 14.1895C3.96 15.1995 2.51999 16.8995 3.97 17.6095C5.35 18.0295 5.44999 16.1495 5.99 15.3095C10.45 17.5795 16.12 14.0295 16 8.99952C16 7.91952 15.75 6.89952 15.31 5.98952C15.86 5.71952 16.42 5.46952 16.99 5.25952C17.51 5.06952 17.77 4.48952 17.58 3.96952C16.88 2.52952 15.19 3.95952 14.19 4.30952C7.38999 -2.65048 -2.65 7.38952 4.32 14.1895ZM8 7.99952C8.01 6.68952 9.99 6.68952 10 7.99952C9.99 9.30952 8.01 9.30952 8 7.99952ZM7 13.5795C6.84 12.2695 7.59 11.0095 9 10.9995C10.41 11.0095 11.16 12.2695 11 13.5795C9.79 14.1395 8.21 14.1395 7 13.5795ZM9 3.99952C13.11 3.90952 15.54 8.98953 12.89 12.0995C12.67 11.1595 12.13 10.3595 11.38 9.79952C11.76 9.29952 12 8.67952 12 7.99952C11.9 4.03952 6.1 4.03952 6 7.99952C6 8.67952 6.24 9.29952 6.62 9.79952C5.87 10.3595 5.33 11.1595 5.11 12.0995C2.46 8.98953 4.89 3.90952 9 3.99952Z" fill="url(#paint0_linear_11909_41685)"/>
<path d="M43.68 33.8095C44.04 32.7895 45.48 31.0995 44.03 30.3895C42.64 29.9695 42.55 31.8495 42 32.6895C37.55 30.4195 31.88 33.9695 32 38.9995C32 40.0795 32.25 41.0995 32.69 42.0095C32.14 42.2795 31.58 42.5295 31.01 42.7395C29.98 43.1095 30.27 44.6995 31.36 44.6795C32.22 44.5295 33.02 44.0395 33.82 43.6895C40.61 50.6495 50.65 40.6095 43.68 33.8095ZM38 37.9995C38.01 36.6895 39.99 36.6895 40 37.9995C39.99 39.3095 38.01 39.3095 38 37.9995ZM37 43.5795C36.84 42.2695 37.59 41.0095 39 40.9995C40.41 41.0095 41.16 42.2695 41 43.5795C39.79 44.1395 38.21 44.1395 37 43.5795ZM42.89 42.0995C42.67 41.1595 42.13 40.3595 41.38 39.7995C42.9 37.9495 41.42 34.9195 39 34.9995C36.58 34.9195 35.1 37.9495 36.62 39.7995C35.87 40.3595 35.33 41.1595 35.11 42.0995C32.46 38.9895 34.89 33.9095 39 33.9995C43.11 33.9095 45.54 38.9895 42.89 42.0995ZM9 45.9995C11.06 45.9995 12.91 45.0995 14.19 43.6795C14.89 44.0295 15.6 44.3495 16.32 44.6195C16.82 44.8095 17.41 44.5495 17.61 44.0295C18.03 42.6395 16.15 42.5495 15.31 41.9995C15.75 41.0995 16 40.0795 16 38.9995C16.12 33.9695 10.45 30.4195 5.99 32.6895C5.45 31.8495 5.36 29.9995 3.98 30.4195C3.46 30.6095 3.2 31.1895 3.39 31.7095C3.66 32.4295 3.98 33.1295 4.32 33.8195C2.9 35.0895 2 36.9395 2 38.9995C2 42.8595 5.14 45.9995 9 45.9995ZM8 37.9995C8.01 36.6895 9.99 36.6895 10 37.9995C9.99 39.3095 8.01 39.3095 8 37.9995ZM7 43.5795C6.84 42.2695 7.59 41.0095 9 40.9995C10.41 41.0095 11.16 42.2695 11 43.5795C9.79 44.1395 8.21 44.1395 7 43.5795ZM9 33.9995C13.11 33.9095 15.54 38.9895 12.89 42.0995C12.67 41.1595 12.13 40.3595 11.38 39.7995C11.76 39.2995 12 38.6795 12 37.9995C11.9 34.0395 6.1 34.0395 6 37.9995C6 38.6795 6.24 39.2995 6.62 39.7995C5.87 40.3595 5.33 41.1595 5.11 42.0995C2.46 38.9895 4.89 33.9095 9 33.9995ZM43.95 25.4195C43.88 26.3695 43.75 27.3195 43.55 28.2495C43.28 29.5295 45.22 29.9495 45.51 28.6695C45.59 27.5495 46.73 24.6995 45.03 24.4895C44.48 24.4595 43.99 24.8695 43.95 25.4195ZM44.31 18.5495C43.77 18.6695 43.43 19.1995 43.54 19.7395C43.74 20.6695 43.88 21.6195 43.95 22.5695C43.99 23.1195 44.47 23.5395 45.02 23.4995C46.73 23.2895 45.58 20.4495 45.5 19.3195C45.38 18.7695 44.84 18.4295 44.31 18.5495ZM28.67 2.49946C27.54 2.41946 24.71 1.27946 24.49 2.97946C24.45 3.52946 24.87 4.00946 25.42 4.04946C26.44 4.09946 27.45 4.30946 28.46 4.47946C29.62 4.48946 29.82 2.73946 28.67 2.49946ZM19.52 4.47946C20.52 4.31946 21.54 4.09946 22.56 4.04946C23.11 4.00946 23.53 3.52946 23.49 2.97946C23.26 1.25946 20.45 2.41946 19.31 2.49946C18.15 2.74946 18.35 4.48946 19.52 4.47946ZM3.48 29.4795C4.11 29.4895 4.6 28.8795 4.46 28.2695C4.26 27.3395 4.12 26.3895 4.05 25.4395C4.01 24.8895 3.53 24.4795 2.98 24.5095C2.43 24.5495 2.01 25.0295 2.05 25.5795C2.12 26.6195 2.28 27.6695 2.5 28.6895C2.6 29.1595 3.02 29.4795 3.48 29.4795ZM3.05 23.5095C3.57 23.5095 4.01 23.1095 4.05 22.5795C4.12 21.6295 4.25 20.6795 4.45 19.7495C4.57 19.2095 4.22 18.6795 3.68 18.5595C1.98 18.2795 2.28 21.3295 2.05 22.4295C2.01 23.0195 2.48 23.5195 3.05 23.5095ZM25.58 45.9395C26.69 45.6995 29.73 45.9995 29.45 44.2995C29.33 43.7595 28.8 43.4195 28.26 43.5395C27.33 43.7395 26.38 43.8795 25.43 43.9495C24.13 44.0695 24.27 46.0195 25.58 45.9395ZM22.44 45.9495C22.98 45.9895 23.47 45.5695 23.51 45.0195C23.55 44.4695 23.13 43.9895 22.58 43.9495C21.63 43.8795 20.68 43.7495 19.75 43.5495C18.47 43.2795 18.05 45.2195 19.33 45.5095C20.36 45.7195 21.4 45.8695 22.44 45.9495Z" fill="url(#paint1_linear_11909_41685)"/>
<defs>
<linearGradient id="paint0_linear_11909_41685" x1="1.96094" y1="28.51" x2="41.3655" y2="5.06178" gradientUnits="userSpaceOnUse">
<stop stop-color="#0575E6"/>
<stop offset="1" stop-color="#021B79"/>
</linearGradient>
<linearGradient id="paint1_linear_11909_41685" x1="2" y1="36.3629" x2="46.0255" y2="16.0932" gradientUnits="userSpaceOnUse">
<stop stop-color="#0575E6"/>
<stop offset="1" stop-color="#021B79"/>
</linearGradient>
</defs>
</svg>
