<svg xmlns="http://www.w3.org/2000/svg" data-name="Layer 1" viewBox="0 0 64 64" id="Community"><path d="M51,21a9.01,9.01,0,0,0-9,9c0,.285.017.567.043.846l-7.538,1.772a6.042,6.042,0,0,0-2.633-2.884l3.467-9.768c.219.017.438.034.661.034a9,9,0,1,0-2.653-.4l-3.368,9.487a5.874,5.874,0,0,0-3.84.641l-7.113-7.063a8.92,8.92,0,1,0-1.643,1.189l7.176,7.125a5.927,5.927,0,0,0-1.316,5.686L20.749,38h-1.18a4,4,0,1,0-5.236,0H14c-2.505,0-4,1.869-4,5v7a1,1,0,0,0,1,1h2V61a1,1,0,0,0,1,1h6a1,1,0,0,0,1-1V43.692l5.516-3.24A5.983,5.983,0,0,0,35,35c0-.148-.012-.293-.022-.438L42.453,32.8A9,9,0,1,0,51,21ZM38,17.7a6.927,6.927,0,0,1-4,0V14a1,1,0,0,1,1-1h2a1,1,0,0,1,1,1ZM35,9a1,1,0,1,1,1,1A1,1,0,0,1,35,9Zm-3,5v2.736a7,7,0,1,1,8,0V14a3,3,0,0,0-1.969-2.806,3,3,0,1,0-4.062,0A3,3,0,0,0,32,14Zm-17,8.7a6.927,6.927,0,0,1-4,0V19a1,1,0,0,1,1-1h2a1,1,0,0,1,1,1ZM12,14a1,1,0,1,1,1,1A1,1,0,0,1,12,14Zm5,7.736V19a3,3,0,0,0-1.969-2.806,3,3,0,1,0-4.062,0A3,3,0,0,0,9,19v2.736a7,7,0,1,1,8,0ZM16.951,33a2,2,0,1,1-2,2A2,2,0,0,1,16.951,33Zm8.807,5.578-6.265,3.68A1,1,0,0,0,19,43.12V60H18V49H16V60H15V43H13v6H12V43c0-3,1.505-3,2-3h7a1.007,1.007,0,0,0,.472-.118l3.233-1.732a.959.959,0,0,0,.2-.143l2.947-2.69.713.713ZM29,39a3.957,3.957,0,0,1-.662-.062l2.35-2.131a1,1,0,0,0,.036-1.449l-2.13-2.13a1,1,0,0,0-1.381-.032l-2.192,2c0-.067-.021-.13-.021-.2a4,4,0,1,1,4,4Zm24-2.3a6.927,6.927,0,0,1-4,0V33a1,1,0,0,1,1-1h2a1,1,0,0,1,1,1ZM50,28a1,1,0,1,1,1,1A1,1,0,0,1,50,28Zm5,7.736V33a3,3,0,0,0-1.969-2.806,3,3,0,1,0-4.062,0A3,3,0,0,0,47,33v2.736a7,7,0,1,1,8,0Z" fill="#0575e6" class="color000000 svgShape"></path></svg>