<svg width="72" height="72" viewBox="0 0 72 72" fill="none" xmlns="http://www.w3.org/2000/svg">
<rect width="72" height="72" rx="36" fill="#DBE9FE"/>
<path d="M22 49.5V50H22.5H31V51.25L22.5015 51.25C22.5013 51.25 22.5011 51.25 22.5009 51.25C22.037 51.2485 21.5926 51.0635 21.2645 50.7355C20.9365 50.4075 20.7516 49.9631 20.75 49.4992V22.5008C20.7516 22.0369 20.9365 21.5925 21.2645 21.2645C21.5925 20.9365 22.0369 20.7516 22.5008 20.75H42.7492C43.2131 20.7516 43.6575 20.9365 43.9855 21.2645C44.3135 21.5926 44.4985 22.037 44.5 22.5009C44.5 22.5011 44.5 22.5013 44.5 22.5015L44.5 34.375H43.25V22.5V22H42.75H22.5H22V22.5V49.5ZM33.5042 44.8036L35.3971 36.601C35.3971 36.6008 35.3972 36.6005 35.3973 36.6002C35.4043 36.5712 35.421 36.5455 35.4447 36.5272C35.4686 36.5088 35.4981 36.4992 35.5282 36.5L35.5282 36.5002H35.5416L41.8531 36.5002L41.8548 36.5002C41.8744 36.5002 41.8938 36.5045 41.9115 36.5129C41.9292 36.5213 41.9448 36.5335 41.9571 36.5487L41.9576 36.5493C41.9701 36.5647 41.9789 36.5827 41.9835 36.602C41.988 36.6213 41.9881 36.6414 41.9838 36.6608L41.9836 36.6617L40.8917 41.5721L40.7564 42.1806H41.3798H44.3777L44.3787 42.1806C44.4033 42.1806 44.4274 42.1874 44.4483 42.2004C44.4665 42.2117 44.4815 42.2273 44.4923 42.2456C44.499 42.2644 44.5014 42.2845 44.4992 42.3043C44.4968 42.3265 44.4887 42.3477 44.4758 42.3659L36.2742 53.0911L36.2652 53.1029L36.2569 53.1152C36.2453 53.1323 36.2299 53.1464 36.2119 53.1564C36.1979 53.1643 36.1825 53.1694 36.1667 53.1717C36.1501 53.17 36.1338 53.1661 36.1182 53.1601C36.0926 53.1486 36.0714 53.1292 36.0576 53.1047C36.0435 53.0795 36.0381 53.0503 36.0423 53.0216C36.0423 53.0215 36.0423 53.0213 36.0423 53.0211L37.1908 45.5434L37.2793 44.9675H36.6966H33.6481V44.9674L33.6347 44.9677C33.6146 44.9683 33.5947 44.9642 33.5764 44.9558C33.5582 44.9474 33.5421 44.9349 33.5294 44.9193C33.5167 44.9037 33.5078 44.8855 33.5033 44.8659C33.4988 44.8463 33.4989 44.8259 33.5035 44.8064L33.5042 44.8036ZM40.4252 42.4429L41.5523 37.371L41.6875 36.7625H41.0642H36.0465H35.6488L35.5593 37.15L33.9562 44.0927L33.8148 44.7052H34.4434H37.5902L36.6758 50.6171L37.5667 50.9978L43.5122 43.2472L44.1292 42.4429H43.1154H40.4252ZM26.375 37.625H31V38.875H26.375V37.625ZM26.375 32H38.875V33.25H26.375V32ZM26.375 26.375H38.875V27.625H26.375V26.375Z" fill="url(#paint0_linear_12135_132745)" stroke="url(#paint1_linear_12135_132745)"/>
<defs>
<linearGradient id="paint0_linear_12135_132745" x1="20.25" y1="46.3196" x2="47.1193" y2="37.1668" gradientUnits="userSpaceOnUse">
<stop stop-color="#0575E6"/>
<stop offset="1" stop-color="#021B79"/>
</linearGradient>
<linearGradient id="paint1_linear_12135_132745" x1="20.25" y1="46.3196" x2="47.1193" y2="37.1668" gradientUnits="userSpaceOnUse">
<stop stop-color="#0575E6"/>
<stop offset="1" stop-color="#021B79"/>
</linearGradient>
</defs>
</svg>
