<svg xmlns="http://www.w3.org/2000/svg" data-name="Layer 1" viewBox="0 0 128 128" id="Consultant"><circle cx="64" cy="66.011" r="2" fill="#021b79" class="color000000 svgShape"></circle><path d="M126 74.0107H113.748c-.09471.7305-.20211 1.4356-.30561 2.0977-.085.5479-.1709 1.0957-.2442 1.6406l-.0351.2617H124v4H112.41989a23.98932 23.98932 0 0 1-1.376 4H126a2.0001 2.0001 0 0 0 2-2v-8A2.00016 2.00016 0 0 0 126 74.0107zM52.585 100.9893L39.53079 96.127a2.005 2.005 0 0 0-.6983-.126H23.09079a2.00143 2.00143 0 0 0-.7016.1269l-12.8975 4.834c-.3223.1055-7.8936 2.6436-8.36769 8.6065L.00489 125.8643a1.99978 1.99978 0 1 0 3.9902.2734l1.1177-16.2744c.2573-3.2315 5.5713-5.082 5.70121-5.127l12.63909-4.7353h15.0191l12.7939 4.7636c1.3887.4532 5.4028 2.3633 5.6196 5.0772 0 0 1.1182 16.2852 1.1192 16.2959a2.02529 2.02529 0 0 0 2.1323 1.8584 1.99946 1.99946 0 0 0 1.8579-2.1318l-1.1206-16.3184C60.40039 103.6055 52.82959 101.0674 52.585 100.9893zM16.76659 77.2168c.4395 3.2871 1.77641 13.2881 12.1792 14.7178a7.96455 7.96455 0 0 0 2.2339-.0176c9.2222-1.334 11.2964-9.0283 12.0542-14.6992.0766-.5733.1665-1.1494.2568-1.7256.605-3.8809 1.2915-8.2783-1.9458-12.1133a14.36764 14.36764 0 0 0-9.9536-5.3174 18.10594 18.10594 0 0 0-3.2612.0078 14.36233 14.36233 0 0 0-9.8745 5.3096c-3.2373 3.835-2.5508 8.2324-1.9458 12.1133C16.60009 76.0684 16.68989 76.6445 16.76659 77.2168zm4.7456-11.2578a10.35889 10.35889 0 0 1 7.1929-3.9072 14.05316 14.05316 0 0 1 2.5322-.0059 10.36634 10.36634 0 0 1 7.251 3.9131c2.0605 2.4414 1.5923 5.4414 1.0503 8.916-.0948.6055-.189 1.21-.26959 1.8125-.96971 7.2559-3.479 10.5205-8.664 11.2705a3.5974 3.5974 0 0 1-1.11771.0137c-5.17529-.711-7.7939-4.086-8.7559-11.2852-.0805-.6015-.1748-1.206-.2695-1.8115C19.91989 71.4004 19.45169 68.4004 21.51219 65.959z" fill="#021b79" class="color000000 svgShape"></path><path d="M14.51559 120.0166a1.99437 1.99437 0 0 0-2.2402 1.7266l-.5176 4a2 2 0 1 0 3.9668.5136l.5176-4A2 2 0 0 0 14.51559 120.0166zM49.72459 121.7432a2 2 0 1 0-3.9668.5136l.5176 4a2.02454 2.02454 0 0 0 2.2402 1.7266 2 2 0 0 0 1.7266-2.2402zM118.585 100.9883L105.53029 96.126A2.00731 2.00731 0 0 0 104.832 96H89.09079a1.99769 1.99769 0 0 0-.7012.127l-12.8984 4.8339c-.3213.1055-7.8926 2.6436-8.36719 8.6065l-1.11911 16.2959a1.99978 1.99978 0 1 0 3.9902.2734l1.1182-16.2734c.2568-3.2324 5.5703-5.083 5.7002-5.1279L89.45309 100h15.0186l12.7949 4.7637c1.3887.4531 5.4023 2.3633 5.6191 5.0771l1.1192 16.2959A1.9999 1.9999 0 0 0 125.998 128c.04589 0 .09279-.002.13869-.0049a1.99884 1.99884 0 0 0 1.8584-2.1318L126.875 109.5449C126.40139 103.6045 118.82909 101.0664 118.585 100.9883zM96.02639 57.9912q-.84959-.0015-1.6963.0781a14.35822 14.35822 0 0 0-9.874 5.3096c-3.2373 3.835-2.5518 8.2334-1.9463 12.1133.0898.5762.1797 1.1523.2568 1.7246.4395 3.2871 1.7773 13.2891 12.1787 14.7178a7.968 7.968 0 0 0 2.2344-.0176c9.2217-1.334 11.2959-9.0283 12.0547-14.7002.0771-.5732.167-1.1504.2568-1.7275.6045-3.8789 1.2901-8.2764-1.9463-12.1104a14.3677 14.3677 0 0 0-9.9541-5.3174Q96.81 57.99115 96.02639 57.9912zm8.4619 7.9678c2.0596 2.4404 1.5918 5.4404 1.0508 8.914-.0948.6055-.1885 1.211-.2696 1.8145-.9697 7.2559-3.47949 10.5205-8.664 11.2705a3.6012 3.6012 0 0 1-1.1182.0137c-5.1748-.711-7.793-4.086-8.7559-11.2852-.081-.6015-.1748-1.206-.2695-1.8115-.542-3.4746-1.0098-6.4746 1.0508-8.916a10.35388 10.35388 0 0 1 7.1924-3.9072 14.05307 14.05307 0 0 1 2.5322-.0059A10.36537 10.36537 0 0 1 104.48829 65.959z" fill="#021b79" class="color000000 svgShape"></path><path d="M80.51559 120.0156a1.99712 1.99712 0 0 0-2.2402 1.7266l-.5176 4a1.99961 1.99961 0 0 0 1.7266 2.2402 2.02025 2.02025 0 0 0 2.2402-1.7265l.5176-4A1.99971 1.99971 0 0 0 80.51559 120.0156zM115.72459 121.7432a2 2 0 1 0-3.9668.5136l.5176 4a2 2 0 1 0 3.9668-.5136zM47.44289 76.1084c-.0855.5479-.1714 1.0957-.2447 1.6406-.0107.0801-.0239.1748-.0356.2617h31.6831c-.01269-.0908-.0322-.1728-.0439-.2636-.0733-.543-.1592-1.0908-.2442-1.6387-.1035-.6621-.2109-1.3672-.30559-2.0977H47.748C47.65379 74.7412 47.54639 75.4463 47.44289 76.1084zM45.04439 86.0107h36.022a25.19538 25.19538 0 0 1-1.416-4H46.41989A23.98452 23.98452 0 0 1 45.04439 86.0107zM2 86.0107H15.06639a25.14566 25.14566 0 0 1-1.4155-4H4v-4h8.84619c-.0127-.0908-.03219-.1728-.0444-.2636-.07279-.543-.1587-1.0908-.2442-1.6387-.1035-.6621-.2109-1.3672-.3052-2.0977H2a2.00015 2.00015 0 0 0-2 2v8A2.00008 2.00008 0 0 0 2 86.0107zM31.93989 54.0889c.4624.041.9117.1152 1.3623.1679.3331-4.4707 6.80181-6.8105 6.9473-6.8642l12.4727-4.9912V45.626a1.99954 1.99954 0 0 0 .3891 1.1855l9.2178 12.5205a1.99963 1.99963 0 0 0 3.2197.002l9.2383-12.5205a1.9981 1.9981 0 0 0 .3906-1.1875V42.3945l12.6426 5.0284c.0645.0234 6.3399 2.3017 6.836 6.6289.4873-.0225.9824-.0303 1.3652-.0303.5303 0 1.2939.0117 1.918.0674.2558.0234.5009.0713.7519.1035l-.0146-.2324c-.5284-7.0918-9.167-10.1846-9.4541-10.2823l-14.0713-5.5986v-3.79c2.4707-3.376 3.4384-7.7149 3.9541-11.6807.0898-.6904.1953-1.3848.3008-2.0791.6914-4.5615 1.4755-9.7324-2.1797-14.1855A16.32446 16.32446 0 0 0 65.82709.082a20.51955 20.51955 0 0 0-3.7539.0088 16.31175 16.31175 0 0 0-11.3095 6.253c-3.6558 4.4531-2.8711 9.623-2.1792 14.1845.1054.6953.2109 1.3897.3008 2.0801.4726 3.6367 1.4038 7.9658 3.8369 11.417v4.0674l-13.8745 5.5547c-.3672.1279-9.0064 3.2207-9.5362 10.333l-.0029.0498c.2563-.0059.5039-.0088.7129-.0088C30.55179 54.0215 31.31539 54.0332 31.93989 54.0889zm32.002.6865l-7.2197-9.8066V37.8125a15.51355 15.51355 0 0 0 6.0757 2.1211 8.78332 8.78332 0 0 0 2.53411-.0195 15.84641 15.84641 0 0 0 5.81939-1.9942l.0263 7.0479zM52.53909 19.9287c-.6485-4.2773-1.209-7.9707 1.31691-11.0478a12.28644 12.28644 0 0 1 8.60149-4.8077c.3247-.0322.9238-.0507 1.56451-.0507.59179 0 1.145.0166 1.44189.0429a12.3 12.3 0 0 1 8.6709 4.8155c2.5254 3.0771 1.9648 6.7714 1.3164 11.0488-.1094.7217-.2188 1.4443-.3125 2.1631-1.1592 8.9209-4.1709 12.9385-10.395 13.8642a4.09038 4.09038 0 0 1-1.3853.0157c-6.2148-.8789-9.3569-5.0293-10.5063-13.8809C52.75829 21.373 52.64889 20.6514 52.53909 19.9287z" fill="#021b79" class="color000000 svgShape"></path></svg>