<svg width="64" height="64" viewBox="0 0 64 64" fill="none" xmlns="http://www.w3.org/2000/svg">
<path d="M32 24C34.1756 24 36.3023 23.3549 38.1113 22.1462C39.9202 20.9375 41.3301 19.2195 42.1627 17.2095C42.9952 15.1995 43.2131 12.9878 42.7886 10.854C42.3642 8.72022 41.3166 6.76021 39.7782 5.22183C38.2398 3.68345 36.2798 2.6358 34.146 2.21137C32.0122 1.78693 29.8005 2.00477 27.7905 2.83733C25.7805 3.66989 24.0625 5.07979 22.8538 6.88873C21.6451 8.69767 21 10.8244 21 13C21 15.9174 22.1589 18.7153 24.2218 20.7782C26.2847 22.8411 29.0826 24 32 24ZM32 4.00001C33.78 4.00001 35.5201 4.52785 37.0001 5.51678C38.4802 6.50571 39.6337 7.91132 40.3149 9.55585C40.9961 11.2004 41.1743 13.01 40.8271 14.7558C40.4798 16.5016 39.6226 18.1053 38.364 19.364C37.1053 20.6226 35.5016 21.4798 33.7558 21.8271C32.01 22.1743 30.2004 21.9961 28.5558 21.3149C26.9113 20.6337 25.5057 19.4802 24.5168 18.0001C23.5278 16.5201 23 14.78 23 13C23 10.6131 23.9482 8.32387 25.636 6.63604C27.3239 4.94822 29.6131 4.00001 32 4.00001Z" fill="url(#paint0_linear_11909_41796)"/>
<path d="M32.0003 16H31.6003C31.2934 16.0006 30.9974 15.8865 30.7703 15.68L29.6803 14.68L28.3203 16.14L29.4003 17.14C29.8489 17.5484 30.4034 17.8221 31.0003 17.93V20H33.0003V17.83C33.6116 17.6472 34.1487 17.2742 34.5335 16.7653C34.9184 16.2563 35.1309 15.638 35.1403 15C35.1193 14.1866 34.7773 13.4145 34.189 12.8524C33.6007 12.2903 32.8138 11.9839 32.0003 12C31.717 12.0165 31.4386 11.9209 31.2253 11.7337C31.012 11.5466 30.8809 11.283 30.8603 11C30.8809 10.717 31.012 10.4534 31.2253 10.2663C31.4386 10.0791 31.717 9.98349 32.0003 10H32.4003C32.7072 9.99938 33.0033 10.1135 33.2303 10.32L34.3203 11.32L35.6803 9.86L34.6003 8.86C34.1529 8.44802 33.5983 8.17072 33.0003 8.06V6H31.0003V8.17C30.389 8.35284 29.8519 8.72581 29.4671 9.23473C29.0823 9.74366 28.8697 10.362 28.8603 11C28.8813 11.8134 29.2233 12.5855 29.8116 13.1476C30.3999 13.7097 31.1868 14.0161 32.0003 14C32.2836 13.9835 32.562 14.0791 32.7753 14.2663C32.9887 14.4534 33.1198 14.717 33.1403 15C33.1198 15.283 32.9887 15.5466 32.7753 15.7337C32.562 15.9209 32.2836 16.0165 32.0003 16ZM61.0003 50.5H60.2403C60.1413 50.5009 60.0443 50.4717 59.9622 50.4164C59.8801 50.361 59.8167 50.2821 59.7803 50.19C59.741 50.0996 59.7304 49.9993 59.7501 49.9026C59.7698 49.806 59.8187 49.7178 59.8903 49.65L60.4203 49.11C60.6066 48.9226 60.7111 48.6692 60.7111 48.405C60.7111 48.1408 60.6066 47.8874 60.4203 47.7L58.3003 45.58C58.1129 45.3938 57.8595 45.2892 57.5953 45.2892C57.3311 45.2892 57.0777 45.3938 56.8903 45.58L56.3503 46.11C56.2825 46.1816 56.1943 46.2305 56.0977 46.2502C56.0011 46.2699 55.9007 46.2593 55.8103 46.22C55.7182 46.1836 55.6393 46.1202 55.584 46.0381C55.5286 45.956 55.4995 45.859 55.5003 45.76V45C55.5003 44.7348 55.395 44.4804 55.2074 44.2929C55.0199 44.1054 54.7655 44 54.5003 44H51.5003C51.2351 44 50.9807 44.1054 50.7932 44.2929C50.6057 44.4804 50.5003 44.7348 50.5003 45V45.76C50.5012 45.859 50.472 45.956 50.4167 46.0381C50.3613 46.1202 50.2824 46.1836 50.1903 46.22C50.0999 46.2593 49.9996 46.2699 49.903 46.2502C49.8063 46.2305 49.7181 46.1816 49.6503 46.11L49.1103 45.58C48.923 45.3938 48.6695 45.2892 48.4053 45.2892C48.1411 45.2892 47.8877 45.3938 47.7003 45.58L45.5803 47.7C45.3941 47.8874 45.2895 48.1408 45.2895 48.405C45.2895 48.6692 45.3941 48.9226 45.5803 49.11L46.1103 49.65C46.1819 49.7178 46.2308 49.806 46.2505 49.9026C46.2702 49.9993 46.2597 50.0996 46.2203 50.19C46.1839 50.2821 46.1205 50.361 46.0384 50.4164C45.9563 50.4717 45.8593 50.5009 45.7603 50.5H45.0003C44.7351 50.5 44.4807 50.6054 44.2932 50.7929C44.1057 50.9804 44.0003 51.2348 44.0003 51.5V54.5C44.0003 54.7652 44.1057 55.0196 44.2932 55.2071C44.4807 55.3946 44.7351 55.5 45.0003 55.5H45.7603C45.8593 55.4991 45.9563 55.5283 46.0384 55.5836C46.1205 55.639 46.1839 55.7179 46.2203 55.81C46.2597 55.9004 46.2702 56.0007 46.2505 56.0974C46.2308 56.194 46.1819 56.2822 46.1103 56.35L45.5803 56.89C45.4858 56.9826 45.4107 57.0931 45.3592 57.2149C45.3077 57.3368 45.2809 57.4677 45.2803 57.6C45.2841 57.8638 45.3919 58.1154 45.5803 58.3L47.7003 60.42C47.8877 60.6062 48.1411 60.7108 48.4053 60.7108C48.6695 60.7108 48.923 60.6062 49.1103 60.42L49.6503 59.89C49.7181 59.8184 49.8063 59.7695 49.903 59.7498C49.9996 59.7301 50.0999 59.7407 50.1903 59.78C50.2824 59.8164 50.3613 59.8798 50.4167 59.9619C50.472 60.044 50.5012 60.141 50.5003 60.24V61C50.5003 61.2652 50.6057 61.5196 50.7932 61.7071C50.9807 61.8946 51.2351 62 51.5003 62H54.5003C54.7655 62 55.0199 61.8946 55.2074 61.7071C55.395 61.5196 55.5003 61.2652 55.5003 61V60.24C55.4995 60.141 55.5286 60.044 55.584 59.9619C55.6393 59.8798 55.7182 59.8164 55.8103 59.78C55.9001 59.7376 56.0013 59.7254 56.0986 59.7452C56.1959 59.765 56.2842 59.8158 56.3503 59.89L56.8903 60.42C57.0777 60.6062 57.3311 60.7108 57.5953 60.7108C57.8595 60.7108 58.1129 60.6062 58.3003 60.42L60.4203 58.3C60.6087 58.1154 60.7166 57.8638 60.7203 57.6C60.7198 57.4677 60.693 57.3368 60.6415 57.2149C60.59 57.0931 60.5148 56.9826 60.4203 56.89L59.8903 56.35C59.8187 56.2822 59.7698 56.194 59.7501 56.0974C59.7304 56.0007 59.741 55.9004 59.7803 55.81C59.8167 55.7179 59.8801 55.639 59.9622 55.5836C60.0443 55.5283 60.1413 55.4991 60.2403 55.5H61.0003C61.2655 55.5 61.5199 55.3946 61.7074 55.2071C61.895 55.0196 62.0003 54.7652 62.0003 54.5V51.5C62.0003 51.2348 61.895 50.9804 61.7074 50.7929C61.5199 50.6054 61.2655 50.5 61.0003 50.5ZM60.0003 53.5C59.5522 53.5406 59.1234 53.7014 58.7591 53.9654C58.3948 54.2294 58.1084 54.5868 57.9303 55C57.7593 55.4201 57.7043 55.8784 57.7711 56.327C57.838 56.7757 58.0242 57.198 58.3103 57.55L57.5903 58.27C57.2304 57.9831 56.799 57.7998 56.3426 57.7399C55.8862 57.68 55.4221 57.7457 55.0003 57.93C54.589 58.1095 54.2337 58.3965 53.9715 58.7607C53.7093 59.1249 53.55 59.553 53.5103 60H52.5103C52.4671 59.5482 52.3017 59.1166 52.0318 58.7517C51.7619 58.3867 51.3977 58.1021 50.9784 57.9284C50.559 57.7547 50.1003 57.6984 49.6514 57.7657C49.2025 57.8329 48.7804 58.0211 48.4303 58.31L47.7103 57.59C48.0005 57.232 48.1874 56.8016 48.2509 56.3451C48.3143 55.8887 48.2519 55.4236 48.0703 55C47.8908 54.5887 47.6038 54.2333 47.2396 53.9712C46.8754 53.709 46.4473 53.5497 46.0003 53.51V52.51C46.4495 52.4685 46.879 52.3062 47.2435 52.0403C47.6079 51.7745 47.8936 51.415 48.0703 51C48.2414 50.5799 48.2963 50.1216 48.2295 49.673C48.1626 49.2243 47.9764 48.802 47.6903 48.45L48.4103 47.73C48.7623 48.0161 49.1847 48.2023 49.6333 48.2692C50.0819 48.336 50.5402 48.2811 50.9603 48.11C51.3847 47.933 51.7521 47.6424 52.022 47.2702C52.292 46.8979 52.454 46.4584 52.4903 46H53.4903C53.5335 46.4518 53.699 46.8834 53.9689 47.2483C54.2387 47.6133 54.6029 47.8979 55.0222 48.0716C55.4416 48.2453 55.9003 48.3016 56.3492 48.2343C56.7981 48.1671 57.2202 47.9789 57.5703 47.69L58.2903 48.41C58.0001 48.768 57.8132 49.1984 57.7498 49.6549C57.6863 50.1113 57.7487 50.5764 57.9303 51C58.1099 51.4113 58.3968 51.7667 58.761 52.0288C59.1252 52.291 59.5533 52.4503 60.0003 52.49V53.5Z" fill="url(#paint1_linear_11909_41796)"/>
<path d="M53 49C52.2089 49 51.4355 49.2346 50.7777 49.6741C50.1199 50.1136 49.6072 50.7384 49.3045 51.4693C49.0017 52.2002 48.9225 53.0044 49.0769 53.7804C49.2312 54.5563 49.6122 55.269 50.1716 55.8284C50.731 56.3878 51.4437 56.7688 52.2196 56.9231C52.9956 57.0775 53.7998 56.9983 54.5307 56.6955C55.2616 56.3928 55.8864 55.8801 56.3259 55.2223C56.7654 54.5645 57 53.7911 57 53C57 51.9391 56.5786 50.9217 55.8284 50.1716C55.0783 49.4214 54.0609 49 53 49ZM53 55C52.6044 55 52.2178 54.8827 51.8889 54.6629C51.56 54.4432 51.3036 54.1308 51.1522 53.7654C51.0009 53.3999 50.9613 52.9978 51.0384 52.6098C51.1156 52.2219 51.3061 51.8655 51.5858 51.5858C51.8655 51.3061 52.2219 51.1156 52.6098 51.0384C52.9978 50.9613 53.3999 51.0009 53.7654 51.1522C54.1308 51.3036 54.4432 51.56 54.6629 51.8889C54.8827 52.2178 55 52.6044 55 53C55 53.5304 54.7893 54.0391 54.4142 54.4142C54.0391 54.7893 53.5304 55 53 55ZM23 53C23 54.78 23.5278 56.5201 24.5168 58.0001C25.5057 59.4802 26.9113 60.6337 28.5558 61.3149C30.2004 61.9961 32.01 62.1743 33.7558 61.8271C35.5016 61.4798 37.1053 60.6226 38.364 59.364C39.6226 58.1053 40.4798 56.5016 40.8271 54.7558C41.1743 53.01 40.9961 51.2004 40.3149 49.5559C39.6337 47.9113 38.4802 46.5057 37.0001 45.5168C35.5201 44.5278 33.78 44 32 44C29.6131 44 27.3239 44.9482 25.636 46.636C23.9482 48.3239 23 50.6131 23 53ZM32 60C31.0583 59.9995 30.1264 59.8091 29.26 59.44C29.89 58 31 57 32 57C33 57 34.11 58 34.74 59.44C33.8736 59.8091 32.9417 59.9995 32 60ZM39 53C38.9995 54.0324 38.7706 55.052 38.3297 55.9856C37.8889 56.9192 37.247 57.7437 36.45 58.4C35.45 56.33 33.81 55 32 55C30.19 55 28.52 56.33 27.55 58.4C26.6392 57.6499 25.9328 56.6818 25.4964 55.5856C25.06 54.4894 24.9078 53.3007 25.0539 52.1299C25.1999 50.9591 25.6396 49.8442 26.332 48.8888C27.0243 47.9335 27.9469 47.1686 29.0141 46.6653C30.0813 46.162 31.2583 45.9366 32.4359 46.0101C33.6135 46.0836 34.7534 46.4535 35.7497 47.0855C36.746 47.7176 37.5664 48.5912 38.1347 49.6252C38.7029 50.6592 39.0006 51.8201 39 53Z" fill="url(#paint2_linear_11909_41796)"/>
<path d="M29 50.6C29 51.1933 29.1759 51.7734 29.5056 52.2667C29.8352 52.7601 30.3038 53.1446 30.8519 53.3716C31.4001 53.5987 32.0033 53.6581 32.5853 53.5424C33.1672 53.4266 33.7018 53.1409 34.1213 52.7213C34.5409 52.3018 34.8266 51.7672 34.9424 51.1853C35.0581 50.6033 34.9987 50.0001 34.7716 49.452C34.5446 48.9038 34.1601 48.4352 33.6667 48.1056C33.1734 47.7759 32.5933 47.6 32 47.6C31.2044 47.6 30.4413 47.9161 29.8787 48.4787C29.3161 49.0413 29 49.8043 29 50.6ZM33 50.6C33 50.7978 32.9414 50.9911 32.8315 51.1556C32.7216 51.32 32.5654 51.4482 32.3827 51.5239C32.2 51.5996 31.9989 51.6194 31.8049 51.5808C31.6109 51.5422 31.4327 51.447 31.2929 51.3071C31.153 51.1673 31.0578 50.9891 31.0192 50.7951C30.9806 50.6011 31.0004 50.4 31.0761 50.2173C31.1518 50.0346 31.28 49.8784 31.4444 49.7685C31.6089 49.6587 31.8022 49.6 32 49.6C32.2652 49.6 32.5196 49.7054 32.7071 49.8929C32.8946 50.0804 33 50.3348 33 50.6ZM12 35H31V42H33V35H52V42H54V34C54 33.7348 53.8946 33.4804 53.7071 33.2929C53.5196 33.1054 53.2652 33 53 33H33V26H31V33H11C10.7348 33 10.4804 33.1054 10.2929 33.2929C10.1054 33.4804 10 33.7348 10 34V42H12V35ZM3 61H19C19.2652 61 19.5196 60.8946 19.7071 60.7071C19.8946 60.5196 20 60.2652 20 60V46C20 45.7348 19.8946 45.4804 19.7071 45.2929C19.5196 45.1054 19.2652 45 19 45H3C2.73478 45 2.48043 45.1054 2.29289 45.2929C2.10536 45.4804 2 45.7348 2 46V60C2 60.2652 2.10536 60.5196 2.29289 60.7071C2.48043 60.8946 2.73478 61 3 61ZM10 47H12V53H10V47ZM4 47H8V54C8 54.2652 8.10536 54.5196 8.29289 54.7071C8.48043 54.8946 8.73478 55 9 55H13C13.2652 55 13.5196 54.8946 13.7071 54.7071C13.8946 54.5196 14 54.2652 14 54V47H18V59H4V47Z" fill="url(#paint3_linear_11909_41796)"/>
<defs>
<linearGradient id="paint0_linear_11909_41796" x1="21" y1="19.16" x2="43" y2="9.04" gradientUnits="userSpaceOnUse">
<stop stop-color="#0575E6"/>
<stop offset="1" stop-color="#021B79"/>
</linearGradient>
<linearGradient id="paint1_linear_11909_41796" x1="28.3203" y1="49.68" x2="66.2258" y2="39.1932" gradientUnits="userSpaceOnUse">
<stop stop-color="#0575E6"/>
<stop offset="1" stop-color="#021B79"/>
</linearGradient>
<linearGradient id="paint2_linear_11909_41796" x1="23" y1="58.04" x2="46.473" y2="37.6446" gradientUnits="userSpaceOnUse">
<stop stop-color="#0575E6"/>
<stop offset="1" stop-color="#021B79"/>
</linearGradient>
<linearGradient id="paint3_linear_11909_41796" x1="2" y1="53.3" x2="44.9448" y2="23.9503" gradientUnits="userSpaceOnUse">
<stop stop-color="#0575E6"/>
<stop offset="1" stop-color="#021B79"/>
</linearGradient>
</defs>
</svg>
