<svg width="24" height="24" viewBox="0 0 24 24" fill="none" xmlns="http://www.w3.org/2000/svg">
<path d="M12 3C11.5936 3 11.1936 3.09559 10.8301 3.27734L3.72266 6.83008C3.28013 7.05134 3 7.50524 3 8C3 8.54636 3.45364 9 4 9V9.5C4.00001 9.6326 4.0527 9.75977 4.14646 9.85354C4.24023 9.9473 4.3674 9.99999 4.5 10H5V17H4.5C4.3674 17 4.24023 17.0527 4.14646 17.1465C4.0527 17.2402 4.00001 17.3674 4 17.5V18.0898C3.42051 18.2981 3 18.8529 3 19.5C3 20.3224 3.67765 21 4.5 21H19.5C20.3224 21 21 20.3224 21 19.5C21 18.8529 20.5795 18.2981 20 18.0898V17.5C20 17.3674 19.9473 17.2402 19.8535 17.1465C19.7598 17.0527 19.6326 17 19.5 17H19V10H19.5C19.6326 9.99999 19.7598 9.9473 19.8535 9.85354C19.9473 9.75977 20 9.6326 20 9.5V9C20.5464 9 21 8.54636 21 8C21 7.50524 20.7199 7.05134 20.2773 6.83008L13.1699 3.27734C12.8064 3.09559 12.4064 3 12 3ZM12 4C12.2512 4 12.498 4.05758 12.7227 4.16992L19.8301 7.72266C19.9357 7.77547 20 7.8819 20 8H4C4 7.8819 4.06429 7.77547 4.16992 7.72266L11.2773 4.16992C11.502 4.05758 11.7488 4 12 4ZM6 10H7V17H6V10ZM8 10H10.5V17H8V10ZM11.5 10H12.5V17H11.5V10ZM13.5 10H16V17H13.5V10ZM17 10H18V17H17V10ZM4.5 19H19.5C19.7856 19 20 19.2144 20 19.5C20 19.7856 19.7856 20 19.5 20H4.5C4.21435 20 4 19.7856 4 19.5C4 19.2144 4.21435 19 4.5 19Z" fill="url(#paint0_linear_11909_41801)"/>
<defs>
<linearGradient id="paint0_linear_11909_41801" x1="3" y1="17.04" x2="21" y2="8.76" gradientUnits="userSpaceOnUse">
<stop stop-color="#0575E6"/>
<stop offset="1" stop-color="#021B79"/>
</linearGradient>
</defs>
</svg>
