<svg width="48" height="48" viewBox="0 0 48 48" fill="none" xmlns="http://www.w3.org/2000/svg">
<path d="M2.36719 46.5C2.36719 47.05 2.81719 47.5 3.36719 47.5H21.5572H26.4272H44.6172C45.1672 47.5 45.6172 47.05 45.6172 46.5C45.6172 31.69 35.7672 29.16 34.0372 28.84L32.4672 27.8H36.6372C37.1872 27.8 37.6372 27.35 37.6372 26.8V14.15C37.6472 6.62 31.5272 0.5 23.9972 0.5C16.4672 0.5 10.3472 6.62 10.3472 14.15V26.8C10.3472 27.35 10.7972 27.8 11.3472 27.8H15.5172L13.9472 28.84C12.2172 29.16 2.36719 31.69 2.36719 46.5ZM13.2972 31.04C13.4872 36.47 17.8372 41.02 18.0372 41.23C18.2272 41.42 18.4772 41.53 18.7472 41.53C19.0172 41.53 19.2672 41.42 19.4572 41.23L21.5072 39.15L20.6772 45.5H4.38719C4.73719 34.77 10.7272 31.82 13.2972 31.04ZM26.1072 13.16C27.1072 13.97 29.1472 15.4 31.5572 15.9C31.4972 18.62 29.9772 21.1 27.5672 22.39C25.8972 23.28 23.9572 23.5 22.1572 23.06C21.5572 22.91 20.9672 22.69 20.4172 22.39C18.0372 21.11 16.5372 18.68 16.4272 16.01C19.1272 15.87 23.1372 15.28 26.1072 13.16ZM27.0472 24.79V26.1C27.0472 26.95 25.7972 27.9 23.9972 27.9C22.1972 27.9 20.9472 26.95 20.9472 26.1V24.79C21.1572 24.86 21.3772 24.92 21.5972 24.98C21.6272 24.99 21.6572 25 21.6872 25.01C21.9972 25.09 22.3172 25.14 22.6372 25.19C22.7672 25.21 22.8972 25.22 23.0272 25.24C23.2572 25.26 23.4772 25.28 23.7072 25.28C23.7972 25.28 23.8972 25.3 23.9872 25.3C24.0772 25.3 24.1772 25.29 24.2672 25.28C24.4972 25.27 24.7172 25.26 24.9472 25.24C25.0772 25.23 25.2072 25.21 25.3372 25.19C25.6572 25.14 25.9772 25.09 26.2972 25.01C26.3272 25 26.3572 24.99 26.3872 24.98C26.6172 24.92 26.8372 24.86 27.0472 24.79ZM19.3372 27.57C20.0872 28.95 21.8672 29.9 24.0072 29.9C26.1372 29.9 27.9272 28.95 28.6772 27.57L28.8672 27.73C28.5872 28.96 27.5272 32.09 24.0072 34.05C20.4872 32.09 19.4372 28.96 19.1472 27.73L19.3372 27.57ZM22.6972 45.5L23.8272 36.79L23.9972 36.62L24.1572 36.79L25.2872 45.5H22.6972ZM43.6072 45.5H27.3072L26.4772 39.15L28.5272 41.23C28.7172 41.42 28.9672 41.53 29.2372 41.53C29.5372 41.54 29.7672 41.42 29.9572 41.23C30.1572 41.02 34.5072 36.48 34.6972 31.04C37.2672 31.82 43.2572 34.78 43.6072 45.5ZM29.1972 39.06L25.6272 35.42C28.7472 33.43 30.0572 30.65 30.5972 28.95L32.7172 30.35C32.8572 34.05 30.4172 37.55 29.1972 39.06ZM12.3472 14.15C12.3472 7.73 17.5772 2.5 23.9972 2.5C30.4172 2.5 35.6472 7.73 35.6472 14.15V25.8H29.6572L29.0472 25.3V23.82C31.8372 22.07 33.5672 19.03 33.5672 15.72V15.04C33.5672 14.53 33.1772 14.1 32.6672 14.04C29.5772 13.74 26.8672 11.17 26.8372 11.14C26.8272 11.13 26.8172 11.13 26.8072 11.12C26.7872 11.1 25.0372 9.54 23.9872 7.88L22.2972 8.96C22.9972 10.06 23.9172 11.08 24.5972 11.77C21.5572 13.72 17.2572 14.02 15.4172 14.05C14.8672 14.06 14.4372 14.5 14.4372 15.05V15.73C14.4372 19.05 16.1572 22.08 18.9572 23.83V25.3L18.3472 25.8H12.3572V14.15H12.3472ZM17.4072 28.95C17.9372 30.65 19.2472 33.43 22.3772 35.42L18.8072 39.06C17.5872 37.55 15.1472 34.06 15.2972 30.35L17.4072 28.95Z" fill="url(#paint0_linear_11909_41813)"/>
<defs>
<linearGradient id="paint0_linear_11909_41813" x1="2.36719" y1="37.16" x2="46.8062" y2="18.349" gradientUnits="userSpaceOnUse">
<stop stop-color="#0575E6"/>
<stop offset="1" stop-color="#021B79"/>
</linearGradient>
</defs>
</svg>
