<svg xmlns="http://www.w3.org/2000/svg" viewBox="0 0 68 68" id="Discussion"><path fill="#021b79" d="M38.1 35.3h-8.2c-2.9 0-5.3 2.7-5.3 6v14.3c0 .6.4 1 1 1h2.6v7.7c0 1.5 1.2 2.6 2.6 2.6h6.4c1.4 0 2.6-1.2 2.6-2.6v-7.7h2.6c.6 0 1-.4 1-1V41.3c0-3.3-2.4-6-5.3-6zm3.3 19.3h-1.6v-7c0-.6-.4-1-1-1s-1 .4-1 1v16.7c0 .4-.3.6-.6.6H35V56c0-.6-.4-1-1-1s-1 .4-1 1v9h-2.2c-.3 0-.6-.3-.6-.6V47.6c0-.6-.4-1-1-1s-1 .4-1 1v7h-1.6V41.3c0-2.2 1.5-4 3.3-4h8.2c1.8 0 3.3 1.8 3.3 4v13.3zM39.8 29c0-3.3-2.6-5.9-5.8-5.9-3.2 0-5.8 2.7-5.8 5.9 0 3.3 2.6 5.9 5.8 5.9 3.2.1 5.8-2.6 5.8-5.9zm-9.6 0c0-2.2 1.7-3.9 3.8-3.9s3.8 1.8 3.8 3.9c0 2.2-1.7 3.9-3.8 3.9s-3.8-1.7-3.8-3.9zM14.5 35.3H6.3c-2.9 0-5.3 2.7-5.3 6v14.3c0 .6.4 1 1 1h2.6v7.7c0 1.5 1.2 2.6 2.6 2.6h6.4c1.4 0 2.6-1.2 2.6-2.6v-7.7h2.6c.6 0 1-.4 1-1V41.3c0-3.3-2.4-6-5.3-6zm3.3 19.3h-1.6v-7c0-.6-.4-1-1-1s-1 .4-1 1v16.7c0 .4-.3.6-.6.6h-2.2V56c0-.6-.4-1-1-1s-1 .4-1 1v9H7.2c-.3 0-.6-.3-.6-.6V47.6c0-.6-.4-1-1-1s-1 .4-1 1v7H3V41.3c0-2.2 1.5-4 3.3-4h8.2c1.8 0 3.3 1.8 3.3 4v13.3zM10.4 35c3.2 0 5.8-2.7 5.8-5.9 0-3.3-2.6-5.9-5.8-5.9-3.2 0-5.8 2.7-5.8 5.9S7.2 35 10.4 35zm0-9.9c2.1 0 3.8 1.8 3.8 3.9 0 2.2-1.7 3.9-3.8 3.9S6.6 31.2 6.6 29c0-2.1 1.7-3.9 3.8-3.9zM61.7 35.3h-8.2c-2.9 0-5.3 2.7-5.3 6v14.3c0 .6.4 1 1 1h2.6v7.7c0 1.5 1.2 2.6 2.6 2.6h6.4c1.4 0 2.6-1.2 2.6-2.6v-7.7H66c.6 0 1-.4 1-1V41.3c0-3.3-2.4-6-5.3-6zM65 54.6h-1.6v-7c0-.6-.4-1-1-1s-1 .4-1 1v16.7c0 .4-.3.6-.6.6h-2.2V56c0-.6-.4-1-1-1s-1 .4-1 1v9h-2.2c-.3 0-.6-.3-.6-.6V47.6c0-.6-.4-1-1-1s-1 .4-1 1v7h-1.6V41.3c0-2.2 1.5-4 3.3-4h8.2c1.8 0 3.3 1.8 3.3 4v13.3zM51.8 29c0 3.3 2.6 5.9 5.8 5.9 3.2 0 5.8-2.7 5.8-5.9 0-3.3-2.6-5.9-5.8-5.9-3.2 0-5.8 2.7-5.8 5.9zm5.8-3.9c2.1 0 3.8 1.8 3.8 3.9 0 2.2-1.7 3.9-3.8 3.9-2.1 0-3.8-1.8-3.8-3.9 0-2.1 1.7-3.9 3.8-3.9z" class="color010101 svgShape"></path><path fill="#021b79" d="M51.2 24.4c.6 0 1.3-.2 1.6-.7.3-.5.1-1.1-.3-1.5-1.2-.9-2-2.8-2.1-3.3 2.6-1.7 4.1-4.6 4.1-7.7C54.5 5.6 49 1 42.3 1c-3 0-5.8.9-8 2.5C32.1 2 29.4 1 26.3 1c-6.7 0-12.2 4.6-12.2 10.2 0 2.9 1.5 5.7 4.1 7.6-.2 1.2-1 2.5-2.1 3.4-.4.3-.5.8-.4 1.3.2.6.8.9 1.6.9 1 0 4.5-1.4 6.6-3.2 4 .7 7.7-.3 10.4-2.3 2.8 2 6.5 2.9 10.3 2.3 2 1.8 5.6 3.2 6.6 3.2zm-24.9-5c-.8 0-1.6-.1-2.5-.3-.3-.1-.7 0-.9.3-.9.9-2.3 1.8-3.9 2.4.6-1 1-2.1 1.2-3.2.1-.5-.2-1-.6-1.3-2.2-1.6-3.5-3.8-3.5-6.2 0-4.5 4.6-8.2 10.2-8.2s10.2 3.7 10.2 8.2c0 4.6-4.6 8.3-10.2 8.3zm19.4 0c-.2-.3-.6-.4-.9-.3-3.3.7-6.5 0-8.9-1.6 1.7-1.7 2.6-3.9 2.6-6.3s-1-4.6-2.7-6.3C37.7 3.7 39.9 3 42.3 3c5.6 0 10.2 3.7 10.2 8.2 0 2.5-1.3 4.8-3.4 6.1-.4.3-.7.7-.7 1.2-.1.8.4 2.1 1.2 3.3-1.7-.7-3.1-1.5-3.9-2.4z" class="color010101 svgShape"></path><path fill="#021b79" d="M31.6 6.9H21c-.6 0-1 .4-1 1s.4 1 1 1h10.6c.6 0 1-.4 1-1s-.5-1-1-1zM31.6 10.5H21c-.6 0-1 .4-1 1s.4 1 1 1h10.6c.6 0 1-.4 1-1s-.5-1-1-1zM31.6 14.1H21c-.6 0-1 .4-1 1s.4 1 1 1h10.6c.6 0 1-.4 1-1s-.5-1-1-1z" class="color010101 svgShape"></path></svg>