<svg width="72" height="72" viewBox="0 0 72 72" fill="none" xmlns="http://www.w3.org/2000/svg">
<rect width="72" height="72" rx="36" fill="#DBE9FE"/>
<path d="M49.5 20.25H38.25C37.0091 20.25 36 21.258 36 22.5V29.25C36 30.4909 37.008 31.5 38.25 31.5H40.9759L42.9233 34.875L44.8729 33.75L42.2741 29.25H38.25V22.5H49.5V29.25H46.125V31.5H49.5C50.7409 31.5 51.75 30.492 51.75 29.25V22.5C51.75 21.2591 50.7409 20.25 49.5 20.25ZM34.5263 52.875L32.5778 51.75L36.4759 45H42.75C43.3467 45 43.919 44.7629 44.341 44.341C44.763 43.919 45 43.3467 45 42.75V37.125H47.25V42.75C47.25 43.9435 46.7759 45.0881 45.932 45.932C45.0881 46.7759 43.9435 47.25 42.75 47.25H37.7741L34.5263 52.875Z" fill="url(#paint0_linear_12135_132743)"/>
<path d="M29.25 38.25C29.8713 38.25 30.375 37.7463 30.375 37.125C30.375 36.5037 29.8713 36 29.25 36C28.6287 36 28.125 36.5037 28.125 37.125C28.125 37.7463 28.6287 38.25 29.25 38.25Z" fill="url(#paint1_linear_12135_132743)"/>
<path d="M33.75 38.25C34.3713 38.25 34.875 37.7463 34.875 37.125C34.875 36.5037 34.3713 36 33.75 36C33.1287 36 32.625 36.5037 32.625 37.125C32.625 37.7463 33.1287 38.25 33.75 38.25Z" fill="url(#paint2_linear_12135_132743)"/>
<path d="M38.25 38.25C38.8713 38.25 39.375 37.7463 39.375 37.125C39.375 36.5037 38.8713 36 38.25 36C37.6287 36 37.125 36.5037 37.125 37.125C37.125 37.7463 37.6287 38.25 38.25 38.25Z" fill="url(#paint3_linear_12135_132743)"/>
<path d="M31.5 47.25H24.75C23.5565 47.25 22.4119 46.7759 21.568 45.932C20.7241 45.0881 20.25 43.9435 20.25 42.75V31.5C20.25 30.3065 20.7241 29.1619 21.568 28.318C22.4119 27.4741 23.5565 27 24.75 27H33.75V29.25H24.75C24.1533 29.25 23.581 29.4871 23.159 29.909C22.7371 30.331 22.5 30.9033 22.5 31.5V42.75C22.5 43.3467 22.7371 43.919 23.159 44.341C23.581 44.7629 24.1533 45 24.75 45H31.5V47.25Z" fill="url(#paint4_linear_12135_132743)"/>
<defs>
<linearGradient id="paint0_linear_12135_132743" x1="32.5778" y1="45.6975" x2="54.225" y2="39.8458" gradientUnits="userSpaceOnUse">
<stop stop-color="#0575E6"/>
<stop offset="1" stop-color="#021B79"/>
</linearGradient>
<linearGradient id="paint1_linear_12135_132743" x1="28.125" y1="37.755" x2="30.375" y2="36.72" gradientUnits="userSpaceOnUse">
<stop stop-color="#0575E6"/>
<stop offset="1" stop-color="#021B79"/>
</linearGradient>
<linearGradient id="paint2_linear_12135_132743" x1="32.625" y1="37.755" x2="34.875" y2="36.72" gradientUnits="userSpaceOnUse">
<stop stop-color="#0575E6"/>
<stop offset="1" stop-color="#021B79"/>
</linearGradient>
<linearGradient id="paint3_linear_12135_132743" x1="37.125" y1="37.755" x2="39.375" y2="36.72" gradientUnits="userSpaceOnUse">
<stop stop-color="#0575E6"/>
<stop offset="1" stop-color="#021B79"/>
</linearGradient>
<linearGradient id="paint4_linear_12135_132743" x1="20.25" y1="42.795" x2="35.2006" y2="38.2102" gradientUnits="userSpaceOnUse">
<stop stop-color="#0575E6"/>
<stop offset="1" stop-color="#021B79"/>
</linearGradient>
</defs>
</svg>
