<svg width="72" height="72" viewBox="0 0 72 72" fill="none" xmlns="http://www.w3.org/2000/svg">
<rect width="72" height="72" rx="36" fill="#DBE9FE"/>
<path d="M27 33.75H33.75V36H27V33.75ZM27 24.75H40.5V27H27V24.75ZM27 29.25H40.5V31.5H27V29.25ZM27 45H33.75V47.25H27V45ZM51.75 45V42.75H49.3864C49.2413 42.0458 48.9617 41.3762 48.5629 40.7779L50.2391 39.1016L48.6484 37.5109L46.9721 39.1871C46.3738 38.7883 45.7042 38.5087 45 38.3636V36H42.75V38.3636C42.0458 38.5087 41.3762 38.7883 40.7779 39.1871L39.1016 37.5109L37.5109 39.1016L39.1871 40.7779C38.7883 41.3762 38.5087 42.0458 38.3636 42.75H36V45H38.3636C38.5087 45.7042 38.7883 46.3738 39.1871 46.9721L37.5109 48.6484L39.1016 50.2391L40.7779 48.5629C41.3762 48.9617 42.0458 49.2413 42.75 49.3864V51.75H45V49.3864C45.7042 49.2413 46.3738 48.9617 46.9721 48.5629L48.6484 50.2391L50.2391 48.6484L48.5629 46.9721C48.9617 46.3738 49.2413 45.7042 49.3864 45H51.75ZM43.875 47.25C43.2075 47.25 42.555 47.0521 42 46.6812C41.4449 46.3104 41.0124 45.7833 40.7569 45.1666C40.5015 44.5499 40.4346 43.8713 40.5648 43.2166C40.6951 42.5619 41.0165 41.9605 41.4885 41.4885C41.9605 41.0165 42.5619 40.6951 43.2166 40.5648C43.8713 40.4346 44.5499 40.5015 45.1666 40.7569C45.7833 41.0124 46.3104 41.4449 46.6812 42C47.0521 42.555 47.25 43.2075 47.25 43.875C47.2491 44.7698 46.8932 45.6278 46.2605 46.2605C45.6278 46.8932 44.7698 47.2491 43.875 47.25Z" fill="url(#paint0_linear_12135_132747)"/>
<path d="M33.75 51.75H24.75C24.1534 51.7494 23.5815 51.5122 23.1597 51.0903C22.7378 50.6685 22.5006 50.0966 22.5 49.5V22.5C22.5006 21.9034 22.7378 21.3315 23.1597 20.9097C23.5815 20.4878 24.1534 20.2506 24.75 20.25H42.75C43.3466 20.2506 43.9185 20.4878 44.3403 20.9097C44.7622 21.3315 44.9994 21.9034 45 22.5V33.75H42.75V22.5H24.75V49.5H33.75V51.75Z" fill="url(#paint1_linear_12135_132747)"/>
<defs>
<linearGradient id="paint0_linear_12135_132747" x1="27" y1="45.81" x2="52.4602" y2="35.0743" gradientUnits="userSpaceOnUse">
<stop stop-color="#0575E6"/>
<stop offset="1" stop-color="#021B79"/>
</linearGradient>
<linearGradient id="paint1_linear_12135_132747" x1="22.5" y1="44.82" x2="47.1047" y2="36.7356" gradientUnits="userSpaceOnUse">
<stop stop-color="#0575E6"/>
<stop offset="1" stop-color="#021B79"/>
</linearGradient>
</defs>
</svg>
