<svg width="50" height="50" viewBox="0 0 50 50" fill="none" xmlns="http://www.w3.org/2000/svg">
<path d="M26.6563 41.2043C26.1873 41.2043 25.7009 41.1776 25.2108 41.126C24.9712 41.1011 24.7888 40.8985 24.7888 40.6571C24.7888 40.4157 24.9703 40.2139 25.2108 40.1881C26.8009 40.0186 28.3247 39.5598 29.7407 38.8237C29.8706 38.7555 30.0236 38.7537 30.1553 38.8136C30.287 38.8744 30.3838 38.9923 30.4169 39.1342C30.4814 39.405 30.5865 39.6906 30.7403 40.0076C30.8011 40.1329 30.8039 40.2775 30.7477 40.4046C30.6915 40.5318 30.5828 40.6276 30.4492 40.6663C29.2322 41.0237 27.9553 41.2043 26.6563 41.2043ZM40.0243 27.365C40.0243 27.5159 40.0243 27.6574 40.0148 27.8083C39.1564 28.9027 38.062 30.0536 36.6847 31.0348C36.7129 30.931 36.7413 30.8178 36.7695 30.7046C36.8262 30.4876 36.8828 30.2706 36.9205 30.0536C36.9582 29.8838 36.9866 29.714 37.0148 29.5442C37.1375 28.8366 37.1941 28.1102 37.1941 27.365C37.1941 26.6197 37.128 25.8838 37.0148 25.1668C36.9866 24.997 36.9582 24.8367 36.9205 24.6669C36.8828 24.4593 36.8262 24.2518 36.779 24.0442C36.6941 23.714 36.5903 23.3744 36.4771 23.0442C36.4205 22.8649 36.3545 22.6857 36.279 22.5064C36.279 22.4876 36.2696 22.4687 36.2601 22.4404C36.1846 22.2612 36.1092 22.082 36.0337 21.9121C35.9488 21.7235 35.8639 21.5442 35.7695 21.365C35.6847 21.1857 35.5903 21.0065 35.4865 20.8272C34.9016 19.7706 34.1658 18.8083 33.3167 17.9593C33.1846 17.8178 33.0337 17.6763 32.8922 17.5442C32.7601 17.4216 32.6281 17.2989 32.4865 17.1951C32.3544 17.0819 32.213 16.9782 32.0809 16.8744V16.8649C31.7413 16.5914 31.4017 16.3366 31.0337 16.1102C31.562 15.6102 32.0337 14.9216 32.3922 13.997C32.3922 13.997 35.9488 6.90269 27.8356 4.91213C27.1847 4.75171 26.5148 4.63851 25.8545 4.58191C27.4488 4.41211 29.0809 4.51587 30.6658 4.91213C38.779 6.90269 35.2224 13.997 35.2224 13.997C34.8545 14.9216 34.3922 15.6102 33.8639 16.1197C37.5715 18.4876 40.0243 22.6385 40.0243 27.365Z" fill="url(#paint0_linear_11471_92736)"/>
<path d="M36.6845 31.5069C36.5896 31.5069 36.4956 31.4783 36.4146 31.4221C36.2506 31.3079 36.1769 31.1025 36.2294 30.9108L36.3114 30.593C36.3666 30.3811 36.4201 30.1766 36.456 29.973C36.4956 29.7896 36.5233 29.6275 36.55 29.4663C36.6642 28.8057 36.7223 28.0991 36.7223 27.3648C36.7223 26.6877 36.6642 25.9727 36.5491 25.2394C36.5233 25.0837 36.4956 24.9308 36.4597 24.7695C36.433 24.6212 36.4007 24.4913 36.3694 24.3605L36.3197 24.1486C36.2404 23.8437 36.14 23.5166 36.0313 23.1969C35.9751 23.0219 35.9143 22.856 35.8443 22.6902C35.8341 22.6653 35.8249 22.6386 35.8194 22.611C35.73 22.3982 35.6674 22.248 35.6029 22.1024C35.5228 21.9274 35.4417 21.756 35.3523 21.5847C35.2639 21.3986 35.1745 21.2309 35.0787 21.0632C34.5222 20.0581 33.8184 19.1285 32.9837 18.2929C32.8556 18.1556 32.722 18.0313 32.5968 17.9133C32.4447 17.7724 32.3305 17.6655 32.207 17.5752C32.0974 17.4831 32.0099 17.4158 31.9242 17.3504L31.7888 17.2445C31.7658 17.2261 31.7446 17.2067 31.7261 17.1855C31.3678 16.899 31.0757 16.6899 30.7864 16.5121C30.6611 16.4356 30.5791 16.3048 30.5644 16.1592C30.5487 16.0127 30.6031 15.8681 30.709 15.7677C31.224 15.2812 31.6423 14.628 31.9528 13.8265C31.9841 13.7574 33.3798 10.9014 32.2596 8.48491C31.5649 6.98597 30.0383 5.93847 27.7232 5.37004C27.0838 5.2125 26.4416 5.10563 25.8152 5.0522C25.5729 5.03193 25.3859 4.83017 25.3831 4.58787C25.3803 4.34465 25.5627 4.1392 25.805 4.11341C27.4827 3.93283 29.1567 4.04892 30.78 4.45428C33.3891 5.09457 35.1284 6.31988 35.9484 8.09428C37.2575 10.9282 35.7107 14.0753 35.6444 14.2079C35.3689 14.9035 35.0114 15.5217 34.5849 16.0339C38.2967 18.6181 40.4959 22.8127 40.4959 27.3648C40.4959 27.526 40.4959 27.6771 40.4857 27.8365C40.4802 27.9323 40.4452 28.0235 40.3862 28.0991C39.3498 29.4202 38.1963 30.5377 36.9581 31.4194C36.8761 31.4774 36.7803 31.5069 36.6845 31.5069ZM36.7333 22.3705C36.8061 22.5465 36.8706 22.7243 36.9268 22.9003C37.041 23.2328 37.147 23.5839 37.2363 23.9266L37.2861 24.1394C37.322 24.2868 37.358 24.4351 37.3847 24.5834C37.4206 24.7428 37.4501 24.9105 37.4805 25.0883C37.6039 25.8751 37.6657 26.6388 37.6657 27.3648C37.6657 28.1534 37.603 28.9135 37.4796 29.6247C37.4676 29.6966 37.4556 29.7675 37.4436 29.8394C38.1871 29.1982 38.8919 28.4602 39.5506 27.6347C39.5525 27.5454 39.5525 27.4569 39.5525 27.3648C39.5525 22.9482 37.3312 18.8936 33.6092 16.5176C33.4876 16.4393 33.4084 16.3103 33.3946 16.1666C33.3798 16.0229 33.4324 15.8801 33.5365 15.7796C34.0413 15.2932 34.4614 14.6345 34.7839 13.8228C34.8143 13.7574 36.21 10.9014 35.0897 8.48491C34.3951 6.98597 32.8685 5.93847 30.5533 5.37004C30.4741 5.35069 30.3949 5.33135 30.3156 5.31292C31.6395 5.99467 32.5783 6.92517 33.1182 8.09428C34.4273 10.9282 32.8805 14.0753 32.8142 14.2079C32.5488 14.8971 32.1923 15.5134 31.7593 16.0265C31.9509 16.1629 32.1518 16.3168 32.3766 16.4973C32.3959 16.513 32.4143 16.5305 32.4309 16.5489L32.5 16.6033C32.5986 16.6779 32.6981 16.7553 32.7921 16.8354C32.9174 16.9257 33.0592 17.0556 33.2011 17.1864C33.3826 17.3578 33.5309 17.4969 33.6618 17.637C34.548 18.5242 35.3044 19.5247 35.8996 20.5989C36.0055 20.7813 36.1059 20.9729 36.1962 21.1646C36.2856 21.3322 36.374 21.5202 36.4634 21.7164C36.5343 21.8749 36.6016 22.037 36.6698 22.1992C36.6725 22.2047 36.7057 22.2867 36.7075 22.2922C36.714 22.3097 36.7241 22.3364 36.7333 22.3705Z" fill="url(#paint1_linear_11471_92736)"/>
<path d="M23.8261 41.2045C20.0332 41.2045 16.4945 39.6992 13.8633 36.9657C13.7905 36.8902 13.7454 36.7925 13.7343 36.6884C13.6229 35.6409 13.633 34.5731 13.7638 33.5146C13.9389 32.0553 13.6772 30.6429 13.0074 29.4333C12.3542 28.2633 11.4578 27.506 10.3458 27.1863C10.1367 27.1255 9.99575 26.9292 10.0059 26.7118C10.2823 20.6451 14.5883 15.3883 20.4772 13.9262C20.5795 13.9013 20.6882 13.9105 20.7849 13.9539C21.7799 14.4044 22.7021 14.9488 23.5257 15.5744C24.6829 16.4422 26.0731 16.9342 27.4384 16.9591C27.9221 16.9692 28.3754 16.9195 28.8185 16.8117C29.5399 16.6366 30.1747 16.2875 30.7044 15.7725C30.8619 15.6195 31.1006 15.5947 31.2848 15.7117C31.8238 16.0507 32.3185 16.4201 32.7976 16.8402C32.9173 16.9259 33.0592 17.0558 33.2011 17.1866C33.3826 17.358 33.5309 17.4971 33.6617 17.6371C34.548 18.5243 35.3044 19.5249 35.8995 20.5991C36.0055 20.7815 36.1059 20.9731 36.1962 21.1647C36.2855 21.3324 36.374 21.5204 36.4634 21.7166C36.5343 21.8751 36.6015 22.0372 36.6697 22.1994C36.6725 22.2049 36.7057 22.2869 36.7075 22.2924C36.7139 22.3099 36.7241 22.3366 36.7333 22.3707C36.8061 22.5467 36.8706 22.7245 36.9268 22.9005C37.041 23.233 37.1469 23.584 37.2363 23.9268C37.2944 24.1414 37.3441 24.3616 37.3846 24.5836C37.4206 24.743 37.4501 24.9107 37.4805 25.0885C37.6039 25.8753 37.6656 26.639 37.6656 27.365C37.6656 28.1536 37.603 28.9137 37.4795 29.6249C37.4501 29.8009 37.4206 29.9778 37.381 30.1565C37.3312 30.3859 37.2833 30.6061 37.2253 30.8253C37.1967 30.9424 37.1645 31.0676 37.123 31.1939C37.0917 31.2878 37.0309 31.3698 36.9498 31.4279C36.069 32.0599 35.1376 32.5878 34.1813 32.9968C32.8464 33.5699 31.7243 34.528 31.0232 35.6934C30.3294 36.8478 30.1249 38.0022 30.4151 39.1243C30.4695 39.3371 30.3709 39.5591 30.1756 39.6605C28.6545 40.4519 27.0183 40.9447 25.3103 41.1262C24.799 41.1788 24.3005 41.2045 23.8261 41.2045ZM14.6565 36.4277C17.0961 38.9013 20.3464 40.2612 23.8261 40.2612C24.2683 40.2612 24.7354 40.2363 25.2126 40.1884C26.6812 40.0318 28.0953 39.6273 29.4192 38.9852C29.1944 37.7313 29.4607 36.4618 30.2143 35.207C31.0287 33.8536 32.2715 32.7895 33.81 32.1299C34.6567 31.7669 35.484 31.3044 36.2699 30.7535C36.2846 30.7001 36.2975 30.6466 36.3113 30.5932C36.3675 30.3785 36.4118 30.1722 36.4569 29.9667C36.4956 29.7898 36.5232 29.6277 36.55 29.4665C36.6642 28.8059 36.7222 28.0993 36.7222 27.365C36.7222 26.6879 36.6642 25.9729 36.549 25.2396C36.5232 25.0839 36.4956 24.931 36.4597 24.7697C36.421 24.5569 36.3768 24.3625 36.3242 24.1681C36.2404 23.8438 36.14 23.5168 36.0313 23.1971C35.9751 23.0221 35.9143 22.8562 35.8443 22.6904C35.8341 22.6655 35.8249 22.6388 35.8194 22.6112C35.73 22.3984 35.6674 22.2482 35.6029 22.1026C35.5227 21.9276 35.4417 21.7562 35.3523 21.5849C35.2638 21.3988 35.1745 21.2311 35.0787 21.0634C34.5222 20.0583 33.8183 19.1287 32.9837 18.2931C32.8556 18.1558 32.722 18.0315 32.5967 17.9135C32.4447 17.7726 32.3305 17.6657 32.207 17.5754C31.8302 17.2465 31.4645 16.9637 31.0794 16.7039C30.4879 17.1995 29.8043 17.5441 29.0415 17.7293C28.5191 17.8555 27.9811 17.9172 27.42 17.9025C25.8594 17.8739 24.2748 17.3147 22.9582 16.328C22.2295 15.7752 21.4188 15.2897 20.5454 14.8825C15.2554 16.2681 11.3712 20.9519 10.9695 26.3986C12.1608 26.8389 13.1226 27.704 13.832 28.9745C14.5994 30.361 14.8988 31.9696 14.6998 33.6288C14.5847 34.563 14.5699 35.5036 14.6565 36.4277Z" fill="url(#paint2_linear_11471_92736)"/>
<path d="M27.5562 17.9033C27.5111 17.9033 27.4659 17.9033 27.4199 17.9024C25.8592 17.8738 24.2746 17.3146 22.9581 16.3279C19.3024 13.5806 15.0037 13.3245 12.7512 13.4212C12.2795 13.4424 11.817 13.2103 11.559 12.8003C11.3001 12.3894 11.2836 11.8919 11.5157 11.469C12.3596 9.97286 13.5564 8.58817 15.0746 7.34812C18.114 4.90211 22.0626 3.72471 25.9025 4.11349C26.5704 4.16969 27.2614 4.28485 27.9487 4.45436C30.5587 5.09466 32.2981 6.31997 33.118 8.09436C34.3875 10.8416 32.9715 13.8846 32.8241 14.1877C32.0631 16.1095 30.7908 17.3008 29.0422 17.7282C28.5613 17.8452 28.0629 17.9033 27.5562 17.9033ZM13.4965 12.4622C16.0024 12.4622 20.0312 12.9477 23.5247 15.5734C24.6827 16.4421 26.0729 16.9341 27.4383 16.959C27.922 16.9691 28.3752 16.9194 28.8184 16.8116C30.2565 16.4606 31.3114 15.4554 31.9535 13.8248C31.9581 13.8119 31.9636 13.798 31.9701 13.7861C31.9839 13.7575 33.3797 10.9015 32.2594 8.48499C31.5647 6.98606 30.0382 5.93856 27.723 5.37012C27.0836 5.21258 26.4415 5.10571 25.815 5.05228C22.2054 4.68469 18.5129 5.79115 15.6689 8.08147C14.2446 9.24413 13.1234 10.5385 12.3403 11.9278C12.25 12.0927 12.3218 12.2411 12.3568 12.2963C12.4342 12.4189 12.5623 12.4824 12.7051 12.4788C12.9465 12.4686 13.2118 12.4622 13.4965 12.4622Z" fill="url(#paint3_linear_11471_92736)"/>
<path d="M35.8156 18.6761C35.6092 18.6761 35.4194 18.5398 35.3614 18.3316C33.014 9.9405 22.3261 9.73045 22.2183 9.72953C21.9576 9.72677 21.7485 9.51395 21.7512 9.25322C21.754 8.99434 21.965 8.78613 22.2229 8.78613H22.2276C22.3418 8.78705 33.7298 8.99987 36.2698 18.0773C36.3398 18.3279 36.1933 18.5886 35.9427 18.6586C35.9003 18.6706 35.857 18.6761 35.8156 18.6761Z" fill="url(#paint4_linear_11471_92736)"/>
<path d="M22.6734 11.8605C22.5508 11.8605 22.4762 11.8522 22.4615 11.8504C22.2035 11.8163 22.022 11.5795 22.0552 11.3206C22.0893 11.0645 22.326 10.8756 22.5803 10.9143C22.6494 10.9199 23.9733 11.0405 25.0733 9.40434C25.2198 9.18784 25.5137 9.13256 25.7283 9.27628C25.9439 9.42185 26.002 9.71481 25.8564 9.93132C24.6781 11.6845 23.2142 11.8605 22.6734 11.8605ZM27.1333 13.3705C27.0108 13.3705 26.9352 13.3622 26.9205 13.3603C26.6625 13.3263 26.4801 13.0895 26.5142 12.8306C26.5483 12.5745 26.774 12.3902 27.0403 12.4243C27.102 12.4308 28.4314 12.5533 29.5323 10.9143C29.6797 10.6969 29.9745 10.6425 30.1864 10.7863C30.4029 10.9318 30.461 11.2248 30.3154 11.4404C29.138 13.1945 27.675 13.3705 27.1333 13.3705ZM27.2752 10.5716C27.2475 10.5716 27.2199 10.5698 27.1923 10.5642C26.9361 10.5191 26.7648 10.275 26.8099 10.0179C27.1527 8.06848 26.1042 7.23656 26.0591 7.20155C25.8546 7.04401 25.8122 6.7492 25.9679 6.54283C26.1227 6.33738 26.4138 6.2904 26.6229 6.44517C26.6865 6.49216 28.1882 7.63179 27.7386 10.1819C27.6981 10.4104 27.4991 10.5716 27.2752 10.5716Z" fill="url(#paint5_linear_11471_92736)"/>
<path d="M16.0827 45.9696C14.4069 45.9696 12.6491 45.6223 10.8553 44.9378C6.53909 43.2739 3.19666 39.6496 1.91055 35.2422C1.16339 32.6607 1.35686 30.5418 2.48543 28.9442C4.28562 26.3941 7.7819 26.1574 7.93023 26.1491C8.88099 26.009 9.79491 26.0523 10.6038 26.279C11.9664 26.6714 13.0517 27.578 13.832 28.9747C14.5994 30.3612 14.8988 31.9697 14.6998 33.629C14.5782 34.6175 14.569 35.6125 14.6722 36.5891C14.9707 39.6846 16.2559 42.2872 17.2822 43.9262C17.5392 44.3177 17.5632 44.8327 17.3393 45.2611C17.1154 45.6905 16.6953 45.9549 16.2163 45.9687C16.173 45.9687 16.1278 45.9696 16.0827 45.9696ZM9.00352 27.0142C8.69121 27.0142 8.36415 27.0381 8.02512 27.0869C7.9551 27.0925 4.7868 27.3145 3.25194 29.4933C2.30117 30.8449 2.15469 32.6902 2.81709 34.9796C4.02029 39.1051 7.15174 42.4991 11.1934 44.057C12.8775 44.7001 14.5229 45.0262 16.0827 45.0262C16.1195 45.0262 16.1564 45.0253 16.1942 45.0253C16.3821 45.0188 16.4724 44.8834 16.5028 44.8244C16.57 44.6973 16.5645 44.5517 16.488 44.4357C15.4028 42.7018 14.0485 39.9582 13.7334 36.684C13.6229 35.6411 13.633 34.5733 13.7638 33.5147C13.9389 32.0554 13.6772 30.6431 13.0074 29.4335C12.3542 28.2634 11.4578 27.5061 10.3458 27.1864C9.93494 27.0713 9.48628 27.0142 9.00352 27.0142Z" fill="url(#paint6_linear_11471_92736)"/>
<path d="M8.94263 38.272C8.77864 38.272 8.61833 38.1854 8.53173 38.0325C8.47553 37.9321 2.96533 27.9628 9.55712 21.2246C9.73954 21.0385 10.038 21.0357 10.2241 21.2172C10.4102 21.3996 10.4139 21.6981 10.2315 21.8842C4.13812 28.113 9.30101 37.4751 9.35352 37.5682C9.48158 37.7957 9.40143 38.0832 9.17387 38.2112C9.10109 38.2527 9.02186 38.272 8.94263 38.272Z" fill="url(#paint7_linear_11471_92736)"/>
<path d="M10.6324 36.9491C10.4491 36.9491 10.274 36.8414 10.1985 36.6617C10.1718 36.6018 9.61253 35.3922 7.64466 35.2577C7.38486 35.2402 7.18863 35.0144 7.20613 34.7546C7.22456 34.4948 7.45027 34.2903 7.70915 34.3161C10.2915 34.493 11.0378 36.2232 11.0682 36.2969C11.1677 36.5373 11.0534 36.8137 10.813 36.9132C10.754 36.9381 10.6932 36.9491 10.6324 36.9491ZM9.71111 32.3326C9.52777 32.3326 9.35273 32.2248 9.27718 32.0451C9.25139 31.9871 8.69215 30.7747 6.72246 30.6411C6.46266 30.6236 6.26642 30.3979 6.28393 30.1381C6.30235 29.8783 6.53267 29.6802 6.78695 29.6995C9.36931 29.8746 10.1165 31.6066 10.1469 31.6803C10.2464 31.9208 10.1321 32.1972 9.89168 32.2967C9.83272 32.3215 9.77191 32.3326 9.71111 32.3326ZM4.7767 35.9201C4.7592 35.9201 4.74077 35.9191 4.72327 35.9173C4.46439 35.8878 4.27829 35.6547 4.30685 35.3959C4.31606 35.3166 4.55283 33.4464 6.98502 32.5611C7.23009 32.4726 7.50002 32.5979 7.58939 32.843C7.67875 33.0871 7.55254 33.358 7.30747 33.4473C5.41884 34.1355 5.24564 35.4871 5.24472 35.5009C5.21708 35.7423 5.01347 35.9201 4.7767 35.9201Z" fill="url(#paint8_linear_11471_92736)"/>
<path d="M44.0904 42.0726C41.6658 44.6009 39.4866 44.8934 37.7791 44.3839C38.8545 44.0632 40.0243 43.3556 41.2602 42.0726C44.3546 38.8367 45.7508 34.2896 45.0621 29.8745C44.864 28.6575 44.5338 27.3839 43.9866 26.1575C44.2602 25.7235 44.4866 25.3179 44.6753 24.9688C44.9772 24.3745 45.8263 24.3273 46.1659 24.9028C47.1187 26.4971 47.6281 28.233 47.8923 29.8745C48.581 34.2896 47.1847 38.8367 44.0904 42.0726Z" fill="url(#paint9_linear_11471_92736)"/>
<path d="M39.2117 45.0703C38.6902 45.0703 38.1679 44.992 37.6446 44.8363C37.4446 44.7764 37.3074 44.5922 37.3074 44.3839C37.3074 44.1757 37.4446 43.9915 37.6446 43.9316C38.7335 43.6073 39.8363 42.8712 40.9207 41.7454C43.89 38.6397 45.2645 34.2295 44.5957 29.9474C44.381 28.6254 44.0309 27.4139 43.5555 26.3498C43.492 26.2051 43.5039 26.0393 43.5878 25.9057C43.8549 25.4819 44.0761 25.0858 44.2594 24.7449C44.4759 24.3202 44.9172 24.0401 45.4073 24.0254C45.8799 23.9987 46.3277 24.2493 46.5718 24.6638C47.4434 26.1204 48.045 27.8496 48.3582 29.8C49.0713 34.3723 47.6037 39.081 44.4317 42.3986C42.7273 44.1767 40.9778 45.0703 39.2117 45.0703ZM44.5174 26.1959C44.9743 27.2775 45.3143 28.4881 45.5271 29.7991C46.2411 34.3723 44.7735 39.081 41.6015 42.3986C40.917 43.1089 40.2196 43.6801 39.5157 44.1094C40.9243 44.0044 42.3422 43.2139 43.7499 41.7463C46.7201 38.6397 48.0947 34.2295 47.4259 29.9474C47.132 28.1177 46.5718 26.5018 45.7611 25.1457C45.6625 24.9798 45.5031 24.966 45.4359 24.9679C45.2885 24.9725 45.1613 25.0526 45.095 25.1825C44.9301 25.4902 44.7394 25.832 44.5174 26.1959Z" fill="url(#paint10_linear_11471_92736)"/>
<path d="M36.3556 45.0675C32.9597 45.0675 30.7403 41.7666 30.7154 41.7288C28.6361 39.1197 29.293 36.7391 30.2143 35.207C31.0287 33.8537 32.2715 32.7896 33.81 32.1299C38.0157 30.3362 40.3871 26.7367 41.4263 24.7504C41.6456 24.3202 42.0869 24.0401 42.577 24.0254C43.0533 23.9987 43.4974 24.2493 43.7415 24.6638C44.0004 25.1005 44.2215 25.5262 44.4177 25.9656C44.9253 27.1034 45.2985 28.3932 45.5269 29.7991C46.2409 34.3723 44.7733 39.081 41.6013 42.3986L41.6004 42.3995C40.4009 43.6442 39.1609 44.4641 37.9134 44.8363C37.3717 44.9966 36.8503 45.0675 36.3556 45.0675ZM42.6166 24.9679C42.6129 24.9679 42.6092 24.9679 42.6056 24.9679C42.4581 24.9725 42.331 25.0526 42.2647 25.1825C41.1647 27.2849 38.6551 31.0898 34.1813 32.9969C32.8464 33.5699 31.7242 34.528 31.0232 35.6935C29.9066 37.5489 30.0595 39.3933 31.4783 41.1751C31.6054 41.364 34.0643 44.9938 37.6444 43.9316C38.7334 43.6073 39.8362 42.8712 40.9205 41.7454C43.8898 38.6388 45.2644 34.2286 44.5955 29.9474C44.3809 28.6254 44.0308 27.4139 43.5554 26.3498C43.3748 25.9444 43.1703 25.5501 42.9298 25.1438C42.8377 24.9881 42.6875 24.9679 42.6166 24.9679Z" fill="url(#paint11_linear_11471_92736)"/>
<path d="M28.4556 43.1475C27.5564 43.1475 26.6158 43.036 25.6392 42.7855C25.3868 42.721 25.2347 42.4639 25.2992 42.2115C25.3637 41.96 25.6171 41.8071 25.8732 41.8715C34.3057 44.0338 39.8408 34.8836 39.8952 34.7905C40.0269 34.5658 40.3171 34.4911 40.541 34.6238C40.7658 34.7565 40.8404 35.0457 40.7077 35.2696C40.6552 35.3581 35.9622 43.1475 28.4556 43.1475Z" fill="url(#paint12_linear_11471_92736)"/>
<path d="M38.3254 38.1046C38.1512 38.1046 37.9836 38.0079 37.9016 37.8402C36.7629 35.5158 37.8887 34.0049 37.9375 33.9414C38.0969 33.735 38.3935 33.6954 38.599 33.8548C38.8044 34.0123 38.844 34.3062 38.6883 34.5126C38.6496 34.5651 37.8813 35.654 38.7491 37.4257C38.8634 37.6597 38.7667 37.9416 38.5326 38.0567C38.4663 38.089 38.3954 38.1046 38.3254 38.1046ZM34.7876 41.2112C34.6135 41.2112 34.4458 41.1145 34.3638 40.9468C33.2251 38.6224 34.3509 37.1106 34.3997 37.047C34.5591 36.8406 34.8549 36.801 35.0612 36.9604C35.2667 37.1179 35.3063 37.4118 35.1506 37.6182C35.1119 37.6707 34.3436 38.7606 35.2114 40.5322C35.3257 40.7662 35.2289 41.0482 34.9949 41.1633C34.9286 41.1956 34.8576 41.2112 34.7876 41.2112Z" fill="url(#paint13_linear_11471_92736)"/>
<path d="M39.4648 40.4336C38.7637 40.4336 37.7872 40.2208 36.7434 39.3446C36.5434 39.1769 36.5176 38.8794 36.6853 38.6804C36.853 38.4805 37.1497 38.4547 37.3496 38.6223C38.8642 39.8928 40.1116 39.4008 40.1641 39.3806C40.4027 39.2801 40.6782 39.3925 40.7804 39.6311C40.8818 39.8688 40.774 40.1434 40.5372 40.2466C40.5022 40.2622 40.095 40.4336 39.4648 40.4336Z" fill="url(#paint14_linear_11471_92736)"/>
<path d="M16.15 27.7511H19.5623V26.7643H16.15V25.1596H19.8396V24.1304H15.0623V30.5823H19.9028V29.5747H16.15V27.7511Z" fill="url(#paint15_linear_11471_92736)"/>
<path d="M25.1202 28.1473C25.04 28.534 24.9184 28.8485 24.7572 29.0828C24.4586 29.5214 24.0341 29.7346 23.4606 29.7346C22.8291 29.7346 22.3701 29.532 22.0566 29.1136C21.7377 28.689 21.5765 28.1244 21.5765 27.4338C21.5765 26.5882 21.7536 25.9575 22.105 25.5567C22.4547 25.1568 22.9039 24.9622 23.4774 24.9622C23.9416 24.9622 24.3036 25.0687 24.5529 25.2793C24.8048 25.4907 24.9757 25.7849 25.0611 26.1522L25.0858 26.257H26.1578L26.1446 26.109C26.0944 25.5541 25.8381 25.0529 25.3835 24.6186C24.9281 24.1835 24.2834 23.9624 23.4686 23.9624C22.5128 23.9624 21.7518 24.2998 21.2065 24.963C20.7053 25.5691 20.4517 26.3521 20.4517 27.2911C20.4517 28.5261 20.7917 29.4563 21.4611 30.0552C21.9702 30.5098 22.6097 30.7414 23.3593 30.7414C24.227 30.7414 24.929 30.4595 25.4434 29.9037C25.8715 29.443 26.127 28.867 26.2036 28.1896L26.2203 28.039H25.1422L25.1202 28.1473ZM32.285 25.0687C31.7353 24.335 30.8836 23.9624 29.7534 23.9624C28.6682 23.9624 27.8358 24.3676 27.2782 25.1648C26.8493 25.7805 26.6308 26.5283 26.6308 27.388C26.6308 28.3402 26.8863 29.1409 27.3919 29.7734C27.96 30.4296 28.7493 30.7626 29.7367 30.7626C30.7946 30.7626 31.6217 30.382 32.1951 29.6324C32.6796 29 32.9262 28.1984 32.9262 27.2489C32.9262 26.3698 32.7104 25.6369 32.285 25.0687ZM31.797 27.2621C31.797 27.9201 31.6376 28.5093 31.324 29.0141C31.0174 29.5047 30.5321 29.7425 29.838 29.7425C29.1104 29.7425 28.5793 29.5241 28.2621 29.0933C27.9345 28.6494 27.7689 28.0936 27.7689 27.4426C27.7689 26.6261 27.96 26.0033 28.3388 25.5929C28.7193 25.1797 29.1985 24.9789 29.8036 24.9789C30.4273 24.9789 30.9038 25.1806 31.2597 25.5955C31.6164 26.0113 31.797 26.5724 31.797 27.2621Z" fill="url(#paint16_linear_11471_92736)"/>
<defs>
<linearGradient id="paint0_linear_11471_92736" x1="24.7888" y1="33.1301" x2="42.5987" y2="29.7292" gradientUnits="userSpaceOnUse">
<stop stop-color="#0575E6"/>
<stop offset="1" stop-color="#021B79"/>
</linearGradient>
<linearGradient id="paint1_linear_11471_92736" x1="25.3831" y1="25.4622" x2="42.5921" y2="21.108" gradientUnits="userSpaceOnUse">
<stop stop-color="#0575E6"/>
<stop offset="1" stop-color="#021B79"/>
</linearGradient>
<linearGradient id="paint2_linear_11471_92736" x1="10.0054" y1="35.2003" x2="37.535" y2="22.3658" gradientUnits="userSpaceOnUse">
<stop stop-color="#0575E6"/>
<stop offset="1" stop-color="#021B79"/>
</linearGradient>
<linearGradient id="paint3_linear_11471_92736" x1="11.3525" y1="14.8535" x2="28.8092" y2="1.94202" gradientUnits="userSpaceOnUse">
<stop stop-color="#0575E6"/>
<stop offset="1" stop-color="#021B79"/>
</linearGradient>
<linearGradient id="paint4_linear_11471_92736" x1="21.7512" y1="16.5003" x2="33.8381" y2="8.32843" gradientUnits="userSpaceOnUse">
<stop stop-color="#0575E6"/>
<stop offset="1" stop-color="#021B79"/>
</linearGradient>
<linearGradient id="paint5_linear_11471_92736" x1="22.0513" y1="11.8267" x2="29.8328" y2="7.57006" gradientUnits="userSpaceOnUse">
<stop stop-color="#0575E6"/>
<stop offset="1" stop-color="#021B79"/>
</linearGradient>
<linearGradient id="paint6_linear_11471_92736" x1="1.46509" y1="41.5914" x2="18.5403" y2="35.2657" gradientUnits="userSpaceOnUse">
<stop stop-color="#0575E6"/>
<stop offset="1" stop-color="#021B79"/>
</linearGradient>
<linearGradient id="paint7_linear_11471_92736" x1="6.32104" y1="34.4904" x2="11.1652" y2="33.9661" gradientUnits="userSpaceOnUse">
<stop stop-color="#0575E6"/>
<stop offset="1" stop-color="#021B79"/>
</linearGradient>
<linearGradient id="paint8_linear_11471_92736" x1="4.30396" y1="35.3539" x2="11.2502" y2="32.3573" gradientUnits="userSpaceOnUse">
<stop stop-color="#0575E6"/>
<stop offset="1" stop-color="#021B79"/>
</linearGradient>
<linearGradient id="paint9_linear_11471_92736" x1="37.7791" y1="40.172" x2="49.5867" y2="37.3922" gradientUnits="userSpaceOnUse">
<stop stop-color="#0575E6"/>
<stop offset="1" stop-color="#021B79"/>
</linearGradient>
<linearGradient id="paint10_linear_11471_92736" x1="37.3074" y1="40.44" x2="50.1384" y2="37.2913" gradientUnits="userSpaceOnUse">
<stop stop-color="#0575E6"/>
<stop offset="1" stop-color="#021B79"/>
</linearGradient>
<linearGradient id="paint11_linear_11471_92736" x1="29.3389" y1="40.4378" x2="46.9177" y2="34.1493" gradientUnits="userSpaceOnUse">
<stop stop-color="#0575E6"/>
<stop offset="1" stop-color="#021B79"/>
</linearGradient>
<linearGradient id="paint12_linear_11471_92736" x1="25.2844" y1="41.2579" x2="36.4015" y2="32.0362" gradientUnits="userSpaceOnUse">
<stop stop-color="#0575E6"/>
<stop offset="1" stop-color="#021B79"/>
</linearGradient>
<linearGradient id="paint13_linear_11471_92736" x1="33.8562" y1="39.5713" x2="39.3334" y2="37.9013" gradientUnits="userSpaceOnUse">
<stop stop-color="#0575E6"/>
<stop offset="1" stop-color="#021B79"/>
</linearGradient>
<linearGradient id="paint14_linear_11471_92736" x1="36.5747" y1="40.0108" x2="39.1054" y2="37.4402" gradientUnits="userSpaceOnUse">
<stop stop-color="#0575E6"/>
<stop offset="1" stop-color="#021B79"/>
</linearGradient>
<linearGradient id="paint15_linear_11471_92736" x1="15.0623" y1="29.1628" x2="20.3029" y2="27.3542" gradientUnits="userSpaceOnUse">
<stop stop-color="#0575E6"/>
<stop offset="1" stop-color="#021B79"/>
</linearGradient>
<linearGradient id="paint16_linear_11471_92736" x1="20.4517" y1="29.2665" x2="29.2796" y2="21.817" gradientUnits="userSpaceOnUse">
<stop stop-color="#0575E6"/>
<stop offset="1" stop-color="#021B79"/>
</linearGradient>
</defs>
</svg>
