<svg width="25" height="25" viewBox="0 0 25 25" fill="none" xmlns="http://www.w3.org/2000/svg">
<path d="M12.3984 14.1798C11.9967 14.1794 11.6044 14.058 11.2727 13.8315C10.9409 13.605 10.6851 13.2838 10.5384 12.9098C10.4487 12.6767 10.4013 12.4295 10.3984 12.1798C10.3991 11.9299 10.4466 11.6823 10.5384 11.4498C10.7356 10.9571 11.1153 10.5595 11.5984 10.3398C11.8401 10.2361 12.1004 10.1826 12.3634 10.1826C12.6265 10.1826 12.8867 10.2361 13.1284 10.3398C13.6212 10.537 14.0188 10.9167 14.2384 11.3998C14.2384 11.3998 14.2384 11.4698 14.2384 11.4798C14.3576 11.7837 14.4005 12.112 14.3636 12.4363C14.3266 12.7605 14.2109 13.0708 14.0264 13.3401C13.842 13.6093 13.5945 13.8293 13.3055 13.9809C13.0165 14.1325 12.6948 14.2111 12.3684 14.2098L12.3984 14.1798ZM12.3984 11.1798C12.2727 11.1801 12.1478 11.2004 12.0284 11.2398C11.7884 11.3512 11.5942 11.5419 11.4784 11.7798C11.4289 11.9076 11.4019 12.0429 11.3984 12.1798C11.4023 12.306 11.4259 12.4309 11.4684 12.5498C11.5541 12.7665 11.7127 12.9464 11.9168 13.0586C12.121 13.1708 12.3579 13.2082 12.5867 13.1644C12.8155 13.1205 13.0218 12.9981 13.17 12.8184C13.3182 12.6386 13.399 12.4128 13.3984 12.1798C13.3988 12.054 13.3785 11.929 13.3384 11.8098V11.7298C13.2324 11.5191 13.0553 11.3526 12.8384 11.2598C12.6997 11.2003 12.5493 11.1729 12.3984 11.1798ZM19.3984 14.1798C18.9967 14.1794 18.6044 14.058 18.2727 13.8315C17.9409 13.605 17.6851 13.2838 17.5384 12.9098C17.4487 12.6767 17.4013 12.4295 17.3984 12.1798C17.3991 11.9299 17.4466 11.6823 17.5384 11.4498C17.7356 10.9571 18.1153 10.5595 18.5984 10.3398C18.8401 10.2361 19.1004 10.1826 19.3634 10.1826C19.6265 10.1826 19.8867 10.2361 20.1284 10.3398C20.6212 10.537 21.0188 10.9167 21.2384 11.3998C21.2384 11.3998 21.2384 11.4698 21.2384 11.4798C21.3576 11.7837 21.4005 12.112 21.3636 12.4363C21.3266 12.7605 21.2109 13.0708 21.0265 13.3401C20.842 13.6093 20.5945 13.8293 20.3055 13.9809C20.0165 14.1325 19.6948 14.2111 19.3684 14.2098L19.3984 14.1798ZM19.3984 11.1798C19.2727 11.1801 19.1478 11.2004 19.0284 11.2398C18.7884 11.3512 18.5942 11.5419 18.4784 11.7798C18.4289 11.9076 18.4019 12.0429 18.3984 12.1798C18.4023 12.306 18.4259 12.4309 18.4684 12.5498C18.5541 12.7665 18.7127 12.9464 18.9168 13.0586C19.121 13.1708 19.3579 13.2082 19.5867 13.1644C19.8155 13.1205 20.0218 12.9981 20.17 12.8184C20.3182 12.6386 20.399 12.4128 20.3984 12.1798C20.3988 12.054 20.3785 11.929 20.3384 11.8098V11.7298C20.2324 11.5191 20.0553 11.3526 19.8384 11.2598C19.6997 11.2003 19.5493 11.1729 19.3984 11.1798ZM5.39844 14.1798C4.99672 14.1794 4.60444 14.058 4.27268 13.8315C3.94092 13.605 3.68506 13.2838 3.53844 12.9098C3.44873 12.6767 3.40133 12.4295 3.39844 12.1798C3.39908 11.9299 3.44657 11.6823 3.53844 11.4498C3.7356 10.9571 4.11531 10.5595 4.59844 10.3398C4.84014 10.2361 5.10042 10.1826 5.36344 10.1826C5.62646 10.1826 5.88673 10.2361 6.12844 10.3398C6.62117 10.537 7.01879 10.9167 7.23844 11.3998C7.23844 11.3998 7.23844 11.4698 7.23844 11.4798C7.35054 11.7797 7.389 12.1021 7.3506 12.42C7.3122 12.7378 7.19805 13.0418 7.01776 13.3064C6.83746 13.571 6.59628 13.7884 6.31449 13.9404C6.03271 14.0924 5.71855 14.1745 5.39844 14.1798ZM5.39844 11.1798C5.27271 11.1801 5.14783 11.2004 5.02844 11.2398C4.78844 11.3512 4.59419 11.5419 4.47844 11.7798C4.42895 11.9076 4.40188 12.0429 4.39844 12.1798C4.40232 12.306 4.42594 12.4309 4.46844 12.5498C4.55406 12.7665 4.71265 12.9464 4.91682 13.0586C5.12099 13.1708 5.35792 13.2082 5.58672 13.1644C5.81552 13.1205 6.02183 12.9981 6.17002 12.8184C6.31822 12.6386 6.39901 12.4128 6.39844 12.1798C6.39881 12.054 6.37854 11.929 6.33844 11.8098V11.7298C6.23242 11.5191 6.05532 11.3526 5.83844 11.2598C5.69969 11.2003 5.54926 11.1729 5.39844 11.1798ZM16.3984 20.6798H8.39844C8.26583 20.6798 8.13865 20.6271 8.04488 20.5334C7.95112 20.4396 7.89844 20.3124 7.89844 20.1798V19.1798C7.90002 18.4178 8.09255 17.6683 8.45844 16.9998C8.7977 16.3915 9.27324 15.8701 9.84777 15.4764C10.4223 15.0827 11.0802 14.8274 11.7699 14.7305C12.4597 14.6336 13.1624 14.6978 13.8232 14.918C14.484 15.1383 15.0847 15.5085 15.5784 15.9998C15.8728 16.2999 16.1281 16.6359 16.3384 16.9998C16.7089 17.6629 16.9017 18.4103 16.8984 19.1698V20.1698C16.8998 20.2363 16.8878 20.3024 16.8633 20.3642C16.8388 20.4261 16.8021 20.4824 16.7556 20.5299C16.709 20.5773 16.6534 20.6151 16.5921 20.6408C16.5308 20.6666 16.4649 20.6798 16.3984 20.6798ZM8.89844 19.6798H15.8984V19.1798C15.8996 18.588 15.748 18.0059 15.4584 17.4898C15.2963 17.2024 15.098 16.9369 14.8684 16.6998C14.4843 16.3182 14.017 16.031 13.5031 15.8606C12.9891 15.6903 12.4427 15.6414 11.9067 15.718C11.3708 15.7946 10.8599 15.9944 10.4142 16.3019C9.96858 16.6093 9.60033 17.016 9.33844 17.4898C9.04756 18.0054 8.89592 18.5878 8.89844 19.1798V19.6798Z" fill="url(#paint0_linear_11909_41821)"/>
<path d="M23.3984 20.68H16.3984C16.2658 20.68 16.1387 20.6273 16.0449 20.5336C15.9511 20.4398 15.8984 20.3126 15.8984 20.18V19.18C15.8996 18.5882 15.748 18.0061 15.4584 17.49C15.419 17.4162 15.3984 17.3337 15.3984 17.25C15.3984 17.1663 15.419 17.0839 15.4584 17.01C15.8459 16.304 16.416 15.7152 17.1092 15.3052C17.8024 14.8953 18.5931 14.6794 19.3984 14.68C19.9898 14.6787 20.5755 14.7942 21.1221 15.0199C21.6686 15.2456 22.1652 15.577 22.5834 15.9951C23.0015 16.4132 23.3329 16.9098 23.5586 17.4564C23.7843 18.003 23.8998 18.5887 23.8984 19.18V20.18C23.8984 20.3126 23.8458 20.4398 23.752 20.5336C23.6582 20.6273 23.531 20.68 23.3984 20.68ZM16.8984 19.68H22.8984V19.18C22.8975 18.4265 22.6533 17.6933 22.2023 17.0896C21.7513 16.4859 21.1174 16.0439 20.3951 15.8294C19.6727 15.6148 18.9003 15.6391 18.1929 15.8986C17.4854 16.1582 16.8806 16.6392 16.4684 17.27C16.7508 17.8672 16.8977 18.5194 16.8984 19.18V19.68ZM8.39844 20.68H1.39844C1.26583 20.68 1.13865 20.6273 1.04488 20.5336C0.951116 20.4398 0.898438 20.3126 0.898438 20.18V19.18C0.89922 18.2906 1.16356 17.4213 1.65808 16.682C2.1526 15.9427 2.85512 15.3666 3.6769 15.0263C4.49868 14.686 5.40286 14.5969 6.27525 14.7702C7.14765 14.9435 7.94912 15.3715 8.57844 16C8.8728 16.3001 9.12815 16.6361 9.33844 17C9.37787 17.0757 9.39846 17.1597 9.39846 17.245C9.39846 17.3303 9.37787 17.4144 9.33844 17.49C9.0462 18.0014 8.8944 18.581 8.89844 19.17V20.17C8.89977 20.2365 8.88782 20.3026 8.86329 20.3644C8.83876 20.4263 8.80214 20.4826 8.75557 20.5301C8.70901 20.5776 8.65344 20.6153 8.59212 20.641C8.53079 20.6668 8.46495 20.68 8.39844 20.68ZM1.89844 19.68H7.89844V19.18C7.8982 18.5193 8.04509 17.8669 8.32844 17.27C7.91625 16.6392 7.31145 16.1582 6.60399 15.8986C5.89654 15.6391 5.12419 15.6148 4.40182 15.8294C3.67944 16.0439 3.04561 16.4859 2.59457 17.0896C2.14354 17.6933 1.89939 18.4265 1.89844 19.18V19.68ZM5.53844 8.37003C5.42083 8.36973 5.30725 8.32713 5.21844 8.25003C5.11774 8.16293 5.0551 8.03991 5.04388 7.90724C5.03267 7.77458 5.07378 7.64279 5.15844 7.54003L8.63844 3.41003C8.71681 3.31498 8.82751 3.25221 8.94931 3.23376C9.07111 3.2153 9.19543 3.24246 9.29844 3.31003L14.6184 6.87003L19.2884 2.87002C19.3383 2.82735 19.3962 2.79491 19.4586 2.77458C19.521 2.75424 19.5869 2.74641 19.6523 2.75151C19.7178 2.75662 19.7816 2.77457 19.8401 2.80434C19.8987 2.83412 19.9508 2.87512 19.9934 2.92503C20.0361 2.97493 20.0686 3.03275 20.0889 3.09518C20.1092 3.15762 20.1171 3.22345 20.1119 3.28892C20.1068 3.35438 20.0889 3.4182 20.0591 3.47673C20.0293 3.53525 19.9883 3.58735 19.9384 3.63003L14.9984 7.87003C14.9119 7.93494 14.8066 7.97003 14.6984 7.97003C14.5903 7.97003 14.485 7.93494 14.3984 7.87003L9.11844 4.39002L5.91844 8.19002C5.87243 8.24635 5.81445 8.29172 5.74873 8.32286C5.683 8.35399 5.61117 8.3701 5.53844 8.37003Z" fill="url(#paint1_linear_11909_41821)"/>
<path d="M20.4647 5.23957C20.3338 5.23959 20.2081 5.18829 20.1146 5.09667C20.0211 5.00506 19.9673 4.88043 19.9647 4.74957L19.9047 2.88957L18.0447 3.07957C17.913 3.08834 17.783 3.04673 17.6808 2.96318C17.5787 2.87962 17.5122 2.76036 17.4947 2.62957C17.4877 2.55983 17.4954 2.4894 17.5174 2.42284C17.5394 2.35628 17.5751 2.29509 17.6222 2.24322C17.6694 2.19136 17.7269 2.14999 17.7911 2.1218C17.8552 2.0936 17.9246 2.07922 17.9947 2.07957L20.3947 1.83957C20.5321 1.82861 20.6685 1.87166 20.7747 1.95957C20.8735 2.05469 20.934 2.18279 20.9447 2.31957L20.9947 4.71957C20.9974 4.78606 20.9867 4.85241 20.9634 4.91474C20.9401 4.97708 20.9046 5.03413 20.859 5.08256C20.8134 5.13099 20.7585 5.16982 20.6977 5.19678C20.6368 5.22374 20.5712 5.23829 20.5047 5.23957H20.4647Z" fill="url(#paint2_linear_11909_41821)"/>
<defs>
<linearGradient id="paint0_linear_11909_41821" x1="3.39844" y1="18.3704" x2="16.8388" y2="7.78192" gradientUnits="userSpaceOnUse">
<stop stop-color="#0575E6"/>
<stop offset="1" stop-color="#021B79"/>
</linearGradient>
<linearGradient id="paint1_linear_11909_41821" x1="0.898437" y1="16.7354" x2="21.5683" y2="4.53871" gradientUnits="userSpaceOnUse">
<stop stop-color="#0575E6"/>
<stop offset="1" stop-color="#021B79"/>
</linearGradient>
<linearGradient id="paint2_linear_11909_41821" x1="17.4922" y1="4.4912" x2="20.9585" y2="2.84923" gradientUnits="userSpaceOnUse">
<stop stop-color="#0575E6"/>
<stop offset="1" stop-color="#021B79"/>
</linearGradient>
</defs>
</svg>
