<svg xmlns="http://www.w3.org/2000/svg" enable-background="new 0 0 66 66" viewBox="0 0 66 66" id="ExpertTeam"><path fill="none" stroke="#021b79" stroke-linecap="round" stroke-linejoin="round" stroke-miterlimit="10" stroke-width="2" d="M46.4,36l-4-1.6c-3-1.2-6.2-1.8-9.5-1.8h-0.1c-3.4,0-6.8,0.7-10,1.9L19.3,36c-1.1,0.4-1.8,1.5-1.8,2.7v6.5
		c0,1.3,0.9,2.5,2.2,2.8c0.2,0.1,0.4,0.1,0.5,0.1c1.8,0.5,3.7,0.9,5.5,1.1c4.7,0.7,9.5,0.7,14.2,0c1-0.1,2-0.3,3-0.5
		c0.8-0.2,1.7-0.3,2.5-0.6c0.2-0.1,0.5-0.1,0.7-0.2c1.3-0.3,2.2-1.5,2.2-2.8v-6.5C48.3,37.6,47.6,36.5,46.4,36z" class="colorStroke000000 svgStroke"></path><path fill="none" stroke="#021b79" stroke-linecap="round" stroke-linejoin="round" stroke-miterlimit="10" stroke-width="2" d="M39.6 32.2L39.6 32.2c0-1 .6-1.9 1.4-2.2l2.8-1.1c2.5-1 5.1-1.5 7.8-1.5 0 0 .1 0 .1 0 2.5 0 5.1.5 7.4 1.4l3.2 1.2c.9.3 1.5 1.2 1.5 2.1v5.1c0 1-.7 1.9-1.7 2.2-3.8 1.1-9.2 1.5-13 1.4M26.4 32.1c-.1-.8-.7-1.4-1.4-1.7l-3.2-1.2c-2.4-.9-4.9-1.4-7.4-1.4 0 0-.1 0-.1 0-2.7 0-5.3.5-7.8 1.5l-2.8 1.1c-.9.3-1.4 1.2-1.4 2.1v5.1c0 1 .7 1.9 1.7 2.2 3.8 1 9.4 1.5 13.1 1.4" class="colorStroke000000 svgStroke"></path><line x1="43" x2="43" y1="42.1" y2="48.9" fill="none" stroke="#021b79" stroke-linecap="round" stroke-linejoin="round" stroke-miterlimit="10" stroke-width="2" class="colorStroke000000 svgStroke"></line><line x1="23.2" x2="23.2" y1="42.1" y2="48.6" fill="none" stroke="#021b79" stroke-linecap="round" stroke-linejoin="round" stroke-miterlimit="10" stroke-width="2" class="colorStroke000000 svgStroke"></line><circle cx="32.9" cy="21.3" r="5.4" fill="none" stroke="#021b79" stroke-linecap="round" stroke-linejoin="round" stroke-miterlimit="10" stroke-width="2" class="colorStroke000000 svgStroke"></circle><circle cx="51.7" cy="18.6" r="4.4" fill="none" stroke="#021b79" stroke-linecap="round" stroke-linejoin="round" stroke-miterlimit="10" stroke-width="2" class="colorStroke000000 svgStroke"></circle><circle cx="14.3" cy="18.6" r="4.4" fill="none" stroke="#021b79" stroke-linecap="round" stroke-linejoin="round" stroke-miterlimit="10" stroke-width="2" class="colorStroke000000 svgStroke"></circle><path fill="none" stroke="#021b79" stroke-linecap="round" stroke-linejoin="round" stroke-miterlimit="10" stroke-width="2" d="M45.4,48.3c0,0.1,0.1,0.2,0.1,0.3c-1.4,0.6-2.2,1.6-2.2,2.8s0.9,2.2,2.2,2.8c-0.3,1.5-0.9,2.9-1.7,4.1
		c-1.4-0.5-2.8-0.4-3.6,0.4c-0.9,0.8-0.9,2.2-0.4,3.6c-1.3,0.8-2.6,1.4-4.1,1.7c-0.6-1.3-1.7-2.2-2.8-2.2S30.6,62.7,30,64
		c-1.5-0.3-2.9-0.9-4.1-1.7c0.5-1.4,0.4-2.7-0.4-3.5c-0.8-0.8-2.2-0.9-3.6-0.4c-0.8-1.2-1.4-2.6-1.7-4.1c1.4-0.6,2.2-1.6,2.2-2.8
		s-0.9-2.2-2.2-2.8c0-0.1,0.1-0.3,0.1-0.4" class="colorStroke000000 svgStroke"></path><path fill="none" stroke="#021b79" stroke-linecap="round" stroke-linejoin="round" stroke-miterlimit="10" stroke-width="2" d="M39.9,49.4c0.2,0.6,0.3,1.3,0.3,2c0,4-3.3,7.3-7.4,7.3s-7.4-3.3-7.4-7.3c0-0.7,0.1-1.4,0.3-2.1" class="colorStroke000000 svgStroke"></path><polygon fill="none" stroke="#021b79" stroke-linecap="round" stroke-linejoin="round" stroke-miterlimit="10" stroke-width="2" points="42.8 5.5 46.8 5.8 44.1 8.8 45.1 12.7 41.4 11.1 38 13.1 38.4 9.2 35.4 6.5 39.3 5.7 40.8 2" class="colorStroke000000 svgStroke"></polygon><polygon fill="none" stroke="#021b79" stroke-linecap="round" stroke-linejoin="round" stroke-miterlimit="10" stroke-width="2" points="24.9 5.5 28.9 5.8 26.3 8.8 27.2 12.7 23.5 11.1 20.1 13.1 20.5 9.2 17.5 6.5 21.4 5.7 22.9 2" class="colorStroke000000 svgStroke"></polygon><polyline fill="none" stroke="#000" stroke-linecap="round" stroke-linejoin="round" stroke-miterlimit="10" stroke-width="2" points="32.2 32.7 29.9 40.2 32.8 43.6 35.8 40.2 33.4 32.7"></polyline></svg>