<svg xmlns="http://www.w3.org/2000/svg" enable-background="new 0 0 48 48" viewBox="0 0 48 48" id="expertise"><path d="M23.992,7.447c-1.535,0-2.779,1.244-2.779,2.779v0c0,1.535,1.244,2.779,2.779,2.779h0
		c1.535,0,2.779-1.244,2.779-2.779v0C26.771,8.692,25.527,7.447,23.992,7.447L23.992,7.447z M23.992,9.207
		c0.563,0,1.02,0.456,1.02,1.019c0,0,0,0,0,0.001c0,0.563-0.455,1.02-1.019,1.02c0,0,0,0-0.001,0
		c-0.563-0.001-1.018-0.457-1.018-1.02C22.974,9.664,23.43,9.208,23.992,9.207z M37.605,13.057c-1.535,0-2.779,1.244-2.779,2.779v0
		c0.001,1.534,1.245,2.777,2.779,2.777s2.778-1.243,2.779-2.777C40.385,14.301,39.141,13.057,37.605,13.057L37.605,13.057z
		 M10.395,13.1c-1.535,0-2.779,1.244-2.779,2.779v0c0,1.535,1.244,2.779,2.779,2.779h0c1.535,0,2.779-1.244,2.779-2.779v0
		C13.174,14.344,11.93,13.1,10.395,13.1L10.395,13.1z M24.023,14.146c-0.195-0.002-0.394,0.075-0.533,0.211l-2.053,2.01
		c-0.133,0.13-0.213,0.313-0.223,0.498c-0.01,0.2,0.063,0.403,0.201,0.549s0.334,0.232,0.535,0.234l1.129,0.012v0.002h0.031v4.305
		c0,0.488,0.393,0.879,0.881,0.879s0.881-0.391,0.881-0.879v-4.285h0.014l0.666,0.006l0.465,0.006
		c0.188,0.001,0.376-0.072,0.514-0.199S26.757,17.188,26.77,17c0,0,0-0.001,0-0.002c0.014-0.209-0.064-0.422-0.211-0.572
		l-2.012-2.057C24.41,14.229,24.219,14.148,24.023,14.146z M37.605,14.816c0.563,0.001,1.018,0.457,1.018,1.02
		c-0.001,0.562-0.456,1.017-1.018,1.018c-0.563,0-1.019-0.455-1.02-1.018C36.586,15.273,37.041,14.816,37.605,14.816L37.605,14.816z
		 M10.395,14.859c0.563,0,1.019,0.456,1.02,1.019v0.001c-0.001,0.563-0.457,1.018-1.02,1.018c-0.562-0.001-1.017-0.456-1.018-1.018
		C9.376,15.316,9.832,14.86,10.395,14.859z M31.439,18.391c-0.186-0.002-0.372,0.07-0.51,0.195
		c-0.148,0.135-0.238,0.331-0.244,0.531s0.072,0.402,0.213,0.545l0.789,0.807l-0.002,0.002l0.021,0.023l-3.041,3.043
		c-0.345,0.345-0.343,0.899,0.002,1.244s0.899,0.345,1.244,0l3.029-3.031l0.01,0.01l0.465,0.477l0.326,0.332
		c0.132,0.134,0.316,0.213,0.504,0.221s0.376-0.056,0.518-0.18c0,0,0.002-0.001,0.002-0.001c0.158-0.139,0.252-0.345,0.254-0.555
		l0.031-2.877c0.002-0.195-0.076-0.388-0.213-0.527s-0.33-0.225-0.525-0.227L31.439,18.391z M13.709,18.402
		c-0.195-0.002-0.388,0.076-0.527,0.213s-0.225,0.33-0.227,0.525l-0.031,2.873c-0.002,0.186,0.07,0.37,0.195,0.508
		c0.135,0.149,0.331,0.24,0.531,0.246s0.4-0.072,0.543-0.213L15,21.764l0.002,0.002l0.021-0.021l3.045,3.041
		c0.345,0.345,0.901,0.345,1.246,0s0.343-0.899-0.002-1.244l-3.029-3.029l0.01-0.01l0.475-0.467l0.332-0.324
		c0.134-0.132,0.215-0.316,0.223-0.504s-0.056-0.376-0.18-0.518c0,0-0.001-0.001-0.001-0.001c-0.139-0.158-0.345-0.252-0.555-0.254
		L13.709,18.402z M23.955,25.193c-2.227,0.022-4.031,1.846-4.031,4.072c0,0.797,0.263,1.557,0.699,2.219
		c-1.403,1.035-2.33,2.682-2.33,4.561v1.219v0.459v0.641c0,1.203,0.986,2.189,2.189,2.189h7.02c1.203,0,2.189-0.986,2.189-2.189
		v-0.641v-0.459v-1.219c0-1.88-0.934-3.525-2.336-4.561c0.437-0.661,0.707-1.421,0.707-2.219c0-2.24-1.805-4.072-4.072-4.072
		C23.977,25.193,23.969,25.193,23.955,25.193z M4.779,26.676C3.245,26.676,2,27.92,2,29.455l0,0c0,1.535,1.244,2.779,2.779,2.779h0
		c1.535,0,2.779-1.244,2.779-2.779l0,0C7.559,27.92,6.314,26.676,4.779,26.676L4.779,26.676z M43.221,26.676
		c-1.535,0-2.779,1.244-2.779,2.779l0,0c0,1.535,1.244,2.779,2.779,2.779l0,0c1.535,0,2.779-1.244,2.779-2.779l0,0
		C46,27.92,44.756,26.676,43.221,26.676L43.221,26.676z M11.531,26.682c-0.209-0.014-0.422,0.066-0.572,0.213l-2.057,2.012
		c-0.139,0.137-0.221,0.328-0.223,0.523s0.075,0.392,0.211,0.531l2.01,2.055c0.13,0.133,0.311,0.213,0.496,0.223
		c0.2,0.01,0.403-0.065,0.549-0.203s0.232-0.334,0.234-0.535l0.012-1.129h0.004V30.34h4.303c0.488,0,0.881-0.393,0.881-0.881
		s-0.393-0.879-0.881-0.879h-4.283v-0.016l0.006-0.666l0.006-0.465c0.001-0.188-0.072-0.374-0.199-0.512s-0.307-0.228-0.494-0.24
		C11.533,26.682,11.532,26.682,11.531,26.682z M36.451,26.682c-0.188,0.013-0.367,0.103-0.494,0.24s-0.199,0.324-0.197,0.512
		l0.004,0.465l0.008,0.666v0.016h-4.285c-0.488,0-0.881,0.391-0.881,0.879s0.393,0.881,0.881,0.881h4.305v0.031h0.002l0.012,1.129
		c0.002,0.201,0.088,0.397,0.234,0.535s0.349,0.213,0.549,0.203c0.186-0.01,0.368-0.09,0.498-0.223l2.008-2.055
		c0.137-0.14,0.213-0.336,0.211-0.531s-0.084-0.387-0.223-0.523l-2.057-2.012c-0.15-0.146-0.363-0.227-0.572-0.213H36.451z
		 M23.99,26.965c1.273,0,2.301,1.027,2.301,2.301s-1.027,2.295-2.301,2.295c-1.274,0-2.295-1.021-2.295-2.295
		S22.717,26.965,23.99,26.965z M4.779,28.438c0.562,0.001,1.017,0.456,1.018,1.018c0,0.563-0.455,1.019-1.018,1.02
		c-0.563,0-1.019-0.455-1.02-1.019v-0.001C3.761,28.893,4.217,28.438,4.779,28.438z M43.221,28.438c0.563,0,1.019,0.455,1.02,1.018
		c0,0.563-0.455,1.02-1.019,1.02h-0.001c-0.563-0.001-1.018-0.457-1.018-1.02C42.204,28.894,42.659,28.438,43.221,28.438z
		 M21.9,32.727c0.633,0.382,1.348,0.605,2.09,0.605c0.742,0,1.455-0.224,2.088-0.605c1.105,0.689,1.842,1.897,1.842,3.318v1.219
		v0.459v0.641c0,0.267-0.152,0.418-0.418,0.418h-7.02c-0.266,0-0.418-0.151-0.418-0.418v-0.641v-0.459v-1.219
		C20.064,34.623,20.796,33.416,21.9,32.727z" fill="#021b79" class="color000000 svgShape"></path></svg>