<svg width="60" height="60" viewBox="0 0 60 60" fill="none" xmlns="http://www.w3.org/2000/svg">
<g clip-path="url(#clip0_11909_41728)">
<path d="M59.868 38.5L56.723 33H59C59.2652 33 59.5196 32.8946 59.7071 32.7071C59.8946 32.5196 60 32.2652 60 32C60 31.7348 59.8946 31.4804 59.7071 31.2929C59.5196 31.1054 59.2652 31 59 31H47.858C47.6397 30.1424 47.1419 29.382 46.4433 28.8389C45.7446 28.2958 44.8849 28.0009 44 28.0009C43.1151 28.0009 42.2554 28.2958 41.5567 28.8389C40.8581 29.382 40.3603 30.1424 40.142 31H29C28.7348 31 28.4804 31.1054 28.2929 31.2929C28.1054 31.4804 28 31.7348 28 32C28 32.2652 28.1054 32.5196 28.2929 32.7071C28.4804 32.8946 28.7348 33 29 33H31.277L28.132 38.5L28.145 38.508C28.0534 38.656 28.0034 38.826 28 39V40C28 40.028 28.008 40.054 28.008 40.082C27.6744 40.0307 27.3375 40.0033 27 40H25.333L22 37.5V34.634C23.3918 33.8308 24.5725 32.7078 25.4443 31.3579C26.3162 30.008 26.8543 28.47 27.014 26.871C27.5883 26.7226 28.1222 26.4477 28.5766 26.0666C29.0311 25.6854 29.3947 25.2076 29.6409 24.668C29.8871 24.1283 30.0097 23.5405 29.9997 22.9474C29.9897 22.3544 29.8473 21.771 29.583 21.24C30.3236 18.3932 30.0727 15.379 28.8716 12.6938C27.6705 10.0086 25.5908 7.81247 22.975 6.467C22.988 6.311 23 6.156 23 6C23 4.4087 22.3679 2.88258 21.2426 1.75736C20.1174 0.632141 18.5913 0 17 0C15.4087 0 13.8826 0.632141 12.7574 1.75736C11.6321 2.88258 11 4.4087 11 6C11 6.156 11.012 6.311 11.025 6.467C8.40916 7.81247 6.32947 10.0086 5.12838 12.6938C3.92728 15.379 3.67638 18.3932 4.417 21.24C4.14544 21.7871 4.0028 22.3892 4 23C3.99705 23.8896 4.2956 24.7539 4.84696 25.452C5.39832 26.1501 6.16995 26.6408 7.036 26.844C7.17807 28.445 7.70326 29.9883 8.56723 31.3436C9.43121 32.6989 10.6086 33.8264 12 34.631V37.5L8.667 40H7C5.14422 40.0024 3.36512 40.7406 2.05288 42.0529C0.740644 43.3651 0.00238142 45.1442 0 47L0 56C0 57.0609 0.421427 58.0783 1.17157 58.8284C1.92172 59.5786 2.93913 60 4 60H30C31.0609 60 32.0783 59.5786 32.8284 58.8284C33.5786 58.0783 34 57.0609 34 56V47C34.0003 45.9619 33.7683 44.9368 33.321 44H34C35.0609 44 36.0783 43.5786 36.8284 42.8284C37.5786 42.0783 38 41.0609 38 40V39C37.9959 38.8273 37.9459 38.6589 37.855 38.512L37.868 38.504L34.723 33H40.142C40.298 33.5988 40.5918 34.1529 41 34.618V50.142C40.1439 50.363 39.3851 50.8615 38.8423 51.5596C38.2995 52.2576 38.0033 53.1158 38 54V54.184C37.4171 54.3901 36.9121 54.7712 36.5541 55.2753C36.1961 55.7794 36.0026 56.3817 36 57V58C36 58.5304 36.2107 59.0391 36.5858 59.4142C36.9609 59.7893 37.4696 60 38 60H50C50.5304 60 51.0391 59.7893 51.4142 59.4142C51.7893 59.0391 52 58.5304 52 58V57C51.9974 56.3817 51.8039 55.7794 51.4459 55.2753C51.0879 54.7712 50.5829 54.3901 50 54.184V54C49.9967 53.1158 49.7005 52.2576 49.1577 51.5596C48.6149 50.8615 47.8561 50.363 47 50.142V34.618C47.4082 34.1529 47.702 33.5988 47.858 33H53.277L50.132 38.5L50.145 38.508C50.0534 38.656 50.0034 38.826 50 39V40C50 41.0609 50.4214 42.0783 51.1716 42.8284C51.9217 43.5786 52.9391 44 54 44H56C57.0609 44 58.0783 43.5786 58.8284 42.8284C59.5786 42.0783 60 41.0609 60 40V39C59.9959 38.8273 59.9459 38.6589 59.855 38.512L59.868 38.5ZM33 34.016L35.277 38H30.723L33 34.016ZM19.437 58C22.7091 54.2445 24.8547 49.6417 25.627 44.721L28.021 49.872L22.12 58H19.437ZM11.88 58L6 49.918L8.379 44.746C9.15418 49.6572 11.2974 54.2507 14.563 58H11.88ZM18 43.528L19.864 45.517C20.012 45.6707 20.1897 45.7928 20.3862 45.8758C20.5828 45.9588 20.7942 46.001 21.0076 45.9999C21.2209 45.9987 21.4319 45.9543 21.6276 45.8692C21.8232 45.7842 21.9996 45.6603 22.146 45.505L23.732 43.813C23.0806 48.535 21.0916 52.9719 18 56.6V43.528ZM16 56.6C12.9142 52.9698 10.9272 48.5352 10.272 43.816L11.864 45.516C12.012 45.6697 12.1897 45.7918 12.3862 45.8748C12.5828 45.9578 12.7942 46 13.0076 45.9989C13.2209 45.9977 13.4319 45.9533 13.6276 45.8682C13.8232 45.7832 13.9996 45.6593 14.146 45.504L16 43.528V56.6ZM21 43.8L18.493 41.13L21 39.25L23.507 41.13L21 43.8ZM17 2C17.9925 2.00296 18.9484 2.37566 19.6809 3.04536C20.4135 3.71506 20.8702 4.6337 20.962 5.622C18.3858 4.7927 15.6142 4.7927 13.038 5.622C13.1298 4.6337 13.5865 3.71506 14.3191 3.04536C15.0516 2.37566 16.0075 2.00296 17 2ZM17 7C19.9163 7.00344 22.7122 8.16347 24.7744 10.2256C26.8365 12.2878 27.9966 15.0837 28 18C27.998 18.4965 27.9629 18.9922 27.895 19.484C27.585 19.3085 27.2536 19.1741 26.909 19.084C26.382 16.561 23.795 15.984 21.717 15.524C19.639 15.064 18.356 14.7 18.069 13.6C17.96 13.1313 17.6873 12.7168 17.2999 12.4312C16.9126 12.1456 16.436 12.0076 15.956 12.042C11.069 12.398 7.49 15.254 7.007 19.128C6.69315 19.2123 6.39087 19.3348 6.107 19.493C5.88844 17.9364 6.00701 16.351 6.45467 14.8443C6.90233 13.3375 7.66862 11.9446 8.70162 10.7599C9.73463 9.57513 11.0102 8.62627 12.442 7.97757C13.8737 7.32886 15.4282 6.99548 17 7ZM9.028 26.676C8.98626 26.2613 8.81536 25.8702 8.53941 25.5578C8.26346 25.2454 7.89639 25.0276 7.49 24.935C7.06096 24.8231 6.68129 24.5717 6.41066 24.2205C6.14004 23.8692 5.9938 23.438 5.99495 22.9946C5.99609 22.5512 6.14455 22.1208 6.41699 21.7709C6.68942 21.4211 7.07039 21.1717 7.5 21.062C7.89801 20.9704 8.25845 20.7592 8.53286 20.4567C8.80727 20.1543 8.9825 19.775 9.035 19.37C9.371 16.416 12.144 14.321 16.095 14.03C16.1152 14.0485 16.1289 14.0731 16.134 14.1C16.749 16.468 19.157 17 21.282 17.476C23.407 17.952 24.706 18.317 24.951 19.491C25.0292 19.8704 25.2144 20.2194 25.4846 20.4969C25.7548 20.7744 26.0988 20.9688 26.476 21.057C26.9085 21.1624 27.2935 21.409 27.57 21.7579C27.8466 22.1068 27.9988 22.538 28.0025 22.9832C28.0063 23.4283 27.8615 23.862 27.591 24.2156C27.3204 24.5691 26.9397 24.8223 26.509 24.935C26.1027 25.028 25.7358 25.2461 25.4601 25.5586C25.1843 25.8711 25.0136 26.2623 24.972 26.677C24.8043 28.6759 23.8918 30.5389 22.4153 31.8968C20.9387 33.2547 19.006 34.0083 17 34.0083C14.994 34.0083 13.0613 33.2547 11.5847 31.8968C10.1082 30.5389 9.19568 28.6749 9.028 26.676ZM17 36C18.0185 35.9978 19.0306 35.8376 20 35.525V37.5L17 39.75L14 37.5V35.525C14.9694 35.8376 15.9814 35.9979 17 36ZM13 39.25L15.507 41.13L13 43.8L10.493 41.13L13 39.25ZM2 56V47C2.00159 45.6744 2.52888 44.4036 3.46622 43.4662C4.40356 42.5289 5.6744 42.0016 7 42H7.44L4.179 49.089C4.03895 49.4037 3.98204 49.7491 4.01373 50.0921C4.04543 50.4351 4.16465 50.7643 4.36 51.048L9.408 58H4C3.46957 58 2.96086 57.7893 2.58579 57.4142C2.21071 57.0391 2 56.5304 2 56ZM32 56C32 56.5304 31.7893 57.0391 31.4142 57.4142C31.0391 57.7893 30.5304 58 30 58H24.592L29.667 51.007C29.8532 50.7252 29.9648 50.4007 29.9912 50.064C30.0176 49.7273 29.958 49.3894 29.818 49.082L26.56 42H27C27.6073 42.0063 28.2084 42.1229 28.774 42.344C29.2812 43.0359 29.9975 43.5463 30.817 43.8C31.5806 44.6913 32.0002 45.8263 32 47V56ZM34 42H32C31.4696 42 30.9609 41.7893 30.5858 41.4142C30.2107 41.0391 30 40.5304 30 40H36C36 40.5304 35.7893 41.0391 35.4142 41.4142C35.0391 41.7893 34.5304 42 34 42ZM43 35.858C43.6532 36.0473 44.3468 36.0473 45 35.858V50H43V35.858ZM44 30C44.3956 30 44.7822 30.1173 45.1111 30.3371C45.44 30.5568 45.6964 30.8692 45.8478 31.2346C45.9991 31.6001 46.0387 32.0022 45.9616 32.3902C45.8844 32.7781 45.6939 33.1345 45.4142 33.4142C45.1345 33.6939 44.7781 33.8844 44.3902 33.9616C44.0022 34.0387 43.6001 33.9991 43.2346 33.8478C42.8692 33.6964 42.5568 33.44 42.3371 33.1111C42.1173 32.7822 42 32.3956 42 32C42 31.4696 42.2107 30.9609 42.5858 30.5858C42.9609 30.2107 43.4696 30 44 30ZM38 58V57C38 56.7348 38.1054 56.4804 38.2929 56.2929C38.4804 56.1054 38.7348 56 39 56H49C49.2652 56 49.5196 56.1054 49.7071 56.2929C49.8946 56.4804 50 56.7348 50 57V58H38ZM48 54H40C40 53.4696 40.2107 52.9609 40.5858 52.5858C40.9609 52.2107 41.4696 52 42 52H46C46.5304 52 47.0391 52.2107 47.4142 52.5858C47.7893 52.9609 48 53.4696 48 54ZM57.277 38H52.723L55 34.016L57.277 38ZM56 42H54C53.4696 42 52.9609 41.7893 52.5858 41.4142C52.2107 41.0391 52 40.5304 52 40H58C58 40.5304 57.7893 41.0391 57.4142 41.4142C57.0391 41.7893 56.5304 42 56 42Z" fill="url(#paint0_linear_11909_41728)"/>
</g>
<defs>
<linearGradient id="paint0_linear_11909_41728" x1="-3.6335e-07" y1="46.8" x2="60" y2="19.2" gradientUnits="userSpaceOnUse">
<stop stop-color="#0575E6"/>
<stop offset="1" stop-color="#021B79"/>
</linearGradient>
<clipPath id="clip0_11909_41728">
<rect width="60" height="60" fill="white"/>
</clipPath>
</defs>
</svg>
