<svg width="320" height="200" viewBox="0 0 320 200" fill="none" xmlns="http://www.w3.org/2000/svg">
<g filter="url(#filter0_d_12085_132274)">
<rect x="10" y="5" width="300" height="180" rx="16" fill="url(#paint0_linear_12085_132274)"/>
<path d="M220 95C220 96.5652 219.934 98.1957 219.804 99.6957C217.521 128.848 194.435 152.13 165.413 154.739C163.652 154.87 161.826 155 160 155C126.869 155 100 128.13 100 95C100 61.8696 126.869 35 160 35C193.13 35 220 61.8043 220 95Z" fill="white" stroke="#0071BC" stroke-width="0.5" stroke-miterlimit="10"/>
<path opacity="0.05" d="M220 94.8695C220 96.4347 219.935 98.0652 219.804 99.5652C217.587 128 195.544 150.891 167.5 154.348L141.805 130.935C141.805 130.935 163.261 113.652 170.239 100.478C172.326 96.4999 173.761 92.1956 175.131 87.8912C175.457 86.913 175.718 85.9347 176.109 85.0217C176.174 84.7608 176.957 82.9999 176.826 83.1956C177.674 81.4999 178.522 79.7391 179.5 78.1086C183.087 72.0434 197.891 66.6304 197.891 66.6304L219.348 86.1956C219.739 89.1304 220 91.9999 220 94.8695Z" fill="black"/>
<path d="M125.963 107.522C125.963 107.522 126.028 107.848 126.223 108.37C126.419 109.087 127.267 111.565 128.702 114.565C131.506 120.435 137.05 127.478 143.832 132.5C152.245 138.761 159.419 140.848 160.984 141.304C162.81 140.783 170.049 138.5 178.136 132.5C184.919 127.478 190.462 120.435 193.267 114.565C194.702 111.565 195.549 109.022 195.745 108.37C195.941 107.848 196.006 107.522 196.006 107.522C196.006 107.522 196.919 106.087 197.571 105.174C198.223 104.196 201.615 98.9131 201.615 98.9131C201.615 98.9131 201.615 98.6523 201.615 97.8697V83.7827C201.615 83.3914 201.615 83.0653 201.615 83.0653H197.962V66.8262C197.962 66.8262 161.506 55.4132 161.31 55.3479C161.115 55.2827 161.115 55.2827 161.049 55.2827C160.984 55.2827 160.984 55.2827 160.789 55.3479C160.593 55.4132 124.137 66.8262 124.137 66.8262V83.0653H120.484C120.484 83.0653 120.484 83.3914 120.484 83.7827V97.8697C120.484 98.7175 120.484 98.9131 120.484 98.9131C120.484 98.9131 123.941 104.196 124.528 105.174C124.984 106.152 125.963 107.522 125.963 107.522Z" fill="url(#paint1_linear_12085_132274)"/>
<path d="M160.65 140C158.498 139.348 151.976 137 144.672 131.717C138.085 126.891 132.476 119.848 129.802 114.174C128.433 111.239 127.52 108.761 127.324 108.043C127.194 107.522 126.215 103.869 126.215 103.869C126.215 103.869 125.172 83.2607 125.172 82.9346C125.172 80.7172 125.172 70.7389 125.172 67.5433C127.585 66.8259 157.454 57.4998 160.454 56.5216L160.715 56.4563C160.911 56.3911 160.911 56.3911 160.976 56.3911C161.041 56.3911 161.041 56.3911 161.237 56.4563C161.433 56.5216 194.237 66.7607 196.78 67.5433C196.78 70.7389 196.78 80.7172 196.78 82.9346C196.78 83.1955 195.737 103.869 195.737 103.869C195.737 103.869 194.759 107.587 194.628 108.043C194.433 108.695 193.52 111.239 192.15 114.174C189.476 119.848 183.867 126.956 177.28 131.717C169.65 137.261 162.802 139.543 161.041 140.065L160.65 140Z" fill="#0D173F"/>
<path d="M160.716 135.956C158.825 135.369 153.151 133.152 146.695 128.391C140.825 124.087 135.608 117.761 133.195 112.608C131.955 109.935 131.173 107.717 130.977 107.065C130.847 106.608 129.999 103.282 129.999 103.282C129.999 103.282 129.086 84.6302 129.086 84.3694C129.086 82.4128 129.086 73.3476 129.086 70.478C131.238 69.8259 157.847 61.3476 160.521 60.565L160.716 60.4998C160.912 60.4346 160.912 60.4346 160.912 60.4346C160.977 60.4346 160.977 60.4346 161.108 60.4998C161.238 60.565 190.521 69.8259 192.803 70.478C192.803 73.3476 192.803 82.4128 192.803 84.3694C192.803 84.6302 191.825 103.282 191.825 103.282C191.825 103.282 190.912 106.674 190.781 107.13C190.586 107.717 189.803 110 188.564 112.674C186.151 117.826 180.999 124.087 175.129 128.456C168.347 133.478 162.542 135.565 160.977 136.022L160.716 135.956Z" fill="white"/>
<path d="M147.216 127.022C141.673 122.848 136.912 116.913 134.629 112.022C133.977 110.587 133.064 108.63 132.412 106.543C131.956 104.978 131.564 103.022 131.564 103.022C131.564 103.022 130.586 85.2824 130.586 85.0867C130.586 83.1954 130.586 74.2607 130.586 71.4563C132.608 70.8041 158.042 62.9128 160.586 62.065L160.782 61.9998C160.912 61.9346 160.977 61.9346 160.977 61.9346C161.042 61.9346 161.042 61.9346 161.173 61.9998C161.303 62.065 189.151 70.7389 191.303 71.4563C191.303 74.1954 191.303 83.1302 191.303 85.0215C191.303 85.2824 190.39 103.022 190.39 103.022C190.39 103.022 189.999 104.717 189.608 105.956C188.76 108.565 187.39 112.087 185.825 114.63C182.564 119.913 177.999 124.348 174.738 126.761C168.347 131.587 162.282 133.869 160.977 134.326C159.542 134.065 153.347 131.587 147.216 127.022Z" fill="#0D173F"/>
<path d="M190.39 105.239H131.825L131.499 103.804L130.391 82.8695V81.6304H191.825V82.9347L190.717 103.87C190.717 103.87 190.521 104.913 190.39 105.239Z" fill="white"/>
<path d="M195.938 107.522C195.938 107.522 196.851 106.087 197.504 105.174C198.156 104.196 201.547 98.9131 201.547 98.9131H120.352C120.352 98.9131 123.808 104.196 124.395 105.174C125.047 106.152 125.96 107.522 125.96 107.522L126.221 103.739H195.677L195.938 107.522Z" fill="url(#paint2_linear_12085_132274)"/>
<path d="M120.352 98.9132C120.352 98.9132 120.352 98.6524 120.352 97.8698C120.352 97.0872 120.352 84.1741 120.352 83.7828C120.352 83.3915 120.352 83.0654 120.352 83.0654H124.004H197.895H201.547C201.547 83.0654 201.547 83.3915 201.547 83.7828C201.547 84.1741 201.547 97.0872 201.547 97.8698C201.547 98.6524 201.547 98.9132 201.547 98.9132H120.352Z" fill="url(#paint3_linear_12085_132274)"/>
<path d="M175.331 114.5C175.331 114.5 178.07 114.565 180.288 115.283C180.288 115.283 175.918 120.957 173.244 126.565C173.244 126.565 166.722 126.696 161.57 128.457C161.57 128.457 165.157 125.065 171.549 122.587C171.483 122.652 172.396 116.261 175.331 114.5Z" fill="url(#paint4_linear_12085_132274)"/>
<path d="M171.549 111.631C171.549 111.631 174.157 110.978 176.635 111.239C176.635 111.239 173.309 118.935 172.462 123.826C172.462 123.826 165.353 125.783 161.57 128.457C161.57 128.457 164.636 123.305 170.44 121.152C170.375 121.152 169.983 116.848 171.549 111.631Z" fill="url(#paint5_linear_12085_132274)"/>
<path d="M165.087 116.13C165.087 116.196 165.087 116.196 165.087 116.13ZM165.283 116.13C165.217 116.13 165.152 116.196 165.087 116.196C165.087 116.587 165.152 119.065 165.217 121.413C166.522 121.413 166.978 121.609 166.978 121.609L165.283 116.13ZM172.196 108.174C165.217 109.413 161.565 114.304 161.565 114.304C161.565 114.369 161.565 114.5 161.565 114.565C161.565 114.63 161.565 114.696 161.565 114.826C161.565 114.891 161.63 114.956 161.63 115.087C161.63 115.152 161.565 115.283 161.5 115.413C161.5 115.478 161.5 115.609 161.5 115.674C161.565 115.674 161.696 115.674 161.761 115.609C161.891 115.543 162.348 115.543 162.543 115.674C162.739 115.739 163.065 116.13 163.457 116.065C163.848 116.065 163.978 116 164.174 115.804C164.37 115.674 164.5 115.413 164.63 115.413C164.761 115.413 164.761 115.543 164.891 115.543C164.957 115.543 165.022 115.348 165.217 115.348C165.413 115.348 165.609 115.543 165.609 115.739C165.609 115.935 165.543 116 165.413 116.13C165.413 116.196 165.478 116.326 165.674 116.717C166.065 117.826 166.717 119.783 166.913 120.304C167.109 120.956 167.435 121.609 167.435 121.804C167.435 122 167.37 122.456 166.848 122.848C166.261 123.239 165.283 123.304 165.283 123.304C164.826 123.304 164.239 123.239 163.717 122.848C163.13 122.456 163.13 122 163.13 121.804C163.13 121.609 163.391 120.956 163.652 120.304C163.848 119.783 164.5 117.826 164.891 116.717C165.087 116.261 165.152 116.13 165.152 116.13L163.391 121.609C163.391 121.609 163.913 121.413 165.152 121.413C165.217 119.13 165.283 116.652 165.283 116.196C165.022 116.196 165.022 115.935 164.826 115.935C164.435 115.935 164.304 116.587 163.717 116.652C163.457 116.652 162.935 116.391 162.609 116.391C162.217 116.391 161.957 116.652 161.957 117.174C161.957 117.696 162.283 117.891 162.87 117.761C162.543 118.543 161.957 119.913 161.761 121.283C161.696 122.065 161.565 122.783 161.565 123.109C161.565 123.435 161.696 123.5 161.761 123.696C161.891 123.891 161.891 124.348 161.826 124.609C161.761 124.869 161.63 125.13 162.087 125.326C162.543 125.522 162.804 125.587 163.391 125.978C163.391 125.978 163.848 125.587 164.696 125.13C165.283 124.804 166 124.413 166.913 124.217C167.891 123.565 168.739 122.978 169.457 122.587C170.565 121.935 171.283 121.543 171.283 121.543C170.826 116.391 172.196 108.174 172.196 108.174Z" fill="url(#paint6_linear_12085_132274)"/>
<path d="M146.636 114.5C146.636 114.5 143.897 114.565 141.68 115.283C141.68 115.283 146.049 120.957 148.723 126.565C148.723 126.565 155.245 126.696 160.397 128.457C160.397 128.457 156.81 125.065 150.419 122.587C150.419 122.652 149.506 116.261 146.636 114.5Z" fill="url(#paint7_linear_12085_132274)"/>
<path d="M150.353 111.631C150.353 111.631 147.744 110.978 145.266 111.239C145.266 111.239 148.592 118.935 149.44 123.826C149.44 123.826 156.548 125.783 160.331 128.457C160.331 128.457 157.266 123.305 151.461 121.152C151.526 121.152 151.983 116.848 150.353 111.631Z" fill="url(#paint8_linear_12085_132274)"/>
<path d="M165.09 116.196C165.09 116.587 165.155 119.065 165.22 121.413C166.524 121.413 166.981 121.609 166.981 121.609L165.285 116.13C165.22 116.13 165.155 116.196 165.09 116.196ZM161.633 123.696C161.764 123.891 161.764 124.348 161.698 124.609C161.633 124.869 161.503 125.13 161.959 125.326C162.22 125.456 163.003 126.174 163.003 126.174C163.003 126.174 162.481 126.174 162.024 126.239C161.698 126.304 161.438 126.565 161.438 126.956C161.438 127.609 161.503 128.587 161.503 128.587C161.503 128.587 165.22 125.196 166.655 124.282C167.568 123.63 168.481 123.043 169.198 122.652C170.307 122 171.024 121.609 171.024 121.609C170.829 116.587 172.133 108.304 172.133 108.304C165.155 109.543 161.503 114.435 161.503 114.435C161.503 114.5 161.503 114.63 161.503 114.696C161.503 114.761 161.503 114.826 161.503 114.956C161.503 115.022 161.568 115.087 161.568 115.217C161.568 115.282 161.503 115.413 161.438 115.543C161.438 115.609 161.438 115.739 161.438 115.804C161.503 115.804 161.633 115.804 161.698 115.739C161.829 115.674 162.285 115.674 162.481 115.804C162.677 115.869 163.003 116.261 163.394 116.196C163.785 116.196 163.916 116.13 164.111 115.935C164.307 115.804 164.437 115.543 164.568 115.543C164.698 115.543 164.698 115.674 164.829 115.674C164.894 115.674 164.959 115.478 165.155 115.478C165.351 115.478 165.546 115.674 165.546 115.869C165.546 116.065 165.481 116.13 165.351 116.261C165.351 116.326 165.416 116.456 165.611 116.848C166.003 117.956 166.655 119.913 166.851 120.435C167.046 121.087 167.372 121.739 167.372 121.935C167.372 122.13 167.307 122.587 166.785 122.978C166.198 123.369 165.22 123.435 165.22 123.435C164.764 123.435 164.177 123.369 163.655 122.978C163.068 122.587 163.068 122.13 163.068 121.935C163.068 121.739 163.329 121.087 163.59 120.435C163.785 119.913 164.437 117.956 164.829 116.848C165.024 116.391 165.09 116.261 165.09 116.261L163.329 121.739C163.329 121.739 163.851 121.543 165.09 121.543C165.155 119.261 165.22 116.782 165.22 116.326C164.959 116.326 164.959 116.065 164.764 116.065C164.372 116.065 164.242 116.717 163.655 116.782C163.394 116.782 162.872 116.522 162.546 116.522C162.155 116.522 161.894 116.782 161.894 117.304C161.894 117.826 162.22 118.022 162.807 117.891C162.481 118.674 161.894 120.043 161.698 121.413C161.633 122.196 161.503 122.913 161.503 123.239C161.437 123.435 161.503 123.5 161.633 123.696Z" fill="url(#paint9_linear_12085_132274)"/>
<path d="M156.608 116.13L154.912 121.609C154.912 121.609 155.434 121.413 156.673 121.413C156.738 119.13 156.804 116.652 156.804 116.196C156.738 116.196 156.673 116.13 156.608 116.13ZM156.804 116.13C156.804 116.196 156.804 116.196 156.804 116.13ZM160.521 123.109C160.521 122.783 160.456 122.065 160.325 121.283C160.13 119.913 159.543 118.609 159.217 117.761C159.869 117.891 160.13 117.696 160.13 117.174C160.13 116.652 159.869 116.391 159.478 116.391C159.086 116.391 158.565 116.652 158.369 116.652C157.782 116.587 157.651 115.935 157.26 115.935C157.065 115.935 157.065 116.196 156.804 116.196C156.804 116.587 156.869 119.065 156.934 121.413C158.238 121.413 158.695 121.609 158.695 121.609L156.934 116.13C156.934 116.13 156.999 116.261 157.195 116.717C157.586 117.826 158.238 119.783 158.434 120.304C158.63 120.956 158.956 121.609 158.956 121.804C158.956 122 158.891 122.456 158.369 122.848C157.782 123.239 157.26 123.304 156.804 123.304C156.804 123.304 155.76 123.239 155.238 122.848C154.651 122.456 154.651 122 154.651 121.804C154.651 121.609 154.912 120.956 155.173 120.304C155.369 119.783 156.021 117.826 156.412 116.717C156.543 116.326 156.608 116.196 156.673 116.13C156.543 116.065 156.478 115.935 156.478 115.739C156.478 115.478 156.673 115.283 156.869 115.348C157.065 115.348 157.13 115.543 157.195 115.543C157.26 115.543 157.325 115.413 157.456 115.413C157.586 115.413 157.717 115.674 157.912 115.804C158.108 115.935 158.238 116 158.63 116.065C159.021 116.065 159.347 115.739 159.543 115.674C159.738 115.609 160.195 115.609 160.325 115.609C160.391 115.609 160.456 115.609 160.586 115.674C160.586 115.609 160.586 115.478 160.586 115.413C160.521 115.283 160.456 115.217 160.456 115.087C160.456 115.022 160.456 114.891 160.521 114.826C160.521 114.761 160.521 114.696 160.521 114.565C160.521 114.5 160.521 114.369 160.521 114.304C160.521 114.304 156.869 109.413 149.891 108.174C149.891 108.174 151.195 116.391 150.999 121.478C150.999 121.478 151.717 121.869 152.825 122.522C153.543 122.978 154.391 123.5 155.369 124.152C156.804 125.13 160.521 128.456 160.521 128.456C160.521 128.456 160.586 127.543 160.586 126.826C160.586 126.5 160.391 126.174 159.999 126.109C159.543 126.043 159.021 126.043 159.021 126.043C159.021 126.043 159.804 125.326 160.065 125.196C160.521 125 160.391 124.804 160.325 124.478C160.26 124.217 160.26 123.761 160.391 123.565C160.391 123.5 160.521 123.435 160.521 123.109Z" fill="url(#paint10_linear_12085_132274)"/>
<path d="M123.742 87.3696H124.916V94.8696H123.742V87.3696Z" fill="black"/>
<path d="M126.801 89.4566V94.8696H125.758V87.3696H127.258L128.497 91.8696V87.3696H129.54V94.8696H128.301L126.801 89.4566Z" fill="black"/>
<path d="M130.391 87.3696H132.282C132.869 87.3696 133.325 87.5001 133.586 87.8262C133.847 88.1522 134.043 88.6088 134.043 89.1957V92.9783C134.043 93.5653 133.912 94.0218 133.586 94.3479C133.325 94.674 132.869 94.8044 132.282 94.8044H130.391V87.3696ZM131.565 88.4131V93.7609H132.217C132.412 93.7609 132.543 93.6957 132.673 93.6305C132.804 93.5001 132.804 93.3044 132.804 93.0436V89.1305C132.804 88.8696 132.738 88.674 132.673 88.5436C132.543 88.4131 132.412 88.4131 132.217 88.4131H131.565Z" fill="black"/>
<path d="M134.766 87.3696H135.94V94.8696H134.766V87.3696Z" fill="black"/>
<path d="M140.632 94.8696H139.458L139.263 93.5001H137.828L137.632 94.8696H136.523L137.697 87.3696H139.393L140.632 94.8696ZM137.893 92.5218H139.002L138.415 88.7392L137.893 92.5218Z" fill="black"/>
<path d="M142.2 89.4566V94.8696H141.156V87.3696H142.656L143.895 91.8696V87.3696H144.939V94.8696H143.7L142.2 89.4566Z" fill="black"/>
<path d="M147.281 89.1957C147.281 88.6088 147.412 88.1522 147.738 87.8262C147.999 87.5001 148.455 87.3696 149.042 87.3696C149.629 87.3696 150.086 87.5001 150.346 87.8262C150.607 88.1522 150.803 88.6088 150.803 89.1957V89.4566H149.694V89.1305C149.694 88.8696 149.629 88.674 149.564 88.5436C149.499 88.4131 149.303 88.3479 149.107 88.3479C148.912 88.3479 148.781 88.4131 148.651 88.5436C148.52 88.674 148.52 88.8696 148.52 89.1305C148.52 89.3914 148.586 89.587 148.716 89.7827C148.846 89.9783 148.977 90.174 149.173 90.3696C149.368 90.5653 149.499 90.6957 149.694 90.8914C149.89 91.087 150.086 91.2827 150.216 91.4783C150.346 91.674 150.542 91.9349 150.673 92.1957C150.803 92.4566 150.868 92.7827 150.868 93.1088C150.868 93.6957 150.738 94.1523 150.412 94.4783C150.086 94.8044 149.694 94.9348 149.107 94.9348C148.52 94.9348 148.064 94.8044 147.803 94.4783C147.477 94.1523 147.346 93.6957 147.346 93.1088V92.6522H148.455V93.174C148.455 93.4349 148.52 93.6305 148.651 93.7609C148.781 93.8914 148.912 93.8914 149.107 93.8914C149.303 93.8914 149.433 93.8262 149.564 93.7609C149.694 93.6305 149.76 93.4349 149.76 93.174C149.76 92.9131 149.694 92.7175 149.564 92.5218C149.433 92.3262 149.303 92.1305 149.107 91.9348C148.912 91.7392 148.781 91.6088 148.586 91.4131C148.39 91.2175 148.194 91.0218 148.064 90.8262C147.868 90.6305 147.738 90.3696 147.607 90.1088C147.281 89.8479 147.281 89.5218 147.281 89.1957Z" fill="black"/>
<path d="M154.85 92.0651V93.0433C154.85 93.6303 154.719 94.0868 154.393 94.4129C154.067 94.739 153.676 94.8694 153.089 94.8694C152.502 94.8694 152.046 94.739 151.785 94.4129C151.459 94.0868 151.328 93.6303 151.328 93.0433V89.1303C151.328 88.5433 151.459 88.0868 151.785 87.7607C152.111 87.4346 152.502 87.3042 153.089 87.3042C153.676 87.3042 154.132 87.4346 154.393 87.7607C154.719 88.0868 154.85 88.5433 154.85 89.1303V89.8477H153.741V89.0651C153.741 88.8042 153.676 88.6085 153.546 88.4781C153.415 88.3477 153.285 88.2825 153.089 88.2825C152.893 88.2825 152.763 88.3477 152.632 88.4781C152.502 88.6085 152.437 88.8042 152.437 89.0651V93.1085C152.437 93.3694 152.502 93.5651 152.632 93.6955C152.763 93.8259 152.893 93.8259 153.089 93.8259C153.285 93.8259 153.415 93.7607 153.546 93.6955C153.676 93.5651 153.741 93.3694 153.741 93.1085V92.0651H154.85Z" fill="black"/>
<path d="M156.744 94.8696H155.57V87.3696H156.744V90.5653H158.114V87.3696H159.288V94.8696H158.114V91.674H156.744V94.8696Z" fill="black"/>
<path d="M160.062 89.1957C160.062 88.6088 160.193 88.1522 160.519 87.8262C160.845 87.5001 161.302 87.3696 161.823 87.3696C162.345 87.3696 162.867 87.5001 163.128 87.8262C163.454 88.1522 163.584 88.6088 163.584 89.1957V93.1088C163.584 93.6957 163.454 94.1523 163.128 94.4783C162.802 94.8044 162.345 94.9348 161.823 94.9348C161.302 94.9348 160.78 94.8044 160.519 94.4783C160.258 94.1523 160.062 93.6957 160.062 93.1088V89.1957ZM161.236 93.174C161.236 93.4349 161.302 93.6305 161.432 93.7609C161.562 93.8914 161.693 93.9566 161.889 93.9566C162.084 93.9566 162.215 93.8914 162.345 93.7609C162.476 93.6305 162.541 93.4349 162.541 93.174V89.1305C162.541 88.8696 162.476 88.674 162.345 88.5436C162.215 88.4131 162.084 88.3479 161.889 88.3479C161.693 88.3479 161.562 88.4131 161.432 88.5436C161.302 88.674 161.236 88.8696 161.236 89.1305V93.174Z" fill="black"/>
<path d="M164.305 89.1957C164.305 88.6088 164.435 88.1522 164.761 87.8262C165.087 87.5001 165.544 87.3696 166.066 87.3696C166.587 87.3696 167.109 87.5001 167.37 87.8262C167.696 88.1522 167.826 88.6088 167.826 89.1957V93.1088C167.826 93.6957 167.696 94.1523 167.37 94.4783C167.044 94.8044 166.587 94.9348 166.066 94.9348C165.544 94.9348 165.022 94.8044 164.761 94.4783C164.5 94.1523 164.305 93.6957 164.305 93.1088V89.1957ZM165.479 93.174C165.479 93.4349 165.544 93.6305 165.674 93.7609C165.805 93.8914 165.935 93.9566 166.131 93.9566C166.326 93.9566 166.457 93.8914 166.587 93.7609C166.718 93.6305 166.783 93.4349 166.783 93.174V89.1305C166.783 88.8696 166.718 88.674 166.587 88.5436C166.457 88.4131 166.326 88.3479 166.131 88.3479C165.935 88.3479 165.805 88.4131 165.674 88.5436C165.544 88.674 165.479 88.8696 165.479 89.1305V93.174Z" fill="black"/>
<path d="M168.672 87.3696H169.846V93.8262H171.802V94.8696H168.672V87.3696Z" fill="black"/>
<path d="M173.828 89.1957C173.828 88.6088 173.959 88.1522 174.285 87.8262C174.611 87.5001 175.067 87.3696 175.589 87.3696C176.111 87.3696 176.632 87.5001 176.893 87.8262C177.219 88.1522 177.35 88.6088 177.35 89.1957V93.1088C177.35 93.6957 177.219 94.1523 176.893 94.4783C176.567 94.8044 176.111 94.9348 175.589 94.9348C175.067 94.9348 174.546 94.8044 174.285 94.4783C174.024 94.1523 173.828 93.6957 173.828 93.1088V89.1957ZM175.002 93.174C175.002 93.4349 175.067 93.6305 175.198 93.7609C175.328 93.8914 175.459 93.9566 175.654 93.9566C175.85 93.9566 175.98 93.8914 176.111 93.7609C176.241 93.6305 176.306 93.4349 176.306 93.174V89.1305C176.306 88.8696 176.241 88.674 176.111 88.5436C175.98 88.4131 175.85 88.3479 175.654 88.3479C175.459 88.3479 175.328 88.4131 175.198 88.5436C175.067 88.674 175.002 88.8696 175.002 89.1305V93.174Z" fill="black"/>
<path d="M179.377 90.6957H180.877V91.7392H179.377V94.8696H178.203V87.3696H181.334V88.4131H179.377V90.6957Z" fill="black"/>
<path d="M183.547 87.3696H184.721V93.8262H186.677V94.8696H183.547V87.3696Z" fill="black"/>
<path d="M191.049 94.8696H189.875L189.679 93.5001H188.179L187.984 94.8696H186.875L188.049 87.3696H189.745L191.049 94.8696ZM188.31 92.5218H189.418L188.832 88.7392L188.31 92.5218Z" fill="black"/>
<path d="M194.177 90.8914L193.72 94.8696H192.09L191.242 87.3696H192.416L193.068 93.3044L193.655 87.3696H194.764L195.351 93.3696L195.938 87.3696H196.981L196.133 94.8696H194.568L194.177 90.8914Z" fill="black"/>
<path d="M173.108 70.4783L169.651 71.8478V74.587C169.651 74.587 165.868 72.1739 161.173 72.1739C156.412 72.1739 153.477 74.587 153.477 74.587V72.5L147.086 69.4348L160.977 62.4565L175.325 69.6305L173.629 70.3479V71.7174C173.629 71.7174 174.151 71.8478 174.151 72.4348C174.151 73.0218 173.825 73.1522 173.825 73.1522L174.477 76.087H172.521L173.173 73.1522C173.173 73.1522 172.716 73.0218 172.716 72.4348C172.716 71.8478 173.238 71.7174 173.238 71.7174L173.108 70.4783Z" fill="white"/>
<path d="M168.54 75.435L168.801 75.1089C168.801 75.1089 166.519 73.022 161.366 73.022C156.214 73.022 154.258 75.1089 154.258 75.1089L154.519 75.435C154.519 75.435 156.475 73.4785 161.432 73.4785C166.388 73.4785 168.54 75.435 168.54 75.435Z" fill="#E5B80B"/>
<path d="M133.204 78.3045V78.5001C133.204 78.6306 133.269 78.761 133.334 78.8262C133.399 78.8914 133.53 78.9566 133.66 78.9566C133.791 78.9566 133.856 78.8914 133.986 78.8262C134.052 78.761 134.117 78.6306 134.117 78.5001V78.3697H134.508V78.5001C134.508 78.6306 134.508 78.761 134.443 78.8262C134.378 78.9566 134.312 79.0219 134.247 79.0871C134.182 79.1523 134.052 79.2175 133.986 79.2827C133.921 79.3479 133.791 79.3479 133.66 79.3479C133.53 79.3479 133.465 79.3479 133.334 79.2827C133.204 79.2175 133.139 79.1523 133.073 79.0871C133.008 79.0219 132.943 78.8914 132.878 78.8262C132.812 78.6958 132.812 78.6306 132.812 78.5001V77.1306C132.812 77.0001 132.812 76.8697 132.878 76.8045C132.943 76.674 133.008 76.6088 133.073 76.5436C133.139 76.4784 133.269 76.4132 133.334 76.3479C133.399 76.2827 133.53 76.2827 133.66 76.2827C133.791 76.2827 133.921 76.2827 133.986 76.3479C134.117 76.4132 134.182 76.4784 134.247 76.5436C134.312 76.6088 134.378 76.7392 134.443 76.8045C134.508 76.9349 134.508 77.0001 134.508 77.1306V77.261C134.508 77.3914 134.443 77.5218 134.378 77.5871C134.312 77.7175 134.247 77.7827 134.117 77.8479L133.204 78.3045ZM133.204 77.8479L133.986 77.4566C134.052 77.3914 134.117 77.3262 134.117 77.1958V77.0653C134.117 76.9349 134.052 76.8045 133.986 76.7392C133.921 76.674 133.791 76.6088 133.66 76.6088C133.53 76.6088 133.399 76.674 133.334 76.7392C133.269 76.8045 133.204 76.9349 133.204 77.0653V77.8479Z" fill="white"/>
<path d="M136.586 78.5001C136.586 78.6306 136.586 78.6958 136.521 78.8262C136.456 78.9566 136.391 79.0219 136.325 79.0871C136.26 79.1523 136.13 79.2175 136.065 79.2827C135.934 79.3479 135.869 79.3479 135.738 79.3479C135.608 79.3479 135.543 79.3479 135.412 79.2827C135.282 79.2175 135.217 79.1523 135.151 79.0871C135.086 79.0219 135.021 78.8914 134.956 78.8262C134.891 78.6958 134.891 78.6306 134.891 78.5001V77.1306C134.891 77.0001 134.891 76.8697 134.956 76.8045C135.021 76.7393 135.021 76.6088 135.086 76.5436C135.151 76.4784 135.217 76.4132 135.347 76.3479C135.412 76.2827 135.543 76.2827 135.673 76.2827C135.804 76.2827 135.869 76.2827 135.999 76.3479C136.065 76.4132 136.195 76.4784 136.26 76.5436V75.2393H136.651V78.5001H136.586ZM136.195 77.1306C136.195 77.0001 136.13 76.8697 136.065 76.8045C135.999 76.7393 135.869 76.674 135.738 76.674C135.608 76.674 135.543 76.7393 135.412 76.8045C135.282 76.8697 135.282 77.0001 135.282 77.1306V78.5001C135.282 78.6306 135.347 78.6958 135.412 78.8262C135.478 78.8914 135.608 78.9566 135.738 78.9566C135.869 78.9566 135.999 78.8914 136.065 78.8262C136.13 78.761 136.195 78.6306 136.195 78.5001V77.1306Z" fill="white"/>
<path d="M138.805 76.2827V78.5001C138.805 78.6306 138.805 78.6958 138.74 78.8262C138.675 78.9566 138.609 79.0219 138.544 79.0871C138.479 79.1523 138.349 79.2175 138.283 79.2827C138.218 79.3479 138.022 79.3479 137.957 79.3479C137.827 79.3479 137.762 79.3479 137.631 79.2827C137.501 79.2175 137.435 79.1523 137.37 79.0871C137.305 79.0219 137.24 78.8914 137.175 78.8262C137.109 78.6958 137.109 78.6306 137.109 78.5001V76.2827H137.501V78.5001C137.501 78.6306 137.566 78.761 137.631 78.8262C137.696 78.8914 137.827 78.9566 137.957 78.9566C138.088 78.9566 138.218 78.8914 138.283 78.8262C138.349 78.761 138.414 78.6306 138.414 78.5001V76.2827H138.805Z" fill="white"/>
<path d="M140.562 77.261V77.1306C140.562 77.0001 140.497 76.8697 140.432 76.8045C140.367 76.7392 140.236 76.674 140.106 76.674C139.975 76.674 139.91 76.7392 139.78 76.8045C139.649 76.8697 139.649 77.0001 139.649 77.1306V78.5001C139.649 78.6306 139.714 78.6958 139.78 78.8262C139.845 78.8914 139.975 78.9566 140.106 78.9566C140.236 78.9566 140.367 78.8914 140.432 78.8262C140.497 78.761 140.562 78.6306 140.562 78.5001V78.3697H140.953V78.5001C140.953 78.6306 140.953 78.6958 140.888 78.8262C140.823 78.9566 140.758 79.0219 140.693 79.0871C140.627 79.1523 140.497 79.2175 140.432 79.2827C140.301 79.3479 140.236 79.3479 140.106 79.3479C139.975 79.3479 139.91 79.3479 139.78 79.2827C139.649 79.2175 139.584 79.1523 139.519 79.0871C139.453 79.0219 139.388 78.8914 139.323 78.8262C139.258 78.6958 139.258 78.6306 139.258 78.5001V77.1306C139.258 77.0001 139.258 76.8697 139.323 76.8045C139.388 76.674 139.453 76.6088 139.519 76.5436C139.584 76.4784 139.714 76.4132 139.78 76.3479C139.91 76.2827 139.975 76.2827 140.106 76.2827C140.236 76.2827 140.367 76.2827 140.432 76.3479C140.562 76.4132 140.627 76.4784 140.693 76.5436C140.758 76.6088 140.823 76.7392 140.888 76.8045C140.953 76.8697 140.953 77.0001 140.953 77.1306V77.261H140.562Z" fill="white"/>
<path d="M142.137 76.2827C142.267 76.2827 142.398 76.2827 142.463 76.3479C142.593 76.4132 142.659 76.4784 142.724 76.5436C142.789 76.6088 142.854 76.7392 142.919 76.8045C142.985 76.9349 142.985 77.0001 142.985 77.1306V78.5001C142.985 78.6306 142.985 78.6958 142.919 78.8262C142.854 78.9566 142.789 79.0219 142.724 79.0871C142.659 79.1523 142.528 79.2175 142.463 79.2827C142.333 79.3479 142.267 79.3479 142.137 79.3479C142.006 79.3479 141.941 79.3479 141.811 79.2827C141.68 79.2175 141.615 79.1523 141.55 79.0871C141.485 79.0219 141.419 78.8914 141.354 78.8262C141.289 78.6958 141.289 78.6306 141.289 78.5001V78.174C141.289 78.0436 141.289 77.9132 141.354 77.8479C141.419 77.7175 141.485 77.6523 141.55 77.5871C141.615 77.5218 141.746 77.4566 141.811 77.3914C141.876 77.3262 142.006 77.3262 142.137 77.3262C142.333 77.3262 142.463 77.3914 142.593 77.5219V77.1306C142.593 77.0001 142.528 76.8697 142.463 76.8045C142.398 76.7392 142.267 76.674 142.137 76.674C142.072 76.674 142.006 76.674 141.941 76.7392C141.876 76.7392 141.876 76.8045 141.811 76.8697C141.811 76.9349 141.746 76.9349 141.746 77.0001C141.746 77.0653 141.746 77.1306 141.746 77.1306V77.261H141.354V77.1306C141.354 77.0001 141.354 76.8697 141.419 76.8045C141.485 76.674 141.485 76.6088 141.615 76.5436C141.68 76.4784 141.746 76.4132 141.876 76.3479C142.006 76.2827 142.006 76.2827 142.137 76.2827ZM142.593 78.174C142.593 78.0436 142.528 77.9784 142.463 77.8479C142.398 77.7175 142.267 77.7175 142.137 77.7175C142.006 77.7175 141.941 77.7827 141.811 77.8479C141.68 77.9132 141.68 78.0436 141.68 78.174V78.5001C141.68 78.6306 141.746 78.6958 141.811 78.8262C141.876 78.8914 142.006 78.9566 142.137 78.9566C142.267 78.9566 142.398 78.8914 142.463 78.8262C142.528 78.761 142.593 78.6306 142.593 78.5001V78.174Z" fill="white"/>
<path d="M144.873 78.5654V78.6306C144.873 78.7611 144.873 78.8263 144.807 78.8915C144.807 78.9567 144.742 79.0219 144.677 79.0872C144.612 79.1524 144.547 79.2176 144.481 79.2176C144.416 79.2176 144.286 79.2828 144.22 79.2828C144.155 79.2828 144.025 79.2828 143.96 79.2176C143.894 79.2176 143.829 79.1524 143.699 79.0872C143.633 79.0219 143.568 78.9567 143.503 78.8915C143.438 78.8263 143.438 78.6958 143.438 78.5654V76.5437H143.242V76.2176H143.438V75.5654H143.829V76.2176H144.351V76.5437H143.829V78.5654C143.829 78.6306 143.829 78.6959 143.829 78.6959C143.829 78.7611 143.894 78.7611 143.894 78.7611L143.96 78.8263C144.025 78.8263 144.025 78.8263 144.025 78.8263C144.09 78.8263 144.155 78.8263 144.22 78.7611C144.286 78.6959 144.286 78.6306 144.286 78.5654V78.5002H144.873V78.5654Z" fill="white"/>
<path d="M145.587 78.3045V78.5001C145.587 78.6306 145.652 78.761 145.717 78.8262C145.782 78.8914 145.913 78.9566 146.043 78.9566C146.174 78.9566 146.239 78.8914 146.369 78.8262C146.434 78.761 146.5 78.6306 146.5 78.5001V78.3697H146.891V78.5001C146.891 78.6306 146.891 78.761 146.826 78.8262C146.761 78.9566 146.695 79.0219 146.63 79.0871C146.565 79.1523 146.434 79.2175 146.369 79.2827C146.304 79.3479 146.174 79.3479 146.043 79.3479C145.913 79.3479 145.847 79.3479 145.717 79.2827C145.587 79.2175 145.521 79.1523 145.456 79.0871C145.391 79.0219 145.326 78.8914 145.261 78.8262C145.195 78.6958 145.195 78.6306 145.195 78.5001V77.1306C145.195 77.0001 145.195 76.8697 145.261 76.8045C145.326 76.674 145.391 76.6088 145.456 76.5436C145.521 76.4784 145.652 76.4132 145.717 76.3479C145.782 76.2827 145.913 76.2827 146.043 76.2827C146.174 76.2827 146.304 76.2827 146.369 76.3479C146.5 76.4132 146.565 76.4784 146.63 76.5436C146.695 76.6088 146.761 76.7392 146.826 76.8045C146.891 76.9349 146.891 77.0001 146.891 77.1306V77.261C146.891 77.3914 146.826 77.5218 146.761 77.5871C146.695 77.7175 146.63 77.7827 146.5 77.8479L145.587 78.3045ZM145.587 77.8479L146.369 77.4566C146.434 77.3914 146.5 77.3262 146.5 77.1958V77.0653C146.5 76.9349 146.434 76.8045 146.369 76.7392C146.304 76.674 146.174 76.6088 146.043 76.6088C145.913 76.6088 145.782 76.674 145.717 76.7392C145.652 76.8045 145.587 76.9349 145.587 77.0653V77.8479Z" fill="white"/>
<path d="M155.173 78.3694V78.565C155.173 78.6955 155.238 78.8259 155.303 78.8911C155.368 78.9563 155.499 79.0216 155.629 79.0216C155.76 79.0216 155.825 78.9563 155.955 78.8911C156.02 78.8259 156.086 78.6955 156.086 78.565V78.4346H156.477V78.565C156.477 78.6955 156.477 78.8259 156.412 78.8911C156.346 79.0216 156.281 79.0868 156.216 79.152C156.151 79.2172 156.086 79.2824 155.955 79.3477C155.825 79.4129 155.76 79.4129 155.629 79.4129C155.499 79.4129 155.433 79.4129 155.303 79.3477C155.173 79.2824 155.107 79.2172 155.042 79.152C154.977 79.0868 154.912 78.9563 154.846 78.8911C154.781 78.7607 154.781 78.6955 154.781 78.565V77.1955C154.781 77.0651 154.781 76.9346 154.846 76.8694C154.912 76.739 154.977 76.6737 155.042 76.6085C155.107 76.5433 155.238 76.4781 155.303 76.4129C155.368 76.3477 155.499 76.3477 155.629 76.3477C155.76 76.3477 155.89 76.3477 155.955 76.4129C156.086 76.4781 156.151 76.5433 156.216 76.6085C156.281 76.6737 156.346 76.8042 156.412 76.8694C156.477 76.9346 156.477 77.0651 156.477 77.1955V77.3259C156.477 77.4564 156.412 77.5868 156.346 77.652C156.281 77.7824 156.216 77.8477 156.086 77.9129L155.173 78.3694ZM155.173 77.9129L155.955 77.5216C156.02 77.4564 156.086 77.3911 156.086 77.2607V77.1303C156.086 76.9998 156.02 76.8694 155.955 76.8042C155.89 76.739 155.76 76.6737 155.629 76.6737C155.499 76.6737 155.368 76.739 155.303 76.8042C155.238 76.8694 155.173 76.9998 155.173 77.1303V77.9129Z" fill="white"/>
<path d="M156.938 79.3479V75.2393H157.329V79.3479H156.938Z" fill="white"/>
<path d="M158.243 78.3694V78.565C158.243 78.6955 158.308 78.8259 158.373 78.8911C158.439 78.9563 158.569 79.0216 158.699 79.0216C158.83 79.0216 158.895 78.9563 159.025 78.8911C159.091 78.8259 159.156 78.6955 159.156 78.565V78.4346H159.547V78.565C159.547 78.6955 159.547 78.8259 159.482 78.8911C159.417 79.0216 159.352 79.0868 159.286 79.152C159.221 79.2172 159.156 79.2824 159.025 79.3477C158.895 79.4129 158.83 79.4129 158.699 79.4129C158.569 79.4129 158.504 79.4129 158.373 79.3477C158.243 79.2824 158.178 79.2172 158.112 79.152C158.047 79.0868 157.982 78.9563 157.917 78.8911C157.852 78.7607 157.852 78.6955 157.852 78.565V77.1955C157.852 77.0651 157.852 76.9346 157.917 76.8694C157.982 76.739 158.047 76.6737 158.112 76.6085C158.178 76.5433 158.308 76.4781 158.373 76.4129C158.439 76.3477 158.569 76.3477 158.699 76.3477C158.83 76.3477 158.96 76.3477 159.025 76.4129C159.156 76.4781 159.221 76.5433 159.286 76.6085C159.352 76.6737 159.417 76.8042 159.482 76.8694C159.547 76.9346 159.547 77.0651 159.547 77.1955V77.3259C159.547 77.4564 159.482 77.5868 159.417 77.652C159.352 77.7824 159.286 77.8477 159.156 77.9129L158.243 78.3694ZM158.243 77.9129L159.025 77.5216C159.091 77.4564 159.156 77.3911 159.156 77.2607V77.1303C159.156 76.9998 159.091 76.8694 159.025 76.8042C158.96 76.739 158.83 76.6737 158.699 76.6737C158.569 76.6737 158.439 76.739 158.373 76.8042C158.308 76.8694 158.243 76.9998 158.243 77.1303V77.9129Z" fill="white"/>
<path d="M161.566 76.3477L160.848 79.4129H160.522L159.805 76.3477H160.196L160.718 78.4346L161.239 76.3477H161.566Z" fill="white"/>
<path d="M162.606 76.2827C162.736 76.2827 162.867 76.2827 162.932 76.3479C163.062 76.4132 163.127 76.4784 163.193 76.5436C163.258 76.6088 163.323 76.7392 163.388 76.8045C163.453 76.9349 163.453 77.0001 163.453 77.1306V78.5001C163.453 78.6306 163.453 78.6958 163.388 78.8262C163.323 78.9566 163.258 79.0219 163.193 79.0871C163.127 79.1523 162.997 79.2175 162.932 79.2827C162.801 79.3479 162.736 79.3479 162.606 79.3479C162.475 79.3479 162.41 79.3479 162.28 79.2827C162.149 79.2175 162.084 79.1523 162.019 79.0871C161.953 79.0219 161.888 78.8914 161.823 78.8262C161.758 78.761 161.758 78.6306 161.758 78.5001V78.174C161.758 78.0436 161.758 77.9132 161.823 77.8479C161.888 77.7175 161.953 77.6523 162.019 77.5871C162.084 77.5218 162.214 77.4566 162.28 77.3914C162.345 77.3262 162.475 77.3262 162.606 77.3262C162.801 77.3262 162.932 77.3914 163.062 77.5219V77.1306C163.062 77.0001 162.997 76.8697 162.932 76.8045C162.867 76.7392 162.736 76.674 162.606 76.674C162.54 76.674 162.475 76.674 162.41 76.7392C162.345 76.7392 162.345 76.8045 162.28 76.8697C162.28 76.9349 162.214 76.9349 162.214 77.0001C162.214 77.0653 162.214 77.1306 162.214 77.1306V77.261H161.823V77.1306C161.823 77.0001 161.823 76.8697 161.888 76.8045C161.953 76.674 161.953 76.6088 162.084 76.5436C162.149 76.4784 162.214 76.4132 162.345 76.3479C162.41 76.3479 162.475 76.2827 162.606 76.2827ZM163.062 78.2392C163.062 78.1088 162.997 78.0436 162.932 77.9131C162.867 77.8479 162.736 77.7827 162.606 77.7827C162.475 77.7827 162.41 77.8479 162.28 77.9131C162.214 77.9784 162.149 78.1088 162.149 78.2392V78.5653C162.149 78.6958 162.214 78.761 162.28 78.8914C162.345 78.9566 162.475 79.0219 162.606 79.0219C162.736 79.0219 162.867 78.9566 162.932 78.8914C162.997 78.8262 163.062 78.6958 163.062 78.5653V78.2392Z" fill="white"/>
<path d="M165.417 78.5654V78.6306C165.417 78.7611 165.417 78.8263 165.352 78.8915C165.352 78.9567 165.286 79.0219 165.221 79.0872C165.156 79.1524 165.091 79.2176 165.025 79.2176C164.96 79.2176 164.83 79.2828 164.765 79.2828C164.699 79.2828 164.569 79.2828 164.504 79.2176C164.439 79.2176 164.373 79.1524 164.308 79.0872C164.243 79.0219 164.178 78.9567 164.112 78.8915C164.047 78.8263 164.047 78.6958 164.047 78.5654V76.5437H163.852V76.2176H164.047V75.5654H164.439V76.2176H164.96V76.5437H164.439V78.5654C164.439 78.6306 164.439 78.6959 164.439 78.6959C164.439 78.7611 164.504 78.7611 164.504 78.7611L164.569 78.8263C164.634 78.8263 164.634 78.8263 164.634 78.8263C164.699 78.8263 164.765 78.8263 164.83 78.7611C164.895 78.6959 164.895 78.6306 164.895 78.5654V78.5002H165.417V78.5654Z" fill="white"/>
<path d="M166.071 78.3694V78.565C166.071 78.6955 166.136 78.8259 166.201 78.8911C166.267 78.9563 166.397 79.0216 166.528 79.0216C166.658 79.0216 166.723 78.9563 166.854 78.8911C166.919 78.8259 166.984 78.6955 166.984 78.565V78.4346H167.375V78.565C167.375 78.6955 167.375 78.8259 167.31 78.8911C167.245 79.0216 167.18 79.0868 167.114 79.152C167.049 79.2172 166.984 79.2824 166.854 79.3477C166.723 79.4129 166.658 79.4129 166.528 79.4129C166.397 79.4129 166.332 79.4129 166.201 79.3477C166.071 79.2824 166.006 79.2172 165.941 79.152C165.875 79.0868 165.81 78.9563 165.745 78.8911C165.68 78.7607 165.68 78.6955 165.68 78.565V77.1955C165.68 77.0651 165.68 76.9346 165.745 76.8694C165.81 76.739 165.875 76.6737 165.941 76.6085C166.006 76.5433 166.136 76.4781 166.201 76.4129C166.267 76.3477 166.397 76.3477 166.528 76.3477C166.658 76.3477 166.788 76.3477 166.854 76.4129C166.984 76.4781 167.049 76.5433 167.114 76.6085C167.18 76.6737 167.245 76.8042 167.31 76.8694C167.375 76.9346 167.375 77.0651 167.375 77.1955V77.3259C167.375 77.4564 167.31 77.5868 167.245 77.652C167.18 77.7824 167.114 77.8477 166.984 77.9129L166.071 78.3694ZM166.071 77.9129L166.854 77.5216C166.919 77.4564 166.984 77.3911 166.984 77.2607V77.1303C166.984 76.9998 166.919 76.8694 166.854 76.8042C166.788 76.739 166.658 76.6737 166.528 76.6737C166.397 76.6737 166.267 76.739 166.201 76.8042C166.136 76.8694 166.071 76.9998 166.071 77.1303V77.9129Z" fill="white"/>
<path d="M174.548 78.4348V78.6305C174.548 78.7609 174.613 78.8913 174.678 78.9566C174.743 79.0218 174.874 79.087 175.004 79.087C175.135 79.087 175.2 79.0218 175.33 78.9566C175.395 78.8913 175.461 78.7609 175.461 78.6305V78.5001H175.852V78.6305C175.852 78.7609 175.852 78.8913 175.787 78.9566C175.721 79.087 175.656 79.1522 175.591 79.2174C175.526 79.2826 175.395 79.3479 175.33 79.4131C175.265 79.4783 175.135 79.4783 175.004 79.4783C174.874 79.4783 174.808 79.4783 174.678 79.4131C174.548 79.3479 174.482 79.2826 174.417 79.2174C174.352 79.1522 174.287 79.0218 174.221 78.9566C174.156 78.8261 174.156 78.7609 174.156 78.6305V77.2609C174.156 77.1305 174.156 77 174.221 76.9348C174.287 76.8044 174.352 76.7392 174.417 76.674C174.482 76.6087 174.613 76.5435 174.678 76.4783C174.743 76.4131 174.874 76.4131 175.004 76.4131C175.135 76.4131 175.265 76.4131 175.33 76.4783C175.461 76.5435 175.526 76.6087 175.591 76.674C175.656 76.7392 175.721 76.8696 175.787 76.9348C175.852 77.0653 175.852 77.1305 175.852 77.2609V77.3913C175.852 77.5218 175.787 77.6522 175.721 77.7174C175.656 77.8479 175.591 77.9131 175.461 77.9783L174.548 78.4348ZM174.548 77.9783L175.33 77.587C175.395 77.5218 175.461 77.4566 175.461 77.3261V77.1957C175.461 77.0653 175.395 76.9348 175.33 76.8696C175.265 76.8044 175.135 76.7392 175.004 76.7392C174.874 76.7392 174.743 76.8044 174.678 76.8696C174.613 76.9348 174.548 77.0653 174.548 77.1957V77.9783Z" fill="white"/>
<path d="M178.194 76.4131C178.389 76.4131 178.585 76.4783 178.715 76.674C178.846 76.8044 178.911 77.0653 178.911 77.3261V79.5435H178.52V77.3261C178.52 77.3261 178.52 77.2609 178.52 77.1957C178.52 77.1305 178.52 77.0653 178.454 77.0653C178.454 77 178.389 77 178.324 76.9348C178.259 76.8696 178.194 76.8696 178.128 76.8696C178.063 76.8696 177.998 76.8696 177.933 76.9348C177.868 77 177.868 77 177.802 77.0653C177.802 77.1305 177.737 77.1957 177.737 77.1957C177.737 77.2609 177.737 77.2609 177.737 77.3261V79.5435H177.346V77.3261C177.346 77.3261 177.346 77.2609 177.346 77.1957C177.346 77.1305 177.346 77.0653 177.281 77.0653C177.281 77 177.215 77 177.15 76.9348C177.085 76.8696 177.02 76.8696 176.954 76.8696C176.889 76.8696 176.824 76.8696 176.759 76.9348C176.694 77 176.694 77 176.628 77.0653C176.628 77.1305 176.563 77.1957 176.563 77.1957C176.563 77.2609 176.563 77.2609 176.563 77.3261V79.5435H176.172V77.3261C176.172 77.0653 176.237 76.8696 176.368 76.674C176.498 76.5435 176.628 76.4131 176.889 76.4131C177.02 76.4131 177.15 76.4783 177.281 76.5435C177.411 76.6087 177.476 76.7392 177.541 76.8696C177.607 76.7392 177.672 76.674 177.802 76.5435C177.933 76.4131 178.063 76.4131 178.194 76.4131Z" fill="white"/>
<path d="M180.218 76.4131C180.348 76.4131 180.479 76.4131 180.544 76.4783C180.674 76.5435 180.739 76.6087 180.805 76.674C180.87 76.7392 180.935 76.8696 181 76.9348C181.066 77.0653 181.066 77.1305 181.066 77.2609V78.6305C181.066 78.7609 181.066 78.8261 181 78.9566C180.935 79.087 180.935 79.1522 180.87 79.2174C180.805 79.2826 180.739 79.3479 180.609 79.4131C180.544 79.4783 180.413 79.4783 180.283 79.4783C180.153 79.4783 180.087 79.4783 179.957 79.4131C179.892 79.3479 179.761 79.2826 179.696 79.2174V80.5218H179.305V77.1957C179.305 77.0653 179.305 76.9348 179.37 76.8696C179.435 76.7392 179.5 76.6739 179.566 76.6087C179.631 76.5435 179.761 76.4783 179.826 76.4131C180.022 76.4131 180.087 76.4131 180.218 76.4131ZM180.674 77.2609C180.674 77.1305 180.609 77 180.544 76.9348C180.479 76.8696 180.348 76.8044 180.218 76.8044C180.087 76.8044 180.022 76.8696 179.892 76.9348C179.761 77 179.761 77.1305 179.761 77.2609V78.6305C179.761 78.7609 179.826 78.8913 179.892 78.9566C179.957 79.0218 180.087 79.087 180.218 79.087C180.348 79.087 180.479 79.0218 180.544 78.9566C180.609 78.8913 180.674 78.7609 180.674 78.6305V77.2609Z" fill="white"/>
<path d="M182.371 76.4131C182.502 76.4131 182.632 76.4131 182.697 76.4783C182.828 76.5435 182.893 76.6087 182.958 76.674C183.023 76.7392 183.089 76.8696 183.154 76.9348C183.219 77 183.219 77.1305 183.219 77.2609V78.6305C183.219 78.7609 183.219 78.8261 183.154 78.9566C183.089 79.087 183.023 79.1522 182.958 79.2174C182.893 79.2826 182.763 79.3479 182.697 79.4131C182.567 79.4783 182.502 79.4783 182.371 79.4783C182.241 79.4783 182.176 79.4783 182.045 79.4131C181.915 79.3479 181.85 79.2826 181.784 79.2174C181.719 79.1522 181.654 79.0218 181.589 78.9566C181.523 78.8261 181.523 78.7609 181.523 78.6305V77.2609C181.523 77.1305 181.523 77 181.589 76.9348C181.654 76.8044 181.719 76.7392 181.784 76.674C181.85 76.6087 181.98 76.5435 182.045 76.4783C182.11 76.4131 182.241 76.4131 182.371 76.4131ZM182.828 77.2609C182.828 77.1305 182.763 77.0653 182.697 76.9348C182.632 76.8696 182.502 76.8044 182.371 76.8044C182.241 76.8044 182.176 76.8696 182.045 76.9348C181.98 77 181.915 77.1305 181.915 77.2609V78.6305C181.915 78.7609 181.98 78.8261 182.045 78.9566C182.11 79.0218 182.241 79.087 182.371 79.087C182.502 79.087 182.632 79.0218 182.697 78.9566C182.763 78.8913 182.828 78.7609 182.828 78.6305V77.2609Z" fill="white"/>
<path d="M186.416 76.4131L185.764 79.4783H185.438L184.982 77.5218L184.525 79.4783H184.199L183.547 76.4131H183.938L184.329 78.4348L184.786 76.4131H185.112L185.569 78.4348L185.96 76.4131H186.416Z" fill="white"/>
<path d="M187.133 78.4348V78.6305C187.133 78.7609 187.199 78.8913 187.264 78.9566C187.329 79.0218 187.46 79.087 187.59 79.087C187.72 79.087 187.786 79.0218 187.916 78.9566C187.981 78.8913 188.047 78.7609 188.047 78.6305V78.5001H188.438V78.6305C188.438 78.7609 188.438 78.8913 188.373 78.9566C188.307 79.087 188.242 79.1522 188.177 79.2174C188.112 79.2826 187.981 79.3479 187.916 79.4131C187.851 79.4783 187.72 79.4783 187.59 79.4783C187.46 79.4783 187.394 79.4783 187.264 79.4131C187.133 79.3479 187.068 79.2826 187.003 79.2174C186.938 79.1522 186.873 79.0218 186.807 78.9566C186.742 78.8261 186.742 78.7609 186.742 78.6305V77.2609C186.742 77.1305 186.742 77 186.807 76.9348C186.873 76.8044 186.938 76.7392 187.003 76.674C187.068 76.6087 187.199 76.5435 187.264 76.4783C187.329 76.4131 187.46 76.4131 187.59 76.4131C187.72 76.4131 187.851 76.4131 187.916 76.4783C188.047 76.5435 188.112 76.6087 188.177 76.674C188.242 76.7392 188.307 76.8696 188.373 76.9348C188.438 77.0653 188.438 77.1305 188.438 77.2609V77.3913C188.438 77.5218 188.373 77.6522 188.307 77.7174C188.242 77.8479 188.177 77.9131 188.047 77.9783L187.133 78.4348ZM187.133 77.9783L187.916 77.587C187.981 77.5218 188.047 77.4566 188.047 77.3261V77.1957C188.047 77.0653 187.981 76.9348 187.916 76.8696C187.851 76.8044 187.72 76.7392 187.59 76.7392C187.46 76.7392 187.329 76.8044 187.264 76.8696C187.199 76.9348 187.133 77.0653 187.133 77.1957V77.9783Z" fill="white"/>
<path d="M189.872 76.4131V76.8044H189.676C189.546 76.8044 189.48 76.8696 189.35 76.9348C189.219 77 189.219 77.1305 189.219 77.2609V79.4783H188.828V77.2609C188.828 77.1305 188.828 77 188.893 76.9348C188.959 76.8044 189.024 76.7392 189.089 76.674C189.154 76.6087 189.285 76.5435 189.35 76.4783C189.48 76.4131 189.546 76.4131 189.676 76.4131H189.872Z" fill="white"/>
</g>
<defs>
<filter id="filter0_d_12085_132274" x="0" y="0" width="320" height="200" filterUnits="userSpaceOnUse" color-interpolation-filters="sRGB">
<feFlood flood-opacity="0" result="BackgroundImageFix"/>
<feColorMatrix in="SourceAlpha" type="matrix" values="0 0 0 0 0 0 0 0 0 0 0 0 0 0 0 0 0 0 127 0" result="hardAlpha"/>
<feOffset dy="5"/>
<feGaussianBlur stdDeviation="5"/>
<feComposite in2="hardAlpha" operator="out"/>
<feColorMatrix type="matrix" values="0 0 0 0 0.254902 0 0 0 0 0.254902 0 0 0 0 0.254902 0 0 0 0.12 0"/>
<feBlend mode="normal" in2="BackgroundImageFix" result="effect1_dropShadow_12085_132274"/>
<feBlend mode="normal" in="SourceGraphic" in2="effect1_dropShadow_12085_132274" result="shape"/>
</filter>
<linearGradient id="paint0_linear_12085_132274" x1="10" y1="145.4" x2="238.924" y2="-30.1082" gradientUnits="userSpaceOnUse">
<stop stop-color="#0575E6"/>
<stop offset="1" stop-color="#021B79"/>
</linearGradient>
<linearGradient id="paint1_linear_12085_132274" x1="102.521" y1="98.2936" x2="219.498" y2="98.2936" gradientUnits="userSpaceOnUse">
<stop stop-color="#F9DF7B"/>
<stop offset="0.2038" stop-color="#B57E10"/>
<stop offset="0.2643" stop-color="#B78114"/>
<stop offset="0.3227" stop-color="#BF8C1F"/>
<stop offset="0.3803" stop-color="#CB9E33"/>
<stop offset="0.4373" stop-color="#DDB64E"/>
<stop offset="0.4935" stop-color="#F3D671"/>
<stop offset="0.5077" stop-color="#F9DF7B"/>
<stop offset="0.5189" stop-color="#FFF3A6"/>
<stop offset="0.5934" stop-color="#F9DF7B"/>
<stop offset="0.8428" stop-color="#B57E10"/>
<stop offset="0.9493" stop-color="#E5C35C"/>
<stop offset="1" stop-color="#F9DF7B"/>
</linearGradient>
<linearGradient id="paint2_linear_12085_132274" x1="160.949" y1="98.3861" x2="160.949" y2="105.063" gradientUnits="userSpaceOnUse">
<stop/>
<stop offset="0.070513" stop-color="#201902"/>
<stop offset="0.1835" stop-color="#4C3B05"/>
<stop offset="0.3016" stop-color="#735907"/>
<stop offset="0.423" stop-color="#927109"/>
<stop offset="0.5492" stop-color="#AA840B"/>
<stop offset="0.6819" stop-color="#BC920C"/>
<stop offset="0.8255" stop-color="#C6990D"/>
<stop offset="1" stop-color="#C99C0D"/>
</linearGradient>
<linearGradient id="paint3_linear_12085_132274" x1="120.352" y1="90.9893" x2="201.547" y2="90.9893" gradientUnits="userSpaceOnUse">
<stop stop-color="#F9DF7B"/>
<stop offset="0.2038" stop-color="#B57E10"/>
<stop offset="0.2643" stop-color="#B78114"/>
<stop offset="0.3227" stop-color="#BF8C1F"/>
<stop offset="0.3803" stop-color="#CB9E33"/>
<stop offset="0.4373" stop-color="#DDB64E"/>
<stop offset="0.4935" stop-color="#F3D671"/>
<stop offset="0.5077" stop-color="#F9DF7B"/>
<stop offset="0.5189" stop-color="#FFF3A6"/>
<stop offset="0.5934" stop-color="#F9DF7B"/>
<stop offset="0.8428" stop-color="#B57E10"/>
<stop offset="0.9493" stop-color="#E5C35C"/>
<stop offset="1" stop-color="#F9DF7B"/>
</linearGradient>
<linearGradient id="paint4_linear_12085_132274" x1="164.793" y1="126.953" x2="180.322" y2="116.447" gradientUnits="userSpaceOnUse">
<stop stop-color="#0D041D"/>
<stop offset="0.4598" stop-color="#111448"/>
<stop offset="1" stop-color="#162980"/>
</linearGradient>
<linearGradient id="paint5_linear_12085_132274" x1="164.534" y1="123.649" x2="176.384" y2="114.258" gradientUnits="userSpaceOnUse">
<stop stop-color="#032F78"/>
<stop offset="0.7207" stop-color="#0F57A3"/>
<stop offset="1" stop-color="#1467B5"/>
</linearGradient>
<linearGradient id="paint6_linear_12085_132274" x1="163.166" y1="122.029" x2="173.207" y2="109.376" gradientUnits="userSpaceOnUse">
<stop stop-color="#1BB6EE"/>
<stop offset="0.921" stop-color="#02E1DE"/>
<stop offset="1" stop-color="#00E5DC"/>
</linearGradient>
<linearGradient id="paint7_linear_12085_132274" x1="157.146" y1="126.936" x2="141.618" y2="116.429" gradientUnits="userSpaceOnUse">
<stop stop-color="#0D041D"/>
<stop offset="0.4598" stop-color="#111448"/>
<stop offset="1" stop-color="#162980"/>
</linearGradient>
<linearGradient id="paint8_linear_12085_132274" x1="157.382" y1="123.661" x2="145.532" y2="114.269" gradientUnits="userSpaceOnUse">
<stop stop-color="#032F78"/>
<stop offset="0.7207" stop-color="#0F57A3"/>
<stop offset="1" stop-color="#1467B5"/>
</linearGradient>
<linearGradient id="paint9_linear_12085_132274" x1="168.659" y1="120.766" x2="162.651" y2="113.194" gradientUnits="userSpaceOnUse">
<stop stop-color="#1BB6EE"/>
<stop offset="0.921" stop-color="#02E1DE"/>
<stop offset="1" stop-color="#00E5DC"/>
</linearGradient>
<linearGradient id="paint10_linear_12085_132274" x1="153.26" y1="120.767" x2="159.269" y2="113.195" gradientUnits="userSpaceOnUse">
<stop stop-color="#1BB6EE"/>
<stop offset="0.921" stop-color="#02E1DE"/>
<stop offset="1" stop-color="#00E5DC"/>
</linearGradient>
</defs>
</svg>
