<svg width="320" height="200" viewBox="0 0 320 200" fill="none" xmlns="http://www.w3.org/2000/svg">
<g filter="url(#filter0_d_12085_132333)">
<rect x="10" y="5" width="300" height="180" rx="16" fill="url(#paint0_linear_12085_132333)"/>
<rect x="110" y="45" width="100" height="100" rx="50" fill="white"/>
<path d="M172.289 124.469C172.088 124.715 171.752 124.872 171.304 124.939C170.901 124.939 170.543 124.827 170.185 124.603C169.827 124.379 169.58 123.775 169.401 122.789L167.677 114.281L164.498 97.4884C164.923 97.3988 165.393 97.3316 165.908 97.3316C166.401 97.3316 166.916 97.3764 167.408 97.4436L169.916 110.497L170.095 111.415L170.341 112.736L170.006 113.811C170.006 113.856 170.006 113.878 170.028 113.9C170.028 113.923 170.028 113.945 170.05 113.968C170.05 113.99 170.073 113.99 170.073 114.012C170.073 114.035 170.095 114.057 170.118 114.057C170.14 114.08 170.162 114.102 170.185 114.124C170.207 114.147 170.23 114.169 170.252 114.192C170.274 114.214 170.297 114.236 170.319 114.236C170.364 114.259 170.386 114.281 170.431 114.304C170.498 114.326 170.543 114.348 170.61 114.371C170.633 114.371 170.633 114.371 170.655 114.393L170.968 116.05L171.08 116.61L172.222 122.588C172.469 123.596 172.491 124.2 172.289 124.469ZM180.104 113.878C179.499 117.102 173.879 117.841 170.991 116.072C170.14 115.557 169.535 114.818 169.356 113.878L170.095 111.438L174.17 98.1153C172.648 98.1377 170.924 97.5108 168.617 97.1749C166.334 96.8391 163.736 96.436 161.811 98.6303C161.049 99.4811 162.303 101.026 159.975 102.101L159.93 102.123L159.885 102.101C157.557 101.026 158.81 99.4811 158.049 98.6303C157.557 98.0705 157.042 97.6899 156.482 97.4212C155.967 97.1749 155.362 97.4884 155.25 98.0481L153.056 109.49L152.631 111.37L150.392 123.058C150.28 123.864 150.011 124.402 149.608 124.693C149.205 124.984 148.869 125.073 148.578 124.939C148.287 124.939 147.996 124.782 147.727 124.469C147.436 124.155 147.347 123.618 147.459 122.879L148.645 116.744L148.757 116.207C145.824 117.796 140.473 117.013 139.891 113.878L144.749 98.0034C143.854 97.8018 142.981 97.2869 142.085 96.2345C147.548 99.1453 154.713 90.1667 159.908 97.1301C160.938 95.7643 162.035 95.003 163.177 94.6672C163.602 94.5329 163.826 94.1074 163.759 93.682L159.93 73.4859L155.989 94.085C155.855 94.0627 155.698 94.0403 155.541 94.0179C155.474 94.0179 155.385 93.9955 155.318 93.9955C155.295 93.9955 155.25 93.9955 155.228 93.9955C155.116 93.9955 155.004 93.9955 154.892 93.9955C154.78 93.9955 154.668 93.9955 154.534 93.9955C154.467 93.9955 154.4 93.9955 154.332 94.0179C153.885 94.0403 153.414 94.1074 152.944 94.2194L158.363 66.03C158.475 65.515 158.654 65.2239 158.878 65.1343C159.102 65.0448 159.303 65 159.482 65H160.266C160.445 65 160.624 65.0224 160.87 65.0896C161.094 65.1567 161.273 65.4702 161.385 66.03L166.759 94.1522L166.849 94.6C167.543 94.7344 168.326 94.9807 169.222 95.3613C172.088 96.5928 175.155 97.6451 177.73 96.2793C176.857 97.2869 176.051 97.8018 175.178 98.0034L180.104 113.878ZM149.989 113.833L149.518 112.333L145.287 98.5183L140.585 113.833C140.562 114.527 142.913 114.863 145.287 114.863C146.742 114.863 148.22 114.729 149.115 114.46C149.675 114.326 150.011 114.102 149.989 113.833ZM151.265 97.1301C149.944 97.3316 148.914 97.6227 148.914 97.6227C147.75 97.869 146.764 98.0929 145.846 98.1153L149.787 111.012L149.966 110.094L152.272 98.1601C152.362 97.5555 151.869 97.0182 151.265 97.1301ZM179.432 113.833L174.73 98.5183L170.364 112.736L170.028 113.811C170.028 113.856 170.028 113.878 170.05 113.9C170.05 113.923 170.05 113.945 170.073 113.968C170.073 113.99 170.095 113.99 170.095 114.012C170.095 114.035 170.118 114.057 170.14 114.057C170.162 114.08 170.185 114.102 170.207 114.124C170.23 114.147 170.252 114.169 170.274 114.192C170.297 114.214 170.319 114.236 170.341 114.236C170.386 114.259 170.409 114.281 170.453 114.304C170.521 114.326 170.565 114.348 170.633 114.371C170.655 114.371 170.655 114.371 170.677 114.393C170.901 114.483 171.17 114.55 171.506 114.595C171.618 114.617 171.73 114.639 171.842 114.662C172.088 114.707 172.334 114.729 172.603 114.751C172.804 114.774 173.006 114.796 173.23 114.796C173.297 114.796 173.364 114.796 173.431 114.818C175.043 114.908 176.879 114.818 178.111 114.572C178.38 114.505 178.626 114.438 178.827 114.371C178.895 114.348 178.984 114.304 179.029 114.281C179.051 114.259 179.096 114.236 179.119 114.236C179.186 114.214 179.23 114.169 179.275 114.124C179.387 114.057 179.432 113.968 179.432 113.833Z" fill="url(#paint1_linear_12085_132333)"/>
</g>
<defs>
<filter id="filter0_d_12085_132333" x="0" y="0" width="320" height="200" filterUnits="userSpaceOnUse" color-interpolation-filters="sRGB">
<feFlood flood-opacity="0" result="BackgroundImageFix"/>
<feColorMatrix in="SourceAlpha" type="matrix" values="0 0 0 0 0 0 0 0 0 0 0 0 0 0 0 0 0 0 127 0" result="hardAlpha"/>
<feOffset dy="5"/>
<feGaussianBlur stdDeviation="5"/>
<feComposite in2="hardAlpha" operator="out"/>
<feColorMatrix type="matrix" values="0 0 0 0 0.254902 0 0 0 0 0.254902 0 0 0 0 0.254902 0 0 0 0.12 0"/>
<feBlend mode="normal" in2="BackgroundImageFix" result="effect1_dropShadow_12085_132333"/>
<feBlend mode="normal" in="SourceGraphic" in2="effect1_dropShadow_12085_132333" result="shape"/>
</filter>
<linearGradient id="paint0_linear_12085_132333" x1="10" y1="145.4" x2="238.924" y2="-30.1082" gradientUnits="userSpaceOnUse">
<stop stop-color="#0575E6"/>
<stop offset="1" stop-color="#021B79"/>
</linearGradient>
<linearGradient id="paint1_linear_12085_132333" x1="139.891" y1="111.8" x2="184.384" y2="98.0828" gradientUnits="userSpaceOnUse">
<stop stop-color="#0575E6"/>
<stop offset="1" stop-color="#021B79"/>
</linearGradient>
</defs>
</svg>
