<svg width="320" height="200" viewBox="0 0 320 200" fill="none" xmlns="http://www.w3.org/2000/svg">
<g filter="url(#filter0_d_12085_132264)">
<rect x="10" y="5" width="300" height="180" rx="16" fill="url(#paint0_linear_12085_132264)"/>
<path d="M219.932 94.9674C219.932 96.5317 219.867 98.1613 219.736 99.6604C217.455 128.797 194.446 152.002 165.376 154.674C163.616 154.804 161.791 154.935 159.966 154.935C150.645 154.935 141.846 152.784 133.959 149.003C113.883 139.291 100 118.759 100 94.9674C100 66.3525 120.01 42.4307 146.865 36.434C151.101 35.4563 155.469 35 159.966 35C191.904 35 217.977 59.9647 219.802 91.4475C219.867 92.0342 219.867 92.6208 219.867 93.2726C219.932 93.7941 219.932 94.3807 219.932 94.9674Z" fill="white" stroke="#0071BC" stroke-width="0.5" stroke-miterlimit="10"/>
<path opacity="0.05" d="M194.45 85.9725L219.479 102.92C219.609 101.877 219.74 100.769 219.805 99.6607C219.935 98.0963 220.001 96.532 220.001 94.9676C220.001 94.381 220.001 93.7943 220.001 93.2077L199.99 79.5195L198.947 78.7373H121.578L126.01 85.9725H194.45Z" fill="black"/>
<path opacity="0.05" d="M218.885 106.244C215.952 121.692 207.153 135.055 194.834 143.854L172.086 128.406V97.966H164.264V128.406L190.793 146.527C189.359 147.374 187.925 148.156 186.491 148.873L156.377 128.406V97.966H148.556V128.406L181.602 151.024C176.518 152.98 171.173 154.283 165.568 154.739C163.808 154.87 161.983 155 160.158 155C150.837 155 142.038 152.849 134.151 149.069L112.055 128.341L118.573 126.711L142.298 126.842L142.755 99.4L143.146 92.23L133.629 92.0345L129.067 88.3843H192.813L218.885 106.244Z" fill="black"/>
<path d="M111.93 124.3H140.479V97.966H133.57L127.638 88.3843H192.819L186.952 97.9008H180.043V124.3H208.592V128.341H172.026V97.9008H164.27V128.341H156.252V97.9008H148.431V128.341H111.93V124.3Z" fill="black"/>
<path d="M126.076 85.9725L121.578 78.7373H198.882L194.45 85.9725H126.076Z" fill="black"/>
<path d="M160.56 50.6436L162.842 57.618L169.881 57.5528L164.08 61.8548L166.361 68.4382L160.495 64.2666L154.89 68.4382L157.041 61.7897L151.305 57.618H158.409L160.56 50.6436Z" fill="black"/>
<path d="M184.803 65.3096L185.976 68.9598H189.626L186.628 71.1759L187.801 74.6306L184.737 72.4144L181.804 74.6306L182.912 71.1759L179.914 68.9598H183.629L184.803 65.3096Z" fill="black"/>
<path d="M137.935 65.3096L139.109 68.9598H142.759L139.76 71.1759L140.934 74.6306L137.87 72.4144L134.937 74.6306L136.045 71.1759L133.047 68.9598H136.762L137.935 65.3096Z" fill="black"/>
</g>
<defs>
<filter id="filter0_d_12085_132264" x="0" y="0" width="320" height="200" filterUnits="userSpaceOnUse" color-interpolation-filters="sRGB">
<feFlood flood-opacity="0" result="BackgroundImageFix"/>
<feColorMatrix in="SourceAlpha" type="matrix" values="0 0 0 0 0 0 0 0 0 0 0 0 0 0 0 0 0 0 127 0" result="hardAlpha"/>
<feOffset dy="5"/>
<feGaussianBlur stdDeviation="5"/>
<feComposite in2="hardAlpha" operator="out"/>
<feColorMatrix type="matrix" values="0 0 0 0 0.254902 0 0 0 0 0.254902 0 0 0 0 0.254902 0 0 0 0.12 0"/>
<feBlend mode="normal" in2="BackgroundImageFix" result="effect1_dropShadow_12085_132264"/>
<feBlend mode="normal" in="SourceGraphic" in2="effect1_dropShadow_12085_132264" result="shape"/>
</filter>
<linearGradient id="paint0_linear_12085_132264" x1="10" y1="145.4" x2="238.924" y2="-30.1082" gradientUnits="userSpaceOnUse">
<stop stop-color="#0575E6"/>
<stop offset="1" stop-color="#021B79"/>
</linearGradient>
</defs>
</svg>
