<svg width="320" height="200" viewBox="0 0 320 200" fill="none" xmlns="http://www.w3.org/2000/svg">
<g filter="url(#filter0_d_12085_132243)">
<rect x="10" y="5" width="300" height="180" rx="16" fill="url(#paint0_linear_12085_132243)"/>
<g clip-path="url(#clip0_12085_132243)">
<path d="M209.862 94.7589V94.9538C209.862 96.2751 209.808 97.5856 209.705 98.8798C207.824 123.069 188.642 142.411 164.507 144.567C163.022 144.702 161.515 144.772 159.997 144.772C159.005 144.772 158.014 144.745 157.038 144.68C156.984 144.675 156.93 144.675 156.875 144.67C130.789 143.061 110.133 121.423 110.133 94.9538C110.133 68.485 132.458 45.1353 159.997 45.1353C187.537 45.1353 209.753 67.3316 209.862 94.7589Z" fill="white" stroke="white" stroke-width="0.5" stroke-miterlimit="10"/>
<path opacity="0.05" d="M209.768 95.0676V95.1813C209.768 96.5026 209.714 97.813 209.611 99.1072C207.73 123.296 188.549 142.639 164.413 144.794C162.928 144.929 161.421 145 159.904 145C158.912 145 157.92 144.973 156.944 144.908C156.89 144.902 156.836 144.902 156.782 144.897L156.69 144.756L139.633 129.876L144.229 68.1655L180.836 68.5987L209.763 95.0676H209.768Z" fill="white"/>
<path d="M164.997 62.4961H139.93V129.892L155.426 129.93C155.426 129.93 155.409 108.725 155.409 107.008C155.409 104.674 155.393 95.7446 155.393 95.6147C155.393 95.4847 155.42 95.4522 155.301 95.3602C155.187 95.2627 154.347 94.4721 153.843 93.9793C153.333 93.4866 152.938 93.0533 152.813 92.8205C152.683 92.5931 152.651 92.4794 152.477 91.9541C152.309 91.4288 152.049 90.6328 151.843 89.7393C151.632 88.8458 151.453 88.0823 151.474 87.3675C151.496 86.6473 151.507 86.5878 151.539 86.4361C151.567 86.2845 151.648 86.4199 151.751 86.5011C151.854 86.5769 154.629 88.9 154.911 89.1328C155.193 89.3657 155.339 89.474 155.426 89.3874C155.512 89.3007 156.976 88.2014 157.464 87.909C157.951 87.6166 158.304 87.3567 158.531 87.335C158.754 87.3134 160.591 87.0264 161.539 86.9127C162.493 86.8098 162.586 86.8044 162.732 86.7827C162.867 86.7665 162.819 86.7827 162.667 86.8802C162.52 86.9831 161.474 87.622 160.417 88.7754C159.366 89.9289 158.537 90.844 158.109 92.2411C157.675 93.6328 157.745 94.0876 157.74 94.4559C157.74 94.8241 157.74 94.8674 157.832 94.9107C157.93 94.9486 157.572 93.6111 160.51 89.9668C161.691 88.4993 162.417 88.0119 163.306 87.3675C164.195 86.7231 164.791 86.3278 165.252 86.1762C165.707 86.0246 166.613 85.7647 167.409 85.6618C168.212 85.5589 168.748 85.4723 168.201 85.4019C167.653 85.3315 167.182 85.2936 167.041 85.2394C166.905 85.1961 166.716 85.0391 166.586 84.8549C166.455 84.6708 166.466 84.4596 166.526 84.2809C166.586 84.0968 167.008 83.0788 167.073 82.8676C167.144 82.651 167.117 82.6185 166.916 82.8026C166.726 82.9922 165.875 83.799 165.491 83.9885C165.106 84.1781 164.938 84.308 164.065 84.1185C163.193 83.929 162.542 83.6745 161.995 83.4091C161.453 83.1438 161.279 83.1113 161.236 82.8351C161.193 82.5535 161.062 81.8821 161.052 81.1023C161.052 80.8695 161.1 80.7828 161.296 80.7124C161.485 80.6474 167.865 78.763 168.201 78.6601C168.537 78.5572 168.922 78.5139 169.23 78.6276C169.545 78.7413 169.913 78.8767 170.022 79.2666C170.136 79.6619 171.393 83.4254 171.816 84.8549C172.244 86.2791 172.39 86.8206 172.455 87.0047C172.52 87.1942 172.607 87.4054 172.423 87.6166C172.239 87.8278 166.472 93.9035 166.19 94.1634C165.908 94.4234 165.87 94.4396 165.913 94.7753C165.962 95.1057 166.602 101.961 166.645 102.216C166.688 102.476 166.922 103.51 166.981 103.965C167.539 108.08 169.393 110.111 169.805 110.111C170.304 110.111 187.117 108.318 187.193 86.761C187.268 64.1315 168.813 62.4907 164.997 62.4907V62.4961ZM157.187 87.3026C157.1 87.465 156.141 88.2989 155.729 88.456C155.323 88.6184 155.323 88.6455 155.035 88.4235C154.743 88.2069 153.751 87.3567 152.754 86.4361C151.762 85.5102 150.938 84.6654 150.748 84.4488C150.558 84.2268 150.466 83.9235 150.623 83.642C150.786 83.3658 151.388 82.4723 152.206 81.8442C152.466 81.6546 153.008 81.2864 153.268 81.5897C153.534 81.8929 156.287 85.743 157.1 86.9181C157.231 87.113 157.285 87.1401 157.193 87.308L157.187 87.3026ZM161.447 85.9542C161.567 86.1546 161.491 86.0842 161.111 86.1762C160.732 86.2683 158.304 86.669 158.011 86.6906C157.713 86.7123 157.767 86.7015 157.615 86.5282C157.366 86.2791 157.057 85.9 156.58 85.2448C156.109 84.5842 155.399 83.6149 154.911 82.938C154.423 82.2611 153.8 81.151 153.691 80.8803C153.588 80.6149 153.626 80.5825 153.756 80.3388C154.006 79.9002 154.651 79.272 155.182 78.9254C155.713 78.5789 156.13 78.4164 156.488 78.2865C156.846 78.1565 156.97 78.2486 157.09 78.4164C157.214 78.5789 158.488 80.707 159.22 81.9471C159.946 83.1871 161.317 85.7593 161.436 85.9596L161.447 85.9542ZM162.932 79.5969C162.651 79.6727 160.884 80.2413 160.656 80.3334C160.423 80.4308 160.347 80.4958 160.32 80.7828C160.293 81.0752 160.363 81.9904 160.38 82.2611C160.417 82.559 160.407 82.4669 160.255 82.2286C160.109 81.9958 159.529 81.0915 158.77 79.8893C158.011 78.6872 157.783 78.2865 157.675 78.0265C157.561 77.772 157.512 77.837 158.103 77.3172C158.688 76.8027 159.323 76.5049 160.016 76.2233C160.716 75.9472 160.981 75.8768 161.296 75.8713C161.61 75.8659 161.632 75.9255 161.724 76.0934C161.821 76.2666 162.97 78.8713 163.122 79.207C163.279 79.5428 163.225 79.5157 162.938 79.5969H162.932ZM167.946 78.1511C167.751 78.2052 164.39 79.1529 164.206 79.207C164.022 79.2666 163.978 79.3045 163.87 79.0771C163.74 78.7684 162.678 76.6944 162.472 76.2179C162.271 75.7414 162.152 75.541 162.385 75.4165C162.613 75.2919 163.588 74.9075 164.179 74.7396C164.764 74.5771 165.767 74.2468 166 74.1656C166.233 74.0844 166.38 74.0519 166.455 74.2306C166.531 74.4093 167.962 77.6204 168.033 77.8262C168.109 78.0374 168.136 78.0969 167.941 78.1511H167.946Z" fill="#03947E"/>
<path d="M164.997 62.4961H139.93V129.892L155.426 129.93C155.426 129.93 155.409 108.724 155.409 107.008C155.409 104.674 155.393 95.7446 155.393 95.6146C155.393 95.4847 155.42 95.4522 155.301 95.3601C155.187 95.2626 154.347 94.472 153.843 93.9793C153.333 93.4865 152.938 93.0533 152.813 92.8205C152.683 92.593 152.651 92.4793 152.477 91.954C152.309 91.4288 152.049 90.6328 151.843 89.7393C151.632 88.8458 151.453 88.0823 151.474 87.3675C151.491 86.9397 151.496 86.7448 151.512 86.6256C151.512 86.5931 151.512 86.5715 151.512 86.5444C151.529 86.2736 151.534 86.2087 151.556 86.1004C151.583 85.9433 151.67 86.0841 151.778 86.1708C151.881 86.252 154.754 88.6509 155.046 88.8891C155.339 89.1328 155.491 89.2465 155.583 89.1545C155.675 89.0678 157.182 87.9361 157.686 87.6274C158.195 87.3242 158.553 87.0534 158.786 87.0318C159.019 87.0101 160.916 86.7123 161.892 86.5985C162.878 86.4902 162.976 86.4848 163.122 86.4686C163.263 86.4523 163.214 86.4686 163.052 86.5715C163.008 86.5985 162.894 86.6744 162.726 86.7935C162.857 86.7772 162.802 86.7935 162.651 86.891C162.575 86.9397 162.293 87.1184 161.903 87.4162C161.892 87.4271 161.881 87.4379 161.865 87.4433C161.518 87.7411 161.122 88.1039 160.732 88.5371C159.642 89.7285 158.786 90.6707 158.342 92.1165C157.962 93.3457 157.957 93.8656 157.962 94.2284C158.168 93.4973 158.748 92.1436 160.499 89.9721C161.648 88.548 162.363 88.0498 163.214 87.4325C163.377 87.3133 163.55 87.1942 163.718 87.0697C164.64 86.409 165.258 85.9975 165.729 85.8459C166.152 85.7051 166.949 85.4776 167.702 85.3531C167.377 85.3152 167.128 85.2881 167.035 85.2502C166.9 85.2069 166.71 85.0498 166.58 84.8657C166.45 84.6816 166.461 84.4704 166.52 84.2917C166.58 84.1076 167.003 83.0896 167.068 82.8784C167.095 82.7863 167.111 82.7268 167.095 82.7051C167.079 82.6726 167.019 82.7051 166.911 82.8134C166.824 82.9001 166.602 83.1112 166.347 83.3387C166.336 83.3387 166.331 83.3495 166.331 83.3549C166.027 83.6203 165.691 83.8964 165.485 83.9993C165.1 84.1888 164.932 84.3188 164.06 84.1293C163.187 83.9398 162.537 83.6852 161.989 83.4199C161.447 83.1546 161.274 83.1221 161.23 82.8459C161.187 82.5643 161.057 81.8929 161.046 81.1131C161.046 80.8802 161.095 80.7936 161.29 80.7232C161.306 80.7232 161.339 80.707 161.399 80.6907C161.399 80.6636 161.399 80.6311 161.399 80.5987C161.399 80.355 161.447 80.2683 161.648 80.1979C161.848 80.133 168.439 78.1835 168.786 78.0752C169.138 77.9723 169.534 77.9236 169.854 78.0427C170.179 78.1619 170.558 78.3027 170.672 78.7034C170.791 79.1095 172.092 83.0029 172.526 84.4813C172.965 85.9542 173.117 86.5119 173.187 86.7014C173.252 86.891 173.344 87.1184 173.155 87.335C172.965 87.557 166.997 93.8385 166.71 94.1038C166.423 94.3746 166.374 94.3908 166.428 94.7374C166.483 95.084 167.144 102.167 167.182 102.432C167.225 102.703 167.464 103.77 167.529 104.241C167.951 107.338 169.073 109.288 169.816 110.127C170.558 110.1 187.111 108.172 187.193 86.7772C187.268 64.1477 168.813 62.5069 164.997 62.5069V62.4961ZM157.404 86.9993C157.388 87.0372 157.323 87.1021 157.23 87.1888C157.23 87.2213 157.214 87.2538 157.187 87.2971C157.1 87.4595 156.141 88.2935 155.729 88.4505C155.323 88.6129 155.323 88.64 155.035 88.418C154.743 88.2014 153.751 87.3512 152.754 86.4307C151.762 85.5047 150.938 84.66 150.748 84.4433C150.586 84.2538 150.493 83.9939 150.575 83.7556C150.51 83.5824 150.515 83.3928 150.618 83.2141C150.786 82.9325 151.409 82.0012 152.255 81.3513C152.526 81.1618 153.084 80.7774 153.355 81.0914C153.632 81.4001 156.477 85.3856 157.312 86.5931C157.442 86.7935 157.502 86.826 157.409 86.9938L157.404 86.9993ZM161.81 85.6022C161.93 85.8079 161.854 85.7376 161.458 85.835C161.442 85.835 161.415 85.8459 161.388 85.8513C161.415 85.9 161.436 85.9325 161.447 85.9542C161.567 86.1545 161.491 86.0841 161.111 86.1762C160.732 86.2682 158.304 86.6689 158.011 86.6906C157.713 86.7123 157.767 86.7014 157.615 86.5282C157.366 86.2791 157.057 85.9 156.58 85.2448C156.109 84.5841 155.399 83.6148 154.911 82.938C154.423 82.2611 153.8 81.151 153.691 80.8802C153.588 80.6149 153.626 80.5824 153.756 80.3387C153.756 80.3279 153.767 80.3225 153.773 80.3171C153.691 80.0842 153.735 80.0409 153.859 79.8026C154.109 79.3478 154.786 78.7034 155.333 78.346C155.881 77.9832 156.315 77.8207 156.688 77.6853C157.057 77.55 157.187 77.6474 157.312 77.8153C157.442 77.9778 158.764 80.1817 159.518 81.4651C160.266 82.743 161.686 85.4072 161.816 85.6184L161.81 85.6022ZM163.35 79.0337C163.301 79.0499 163.203 79.077 163.073 79.1095C163.09 79.1528 163.111 79.1853 163.117 79.207C163.274 79.5427 163.22 79.5156 162.932 79.5969C162.651 79.6727 160.884 80.2413 160.656 80.3333C160.656 80.3333 160.645 80.3333 160.64 80.3441C160.417 80.4362 160.347 80.5012 160.32 80.7828C160.309 80.9019 160.32 81.1185 160.331 81.3622C160.347 81.7087 160.374 82.0986 160.38 82.2557C160.417 82.5535 160.407 82.4614 160.255 82.2232C160.109 81.9903 159.529 81.086 158.77 79.8839C158.011 78.6817 157.783 78.281 157.675 78.0211C157.572 77.7937 157.523 77.8207 157.93 77.4579C157.919 77.4417 157.913 77.42 157.908 77.4038C157.789 77.1384 157.735 77.2088 158.347 76.6727C158.949 76.1366 159.604 75.8334 160.325 75.541C161.046 75.2594 161.323 75.1782 161.642 75.1728C161.968 75.1728 161.989 75.2323 162.087 75.4056C162.184 75.5843 163.371 78.281 163.534 78.6222C163.697 78.9687 163.637 78.9362 163.344 79.0229L163.35 79.0337ZM168.537 77.5391C168.493 77.5554 168.287 77.615 167.995 77.6962C168.022 77.7666 168.044 77.8099 168.049 77.8261C168.125 78.0373 168.152 78.0969 167.957 78.151C167.762 78.2052 164.401 79.1528 164.217 79.207C164.033 79.2665 163.989 79.3045 163.881 79.077C163.751 78.7684 162.688 76.6944 162.483 76.2179C162.282 75.7413 162.163 75.541 162.396 75.4164C162.466 75.3785 162.591 75.319 162.759 75.254C162.634 74.9616 162.602 74.8154 162.786 74.7125C163.025 74.5825 164.033 74.1872 164.645 74.0139C165.247 73.8461 166.282 73.4995 166.526 73.4183C166.77 73.3316 166.922 73.2991 167.003 73.4833C167.079 73.6674 168.558 76.9868 168.634 77.198C168.71 77.4146 168.743 77.4796 168.542 77.5337L168.537 77.5391Z" fill="url(#paint1_linear_12085_132243)"/>
<path d="M164.997 62.7668C166.58 62.7668 174.775 63.07 180.716 69.0212C184.862 73.1745 186.949 79.1473 186.922 86.7663C186.846 107.273 171.48 109.656 169.93 109.835C169.122 108.865 168.168 106.91 167.794 104.197C167.756 103.905 167.648 103.396 167.567 102.984C167.512 102.719 167.464 102.486 167.447 102.383C167.426 102.259 167.247 100.38 167.09 98.7228C166.867 96.3997 166.716 94.8618 166.694 94.6886C166.676 94.5658 166.726 94.4503 166.846 94.342L166.894 94.2987C167.133 94.0767 173.052 87.8548 173.355 87.5082C173.637 87.1887 173.518 86.8476 173.453 86.6472L173.436 86.6039C173.399 86.501 173.323 86.2519 173.193 85.8024C173.095 85.4667 172.959 85.0118 172.781 84.3999C172.499 83.4361 171.865 81.4975 171.399 80.0787C171.16 79.3423 170.97 78.7629 170.927 78.6275C170.775 78.0968 170.271 77.9127 169.941 77.7881C169.783 77.7286 169.61 77.7015 169.415 77.7015C169.193 77.7015 168.954 77.7394 168.699 77.8152C168.661 77.8261 168.537 77.864 168.347 77.9181C168.347 77.9073 168.342 77.891 168.336 77.8802C168.477 77.8423 168.569 77.8152 168.596 77.8044C168.705 77.7773 168.835 77.7232 168.905 77.5878C168.987 77.4362 168.932 77.29 168.873 77.1221C168.824 76.9813 168.358 75.9145 167.561 74.1167C167.388 73.7214 167.258 73.4344 167.236 73.3803C167.149 73.1908 166.992 73.0879 166.797 73.0879C166.683 73.0879 166.569 73.1204 166.428 73.1691C166.201 73.2449 165.165 73.5915 164.558 73.7593C163.935 73.938 162.911 74.3388 162.645 74.4795C162.352 74.642 162.347 74.8911 162.407 75.1077C162.347 75.1348 162.298 75.1564 162.26 75.1781C162.141 74.9886 162.006 74.9073 161.67 74.9073H161.637C161.258 74.9127 160.938 75.0156 160.222 75.2918C159.426 75.6113 158.775 75.9308 158.168 76.4669L158.076 76.5481C157.632 76.938 157.474 77.0734 157.604 77.3874C157.545 77.447 157.491 77.4957 157.447 77.5499C157.344 77.4362 157.198 77.3333 156.97 77.3333C156.857 77.3333 156.732 77.3604 156.586 77.4145C156.157 77.5715 155.729 77.7394 155.176 78.1022C154.64 78.4488 153.908 79.1257 153.61 79.6672L153.572 79.7376C153.474 79.9271 153.415 80.0516 153.469 80.2791C153.371 80.4632 153.328 80.5823 153.366 80.7718C153.274 80.7231 153.176 80.7015 153.062 80.7015C152.732 80.7015 152.38 80.9181 152.071 81.1401C151.268 81.752 150.623 82.6455 150.363 83.0841C150.244 83.2953 150.217 83.5335 150.277 83.761C150.217 84.048 150.304 84.362 150.526 84.622C150.651 84.7627 151.062 85.196 151.642 85.7645C151.626 85.7645 151.61 85.7645 151.594 85.7645C151.474 85.7645 151.323 85.8403 151.285 86.0515C151.258 86.1815 151.247 86.2627 151.236 86.5497C151.236 86.566 151.236 86.5768 151.236 86.5985C151.22 86.723 151.214 86.9071 151.198 87.362C151.176 88.1201 151.366 88.9378 151.572 89.8042C151.783 90.7085 152.044 91.5099 152.217 92.046L152.233 92.0893C152.396 92.5821 152.439 92.7121 152.575 92.9557C152.705 93.1994 153.068 93.611 153.653 94.1795C154.141 94.6561 154.976 95.4413 155.128 95.5712V95.62V96.5405C155.128 98.9015 155.144 105.123 155.144 107.013C155.144 108.616 155.155 127.19 155.16 129.664L140.206 129.627V62.7668H165.003M163.653 79.2286C163.653 79.2286 163.675 79.2773 163.691 79.3044C163.615 79.326 163.545 79.3477 163.469 79.3693C163.469 79.3423 163.458 79.3152 163.447 79.2935L163.507 79.2773C163.556 79.2665 163.599 79.2502 163.648 79.234M161.138 80.4632C161.138 80.4632 161.138 80.4848 161.138 80.5011C160.857 80.6256 160.791 80.8368 160.786 81.1184C160.797 81.8332 160.9 82.4505 160.954 82.7863L160.97 82.8946C161.03 83.2682 161.263 83.3765 161.642 83.5606C161.713 83.5931 161.789 83.631 161.875 83.6743C162.542 83.9992 163.22 84.2321 164.006 84.4054C164.315 84.4703 164.553 84.5028 164.754 84.5028C165.111 84.5028 165.323 84.3945 165.545 84.2862L165.61 84.2537C165.8 84.1617 166.081 83.9505 166.499 83.5823H166.51L166.52 83.566C166.385 83.9126 166.298 84.1292 166.266 84.2158C166.168 84.5191 166.201 84.8007 166.363 85.0335C166.439 85.1364 166.531 85.2339 166.623 85.3151C166.244 85.4126 165.903 85.5154 165.653 85.5967C165.138 85.7645 164.499 86.1869 163.567 86.8584C163.469 86.9288 163.371 86.9992 163.274 87.0696L163.062 87.2212L162.997 87.2645C162.163 87.8656 161.436 88.3854 160.293 89.8096C159.545 90.7356 159.008 91.5262 158.613 92.1868C159.046 90.7897 159.881 89.88 160.938 88.7266C161.258 88.3746 161.615 88.0334 162.027 87.6761C162.054 87.6598 162.071 87.6436 162.087 87.6327C162.396 87.3999 162.634 87.2429 162.748 87.167L162.813 87.1237C162.851 87.0966 162.878 87.0804 162.9 87.0642C162.976 87.0208 163.025 86.9667 163.052 86.9125C163.106 86.8746 163.144 86.8476 163.176 86.8313L163.209 86.8096C163.241 86.788 163.274 86.7717 163.296 86.7555C163.361 86.7176 163.534 86.6093 163.474 86.4089L163.404 86.2086H163.198C163.198 86.2086 163.149 86.2086 163.095 86.214C163.041 86.2194 162.997 86.2248 162.905 86.2356C162.754 86.2519 162.483 86.279 161.865 86.3494C161.762 86.3602 161.648 86.3764 161.523 86.3927C161.61 86.3656 161.691 86.3223 161.74 86.2194C161.762 86.1707 161.773 86.1165 161.767 86.0732C161.892 86.0515 162.027 86.0245 162.098 85.8728C162.174 85.7158 162.092 85.5804 162.038 85.483C162 85.418 161.805 85.0606 161.556 84.6057C161.263 84.0696 160.889 83.3765 160.526 82.7213L160.596 82.64C160.683 82.5426 160.672 82.4505 160.651 82.261L160.64 82.0931C160.629 81.9036 160.613 81.622 160.602 81.3621C160.586 81.1184 160.586 80.9181 160.591 80.8206C160.602 80.7159 160.652 80.6437 160.743 80.604L160.791 80.5823C160.862 80.5552 160.981 80.5119 161.128 80.4632M158.315 86.9342C158.195 86.9992 158.06 87.0858 157.913 87.1779C157.8 87.2483 157.68 87.3241 157.539 87.4053C157.491 87.4324 157.436 87.4703 157.371 87.5136C157.388 87.4919 157.404 87.4703 157.415 87.454C157.436 87.4215 157.453 87.3836 157.469 87.3457C157.577 87.2428 157.615 87.1833 157.632 87.1508C157.67 87.0858 157.691 87.0208 157.702 86.9667C157.745 86.9775 157.789 86.9829 157.848 86.9829C157.892 86.9829 157.946 86.9829 158.022 86.9721C158.071 86.9721 158.174 86.9559 158.315 86.9342ZM155.594 88.8078C155.55 88.8403 155.512 88.8728 155.48 88.8999C155.464 88.889 155.442 88.8728 155.42 88.8565C155.474 88.8457 155.529 88.8295 155.594 88.8078ZM164.997 62.5068H139.93V129.903L155.426 129.941C155.426 129.941 155.409 108.735 155.409 107.019C155.409 104.685 155.393 95.7553 155.393 95.6254C155.393 95.4954 155.42 95.4629 155.301 95.3709C155.187 95.2734 154.347 94.4828 153.843 93.99C153.333 93.4973 152.938 93.064 152.813 92.8312C152.683 92.6038 152.651 92.49 152.477 91.9648C152.309 91.4395 152.049 90.6435 151.843 89.75C151.632 88.8565 151.453 88.093 151.474 87.3782C151.491 86.9504 151.496 86.7555 151.512 86.6364C151.512 86.6039 151.512 86.5822 151.512 86.5551C151.529 86.2844 151.534 86.2194 151.556 86.1111C151.567 86.0624 151.577 86.0407 151.599 86.0407C151.642 86.0407 151.702 86.1219 151.773 86.1815C151.875 86.2627 154.748 88.6616 155.041 88.8999C155.263 89.084 155.409 89.1977 155.502 89.1977C155.529 89.1977 155.556 89.1869 155.577 89.1652C155.67 89.0786 157.176 87.9468 157.68 87.6381C158.19 87.3349 158.548 87.0642 158.781 87.0425C159.014 87.0208 160.911 86.723 161.886 86.6093C162.873 86.501 162.97 86.4956 163.117 86.4793C163.149 86.4793 163.171 86.4793 163.182 86.4793C163.231 86.4793 163.171 86.501 163.046 86.5822C163.003 86.6093 162.889 86.6851 162.721 86.8042C162.748 86.8042 162.77 86.8042 162.781 86.8042C162.819 86.8042 162.759 86.8259 162.645 86.9071C162.569 86.9559 162.287 87.1345 161.897 87.4324C161.886 87.4432 161.875 87.454 161.859 87.4595C161.512 87.7573 161.117 88.1201 160.726 88.5533C159.637 89.7446 158.781 90.6868 158.336 92.1327C157.957 93.3619 157.951 93.8817 157.957 94.2445C158.163 93.5135 158.743 92.1597 160.493 89.9883C161.642 88.5641 162.358 88.0659 163.209 87.4486C163.371 87.3295 163.545 87.2104 163.713 87.0858C164.634 86.4252 165.252 86.0136 165.724 85.862C166.146 85.7212 166.943 85.4938 167.697 85.3692C167.371 85.3313 167.122 85.3043 167.03 85.2664C166.894 85.223 166.705 85.066 166.575 84.8819C166.445 84.6978 166.455 84.4866 166.515 84.3079C166.575 84.1238 166.997 83.1057 167.062 82.8946C167.09 82.8025 167.106 82.7429 167.09 82.7213C167.09 82.7213 167.084 82.7104 167.073 82.7104C167.046 82.7104 166.992 82.7483 166.905 82.835C166.819 82.9216 166.596 83.1328 166.342 83.3602C166.331 83.3602 166.325 83.3711 166.325 83.3765C166.022 83.6418 165.686 83.918 165.48 84.0209C165.231 84.1454 165.068 84.2429 164.743 84.2429C164.569 84.2429 164.352 84.2158 164.054 84.1509C163.182 83.9613 162.531 83.7068 161.984 83.4415C161.442 83.1761 161.268 83.1436 161.225 82.8675C161.182 82.5859 161.052 81.9144 161.041 81.1347C161.041 80.9018 161.09 80.8152 161.285 80.7448C161.301 80.7448 161.333 80.7285 161.393 80.7123C161.393 80.6852 161.393 80.6527 161.393 80.6202C161.393 80.3765 161.442 80.2899 161.642 80.2195C161.843 80.1545 168.434 78.2051 168.781 78.0968C168.987 78.0372 169.203 77.9939 169.415 77.9939C169.567 77.9939 169.713 78.0156 169.843 78.0643C170.168 78.1834 170.548 78.3242 170.661 78.725C170.781 79.1311 172.081 83.0245 172.515 84.5028C172.954 85.9757 173.106 86.5335 173.176 86.723C173.241 86.9125 173.333 87.14 173.144 87.3566C172.954 87.5786 166.987 93.8601 166.699 94.1254C166.412 94.3962 166.363 94.4124 166.417 94.759C166.466 95.1001 167.133 102.188 167.171 102.454C167.214 102.725 167.453 103.791 167.518 104.262C167.941 107.36 169.062 109.309 169.805 110.149C170.548 110.121 187.1 108.194 187.182 86.7988C187.258 64.1693 168.802 62.5285 164.987 62.5285L164.997 62.5068ZM164.038 79.2665C163.978 79.2665 163.935 79.2231 163.875 79.0932C163.745 78.7845 162.683 76.7105 162.477 76.234C162.277 75.7575 162.157 75.5571 162.39 75.4326C162.461 75.3947 162.586 75.3351 162.754 75.2701C162.629 74.9777 162.596 74.8315 162.781 74.7286C163.019 74.5987 164.027 74.2034 164.64 74.0301C165.241 73.8622 166.277 73.5157 166.52 73.4344C166.634 73.3911 166.726 73.364 166.802 73.364C166.889 73.364 166.949 73.4019 166.992 73.4994C167.068 73.6835 168.548 77.003 168.623 77.2142C168.699 77.4308 168.732 77.4957 168.531 77.5499C168.488 77.5661 168.282 77.6257 167.989 77.7069C168.016 77.7773 168.038 77.8206 168.044 77.8369C168.119 78.0481 168.146 78.1076 167.951 78.1618C167.756 78.2159 164.396 79.1636 164.212 79.2177C164.136 79.2448 164.081 79.261 164.044 79.261L164.038 79.2665ZM160.39 82.4559C160.39 82.4559 160.336 82.3693 160.255 82.2393C160.109 82.0065 159.529 81.1022 158.77 79.9C158.011 78.6979 157.783 78.2972 157.675 78.0372C157.572 77.8098 157.523 77.8369 157.93 77.4741C157.919 77.4578 157.913 77.4362 157.908 77.4199C157.789 77.1546 157.735 77.225 158.347 76.6889C158.949 76.1528 159.604 75.8496 160.325 75.5571C161.046 75.2756 161.323 75.1943 161.642 75.1889C161.653 75.1889 161.664 75.1889 161.675 75.1889C161.968 75.1889 161.995 75.2539 162.087 75.4218C162.184 75.6005 163.371 78.2972 163.534 78.6383C163.697 78.9849 163.637 78.9524 163.344 79.039C163.296 79.0553 163.198 79.0823 163.068 79.1148C163.084 79.1582 163.106 79.1906 163.111 79.2123C163.268 79.548 163.214 79.521 162.927 79.6022C162.645 79.678 160.878 80.2466 160.651 80.3386C160.651 80.3386 160.64 80.3386 160.634 80.3495C160.412 80.4415 160.342 80.5065 160.315 80.7881C160.304 80.9072 160.315 81.1238 160.325 81.3675C160.342 81.7141 160.369 82.104 160.374 82.261C160.39 82.391 160.396 82.4505 160.385 82.4505L160.39 82.4559ZM157.854 86.7068C157.724 86.7068 157.729 86.6689 157.61 86.5389C157.361 86.2898 157.052 85.9107 156.575 85.2555C156.103 84.5949 155.393 83.6256 154.905 82.9487C154.417 82.2664 153.794 81.1617 153.686 80.891C153.583 80.6256 153.621 80.5932 153.751 80.3495C153.751 80.3386 153.762 80.3332 153.767 80.3278C153.686 80.095 153.729 80.0516 153.854 79.8134C154.103 79.3585 154.781 78.7141 155.328 78.3567C155.875 77.9939 156.309 77.8315 156.683 77.6961C156.802 77.6528 156.9 77.6311 156.976 77.6311C157.138 77.6311 157.225 77.7123 157.306 77.8261C157.436 77.9885 158.759 80.1924 159.512 81.4758C160.26 82.7538 161.68 85.418 161.81 85.6292C161.93 85.8349 161.854 85.7645 161.458 85.862C161.442 85.862 161.415 85.8728 161.388 85.8783C161.415 85.927 161.436 85.9595 161.447 85.9811C161.567 86.1815 161.491 86.1111 161.111 86.2032C160.732 86.2952 158.304 86.6959 158.011 86.7176C157.941 86.7176 157.892 86.7284 157.854 86.7284V86.7068ZM155.333 88.5912C155.247 88.5912 155.176 88.5425 155.03 88.4342C154.737 88.2176 153.745 87.3674 152.748 86.4468C151.756 85.5209 150.932 84.6761 150.743 84.4595C150.58 84.27 150.488 84.0101 150.569 83.7718C150.504 83.5985 150.51 83.409 150.613 83.2303C150.781 82.9487 151.404 82.0173 152.249 81.3675C152.445 81.2267 152.797 80.9885 153.073 80.9885C153.176 80.9885 153.274 81.0209 153.35 81.1076C153.626 81.4162 156.472 85.4017 157.306 86.6093C157.436 86.8096 157.496 86.8421 157.404 87.01C157.388 87.0479 157.323 87.1129 157.23 87.1995C157.23 87.232 157.214 87.2645 157.187 87.3078C157.1 87.4703 156.141 88.3042 155.729 88.4612C155.529 88.5425 155.426 88.5858 155.339 88.5858L155.333 88.5912Z" fill="url(#paint2_linear_12085_132243)"/>
<path d="M161.874 87.4327C161.527 87.7305 161.131 88.0933 160.741 88.5265C159.652 89.7178 158.795 90.66 158.351 92.1059C157.972 93.3351 157.966 93.8549 157.972 94.2177C157.836 94.7159 157.869 94.9217 157.831 94.9055C157.733 94.8621 157.733 94.8188 157.739 94.4506C157.739 94.0824 157.668 93.6329 158.107 92.2358C158.535 90.8387 159.365 89.9236 160.416 88.7702C160.942 88.1908 161.462 87.7467 161.874 87.4272V87.4327Z" fill="#EA5300"/>
<path d="M167.407 85.6671C166.605 85.77 165.705 86.0299 165.25 86.1815C164.87 86.3061 164.388 86.6039 163.727 87.0696C164.648 86.409 165.266 85.9974 165.737 85.8458C166.16 85.705 166.957 85.4776 167.71 85.353C167.862 85.3693 168.025 85.3909 168.198 85.4126C168.74 85.4884 168.209 85.5696 167.407 85.6725V85.6671Z" fill="#EA5300"/>
<path d="M163.058 86.5663C163.015 86.5933 162.901 86.6691 162.733 86.7883H162.722C162.581 86.8045 162.483 86.8099 161.529 86.9182C160.581 87.0265 158.749 87.3135 158.521 87.3406C158.294 87.3623 157.947 87.6222 157.454 87.9146C156.971 88.207 155.502 89.3063 155.416 89.3929C155.329 89.4796 155.183 89.3713 154.901 89.1384C154.619 88.9056 151.838 86.5825 151.741 86.5067C151.638 86.4309 151.557 86.2901 151.529 86.4417C151.519 86.4796 151.513 86.5121 151.508 86.55C151.524 86.2793 151.529 86.2143 151.551 86.106C151.578 85.9489 151.665 86.0897 151.773 86.1764C151.876 86.2576 154.749 88.6565 155.042 88.8947C155.334 89.1384 155.486 89.2521 155.578 89.1601C155.67 89.0734 157.177 87.9417 157.681 87.633C158.191 87.3298 158.548 87.059 158.782 87.0374C159.015 87.0157 160.912 86.7179 161.887 86.6042C162.874 86.4959 162.971 86.4904 163.118 86.4742C163.258 86.458 163.21 86.4742 163.047 86.5771L163.058 86.5663Z" fill="#EA5300"/>
<path d="M166.431 94.7321C166.479 95.0732 167.146 102.162 167.184 102.427C167.227 102.698 167.466 103.764 167.531 104.236C167.954 107.333 169.076 109.282 169.818 110.122H169.802C169.395 110.122 167.536 108.091 166.983 103.976C166.918 103.521 166.685 102.486 166.647 102.227C166.604 101.972 165.965 95.1111 165.916 94.7862C165.872 94.4505 165.916 94.4343 166.192 94.1743C166.474 93.9144 172.241 87.8387 172.425 87.6275C172.61 87.4163 172.523 87.1997 172.458 87.0156C172.387 86.8315 172.241 86.2954 171.818 84.8658C171.395 83.4417 170.138 79.6728 170.024 79.2775C169.916 78.8876 169.547 78.7522 169.233 78.6385C168.924 78.5248 168.544 78.5681 168.203 78.671C167.889 78.7685 162.284 80.4255 161.406 80.6908C161.406 80.6638 161.406 80.6313 161.406 80.5988C161.406 80.3551 161.455 80.2685 161.656 80.1981C161.856 80.1331 168.447 78.1837 168.794 78.0754C169.146 77.9725 169.542 77.9237 169.862 78.0429C170.187 78.162 170.566 78.3028 170.68 78.7035C170.799 79.1096 172.1 83.0031 172.534 84.4814C172.973 85.9543 173.124 86.512 173.195 86.7015C173.26 86.8911 173.352 87.1185 173.162 87.3351C172.973 87.5571 167.005 93.8386 166.718 94.1039C166.431 94.3747 166.382 94.3909 166.436 94.7375L166.431 94.7321Z" fill="#EA5300"/>
<path d="M157.403 86.9993C157.387 87.0372 157.322 87.1022 157.23 87.1888C157.246 87.1076 157.186 87.0534 157.1 86.9126C156.292 85.743 153.533 81.8874 153.268 81.5842C153.008 81.281 152.466 81.6546 152.205 81.8387C151.387 82.4669 150.78 83.3603 150.623 83.6365C150.606 83.6744 150.585 83.7123 150.574 83.7502C150.509 83.5769 150.514 83.3874 150.617 83.2087C150.785 82.9271 151.409 81.9958 152.254 81.3459C152.525 81.1564 153.083 80.7719 153.354 81.086C153.631 81.3947 156.476 85.3802 157.311 86.5877C157.441 86.7881 157.501 86.8206 157.409 86.9884L157.403 86.9993Z" fill="#EA5300"/>
<path d="M161.456 85.8405C161.456 85.8405 161.413 85.8513 161.386 85.8567C161.093 85.3261 159.89 83.0788 159.228 81.9417C158.497 80.7016 157.218 78.5735 157.098 78.411C156.979 78.2486 156.849 78.1511 156.497 78.2811C156.134 78.411 155.716 78.5735 155.19 78.9201C154.67 79.2612 154.031 79.8731 153.776 80.3117C153.694 80.0789 153.738 80.0356 153.863 79.7973C154.112 79.3424 154.789 78.698 155.337 78.3406C155.884 77.9778 156.318 77.8154 156.692 77.68C157.06 77.5446 157.19 77.6421 157.315 77.81C157.445 77.9724 158.768 80.1763 159.521 81.4597C160.269 82.7377 161.689 85.4019 161.819 85.6131C161.938 85.8188 161.863 85.7485 161.467 85.8459L161.456 85.8405Z" fill="#EA5300"/>
<path d="M163.353 79.0337C163.304 79.05 163.207 79.0771 163.077 79.1096C162.817 78.5356 161.814 76.2504 161.722 76.0934C161.63 75.9255 161.608 75.8659 161.294 75.8714C160.985 75.8714 160.719 75.9472 160.014 76.2233C159.321 76.4995 158.687 76.7973 158.101 77.3172C158.036 77.3713 157.982 77.4201 157.933 77.4634C157.922 77.4471 157.917 77.4255 157.911 77.4092C157.792 77.1439 157.738 77.2143 158.35 76.6782C158.952 76.1421 159.608 75.8389 160.329 75.5464C161.05 75.2649 161.326 75.1836 161.646 75.1782C161.971 75.1782 161.993 75.2378 162.09 75.4111C162.188 75.5898 163.375 78.2865 163.537 78.6276C163.7 78.9742 163.64 78.9417 163.348 79.0283L163.353 79.0337Z" fill="#EA5300"/>
<path d="M168.531 77.5394C168.488 77.5556 168.282 77.6152 167.989 77.6964C167.712 77.0466 166.536 74.3932 166.466 74.2362C166.39 74.0575 166.244 74.09 166.011 74.1712C165.778 74.2524 164.775 74.5827 164.189 74.7452C163.772 74.8643 163.16 75.0917 162.759 75.2596C162.634 74.9672 162.601 74.821 162.786 74.7181C163.024 74.5881 164.032 74.1928 164.645 74.0196C165.246 73.8517 166.282 73.5051 166.526 73.4239C166.769 73.3373 166.921 73.3048 167.002 73.4889C167.078 73.673 168.558 76.9924 168.634 77.2036C168.71 77.4202 168.742 77.4852 168.542 77.5394H168.531Z" fill="#EA5300"/>
</g>
</g>
<defs>
<filter id="filter0_d_12085_132243" x="0" y="0" width="320" height="200" filterUnits="userSpaceOnUse" color-interpolation-filters="sRGB">
<feFlood flood-opacity="0" result="BackgroundImageFix"/>
<feColorMatrix in="SourceAlpha" type="matrix" values="0 0 0 0 0 0 0 0 0 0 0 0 0 0 0 0 0 0 127 0" result="hardAlpha"/>
<feOffset dy="5"/>
<feGaussianBlur stdDeviation="5"/>
<feComposite in2="hardAlpha" operator="out"/>
<feColorMatrix type="matrix" values="0 0 0 0 0.254902 0 0 0 0 0.254902 0 0 0 0 0.254902 0 0 0 0.12 0"/>
<feBlend mode="normal" in2="BackgroundImageFix" result="effect1_dropShadow_12085_132243"/>
<feBlend mode="normal" in="SourceGraphic" in2="effect1_dropShadow_12085_132243" result="shape"/>
</filter>
<linearGradient id="paint0_linear_12085_132243" x1="10" y1="95" x2="310" y2="95" gradientUnits="userSpaceOnUse">
<stop stop-color="#FE8C00"/>
<stop offset="1" stop-color="#F83600"/>
</linearGradient>
<linearGradient id="paint1_linear_12085_132243" x1="163.561" y1="125.777" x2="163.561" y2="78.5572" gradientUnits="userSpaceOnUse">
<stop stop-color="#FF2200"/>
<stop offset="0.11" stop-color="#FE2B00"/>
<stop offset="0.3" stop-color="#FE4400"/>
<stop offset="0.54" stop-color="#FD6E00"/>
<stop offset="0.81" stop-color="#FCA700"/>
<stop offset="1" stop-color="#FCD200"/>
</linearGradient>
<linearGradient id="paint2_linear_12085_132243" x1="139.93" y1="96.2102" x2="187.193" y2="96.2102" gradientUnits="userSpaceOnUse">
<stop stop-color="#FF2C00" stop-opacity="0"/>
<stop offset="0.59" stop-color="#FDF400" stop-opacity="0"/>
<stop offset="0.62" stop-color="#FCF100" stop-opacity="0.03"/>
<stop offset="0.65" stop-color="#FCEA00" stop-opacity="0.11"/>
<stop offset="0.69" stop-color="#FCDF00" stop-opacity="0.23"/>
<stop offset="0.73" stop-color="#FCD100" stop-opacity="0.4"/>
<stop offset="0.75" stop-color="#FCD600" stop-opacity="0.5"/>
<stop offset="0.79" stop-color="#FCDF00" stop-opacity="0.65"/>
<stop offset="0.83" stop-color="#FCE600" stop-opacity="0.78"/>
<stop offset="0.87" stop-color="#FCEC00" stop-opacity="0.87"/>
<stop offset="0.91" stop-color="#FCF000" stop-opacity="0.94"/>
<stop offset="0.95" stop-color="#FCF300" stop-opacity="0.99"/>
<stop offset="1" stop-color="#FDF400"/>
</linearGradient>
<clipPath id="clip0_12085_132243">
<rect x="110" y="45" width="100" height="100" rx="50" fill="white"/>
</clipPath>
</defs>
</svg>
