<svg width="60" height="60" viewBox="0 0 60 60" fill="none" xmlns="http://www.w3.org/2000/svg">
<g clip-path="url(#clip0_11909_41804)">
<path d="M8 31H6C5.46957 31 4.96086 31.2107 4.58579 31.5858C4.21071 31.9609 4 32.4696 4 33V36C4 36.5304 4.21071 37.0391 4.58579 37.4142C4.96086 37.7893 5.46957 38 6 38H8C8.53043 38 9.03914 37.7893 9.41421 37.4142C9.78929 37.0391 10 36.5304 10 36V33C10 32.4696 9.78929 31.9609 9.41421 31.5858C9.03914 31.2107 8.53043 31 8 31ZM6 36V33H8V36H6ZM8 40H6C5.46957 40 4.96086 40.2107 4.58579 40.5858C4.21071 40.9609 4 41.4696 4 42V45C4 45.5304 4.21071 46.0391 4.58579 46.4142C4.96086 46.7893 5.46957 47 6 47H8C8.53043 47 9.03914 46.7893 9.41421 46.4142C9.78929 46.0391 10 45.5304 10 45V42C10 41.4696 9.78929 40.9609 9.41421 40.5858C9.03914 40.2107 8.53043 40 8 40ZM6 45V42H8V45H6Z" fill="url(#paint0_linear_11909_41804)"/>
<path d="M59.414 42.149L58 40.733C57.7717 40.5063 57.492 40.3379 57.1847 40.2424C56.8775 40.1468 56.5517 40.1268 56.235 40.184L48.652 32.6C48.7097 32.283 48.6898 31.9568 48.5938 31.6492C48.4979 31.3416 48.3288 31.0619 48.101 30.834L46.687 29.42C46.491 29.226 46.2572 29.0745 46 28.975C45.9934 28.4489 45.7798 27.9466 45.4054 27.5769C45.0311 27.2072 44.5261 27 44 27H40V21C40 20.2044 39.6839 19.4413 39.1213 18.8787C38.5587 18.3161 37.7956 18 37 18H36.642C34.5 13.46 29.582 10.367 24 10.035V8.721L29.682 6.828C30.0657 6.70032 30.3995 6.4551 30.6361 6.12708C30.8727 5.79907 31 5.40492 31 5.0005C31 4.59608 30.8727 4.20193 30.6361 3.87392C30.3995 3.5459 30.0657 3.30068 29.682 3.173L24 1.28V1C24 0.734784 23.8946 0.48043 23.7071 0.292893C23.5196 0.105357 23.2652 0 23 0C22.7348 0 22.4804 0.105357 22.2929 0.292893C22.1054 0.48043 22 0.734784 22 1V10.035C16.418 10.367 11.5 13.46 9.358 18H9C8.20435 18 7.44129 18.3161 6.87868 18.8787C6.31607 19.4413 6 20.2044 6 21V27H2C1.46957 27 0.960859 27.2107 0.585786 27.5858C0.210714 27.9609 0 28.4696 0 29L0 49C0 49.5304 0.210714 50.0391 0.585786 50.4142C0.960859 50.7893 1.46957 51 2 51H33.606L29.725 54.878C29.4387 55.1539 29.2101 55.484 29.0528 55.8491C28.8954 56.2143 28.8123 56.6071 28.8084 57.0047C28.8045 57.4022 28.8798 57.7966 29.03 58.1648C29.1801 58.533 29.4021 58.8675 29.683 59.149C29.9638 59.4304 30.2979 59.6531 30.6657 59.804C31.0336 59.955 31.4278 60.0311 31.8254 60.0281C32.223 60.025 32.616 59.9428 32.9814 59.7862C33.3469 59.6296 33.6775 59.4017 33.954 59.116L43.323 49.758C43.4904 49.8048 43.6632 49.83 43.837 49.833C44.1001 49.8333 44.3607 49.7818 44.6039 49.6812C44.847 49.5806 45.068 49.4331 45.254 49.247L46.57 47.931L47.529 48.89C47.4682 49.207 47.4866 49.5341 47.5828 49.8422C47.6789 50.1503 47.8497 50.4299 48.08 50.656L49.494 52.07C49.8691 52.4449 50.3777 52.6556 50.908 52.6556C51.4383 52.6556 51.9469 52.4449 52.322 52.07L59.414 44.98C59.5998 44.7943 59.7472 44.5738 59.8478 44.3311C59.9483 44.0884 60.0001 43.8282 60.0001 43.5655C60.0001 43.3028 59.9483 43.0426 59.8478 42.7999C59.7472 42.5572 59.5998 42.3367 59.414 42.151V42.149ZM41.614 40.149L47.491 34.272L54.562 41.343L48.686 47.22L41.614 40.149ZM39.6 39.342L38.18 37.928L45.272 30.836L46.687 32.25L39.6 39.342ZM40 33.28L38 35.28V33H40V33.28ZM44 29.305C43.953 29.344 43.9 29.378 43.858 29.422L41.54 31.739C41.3544 31.5091 41.1199 31.3234 40.8535 31.1956C40.5871 31.0677 40.2955 31.0009 40 31H38C37.4696 31 36.9609 31.2107 36.5858 31.5858C36.2107 31.9609 36 32.4696 36 33V36C36.0015 36.4026 36.1246 36.7954 36.353 37.127C36.1909 37.4952 36.1436 37.9037 36.2172 38.2993C36.2909 38.6948 36.4822 39.0589 36.766 39.344L38.181 40.758C38.4078 40.9873 38.6874 41.1575 38.9953 41.2536C39.3032 41.3496 39.63 41.3687 39.947 41.309L40.906 42.268L39.59 43.581C39.3413 43.8316 39.1635 44.1436 39.0744 44.4852C38.9854 44.8268 38.9883 45.1859 39.083 45.526L35.608 49H35V47C34.9989 46.6505 34.906 46.3074 34.7305 46.0052C34.555 45.7029 34.303 45.4521 34 45.278V29H44V29.305ZM29 45V32C29.2652 32 29.5196 31.8946 29.7071 31.7071C29.8946 31.5196 30 31.2652 30 31C30 30.7348 29.8946 30.4804 29.7071 30.2929C29.5196 30.1054 29.2652 30 29 30H18C17.7348 30 17.4804 30.1054 17.2929 30.2929C17.1054 30.4804 17 30.7348 17 31C17 31.2652 17.1054 31.5196 17.2929 31.7071C17.4804 31.8946 17.7348 32 18 32V45H15V27.4C14.9999 27.19 15.066 26.9854 15.1888 26.8151C15.3115 26.6447 15.4848 26.5173 15.684 26.451L22.715 24.1C22.9092 24.0349 23.1189 24.0318 23.315 24.091L31.284 26.482C31.4902 26.543 31.6711 26.6693 31.7995 26.8418C31.9279 27.0144 31.9968 27.2239 31.996 27.439V45H29ZM20 45V32H22V45H20ZM24 32H27V45H24V32ZM28.841 5L24 6.612V3.388L28.841 5ZM23 12C25.2525 11.9414 27.4824 12.4624 29.4757 13.513C31.4691 14.5636 33.1592 16.1087 34.384 18H11.616C12.8408 16.1087 14.5309 14.5636 16.5243 13.513C18.5176 12.4624 20.7475 11.9414 23 12ZM8 21C8 20.7348 8.10536 20.4804 8.29289 20.2929C8.48043 20.1054 8.73478 20 9 20H37C37.2652 20 37.5196 20.1054 37.7071 20.2929C37.8946 20.4804 38 20.7348 38 21V27H33.964C33.8829 26.4367 33.6419 25.9085 33.2697 25.478C32.8975 25.0475 32.4096 24.7327 31.864 24.571L23.896 22.18C23.304 22.0016 22.6712 22.0114 22.085 22.208L15.053 24.553C14.5204 24.7301 14.0484 25.0535 13.691 25.4862C13.3336 25.919 13.1053 26.4436 13.032 27H8V21ZM2 29H13V45.276C12.6967 45.4503 12.4446 45.7014 12.269 46.004C12.0935 46.3067 12.0007 46.6501 12 47V49H2V29ZM14 47H33V49H14V47ZM32.535 57.7C32.4423 57.7921 32.3323 57.865 32.2113 57.9144C32.0904 57.9638 31.9608 57.9889 31.8301 57.988C31.6994 57.9872 31.5702 57.9605 31.4499 57.9095C31.3296 57.8586 31.2205 57.7843 31.129 57.691C31.0349 57.6003 30.96 57.4916 30.9089 57.3713C30.8577 57.251 30.8314 57.1217 30.8314 56.991C30.8314 56.8603 30.8577 56.731 30.9089 56.6107C30.96 56.4904 31.0349 56.3817 31.129 56.291L36.706 50.719C36.7217 50.7054 36.7364 50.6906 36.75 50.675L40.301 47.127L41.707 48.534L32.535 57.7ZM43.835 47.827L41 45L42.32 43.68L45.155 46.514L43.835 47.827ZM50.91 50.651L49.494 49.24L56.586 42.149L58 43.563L50.91 50.651Z" fill="url(#paint1_linear_11909_41804)"/>
</g>
<defs>
<linearGradient id="paint0_linear_11909_41804" x1="4" y1="43.48" x2="11.0595" y2="42.2622" gradientUnits="userSpaceOnUse">
<stop stop-color="#0575E6"/>
<stop offset="1" stop-color="#021B79"/>
</linearGradient>
<linearGradient id="paint1_linear_11909_41804" x1="-3.6335e-07" y1="46.822" x2="60.0099" y2="19.2303" gradientUnits="userSpaceOnUse">
<stop stop-color="#0575E6"/>
<stop offset="1" stop-color="#021B79"/>
</linearGradient>
<clipPath id="clip0_11909_41804">
<rect width="60" height="60" fill="white"/>
</clipPath>
</defs>
</svg>
