<svg width="168" height="250" viewBox="0 0 168 250" fill="none" xmlns="http://www.w3.org/2000/svg">
<path d="M134.995 247.786C134.156 248.813 132.756 249.466 130.89 249.746C129.211 249.746 127.718 249.279 126.226 248.346C124.733 247.413 123.707 244.894 122.96 240.789L115.777 205.338L102.529 135.368C104.302 134.995 106.261 134.715 108.407 134.715C110.459 134.715 112.605 134.902 114.657 135.182L125.106 189.572L125.852 193.397L126.879 198.901L125.479 203.379C125.479 203.565 125.479 203.659 125.573 203.752C125.573 203.845 125.573 203.939 125.666 204.032C125.666 204.125 125.759 204.125 125.759 204.219C125.759 204.312 125.852 204.405 125.946 204.405C126.039 204.498 126.132 204.592 126.226 204.685C126.319 204.778 126.412 204.872 126.505 204.965C126.599 205.058 126.692 205.151 126.785 205.151C126.972 205.245 127.065 205.338 127.252 205.431C127.532 205.525 127.718 205.618 127.998 205.711C128.091 205.711 128.091 205.711 128.185 205.805L129.491 212.708L129.957 215.041L134.715 239.95C135.741 244.148 135.835 246.667 134.995 247.786ZM167.554 203.659C165.036 217.093 141.619 220.172 129.584 212.802C126.039 210.656 123.52 207.577 122.774 203.659L125.852 193.49L142.832 137.98C136.488 138.074 129.304 135.462 119.695 134.062C110.179 132.663 99.3571 130.983 91.3339 140.126C88.162 143.671 93.3864 150.109 83.684 154.587L83.4973 154.68L83.3108 154.587C73.6083 150.109 78.8327 143.671 75.6608 140.126C73.6083 137.794 71.4626 136.208 69.1303 135.088C66.9845 134.062 64.4656 135.368 63.9991 137.701L54.8564 185.373L53.0838 193.21L43.7545 241.909C43.288 245.267 42.1685 247.507 40.4892 248.719C38.8099 249.932 37.4106 250.305 36.1978 249.746C34.9849 249.746 33.7721 249.093 32.6526 247.786C31.4398 246.48 31.0666 244.241 31.5331 241.163L36.4777 215.6L36.9441 213.361C24.7228 219.985 2.42562 216.72 0 203.659L20.2447 137.514C16.5129 136.674 12.8745 134.529 9.14277 130.144C31.9063 142.272 61.76 104.861 83.404 133.876C87.6955 128.185 92.2668 125.013 97.0248 123.613C98.7974 123.054 99.7304 121.281 99.4505 119.508L83.4973 35.3581L67.0777 121.188C66.518 121.094 65.8649 121.001 65.2119 120.908C64.932 120.908 64.5588 120.815 64.2789 120.815C64.1857 120.815 63.999 120.815 63.9058 120.815C63.4393 120.815 62.9728 120.815 62.5064 120.815C62.0399 120.815 61.5734 120.815 61.0137 120.815C60.7338 120.815 60.4539 120.815 60.174 120.908C58.3082 121.001 56.3491 121.281 54.3899 121.747L76.9668 4.29147C77.4332 2.14573 78.1796 0.932922 79.1126 0.55975C80.0455 0.186578 80.8851 0 81.6314 0H84.8967C85.643 0 86.3895 0.0932874 87.4157 0.373167C88.3486 0.653046 89.0949 1.95915 89.5613 4.29147L111.952 121.468L112.325 123.333C115.217 123.893 118.482 124.919 122.214 126.505C134.155 131.637 146.937 136.021 157.665 130.33C154.027 134.529 150.668 136.674 147.03 137.514L167.554 203.659ZM42.0753 203.472L40.116 197.222L22.4837 139.66L2.89218 203.472C2.79888 206.364 12.5947 207.764 22.4837 207.764C28.5478 207.764 34.7051 207.204 38.4368 206.084C40.7691 205.525 42.1686 204.592 42.0753 203.472ZM47.3929 133.876C41.8886 134.715 37.5972 135.928 37.5972 135.928C32.7459 136.954 28.6411 137.887 24.816 137.98L41.2356 191.717L41.9819 187.892L51.5911 138.167C51.9643 135.648 49.9118 133.409 47.3929 133.876ZM164.756 203.472L145.164 139.66L126.972 198.901L125.573 203.379C125.573 203.565 125.573 203.659 125.666 203.752C125.666 203.845 125.666 203.939 125.759 204.032C125.759 204.125 125.852 204.125 125.852 204.219C125.852 204.312 125.946 204.405 126.039 204.405C126.132 204.498 126.226 204.592 126.319 204.685C126.412 204.778 126.505 204.872 126.599 204.965C126.692 205.058 126.785 205.151 126.879 205.151C127.065 205.245 127.158 205.338 127.345 205.431C127.625 205.525 127.812 205.618 128.091 205.711C128.185 205.711 128.185 205.711 128.278 205.805C129.211 206.178 130.33 206.458 131.73 206.644C132.196 206.737 132.663 206.831 133.129 206.924C134.156 207.111 135.182 207.204 136.301 207.297C137.141 207.39 137.98 207.484 138.913 207.484C139.193 207.484 139.473 207.484 139.753 207.577C146.47 207.95 154.12 207.577 159.251 206.551C160.371 206.271 161.397 205.991 162.237 205.711C162.517 205.618 162.89 205.431 163.076 205.338C163.17 205.245 163.356 205.151 163.45 205.151C163.729 205.058 163.916 204.872 164.103 204.685C164.569 204.405 164.756 204.032 164.756 203.472Z" fill="url(#paint0_linear_11834_41594)"/>
<defs>
<linearGradient id="paint0_linear_11834_41594" x1="0.13994" y1="124.919" x2="167.527" y2="124.919" gradientUnits="userSpaceOnUse">
<stop stop-color="#0575E6"/>
<stop offset="1" stop-color="#021B79"/>
</linearGradient>
</defs>
</svg>
