<svg width="650" height="141" viewBox="0 0 650 141" fill="none" xmlns="http://www.w3.org/2000/svg">
<path d="M149.004 1.00002C153.11 1.00002 157.015 1.80119 160.721 3.40348C164.426 5.00576 167.63 7.20891 170.434 9.91277C173.238 12.6166 175.442 15.9213 177.044 19.6266C178.646 23.3319 179.548 27.2375 179.548 31.3433V108.654C179.548 112.86 178.746 116.865 177.144 120.671C175.542 124.476 173.339 127.681 170.635 130.485C167.831 133.289 164.626 135.492 160.921 137.094C157.216 138.797 153.21 139.598 149.004 139.598H137.487C136.386 139.598 135.585 139.298 134.984 138.596C134.383 137.895 134.083 137.094 134.083 136.193V135.792C134.083 134.891 134.383 134.09 134.984 133.389C135.585 132.688 136.386 132.388 137.487 132.388H149.004C152.309 132.388 155.413 131.787 158.217 130.485C161.021 129.183 163.525 127.581 165.728 125.478C167.931 123.375 169.633 120.871 170.835 117.967C172.137 115.063 172.738 111.958 172.738 108.654V31.3433C172.738 28.0386 172.137 24.9342 170.835 22.1302C169.533 19.3262 167.831 16.8226 165.728 14.7196C163.525 12.6166 161.021 10.9142 158.217 9.71247C155.413 8.41061 152.309 7.80973 149.004 7.80973L137.487 7.60943H136.887H128.575C126.372 7.60943 124.369 8.41058 122.666 10.113C120.964 11.8154 120.063 13.8183 120.063 16.1216V135.893C120.063 136.794 119.762 137.595 119.161 138.296C118.56 138.997 117.759 139.297 116.858 139.297C115.756 139.297 114.955 138.997 114.354 138.296C113.754 137.595 113.453 136.794 113.453 135.893V16.0215C113.453 11.8155 114.955 8.2103 117.859 5.30616C120.764 2.40201 124.369 0.899902 128.575 0.899902H137.087H137.487H149.004V1.00002Z" fill="#0D1A46"/>
<path d="M198.979 5.80685C198.679 4.70528 198.779 3.70384 199.18 2.60226C199.58 1.50069 200.381 1 201.583 1C202.084 1 202.885 1.20029 203.786 1.50071C204.688 1.80114 205.288 2.8026 205.589 4.40489L228.421 121.973L251.254 4.80542C251.655 3.00285 252.256 1.90129 253.157 1.50071C254.058 1.20029 254.759 1 255.46 1C256.662 1.10014 257.463 1.60086 257.863 2.50214C258.264 3.40343 258.164 4.90559 257.663 7.20888L232.728 135.893C232.327 137.795 231.626 138.797 230.725 139.197C229.823 139.498 229.022 139.698 228.522 139.698C228.121 139.698 227.42 139.498 226.419 139.197C225.417 138.897 224.816 137.795 224.516 135.893L198.979 5.80685Z" fill="#0D1A46"/>
<path d="M306.934 1C311.14 1 315.146 1.80117 318.851 3.40346C322.557 5.00574 325.761 7.20889 328.565 9.91275C331.369 12.6166 333.572 15.9213 335.074 19.6266C336.677 23.3319 337.478 27.3376 337.478 31.5436V108.854C337.478 113.06 336.677 117.066 335.074 120.771C333.472 124.476 331.269 127.681 328.565 130.485C325.861 133.289 322.557 135.492 318.851 137.094C315.146 138.797 311.14 139.598 306.934 139.598C302.728 139.598 298.722 138.797 295.017 137.094C291.312 135.492 288.107 133.189 285.303 130.485C282.499 127.781 280.296 124.476 278.794 120.771C277.192 117.066 276.391 113.06 276.391 108.854V31.5436C276.391 27.3376 277.192 23.3319 278.794 19.6266C280.396 15.9213 282.6 12.7168 285.303 9.91275C288.007 7.10875 291.312 5.00574 295.017 3.40346C298.722 1.80117 302.628 1 306.934 1ZM330.668 31.5436C330.668 28.2389 330.067 25.1344 328.765 22.3304C327.464 19.5264 325.761 17.0229 323.658 14.8197C321.455 12.6166 318.951 10.9142 316.147 9.71245C313.343 8.41059 310.239 7.80971 306.934 7.80971C303.63 7.80971 300.525 8.41059 297.721 9.71245C294.917 11.0143 292.414 12.7167 290.21 14.8197C288.007 17.0229 286.305 19.5264 285.103 22.3304C283.801 25.1344 283.2 28.2389 283.2 31.5436V108.854C283.2 112.159 283.801 115.263 285.103 118.167C286.405 121.071 288.107 123.575 290.21 125.778C292.414 127.981 294.917 129.684 297.721 130.885C300.525 132.187 303.63 132.788 306.934 132.788C310.239 132.788 313.343 132.187 316.147 130.885C318.951 129.584 321.455 127.881 323.658 125.778C325.861 123.575 327.564 121.071 328.765 118.167C330.067 115.263 330.668 112.159 330.668 108.854V31.5436Z" fill="#0D1A46"/>
<path d="M408.167 132.688C409.069 132.688 409.87 132.989 410.571 133.589C411.272 134.19 411.572 134.991 411.572 136.093C411.572 136.994 411.272 137.795 410.571 138.496C409.87 139.197 409.069 139.498 408.167 139.498H393.647V139.698C389.24 139.698 385.235 138.897 381.429 137.395C377.624 135.893 374.319 133.79 371.415 131.086C368.511 128.382 366.207 125.177 364.605 121.372C362.903 117.566 362.102 113.561 362.102 109.154V31.6438C362.102 27.5379 362.903 23.6323 364.405 20.0272C365.907 16.422 368.01 13.2175 370.614 10.4135C373.217 7.60948 376.322 5.40632 379.827 3.70389C383.332 2.00146 387.137 1.10019 391.243 0.899902H391.644H392.645H393.647H408.167C409.069 0.899902 409.87 1.20033 410.571 1.90133C411.272 2.60233 411.572 3.40344 411.572 4.30473C411.572 5.4063 411.272 6.20744 410.571 6.8083C409.87 7.40916 409.069 7.70961 408.167 7.70961H393.647V7.90991C393.346 7.90991 393.246 7.90988 393.146 7.80973C393.046 7.70959 392.946 7.70961 392.645 7.70961C389.34 7.70961 386.236 8.31043 383.432 9.61229C380.628 10.9142 378.124 12.6166 375.921 14.7196C373.718 16.9228 372.016 19.4263 370.814 22.3305C369.512 25.2346 368.911 28.339 368.911 31.6438V109.154C368.911 112.359 369.512 115.263 370.714 118.067C371.916 120.871 373.518 123.275 375.521 125.378C377.524 127.481 379.827 129.183 382.531 130.485C385.235 131.787 388.139 132.488 391.343 132.688H408.167Z" fill="#0D1A46"/>
<path d="M495.997 133.89C496.497 136.093 496.597 137.595 496.097 138.196C495.596 138.797 494.895 139.197 493.793 139.297C492.892 139.297 491.991 138.997 491.19 138.496C490.389 137.996 489.788 136.594 489.387 134.29L485.381 114.662L467.556 20.5279L451.733 103.647L450.732 108.053L445.625 134.991C445.324 136.894 444.723 138.096 443.822 138.797C442.921 139.498 442.12 139.698 441.419 139.398C440.718 139.398 440.117 138.997 439.416 138.296C438.715 137.595 438.514 136.393 438.815 134.591L463.951 3.3033C464.251 2.10158 464.652 1.40061 465.153 1.20032C465.653 1.00003 466.154 0.899902 466.555 0.899902H468.357C468.758 0.899902 469.258 0.999996 469.759 1.10014C470.26 1.20028 470.66 2.00144 470.961 3.3033L495.997 133.89Z" fill="#0D1A46"/>
<path d="M574.712 100.542C575.813 104.548 576.114 108.453 575.713 112.259C575.313 116.064 574.411 119.669 573.009 122.874C571.607 126.078 569.705 128.982 567.301 131.486C564.898 133.99 562.094 135.993 558.889 137.395C558.188 137.695 557.387 137.995 556.486 138.396C555.584 138.797 554.783 138.997 554.082 138.997C552.981 138.997 552.08 138.596 551.278 137.895C550.477 137.194 550.077 136.293 550.077 135.191C550.077 133.389 550.978 132.087 552.68 131.386C553.381 131.085 553.982 130.885 554.483 130.685C554.984 130.485 555.585 130.284 556.286 129.984C560.091 127.881 563.095 124.776 565.298 120.671C567.502 116.565 568.403 112.359 568.203 107.952C567.802 102.445 566.4 97.6377 563.896 93.632C561.493 89.6263 558.489 86.1213 555.084 83.0169C551.679 79.9124 547.873 77.0083 543.768 74.4045C539.662 71.8008 535.756 68.8967 531.951 65.8924C528.145 62.8881 524.74 59.3831 521.736 55.5777C518.732 51.7722 516.529 47.1656 515.227 41.6578C514.125 37.6521 513.825 33.7465 514.125 29.9411C514.426 26.1357 515.327 22.5305 516.829 19.3259C518.331 16.1213 520.234 13.2172 522.637 10.7136C525.041 8.21006 527.845 6.20718 531.05 4.80517C535.656 2.70217 540.263 1.60059 544.769 1.60059C551.379 1.60059 557.187 3.50335 562.094 7.40893C567.101 11.3145 570.606 16.4218 572.909 22.7308C573.31 23.8324 573.41 24.6335 573.21 25.2344C573.009 25.8352 572.709 26.2358 572.308 26.5362C571.908 26.8366 571.507 26.9368 571.107 27.0369C570.706 27.1371 570.406 27.137 570.306 27.137C569.605 27.137 568.803 26.9368 567.702 26.6363C566.6 26.3359 565.799 25.2344 565.098 23.5319C563.396 19.3259 560.692 15.8209 557.187 13.117C553.582 10.4132 549.476 9.01119 544.869 9.01119C541.264 9.01119 537.559 10.0126 533.553 12.0155C529.748 14.1185 526.643 17.2229 524.44 21.3288C522.237 25.4346 521.235 29.6406 521.636 34.0469C522.137 39.5548 523.639 44.2615 526.042 48.1671C528.446 51.9725 531.25 55.4776 534.655 58.4818C538.06 61.4861 541.765 64.2901 545.77 66.8938C549.776 69.4975 553.682 72.3016 557.487 75.3059C561.293 78.3101 564.698 81.8151 567.802 85.8209C571.007 90.0269 573.31 94.8337 574.712 100.542Z" fill="#0D1A46"/>
<path d="M649.319 4.60512C649.319 5.30612 649.119 6.00717 648.618 6.90846C648.118 7.80975 647.016 8.11015 645.113 8.01001H599.749C598.847 8.01001 598.046 7.70958 597.345 7.00858C596.644 6.30758 596.344 5.50646 596.344 4.40489C596.344 3.5036 596.644 2.70243 597.345 2.00143C598.046 1.30043 598.847 1 599.749 1H645.314C647.116 1 648.318 1.40058 648.719 2.20173C649.119 3.00287 649.319 3.80398 649.319 4.60512ZM645.314 65.9928C647.116 65.9928 648.318 66.4935 648.719 67.495C649.119 68.4964 649.319 69.1974 649.319 69.5979C649.319 69.9985 649.119 70.6995 648.819 71.7009C648.518 72.7023 647.317 73.2031 645.314 73.2031H599.749C598.847 73.2031 598.046 72.9026 597.345 72.2016C596.644 71.5006 596.344 70.6995 596.344 69.5979C596.344 68.4964 596.644 67.6952 597.345 66.9942C598.046 66.2932 598.847 65.9928 599.749 65.9928H645.314ZM649.319 135.993C649.319 135.292 649.019 134.491 648.518 133.589C648.018 132.688 646.716 132.287 644.713 132.388H599.749C598.847 132.388 598.046 132.688 597.345 133.389C596.644 134.09 596.344 134.891 596.344 135.993C596.344 137.094 596.644 137.895 597.345 138.596C598.046 139.297 598.847 139.598 599.749 139.598H644.713C646.916 139.598 648.318 139.197 648.719 138.296C649.119 137.495 649.319 136.694 649.319 135.993Z" fill="#0D1A46"/>
<path d="M82.3197 78.1101C84.3225 77.6094 86.2252 76.4077 88.2281 74.1044C82.2195 77.309 75.2095 74.8054 68.6001 72.0014C66.5972 71.1001 64.6945 70.5994 63.0922 70.299L62.8919 69.2976L50.4742 4.40492C50.1738 3.10306 49.7732 2.30191 49.2725 2.20176C48.7718 2.10162 48.271 2.00146 47.8704 2.00146H46.0679C45.6673 2.00146 45.1666 2.1016 44.6659 2.30188C44.1651 2.50217 43.7646 3.20321 43.4642 4.40492L31.3469 67.5951C31.3469 67.5951 32.849 67.0944 34.952 67.0944C35.4528 67.0944 35.9534 67.0944 36.354 67.1945C37.4556 67.2947 38.457 66.4936 38.6573 65.4921L46.9692 21.7296L55.7818 68.3962C55.982 69.3977 55.3812 70.3991 54.4799 70.6995C51.8762 71.5007 49.2725 73.2031 46.9692 76.4077C34.952 60.3848 18.4284 81.1144 5.81039 74.4048C7.91339 76.8083 9.91629 78.01 11.9192 78.5107L0.703125 115.163C2.10513 122.373 14.4227 124.176 21.1323 120.571L20.932 121.772L18.2281 135.893C17.9277 137.595 18.128 138.797 18.829 139.598C19.53 140.299 20.1308 140.699 20.8318 140.699C21.5328 141 22.334 140.8 23.2353 140.099C24.1366 139.398 24.7374 138.196 25.0379 136.293L30.1451 109.355L31.1466 104.948L36.1537 78.5107C36.354 77.2089 37.8562 76.5078 38.9578 77.1087C40.2596 77.7096 41.4613 78.6108 42.5629 79.9127C44.2653 81.9156 41.3612 85.4206 46.7689 87.9241H46.869H46.9692C52.3769 85.4206 49.4727 81.9156 51.1752 79.9127C55.5814 74.9055 61.59 75.8068 66.8976 76.608C72.2052 77.4091 76.2109 78.8111 79.7159 78.8111L71.8046 104.548C71.4041 105.85 69.6015 105.75 69.3011 104.448L64.394 78.9113C64.394 78.9113 62.7918 78.5107 60.7889 78.5107C58.7861 78.5107 57.5843 79.1116 57.5843 79.1116L64.5943 116.265L68.6001 135.893C69.0006 138.096 69.6015 139.498 70.4026 140.099C71.2038 140.599 72.0049 140.9 73.0064 140.9C74.1079 140.8 74.8089 140.399 75.3096 139.798C75.8104 139.197 75.7102 137.795 75.2095 135.492L72.6058 121.672L72.4055 120.37C79.0149 124.376 92.0335 122.774 93.4355 115.263L82.3197 78.1101ZM22.0336 116.265C19.9306 116.865 16.6259 117.166 13.221 117.166C7.81328 117.166 2.30542 116.365 2.40557 114.762L13.221 79.412L23.035 111.257L24.1365 114.762C24.1365 115.363 23.3354 115.864 22.0336 116.265ZM29.344 78.6108L24.6373 103.146C24.3368 104.448 22.5343 104.548 22.1337 103.246L14.5228 78.5107C16.6258 78.5107 18.9291 78.01 21.633 77.4091C21.633 77.4091 24.0364 76.8083 27.0407 76.3076C28.4427 76.0071 29.5443 77.2088 29.344 78.6108ZM91.6329 115.463C91.5328 115.564 91.4327 115.664 91.3325 115.664C91.2324 115.664 91.2324 115.764 91.1322 115.764C91.0321 115.864 90.8318 115.864 90.6315 115.964C90.1308 116.164 89.6301 116.265 88.9291 116.465C86.1251 117.066 81.8189 117.266 78.1136 117.066C77.9134 117.066 77.8132 117.066 77.6129 117.066C77.1122 117.066 76.6115 116.966 76.2109 116.966C75.61 116.865 75.0092 116.865 74.5085 116.765C74.2081 116.765 74.0077 116.665 73.7073 116.665C73.0063 116.565 72.3054 116.365 71.8046 116.164H71.7045C71.5042 116.064 71.4041 116.064 71.3039 115.964C71.2038 115.964 71.1036 115.864 71.1036 115.864C71.0035 115.864 71.0035 115.764 70.9033 115.764C70.8032 115.764 70.8032 115.664 70.703 115.664L70.6029 115.564L70.5028 115.463C70.5028 115.463 70.5028 115.363 70.4026 115.363V115.263C70.4026 115.163 70.4026 115.063 70.4026 115.063L71.2037 112.559L81.3182 79.7124L92.1337 115.063C92.0335 115.063 91.9334 115.263 91.6329 115.463Z" fill="url(#paint0_linear_11834_41624)"/>
<defs>
<linearGradient id="paint0_linear_11834_41624" x1="0.853339" y1="71.2587" x2="93.5857" y2="71.2587" gradientUnits="userSpaceOnUse">
<stop stop-color="#0575E6"/>
<stop offset="1" stop-color="#021B79"/>
</linearGradient>
</defs>
</svg>
