<svg xmlns="http://www.w3.org/2000/svg" viewBox="0 0 64 64" id="information"><path d="M16.31345,39.48727a.999.999,0,0,0-.9996-.9996h-.31824V33.45843a.9996.9996,0,1,0-1.9992,0v5.02924h-.31823a.99961.99961,0,0,0,0,1.99921h2.63567A.999.999,0,0,0,16.31345,39.48727Z" fill="#021b79" class="color000000 svgShape"></path><path d="M23.992,33.99728a9.996,9.996,0,1,0-9.996,9.996A10.01249,10.01249,0,0,0,23.992,33.99728Zm-17.99283,0A7.99681,7.99681,0,1,1,13.996,41.99409,8.00742,8.00742,0,0,1,5.9992,33.99728Z" fill="#021b79" class="color000000 svgShape"></path><circle cx="13.996" cy="28.949" r="1.439" fill="#021b79" class="color000000 svgShape"></circle><path d="M58.80626 36.48652L49.61755 27.2978a1.02892 1.02892 0 00-1.4135 0l-4.241-4.241 2.12025-2.12025a2.33462 2.33462 0 001.76736.93755c1.08715.11055 2.11757-1.36219 2.827-1.99822a2.00018 2.00018 0 000-2.82694L42.90343 9.27472a2.00783 2.00783 0 00-2.828-.001l-1.41252 1.4135a2.096 2.096 0 00.35246 3.18129l-8.482 8.482a2.10226 2.10226 0 00-3.18037-.35332l-1.4135 1.41344a2.00025 2.00025 0 000 2.827l7.77522 7.77522a2.00114 2.00114 0 002.827 0l1.4135-1.4135a2.09637 2.09637 0 00-.35393-3.18086l2.1208-2.12074 4.24147 4.24147a.99924.99924 0 000 1.4135l9.18872 9.18872C56.96593 45.76767 62.442 40.31946 58.80626 36.48652zM41.489 10.68724l7.77522 7.77522-1.4135 1.41447-7.77522-7.77522zM35.12821 32.5994L27.353 24.82418l1.4135-1.4135 7.77522 7.77522zM36.18784 28.005l-4.241-4.241 8.482-8.482 4.241 4.241zm4.94774-2.12074l1.414-1.414 4.24117 4.24116-1.41386 1.41411zM57.39277 40.728a2.05008 2.05008 0 01-2.827 0l-8.482-8.482 2.827-2.828 8.482 8.482A2.00906 2.00906 0 0157.39277 40.728zM34.87733 53.30891h-.70968v-2.4092a2.99208 2.99208 0 00-2.98806-2.989H14.69593a2.99292 2.99292 0 00-2.989 2.989v2.4092h-.70968a.9996.9996 0 100 1.9992H34.87733a.9996.9996 0 000-1.9992zm-2.70888 0H13.70609v-2.4092a.99111.99111 0 01.98984-.98983H31.17959a.99027.99027 0 01.98886.98983z" fill="#021b79" class="color000000 svgShape"></path></svg>