<svg width="550" height="550" viewBox="0 0 550 550" fill="none" xmlns="http://www.w3.org/2000/svg">
<path d="M420.781 531H100.781C96.3632 531 92.7812 527.418 92.7812 523V331C92.7812 326.582 96.3632 323 100.781 323H420.781C425.199 323 428.781 326.582 428.781 331V523C428.781 527.418 425.199 531 420.781 531ZM108.781 515H412.781V339H108.781V515Z" fill="url(#paint0_linear_11909_41730)"/>
<path d="M444.781 339H76.7812C72.3632 339 68.7812 335.418 68.7812 331V299C68.7812 294.582 72.3632 291 76.7812 291H444.781C449.199 291 452.781 294.582 452.781 299V331C452.781 335.418 449.199 339 444.781 339ZM84.7812 323H436.781V307H84.7812V323Z" fill="url(#paint1_linear_11909_41730)"/>
<path d="M268.781 307H108.781C104.363 307 100.781 303.418 100.781 299V219C100.781 170.477 140.258 131 188.781 131C237.304 131 276.781 170.477 276.781 219V299C276.781 303.418 273.2 307 268.781 307ZM116.781 291H260.781V219C260.781 179.299 228.482 147 188.781 147C149.08 147 116.781 179.299 116.781 219V291Z" fill="url(#paint2_linear_11909_41730)"/>
<path d="M188.781 147C162.314 147 140.781 125.467 140.781 99C140.781 72.533 162.314 51 188.781 51C215.248 51 236.781 72.533 236.781 99C236.781 125.467 215.248 147 188.781 147ZM188.781 67C171.136 67 156.781 81.355 156.781 99C156.781 116.645 171.136 131 188.781 131C206.426 131 220.781 116.645 220.781 99C220.781 81.355 206.426 67 188.781 67Z" fill="url(#paint3_linear_11909_41730)"/>
<path d="M380.781 483H140.781C136.363 483 132.781 479.418 132.781 475V379C132.781 374.582 136.363 371 140.781 371H380.781C385.199 371 388.781 374.582 388.781 379V475C388.781 479.418 385.199 483 380.781 483ZM148.781 467H372.781V387H148.781V467Z" fill="url(#paint4_linear_11909_41730)"/>
<path d="M436.781 307H308.781C304.363 307 300.781 303.418 300.781 299V267C300.781 262.582 304.363 259 308.781 259H436.781C441.199 259 444.781 262.582 444.781 267V299C444.781 303.418 441.199 307 436.781 307ZM316.781 291H428.781V275H316.781V291Z" fill="url(#paint5_linear_11909_41730)"/>
<path d="M420.781 275H324.781C320.363 275 316.781 271.418 316.781 267V235C316.781 230.582 320.363 227 324.781 227H420.781C425.199 227 428.781 230.582 428.781 235V267C428.781 271.418 425.199 275 420.781 275ZM332.781 259H412.781V243H332.781V259Z" fill="url(#paint6_linear_11909_41730)"/>
<path d="M348.781 419H172.781C168.363 419 164.781 415.418 164.781 411C164.781 406.582 168.363 403 172.781 403H348.781C353.199 403 356.781 406.582 356.781 411C356.781 415.418 353.199 419 348.781 419Z" fill="url(#paint7_linear_11909_41730)"/>
<path d="M348.781 451H172.781C168.363 451 164.781 447.418 164.781 443C164.781 438.582 168.363 435 172.781 435H348.781C353.199 435 356.781 438.582 356.781 443C356.781 447.418 353.199 451 348.781 451Z" fill="url(#paint8_linear_11909_41730)"/>
<path d="M338.788 202.032C336.621 202.032 334.462 201.157 332.884 199.432L278.879 140.412C275.897 137.153 276.121 132.092 279.381 129.11L302.989 107.507C304.554 106.074 306.628 105.319 308.744 105.417C310.864 105.511 312.859 106.443 314.292 108.009L368.297 167.03C369.729 168.595 370.481 170.665 370.387 172.785C370.293 174.905 369.361 176.9 367.795 178.332L344.187 199.934C342.651 201.339 340.717 202.032 338.788 202.032ZM296.084 135.514L339.288 182.73L351.092 171.929L307.888 124.713L296.084 135.514Z" fill="url(#paint9_linear_11909_41730)"/>
<path d="M433.218 115.623C431.051 115.623 428.892 114.748 427.314 113.023L373.309 54.0025C370.327 50.7435 370.551 45.6825 373.811 42.7005L397.418 21.0985C398.982 19.6655 401.06 18.9105 403.173 19.0085C405.293 19.1025 407.288 20.0345 408.721 21.6005L462.727 80.6215C464.159 82.1865 464.911 84.2565 464.817 86.3765C464.723 88.4965 463.791 90.4915 462.225 91.9235L438.617 113.525C437.081 114.929 435.146 115.623 433.218 115.623ZM390.514 49.1045L433.718 96.3205L445.522 85.5195L402.318 38.3035L390.514 49.1045Z" fill="url(#paint10_linear_11909_41730)"/>
<path d="M351.6 168.625C349.434 168.625 347.274 167.75 345.696 166.025L313.293 130.613C310.311 127.354 310.535 122.293 313.795 119.311L384.619 54.5044C387.878 51.5224 392.938 51.7454 395.922 55.0054L428.325 90.4174C431.307 93.6764 431.083 98.7374 427.823 101.719L356.999 166.526C355.463 167.932 353.528 168.625 351.6 168.625ZM330.497 125.714L352.099 149.322L411.12 95.3174L389.517 71.7094L330.497 125.714Z" fill="url(#paint11_linear_11909_41730)"/>
<path d="M354.607 100.81C352.44 100.81 350.281 99.9351 348.703 98.2101L337.902 86.4061C334.92 83.1461 335.144 78.0861 338.404 75.1031C341.664 72.1221 346.724 72.3451 349.707 75.6051L360.508 87.4091C363.49 90.6691 363.266 95.7291 360.006 98.7121C358.471 100.116 356.536 100.81 354.607 100.81Z" fill="url(#paint12_linear_11909_41730)"/>
<path d="M457.24 228.949C456.878 228.949 456.515 228.941 456.151 228.925C449.747 228.641 443.836 225.88 439.508 221.15L369.301 144.423C366.319 141.164 366.543 136.103 369.803 133.121L393.41 111.519C394.974 110.086 397.046 109.328 399.165 109.429C401.285 109.523 403.28 110.455 404.713 112.021L474.921 188.747C483.854 198.511 483.179 213.722 473.415 222.655C468.956 226.736 463.248 228.949 457.24 228.949ZM386.507 139.524L451.314 210.349C452.756 211.925 454.726 212.846 456.861 212.94C458.983 213.035 461.039 212.293 462.616 210.85C465.871 207.872 466.095 202.802 463.118 199.547L398.311 128.723L386.507 139.524Z" fill="url(#paint13_linear_11909_41730)"/>
<path d="M188.781 243C186.312 243 183.982 241.86 182.466 239.912L126.466 167.912C123.754 164.424 124.382 159.398 127.869 156.685C131.357 153.974 136.383 154.6 139.096 158.088L188.781 221.969L238.466 158.088C241.179 154.602 246.206 153.974 249.693 156.685C253.18 159.398 253.809 164.424 251.096 167.912L195.096 239.912C193.58 241.86 191.25 243 188.781 243Z" fill="url(#paint14_linear_11909_41730)"/>
<path d="M188.781 307C184.363 307 180.781 303.418 180.781 299V235C180.781 230.582 184.363 227 188.781 227C193.199 227 196.781 230.582 196.781 235V299C196.781 303.418 193.2 307 188.781 307Z" fill="url(#paint15_linear_11909_41730)"/>
<defs>
<linearGradient id="paint0_linear_11909_41730" x1="92.7812" y1="485.24" x2="355.059" y2="290.348" gradientUnits="userSpaceOnUse">
<stop stop-color="#0575E6"/>
<stop offset="1" stop-color="#021B79"/>
</linearGradient>
<linearGradient id="paint1_linear_11909_41730" x1="68.7812" y1="328.44" x2="100.774" y2="210.706" gradientUnits="userSpaceOnUse">
<stop stop-color="#0575E6"/>
<stop offset="1" stop-color="#021B79"/>
</linearGradient>
<linearGradient id="paint2_linear_11909_41730" x1="100.781" y1="268.28" x2="276.781" y2="187.32" gradientUnits="userSpaceOnUse">
<stop stop-color="#0575E6"/>
<stop offset="1" stop-color="#021B79"/>
</linearGradient>
<linearGradient id="paint3_linear_11909_41730" x1="140.781" y1="125.88" x2="236.781" y2="81.72" gradientUnits="userSpaceOnUse">
<stop stop-color="#0575E6"/>
<stop offset="1" stop-color="#021B79"/>
</linearGradient>
<linearGradient id="paint4_linear_11909_41730" x1="132.781" y1="458.36" x2="280.095" y2="303.47" gradientUnits="userSpaceOnUse">
<stop stop-color="#0575E6"/>
<stop offset="1" stop-color="#021B79"/>
</linearGradient>
<linearGradient id="paint5_linear_11909_41730" x1="300.781" y1="296.44" x2="360.852" y2="213.542" gradientUnits="userSpaceOnUse">
<stop stop-color="#0575E6"/>
<stop offset="1" stop-color="#021B79"/>
</linearGradient>
<linearGradient id="paint6_linear_11909_41730" x1="316.781" y1="264.44" x2="379.837" y2="196.76" gradientUnits="userSpaceOnUse">
<stop stop-color="#0575E6"/>
<stop offset="1" stop-color="#021B79"/>
</linearGradient>
<linearGradient id="paint7_linear_11909_41730" x1="164.781" y1="415.48" x2="172.173" y2="374.677" gradientUnits="userSpaceOnUse">
<stop stop-color="#0575E6"/>
<stop offset="1" stop-color="#021B79"/>
</linearGradient>
<linearGradient id="paint8_linear_11909_41730" x1="164.781" y1="447.48" x2="172.173" y2="406.677" gradientUnits="userSpaceOnUse">
<stop stop-color="#0575E6"/>
<stop offset="1" stop-color="#021B79"/>
</linearGradient>
<linearGradient id="paint9_linear_11909_41730" x1="276.781" y1="180.775" x2="371.408" y2="138.602" gradientUnits="userSpaceOnUse">
<stop stop-color="#0575E6"/>
<stop offset="1" stop-color="#021B79"/>
</linearGradient>
<linearGradient id="paint10_linear_11909_41730" x1="371.211" y1="94.3663" x2="465.838" y2="52.1938" gradientUnits="userSpaceOnUse">
<stop stop-color="#0575E6"/>
<stop offset="1" stop-color="#021B79"/>
</linearGradient>
<linearGradient id="paint11_linear_11909_41730" x1="311.195" y1="143.057" x2="429.341" y2="87.3036" gradientUnits="userSpaceOnUse">
<stop stop-color="#0575E6"/>
<stop offset="1" stop-color="#021B79"/>
</linearGradient>
<linearGradient id="paint12_linear_11909_41730" x1="335.805" y1="94.6932" x2="362.942" y2="82.6604" gradientUnits="userSpaceOnUse">
<stop stop-color="#0575E6"/>
<stop offset="1" stop-color="#021B79"/>
</linearGradient>
<linearGradient id="paint13_linear_11909_41730" x1="367.203" y1="202.653" x2="483.031" y2="151.836" gradientUnits="userSpaceOnUse">
<stop stop-color="#0575E6"/>
<stop offset="1" stop-color="#021B79"/>
</linearGradient>
<linearGradient id="paint14_linear_11909_41730" x1="124.781" y1="223.64" x2="231.908" y2="151.962" gradientUnits="userSpaceOnUse">
<stop stop-color="#0575E6"/>
<stop offset="1" stop-color="#021B79"/>
</linearGradient>
<linearGradient id="paint15_linear_11909_41730" x1="180.781" y1="289.4" x2="200.004" y2="287.631" gradientUnits="userSpaceOnUse">
<stop stop-color="#0575E6"/>
<stop offset="1" stop-color="#021B79"/>
</linearGradient>
</defs>
</svg>
