<svg width="512" height="433" viewBox="0 0 512 433" fill="none" xmlns="http://www.w3.org/2000/svg">
<g clip-path="url(#clip0_11909_41826)">
<path d="M451.062 342H60.2016C49.3698 341.987 38.9856 337.677 31.3273 330.017C23.6691 322.357 19.3621 311.972 19.3516 301.14V40.86C19.3621 30.0282 23.6691 19.643 31.3273 11.9828C38.9856 4.32269 49.3698 0.0132366 60.2016 0L451.062 0C461.894 0.0132316 472.279 4.32236 479.939 11.9822C487.599 19.6421 491.908 30.0273 491.922 40.86V301.18C491.898 312.006 487.584 322.381 479.925 330.032C472.267 337.683 461.887 341.987 451.062 342ZM60.2016 20C54.6725 20.0079 49.3723 22.2086 45.4636 26.1191C41.5549 30.0297 39.3569 35.3309 39.3516 40.86V301.18C39.3648 306.703 41.5667 311.995 45.4748 315.898C49.3829 319.8 54.6786 321.995 60.2016 322H451.062C456.592 321.995 461.895 319.795 465.806 315.884C469.717 311.974 471.916 306.671 471.922 301.14V40.86C471.914 35.33 469.713 30.0288 465.803 26.1185C461.893 22.2082 456.592 20.0079 451.062 20H60.2016Z" fill="url(#paint0_linear_11909_41826)"/>
<path d="M256.002 301.881C254.246 301.881 252.522 301.419 251.002 300.541C217.932 281.508 189.994 254.71 169.602 222.461C147.323 187.094 135.476 146.159 135.422 104.361V80.3609C135.422 78.1583 136.15 76.0175 137.491 74.2708C138.833 72.5241 140.714 71.2691 142.842 70.7009L253.422 41.2409C255.112 40.7895 256.891 40.7895 258.582 41.2409L369.162 70.7309C371.29 71.2992 373.171 72.5541 374.512 74.3008C375.854 76.0475 376.582 78.1883 376.582 80.3909V104.391C376.528 146.189 364.68 187.124 342.402 222.491C322.006 254.729 294.068 281.517 261.002 300.541C259.482 301.419 257.757 301.881 256.002 301.881ZM155.422 88.0709V104.361C155.476 142.4 166.267 179.652 186.552 211.831C204.138 239.667 227.903 263.076 256.002 280.241C284.1 263.076 307.865 239.667 325.452 211.831C345.741 179.653 356.531 142.401 356.582 104.361V88.0709L256.002 61.2509L155.422 88.0709Z" fill="url(#paint1_linear_11909_41826)"/>
<path d="M238.6 210.349C235.949 210.351 233.407 209.301 231.53 207.429L199 174.939C197.178 173.053 196.17 170.527 196.193 167.905C196.216 165.283 197.268 162.775 199.122 160.921C200.976 159.067 203.484 158.015 206.106 157.993C208.728 157.97 211.254 158.978 213.14 160.799L238.56 186.209L298.82 125.999C300.695 124.119 303.24 123.06 305.896 123.057C308.551 123.053 311.1 124.104 312.98 125.979C314.86 127.854 315.919 130.4 315.923 133.055C315.926 135.711 314.875 138.259 313 140.139L245.71 207.429C244.776 208.361 243.667 209.099 242.447 209.6C241.226 210.101 239.919 210.356 238.6 210.349ZM411.63 432.409H100.37C73.7522 432.38 48.2336 421.791 29.4157 402.965C10.5979 384.14 0.0185275 358.617 0 331.999C0 329.347 1.05357 326.804 2.92893 324.928C4.8043 323.053 7.34784 321.999 10 321.999H502C504.652 321.999 507.196 323.053 509.071 324.928C510.946 326.804 512 329.347 512 331.999C511.981 358.617 501.402 384.14 482.584 402.965C463.766 421.791 438.248 432.38 411.63 432.409ZM20.62 341.999C23.0814 361.421 32.5369 379.28 47.2164 392.233C61.8958 405.186 80.7929 412.345 100.37 412.369H411.63C431.207 412.345 450.104 405.186 464.784 392.233C479.463 379.28 488.919 361.421 491.38 341.999H20.62Z" fill="url(#paint2_linear_11909_41826)"/>
<path d="M296.162 382.21H215.842C202.534 382.194 189.776 376.898 180.37 367.484C170.963 358.07 165.677 345.308 165.672 332C165.672 329.348 166.725 326.804 168.601 324.929C170.476 323.054 173.02 322 175.672 322H336.332C338.984 322 341.528 323.054 343.403 324.929C345.278 326.804 346.332 329.348 346.332 332C346.327 345.308 341.04 358.07 331.634 367.484C322.228 376.898 309.47 382.194 296.162 382.21ZM187.382 342C189.459 347.891 193.311 352.994 198.408 356.606C203.504 360.218 209.595 362.162 215.842 362.17H296.162C302.409 362.162 308.499 360.218 313.596 356.606C318.692 352.994 322.544 347.891 324.622 342H187.382Z" fill="url(#paint3_linear_11909_41826)"/>
</g>
<defs>
<linearGradient id="paint0_linear_11909_41826" x1="19.3516" y1="266.76" x2="427.158" y2="7.54982" gradientUnits="userSpaceOnUse">
<stop stop-color="#0575E6"/>
<stop offset="1" stop-color="#021B79"/>
</linearGradient>
<linearGradient id="paint1_linear_11909_41826" x1="135.422" y1="244.466" x2="382.897" y2="139.272" gradientUnits="userSpaceOnUse">
<stop stop-color="#0575E6"/>
<stop offset="1" stop-color="#021B79"/>
</linearGradient>
<linearGradient id="paint2_linear_11909_41826" x1="-3.10059e-06" y1="364.352" x2="392.713" y2="65.3671" gradientUnits="userSpaceOnUse">
<stop stop-color="#0575E6"/>
<stop offset="1" stop-color="#021B79"/>
</linearGradient>
<linearGradient id="paint3_linear_11909_41826" x1="165.672" y1="368.964" x2="241.02" y2="264.967" gradientUnits="userSpaceOnUse">
<stop stop-color="#0575E6"/>
<stop offset="1" stop-color="#021B79"/>
</linearGradient>
<clipPath id="clip0_11909_41826">
<rect width="512" height="432.41" fill="white"/>
</clipPath>
</defs>
</svg>
