<svg width="17" height="17" viewBox="0 0 17 17" fill="none" xmlns="http://www.w3.org/2000/svg">
<g clip-path="url(#clip0_11909_41819)">
<path d="M6.35225 0.529297C5.51043 0.53062 4.70347 0.865671 4.1083 1.46103C3.51313 2.05639 3.17831 2.86346 3.17725 3.70529C3.17725 3.80629 3.18225 3.9063 3.18825 4.0083C3.19125 4.3813 3.76025 4.34527 3.71625 3.97427C3.71003 3.8844 3.70669 3.79437 3.70625 3.70428C3.70599 3.3567 3.77429 3.01247 3.90725 2.69131C4.0402 2.37016 4.2352 2.07839 4.48108 1.8327C4.72695 1.58701 5.01888 1.39223 5.34013 1.25952C5.66139 1.12681 6.00567 1.05877 6.35325 1.0593C6.70079 1.05877 7.045 1.12686 7.36616 1.25967C7.68731 1.39249 7.97908 1.58739 8.22473 1.83322C8.47038 2.07906 8.66507 2.37098 8.79764 2.69223C8.93021 3.01348 8.99804 3.35776 8.99725 3.70529C8.99725 4.03229 8.95225 4.38928 8.86825 4.75928C8.8106 4.76492 8.75365 4.77631 8.69825 4.79327C8.64821 4.63079 8.5474 4.48863 8.41061 4.38766C8.27382 4.28669 8.10827 4.23225 7.93825 4.2323C7.8339 4.23324 7.73041 4.21333 7.63383 4.1738C7.53726 4.13426 7.44953 4.07588 7.37578 4.00204C7.30204 3.92821 7.24376 3.8404 7.20435 3.74377C7.16494 3.64715 7.14519 3.54365 7.14625 3.4393C7.14625 3.36902 7.11833 3.30159 7.06864 3.25189C7.01894 3.20219 6.95154 3.17429 6.88125 3.17429C6.81097 3.17429 6.74357 3.20219 6.69387 3.25189C6.64417 3.30159 6.61625 3.36902 6.61625 3.4393C6.61732 3.54374 6.59754 3.64732 6.55807 3.74402C6.5186 3.84071 6.46023 3.92856 6.38637 4.00241C6.31252 4.07626 6.22468 4.13463 6.12798 4.1741C6.03129 4.21358 5.92769 4.23337 5.82325 4.2323H4.76425C4.59428 4.23397 4.42928 4.28986 4.2933 4.39185C4.15732 4.49383 4.05745 4.63658 4.00825 4.79929C3.85598 4.75073 3.69314 4.74587 3.53825 4.78528C3.36555 4.82876 3.21147 4.92677 3.09889 5.06476C2.9863 5.20275 2.9212 5.37338 2.91325 5.5513C2.90458 5.88193 3.02322 6.20326 3.24468 6.44891C3.46614 6.69457 3.7735 6.84575 4.10325 6.87128C4.23725 7.25628 4.46825 7.58929 4.76425 7.85629V8.46628C4.6944 8.46675 4.62655 8.49478 4.57725 8.54428L4.04725 9.07428C4.01358 9.10831 3.98976 9.15084 3.97832 9.19733C3.96687 9.24381 3.96823 9.29252 3.98225 9.33829L5.68025 14.8563L3.73025 12.3743L3.96325 11.4413C3.9742 11.397 3.9735 11.3506 3.96124 11.3066C3.94897 11.2626 3.92556 11.2225 3.89325 11.1903L3.20325 10.5003L3.45925 9.4133C3.46941 9.36924 3.46813 9.3233 3.45552 9.27988C3.44292 9.23645 3.41941 9.19697 3.38724 9.16519C3.35506 9.13342 3.31529 9.11042 3.27171 9.09836C3.22813 9.0863 3.18219 9.08557 3.13825 9.09628C2.39295 9.28157 1.73121 9.71121 1.25866 10.3166C0.786122 10.922 0.530024 11.6683 0.531254 12.4363V16.1393C0.531254 16.2863 0.650254 16.4043 0.796254 16.4043H10.5863C10.9433 16.4093 10.9433 15.8703 10.5863 15.8743H6.89625L9.47125 12.5993C9.4961 12.5674 9.51334 12.5304 9.52166 12.4908C9.52998 12.4513 9.52915 12.4104 9.51925 12.3713L9.29125 11.4583L9.97925 10.7703C10.01 10.7394 10.0326 10.7015 10.0452 10.6598C10.0577 10.6181 10.0598 10.574 10.0513 10.5313L9.90125 9.77228C10.3483 9.96328 10.7503 10.2743 11.0523 10.6723C11.2663 10.9523 11.6853 10.6333 11.4743 10.3523C11.0162 9.73865 10.3584 9.30401 9.61425 9.12329C9.57088 9.11262 9.52551 9.1131 9.48237 9.12466C9.43922 9.13623 9.3997 9.15849 9.36747 9.18942C9.33524 9.22035 9.31136 9.25894 9.29803 9.30157C9.28471 9.34421 9.28238 9.38951 9.29125 9.43329L9.50425 10.4963L8.81125 11.1903C8.77895 11.2225 8.75554 11.2626 8.74327 11.3066C8.73101 11.3506 8.73031 11.397 8.74125 11.4413L8.97425 12.3743L7.02425 14.8573L8.72225 9.33728C8.73583 9.29147 8.73677 9.24286 8.72498 9.19656C8.71318 9.15027 8.68909 9.10801 8.65525 9.07428L8.12625 8.54428C8.10156 8.51967 8.07223 8.50019 8.03996 8.48697C8.00769 8.47375 7.97312 8.46707 7.93825 8.46729V7.8573C8.23525 7.5913 8.46625 7.25829 8.60025 6.87329C9.24325 6.82529 9.79225 6.3163 9.79225 5.5513C9.78703 5.41332 9.74661 5.27897 9.67486 5.16101C9.6031 5.04305 9.50238 4.94537 9.38225 4.87729C9.47225 4.47729 9.52625 4.08029 9.52625 3.70529C9.52546 2.86373 9.19101 2.05681 8.59621 1.46146C8.00142 0.866099 7.19382 0.530885 6.35225 0.529297ZM6.88225 4.23428C7.00477 4.39862 7.16414 4.53191 7.34755 4.62344C7.53095 4.71497 7.73328 4.76219 7.93825 4.76129C7.97341 4.76047 8.00837 4.7668 8.04101 4.77988C8.07366 4.79295 8.10331 4.81251 8.12817 4.83737C8.15304 4.86224 8.1726 4.89189 8.18568 4.92453C8.19876 4.95717 8.20508 4.99213 8.20425 5.02728V6.0863C8.20425 7.1163 7.38425 7.93729 6.35325 7.93729C5.32225 7.93729 4.49925 7.1173 4.49925 6.0863V5.02728C4.49844 4.99221 4.50473 4.95735 4.51774 4.92477C4.53076 4.8922 4.55023 4.86259 4.57499 4.83774C4.59975 4.81289 4.62928 4.79329 4.66181 4.78015C4.69433 4.76701 4.72918 4.76061 4.76425 4.76129H5.82425C6.0294 4.76235 6.23192 4.71519 6.41552 4.62366C6.59911 4.53212 6.75964 4.39875 6.88225 4.23428ZM3.97025 5.38028V6.0863C3.97025 6.1613 3.97425 6.2363 3.98125 6.3103C3.68625 6.2233 3.44525 5.9733 3.44525 5.5603C3.44525 5.2853 3.85525 5.20528 3.97025 5.38028ZM9.26025 5.56229C9.26611 5.72907 9.21647 5.89308 9.11911 6.02863C9.02175 6.16417 8.88218 6.26357 8.72225 6.31128C8.72944 6.23649 8.73311 6.16143 8.73325 6.0863V5.38129C8.85525 5.20129 9.26025 5.28729 9.26025 5.56229ZM7.41125 8.21729V8.82629L6.35325 9.70929L5.29425 8.8273V8.21729C5.62289 8.38168 5.9853 8.46729 6.35275 8.46729C6.72021 8.46729 7.08262 8.38168 7.41125 8.21729ZM4.78125 9.0903L5.91925 10.0383L4.96125 10.7213L4.53525 9.33328L4.78125 9.0903ZM7.92325 9.0903L8.16925 9.33328L7.74225 10.7213L6.78525 10.0373L7.92325 9.0903ZM2.83525 9.7533L2.65525 10.5233C2.64504 10.567 2.6461 10.6126 2.65835 10.6558C2.67059 10.699 2.69361 10.7384 2.72525 10.7703L3.41325 11.4583L3.18525 12.3713C3.17551 12.4103 3.17477 12.451 3.18309 12.4903C3.19141 12.5297 3.20856 12.5666 3.23325 12.5983L5.80725 15.8753H2.91325V14.0233C2.91325 13.953 2.88533 13.8856 2.83564 13.8359C2.78594 13.7862 2.71854 13.7583 2.64825 13.7583C2.57797 13.7583 2.51057 13.7862 2.46087 13.8359C2.41117 13.8856 2.38325 13.953 2.38325 14.0233V15.8753H1.06125V12.4353C1.06125 11.2343 1.80725 10.2003 2.83625 9.7533H2.83525ZM14.6953 11.8623L13.7833 13.9163C13.7685 13.95 13.761 13.9865 13.7613 14.0233C13.7613 14.0233 13.7573 14.3423 13.9213 14.6703C14.0853 14.9973 14.4283 15.3453 15.0833 15.3453C15.7393 15.3453 16.0813 14.9973 16.2453 14.6703C16.4093 14.3423 16.4053 14.0233 16.4053 14.0233C16.4056 13.9866 16.3985 13.9502 16.3843 13.9163L15.4713 11.8603C15.6193 11.8273 15.8893 11.7323 16.0643 11.5643C16.3003 11.3363 15.9623 10.9393 15.6913 11.1893C15.5933 11.2793 15.3293 11.3763 15.0833 11.3763C14.4153 11.3663 14.1233 10.9183 13.2313 10.8593V10.3183C13.2318 10.2836 13.2255 10.2492 13.2127 10.2169C13.1999 10.1847 13.1809 10.1553 13.1568 10.1304C13.1326 10.1055 13.1038 10.0857 13.072 10.0719C13.0402 10.0581 13.0059 10.0508 12.9713 10.0503C12.9683 10.0503 12.9673 10.0483 12.9663 10.0483C12.9316 10.0488 12.8974 10.0562 12.8655 10.0699C12.8337 10.0837 12.8049 10.1035 12.7807 10.1284C12.7566 10.1533 12.7376 10.1827 12.7248 10.215C12.712 10.2472 12.7057 10.2816 12.7063 10.3163V10.8573C11.8133 10.9163 11.5223 11.3653 10.8543 11.3743C10.6083 11.3743 10.3433 11.2773 10.2453 11.1873C9.97525 10.9373 9.63725 11.3343 9.87325 11.5623C10.0473 11.7303 10.3173 11.8253 10.4653 11.8583L9.55225 13.9143C9.53823 13.9482 9.53142 13.9846 9.53225 14.0213C9.53225 14.0213 9.52725 14.3403 9.69225 14.6683C9.85525 14.9953 10.1983 15.3433 10.8533 15.3433C11.5083 15.3433 11.8513 14.9953 12.0153 14.6683C12.1793 14.3403 12.1753 14.0213 12.1753 14.0213C12.1756 13.9846 12.1685 13.9481 12.1543 13.9143L11.2413 11.8603C11.7823 11.7743 12.1003 11.3763 12.9663 11.3753C13.8363 11.3763 14.1533 11.7763 14.6963 11.8623H14.6953ZM6.35225 10.3793L6.76625 10.6753L6.47625 11.1133H6.23025L5.93825 10.6753L6.35225 10.3793ZM5.50725 10.9833L5.80925 11.4373L5.58925 12.7603L5.12625 11.2553L5.50725 10.9833ZM7.19725 10.9833L7.57725 11.2553L7.11525 12.7583L6.89525 11.4383L7.19725 10.9833ZM6.31125 11.6433H6.39325L6.76725 13.8893L6.35125 15.2403L5.93725 13.8923L6.31125 11.6433ZM12.9693 11.9003C12.8373 11.9003 12.7053 11.9883 12.7053 12.1643V15.8733H11.6333C11.2763 15.8973 11.3003 16.4113 11.6463 16.4023H12.9663V16.4043H14.2913C14.6363 16.4133 14.6613 15.8993 14.3033 15.8743H13.2313V12.1663C13.2313 11.9913 13.1013 11.9043 12.9713 11.9023V11.8993L12.9693 11.9003ZM10.8533 12.2903L11.5033 13.7553H10.2033L10.8533 12.2903ZM15.0833 12.2923L15.7333 13.7573H14.4333L15.0833 12.2923ZM10.1073 14.2853H11.6003C11.6003 14.2853 11.5063 14.8143 10.8543 14.8143C10.2013 14.8143 10.1073 14.2853 10.1073 14.2853ZM14.3373 14.2873H15.8293C15.8293 14.2873 15.7363 14.8163 15.0833 14.8163C14.4303 14.8163 14.3373 14.2863 14.3373 14.2863V14.2873Z" fill="url(#paint0_linear_11909_41819)"/>
</g>
<defs>
<linearGradient id="paint0_linear_11909_41819" x1="0.53125" y1="12.9119" x2="16.4057" y2="5.61017" gradientUnits="userSpaceOnUse">
<stop stop-color="#0575E6"/>
<stop offset="1" stop-color="#021B79"/>
</linearGradient>
<clipPath id="clip0_11909_41819">
<rect width="16.933" height="16.933" fill="white"/>
</clipPath>
</defs>
</svg>
