<svg xmlns="http://www.w3.org/2000/svg" enable-background="new 0 0 48 48" viewBox="0 0 48 48" id="Legal"><path d="M2.99,47.48c0.64,0,1.28-0.24,1.76-0.73l7.42-7.42v4.2c0,2.19,1.78,3.97,3.97,3.97h27.4c2.19,0,3.97-1.78,3.97-3.97V12.7
	c0-1.06-0.41-2.06-1.16-2.8L38.1,1.66c-0.74-0.74-1.76-1.16-2.8-1.16H16.14c-2.19,0-3.97,1.78-3.97,3.97v17.4
	c-1.11,0.69-2.08,1.59-2.87,2.68c-1.58,2.19-2.22,4.87-1.78,7.54c0.21,1.29,0.66,2.49,1.29,3.56l-7.58,7.58
	c-0.97,0.97-0.97,2.55,0,3.53C1.72,47.24,2.35,47.48,2.99,47.48z M44.94,10.62h-6.39c-0.65,0-1.17-0.52-1.17-1.17V3.06L44.94,10.62z
	 M13.67,4.47c0-1.36,1.11-2.47,2.47-2.47H35.3c0.2,0,0.39,0.03,0.58,0.08v7.37c0,1.47,1.2,2.67,2.67,2.67h7.37
	C45.97,12.31,46,12.5,46,12.7v30.83c0,1.36-1.11,2.47-2.47,2.47h-27.4c-1.36,0-2.47-1.11-2.47-2.47v-3.7
	c1.17,0.48,2.44,0.75,3.78,0.75c0.03,0,0.06,0,0.1,0c0.52,0,1.05-0.04,1.58-0.13c0.57-0.09,1.12-0.23,1.63-0.41
	c4.71-1.58,7.55-6.3,6.75-11.2c-0.89-5.51-6.1-9.27-11.62-8.37c-0.77,0.13-1.52,0.34-2.22,0.63V4.47z M10.52,25.42
	c1.35-1.87,3.34-3.1,5.62-3.47c0.47-0.08,0.93-0.11,1.38-0.11c4.16,0,7.83,3.02,8.51,7.24c0.68,4.18-1.74,8.19-5.76,9.54
	c-0.44,0.15-0.91,0.27-1.39,0.35c-0.48,0.08-0.96,0.12-1.43,0.11c-4.23-0.02-7.78-3.06-8.46-7.24C8.63,29.57,9.17,27.29,10.52,25.42
	z M2.29,44.29l7.39-7.39c0.42,0.51,0.9,0.98,1.41,1.4l-7.39,7.39c-0.38,0.38-1.03,0.38-1.4,0C1.9,45.3,1.9,44.67,2.29,44.29z" fill="#021b79" class="color000000 svgShape"></path><rect width="1.5" height="8.15" x="16.76" y="27.89" fill="#021b79" class="color000000 svgShape"></rect><rect width="1.5" height="1.5" x="16.76" y="24.9" fill="#021b79" class="color000000 svgShape"></rect><rect width="13.42" height="1.5" x="28.48" y="37.22" fill="#021b79" class="color000000 svgShape"></rect><rect width="12.64" height="1.5" x="29.27" y="30.57" fill="#021b79" class="color000000 svgShape"></rect><rect width="13.42" height="1.5" x="28.48" y="23.92" fill="#021b79" class="color000000 svgShape"></rect><rect width="24.14" height="1.5" x="17.76" y="17.27" fill="#021b79" class="color000000 svgShape"></rect><rect width="15.45" height="1.5" x="17.76" y="10.62" fill="#021b79" class="color000000 svgShape"></rect></svg>