<svg width="64" height="64" viewBox="0 0 64 64" fill="none" xmlns="http://www.w3.org/2000/svg">
<path d="M22.0498 50H7C6.44824 50 6 49.5518 6 49V7C6 6.44824 6.44824 6 7 6H30V13C30 14.6543 31.3457 16 33 16H38V20.4502C38 21.0029 38.4473 21.4502 39 21.4502C39.5527 21.4502 40 21.0029 40 20.4502V15C40.0033 14.7699 39.9009 14.5631 39.7812 14.375L31.7812 4.375C31.6704 4.26921 31.545 4.17352 31.412 4.09376C31.2857 4.0362 31.148 4 31 4H7C5.3457 4 4 5.3457 4 7V49C4 50.6543 5.3457 52 7 52H22.0498C23.3634 51.9802 23.3565 50.0139 22.0498 50ZM32 13V7.85059L36.9196 14H33C32.4482 14 32 13.5518 32 13ZM43.5 53V51C43.5 49.8975 42.6025 49 41.5 49H28.5C27.3975 49 26.5 49.8975 26.5 51V53C25.3975 53 24.5 53.8975 24.5 55V59C24.5 59.5527 24.9473 60 25.5 60H44.5C45.0527 60 45.5 59.5527 45.5 59V55C45.5 53.8975 44.6025 53 43.5 53ZM43.5 58H26.5V55H37.5C38.8138 54.9786 38.815 53.0215 37.5 53C37.5 53 28.5 53 28.5 53V51H41.5V54C41.5 54.5527 41.9473 55 42.5 55H43.5V58Z" fill="url(#paint0_linear_11909_41792)"/>
<path d="M48.6652 35.3397L50.7954 33.2095C51.1069 33.3925 51.4552 33.4912 51.8057 33.4912C52.8948 33.6012 53.9235 32.1288 54.6348 31.4922C55.415 30.7129 55.4151 29.4434 54.6348 28.6641L46.8565 20.8857C46.0772 20.1064 44.8076 20.1064 44.0283 20.8857L42.6143 22.2998C41.9739 22.9184 41.8424 23.9715 42.3109 24.7252C42.3109 24.7252 33.7246 33.3106 33.7246 33.3106C32.9713 32.8428 31.9184 32.9731 31.2998 33.6143C31.2998 33.6143 29.8858 35.0283 29.8858 35.0283C29.1055 35.8076 29.1055 37.0772 29.8858 37.8564L37.6641 45.6348C38.4439 46.4146 39.7123 46.4146 40.4922 45.6348L41.9063 44.2207C42.5637 43.5632 42.6602 42.5618 42.2097 41.7952L44.3397 39.6652L53.3057 49.7188C54.6973 51.3432 57.3943 51.4228 58.877 49.8769C60.4203 48.3935 60.3453 45.6986 58.7187 44.3057C58.7188 44.3057 48.6652 35.3397 48.6652 35.3397ZM45.4424 22.2998L53.2207 30.0781L51.8057 31.4922C51.3392 30.9216 50.6621 30.5528 50.0381 31.1387C50.0381 31.1387 40.8456 40.3311 40.8456 40.3311L35.1886 34.6747L43.6751 26.1891L46.5029 29.0176C46.8936 29.4082 47.5264 29.4082 47.917 29.0176C48.3076 28.627 48.3076 27.9941 47.917 27.6035L44.0283 23.7139L45.4424 22.2998ZM39.0781 44.2207L31.2998 36.4424L32.7139 35.0283L40.4922 42.8066L39.0781 44.2207ZM57.4629 48.4629C56.7528 49.2136 55.4642 49.1643 54.7979 48.3867C54.7979 48.3867 45.7569 38.249 45.7569 38.249L47.249 36.7568L57.3867 45.7979C58.1671 46.4619 58.204 47.7552 57.4629 48.4629ZM27 18.3701C27 17.8174 26.5527 17.3701 26 17.3701C25.2441 17.3701 24.6299 16.7559 24.6299 16C24.6299 15.4473 24.1826 15 23.6299 15H12.3701C11.8174 15 11.3701 15.4473 11.3701 16C11.3701 16.7559 10.7559 17.3701 10 17.3701C9.44727 17.3701 9 17.8174 9 18.3701V20.9004C9.00045 26.4224 12.6376 31.5219 18 33.0001C23.3628 31.5216 26.999 26.4226 27 20.9004C27 20.9004 27 18.3701 27 18.3701ZM25 20.9004C25 25.4014 22.2012 29.3935 18 30.9404C13.7988 29.3935 11 25.4014 11 20.9004V19.2188C12.0557 18.8896 12.8897 18.0557 13.2188 17H22.7813C23.1104 18.0557 23.9443 18.8896 25 19.2188V20.9004Z" fill="url(#paint1_linear_11909_41792)"/>
<path d="M19.5442 20.7925L17.2512 23.0855L16.4583 22.2925C16.0677 21.9019 15.4348 21.9019 15.0442 22.2925C14.6536 22.6832 14.6536 23.316 15.0442 23.7066L16.5442 25.2066C16.7395 25.4019 16.9954 25.4996 17.2512 25.4996C17.5071 25.4996 17.763 25.4019 17.9583 25.2066L20.9583 22.2066C21.8778 21.2793 20.4737 19.8709 19.5442 20.7925ZM10.0012 37.9996H22.0012C22.554 37.9996 23.0012 37.5523 23.0012 36.9996C23.0012 36.4468 22.554 35.9996 22.0012 35.9996H10.0012C8.69035 36.0202 8.68382 37.9776 10.0012 37.9996ZM10.0012 42.9996H26.0012C27.3108 42.9794 27.3198 41.0216 26.0012 40.9996C26.0012 40.9996 10.0012 40.9996 10.0012 40.9996C8.69168 41.0198 8.68273 42.9775 10.0012 42.9996Z" fill="url(#paint2_linear_11909_41792)"/>
<defs>
<linearGradient id="paint0_linear_11909_41792" x1="4" y1="47.68" x2="49.0466" y2="32.3239" gradientUnits="userSpaceOnUse">
<stop stop-color="#0575E6"/>
<stop offset="1" stop-color="#021B79"/>
</linearGradient>
<linearGradient id="paint1_linear_11909_41792" x1="9" y1="43.0709" x2="52.3602" y2="14.812" gradientUnits="userSpaceOnUse">
<stop stop-color="#0575E6"/>
<stop offset="1" stop-color="#021B79"/>
</linearGradient>
<linearGradient id="paint2_linear_11909_41792" x1="9.01562" y1="38.0479" x2="28.2013" y2="31.0013" gradientUnits="userSpaceOnUse">
<stop stop-color="#0575E6"/>
<stop offset="1" stop-color="#021B79"/>
</linearGradient>
</defs>
</svg>
