<svg xmlns="http://www.w3.org/2000/svg" enable-background="new 0 0 512 512" viewBox="0 0 512 512" id="LegalCompliance"><path d="M268.1,81.2c-10.3,0-18.7,8.4-18.7,18.7c0,3.6,1,7,2.8,9.8L219,143.9c-2.4-1.1-5-1.7-7.7-1.7c-5.6,0-10.6,2.5-14.1,6.4
		L176.9,137c0.3-1.4,0.5-2.9,0.5-4.4c0-10.3-8.4-18.7-18.7-18.7s-18.7,8.4-18.7,18.7c0,2,0.3,4,0.9,5.8L113.4,158
		c-3-2-6.6-3.2-10.4-3.2c-10.3,0-18.7,8.4-18.7,18.7s8.4,18.7,18.7,18.7s18.7-8.4,18.7-18.7c0-2-0.3-4-0.9-5.9l27.5-19.6
		c3,2,6.6,3.2,10.5,3.2c4.4,0,8.4-1.5,11.6-4.1l22.2,12.7c0,0.3,0,0.7,0,1c0,10.3,8.4,18.7,18.7,18.7s18.7-8.4,18.7-18.7
		c0-3.1-0.8-6.1-2.2-8.7l33.7-34.7c2,0.8,4.2,1.2,6.5,1.2c10.3,0,18.7-8.4,18.7-18.7S278.4,81.2,268.1,81.2z M102.9,180.2
		c-3.6,0-6.6-3-6.6-6.6s3-6.6,6.6-6.6s6.6,3,6.6,6.6S106.5,180.2,102.9,180.2z M158.7,139.1c-3.6,0-6.6-3-6.6-6.6s3-6.6,6.6-6.6
		s6.6,3,6.6,6.6C165.3,136.2,162.3,139.1,158.7,139.1z M211.3,167.5c-3.6,0-6.6-3-6.6-6.6s3-6.6,6.6-6.6s6.6,3,6.6,6.6
		C217.8,164.5,214.9,167.5,211.3,167.5z M268.1,106.5c-3.6,0-6.6-3-6.6-6.6s3-6.6,6.6-6.6s6.6,3,6.6,6.6S271.7,106.5,268.1,106.5z" fill="#021b79" class="color000000 svgShape"></path><path d="M464.5,171.8c-5.4-12.7-13.1-24.1-22.9-34s-21.2-17.5-34-22.9c-13.2-5.6-27.2-8.4-41.6-8.4c-11.6,0-22.9,1.8-33.8,5.4V23.6
		c0-3.4-2.7-6.1-6.1-6.1h-281c-3.4,0-6.1,2.7-6.1,6.1v353.3c0,3.4,2.7,6.1,6.1,6.1h281.1c3.4,0,6.1-2.7,6.1-6.1v-62.2
		c8.9,3,18.2,4.7,27.7,5.3v26c-13.1,2.8-23,14.5-23,28.4v90.9c0,16,13,29.1,29.1,29.1c16,0,29.1-13,29.1-29.1v-90.9
		c0-13.9-9.9-25.6-23-28.4v-26c12.3-0.7,24.2-3.4,35.5-8.2c12.7-5.4,24.1-13.1,34-22.9s17.5-21.2,22.9-34
		c5.6-13.2,8.4-27.2,8.4-41.6C472.9,199,470.1,185,464.5,171.8z M51.2,370.9V29.7h269v87.2c-4.9,2.3-9.6,5-14,8V49
		c0-3.4-2.7-6.1-6.1-6.1H71.3c-3.4,0-6.1,2.7-6.1,6.1v302.6c0,3.4,2.7,6.1,6.1,6.1h228.8c3.4,0,6.1-2.7,6.1-6.1v-49.7
		c4.5,3,9.1,5.7,14,8v61H51.2z M290.5,137.8c-9.8,9.8-17.5,21.2-22.9,34c-5.6,13.2-8.4,27.2-8.4,41.6s2.8,28.4,8.4,41.6
		c5.4,12.7,13.1,24.1,22.9,34c1.2,1.2,2.5,2.4,3.8,3.6c-0.2,0.6-0.3,1.2-0.3,1.8v51.1H77.4V55H294v79.4
		C292.8,135.6,291.7,136.7,290.5,137.8z M383,374.5v90.9c0,9.3-7.6,16.9-16.9,16.9s-16.9-7.6-16.9-16.9v-90.9
		c0-9.3,7.6-16.9,16.9-16.9S383,365.2,383,374.5z M453.3,250.2c-4.8,11.3-11.6,21.4-20.3,30.1c-8.7,8.7-18.8,15.5-30.1,20.3
		c-11.7,4.9-24.1,7.4-36.9,7.4s-25.2-2.5-36.9-7.4c-0.2-0.1-0.3-0.1-0.5-0.2c0,0-0.1,0-0.1-0.1c-11-4.8-20.9-11.5-29.4-20
		c-8.7-8.7-15.5-18.8-20.3-30.1c-4.9-11.7-7.4-24.1-7.4-36.9c0-12.8,2.5-25.2,7.4-36.9c4.8-11.3,11.6-21.4,20.3-30.1
		c1.6-1.6,3.2-3.1,4.8-4.5c0.1-0.1,0.2-0.1,0.2-0.2c7.5-6.5,15.9-11.7,25-15.6c11.7-4.9,24.1-7.4,36.9-7.4s25.2,2.5,36.9,7.4
		c11.3,4.8,21.4,11.6,30.1,20.3s15.5,18.8,20.3,30.1c4.9,11.7,7.4,24.1,7.4,36.9C460.8,226.2,458.3,238.6,453.3,250.2z" fill="#021b79" class="color000000 svgShape"></path><path d="M431.1,185.6c-9.5-6.9-19.2-12.4-28.9-16.4c-12.2-5-24.4-7.6-36.2-7.6c-11.7,0-23.9,2.6-36.2,7.6
		c-9.6,4-19.4,9.5-28.9,16.4c-16.1,11.7-26.1,23.3-26.5,23.8c-1.9,2.3-1.9,5.6,0,7.9c0.4,0.5,10.4,12.1,26.5,23.8
		c9.5,6.9,19.2,12.4,28.9,16.4c12.2,5,24.4,7.6,36.2,7.6c11.7,0,23.9-2.6,36.2-7.6c9.6-4,19.4-9.5,28.9-16.4
		c16.1-11.7,26.1-23.3,26.5-23.8c1.9-2.3,1.9-5.6,0-7.9C457.2,209,447.3,197.3,431.1,185.6z M423.8,231.5
		c-8.7,6.3-17.6,11.3-26.3,14.9c-10.7,4.4-21.3,6.6-31.4,6.6s-20.7-2.2-31.4-6.6c-8.7-3.6-17.6-8.6-26.3-14.9
		c-9.6-6.9-16.9-13.9-21-18.1c4-4.2,11.3-11,20.7-17.9c8.7-6.3,17.6-11.4,26.4-15c10.8-4.4,21.4-6.7,31.5-6.7s20.7,2.2,31.4,6.6
		c8.7,3.6,17.6,8.6,26.3,14.9c9.6,6.9,16.9,13.9,21,18.1C440.6,217.6,433.3,224.6,423.8,231.5z" fill="#021b79" class="color000000 svgShape"></path><path d="M396.5 193.7c0 6.2-5.1 11.3-11.3 11.3-6.2 0-11.3-5.1-11.3-11.3s5.1-11.3 11.3-11.3c2.1 0 4.1.6 5.8 1.6-6.7-5.7-15.4-9.2-25-9.2-21.3 0-38.5 17.3-38.5 38.5 0 21.3 17.3 38.5 38.5 38.5s38.5-17.3 38.5-38.5c0-9.9-3.8-19-9.9-25.8C395.8 189.3 396.5 191.4 396.5 193.7zM235.2 234.8c3.4 0 6.1-2.7 6.1-6.1 0-3.4-2.7-6.1-6.1-6.1H102.9c-3.4 0-6.1 2.7-6.1 6.1 0 3.4 2.7 6.1 6.1 6.1H235.2zM102.9 268.4h140.3c3.4 0 6.1-2.7 6.1-6.1s-2.7-6.1-6.1-6.1H102.9c-3.4 0-6.1 2.7-6.1 6.1C96.8 265.7 99.6 268.4 102.9 268.4zM102.9 289.9c-3.4 0-6.1 2.7-6.1 6.1s2.7 6.1 6.1 6.1h152.5c3.4 0 6.1-2.7 6.1-6.1s-2.7-6.1-6.1-6.1H102.9z" fill="#021b79" class="color000000 svgShape"></path></svg>