<svg width="64" height="64" viewBox="0 0 64 64" fill="none" xmlns="http://www.w3.org/2000/svg">
<path d="M58.288 45.189C58.8664 44.5989 59.3163 43.8954 59.6093 43.1228C59.9022 42.3502 60.0318 41.5252 59.99 40.7C59.829 37.504 57.198 35 54 35C50.802 35 48.171 37.504 48.015 40.645C48.0035 40.763 47.9985 40.8815 48 41C47.9999 42.5667 48.6146 44.0708 49.712 45.189C47.582 45.761 46 47.691 46 50V61C46 61.2652 46.1054 61.5196 46.2929 61.7071C46.4804 61.8946 46.7348 62 47 62H61C61.2652 62 61.5196 61.8946 61.7071 61.7071C61.8946 61.5196 62 61.2652 62 61V50C62 47.691 60.418 45.761 58.288 45.189ZM54 37C54.6707 37.0007 55.3302 37.1718 55.9166 37.4971C56.5031 37.8224 56.9973 38.2914 57.353 38.86C56.3251 38.2967 55.1721 38.001 54 38C52.802 38 51.65 38.31 50.634 38.868C50.9913 38.2974 51.4874 37.8267 52.0761 37.5C52.6648 37.1733 53.3267 37.0013 54 37ZM54 40C55.53 40 56.956 40.702 57.894 41.885C57.489 43.665 55.901 45 54 45C52.099 45 50.511 43.665 50.106 41.885C50.5708 41.2974 51.1625 40.8225 51.8369 40.4961C52.5113 40.1696 53.2508 40 54 40ZM54.923 53.813L54 55.197L53.077 53.813L54 50.123L54.923 53.813ZM60 60H48V50C48 48.346 49.346 47 51 47H52.72L51.031 53.758C50.9972 53.8931 50.992 54.0338 51.0157 54.1711C51.0395 54.3083 51.0917 54.4391 51.169 54.555L53.169 57.555C53.26 57.6922 53.3836 57.8047 53.5287 57.8825C53.6738 57.9604 53.8359 58.0011 54.0005 58.0011C54.1651 58.0011 54.3272 57.9604 54.4723 57.8825C54.6174 57.8047 54.741 57.6922 54.832 57.555L56.832 54.555C56.988 54.321 57.038 54.032 56.97 53.758L55.28 47H57C58.654 47 60 48.346 60 50V60ZM40 36H28C27.7348 36 27.4804 36.1054 27.2929 36.2929C27.1054 36.4804 27 36.7348 27 37V45.453L22.101 46.634L18.271 45.145C17.0904 44.4893 15.7764 44.1101 14.428 44.036C15.4384 42.9347 15.9993 41.4946 16 40C16.0017 39.8999 15.9983 39.7998 15.99 39.7C15.829 36.504 13.198 34 10 34C6.802 34 4.171 36.504 4.015 39.645C4.00351 39.763 3.99851 39.8815 4 40C3.9999 41.5667 4.61463 43.0708 5.712 44.189C3.582 44.761 2 46.691 2 49V61C2 61.2652 2.10536 61.5196 2.29289 61.7071C2.48043 61.8946 2.73478 62 3 62H17C17.2652 62 17.5196 61.8946 17.7071 61.7071C17.8946 61.5196 18 61.2652 18 61V52.387L21.401 53.518C21.645 53.609 21.919 53.663 22.214 53.678C22.344 53.685 22.474 53.667 22.597 53.624L27 52.096V53C27 53.2652 27.1054 53.5196 27.2929 53.7071C27.4804 53.8946 27.7348 54 28 54H40C40.2652 54 40.5196 53.8946 40.7071 53.7071C40.8946 53.5196 41 53.2652 41 53V37C41 36.7348 40.8946 36.4804 40.7071 36.2929C40.5196 36.1054 40.2652 36 40 36ZM10 36C10.6707 36.0007 11.3302 36.1718 11.9166 36.4971C12.5031 36.8224 12.9973 37.2914 13.353 37.86C12.3251 37.2967 11.1721 37.001 10 37C8.802 37 7.65 37.31 6.634 37.868C6.99126 37.2974 7.48745 36.8267 8.07613 36.5C8.66481 36.1733 9.32674 36.0013 10 36ZM10 39C11.53 39 12.956 39.702 13.894 40.885C13.489 42.665 11.901 44 10 44C8.099 44 6.511 42.665 6.106 40.885C6.57078 40.2974 7.16252 39.8225 7.83689 39.4961C8.51126 39.1696 9.25077 39 10 39ZM10.919 53.036L10 54.3L9.081 53.036L10 49.244L10.919 53.036ZM27 49.979L22.159 51.659C22.122 51.65 22.093 51.64 22.065 51.631L17.315 50.051C17.012 49.949 16.675 50 16.415 50.189C16.155 50.378 16 50.679 16 51V60H4V49C4 47.346 5.346 46 7 46H8.729L7.028 53.015C6.99373 53.1558 6.99057 53.3023 7.01872 53.4445C7.04687 53.5866 7.10566 53.7209 7.191 53.838L9.191 56.588C9.28389 56.7155 9.40559 56.8192 9.54618 56.8907C9.68677 56.9622 9.84227 56.9995 10 56.9995C10.1577 56.9995 10.3132 56.9622 10.4538 56.8907C10.5944 56.8192 10.7161 56.7155 10.809 56.588L12.809 53.838C12.8943 53.7209 12.9531 53.5866 12.9813 53.4445C13.0094 53.3023 13.0063 53.1558 12.972 53.015L11.271 46H13.88C15.101 46 16.298 46.317 17.342 46.917C17.3853 46.9423 17.4309 46.9638 17.478 46.981L21.668 48.611C21.857 48.686 22.065 48.701 22.265 48.651L27 47.51V49.979ZM39 52H29V38H39V52Z" fill="url(#paint0_linear_11909_41807)"/>
<path d="M30.0012 40H32.0012V42H30.0012V40ZM34.0012 40H38.0013V42H34.0012V40ZM30.0012 44H32.0012V46H30.0012V44ZM34.0012 44H38.0013V46H34.0012V44ZM30.0012 48H32.0012V50H30.0012V48ZM34.0012 48H38.0013V50H34.0012V48ZM7.48225 27.123C7.36144 27.0564 7.2281 27.0158 7.09072 27.0035C6.95334 26.9913 6.81491 27.0078 6.68425 27.052L4.70925 27.71L3.97125 24.758L2.03125 25.242L3.03125 29.242C3.06469 29.3756 3.12537 29.5009 3.20949 29.6099C3.29361 29.719 3.39935 29.8095 3.52009 29.8758C3.64083 29.9421 3.77396 29.9827 3.91113 29.9951C4.04831 30.0076 4.18657 29.9915 4.31725 29.948L6.29325 29.29L7.03125 32.242L8.97025 31.758L7.97025 27.758C7.93728 27.6241 7.87689 27.4986 7.79288 27.3893C7.70888 27.28 7.60311 27.1893 7.48225 27.123ZM8.00125 21V25C8.00121 25.1585 8.03883 25.3146 8.111 25.4557C8.18317 25.5968 8.28782 25.7187 8.41634 25.8113C8.54487 25.904 8.69357 25.9648 8.8502 25.9888C9.00684 26.0127 9.16692 25.9991 9.31725 25.949L11.0013 25.388V31H13.0013V24C13.0013 23.679 12.8473 23.377 12.5863 23.188C12.4578 23.095 12.3091 23.0341 12.1524 23.0103C11.9956 22.9864 11.8355 23.0004 11.6853 23.051L10.0013 23.612V21H8.00125ZM42.9313 16.651L42.9383 16.648L39.9383 8.648C39.8664 8.45761 39.7382 8.29363 39.5708 8.17788C39.4034 8.06212 39.2048 8.00008 39.0013 8H34.8173C34.668 7.58165 34.4277 7.20169 34.1136 6.88762C33.7996 6.57355 33.4196 6.33321 33.0012 6.184V5H31.0012V6.184C30.5829 6.33321 30.2029 6.57355 29.8889 6.88762C29.5748 7.20169 29.3345 7.58165 29.1852 8H25.0012C24.5842 8 24.2112 8.259 24.0642 8.648L21.0642 16.648L21.0712 16.651C21.027 16.7621 21.0032 16.8804 21.0012 17C21.0012 19.206 22.7952 21 25.0012 21C27.2072 21 29.0012 19.206 29.0012 17C28.9993 16.8804 28.9755 16.7621 28.9312 16.651L28.9382 16.648L26.4443 10H29.1852C29.3345 10.4184 29.5748 10.7983 29.8889 11.1124C30.2029 11.4265 30.5829 11.6668 31.0012 11.816V24H28.0012C27.736 24 27.4817 24.1054 27.2941 24.2929C27.1066 24.4804 27.0012 24.7348 27.0012 25V28C27.0012 28.2652 27.1066 28.5196 27.2941 28.7071C27.4817 28.8946 27.736 29 28.0012 29H36.0013C36.2665 29 36.5208 28.8946 36.7084 28.7071C36.8959 28.5196 37.0013 28.2652 37.0013 28V25C37.0013 24.7348 36.8959 24.4804 36.7084 24.2929C36.5208 24.1054 36.2665 24 36.0013 24H33.0012V11.816C33.4196 11.6668 33.7996 11.4265 34.1136 11.1124C34.4277 10.7983 34.668 10.4184 34.8173 10H37.5583L35.0653 16.648L35.0723 16.651C35.0272 16.7619 35.0031 16.8803 35.0013 17C35.0013 19.206 36.7953 21 39.0013 21C41.2073 21 43.0013 19.206 43.0013 17C42.9993 16.8804 42.9755 16.7621 42.9313 16.651ZM25.0012 19C24.6503 19.0001 24.3055 18.9077 24.0016 18.7322C23.6977 18.5566 23.4455 18.3041 23.2702 18H26.7332C26.5577 18.304 26.3052 18.5565 26.0012 18.732C25.6972 18.9076 25.3523 19 25.0012 19ZM26.5582 16H23.4452L25.0012 11.849L26.5582 16ZM35.0013 26V27H29.0012V26H35.0013ZM32.0012 10C31.736 10 31.4817 9.89464 31.2941 9.70711C31.1066 9.51957 31.0012 9.26522 31.0012 9C31.0012 8.73478 31.1066 8.48043 31.2941 8.29289C31.4817 8.10536 31.736 8 32.0012 8C32.2665 8 32.5208 8.10536 32.7084 8.29289C32.8959 8.48043 33.0012 8.73478 33.0012 9C33.0012 9.26522 32.8959 9.51957 32.7084 9.70711C32.5208 9.89464 32.2665 10 32.0012 10ZM39.0013 11.849L40.5583 16H37.4453L39.0013 11.849ZM39.0013 19C38.6503 19.0001 38.3055 18.9077 38.0016 18.7322C37.6977 18.5566 37.4455 18.3041 37.2703 18H40.7332C40.5577 18.304 40.3052 18.5565 40.0012 18.732C39.6972 18.9076 39.3523 19 39.0013 19Z" fill="url(#paint1_linear_11909_41807)"/>
<path d="M48 17C48 8.178 40.822 1 32 1C23.178 1 16 8.178 16 17C16 25.822 23.178 33 32 33C40.822 33 48 25.822 48 17ZM32 31C24.28 31 18 24.72 18 17C18 9.28 24.28 3 32 3C39.72 3 46 9.28 46 17C46 24.72 39.72 31 32 31Z" fill="url(#paint2_linear_11909_41807)"/>
<defs>
<linearGradient id="paint0_linear_11909_41807" x1="2" y1="55.84" x2="38.871" y2="19.4958" gradientUnits="userSpaceOnUse">
<stop stop-color="#0575E6"/>
<stop offset="1" stop-color="#021B79"/>
</linearGradient>
<linearGradient id="paint1_linear_11909_41807" x1="2.03125" y1="40.1" x2="44.2631" y2="22.4131" gradientUnits="userSpaceOnUse">
<stop stop-color="#0575E6"/>
<stop offset="1" stop-color="#021B79"/>
</linearGradient>
<linearGradient id="paint2_linear_11909_41807" x1="16" y1="25.96" x2="48" y2="11.24" gradientUnits="userSpaceOnUse">
<stop stop-color="#0575E6"/>
<stop offset="1" stop-color="#021B79"/>
</linearGradient>
</defs>
</svg>
