<svg xmlns="http://www.w3.org/2000/svg" fill-rule="evenodd" clip-rule="evenodd" image-rendering="optimizeQuality" shape-rendering="geometricPrecision" text-rendering="geometricPrecision" viewBox="0 0 49.364 47.394" id="mentor"><g fill="#021b79" class="color000000 svgShape"><path fill-rule="nonzero" d="M4.21 25.459c-0.034,0.308 -0.312,0.531 -0.62,0.497 -0.309,-0.034 -0.531,-0.312 -0.497,-0.621 0.072,-0.65 0.135,-1.31 0.195,-1.947 0.121,-1.274 0.234,-2.464 0.347,-2.857 0.178,-0.613 0.323,-1.036 0.474,-1.347 0.182,-0.372 0.374,-0.604 0.624,-0.792l0.003 -0.001c0.417,-0.311 0.907,-0.431 1.934,-0.682l0.244 -0.06c0.553,-0.136 1.261,-0.314 1.974,-0.514 0.704,-0.197 1.399,-0.412 1.924,-0.621 0.415,-0.164 0.732,-0.328 0.99,-0.49 0.254,-0.16 0.452,-0.32 0.632,-0.479l0.019 -0.016c0.103,-0.085 0.225,-0.138 0.352,-0.156 0.133,-0.019 0.271,0.002 0.398,0.063 0.028,0.012 0.055,0.027 0.08,0.043l0 -0.566 -0.02 -0.02c-0.243,-0.254 -0.43,-0.53 -0.562,-0.831 -0.133,-0.302 -0.21,-0.627 -0.233,-0.979l-0.04 -0.605c-0.112,-0.053 -0.215,-0.115 -0.306,-0.19 -0.109,-0.088 -0.2,-0.191 -0.283,-0.329 -0.07,-0.115 -0.129,-0.244 -0.186,-0.406l-0.011 -0.034c-0.046,-0.131 -0.093,-0.287 -0.138,-0.45l-0.002 0c-0.048,-0.176 -0.096,-0.376 -0.138,-0.573 -0.04,-0.188 -0.072,-0.36 -0.096,-0.515 -0.025,-0.166 -0.043,-0.325 -0.055,-0.475l0 -0.016c-0.011,-0.147 -0.014,-0.287 -0.007,-0.424 0.01,-0.166 0.036,-0.32 0.086,-0.459 0.057,-0.162 0.157,-0.306 0.269,-0.421 0.068,-0.069 0.144,-0.129 0.223,-0.178l-0.116 -1.628c-0.052,-0.555 -0.011,-1.238 0.156,-1.856 0.151,-0.56 0.408,-1.081 0.796,-1.44 0.129,-0.121 0.339,-0.215 0.548,-0.273 0.031,-0.175 0.103,-0.356 0.235,-0.535 0.135,-0.182 0.37,-0.473 0.655,-0.735l-0.001 -0.001c0.211,-0.193 0.45,-0.37 0.702,-0.482 0.386,-0.171 0.798,-0.322 1.224,-0.421 0.44,-0.103 0.896,-0.15 1.353,-0.106 0.47,0.045 0.929,0.161 1.367,0.327 0.485,0.183 0.946,0.427 1.37,0.699 0.339,0.219 0.655,0.489 0.933,0.796 0.278,0.306 0.516,0.647 0.7,1.005 0.2,0.387 0.329,0.785 0.418,1.199 0.085,0.402 0.132,0.807 0.169,1.228l0.001 0.015c0.033,0.392 0.037,0.827 0.019,1.269 -0.013,0.32 -0.038,0.638 -0.07,0.942 0.084,0.046 0.166,0.103 0.242,0.172 0.135,0.124 0.245,0.28 0.314,0.478l0.011 0.037c0.047,0.152 0.068,0.325 0.072,0.507l0 0.005c0.004,0.176 -0.005,0.344 -0.019,0.504l-0.007 0.053c-0.014,0.148 -0.032,0.296 -0.055,0.442 -0.025,0.166 -0.058,0.334 -0.099,0.504l0 0.002c-0.039,0.163 -0.085,0.325 -0.133,0.475 -0.057,0.175 -0.112,0.328 -0.161,0.445l-0.014 0.03c-0.051,0.12 -0.106,0.226 -0.171,0.326 -0.08,0.125 -0.167,0.223 -0.271,0.309l-0.005 0.004c-0.097,0.078 -0.208,0.143 -0.329,0.199l-0.072 0.032 -0.036 0.554c-0.022,0.336 -0.095,0.649 -0.22,0.944l-0.001 0.002c-0.095,0.227 -0.221,0.438 -0.377,0.636l0 0.807c0.024,-0.015 0.049,-0.029 0.075,-0.041 0.021,-0.011 0.043,-0.019 0.064,-0.027 0.11,-0.04 0.225,-0.053 0.338,-0.038l0.002 0.001c0.134,0.018 0.261,0.075 0.37,0.171 0.18,0.159 0.378,0.319 0.632,0.479 0.258,0.163 0.575,0.327 0.99,0.491 0.524,0.208 1.22,0.423 1.924,0.62 0.713,0.2 1.421,0.378 1.974,0.514l0.25 0.061c1.026,0.251 1.515,0.37 1.93,0.68l0.034 0.029c0.234,0.182 0.418,0.41 0.59,0.765 0.152,0.311 0.297,0.734 0.475,1.347 0.114,0.395 0.227,1.585 0.348,2.861 0.061,0.635 0.123,1.293 0.196,1.944 0.034,0.309 -0.189,0.587 -0.497,0.621 -0.309,0.034 -0.587,-0.189 -0.621,-0.497 -0.061,-0.551 -0.13,-1.269 -0.195,-1.962 -0.117,-1.223 -0.225,-2.363 -0.309,-2.655 -0.159,-0.546 -0.284,-0.915 -0.409,-1.17 -0.087,-0.18 -0.168,-0.288 -0.262,-0.364l-0.024 -0.017c-0.237,-0.177 -0.651,-0.278 -1.52,-0.49l-0.254 -0.062c-0.569,-0.139 -1.294,-0.321 -2.009,-0.522 -0.724,-0.203 -1.454,-0.429 -2.035,-0.66 -0.49,-0.194 -0.866,-0.389 -1.174,-0.583l-0.031 -0.019c0.02,0.352 0.037,0.701 0.051,1.045 0.025,0.621 0.035,1.191 0.018,1.666 -0.019,0.545 -0.074,0.969 -0.191,1.388 -0.116,0.417 -0.287,0.811 -0.54,1.3l-1.922 3.325c-0.093,0.16 -0.263,0.27 -0.462,0.279 -0.31,0.013 -0.572,-0.227 -0.585,-0.537l-0.092 -2.038 -0.519 -1.899 -0.049 -0.113 -0.021 -0.044c-0.17,-0.394 -0.052,-0.652 0.077,-0.932l0.031 -0.069 0.328 -0.755 -0.581 -0.346c-0.075,-0.037 -0.143,-0.092 -0.197,-0.163 -0.018,-0.023 -0.033,-0.047 -0.047,-0.072 -0.045,0.071 -0.107,0.132 -0.184,0.178l-0.676 0.403c0.137,0.283 0.273,0.567 0.411,0.849l-0.002 0.001c0.144,0.294 0.277,0.568 0.099,0.981l-0.002 -0.001 -0.035 0.083 -0.52 1.899 -0.091 2.02c-0.002,0.191 -0.102,0.377 -0.28,0.48 -0.269,0.156 -0.613,0.064 -0.768,-0.204l-1.919 -3.319c-0.254,-0.491 -0.426,-0.887 -0.543,-1.305 -0.117,-0.419 -0.172,-0.843 -0.191,-1.388 -0.017,-0.475 -0.007,-1.046 0.018,-1.667 0.014,-0.343 0.031,-0.692 0.051,-1.044l-0.03 0.018c-0.309,0.195 -0.685,0.389 -1.176,0.583 -0.581,0.231 -1.31,0.458 -2.034,0.661 -0.715,0.2 -1.44,0.383 -2.009,0.522l-0.248 0.06c-0.876,0.214 -1.293,0.316 -1.53,0.492 -0.102,0.077 -0.189,0.188 -0.283,0.381 -0.124,0.255 -0.249,0.624 -0.408,1.17 -0.084,0.291 -0.192,1.43 -0.307,2.651 -0.066,0.694 -0.134,1.413 -0.196,1.965zm38.569 10.645c-0.335,-0.126 -0.505,-0.501 -0.379,-0.837 0.127,-0.336 0.502,-0.506 0.837,-0.379l2.807 1.054c0.633,0.241 1.167,0.624 1.574,1.113 0.408,0.492 0.684,1.086 0.799,1.746l0.823 4.619 0.007 0.051c0.08,0.462 0.119,0.904 0.117,1.341 -0.003,0.464 -0.049,0.914 -0.139,1.368 -0.07,0.354 -0.259,0.657 -0.521,0.872 -0.263,0.216 -0.596,0.342 -0.955,0.342l-14.037 0c-0.358,0 -0.691,-0.126 -0.955,-0.342 -0.262,-0.215 -0.45,-0.518 -0.52,-0.872 -0.09,-0.454 -0.137,-0.904 -0.139,-1.368 -0.002,-0.453 0.04,-0.911 0.126,-1.392l-0.002 0 0.827 -4.643c0.117,-0.651 0.392,-1.236 0.795,-1.721 0.406,-0.49 0.941,-0.873 1.574,-1.114l2.805 -1.054c0.336,-0.127 0.711,0.043 0.837,0.379 0.127,0.336 -0.043,0.711 -0.379,0.837l-2.805 1.055c-0.42,0.159 -0.772,0.409 -1.035,0.726 -0.257,0.31 -0.434,0.69 -0.511,1.119l-0.826 4.64 -0.002 0 0 0.003c-0.073,0.403 -0.108,0.785 -0.106,1.16 0.001,0.366 0.041,0.736 0.118,1.124 0.01,0.05 0.035,0.091 0.068,0.118 0.032,0.027 0.078,0.043 0.13,0.043l14.037 0c0.053,0 0.098,-0.016 0.131,-0.043 0.033,-0.027 0.058,-0.068 0.068,-0.118 0.077,-0.389 0.116,-0.758 0.118,-1.124 0.002,-0.36 -0.031,-0.726 -0.097,-1.111l-0.012 -0.052 -0.822 -4.622c-0.076,-0.436 -0.253,-0.823 -0.515,-1.137 -0.262,-0.317 -0.614,-0.567 -1.034,-0.726l-2.807 -1.055zm-22.878 -1.723c-0.018,-0.117 -0.014,-0.214 -0.004,-0.307 0.089,-0.756 0.262,-1.631 0.471,-2.482 0.237,-0.967 0.517,-1.897 0.77,-2.585 0.285,-0.776 0.742,-1.357 1.336,-1.751 0.609,-0.405 1.346,-0.601 2.172,-0.601 0.826,0 1.563,0.196 2.173,0.601 0.593,0.394 1.051,0.975 1.336,1.751 0.252,0.688 0.533,1.619 0.77,2.586 0.206,0.843 0.378,1.708 0.467,2.459l0.003 0.019c0.011,0.093 0.015,0.192 -0.004,0.31 -0.021,0.134 -0.068,0.262 -0.155,0.381 -0.016,0.024 -0.034,0.048 -0.054,0.07 -0.365,0.41 -1.019,0.657 -1.745,0.801 -0.997,0.199 -2.194,0.225 -2.791,0.223 -0.597,0.002 -1.793,-0.024 -2.79,-0.223 -0.727,-0.144 -1.38,-0.391 -1.745,-0.801 -0.123,-0.137 -0.185,-0.29 -0.21,-0.451zm1.308 -0.313c0.195,0.118 0.523,0.213 0.901,0.288 0.906,0.181 1.993,0.204 2.536,0.203 0.543,0.001 1.631,-0.022 2.536,-0.203 0.378,-0.075 0.707,-0.17 0.901,-0.288 -0.087,-0.674 -0.24,-1.432 -0.42,-2.17 -0.222,-0.904 -0.488,-1.784 -0.73,-2.444 -0.185,-0.505 -0.47,-0.874 -0.832,-1.114 -0.387,-0.257 -0.882,-0.382 -1.455,-0.382 -0.573,0 -1.067,0.125 -1.455,0.382 -0.362,0.24 -0.646,0.609 -0.832,1.114 -0.241,0.659 -0.508,1.539 -0.729,2.443 -0.181,0.738 -0.334,1.497 -0.421,2.171zm5.992 3.009c-0.336,-0.126 -0.505,-0.501 -0.379,-0.837 0.126,-0.335 0.501,-0.505 0.837,-0.379l1.363 0.513c0.02,0.007 0.041,0.016 0.06,0.026 0.479,0.208 0.938,0.526 1.3,0.98 0.322,0.402 0.564,0.903 0.67,1.516l0.84 6.81c0.026,0.215 0.008,0.426 -0.055,0.628 -0.062,0.201 -0.167,0.386 -0.313,0.551 -0.147,0.166 -0.317,0.293 -0.506,0.378 -0.194,0.087 -0.401,0.131 -0.619,0.131l-11.505 0c-0.219,0 -0.426,-0.044 -0.619,-0.131 -0.19,-0.085 -0.36,-0.212 -0.507,-0.378 -0.147,-0.166 -0.252,-0.35 -0.313,-0.548l-0.011 -0.039c-0.054,-0.191 -0.069,-0.389 -0.044,-0.592l0.835 -6.779c0.003,-0.022 0.007,-0.044 0.011,-0.065 0.11,-0.597 0.348,-1.087 0.664,-1.482 0.372,-0.466 0.846,-0.789 1.338,-0.996l1.385 -0.523c0.336,-0.126 0.711,0.044 0.838,0.379 0.126,0.336 -0.044,0.711 -0.38,0.837l-1.362 0.513c-0.302,0.13 -0.588,0.326 -0.806,0.599 -0.186,0.232 -0.328,0.529 -0.396,0.902l-0.834 6.773c-0.004,0.03 -0.004,0.056 0.001,0.077l0.003 0.009c0.008,0.026 0.022,0.052 0.043,0.075 0.021,0.024 0.044,0.041 0.069,0.052 0.021,0.01 0.05,0.015 0.085,0.015l11.505 0c0.035,0 0.063,-0.005 0.084,-0.015 0.025,-0.011 0.049,-0.028 0.069,-0.052 0.022,-0.024 0.036,-0.049 0.044,-0.073 0.007,-0.022 0.008,-0.052 0.004,-0.088l-0.835 -6.773c-0.068,-0.373 -0.21,-0.67 -0.395,-0.902 -0.217,-0.272 -0.501,-0.466 -0.8,-0.597l-1.369 -0.515zm-18.568 -11.028c1.066,0 2.031,0.431 2.729,1.129 0.697,0.698 1.129,1.663 1.129,2.728 0,0.813 -0.213,1.806 -0.624,2.691 -0.364,0.786 -0.89,1.5 -1.57,1.955 -0.142,0.095 -0.291,0.167 -0.45,0.215 -0.157,0.048 -0.32,0.071 -0.492,0.072l-1.439 0.001c-0.177,0 -0.34,-0.022 -0.493,-0.068 -0.154,-0.047 -0.302,-0.119 -0.45,-0.217 -0.681,-0.455 -1.207,-1.169 -1.572,-1.956 -0.411,-0.885 -0.625,-1.879 -0.625,-2.693 0,-1.065 0.432,-2.03 1.13,-2.728 0.697,-0.698 1.662,-1.129 2.727,-1.129zm1.808 2.05c-0.462,-0.462 -1.101,-0.748 -1.808,-0.748 -0.706,0 -1.345,0.286 -1.806,0.748 -0.462,0.462 -0.748,1.101 -0.748,1.807 0,0.644 0.172,1.437 0.502,2.149 0.273,0.588 0.649,1.11 1.115,1.421 0.032,0.021 0.066,0.038 0.104,0.049 0.039,0.012 0.077,0.017 0.116,0.017l1.439 -0.001c0.043,0 0.082,-0.005 0.116,-0.016 0.032,-0.009 0.066,-0.027 0.103,-0.052 0.465,-0.311 0.84,-0.833 1.113,-1.421 0.33,-0.711 0.501,-1.502 0.501,-2.146 0,-0.706 -0.285,-1.345 -0.747,-1.807zm0.241 8.005c-0.336,-0.126 -0.506,-0.501 -0.38,-0.837 0.127,-0.336 0.502,-0.506 0.838,-0.379l2.806 1.054c0.633,0.241 1.168,0.624 1.574,1.113 0.408,0.492 0.684,1.086 0.799,1.746l0.823 4.619 0.007 0.051c0.08,0.462 0.119,0.903 0.117,1.341 -0.002,0.464 -0.049,0.914 -0.139,1.368 -0.07,0.354 -0.259,0.657 -0.521,0.872 -0.262,0.216 -0.596,0.342 -0.954,0.342l-14.037 0c-0.359,0 -0.692,-0.126 -0.955,-0.342 -0.262,-0.215 -0.451,-0.518 -0.521,-0.872 -0.045,-0.228 -0.08,-0.462 -0.104,-0.706 -0.024,-0.23 -0.035,-0.464 -0.035,-0.704 0,-0.224 0.011,-0.447 0.032,-0.67 0.021,-0.22 0.052,-0.446 0.094,-0.68l-0.002 0 0.827 -4.643c0.117,-0.651 0.392,-1.236 0.795,-1.721 0.407,-0.49 0.941,-0.873 1.575,-1.114l2.805 -1.054c0.335,-0.127 0.71,0.043 0.837,0.379 0.126,0.336 -0.044,0.711 -0.379,0.837l-2.806 1.055c-0.42,0.159 -0.772,0.409 -1.035,0.726 -0.257,0.31 -0.434,0.69 -0.511,1.119l-0.826 4.64 -0.002 0 0 0.003c-0.035,0.193 -0.061,0.385 -0.079,0.575 -0.018,0.188 -0.027,0.371 -0.027,0.548 0,0.189 0.009,0.381 0.029,0.577 0.018,0.183 0.048,0.377 0.089,0.584 0.01,0.05 0.035,0.091 0.068,0.118 0.032,0.027 0.078,0.043 0.131,0.043l14.037 0c0.052,0 0.098,-0.016 0.13,-0.043 0.033,-0.027 0.058,-0.068 0.068,-0.118 0.077,-0.389 0.116,-0.758 0.118,-1.124 0.002,-0.36 -0.03,-0.726 -0.097,-1.111l-0.011 -0.052 -0.823 -4.622c-0.075,-0.436 -0.253,-0.823 -0.514,-1.137 -0.263,-0.317 -0.614,-0.567 -1.035,-0.726l-2.806 -1.055zm30.049 -10.055c1.066,0 2.03,0.431 2.728,1.129 0.698,0.698 1.13,1.663 1.13,2.728 0,0.813 -0.214,1.806 -0.624,2.691 -0.364,0.786 -0.89,1.5 -1.57,1.955 -0.142,0.095 -0.291,0.167 -0.45,0.215 -0.157,0.048 -0.32,0.071 -0.492,0.072l-1.439 0.001c-0.176,0 -0.338,-0.022 -0.49,-0.068 -0.021,-0.007 -0.041,-0.014 -0.061,-0.022 -0.137,-0.047 -0.267,-0.112 -0.392,-0.195 -0.681,-0.455 -1.208,-1.169 -1.573,-1.956 -0.411,-0.885 -0.624,-1.879 -0.624,-2.693 0,-1.065 0.431,-2.03 1.129,-2.728 0.698,-0.698 1.663,-1.129 2.728,-1.129zm1.807 2.05c-0.462,-0.462 -1.101,-0.748 -1.807,-0.748 -0.706,0 -1.345,0.286 -1.807,0.748 -0.462,0.462 -0.748,1.101 -0.748,1.807 0,0.644 0.172,1.437 0.503,2.149 0.273,0.588 0.649,1.11 1.115,1.421 0.027,0.018 0.054,0.033 0.079,0.043l0.022 0.006c0.039,0.012 0.078,0.017 0.119,0.017l1.439 -0.001c0.043,0 0.082,-0.005 0.115,-0.016 0.032,-0.009 0.067,-0.027 0.104,-0.052 0.465,-0.311 0.84,-0.833 1.113,-1.421 0.33,-0.711 0.501,-1.502 0.501,-2.146 0,-0.706 -0.286,-1.345 -0.748,-1.807zm-39.407 -1.141l1.361 0c-0.593,0.831 -0.942,1.849 -0.942,2.948 0,0.687 0.112,1.421 0.328,2.136l-0.747 0c-0.827,0 -1.502,-0.676 -1.502,-1.502l0 -2.08c0,-0.827 0.675,-1.502 1.502,-1.502zm9.644 0l8.178 0c-0.406,0.448 -0.734,0.991 -0.967,1.626 -0.383,1.043 -0.735,2.264 -0.989,3.458l-5.608 0c0.216,-0.715 0.328,-1.449 0.328,-2.136 0,-1.099 -0.349,-2.117 -0.942,-2.948zm15.565 0l8.249 0c-0.593,0.831 -0.941,1.849 -0.941,2.948 0,0.687 0.112,1.421 0.327,2.136l-5.68 0c-0.254,-1.194 -0.606,-2.415 -0.989,-3.458 -0.232,-0.635 -0.56,-1.178 -0.966,-1.626zm16.533 0l1.36 0c0.826,0 1.502,0.675 1.502,1.502l0 2.08c0,0.826 -0.676,1.502 -1.502,1.502l-0.746 0c0.215,-0.715 0.328,-1.449 0.328,-2.136 0,-1.099 -0.349,-2.117 -0.942,-2.948zm-8.211 -26.958c5.388,0 9.755,3.285 9.755,7.337 0,4.052 -4.367,7.336 -9.755,7.336 -2.13,0 -4.1,-0.514 -5.704,-1.385l-3.817 1.819c-0.14,0.067 -0.3,0.039 -0.41,-0.071 -0.11,-0.11 -0.138,-0.269 -0.071,-0.41l1.661 -3.483c-0.897,-1.11 -1.414,-2.413 -1.414,-3.806 0,-4.052 4.368,-7.337 9.755,-7.337zm3.491 6.631c-0.631,0 -1.142,0.511 -1.142,1.141 0,0.631 0.511,1.142 1.142,1.142 0.63,0 1.141,-0.511 1.141,-1.142 0,-0.63 -0.511,-1.141 -1.141,-1.141zm-3.833 0c-0.63,0 -1.142,0.511 -1.142,1.141 0,0.631 0.512,1.142 1.142,1.142 0.631,0 1.142,-0.511 1.142,-1.142 0,-0.63 -0.511,-1.141 -1.142,-1.141zm-3.832 0c-0.631,0 -1.142,0.511 -1.142,1.141 0,0.631 0.511,1.142 1.142,1.142 0.63,0 1.141,-0.511 1.141,-1.142 0,-0.63 -0.511,-1.141 -1.141,-1.141zm-18.933 10.338c-0.021,0.378 -0.04,0.741 -0.053,1.075 -0.024,0.598 -0.034,1.141 -0.018,1.584 0.016,0.453 0.06,0.799 0.152,1.128 0.091,0.326 0.235,0.656 0.452,1.076l0.939 1.623 0.008 -0.181c0.002,-0.053 0.012,-0.104 0.028,-0.152l0.538 -1.971c0.009,-0.032 0.02,-0.062 0.034,-0.092l0.044 -0.101 -0.002 0c0.024,-0.056 -0.048,0.007 -0.073,-0.045l-0.002 0c-0.15,-0.307 -0.297,-0.617 -0.445,-0.925 -0.064,-0.133 -0.129,-0.293 -0.148,-0.464 -0.034,-0.301 0.05,-0.58 0.368,-0.769l0.215 -0.127 -1.716 -1.319c-0.126,-0.099 -0.233,-0.213 -0.321,-0.34zm3.377 1.271c0.055,0.042 0.103,0.095 0.141,0.158l0.011 0.019c0.034,-0.053 0.078,-0.102 0.131,-0.142l2.4 -1.842c0.059,-0.045 0.102,-0.097 0.13,-0.153 0.027,-0.055 0.041,-0.121 0.041,-0.197l0 -1.616c0.001,-0.136 0.049,-0.271 0.147,-0.379 0.142,-0.154 0.249,-0.318 0.323,-0.493 0.074,-0.174 0.118,-0.365 0.132,-0.576l0.06 -0.934c0.016,-0.235 0.179,-0.446 0.421,-0.508l0.097 -0.028 0.001 0.001c0.069,-0.021 0.131,-0.043 0.184,-0.067 0.037,-0.017 0.068,-0.035 0.092,-0.055 0.015,-0.012 0.027,-0.026 0.039,-0.044 0.02,-0.032 0.045,-0.084 0.076,-0.156l0.011 -0.028c0.046,-0.11 0.091,-0.232 0.13,-0.353 0.042,-0.128 0.08,-0.264 0.112,-0.396 0.033,-0.137 0.06,-0.275 0.081,-0.413 0.02,-0.126 0.035,-0.251 0.047,-0.374l0.002 -0.047c0.012,-0.143 0.021,-0.279 0.019,-0.382l0 -0.003c-0.002,-0.078 -0.008,-0.144 -0.021,-0.192l-0.011 -0.03c-0.007,-0.006 -0.018,-0.012 -0.033,-0.018l-0.018 -0.007c-0.011,-0.004 -0.026,-0.008 -0.043,-0.012l-0.04 -0.006 -0.046 -0.005c-0.307,-0.043 -0.521,-0.328 -0.478,-0.636 0.059,-0.411 0.103,-0.861 0.12,-1.301 0.016,-0.384 0.012,-0.77 -0.018,-1.13l-0.001 -0.013c-0.034,-0.389 -0.076,-0.756 -0.147,-1.091 -0.07,-0.324 -0.168,-0.63 -0.316,-0.918 -0.143,-0.276 -0.324,-0.536 -0.534,-0.768 -0.208,-0.229 -0.448,-0.434 -0.708,-0.601 -0.364,-0.235 -0.755,-0.442 -1.159,-0.594 -0.353,-0.134 -0.715,-0.227 -1.077,-0.261 -0.321,-0.031 -0.657,0.005 -0.992,0.083 -0.349,0.082 -0.696,0.21 -1.026,0.356 -0.127,0.056 -0.264,0.161 -0.393,0.279l-0.001 -0.001 -0.002 0.001c-0.211,0.194 -0.398,0.426 -0.506,0.573 -0.023,0.031 -0.033,0.054 -0.034,0.071 -0.001,0.014 0.006,0.033 0.015,0.051l-0.001 0.001c0.105,0.194 0.089,0.442 -0.06,0.624 -0.18,0.218 -0.489,0.266 -0.724,0.124l0.011 0.053c0.006,0.009 0.008,0.016 0.004,0.017 -0.076,0.015 -0.133,0.024 -0.135,0.025 -0.219,0.203 -0.375,0.536 -0.475,0.909 -0.132,0.487 -0.165,1.022 -0.125,1.456l0.006 0.046 0.129 1.825c0.016,0.033 0.03,0.072 0.042,0.12 0.085,0.335 -0.009,0.593 -0.427,0.699l0 -0.002c-0.085,0.022 -0.132,0.024 -0.183,0.024l-0.001 0.002c-0.013,0.037 -0.02,0.085 -0.024,0.142 -0.004,0.08 -0.001,0.176 0.007,0.285l0.001 0.01c0.009,0.118 0.024,0.248 0.046,0.392 0.022,0.145 0.049,0.295 0.082,0.448 0.034,0.158 0.077,0.336 0.125,0.512l-0.002 0.001c0.037,0.137 0.076,0.264 0.112,0.369l0.014 0.035c0.034,0.096 0.061,0.161 0.085,0.2 0.01,0.016 0.021,0.028 0.032,0.038 0.023,0.018 0.053,0.036 0.09,0.052 0.045,0.021 0.105,0.042 0.178,0.064l0.02 0.006c0.224,0.063 0.393,0.261 0.409,0.506l0.063 0.967c0.014,0.217 0.061,0.415 0.14,0.597 0.081,0.182 0.196,0.351 0.347,0.509l0.147 0.155c0.114,0.103 0.185,0.251 0.185,0.417l0 1.394c0,0.076 0.014,0.142 0.041,0.196 0.026,0.054 0.067,0.103 0.12,0.146l2.362 1.814zm-3.492 -14.476c-0.069,-0.057 0.048,0.055 0.077,0.1l-0.011 -0.053c-0.023,-0.014 -0.045,-0.03 -0.066,-0.047zm7.2 13.205c-0.092,0.132 -0.206,0.251 -0.34,0.355l-1.745 1.339 0.155 0.093 0.001 -0.002c0.324,0.192 0.403,0.471 0.365,0.775 -0.02,0.161 -0.081,0.308 -0.136,0.437 -0.13,0.3 -0.254,0.612 -0.394,0.906 -0.012,0.023 -0.024,0.046 -0.038,0.067l0.06 0.137c0.01,0.025 0.019,0.05 0.026,0.075l0.547 1.999c0.011,0.041 0.017,0.083 0.019,0.123l0.009 0.181 0.938 -1.623c0.217,-0.42 0.361,-0.749 0.453,-1.076 0.091,-0.329 0.135,-0.675 0.151,-1.128 0.016,-0.443 0.006,-0.986 -0.018,-1.583 -0.013,-0.334 -0.032,-0.697 -0.053,-1.075z" fill="#021b79" class="color000000 svgShape"></path></g></svg>