<svg width="1707" height="1707" viewBox="0 0 1707 1707" fill="none" xmlns="http://www.w3.org/2000/svg">
<path fill-rule="evenodd" clip-rule="evenodd" d="M720 329C662 329 614 281 614 223C614 165 662 117 720 117C778 117 826 165 826 223C826 281 778 329 720 329ZM762 1591C640 1437 706 1208 891 1143L855 989C798 990 749 956 728 907L581 934C592 1109 446 1251 273 1237C124 1226 8 1102 8 952C8 793 137 665 295 665C427 665 538 754 572 875L717 848C719 797 750 753 793 731L757 578C587 600 433 468 433 294C433 136 562 6.99971 720 6.99971C961 6.99971 1093 288 943 474C908 516 864 547 814 565L851 717C909 716 959 752 979 802L1126 778C1113 611 1245 468 1411 468C1654 468 1785 751 1634 936C1488 1116 1202 1057 1136 836L989 861C986 911 956 955 913 976L949 1129C1207 1094 1371 1395 1209 1593C1099 1730 861 1739 762 1591ZM987 1186C811 1186 703 1377 791 1527C822 1498 860 1475 902 1462C934 1453 935 1492 987 1492C1039 1492 1040 1453 1071 1462C1113 1475 1151 1498 1183 1527C1271 1377 1163 1186 987 1186ZM827 1575C916 1662 1058 1662 1146 1575C1124 1553 1098 1536 1069 1524C1020 1560 953 1560 905 1524C876 1536 850 1553 827 1575ZM987 1448C929 1448 881 1400 881 1342C881 1284 929 1236 987 1236C1045 1236 1092 1284 1092 1342C1092 1400 1045 1448 987 1448ZM987 1296C926 1296 926 1388 987 1388C1047 1388 1047 1296 987 1296ZM295 724C119 724 11 916 99 1066C131 1036 169 1014 211 1001C242 992 244 1030 295 1030C347 1030 348 992 380 1001C422 1014 460 1036 491 1066C579 916 471 724 295 724ZM136 1113C224 1200 366 1201 455 1113C432 1091 406 1074 377 1063C328 1099 262 1099 213 1063C184 1074 158 1091 136 1113ZM294 986C237 986 190 939 190 881C190 823 237 775 295 775C414 775 440 941 332 980L294 986ZM295 835C227 835 237 947 314 923C330 916 341 900 341 881C341 855 321 835 295 835ZM1411 528C1235 528 1127 720 1215 870C1247 840 1285 818 1327 805C1358 795 1360 834 1411 834C1463 834 1465 795 1496 805C1538 818 1576 840 1608 870C1695 720 1587 528 1411 528ZM1252 917C1341 1004 1482 1004 1571 917C1549 895 1522 878 1493 867C1445 902 1378 902 1330 867C1301 878 1274 895 1252 917ZM1411 790C1353 790 1306 743 1306 684C1306 626 1353 579 1411 579C1470 579 1517 626 1517 684C1517 743 1470 790 1411 790ZM1411 638C1351 638 1351 730 1411 730C1472 730 1472 638 1411 638ZM853 777C806 777 769 819 778 868C794 957 930 946 930 853C930 811 896 777 853 777ZM719 1700C711 1700 703 1696 697 1690C516 1498 563 1195 786 1066C820 1046 850 1097 816 1117C626 1227 586 1485 741 1649C759 1668 745 1700 719 1700ZM892 589C1082 478 1120 217 967 56.9997C939 28.9997 982 -12.0003 1010 15.9997C1190 204 1145 510 922 640C888 660 858 609 892 589ZM720 66.9997C544 66.9997 436 258 524 408C555 378 594 356 636 343C667 334 668 373 720 373C772 373 773 334 804 343C846 356 884 378 916 408C1004 258 896 66.9997 720 66.9997ZM560 456C649 543 791 543 879 456C857 434 831 417 802 405C753 441 687 441 638 405C609 417 583 434 560 456ZM720 177C659 177 659 269 720 269C781 269 781 177 720 177Z" fill="url(#paint0_linear_11909_41699)"/>
<defs>
<linearGradient id="paint0_linear_11909_41699" x1="7.99999" y1="1327.46" x2="1699.42" y2="550.78" gradientUnits="userSpaceOnUse">
<stop stop-color="#0575E6"/>
<stop offset="1" stop-color="#021B79"/>
</linearGradient>
</defs>
</svg>
