<svg width="72" height="72" viewBox="0 0 72 72" fill="none" xmlns="http://www.w3.org/2000/svg">
<rect width="72" height="72" rx="36" fill="#DBE9FE"/>
<mask id="path-2-inside-1_12135_132749" fill="white">
<path d="M25.875 37.125H31.5V39.375H25.875V37.125ZM25.875 31.5H39.375V33.75H25.875V31.5ZM25.875 25.875H39.375V28.125H25.875V25.875Z"/>
<path d="M42.75 20.25H22.5C21.9038 20.2518 21.3325 20.4894 20.911 20.911C20.4894 21.3325 20.2518 21.9038 20.25 22.5V49.5C20.2518 50.0962 20.4894 50.6675 20.911 51.089C21.3325 51.5106 21.9038 51.7482 22.5 51.75H31.5V49.5H22.5V22.5H42.75V34.875H45V22.5C44.9982 21.9038 44.7606 21.3325 44.339 20.911C43.9175 20.4894 43.3462 20.2518 42.75 20.25Z"/>
<path d="M48 51.5H47V50C47 49.6022 46.842 49.2206 46.5607 48.9393C46.2794 48.658 45.8978 48.5 45.5 48.5H43.5C43.1022 48.5 42.7206 48.658 42.4393 48.9393C42.158 49.2206 42 49.6022 42 50V51.5H41V50C41 49.337 41.2634 48.7011 41.7322 48.2322C42.2011 47.7634 42.837 47.5 43.5 47.5H45.5C46.163 47.5 46.7989 47.7634 47.2678 48.2322C47.7366 48.7011 48 49.337 48 50V51.5ZM44.5 42.5C44.7967 42.5 45.0867 42.588 45.3334 42.7528C45.58 42.9176 45.7723 43.1519 45.8858 43.426C45.9993 43.7001 46.0291 44.0017 45.9712 44.2926C45.9133 44.5836 45.7704 44.8509 45.5607 45.0607C45.3509 45.2704 45.0836 45.4133 44.7926 45.4712C44.5017 45.5291 44.2001 45.4994 43.926 45.3858C43.6519 45.2723 43.4176 45.08 43.2528 44.8334C43.088 44.5867 43 44.2967 43 44C43 43.6022 43.158 43.2206 43.4393 42.9393C43.7206 42.658 44.1022 42.5 44.5 42.5ZM44.5 41.5C44.0055 41.5 43.5222 41.6466 43.1111 41.9213C42.7 42.196 42.3795 42.5865 42.1903 43.0433C42.0011 43.5001 41.9516 44.0028 42.048 44.4877C42.1445 44.9727 42.3826 45.4181 42.7322 45.7678C43.0819 46.1174 43.5273 46.3555 44.0123 46.452C44.4972 46.5484 44.9999 46.4989 45.4567 46.3097C45.9135 46.1205 46.304 45.8 46.5787 45.3889C46.8534 44.9778 47 44.4945 47 44C47 43.337 46.7366 42.7011 46.2678 42.2322C45.7989 41.7634 45.163 41.5 44.5 41.5ZM40 47.5H39V46C39 45.6022 38.842 45.2206 38.5607 44.9393C38.2794 44.658 37.8978 44.5 37.5 44.5H35.5C35.1022 44.5 34.7206 44.658 34.4393 44.9393C34.158 45.2206 34 45.6022 34 46V47.5H33V46C33 45.337 33.2634 44.7011 33.7322 44.2322C34.2011 43.7634 34.837 43.5 35.5 43.5H37.5C38.163 43.5 38.7989 43.7634 39.2678 44.2322C39.7366 44.7011 40 45.337 40 46V47.5ZM36.5 38.5C36.7967 38.5 37.0867 38.588 37.3334 38.7528C37.58 38.9176 37.7723 39.1519 37.8858 39.426C37.9994 39.7001 38.0291 40.0017 37.9712 40.2926C37.9133 40.5836 37.7704 40.8509 37.5607 41.0607C37.3509 41.2704 37.0836 41.4133 36.7926 41.4712C36.5017 41.5291 36.2001 41.4994 35.926 41.3858C35.6519 41.2723 35.4176 41.08 35.2528 40.8334C35.088 40.5867 35 40.2967 35 40C35 39.6022 35.158 39.2206 35.4393 38.9393C35.7206 38.658 36.1022 38.5 36.5 38.5ZM36.5 37.5C36.0055 37.5 35.5222 37.6466 35.1111 37.9213C34.7 38.196 34.3795 38.5865 34.1903 39.0433C34.0011 39.5001 33.9516 40.0028 34.048 40.4877C34.1445 40.9727 34.3826 41.4181 34.7322 41.7678C35.0819 42.1174 35.5273 42.3555 36.0123 42.452C36.4972 42.5484 36.9999 42.4989 37.4567 42.3097C37.9135 42.1205 38.304 41.8 38.5787 41.3889C38.8534 40.9778 39 40.4945 39 40C39 39.337 38.7366 38.7011 38.2678 38.2322C37.7989 37.7634 37.163 37.5 36.5 37.5Z"/>
</mask>
<path d="M25.875 37.125H31.5V39.375H25.875V37.125ZM25.875 31.5H39.375V33.75H25.875V31.5ZM25.875 25.875H39.375V28.125H25.875V25.875Z" fill="url(#paint0_linear_12135_132749)"/>
<path d="M42.75 20.25H22.5C21.9038 20.2518 21.3325 20.4894 20.911 20.911C20.4894 21.3325 20.2518 21.9038 20.25 22.5V49.5C20.2518 50.0962 20.4894 50.6675 20.911 51.089C21.3325 51.5106 21.9038 51.7482 22.5 51.75H31.5V49.5H22.5V22.5H42.75V34.875H45V22.5C44.9982 21.9038 44.7606 21.3325 44.339 20.911C43.9175 20.4894 43.3462 20.2518 42.75 20.25Z" fill="url(#paint1_linear_12135_132749)"/>
<path d="M48 51.5H47V50C47 49.6022 46.842 49.2206 46.5607 48.9393C46.2794 48.658 45.8978 48.5 45.5 48.5H43.5C43.1022 48.5 42.7206 48.658 42.4393 48.9393C42.158 49.2206 42 49.6022 42 50V51.5H41V50C41 49.337 41.2634 48.7011 41.7322 48.2322C42.2011 47.7634 42.837 47.5 43.5 47.5H45.5C46.163 47.5 46.7989 47.7634 47.2678 48.2322C47.7366 48.7011 48 49.337 48 50V51.5ZM44.5 42.5C44.7967 42.5 45.0867 42.588 45.3334 42.7528C45.58 42.9176 45.7723 43.1519 45.8858 43.426C45.9993 43.7001 46.0291 44.0017 45.9712 44.2926C45.9133 44.5836 45.7704 44.8509 45.5607 45.0607C45.3509 45.2704 45.0836 45.4133 44.7926 45.4712C44.5017 45.5291 44.2001 45.4994 43.926 45.3858C43.6519 45.2723 43.4176 45.08 43.2528 44.8334C43.088 44.5867 43 44.2967 43 44C43 43.6022 43.158 43.2206 43.4393 42.9393C43.7206 42.658 44.1022 42.5 44.5 42.5ZM44.5 41.5C44.0055 41.5 43.5222 41.6466 43.1111 41.9213C42.7 42.196 42.3795 42.5865 42.1903 43.0433C42.0011 43.5001 41.9516 44.0028 42.048 44.4877C42.1445 44.9727 42.3826 45.4181 42.7322 45.7678C43.0819 46.1174 43.5273 46.3555 44.0123 46.452C44.4972 46.5484 44.9999 46.4989 45.4567 46.3097C45.9135 46.1205 46.304 45.8 46.5787 45.3889C46.8534 44.9778 47 44.4945 47 44C47 43.337 46.7366 42.7011 46.2678 42.2322C45.7989 41.7634 45.163 41.5 44.5 41.5ZM40 47.5H39V46C39 45.6022 38.842 45.2206 38.5607 44.9393C38.2794 44.658 37.8978 44.5 37.5 44.5H35.5C35.1022 44.5 34.7206 44.658 34.4393 44.9393C34.158 45.2206 34 45.6022 34 46V47.5H33V46C33 45.337 33.2634 44.7011 33.7322 44.2322C34.2011 43.7634 34.837 43.5 35.5 43.5H37.5C38.163 43.5 38.7989 43.7634 39.2678 44.2322C39.7366 44.7011 40 45.337 40 46V47.5ZM36.5 38.5C36.7967 38.5 37.0867 38.588 37.3334 38.7528C37.58 38.9176 37.7723 39.1519 37.8858 39.426C37.9994 39.7001 38.0291 40.0017 37.9712 40.2926C37.9133 40.5836 37.7704 40.8509 37.5607 41.0607C37.3509 41.2704 37.0836 41.4133 36.7926 41.4712C36.5017 41.5291 36.2001 41.4994 35.926 41.3858C35.6519 41.2723 35.4176 41.08 35.2528 40.8334C35.088 40.5867 35 40.2967 35 40C35 39.6022 35.158 39.2206 35.4393 38.9393C35.7206 38.658 36.1022 38.5 36.5 38.5ZM36.5 37.5C36.0055 37.5 35.5222 37.6466 35.1111 37.9213C34.7 38.196 34.3795 38.5865 34.1903 39.0433C34.0011 39.5001 33.9516 40.0028 34.048 40.4877C34.1445 40.9727 34.3826 41.4181 34.7322 41.7678C35.0819 42.1174 35.5273 42.3555 36.0123 42.452C36.4972 42.5484 36.9999 42.4989 37.4567 42.3097C37.9135 42.1205 38.304 41.8 38.5787 41.3889C38.8534 40.9778 39 40.4945 39 40C39 39.337 38.7366 38.7011 38.2678 38.2322C37.7989 37.7634 37.163 37.5 36.5 37.5Z" fill="url(#paint2_linear_12135_132749)"/>
<path d="M25.875 37.125H31.5V39.375H25.875V37.125ZM25.875 31.5H39.375V33.75H25.875V31.5ZM25.875 25.875H39.375V28.125H25.875V25.875Z" stroke="url(#paint3_linear_12135_132749)" stroke-width="2" mask="url(#path-2-inside-1_12135_132749)"/>
<path d="M42.75 20.25H22.5C21.9038 20.2518 21.3325 20.4894 20.911 20.911C20.4894 21.3325 20.2518 21.9038 20.25 22.5V49.5C20.2518 50.0962 20.4894 50.6675 20.911 51.089C21.3325 51.5106 21.9038 51.7482 22.5 51.75H31.5V49.5H22.5V22.5H42.75V34.875H45V22.5C44.9982 21.9038 44.7606 21.3325 44.339 20.911C43.9175 20.4894 43.3462 20.2518 42.75 20.25Z" stroke="url(#paint4_linear_12135_132749)" stroke-width="2" mask="url(#path-2-inside-1_12135_132749)"/>
<path d="M48 51.5H47V50C47 49.6022 46.842 49.2206 46.5607 48.9393C46.2794 48.658 45.8978 48.5 45.5 48.5H43.5C43.1022 48.5 42.7206 48.658 42.4393 48.9393C42.158 49.2206 42 49.6022 42 50V51.5H41V50C41 49.337 41.2634 48.7011 41.7322 48.2322C42.2011 47.7634 42.837 47.5 43.5 47.5H45.5C46.163 47.5 46.7989 47.7634 47.2678 48.2322C47.7366 48.7011 48 49.337 48 50V51.5ZM44.5 42.5C44.7967 42.5 45.0867 42.588 45.3334 42.7528C45.58 42.9176 45.7723 43.1519 45.8858 43.426C45.9993 43.7001 46.0291 44.0017 45.9712 44.2926C45.9133 44.5836 45.7704 44.8509 45.5607 45.0607C45.3509 45.2704 45.0836 45.4133 44.7926 45.4712C44.5017 45.5291 44.2001 45.4994 43.926 45.3858C43.6519 45.2723 43.4176 45.08 43.2528 44.8334C43.088 44.5867 43 44.2967 43 44C43 43.6022 43.158 43.2206 43.4393 42.9393C43.7206 42.658 44.1022 42.5 44.5 42.5ZM44.5 41.5C44.0055 41.5 43.5222 41.6466 43.1111 41.9213C42.7 42.196 42.3795 42.5865 42.1903 43.0433C42.0011 43.5001 41.9516 44.0028 42.048 44.4877C42.1445 44.9727 42.3826 45.4181 42.7322 45.7678C43.0819 46.1174 43.5273 46.3555 44.0123 46.452C44.4972 46.5484 44.9999 46.4989 45.4567 46.3097C45.9135 46.1205 46.304 45.8 46.5787 45.3889C46.8534 44.9778 47 44.4945 47 44C47 43.337 46.7366 42.7011 46.2678 42.2322C45.7989 41.7634 45.163 41.5 44.5 41.5ZM40 47.5H39V46C39 45.6022 38.842 45.2206 38.5607 44.9393C38.2794 44.658 37.8978 44.5 37.5 44.5H35.5C35.1022 44.5 34.7206 44.658 34.4393 44.9393C34.158 45.2206 34 45.6022 34 46V47.5H33V46C33 45.337 33.2634 44.7011 33.7322 44.2322C34.2011 43.7634 34.837 43.5 35.5 43.5H37.5C38.163 43.5 38.7989 43.7634 39.2678 44.2322C39.7366 44.7011 40 45.337 40 46V47.5ZM36.5 38.5C36.7967 38.5 37.0867 38.588 37.3334 38.7528C37.58 38.9176 37.7723 39.1519 37.8858 39.426C37.9994 39.7001 38.0291 40.0017 37.9712 40.2926C37.9133 40.5836 37.7704 40.8509 37.5607 41.0607C37.3509 41.2704 37.0836 41.4133 36.7926 41.4712C36.5017 41.5291 36.2001 41.4994 35.926 41.3858C35.6519 41.2723 35.4176 41.08 35.2528 40.8334C35.088 40.5867 35 40.2967 35 40C35 39.6022 35.158 39.2206 35.4393 38.9393C35.7206 38.658 36.1022 38.5 36.5 38.5ZM36.5 37.5C36.0055 37.5 35.5222 37.6466 35.1111 37.9213C34.7 38.196 34.3795 38.5865 34.1903 39.0433C34.0011 39.5001 33.9516 40.0028 34.048 40.4877C34.1445 40.9727 34.3826 41.4181 34.7322 41.7678C35.0819 42.1174 35.5273 42.3555 36.0123 42.452C36.4972 42.5484 36.9999 42.4989 37.4567 42.3097C37.9135 42.1205 38.304 41.8 38.5787 41.3889C38.8534 40.9778 39 40.4945 39 40C39 39.337 38.7366 38.7011 38.2678 38.2322C37.7989 37.7634 37.163 37.5 36.5 37.5Z" stroke="url(#paint5_linear_12135_132749)" stroke-width="2" mask="url(#path-2-inside-1_12135_132749)"/>
<defs>
<linearGradient id="paint0_linear_12135_132749" x1="20.25" y1="44.82" x2="49.1294" y2="33.117" gradientUnits="userSpaceOnUse">
<stop stop-color="#0575E6"/>
<stop offset="1" stop-color="#021B79"/>
</linearGradient>
<linearGradient id="paint1_linear_12135_132749" x1="20.25" y1="44.82" x2="49.1294" y2="33.117" gradientUnits="userSpaceOnUse">
<stop stop-color="#0575E6"/>
<stop offset="1" stop-color="#021B79"/>
</linearGradient>
<linearGradient id="paint2_linear_12135_132749" x1="20.25" y1="44.82" x2="49.1294" y2="33.117" gradientUnits="userSpaceOnUse">
<stop stop-color="#0575E6"/>
<stop offset="1" stop-color="#021B79"/>
</linearGradient>
<linearGradient id="paint3_linear_12135_132749" x1="20.25" y1="44.82" x2="49.1294" y2="33.117" gradientUnits="userSpaceOnUse">
<stop stop-color="#0575E6"/>
<stop offset="1" stop-color="#021B79"/>
</linearGradient>
<linearGradient id="paint4_linear_12135_132749" x1="20.25" y1="44.82" x2="49.1294" y2="33.117" gradientUnits="userSpaceOnUse">
<stop stop-color="#0575E6"/>
<stop offset="1" stop-color="#021B79"/>
</linearGradient>
<linearGradient id="paint5_linear_12135_132749" x1="20.25" y1="44.82" x2="49.1294" y2="33.117" gradientUnits="userSpaceOnUse">
<stop stop-color="#0575E6"/>
<stop offset="1" stop-color="#021B79"/>
</linearGradient>
</defs>
</svg>
