<svg xmlns="http://www.w3.org/2000/svg" viewBox="0 0 64 64" id="Professional"><path d="M36.13 42.639A6.989 6.989 0 0 0 39 37c0-3.859-3.14-7-7-7s-7 3.141-7 7v.01a6.988 6.988 0 0 0 2.869 5.629C25.01 43.86 23 46.699 23 50v11a1 1 0 0 0 1 1h16a1 1 0 0 0 1-1V50c0-3.301-2.01-6.14-4.87-7.361zM32 45.236l1.898 3.796L32 53.461l-1.898-4.429L32 45.236zM32 32a5.002 5.002 0 0 1 4.578 3.004C35.151 34.348 33.602 34 32 34s-3.151.348-4.578 1.004A5.002 5.002 0 0 1 32 32zm-4.95 5.491C28.525 36.517 30.223 36 32 36s3.475.517 4.95 1.491C36.7 40.015 34.589 42 32 42s-4.7-1.985-4.95-4.509zM39 60H25V50a6.009 6.009 0 0 1 5.365-5.966l-2.259 4.518a.998.998 0 0 0-.024.841l3 7a.999.999 0 0 0 1.837.001l3-7c.116-.27.107-.578-.024-.841l-2.259-4.518A6.007 6.007 0 0 1 39 50v10zM13.838 40.607A5.989 5.989 0 0 0 16 36c0-3.309-2.691-6-6-6s-6 2.691-6 6c0 1.85.842 3.505 2.162 4.607C3.714 41.698 2 44.151 2 47v10a1 1 0 0 0 1 1h14a1 1 0 0 0 1-1V47c0-2.849-1.714-5.302-4.162-6.393zM10 43.692l.936 2.339L10 48.838l-.936-2.807.936-2.339zM10 40c-2.114 0-3.832-1.653-3.973-3.732C7.205 35.451 8.563 35 10 35s2.795.451 3.973 1.268C13.832 38.347 12.114 40 10 40zm0-8c1.291 0 2.43.625 3.161 1.578a8.919 8.919 0 0 0-6.322 0A3.979 3.979 0 0 1 10 32zm6 24H4v-9c0-2.587 1.982-4.696 4.503-4.95l-1.431 3.579c-.087.22-.095.463-.02.688l2 6a.998.998 0 0 0 1.897-.001l2-6a1.005 1.005 0 0 0-.02-.688l-1.431-3.579C14.018 42.304 16 44.413 16 47v9zm41.838-15.393A5.989 5.989 0 0 0 60 36c0-3.309-2.691-6-6-6s-6 2.691-6 6c0 1.85.842 3.505 2.162 4.607C47.714 41.698 46 44.151 46 47v10a1 1 0 0 0 1 1h14a1 1 0 0 0 1-1V47c0-2.849-1.714-5.302-4.162-6.393zM54 43.692l.936 2.339L54 48.838l-.936-2.807.936-2.339zM54 40c-2.114 0-3.832-1.653-3.973-3.732C51.205 35.451 52.563 35 54 35s2.795.451 3.973 1.268C57.832 38.347 56.114 40 54 40zm0-8c1.291 0 2.43.625 3.161 1.578a8.919 8.919 0 0 0-6.322 0A3.979 3.979 0 0 1 54 32zm6 24H48v-9c0-2.587 1.982-4.696 4.503-4.95l-1.431 3.579c-.087.22-.095.463-.02.688l2 6a.998.998 0 0 0 1.897-.001l2-6a1.005 1.005 0 0 0-.02-.688l-1.431-3.579C58.018 42.304 60 44.413 60 47v9zM24.052 12.03c-.119.355-.029.747.232 1.016l3.147 3.226-.745 4.567a1 1 0 0 0 1.471 1.037L32 19.751l3.842 2.124a.998.998 0 0 0 1.06-.058 1 1 0 0 0 .411-.979l-.745-4.567 3.147-3.226a1.001 1.001 0 0 0-.565-1.687l-4.308-.658-1.937-4.125a.998.998 0 0 0-1.81 0L29.158 10.7l-4.309.659c-.37.057-.678.316-.797.671zm5.936.567a.998.998 0 0 0 .754-.563L32 9.354l1.258 2.68a.996.996 0 0 0 .754.563l2.913.445-2.141 2.194a.999.999 0 0 0-.271.859l.495 3.033-2.524-1.396a1 1 0 0 0-.968 0l-2.524 1.396.495-3.033a.998.998 0 0 0-.271-.859l-2.141-2.194 2.913-.445zm-15.04 7.141a1.002 1.002 0 0 0-.797-.671l-2.236-.342-1.009-2.15a1 1 0 0 0-1.811 0l-1.009 2.15-2.236.342a.999.999 0 0 0-.565 1.687l1.647 1.688-.391 2.396a1 1 0 0 0 1.471 1.037L10 24.776l1.988 1.099a.998.998 0 0 0 1.06-.058 1 1 0 0 0 .411-.979l-.391-2.396 1.647-1.688a.998.998 0 0 0 .233-1.016zm-3.664 1.669a1 1 0 0 0-.271.859l.141.862-.67-.37a1.003 1.003 0 0 0-.968 0l-.67.37.141-.862a.999.999 0 0 0-.271-.859l-.641-.656.84-.129a.998.998 0 0 0 .754-.563l.331-.705.331.704a.997.997 0 0 0 .754.563l.84.129-.641.657zm47.664-1.669a1.002 1.002 0 0 0-.797-.671l-2.236-.342-1.009-2.15a1 1 0 0 0-1.811 0l-1.009 2.15-2.236.342a.999.999 0 0 0-.565 1.687l1.647 1.688-.391 2.396a1 1 0 0 0 1.471 1.037L54 24.776l1.988 1.099a.998.998 0 0 0 1.06-.058 1 1 0 0 0 .411-.979l-.391-2.396 1.647-1.688a.998.998 0 0 0 .233-1.016zm-3.664 1.669a1 1 0 0 0-.271.859l.141.862-.67-.37a1.003 1.003 0 0 0-.968 0l-.67.37.141-.862a.999.999 0 0 0-.271-.859l-.641-.656.84-.129a.998.998 0 0 0 .754-.563l.331-.705.331.704a.997.997 0 0 0 .754.563l.84.129-.641.657zM20.741 8.497l1.731 1.002c.306-.529.658-1.035 1.045-1.503l-1.54-1.275a13.036 13.036 0 0 0-1.236 1.776zm-1.509 4.043 1.964.377c.115-.599.281-1.191.494-1.762l-1.874-.699a12.97 12.97 0 0 0-.584 2.084zm5.479 13.227c.597.405 1.232.763 1.887 1.062l.831-1.818a11.037 11.037 0 0 1-1.594-.897l-1.124 1.653zM23.488 5.175l1.31 1.512c.461-.399.958-.764 1.479-1.081l-1.043-1.707c-.615.375-1.202.805-1.746 1.276zm13.63 21.778a12.772 12.772 0 0 0 1.911-1.016l-1.083-1.682c-.514.331-1.057.62-1.615.859l.787 1.839zm-4.191 1.015a13.077 13.077 0 0 0 2.138-.331l-.47-1.943c-.591.143-1.2.236-1.81.28l.142 1.994zm-2.161-.027.188-1.99a11.122 11.122 0 0 1-1.802-.323l-.516 1.932a12.92 12.92 0 0 0 2.13.381zm10.891-7.669 1.755.959c.347-.635.642-1.301.876-1.979l-1.89-.654a10.988 10.988 0 0 1-.741 1.674zm1.193-3.446 1.973.328C44.94 16.447 45 15.723 45 15h-2c0 .612-.051 1.227-.15 1.826zM24.408 22.96a11.059 11.059 0 0 1-1.216-1.37l-1.601 1.199c.431.576.914 1.12 1.436 1.618l1.381-1.447zm-2.889-4.61-1.905.609c.219.685.498 1.357.829 1.999l1.777-.918a10.909 10.909 0 0 1-.701-1.69zm17.879 4.791 1.345 1.48a13.084 13.084 0 0 0 1.475-1.584l-1.572-1.236c-.377.479-.797.93-1.248 1.34zM21 15l.003-.261-1.999-.051L19 15c0 .619.044 1.241.131 1.849l1.979-.283A11.187 11.187 0 0 1 21 15zM33.309 4.076l.232-1.986a13.087 13.087 0 0 0-2.158-.075l.093 1.998a11.351 11.351 0 0 1 1.833.063zm5.072 1.964c.497.354.967.753 1.397 1.184l1.415-1.414a13.122 13.122 0 0 0-1.651-1.398L38.381 6.04zm-2.718-3.517-.563 1.92a11.06 11.06 0 0 1 1.708.66l.874-1.799a13.185 13.185 0 0 0-2.019-.781zm-6.426-.23c-.706.153-1.403.366-2.07.635l.745 1.855a10.877 10.877 0 0 1 1.749-.535l-.424-1.955zM44.91 13.458a12.878 12.878 0 0 0-.433-2.12l-1.919.562c.171.585.294 1.188.365 1.792l1.987-.234zm-3.948-4.837c.354.496.668 1.024.934 1.572l1.799-.875a13.101 13.101 0 0 0-1.105-1.859l-1.628 1.162z" fill="#021b79" class="color000000 svgShape"></path></svg>