<svg width="512" height="512" viewBox="0 0 512 512" fill="none" xmlns="http://www.w3.org/2000/svg">
<g clip-path="url(#clip0_11909_41811)">
<path d="M242.449 185.953C285.677 211.767 332.983 226.801 379.781 229.667L378.049 255.433C377.946 256.952 378.279 258.468 379.008 259.805C379.737 261.141 380.832 262.241 382.165 262.977C383.498 263.712 385.012 264.052 386.532 263.956C388.051 263.86 389.511 263.333 390.741 262.436L471.408 203.656C472.388 202.942 473.194 202.014 473.762 200.942C474.331 199.871 474.649 198.684 474.692 197.472C474.735 196.26 474.501 195.054 474.009 193.945C473.517 192.836 472.779 191.854 471.851 191.072L399.251 129.907C398.12 128.955 396.748 128.334 395.286 128.114C393.824 127.895 392.329 128.084 390.969 128.663C389.608 129.241 388.434 130.185 387.577 131.389C386.72 132.594 386.214 134.013 386.115 135.488L384.295 162.552C334.578 159.475 269.895 139.737 227.232 114.259C181.761 87.1062 147.947 53.2292 123.854 10.6922C122.901 9.0089 121.371 7.72781 119.546 7.08603C117.722 6.44425 115.726 6.48526 113.93 7.20145C112.133 7.91765 110.657 9.26054 109.774 10.9815C108.891 12.7025 108.662 14.6851 109.128 16.5622C125.76 83.5482 174.354 145.288 242.449 185.953ZM219.028 127.995C266.002 156.047 338.55 177.451 391.535 178.891C395.791 179.025 399.445 175.714 399.733 171.431L401.019 152.317L453.739 196.734L395.161 239.418L396.293 222.589C396.366 221.516 396.221 220.439 395.868 219.424C395.515 218.408 394.961 217.474 394.238 216.677C393.516 215.88 392.64 215.238 391.663 214.787C390.686 214.337 389.629 214.088 388.554 214.056C341.787 212.631 294.101 198.164 250.652 172.218C207.311 146.335 172.352 111.577 149.351 72.4642C168.941 93.4932 192.047 111.883 219.028 127.995ZM504 464.553H479.887V353.363C479.887 351.241 479.044 349.207 477.544 347.706C476.044 346.206 474.009 345.363 471.887 345.363H406.174C404.052 345.363 402.017 346.206 400.517 347.706C399.017 349.207 398.174 351.241 398.174 353.363V464.552H357.866V287.311C357.866 285.189 357.023 283.155 355.523 281.654C354.023 280.154 351.988 279.311 349.866 279.311H284.151C282.029 279.311 279.994 280.154 278.494 281.654C276.994 283.155 276.151 285.189 276.151 287.311V464.553H235.844V423.173C246.82 405.145 253.148 383.989 253.148 361.383C253.148 338.777 246.82 317.621 235.844 299.593V218.339C235.844 216.217 235.001 214.183 233.501 212.682C232.001 211.182 229.966 210.339 227.844 210.339H162.13C160.008 210.339 157.973 211.182 156.473 212.682C154.973 214.183 154.13 216.217 154.13 218.339V243.926C140.793 241.643 127.164 241.642 113.827 243.925V156.293C113.827 154.171 112.984 152.137 111.484 150.636C109.984 149.136 107.949 148.293 105.827 148.293H40.113C37.9913 148.293 35.9564 149.136 34.4561 150.636C32.9559 152.137 32.113 154.171 32.113 156.293V299.593C21.137 317.621 14.809 338.777 14.809 361.383C14.809 383.989 21.137 405.145 32.113 423.173V464.553H8C5.87827 464.553 3.84344 465.396 2.34315 466.896C0.842855 468.397 0 470.431 0 472.553L0 497.366C0 499.488 0.842855 501.523 2.34315 503.023C3.84344 504.523 5.87827 505.366 8 505.366H504C506.122 505.366 508.157 504.523 509.657 503.023C511.157 501.523 512 499.488 512 497.366V472.553C512 470.431 511.157 468.397 509.657 466.896C508.157 465.396 506.122 464.553 504 464.553ZM414.174 361.363H463.887V464.552H414.174V361.363ZM292.151 295.311H341.866V464.553H292.151V295.311ZM219.845 464.553H193.569C203.247 458.938 212.091 451.996 219.845 443.93V464.553ZM170.131 226.339H219.845V278.836C206.261 264.711 189.235 253.921 170.131 247.825V226.339ZM48.113 164.293H97.827V247.825C78.723 253.921 61.698 264.71 48.113 278.835V164.293ZM133.979 258.213C190.867 258.213 237.149 304.495 237.149 361.383C237.149 418.271 190.867 464.553 133.979 464.553C77.091 464.553 30.81 418.271 30.81 361.383C30.81 304.495 77.091 258.213 133.979 258.213ZM48.113 443.93C55.8668 451.996 64.7112 458.938 74.389 464.552H48.113V443.93ZM496 489.366H16V480.553H496V489.366ZM98.983 386.153C98.4699 384.094 98.7955 381.916 99.8883 380.098C100.981 378.279 102.751 376.969 104.81 376.455C109.096 375.392 113.439 377.995 114.508 382.282C116.875 391.776 126.472 395.103 134.252 395.103C134.469 395.103 134.684 395.101 134.898 395.095C141.794 394.931 148.204 392.565 151.228 389.068C152.858 387.183 153.459 385.006 153.122 382.217C152.551 377.512 149.72 371.754 132.761 368.971C107.887 364.885 102.079 351.942 101.587 341.802C100.905 327.775 110.626 316.041 125.775 312.606L125.98 312.56V307.664C125.98 305.542 126.823 303.508 128.323 302.007C129.823 300.507 131.858 299.664 133.98 299.664C136.102 299.664 138.137 300.507 139.637 302.007C141.137 303.508 141.98 305.542 141.98 307.664V312.49C151.911 314.562 161.419 320.759 166.348 332.497C167.17 334.453 167.181 336.656 166.378 338.62C165.576 340.584 164.026 342.15 162.07 342.971C160.114 343.793 157.911 343.804 155.947 343.001C153.983 342.199 152.418 340.649 151.596 338.693C147.483 328.895 137.442 326.371 129.314 328.211C123.4 329.553 117.209 333.624 117.568 341.028C117.692 343.574 118.02 350.337 135.354 353.183C155.909 356.557 167.231 365.677 169.005 380.29C169.889 387.566 167.926 394.222 163.33 399.535C158.501 405.119 150.797 409.004 141.979 410.464V415.101C141.979 417.223 141.136 419.258 139.636 420.758C138.136 422.258 136.101 423.101 133.979 423.101C131.857 423.101 129.822 422.258 128.322 420.758C126.822 419.258 125.979 417.223 125.979 415.101V410.335C112.489 407.735 102.12 398.732 98.983 386.153ZM133.979 454.272C185.199 454.272 226.869 412.602 226.869 361.382C226.869 310.162 185.199 268.492 133.979 268.492C82.759 268.492 41.089 310.162 41.089 361.382C41.089 412.602 82.76 454.272 133.979 454.272ZM133.979 284.493C176.376 284.493 210.869 318.985 210.869 361.383C210.869 403.781 176.377 438.273 133.979 438.273C91.581 438.273 57.089 403.781 57.089 361.383C57.089 318.985 91.582 284.493 133.979 284.493Z" fill="url(#paint0_linear_11909_41811)"/>
</g>
<defs>
<linearGradient id="paint0_linear_11909_41811" x1="-3.10059e-06" y1="395.645" x2="507.225" y2="156.115" gradientUnits="userSpaceOnUse">
<stop stop-color="#0575E6"/>
<stop offset="1" stop-color="#021B79"/>
</linearGradient>
<clipPath id="clip0_11909_41811">
<rect width="512" height="512" fill="white"/>
</clipPath>
</defs>
</svg>
