<svg xmlns="http://www.w3.org/2000/svg" enable-background="new 0 0 64 64" viewBox="0 0 64 64" id="Savings"><path d="M51,21H38c2.4-1.8,4-4.7,4-8c0-5.5-4.5-10-10-10S22,7.5,22,13c0,3.3,1.6,6.2,4,8H13c-1.7,0-3,1.3-3,3v30c0,1.7,1.3,3,3,3
			v1c0,1.7,1.3,3,3,3h2c1.7,0,3-1.3,3-3v-1h22v1c0,1.7,1.3,3,3,3h2c1.7,0,3-1.3,3-3v-1c1.7,0,3-1.3,3-3V24C54,22.3,52.7,21,51,21z
			 M24,13c0-4.4,3.6-8,8-8s8,3.6,8,8s-3.6,8-8,8S24,17.4,24,13z M19,58c0,0.6-0.4,1-1,1h-2c-0.6,0-1-0.4-1-1v-1h4V58z M49,58
			c0,0.6-0.4,1-1,1h-2c-0.6,0-1-0.4-1-1v-1h4V58z M52,54c0,0.6-0.4,1-1,1h-1h-6H20h-6h-1c-0.6,0-1-0.4-1-1V24c0-0.6,0.4-1,1-1h38
			c0.6,0,1,0.4,1,1V54z" fill="#0575e6" class="color000000 svgShape"></path><path d="M48,26H16c-0.6,0-1,0.4-1,1v3c-0.6,0-1,0.4-1,1v4c0,0.6,0.4,1,1,1v6c-0.6,0-1,0.4-1,1v4c0,0.6,0.4,1,1,1v3
			c0,0.6,0.4,1,1,1h32c0.6,0,1-0.4,1-1V27C49,26.4,48.6,26,48,26z M16,34v-2h4v2H16z M16,46v-2h4v2H16z M47,50H17v-2h4
			c0.6,0,1-0.4,1-1v-4c0-0.6-0.4-1-1-1h-4v-6h4c0.6,0,1-0.4,1-1v-4c0-0.6-0.4-1-1-1h-4v-2h30V50z" fill="#0575e6" class="color000000 svgShape"></path><path d="M32 46c3.9 0 7-3.1 7-7s-3.1-7-7-7-7 3.1-7 7S28.1 46 32 46zM32 38c.6 0 1 .4 1 1s-.4 1-1 1-1-.4-1-1S31.4 38 32 38zM31 34.1v2.1c-1.2.4-2 1.5-2 2.8 0 1.7 1.3 3 3 3s3-1.3 3-3c0-1.3-.8-2.4-2-2.8v-2.1c2.3.5 4 2.5 4 4.9 0 2.8-2.2 5-5 5s-5-2.2-5-5C27 36.6 28.7 34.6 31 34.1zM44 42c.6 0 1-.4 1-1v-4c0-.6-.4-1-1-1s-1 .4-1 1v4C43 41.6 43.4 42 44 42zM32 10h2c.6 0 1-.4 1-1s-.4-1-1-1h-1c0-.6-.4-1-1-1s-1 .4-1 1v.2c-1.2.4-2 1.5-2 2.8 0 1.7 1.3 3 3 3 .6 0 1 .4 1 1s-.4 1-1 1h-2c-.6 0-1 .4-1 1s.4 1 1 1h1c0 .6.4 1 1 1s1-.4 1-1v-.2c1.2-.4 2-1.5 2-2.8 0-1.7-1.3-3-3-3-.6 0-1-.4-1-1S31.4 10 32 10z" fill="#0575e6" class="color000000 svgShape"></path></svg>