<svg width="512" height="512" viewBox="0 0 512 512" fill="none" xmlns="http://www.w3.org/2000/svg">
<path d="M212.764 121.47C218.605 121.47 224.314 119.738 229.17 116.493C234.027 113.249 237.811 108.637 240.047 103.241C242.282 97.8449 242.866 91.9074 241.727 86.1792C240.588 80.4509 237.775 75.1892 233.645 71.0593C229.515 66.9295 224.254 64.117 218.525 62.9776C212.797 61.8382 206.86 62.423 201.464 64.658C196.068 66.8931 191.456 70.678 188.211 75.5342C184.966 80.3904 183.234 86.0997 183.234 91.9402C183.243 99.7693 186.357 107.275 191.893 112.811C197.429 118.347 204.935 121.461 212.764 121.47ZM212.764 74.4112C216.232 74.4112 219.621 75.4393 222.504 77.3656C225.386 79.2918 227.633 82.0297 228.96 85.233C230.287 88.4362 230.634 91.961 229.957 95.3615C229.281 98.762 227.611 101.886 225.16 104.337C222.708 106.789 219.584 108.458 216.184 109.134C212.783 109.811 209.258 109.463 206.055 108.136C202.852 106.81 200.114 104.563 198.188 101.68C196.262 98.7967 195.234 95.4073 195.234 91.9402C195.239 87.2926 197.088 82.8368 200.374 79.5505C203.661 76.2642 208.117 74.4159 212.764 74.4112Z" fill="url(#paint0_linear_11909_41788)"/>
<path d="M479.257 294.472L478.662 294.216C447.352 280.745 417.752 263.606 390.482 243.159C389.443 242.38 388.18 241.959 386.882 241.959C385.583 241.959 384.32 242.38 383.282 243.159C378.748 246.559 374.148 249.864 369.482 253.075V151.265H406.882C408.473 151.265 409.999 150.633 411.124 149.508C412.249 148.383 412.882 146.856 412.882 145.265V115.265C412.881 114.097 412.539 112.954 411.898 111.977C411.258 111 410.345 110.231 409.274 109.765L215.158 25.3512C214.403 25.0229 213.588 24.8535 212.765 24.8535C211.942 24.8535 211.128 25.0229 210.373 25.3512L16.2556 109.763C15.184 110.229 14.2717 110.998 13.6308 111.975C12.9898 112.952 12.6481 114.095 12.6476 115.263V145.263C12.6476 146.854 13.2798 148.381 14.405 149.506C15.5302 150.631 17.0563 151.263 18.6476 151.263H56.0476V327.5H36.2946C34.7033 327.5 33.1772 328.132 32.052 329.258C30.9268 330.383 30.2946 331.909 30.2946 333.5V365.147H12.7656C11.1743 365.147 9.6482 365.779 8.52298 366.905C7.39777 368.03 6.76563 369.556 6.76562 371.147V408.794C6.76563 410.385 7.39777 411.912 8.52298 413.037C9.6482 414.162 11.1743 414.794 12.7656 414.794H313.051C320.159 423.575 328.4 431.374 337.56 437.987C351.58 448.224 367.132 456.177 383.639 461.553C384.72 461.869 385.868 461.874 386.953 461.568C403.942 456.231 420.003 448.296 434.566 438.045C466.176 415.698 482.884 386.012 482.884 352.193V299.982C482.883 298.81 482.54 297.663 481.895 296.684C481.251 295.705 480.333 294.936 479.257 294.472ZM357.484 261.072C349.868 265.957 342.104 270.598 334.19 274.997V151.265H357.484V261.072ZM295.101 294.219L294.51 294.474C293.434 294.938 292.518 295.707 291.874 296.686C291.23 297.665 290.887 298.811 290.887 299.982V327.5H280.77V151.265H322.19V281.417C313.311 285.994 304.281 290.262 295.101 294.219ZM245.476 327.5V151.265H268.77V327.5H245.476ZM192.056 327.5V151.265H233.476V327.5H192.056ZM156.762 327.5V151.265H180.056V327.5H156.762ZM103.341 327.5V151.265H144.762V327.5H103.341ZM24.6476 119.2L212.766 37.4002L400.884 119.2V139.267H24.6476V119.2ZM68.0476 151.267H91.3406V327.5H68.0466L68.0476 151.267ZM42.2946 339.5H290.884V352.193C290.883 356.524 291.156 360.851 291.704 365.147H42.2946V339.5ZM18.7656 402.794V377.147H294.001C296.333 386.165 299.945 394.802 304.728 402.794H18.7656ZM470.884 352.194C470.884 374.815 462.704 394.858 446.521 412.024C446.39 410.488 445.673 409.061 444.518 408.04C443.363 407.018 441.86 406.48 440.319 406.538C438.778 406.595 437.319 407.243 436.243 408.348C435.168 409.452 434.559 410.929 434.543 412.47V417.97C434.542 419.398 435.052 420.778 435.981 421.862C433.429 423.975 430.741 426.038 427.915 428.05C414.833 437.211 400.497 444.436 385.351 449.5C370.819 444.464 357.106 437.321 344.651 428.3C342.051 426.396 339.57 424.445 337.208 422.447C337.843 421.886 338.351 421.197 338.699 420.424C339.047 419.652 339.228 418.814 339.228 417.967V412.467C339.228 410.876 338.595 409.35 337.47 408.225C336.345 407.099 334.819 406.467 333.228 406.467C331.636 406.467 330.11 407.099 328.985 408.225C327.86 409.35 327.228 410.876 327.228 412.467V412.95C311.066 395.588 302.888 375.232 302.888 352.191V303.919C332.578 290.88 360.747 274.62 386.888 255.431C413.028 274.62 441.197 290.88 470.888 303.919L470.884 352.194Z" fill="url(#paint1_linear_11909_41788)"/>
<path d="M386.883 406.47C385.292 406.47 383.766 407.102 382.641 408.227C381.515 409.352 380.883 410.879 380.883 412.47V417.97C380.883 419.561 381.515 421.087 382.641 422.213C383.766 423.338 385.292 423.97 386.883 423.97C388.475 423.97 390.001 423.338 391.126 422.213C392.251 421.087 392.883 419.561 392.883 417.97V412.47C392.883 410.879 392.251 409.352 391.126 408.227C390.001 407.102 388.475 406.47 386.883 406.47ZM404.769 406.47C403.178 406.47 401.652 407.102 400.527 408.227C399.402 409.352 398.769 410.879 398.769 412.47V417.97C398.769 419.561 399.402 421.087 400.527 422.213C401.652 423.338 403.178 423.97 404.769 423.97C406.361 423.97 407.887 423.338 409.012 422.213C410.137 421.087 410.769 419.561 410.769 417.97V412.47C410.769 410.879 410.137 409.352 409.012 408.227C407.887 407.102 406.361 406.47 404.769 406.47ZM416.655 412.47V417.97C416.655 419.561 417.288 421.087 418.413 422.213C419.538 423.338 421.064 423.97 422.655 423.97C424.247 423.97 425.773 423.338 426.898 422.213C428.023 421.087 428.655 419.561 428.655 417.97V412.47C428.655 410.879 428.023 409.352 426.898 408.227C425.773 407.102 424.247 406.47 422.655 406.47C421.064 406.47 419.538 407.102 418.413 408.227C417.288 409.352 416.655 410.879 416.655 412.47ZM369 406.47C367.409 406.47 365.883 407.102 364.758 408.227C363.633 409.352 363 410.879 363 412.47V417.97C363 419.561 363.633 421.087 364.758 422.213C365.883 423.338 367.409 423.97 369 423.97C370.592 423.97 372.118 423.338 373.243 422.213C374.368 421.087 375 419.561 375 417.97V412.47C375 410.879 374.368 409.352 373.243 408.227C372.118 407.102 370.592 406.47 369 406.47ZM351.109 406.47C349.518 406.47 347.992 407.102 346.867 408.227C345.742 409.352 345.109 410.879 345.109 412.47V417.97C345.109 419.561 345.742 421.087 346.867 422.213C347.992 423.338 349.518 423.97 351.109 423.97C352.701 423.97 354.227 423.338 355.352 422.213C356.477 421.087 357.109 419.561 357.109 417.97V412.47C357.109 410.879 356.477 409.352 355.352 408.227C354.227 407.102 352.701 406.47 351.109 406.47ZM363.024 345.17C361.893 344.077 360.377 343.472 358.804 343.486C357.231 343.499 355.726 344.131 354.613 345.243C353.501 346.355 352.87 347.86 352.856 349.433C352.843 351.007 353.447 352.522 354.54 353.654L374.917 374.031C376.043 375.156 377.568 375.788 379.159 375.788C380.75 375.788 382.276 375.156 383.401 374.031L419.225 338.208C420.325 337.078 420.936 335.56 420.925 333.982C420.914 332.405 420.283 330.896 419.168 329.781C418.052 328.665 416.543 328.034 414.966 328.024C413.389 328.013 411.871 328.624 410.74 329.724L379.159 361.301L363.024 345.17Z" fill="url(#paint2_linear_11909_41788)"/>
<defs>
<linearGradient id="paint0_linear_11909_41788" x1="183.234" y1="108.477" x2="242.294" y2="81.3094" gradientUnits="userSpaceOnUse">
<stop stop-color="#0575E6"/>
<stop offset="1" stop-color="#021B79"/>
</linearGradient>
<linearGradient id="paint1_linear_11909_41788" x1="6.76562" y1="365.667" x2="467.798" y2="134.577" gradientUnits="userSpaceOnUse">
<stop stop-color="#0575E6"/>
<stop offset="1" stop-color="#021B79"/>
</linearGradient>
<linearGradient id="paint2_linear_11909_41788" x1="345.109" y1="402.862" x2="432.339" y2="367.922" gradientUnits="userSpaceOnUse">
<stop stop-color="#0575E6"/>
<stop offset="1" stop-color="#021B79"/>
</linearGradient>
</defs>
</svg>
