<svg width="512" height="512" viewBox="0 0 512 512" fill="none" xmlns="http://www.w3.org/2000/svg">
<path d="M256.085 247.021C242.846 247.036 230.152 252.302 220.791 261.664C211.429 271.025 206.162 283.718 206.147 296.957V318.926C206.147 332.171 211.408 344.872 220.773 354.237C230.138 363.602 242.84 368.863 256.084 368.863C269.328 368.863 282.03 363.602 291.395 354.237C300.76 344.872 306.021 332.171 306.021 318.926V296.957C306.006 283.718 300.74 271.025 291.379 261.664C282.017 252.302 269.324 247.036 256.085 247.021ZM294.021 318.926C294.021 328.988 290.024 338.637 282.91 345.752C275.795 352.867 266.146 356.863 256.084 356.863C246.022 356.863 236.373 352.867 229.258 345.752C222.144 338.637 218.147 328.988 218.147 318.926V296.957C218.147 286.896 222.144 277.247 229.258 270.132C236.373 263.017 246.022 259.02 256.084 259.02C266.146 259.02 275.795 263.017 282.91 270.132C290.024 277.247 294.021 286.896 294.021 296.957V318.926ZM340.142 338.785C340.114 344.642 341.244 350.446 343.465 355.864C345.687 361.282 348.958 366.208 353.089 370.359C357.22 374.51 362.13 377.803 367.538 380.051C372.946 382.298 378.744 383.455 384.6 383.455C390.457 383.455 396.255 382.298 401.663 380.051C407.071 377.803 411.981 374.51 416.112 370.359C420.243 366.208 423.514 361.282 425.736 355.864C427.957 350.446 429.087 344.642 429.059 338.785V319.557C429.087 313.701 427.957 307.897 425.736 302.479C423.514 297.061 420.243 292.135 416.112 287.984C411.981 283.833 407.071 280.54 401.663 278.292C396.255 276.045 390.457 274.888 384.6 274.888C378.744 274.888 372.946 276.045 367.538 278.292C362.13 280.54 357.22 283.833 353.089 287.984C348.958 292.135 345.687 297.061 343.465 302.479C341.244 307.897 340.114 313.701 340.142 319.557V338.785ZM352.142 319.557C352.118 315.28 352.94 311.04 354.561 307.081C356.181 303.122 358.569 299.522 361.585 296.489C364.601 293.456 368.188 291.049 372.137 289.406C376.087 287.764 380.323 286.918 384.6 286.918C388.878 286.918 393.114 287.764 397.064 289.406C401.013 291.049 404.6 293.456 407.616 296.489C410.632 299.522 413.02 303.122 414.64 307.081C416.261 311.04 417.083 315.28 417.059 319.557V338.785C417.083 343.063 416.261 347.303 414.64 351.262C413.02 355.221 410.632 358.821 407.616 361.854C404.6 364.887 401.013 367.294 397.064 368.937C393.114 370.579 388.878 371.425 384.6 371.425C380.323 371.425 376.087 370.579 372.137 368.937C368.188 367.294 364.601 364.887 361.585 361.854C358.569 358.821 356.181 355.221 354.561 351.262C352.94 347.303 352.118 343.063 352.142 338.785V319.557ZM127.397 275.1C115.61 275.114 104.309 279.802 95.9746 288.137C87.6399 296.472 82.9515 307.772 82.938 319.559V338.787C82.9102 344.644 84.0397 350.448 86.2615 355.866C88.4833 361.284 91.7537 366.21 95.8848 370.361C100.016 374.512 104.926 377.805 110.334 380.053C115.742 382.3 121.54 383.457 127.396 383.457C133.253 383.457 139.051 382.3 144.459 380.053C149.867 377.805 154.777 374.512 158.908 370.361C163.039 366.21 166.31 361.284 168.532 355.866C170.753 350.448 171.883 344.644 171.855 338.787V319.557C171.842 307.771 167.153 296.471 158.819 288.136C150.484 279.802 139.184 275.114 127.397 275.1ZM159.855 338.787C159.879 343.065 159.057 347.305 157.436 351.264C155.816 355.223 153.428 358.823 150.412 361.856C147.396 364.889 143.809 367.296 139.86 368.939C135.91 370.581 131.674 371.427 127.396 371.427C123.119 371.427 118.883 370.581 114.933 368.939C110.984 367.296 107.397 364.889 104.381 361.856C101.364 358.823 98.9774 355.223 97.3568 351.264C95.7363 347.305 94.9143 343.065 94.938 338.787V319.557C94.9143 315.28 95.7363 311.04 97.3568 307.081C98.9774 303.122 101.364 299.522 104.381 296.489C107.397 293.456 110.984 291.049 114.933 289.406C118.883 287.764 123.119 286.918 127.396 286.918C131.674 286.918 135.91 287.764 139.86 289.406C143.809 291.049 147.396 293.456 150.412 296.489C153.428 299.522 155.816 303.122 157.436 307.081C159.057 311.04 159.879 315.28 159.855 319.557V338.787Z" fill="url(#paint0_linear_11909_41815)"/>
<path d="M50 434.931V478.2C50 479.791 50.6321 481.317 51.7574 482.443C52.8826 483.568 54.4087 484.2 56 484.2H168.52V500.17C168.52 501.761 169.152 503.287 170.277 504.413C171.403 505.538 172.929 506.17 174.52 506.17H337.655C339.246 506.17 340.772 505.538 341.898 504.413C343.023 503.287 343.655 501.761 343.655 500.17V484.2H456C457.591 484.2 459.117 483.568 460.243 482.443C461.368 481.317 462 479.791 462 478.2V434.931C461.985 422.38 457.187 410.307 448.583 401.169C439.98 392.032 428.218 386.516 415.691 385.745C412.569 385.593 411.029 387.481 409.529 389.311C406.516 392.994 402.701 395.94 398.377 397.924C394.052 399.909 389.332 400.881 384.575 400.764C379.818 400.648 375.15 399.447 370.928 397.253C366.705 395.059 363.04 391.93 360.21 388.105C359.632 387.335 358.88 386.713 358.015 386.29C357.15 385.868 356.197 385.656 355.234 385.673C346.497 385.865 337.972 388.403 330.552 393.02C325.727 387.286 319.787 382.593 313.092 379.226C306.398 375.859 299.089 373.887 291.609 373.432C288.451 373.241 286.889 375.161 285.226 377.189C281.701 381.497 277.239 384.943 272.18 387.265C267.121 389.586 261.599 390.722 256.034 390.586C250.469 390.45 245.009 389.046 240.07 386.479C235.131 383.913 230.842 380.253 227.532 375.778C226.961 375 226.21 374.372 225.344 373.949C224.477 373.525 223.52 373.318 222.556 373.346C208.11 373.68 194.372 379.672 184.3 390.033C183.345 391.018 182.426 392.038 181.546 393.09C174.59 388.756 166.661 386.231 158.48 385.745C155.374 385.593 153.822 387.482 152.323 389.311C149.31 392.994 145.495 395.94 141.171 397.924C136.846 399.909 132.126 400.881 127.369 400.764C122.612 400.648 117.944 399.447 113.722 397.253C109.499 395.059 105.834 391.93 103.004 388.105C102.425 387.336 101.673 386.714 100.808 386.292C99.9431 385.869 98.9905 385.657 98.028 385.673C85.1802 386 72.9684 391.332 63.9963 400.534C55.0242 409.736 50.0018 422.079 50 434.931ZM352.646 397.851C356.57 402.41 361.409 406.093 366.848 408.661C372.288 411.23 378.206 412.626 384.22 412.759C384.596 412.769 384.971 412.772 385.347 412.772C391.511 412.787 397.607 411.477 403.221 408.93C408.835 406.383 413.835 402.659 417.884 398.011C426.786 399.265 434.936 403.69 440.837 410.473C446.737 417.256 449.991 425.941 450 434.931V472.2H343.655V428.767C343.662 419.781 341.471 410.93 337.275 402.984C341.953 400.15 347.204 398.396 352.646 397.851ZM219.94 385.512C224.488 390.854 230.139 395.147 236.504 398.096C242.87 401.045 249.798 402.581 256.814 402.597C263.829 402.613 270.765 401.109 277.144 398.189C283.522 395.268 289.193 391.001 293.765 385.68C304.234 387.04 313.851 392.161 320.823 400.089C327.795 408.017 331.645 418.21 331.655 428.767V494.167H180.52V428.767C180.503 420.225 183.021 411.871 187.754 404.761L187.78 404.723C189.282 402.47 190.989 400.361 192.88 398.423C200.068 391.025 209.667 386.445 219.94 385.512ZM95.445 397.854C99.4947 402.524 104.498 406.272 110.118 408.846C115.738 411.419 121.845 412.758 128.026 412.773C134.208 412.788 140.32 411.478 145.953 408.932C151.585 406.385 156.607 402.661 160.679 398.011C165.688 398.709 170.501 400.427 174.82 403.057C170.666 410.989 168.504 419.813 168.52 428.767V472.2H62V434.931C62.0578 425.725 65.4968 416.861 71.6633 410.025C77.8297 403.189 86.2935 398.857 95.445 397.854ZM348.365 58.0559L347.779 57.8039C316.47 44.332 286.87 27.1932 259.6 6.74688C258.561 5.96794 257.298 5.54687 256 5.54688C254.702 5.54688 253.439 5.96794 252.4 6.74688C225.131 27.1913 195.533 44.3287 164.227 57.7999L163.635 58.0539C162.556 58.5167 161.636 59.2859 160.99 60.2662C160.344 61.2465 160 62.3948 160 63.5689V115.78C160 149.558 176.141 179.225 206.676 201.575C220.697 211.811 236.249 219.765 252.756 225.141C253.837 225.457 254.986 225.462 256.07 225.156C273.06 219.819 289.121 211.884 303.684 201.633C335.292 179.285 352 149.6 352 115.78V63.5689C352 62.3951 351.655 61.2472 351.009 60.2673C350.363 59.2874 349.444 58.5185 348.365 58.0559ZM340 115.78C340 138.401 331.82 158.444 315.637 175.61C315.506 174.074 314.789 172.647 313.634 171.625C312.48 170.604 310.976 170.066 309.435 170.123C307.895 170.181 306.435 170.829 305.36 171.934C304.284 173.038 303.675 174.514 303.659 176.056V181.556C303.658 182.983 304.168 184.364 305.098 185.447C302.545 187.56 299.856 189.622 297.031 191.635C283.95 200.797 269.614 208.023 254.468 213.088C239.937 208.052 226.224 200.909 213.768 191.888C211.168 189.984 208.687 188.033 206.326 186.036C206.961 185.475 207.469 184.785 207.817 184.013C208.165 183.241 208.345 182.403 208.345 181.556V176.056C208.345 174.465 207.713 172.938 206.588 171.813C205.462 170.688 203.936 170.056 202.345 170.056C200.754 170.056 199.228 170.688 198.102 171.813C196.977 172.938 196.345 174.465 196.345 176.056V176.54C180.178 159.177 172 138.821 172 115.78V67.5069C201.69 54.4668 229.859 38.2068 256 19.0189C282.141 38.2065 310.31 54.4666 340 67.5069V115.78Z" fill="url(#paint1_linear_11909_41815)"/>
<path d="M256 170.056C254.408 170.056 252.882 170.688 251.757 171.813C250.632 172.938 250 174.464 250 176.056V181.556C250 183.147 250.632 184.673 251.757 185.798C252.882 186.924 254.408 187.556 256 187.556C257.591 187.556 259.117 186.924 260.242 185.798C261.367 184.673 262 183.147 262 181.556V176.056C262 174.464 261.367 172.938 260.242 171.813C259.117 170.688 257.591 170.056 256 170.056ZM273.887 170.056C272.295 170.056 270.769 170.688 269.644 171.813C268.519 172.938 267.887 174.464 267.887 176.056V181.556C267.887 183.147 268.519 184.673 269.644 185.798C270.769 186.924 272.295 187.556 273.887 187.556C275.478 187.556 277.004 186.924 278.129 185.798C279.254 184.673 279.887 183.147 279.887 181.556V176.056C279.887 174.464 279.254 172.938 278.129 171.813C277.004 170.688 275.478 170.056 273.887 170.056ZM285.773 176.056V181.556C285.773 183.147 286.405 184.673 287.53 185.798C288.655 186.924 290.181 187.556 291.773 187.556C293.364 187.556 294.89 186.924 296.015 185.798C297.14 184.673 297.773 183.147 297.773 181.556V176.056C297.773 174.464 297.14 172.938 296.015 171.813C294.89 170.688 293.364 170.056 291.773 170.056C290.181 170.056 288.655 170.688 287.53 171.813C286.405 172.938 285.773 174.464 285.773 176.056ZM238.113 170.056C236.521 170.056 234.995 170.688 233.87 171.813C232.745 172.938 232.113 174.464 232.113 176.056V181.556C232.113 183.147 232.745 184.673 233.87 185.798C234.995 186.924 236.521 187.556 238.113 187.556C239.704 187.556 241.23 186.924 242.355 185.798C243.48 184.673 244.113 183.147 244.113 181.556V176.056C244.113 174.464 243.48 172.938 242.355 171.813C241.23 170.688 239.704 170.056 238.113 170.056ZM220.227 170.056C218.635 170.056 217.109 170.688 215.984 171.813C214.859 172.938 214.227 174.464 214.227 176.056V181.556C214.227 183.147 214.859 184.673 215.984 185.798C217.109 186.924 218.635 187.556 220.227 187.556C221.818 187.556 223.344 186.924 224.469 185.798C225.594 184.673 226.227 183.147 226.227 181.556V176.056C226.227 174.464 225.594 172.938 224.469 171.813C223.344 170.688 221.818 170.056 220.227 170.056ZM232.142 108.757C231.587 108.187 230.925 107.733 230.194 107.422C229.463 107.11 228.677 106.947 227.883 106.941C227.088 106.936 226.3 107.088 225.565 107.39C224.829 107.692 224.161 108.136 223.599 108.698C223.037 109.26 222.592 109.928 222.291 110.664C221.989 111.399 221.836 112.187 221.842 112.982C221.847 113.776 222.01 114.562 222.322 115.293C222.633 116.024 223.087 116.686 223.657 117.241L244.034 137.618C245.159 138.743 246.685 139.375 248.276 139.375C249.867 139.375 251.393 138.743 252.519 137.618L288.343 101.794C288.912 101.239 289.366 100.577 289.677 99.8462C289.989 99.115 290.152 98.3293 290.157 97.5345C290.163 96.7397 290.01 95.9518 289.709 95.2165C289.407 94.4812 288.962 93.8132 288.4 93.2513C287.838 92.6893 287.17 92.2446 286.435 91.943C285.699 91.6414 284.911 91.4888 284.117 91.4943C283.322 91.4997 282.536 91.663 281.805 91.9747C281.074 92.2863 280.412 92.7401 279.858 93.3097L248.276 124.891L232.142 108.757Z" fill="url(#paint2_linear_11909_41815)"/>
<defs>
<linearGradient id="paint0_linear_11909_41815" x1="82.9375" y1="353.441" x2="260.497" y2="146.236" gradientUnits="userSpaceOnUse">
<stop stop-color="#0575E6"/>
<stop offset="1" stop-color="#021B79"/>
</linearGradient>
<linearGradient id="paint1_linear_11909_41815" x1="50" y1="396.033" x2="486.607" y2="230.747" gradientUnits="userSpaceOnUse">
<stop stop-color="#0575E6"/>
<stop offset="1" stop-color="#021B79"/>
</linearGradient>
<linearGradient id="paint2_linear_11909_41815" x1="214.227" y1="166.422" x2="301.485" y2="131.513" gradientUnits="userSpaceOnUse">
<stop stop-color="#0575E6"/>
<stop offset="1" stop-color="#021B79"/>
</linearGradient>
</defs>
</svg>
