<svg xmlns="http://www.w3.org/2000/svg" viewBox="0 0 68 68" id="SeoExpert"><path d="M66 6.75c0-2.481-2.019-4.5-4.5-4.5h-55A4.505 4.505 0 0 0 2 6.75v54.5c0 2.481 2.019 4.5 4.5 4.5h6a.5.5 0 1 0 0-1h-6c-1.93 0-3.5-1.57-3.5-3.5v-49h62v49c0 1.93-1.57 3.5-3.5 3.5h-43a.5.5 0 1 0 0 1h43c2.481 0 4.5-2.019 4.5-4.5V6.75zm-63 4.5v-4.5c0-1.93 1.57-3.5 3.5-3.5h55c1.93 0 3.5 1.57 3.5 3.5v4.5H3z" fill="#021b79" class="color000000 svgShape"></path><path d="M14.5 65.75h2a.5.5 0 1 0 0-1h-2a.5.5 0 1 0 0 1zm45.105-59H28.793a.5.5 0 1 0 0 1h30.812a.5.5 0 1 0 0-1zM22.041 5.31c-1.07 0-1.94.87-1.94 1.94 0 1.07.87 1.94 1.94 1.94s1.94-.87 1.94-1.94c0-1.07-.87-1.94-1.94-1.94zm0 2.88a.941.941 0 0 1-.94-.94c0-.51.43-.94.94-.94.518 0 .94.421.94.94 0 .518-.422.94-.94.94zm-6.104-2.88c-1.07 0-1.94.87-1.94 1.94 0 1.07.87 1.94 1.94 1.94s1.94-.87 1.94-1.94c0-1.07-.87-1.94-1.94-1.94zm0 2.88a.941.941 0 0 1-.94-.94c0-.51.431-.94.94-.94.519 0 .94.421.94.94 0 .518-.421.94-.94.94zM9.835 5.31c-1.07 0-1.94.87-1.94 1.94 0 1.07.87 1.94 1.94 1.94s1.94-.87 1.94-1.94c0-1.07-.87-1.94-1.94-1.94zm0 2.88a.941.941 0 0 1-.94-.94c0-.51.431-.94.94-.94.519 0 .94.421.94.94 0 .518-.421.94-.94.94zM6.5 42.404a.5.5 0 0 0-.5.5v7.875a.5.5 0 0 0 .5.5h15.53a.5.5 0 0 0 .5-.5v-7.875a.5.5 0 0 0-.5-.5H6.5zm15.03 7.875H7v-6.875h14.53v6.875zm.5 3.5H11.5a.5.5 0 1 0 0 1h10.53a.5.5 0 1 0 0-1zM6.5 58.28h15.53a.5.5 0 1 0 0-1H6.5a.5.5 0 1 0 0 1zm0 3.5h10.738a.5.5 0 1 0 0-1H6.5a.5.5 0 1 0 0 1zm35.265-8h-10.53a.5.5 0 1 0 0 1h10.53a.5.5 0 1 0 0-1zm.5 4a.5.5 0 0 0-.5-.5h-15.53a.5.5 0 1 0 0 1h15.53a.5.5 0 0 0 .5-.5zm-16.03 3a.5.5 0 1 0 0 1h10.738a.5.5 0 1 0 0-1H26.235zm35.265-7H50.97a.5.5 0 1 0 0 1H61.5a.5.5 0 1 0 0-1zm.5 4a.5.5 0 0 0-.5-.5H45.97a.5.5 0 1 0 0 1H61.5a.5.5 0 0 0 .5-.5zm-16.03 3a.5.5 0 1 0 0 1H56.71a.5.5 0 1 0 0-1H45.97zM62 42.905a.5.5 0 0 0-.5-.5H45.97a.5.5 0 0 0-.5.5v7.875a.5.5 0 0 0 .5.5H61.5a.5.5 0 0 0 .5-.5v-7.875zm-1 7.375H46.47v-6.875H61v6.875zm-18.735-7.375a.5.5 0 0 0-.5-.5h-15.53a.5.5 0 0 0-.5.5v7.875a.5.5 0 0 0 .5.5h15.53a.5.5 0 0 0 .5-.5v-7.875zm-1 7.375h-14.53v-6.875h14.53v6.875zM30.814 29.792l-5.106 2.237a5.659 5.659 0 0 0-3.34 4.695l-.02 3.678a.503.503 0 0 0 .5.503h22.304a.5.5 0 0 0 .5-.5v-3.22a5.638 5.638 0 0 0-3.37-5.157l-5.058-2.218-.076-.807a5.072 5.072 0 0 0 2.015-3.958 1.594 1.594 0 0 0 1.101-1.51c0-.47-.21-.88-.529-1.175 1.61-1.903.203-5.272.108-5.483-1.129-1.887-2.562-2.995-4.26-3.296-2.6-.456-4.941 1.148-5.467 1.542-.532.114-2.209.684-2.548 3.349-.265 2.086.203 3.255.814 3.912a1.6 1.6 0 0 0-.508 1.15c0 .703.462 1.302 1.101 1.51a5.072 5.072 0 0 0 1.986 3.943 18.17 18.17 0 0 1-.144.79l-.003.015zm5.384-.21.035.374L34 32.124l-2.205-2.14c.024-.114.054-.255.086-.426 1.31.632 2.86.677 4.317.024zm-5.06 1.161 2.14 2.077-1.27 1.211-2.147-2.727 1.276-.56zm5.725.002 1.271.559-2.146 2.727-1.265-1.208 2.14-2.078zm7.789 6.44v2.72H23.35l.015-3.134a4.645 4.645 0 0 1 2.744-3.827l2.803-1.227 2.649 3.365c.087.11.216.179.357.19h.036a.501.501 0 0 0 .345-.137l1.7-1.62 1.695 1.619c.094.09.217.138.346.138h.035c.14-.01.27-.08.358-.19l2.648-3.365c1.164.76 5.57 1.333 5.57 5.468zM28.56 18.598c.292-2.292 1.757-2.5 1.814-2.507a.491.491 0 0 0 .265-.109c.023-.018 2.326-1.86 4.776-1.415 1.397.25 2.598 1.2 3.54 2.764.014.032 1.307 3.106-.083 4.506-1.35-1.816-3.04-1.337-7.285-2.462a.552.552 0 0 0-.208 0c-.15.033-1.394.371-1.661 2.734a1.727 1.727 0 0 1-.205-.098.357.357 0 0 0-.057-.028c-.794-.485-1.112-1.684-.896-3.385zm1.414 6.356v-.33a.5.5 0 0 0-.5-.5.596.596 0 0 1-.6-.59c0-.256.154-.48.319-.563.053.025.101.04.153.06.054.021.106.045.157.061 2.09.68.578-1.847 2.025-2.707 5.825 1.22 5.712.907 6.742 2.346.061.187.304.401.674.269a.596.596 0 0 1-.28 1.124.5.5 0 0 0-.5.5v.33c0 2.604-2.325 3.745-2.226 3.645-1.54.783-2.681.468-4.072-.181-.098-.1-1.892-1.126-1.892-3.464z" fill="#021b79" class="color000000 svgShape"></path><path d="M32.655 27.17c.29.507.833.822 1.418.822s1.129-.315 1.418-.822a.5.5 0 0 0-.868-.496c-.225.392-.875.392-1.1 0a.501.501 0 0 0-.868.496zm-.329-2.995a.593.593 0 0 0 .597-.603c0-.783-1.194-.782-1.194 0 0 .338.262.603.597.603zm3.496 0a.6.6 0 0 0 .598-.603.595.595 0 0 0-.598-.592.598.598 0 0 0-.602.592c0 .332.27.603.602.603z" fill="#021b79" class="color000000 svgShape"></path></svg>