<svg xmlns="http://www.w3.org/2000/svg" enable-background="new 0 0 100 100" viewBox="0 0 100 100" id="SocialExpert"><polygon points="64.766 55.616 67.013 55.616 67.013 54.493 67.013 45.492 64.766 45.492 64.766 54.493" fill="#021b79" class="color000000 svgShape"></polygon><polygon points="32.987 55.616 35.233 55.616 35.233 54.493 35.233 45.492 32.987 45.492 32.987 54.493" fill="#021b79" class="color000000 svgShape"></polygon><path d="M44.547,33.618v1.327l-8.657,2.755c-3.212,0.085-7.871,2.374-8.428,6.112L26.306,55.5l2.235,0.222l0.122-1.229l1.028-10.405c0.333-2.232,3.787-4.144,6.381-4.144l8.81-2.769c0.29,0.606,0.809,1.242,1.707,1.817c1.036,0.662,2.223,0.992,3.41,0.992s2.374-0.33,3.41-0.992h0.001c0.889-0.569,1.405-1.198,1.697-1.799l8.478,2.698l0.34,0.053c2.594,0,6.048,1.912,6.374,4.089l1.035,10.46l0.121,1.229l2.236-0.222l-1.163-11.744c-0.55-3.684-5.21-5.972-8.422-6.057l-8.657-2.755v-1.327c2.426-1.952,4.018-5.162,4.018-8.792c0-5.939-4.249-10.771-9.47-10.771c-5.222,0-9.47,4.832-9.47,10.771C40.53,28.456,42.121,31.665,44.547,33.618z M50,16.302c3.983,0,7.223,3.824,7.223,8.524c0,3.032-1.352,5.691-3.377,7.203c-0.7,0.522-1.477,0.909-2.311,1.123c-0.377,0.097-0.766,0.152-1.162,0.176C50.249,33.335,50.126,33.35,50,33.35s-0.249-0.015-0.373-0.022c-0.396-0.024-0.785-0.079-1.162-0.176c-0.834-0.214-1.611-0.601-2.311-1.123c-2.026-1.512-3.378-4.172-3.378-7.203C42.776,20.126,46.017,16.302,50,16.302z M53.206,35.711c0,0.123-0.007,0.412-0.301,0.78c-0.148,0.186-0.366,0.391-0.704,0.608h0c-1.338,0.855-3.065,0.854-4.401,0c-0.344-0.22-0.564-0.429-0.713-0.617c-0.287-0.364-0.293-0.649-0.293-0.771v-0.303v-0.46c0.221,0.091,0.444,0.174,0.673,0.246c0.782,0.248,1.602,0.39,2.451,0.398c0.028,0,0.054,0.005,0.081,0.005c0.027,0,0.053-0.004,0.08-0.005c0.849-0.008,1.67-0.15,2.452-0.398c0.228-0.072,0.452-0.155,0.673-0.246v0.46V35.711z" fill="#021b79" class="color000000 svgShape"></path><path d="M77.796,77.494l-0.151-0.061c0.277-0.656,0.437-1.387,0.437-2.16c0-2.559-1.701-4.675-3.897-5.005c-0.859-1.522-2.631-2.236-4.252-2.884l-0.152-0.061c0.277-0.656,0.437-1.387,0.437-2.16c0-2.386-1.479-4.386-3.459-4.914c-0.455-2.399-2.689-3.299-4.689-4.098l-0.152-0.06c0.209-0.495,0.352-1.031,0.408-1.598c0.018-0.185,0.029-0.371,0.029-0.562c0-2.787-2.016-5.055-4.493-5.055s-4.493,2.267-4.493,5.055c0,0.19,0.011,0.377,0.029,0.562c0.057,0.577,0.204,1.123,0.419,1.625l-0.074,0.03c-1.392,0.54-2.808,1.093-3.752,2.077c-0.946-0.989-2.345-1.553-3.647-2.072l-0.151-0.06c0.209-0.495,0.351-1.031,0.407-1.598c0.019-0.185,0.03-0.371,0.03-0.562c0-2.787-2.016-5.055-4.493-5.055c-2.478,0-4.493,2.267-4.493,5.055c0,0.19,0.012,0.377,0.03,0.562c0.057,0.577,0.203,1.123,0.418,1.625l-0.074,0.03c-2.139,0.829-4.338,1.688-4.781,4.104c-1.978,0.529-3.456,2.528-3.456,4.913c0,0.784,0.164,1.524,0.448,2.187l-0.074,0.029c-1.735,0.673-3.508,1.366-4.354,2.891c-2.189,0.337-3.882,2.449-3.882,5.002c0,0.784,0.164,1.524,0.448,2.187l-0.074,0.029c-2.393,0.927-4.867,1.886-4.867,5.026v3.429h2.246v-1.123v-2.306c0-1.391,0.773-1.9,3.438-2.934l0.634-0.25c0.456,0.381,0.978,0.665,1.544,0.83c0.36,0.104,0.735,0.166,1.123,0.166c0.388,0,0.763-0.061,1.123-0.166c0.577-0.168,1.109-0.461,1.572-0.854l0.679,0.272c0.695,0.278,1.252,0.52,1.7,0.748c1.315,0.672,1.666,1.223,1.666,2.187v2.306v1.123h2.247v-1.123v-2.306c0-1.017,0.417-1.563,1.682-2.187c0.465-0.229,1.04-0.469,1.756-0.746l0.634-0.25c0.457,0.381,0.978,0.665,1.544,0.83c0.36,0.104,0.735,0.166,1.124,0.166c0.388,0,0.763-0.061,1.123-0.166c0.577-0.168,1.108-0.461,1.571-0.854l0.679,0.272c0.695,0.278,1.252,0.52,1.7,0.748c1.314,0.672,1.666,1.223,1.666,2.187v2.306v1.123h2.247v-1.123v-2.306c0-1.017,0.417-1.563,1.682-2.187c0.465-0.229,1.041-0.469,1.757-0.746l0.634-0.25c0.456,0.381,0.978,0.665,1.544,0.83c0.36,0.104,0.735,0.166,1.123,0.166c0.388,0,0.763-0.061,1.123-0.166c0.577-0.168,1.109-0.461,1.572-0.854l0.679,0.272c0.695,0.278,1.252,0.52,1.7,0.748c1.314,0.672,1.666,1.223,1.666,2.187v2.306v1.123h2.247v-1.123v-2.306c0-1.017,0.417-1.563,1.682-2.187c0.464-0.229,1.04-0.469,1.756-0.746l0.634-0.25c0.456,0.381,0.979,0.665,1.544,0.83c0.36,0.104,0.735,0.166,1.123,0.166c0.389,0,0.764-0.061,1.124-0.166c0.577-0.168,1.108-0.461,1.571-0.854l0.679,0.272c2.737,1.093,3.366,1.642,3.366,2.935v2.306v1.123h2.247v-3.429C82.575,79.404,80.037,78.389,77.796,77.494z M74.712,77.691c-0.332,0.242-0.712,0.391-1.124,0.391c-0.411,0-0.792-0.148-1.123-0.391c-0.052-0.038-0.106-0.071-0.156-0.114c-0.28-0.243-0.506-0.569-0.674-0.942c-0.182-0.405-0.294-0.865-0.294-1.362c0-1.035,0.455-1.93,1.123-2.418c0.332-0.241,0.712-0.39,1.123-0.39c0.411,0,0.792,0.149,1.124,0.39c0.668,0.487,1.123,1.383,1.123,2.418c0,0.482-0.106,0.928-0.278,1.325c-0.162,0.374-0.384,0.698-0.659,0.946C74.839,77.599,74.776,77.645,74.712,77.691z M69.469,77.49c-1.392,0.54-2.808,1.093-3.752,2.077c-0.947-0.989-2.345-1.553-3.646-2.072l-0.152-0.061c0.277-0.656,0.437-1.387,0.437-2.16c0-2.001-1.041-3.729-2.544-4.547c0.533-0.399,1.363-0.769,2.613-1.254l0.634-0.25c0.456,0.381,0.979,0.665,1.544,0.83c0.36,0.105,0.735,0.167,1.123,0.167c0.389,0,0.763-0.062,1.124-0.167c0.577-0.168,1.108-0.461,1.571-0.853l0.679,0.271c1.225,0.49,2.025,0.87,2.538,1.257c-1.502,0.819-2.543,2.546-2.543,4.546c0,0.784,0.164,1.524,0.448,2.187L69.469,77.49z M58.986,77.691c-0.332,0.242-0.712,0.391-1.123,0.391c-0.411,0-0.791-0.149-1.123-0.391c-0.052-0.038-0.107-0.071-0.156-0.114c-0.28-0.244-0.507-0.569-0.674-0.942c-0.181-0.405-0.294-0.865-0.294-1.362c0-1.035,0.455-1.93,1.124-2.418c0.332-0.241,0.712-0.39,1.123-0.39c0.411,0,0.791,0.149,1.123,0.39c0.668,0.487,1.124,1.383,1.124,2.418c0,0.482-0.107,0.928-0.278,1.325c-0.162,0.374-0.384,0.698-0.658,0.946C59.113,77.599,59.05,77.645,58.986,77.691z M53.744,77.49c-1.392,0.54-2.808,1.093-3.752,2.077c-0.946-0.989-2.345-1.553-3.647-2.072l-0.151-0.061c0.277-0.656,0.437-1.387,0.437-2.16c0-2.001-1.042-3.729-2.544-4.547c0.533-0.399,1.363-0.769,2.612-1.254l0.634-0.25c0.457,0.381,0.978,0.665,1.544,0.83c0.36,0.105,0.735,0.167,1.124,0.167c0.388,0,0.763-0.062,1.123-0.167c0.577-0.168,1.109-0.461,1.572-0.853l0.679,0.271c1.224,0.49,2.025,0.87,2.538,1.257c-1.501,0.819-2.542,2.546-2.542,4.546c0,0.784,0.164,1.524,0.448,2.187L53.744,77.49z M43.26,77.691c-0.332,0.242-0.712,0.391-1.123,0.391c-0.411,0-0.792-0.149-1.124-0.391c-0.052-0.038-0.106-0.071-0.156-0.114c-0.279-0.244-0.506-0.569-0.674-0.942c-0.181-0.405-0.294-0.865-0.294-1.362c0-1.035,0.455-1.93,1.123-2.418c0.332-0.241,0.712-0.39,1.124-0.39c0.411,0,0.791,0.149,1.123,0.39c0.668,0.487,1.123,1.383,1.123,2.418c0,0.482-0.106,0.928-0.278,1.325c-0.162,0.374-0.384,0.698-0.658,0.946C43.387,77.599,43.324,77.645,43.26,77.691z M38.018,77.49c-1.392,0.54-2.808,1.093-3.752,2.077c-0.946-0.989-2.345-1.553-3.646-2.072l-0.152-0.061c0.277-0.656,0.437-1.387,0.437-2.16c0-2.001-1.041-3.729-2.544-4.547c0.534-0.399,1.363-0.769,2.613-1.254l0.634-0.25c0.457,0.381,0.978,0.665,1.544,0.83c0.36,0.105,0.735,0.167,1.123,0.167c0.389,0,0.764-0.062,1.124-0.167c0.577-0.168,1.108-0.461,1.571-0.853l0.679,0.271c1.225,0.49,2.025,0.87,2.538,1.257c-1.502,0.819-2.543,2.546-2.543,4.546c0,0.784,0.164,1.524,0.448,2.187L38.018,77.49z M27.534,77.691c-0.332,0.242-0.712,0.391-1.123,0.391c-0.411,0-0.792-0.149-1.123-0.391c-0.052-0.038-0.107-0.071-0.156-0.114c-0.28-0.244-0.507-0.569-0.674-0.942c-0.182-0.405-0.294-0.865-0.294-1.362c0-1.035,0.455-1.93,1.124-2.418c0.332-0.241,0.712-0.39,1.123-0.39c0.411,0,0.791,0.149,1.123,0.39c0.668,0.487,1.124,1.383,1.124,2.418c0,0.482-0.107,0.928-0.278,1.325c-0.162,0.374-0.384,0.698-0.658,0.946C27.662,77.599,27.598,77.645,27.534,77.691z M32.028,65.164c0-1.035,0.455-1.93,1.123-2.418c0.332-0.242,0.712-0.39,1.123-0.39c0.411,0,0.792,0.149,1.124,0.39c0.668,0.487,1.123,1.383,1.123,2.418c0,0.482-0.107,0.928-0.278,1.325c-0.162,0.374-0.384,0.699-0.658,0.947c-0.059,0.054-0.123,0.1-0.186,0.146c-0.332,0.242-0.712,0.39-1.124,0.39c-0.411,0-0.791-0.149-1.123-0.39c-0.052-0.038-0.106-0.071-0.156-0.114c-0.28-0.243-0.506-0.569-0.674-0.942C32.14,66.12,32.028,65.661,32.028,65.164z M38.835,58.24l0.634-0.25c0.747,0.623,1.668,0.997,2.667,0.997c1.012,0,1.943-0.383,2.694-1.02l0.679,0.272c2.048,0.818,2.915,1.332,3.222,2.08c-1.862,0.617-3.226,2.555-3.226,4.847c0,0.784,0.164,1.524,0.449,2.187l-0.074,0.029c-1.213,0.47-2.445,0.949-3.367,1.715c-0.137,0.113-0.264,0.235-0.385,0.361c-0.121-0.127-0.248-0.248-0.383-0.361c-0.919-0.772-2.129-1.257-3.264-1.711l-0.152-0.061c0.277-0.656,0.437-1.387,0.437-2.16c0-2.291-1.363-4.228-3.224-4.846C35.87,59.514,36.8,59.029,38.835,58.24z M39.936,54.493c-0.03-0.181-0.046-0.369-0.046-0.562c0-1.548,1.008-2.808,2.247-2.808c1.239,0,2.246,1.26,2.246,2.808c0,0.193-0.016,0.38-0.045,0.562c-0.045,0.273-0.13,0.525-0.233,0.763c-0.162,0.374-0.384,0.698-0.658,0.947c-0.37,0.334-0.82,0.537-1.31,0.537c-0.476,0-0.916-0.189-1.279-0.505c-0.279-0.244-0.506-0.569-0.674-0.942C40.073,55.045,39.983,54.78,39.936,54.493z M55.662,54.493c-0.03-0.181-0.046-0.369-0.046-0.562c0-1.548,1.007-2.808,2.247-2.808c1.239,0,2.247,1.26,2.247,2.808c0,0.193-0.016,0.38-0.046,0.562c-0.044,0.273-0.129,0.525-0.233,0.763c-0.162,0.374-0.384,0.698-0.658,0.947c-0.37,0.334-0.82,0.537-1.31,0.537c-0.476,0-0.915-0.189-1.279-0.505c-0.28-0.244-0.507-0.569-0.674-0.942C55.799,55.045,55.708,54.78,55.662,54.493z M55.196,57.99c0.747,0.623,1.667,0.997,2.667,0.997c1.011,0,1.943-0.383,2.695-1.02l0.679,0.272c2.047,0.818,2.914,1.332,3.222,2.08c-1.862,0.617-3.226,2.555-3.226,4.847c0,0.784,0.164,1.524,0.448,2.187l-0.074,0.029c-1.213,0.47-2.445,0.949-3.367,1.715c-0.137,0.113-0.264,0.235-0.385,0.361c-0.121-0.127-0.248-0.248-0.382-0.361c-0.92-0.772-2.13-1.257-3.265-1.711l-0.151-0.061c0.277-0.656,0.437-1.387,0.437-2.16c0-2.291-1.363-4.228-3.223-4.846c0.327-0.804,1.256-1.289,3.292-2.078L55.196,57.99z M47.753,65.164c0-1.035,0.455-1.93,1.123-2.418c0.332-0.242,0.712-0.39,1.124-0.39c0.411,0,0.791,0.149,1.123,0.39c0.668,0.487,1.123,1.383,1.123,2.418c0,0.482-0.106,0.928-0.278,1.325c-0.162,0.374-0.384,0.699-0.658,0.947c-0.06,0.054-0.123,0.1-0.187,0.146c-0.332,0.241-0.712,0.39-1.123,0.39c-0.411,0-0.791-0.149-1.124-0.39c-0.052-0.038-0.106-0.071-0.156-0.114c-0.279-0.243-0.506-0.569-0.673-0.942C47.865,66.12,47.753,65.661,47.753,65.164z M67.694,66.489c-0.162,0.374-0.384,0.699-0.658,0.947c-0.059,0.054-0.123,0.1-0.186,0.146c-0.332,0.241-0.712,0.39-1.124,0.39c-0.411,0-0.792-0.149-1.123-0.39c-0.052-0.038-0.106-0.071-0.156-0.114c-0.28-0.243-0.507-0.569-0.674-0.942c-0.182-0.405-0.294-0.865-0.294-1.362c0-1.035,0.455-1.93,1.123-2.418c0.332-0.242,0.712-0.39,1.123-0.39c0.411,0,0.791,0.149,1.124,0.39c0.668,0.487,1.123,1.383,1.123,2.418C67.972,65.646,67.866,66.092,67.694,66.489z" fill="#021b79" class="color000000 svgShape"></path><rect width="15.726" height="2.247" x="19.671" y="23.041" fill="#021b79" class="color000000 svgShape"></rect><polygon points="36.521 32.492 38.109 30.904 34.739 27.534 19.671 27.534 19.671 29.781 33.809 29.781" fill="#021b79" class="color000000 svgShape"></polygon><path d="M21.918 18.548h-2.247v2.247c2.247 0 0 0 2.247 0V18.548zM26.411 20.795v-2.247h-2.247v2.247C26.411 20.795 24.164 20.795 26.411 20.795zM30.904 20.795v-2.247h-2.246v2.247C30.904 20.795 28.658 20.795 30.904 20.795zM35.397 20.795v-2.247h-2.247v2.247C35.397 20.795 33.151 20.795 35.397 20.795z" fill="#021b79" class="color000000 svgShape"></path><rect width="12.356" height="2.246" x="23.041" y="14.055" fill="#021b79" class="color000000 svgShape"></rect><rect width="12.356" height="2.247" x="64.603" y="23.041" fill="#021b79" class="color000000 svgShape"></rect><polygon points="66.191 29.781 80.328 29.781 80.328 27.534 65.261 27.534 61.891 30.904 63.479 32.492" fill="#021b79" class="color000000 svgShape"></polygon><rect width="4.493" height="2.247" x="64.603" y="18.548" fill="#021b79" class="color000000 svgShape"></rect><rect width="8.986" height="2.247" x="71.342" y="18.548" fill="#021b79" class="color000000 svgShape"></rect><rect width="15.726" height="2.246" x="64.603" y="14.055" fill="#021b79" class="color000000 svgShape"></rect></svg>