<svg xmlns="http://www.w3.org/2000/svg" viewBox="0 0 68 68" id="TeamDiscussion"><path fill="#021b79" d="M14.7 56.7h-2.4c2.2-.8 3.7-2.8 3.7-5.3 0-3.1-2.5-5.6-5.6-5.6s-5.6 2.5-5.6 5.6c0 2.4 1.6 4.5 3.7 5.3H6c-2.8 0-5 2.3-5 5v4.1c0 .6.4 1 1 1h16.7c.6 0 1-.4 1-1v-4.1c0-2.7-2.2-5-5-5zm-8-5.2c0-2 1.6-3.6 3.6-3.6s3.6 1.6 3.6 3.6-1.6 3.6-3.6 3.6c-1.9 0-3.6-1.6-3.6-3.6zm11 13.4H3v-3.1c0-1.7 1.4-3 3-3h8.7c1.7 0 3 1.4 3 3v3.1zM62 56.7h-2.4c2.2-.8 3.7-2.8 3.7-5.3 0-3.1-2.5-5.6-5.6-5.6S52 48.4 52 51.5c0 2.4 1.6 4.5 3.7 5.3h-2.4c-2.8 0-5 2.3-5 5v4.1c0 .6.4 1 1 1H66c.6 0 1-.4 1-1v-4.1c0-2.8-2.3-5.1-5-5.1zm-8-5.2c0-2 1.6-3.6 3.6-3.6s3.6 1.6 3.6 3.6-1.6 3.6-3.6 3.6-3.6-1.6-3.6-3.6zm11 13.4H50.3v-3.1c0-1.7 1.4-3 3-3H62c1.7 0 3 1.4 3 3v3.1zM2 43.6h16c.6 0 1-.4 1-1v-3.7c0-2.8-2.3-5-5-5h-1.8c1.9-.8 3.3-2.7 3.3-5 0-3-2.4-5.4-5.4-5.4s-5.4 2.4-5.4 5.4c0 2.2 1.4 4.1 3.3 5H6c-2.8 0-5 2.3-5 5v3.7c0 .5.4 1 1 1zm4.6-14.7c0-1.9 1.5-3.4 3.4-3.4s3.4 1.5 3.4 3.4-1.5 3.4-3.4 3.4-3.4-1.5-3.4-3.4zM3 38.9c0-1.7 1.4-3 3-3h7.9c1.7 0 3 1.4 3 3v2.7H3v-2.7zm59-5.1h-1.8c1.9-.8 3.3-2.7 3.3-5 0-3-2.4-5.4-5.4-5.4s-5.4 2.4-5.4 5.4c0 2.2 1.4 4.1 3.3 5h-1.8c-2.8 0-5 2.3-5 5v3.7c0 .6.4 1 1 1h16c.6 0 1-.4 1-1v-3.7c-.2-2.7-2.5-5-5.2-5zm-7.4-4.9c0-1.9 1.5-3.4 3.4-3.4s3.4 1.5 3.4 3.4-1.5 3.4-3.4 3.4-3.4-1.5-3.4-3.4zM65 41.6H51v-2.7c0-1.7 1.4-3 3-3h8c1.7 0 3 1.4 3 3v2.7zm-26.3-6h-7.6c-2.7 0-5 2.5-5 5.7v13.3c0 .6.4 1 1 1h2.3v9c0 1.4 1.1 2.5 2.5 2.5h6c1.4 0 2.5-1.1 2.5-2.5v-9h2.3c.6 0 1-.4 1-1V41.2c-.1-3.1-2.3-5.6-5-5.6zm2.9 17.9h-1.3v-6.4c0-.6-.4-1-1-1s-1 .4-1 1v17.4c0 .3-.2.5-.5.5h-2V54.9c0-.6-.4-1-1-1s-1 .4-1 1V65h-2c-.3 0-.5-.2-.5-.5V47.1c0-.6-.4-1-1-1s-1 .4-1 1v6.4H28V41.2c0-2 1.3-3.7 3-3.7h7.6c1.6 0 3 1.6 3 3.7v12.3zM29.4 29.9c0 3.1 2.5 5.6 5.5 5.6s5.5-2.5 5.5-5.6-2.5-5.6-5.5-5.6-5.5 2.5-5.5 5.6zm8.9 0c0 2-1.6 3.6-3.5 3.6s-3.5-1.6-3.5-3.6 1.6-3.6 3.5-3.6 3.5 1.6 3.5 3.6z" class="color010101 svgShape"></path><path fill="#021b79" d="M16.7 17.9h1.8l-1.4 4.8c-.1.4 0 .8.4 1.1.3.2.8.3 1.2 0l8.8-5.9H30v2c0 .6.4 1 1 1h11.5l7.2 4.9c.3.2.8.2 1.2 0 .3-.2.5-.7.4-1.1L50 21h1.3c.6 0 1-.4 1-1V8c0-.6-.4-1-1-1h-8.8V2c0-.6-.4-1-1-1H16.7c-.6 0-1 .4-1 1v14.9c0 .6.5 1 1 1zM50.3 9v10h-1.6c-.3 0-.6.1-.8.4-.2.3-.2.6-.2.9l.7 2.4-5.1-3.5c-.2-.2-.4-.2-.6-.2H31.9v-1h9.5c.6 0 1-.4 1-1V9h7.9zM17.7 3h22.7v12.9H27.1c-.2 0-.4.1-.6.2l-6.7 4.5 1-3.4c.1-.3 0-.6-.2-.9-.2-.3-.5-.4-.8-.4h-2.2V3z" class="color010101 svgShape"></path><path fill="#021b79" d="M21.6 7.7h13.8c.6 0 1-.4 1-1s-.4-1-1-1H21.6c-.6 0-1 .4-1 1s.4 1 1 1zm0 4.9h13.8c.6 0 1-.4 1-1s-.4-1-1-1H21.6c-.6 0-1 .4-1 1s.4 1 1 1z" class="color010101 svgShape"></path></svg>