<svg xmlns="http://www.w3.org/2000/svg" enable-background="new 0 0 66 66" viewBox="0 0 66 66" id="yogateacher"><g fill="#021b79" class="color000000 svgShape"><path fill="none" stroke="#0575e6" stroke-linecap="round" stroke-linejoin="round" stroke-miterlimit="10" stroke-width="1.5" d="
		M34.26,15.35l0.03,1.98h2.83c1.9,0,3.6,1.24,4.12,3.07c0.73,2.55,2.08,6.13,5.05,9.84c0.99,1.23,0.25,3.07-1.32,3.27l-0.14,0.02
		c-0.71,0.09-1.41-0.16-1.92-0.66c-4.48-4.42-4.55-7.38-5.35-9.74" class="colorStroke000000 svgStroke"></path><path fill="none" stroke="#0575e6" stroke-linecap="round" stroke-linejoin="round" stroke-miterlimit="10" stroke-width="1.5" d="
		M43.1,25.23l-4.18,2.13c-0.73-1.64-0.95-3.01-1.36-4.23h-0.05v11.91l-5.57,1.22c-0.11,0.02-0.21,0.05-0.31,0.1l-6.03-1.32V23.13
		h-0.06c-0.38,1.15-0.8,2.6-1.55,4.22l-3.77-2.12c0.86-1.76,1.37-3.37,1.7-4.71c0.49-1.88,2.2-3.19,4.15-3.19h2.75
		c0,3.39,5.47,3.39,5.47,0h2.82c1.91,0,3.61,1.25,4.13,3.07C41.63,21.76,42.2,23.42,43.1,25.23z" class="colorStroke000000 svgStroke"></path><path fill="none" stroke="#0575e6" stroke-linecap="round" stroke-linejoin="round" stroke-miterlimit="10" stroke-width="1.5" d="M20.22 25.23L24 27.35c-.77 1.69-1.91 3.54-3.74 5.46-.45.46-1.05.74-1.69.74-.09 0-.19-.01-.28-.02-1.58-.21-2.32-2.09-1.3-3.31C18.42 28.5 19.47 26.81 20.22 25.23zM44.97 33.51l-.15.02c-.71.08-1.41-.16-1.92-.66-2.17-2.15-3.31-3.95-3.99-5.51l4.18-2.13c.77 1.58 1.81 3.28 3.2 5.01C47.28 31.47 46.53 33.31 44.97 33.51zM32.43 40.83H18.38c-2.01 0-3.63-1.63-3.63-3.64 0-2.05 1.67-3.64 3.62-3.64.26 0 .52.03.79.09l12.47 2.72" class="colorStroke000000 svgStroke"></path><path fill="none" stroke="#0575e6" stroke-linecap="round" stroke-linejoin="round" stroke-miterlimit="10" stroke-width="1.5" d="
		M32.43,40.83h12.29c2.01,0,3.64-1.63,3.64-3.64l0,0c0-2.32-2.14-4.05-4.41-3.55l-12.01,2.62c-1.06,0.23-1.82,1.17-1.82,2.26l0,0
		C30.12,39.79,31.15,40.83,32.43,40.83z" class="colorStroke000000 svgStroke"></path><path fill="none" stroke="#0575e6" stroke-linecap="round" stroke-linejoin="round" stroke-miterlimit="10" stroke-width="1.5" d="M34.19 35.77l.34 5.06h10.19c2.01 0 3.64-1.63 3.64-3.64l0 0c0-2.32-2.14-4.05-4.41-3.55L34.19 35.77zM36.76 7.89v3.02c0 2.88-2.33 5.21-5.21 5.21s-5.21-2.33-5.21-5.21v-2.8" class="colorStroke000000 svgStroke"></path><path fill="none" stroke="#0575e6" stroke-linecap="round" stroke-linejoin="round" stroke-miterlimit="10" stroke-width="1.5" d="
		M26.22,8.11V5.3c0-1.96,1.59-3.55,3.55-3.55h2.94c0.88,0,1.59,0.71,1.59,1.59l0,0h0.55c1.13,0,2.04,0.91,2.04,2.04v2.55
		c0,0-1.92-0.38-2.98-1.71C33.9,6.21,32.81,7.93,26.22,8.11z" class="colorStroke000000 svgStroke"></path><circle cx="9.65" cy="49.65" r="4.5" fill="none" stroke="#0575e6" stroke-linecap="round" stroke-linejoin="round" stroke-miterlimit="10" stroke-width="1.5" class="colorStroke000000 svgStroke"></circle><path fill="none" stroke="#0575e6" stroke-linecap="round" stroke-linejoin="round" stroke-miterlimit="10" stroke-width="1.5" d="
		M13.17,64.25c2.27,0,4.25-1.78,4.26-4.06c0-0.01,0-0.03,0-0.04c0-4.3-3.48-6.01-7.78-6.01s-7.78,1.71-7.78,6.01
		c0,0.01,0,0.03,0,0.04c0.01,2.27,1.99,4.06,4.26,4.06H13.17z" class="colorStroke000000 svgStroke"></path><circle cx="25.22" cy="49.65" r="4.5" fill="none" stroke="#0575e6" stroke-linecap="round" stroke-linejoin="round" stroke-miterlimit="10" stroke-width="1.5" class="colorStroke000000 svgStroke"></circle><path fill="none" stroke="#0575e6" stroke-linecap="round" stroke-linejoin="round" stroke-miterlimit="10" stroke-width="1.5" d="
		M28.74,64.25c2.27,0,4.25-1.78,4.26-4.06c0-0.01,0-0.03,0-0.04c0-4.3-3.48-6.01-7.78-6.01s-7.78,1.71-7.78,6.01
		c0,0.01,0,0.03,0,0.04c0.01,2.27,1.99,4.06,4.26,4.06H28.74z" class="colorStroke000000 svgStroke"></path><circle cx="40.78" cy="49.65" r="4.5" fill="none" stroke="#0575e6" stroke-linecap="round" stroke-linejoin="round" stroke-miterlimit="10" stroke-width="1.5" class="colorStroke000000 svgStroke"></circle><path fill="none" stroke="#0575e6" stroke-linecap="round" stroke-linejoin="round" stroke-miterlimit="10" stroke-width="1.5" d="
		M44.3,64.25c2.27,0,4.25-1.78,4.26-4.06c0-0.01,0-0.03,0-0.04c0-4.3-3.48-6.01-7.78-6.01S33,55.85,33,60.15c0,0.01,0,0.03,0,0.04
		c0.01,2.27,1.99,4.06,4.26,4.06H44.3z" class="colorStroke000000 svgStroke"></path><circle cx="56.35" cy="49.65" r="4.5" fill="none" stroke="#0575e6" stroke-linecap="round" stroke-linejoin="round" stroke-miterlimit="10" stroke-width="1.5" class="colorStroke000000 svgStroke"></circle><path fill="none" stroke="#0575e6" stroke-linecap="round" stroke-linejoin="round" stroke-miterlimit="10" stroke-width="1.5" d="
		M59.87,64.25c2.27,0,4.25-1.78,4.26-4.06c0-0.01,0-0.03,0-0.04c0-4.3-3.48-6.01-7.78-6.01s-7.78,1.71-7.78,6.01
		c0,0.01,0,0.03,0,0.04c0.01,2.27,1.99,4.06,4.26,4.06H59.87z" class="colorStroke000000 svgStroke"></path><line x1="28.43" x2="28.43" y1="23.57" y2="28.68" fill="none" stroke="#0575e6" stroke-linecap="round" stroke-linejoin="round" stroke-miterlimit="10" stroke-width="1.5" class="colorStroke000000 svgStroke"></line><line x1="28.43" x2="28.43" y1="31.11" y2="32.11" fill="none" stroke="#0575e6" stroke-linecap="round" stroke-linejoin="round" stroke-miterlimit="10" stroke-width="1.5" class="colorStroke000000 svgStroke"></line><line x1="28.82" x2="28.82" y1="17.33" y2="15.35" fill="none" stroke="#0575e6" stroke-linecap="round" stroke-linejoin="round" stroke-miterlimit="10" stroke-width="1.5" class="colorStroke000000 svgStroke"></line></g></svg>