<svg width="370" height="225" viewBox="0 0 370 225" fill="none" xmlns="http://www.w3.org/2000/svg">
<g clip-path="url(#clip0_12_1373)">
<path d="M142.205 225H0V0H370.001V225H242.867H142.205Z" fill="white"/>
<path d="M53.8464 32.4919C55.5218 31.3852 57.2449 30.9585 59.1801 31.4854C60.9195 31.9589 62.3414 33.1682 63.2327 34.8428C63.4872 35.3209 63.6687 35.8335 63.845 36.3497L60.0537 36.3158L59.8833 36.0322C58.3072 33.7404 56.3946 32.869 53.8464 32.4919Z" fill="#F37463"/>
<path d="M220.805 93.8478L221.868 96.5823C222.488 97.9273 224.198 98.2191 225.412 98.6299L225.387 98.7295L222.252 100.162C221.628 101.346 221.24 102.539 220.848 103.829L220.126 101.615C219.992 101.274 219.803 100.606 219.591 100.358C218.996 99.6605 217.044 99.0955 216.2 98.7284L218.424 97.8769C219.906 97.1769 220.274 95.3452 220.805 93.8478Z" fill="#FDFDFC"/>
<path d="M33.5505 65.4083C33.2487 65.3079 33.0634 65.1985 32.8421 64.9588C32.5271 64.6178 32.308 64.3071 32.2318 63.8188C32.074 62.8107 32.1712 61.6374 32.1702 60.6106L32.1673 54.8698L32.1903 38.8673C32.2263 38.0728 32.4692 37.8568 32.9701 37.3378L33.1812 37.7076L33.2171 56.5375L33.2245 62.1907C33.2269 63.0847 33.1037 64.1394 33.4021 64.9704L33.5505 65.4083Z" fill="#087BBB"/>
<path d="M294.537 73.0269C294.246 72.6532 294.008 72.2045 293.756 71.7967L293.746 66.0609C293.748 65.3424 293.638 64.558 293.99 63.9206C294.909 63.2087 296.039 63.4411 297.157 63.42L297.234 72.878C296.444 72.8953 295.47 72.7991 294.709 73.005L294.537 73.0269Z" fill="#0591C6"/>
<path d="M56.8954 90.6455C57.1812 91.3348 57.1306 92.0533 57.1979 92.7898C57.4709 95.7836 58.0456 98.5711 60.4437 100.375L59.5764 100.691C58.6364 100.971 57.8586 100.983 56.911 100.752L56.638 100.651C55.417 100.177 54.3064 99.259 53.7666 97.953C53.2228 96.637 53.1862 95.1126 53.6837 93.7784C54.3161 92.083 55.4184 91.3365 56.8954 90.6455Z" fill="#C82456"/>
<path d="M56.8953 90.6455C57.7814 90.6086 58.6776 90.5328 59.5583 90.6703C61.5847 91.7808 62.2558 92.6567 63.0836 94.9596L63.1253 95.0778L63.0084 97.4698C62.3381 98.6519 61.6729 99.8046 60.4436 100.375C58.0455 98.5711 57.4708 95.7836 57.1978 92.7898C57.1305 92.0533 57.1811 91.3348 56.8953 90.6455Z" fill="#E63E59"/>
<path d="M280.869 164.924L287.858 157.221L290.143 159.836L283.024 167.771C282.591 168.251 281.599 169.642 281.111 169.871C280.981 169.932 280.674 169.921 280.521 169.939C280.836 168.232 280.899 166.661 280.869 164.924Z" fill="#F2C24E"/>
<path d="M28.9695 183.594L34.9907 183.553L34.995 188.284C34.1015 188.287 28.2378 188.122 27.8843 188.359C26.5147 188.197 25.0816 187.391 24.2198 186.221C23.8765 185.755 23.0505 184.188 23.1178 183.601L28.9695 183.594Z" fill="#0C147F"/>
<path d="M292.921 83.9656L294.356 84.1695L294.478 99.0254C293.791 99.0388 293.069 99.0551 292.406 98.8224C291.548 98.5218 290.816 97.8209 290.426 96.9484C290.239 96.5344 290.078 96.087 290.032 95.6269C289.826 93.5736 289.981 91.3546 289.975 89.2825C289.971 88.412 289.824 87.089 290.129 86.3101C290.613 85.0673 291.817 84.3916 292.921 83.9656Z" fill="#E63E59"/>
<path d="M56.8579 65.6929L59.5284 65.672L59.5583 90.6703C58.6776 90.5328 57.7815 90.6086 56.8953 90.6455L56.8579 65.6929Z" fill="#FDFDFC"/>
<path d="M56.911 100.752C57.8586 100.983 58.6364 100.971 59.5764 100.691L59.5819 133.376L56.8246 133.392L56.911 100.752Z" fill="#FDFDFC"/>
<path d="M163.218 51.3867C164.308 51.9907 165.373 52.6929 166.482 53.2462C167.199 53.6035 168.052 53.7672 168.687 54.2743C168.209 54.779 167.488 55.4268 167.221 56.0871C166.62 57.5678 166.597 59.617 166.433 61.23L165.509 69.9611C164.412 69.7183 163.339 69.7435 162.265 70.1212L161.539 63.44C161.228 60.5036 160.86 57.403 161.259 54.4584C161.481 52.8199 162.005 52.3565 163.218 51.3867Z" fill="#5A2305"/>
<path d="M336.8 63.2697C339.213 63.2581 341.972 62.9654 344.347 63.2856C344.666 63.3286 344.838 63.4846 345.066 63.7149C345.308 63.9601 345.495 64.275 345.562 64.6279C345.713 65.3925 345.625 66.3048 345.629 67.093L345.631 72.168C345.412 72.627 345.168 72.8026 344.759 73.0584L337.886 73.0406L336.615 71.7244C336.511 71.6747 336.475 71.6662 336.379 71.5712C335.83 71.0219 336.03 68.7579 336.015 67.9126C336.015 67.1646 335.885 66.0434 336.08 65.3418C336.19 64.9511 336.42 64.9379 336.733 64.7907C336.877 64.3523 336.802 63.7358 336.8 63.2697Z" fill="#FDFDFC"/>
<path d="M336.8 63.2697C339.213 63.2581 341.972 62.9654 344.347 63.2856C344.666 63.3286 344.838 63.4846 345.066 63.7149C345.308 63.9601 345.495 64.275 345.562 64.6279C345.713 65.3925 345.625 66.3048 345.629 67.093L345.631 72.168C345.412 72.627 345.168 72.8026 344.759 73.0584L337.886 73.0406L336.615 71.7244L343.198 71.7769C343.377 71.1566 343.285 70.3605 343.285 69.7132L343.269 64.8744L336.733 64.7907C336.877 64.3523 336.802 63.7358 336.8 63.2697Z" fill="#0CD1EE"/>
<path d="M319.884 99.0006L322.057 99.0382L322.081 132.451L319.127 132.449L319.142 99.0307L319.884 99.0006Z" fill="#FDFDFC"/>
<path d="M162.265 70.1212C163.339 69.7435 164.412 69.7183 165.509 69.9611C165.349 71.6822 165.441 73.5975 165.154 75.282C165.196 77.4276 165.244 79.5695 165.592 81.6877L166.158 85.5727L165.218 85.6482C162.683 85.8122 161.006 85.1271 159.101 83.3002C158.54 82.5613 158.064 81.8391 157.712 80.9571C156.871 78.8503 156.921 76.7264 157.72 74.5971C158.588 72.2873 160.21 71.0417 162.265 70.1212Z" fill="#F7BB9A"/>
<path d="M165.592 81.6877L165.471 82.1867C165.027 82.2963 164.611 82.1917 164.181 82.052C163.141 81.7138 162.173 80.9738 161.657 79.9233C161.161 78.9117 160.912 77.5685 161.257 76.4527C161.364 76.1051 161.455 75.7441 161.629 75.4261C162.203 74.3734 163.179 73.7217 164.235 73.3969C164.66 73.2662 164.691 73.2007 165.089 73.4376L165.154 75.282C165.196 77.4276 165.244 79.5695 165.592 81.6877Z" fill="#F37463"/>
<path d="M207.184 69.3814C208.203 69.3619 209.225 69.2803 210.209 69.6181C212.582 70.8002 214.133 72.2434 215.039 74.9825C215.698 76.9741 215.529 79.3887 214.694 81.2785C213.716 83.4868 212.155 84.9577 210.022 85.7392C208.725 86.2143 207.497 86.1549 206.176 85.8445L207.149 82.208C207.747 79.4781 207.615 76.5663 207.521 73.7874L207.184 69.3814Z" fill="#F7BB9A"/>
<path d="M207.521 73.7874L207.776 73.3066C208.951 73.567 209.965 73.9968 210.654 75.1165C211.236 76.0616 211.417 77.6315 211.201 78.724C210.98 79.8473 210.404 80.7996 209.5 81.408C208.786 81.8865 207.971 82.0946 207.149 82.208C207.747 79.4781 207.615 76.5663 207.521 73.7874Z" fill="#F37463"/>
<path d="M263.985 183.363L276.551 183.382C278.281 183.339 280.387 182.968 281.869 184.134C283.276 185.243 283.548 186.615 283.801 188.394L283.707 188.43C283.205 188.57 282.461 188.47 281.934 188.47L278.108 188.471L261.078 188.47L257.138 188.469C256.715 188.469 255.939 188.584 255.55 188.468C255.447 188.438 255.369 188.344 255.28 188.282L255.262 187.742C255.264 186.584 255.719 185.503 256.482 184.703C258.397 182.694 261.517 183.351 263.985 183.363Z" fill="#1F2EA4"/>
<path d="M198.404 99.2094C203.129 99.2573 208.597 102.26 211.856 105.846C214.61 108.877 217.066 113.594 217.438 117.899L217.188 118.108L212.006 116.889L211.63 115.96C210.872 114.296 209.699 112.824 208.005 112.249C207.357 112.028 206.964 111.981 206.371 112.329C206.328 112.198 206.296 112.085 206.21 111.978C205.011 110.508 203.296 109.152 201.942 107.83C201.476 107.376 200.37 106.023 199.791 106.014L199.715 105.944C198.42 104.541 198.442 101.781 198.36 99.9378L198.404 99.2094Z" fill="#4FB8E4"/>
<path d="M299.898 84.1388L305.356 84.1337L305.366 99.0101L299.938 99.016L294.478 99.0255L294.356 84.1695L299.898 84.1388Z" fill="#C82456"/>
<path d="M299.898 84.1388L305.356 84.1337L305.366 99.0101L299.938 99.016C300.099 97.2189 299.991 95.3207 299.991 93.5132L299.898 84.1388Z" fill="#E63E59"/>
<path d="M320.664 63.2418L325.926 63.266L328.587 63.2563L332.62 63.2616L335.349 63.2675L336.8 63.2697C336.802 63.7358 336.877 64.3523 336.733 64.7907C336.42 64.9379 336.19 64.9511 336.08 65.3418C335.885 66.0433 336.015 67.1646 336.015 67.9126C336.03 68.7578 335.83 71.0219 336.379 71.5712C336.475 71.6662 336.511 71.6747 336.615 71.7244L337.886 73.0405L335.42 73.0518L332.643 73.039L325.966 73.0394L325.946 72.8366L320.693 72.8533L317.967 72.8246L317.979 63.2704L320.664 63.2418Z" fill="#4FB8E4"/>
<path d="M325.926 63.266L328.587 63.2563L328.611 72.8522L325.946 72.8366C325.627 69.7868 325.922 66.3567 325.926 63.266Z" fill="#0CD1EE"/>
<path d="M332.62 63.2616L335.349 63.2675L336.8 63.2697C336.802 63.7358 336.877 64.3523 336.733 64.7907C336.42 64.9379 336.19 64.9511 336.08 65.3418C335.885 66.0433 336.015 67.1646 336.015 67.9126C336.03 68.7578 335.83 71.0219 336.379 71.5712C336.475 71.6662 336.511 71.6747 336.615 71.7244L337.886 73.0405L335.42 73.0518L332.643 73.039C332.51 71.9138 332.602 70.678 332.604 69.5405L332.62 63.2616Z" fill="#0CD1EE"/>
<path d="M335.349 63.2675L336.8 63.2697C336.802 63.7358 336.877 64.3523 336.733 64.7907C336.42 64.9379 336.19 64.9511 336.08 65.3418C335.885 66.0434 336.015 67.1646 336.015 67.9126C336.03 68.7579 335.83 71.0219 336.379 71.5712C336.475 71.6662 336.511 71.6747 336.615 71.7244L337.886 73.0406L335.42 73.0518L335.363 70.4155L335.349 63.2675Z" fill="#4FB8E4"/>
<path d="M335.363 70.4155C335.572 69.5847 335.517 68.541 335.56 67.6759L335.692 67.7291L335.763 69.043C335.926 68.6961 335.954 68.2947 336.015 67.9125C336.03 68.7578 335.83 71.0219 336.379 71.5712C336.475 71.6661 336.511 71.6747 336.615 71.7244L337.886 73.0405L335.42 73.0517L335.363 70.4155Z" fill="#0591C6"/>
<path d="M320.664 63.2418L325.926 63.266C325.922 66.3567 325.627 69.7868 325.946 72.8366L320.693 72.8533L317.967 72.8246L317.979 63.2704L320.664 63.2418Z" fill="#4FB8E4"/>
<path d="M317.979 63.2704L320.664 63.2418L320.693 72.8533L317.967 72.8246L317.979 63.2704Z" fill="#0CD1EE"/>
<path d="M35.2257 96.341C36.3233 96.3358 37.4142 96.5298 38.422 97.0064C40.3116 97.8998 41.1215 99.4792 41.8357 101.438C42.3299 101.317 42.8437 101.187 43.3507 101.16C44.3603 101.107 45.2385 101.397 45.9749 102.161C46.623 102.834 47.0519 103.789 47.0517 104.766C47.0515 105.603 46.7964 106.544 46.2152 107.129C45.9736 107.372 45.4985 107.803 45.1928 107.93C44.4808 108.226 43.2137 108.111 42.4375 108.116L36.0426 108.12L29.704 108.142C28.695 108.143 27.4636 108.287 26.4858 108.04C25.6994 107.841 24.9769 107.222 24.5577 106.481C24.1971 105.843 24.1243 105.007 24.2837 104.287C24.4845 103.381 25.1139 102.521 25.8482 102.042C27.0721 101.246 28.1512 101.43 29.4623 101.808C29.7729 100.985 30.0825 100.04 30.5664 99.3166C31.7325 97.5724 33.3231 96.7333 35.2257 96.341Z" fill="#76ADFF"/>
<path d="M233.686 18.187C234.578 18.1106 235.593 18.0491 236.455 18.3393C238.537 19.0401 239.445 20.5092 240.405 22.4737L241.181 22.379C242.334 22.3361 243.532 22.8138 244.204 23.859C244.263 23.9526 244.528 24.4762 244.593 24.5118C244.853 24.6542 245.377 24.572 245.672 24.5778C246.402 24.5925 247.057 24.979 247.583 25.5131C248.128 26.0677 248.537 26.9444 248.545 27.764C248.553 28.5876 248.181 29.4658 247.654 30.0461C246.032 31.84 242.485 31.2102 240.344 31.2016L232.919 31.1992C231.181 31.1962 228.388 31.6123 226.928 30.4348C226.044 29.7194 225.487 28.6625 225.369 27.476C225.277 26.5437 225.587 25.4967 226.127 24.7683C227.079 23.4835 227.914 23.2398 229.37 23.0761L230.075 21.3614C230.878 19.5598 232.011 18.8203 233.686 18.187Z" fill="#76ADFF"/>
<path d="M310.685 84.1282L321.421 84.1223C321.47 86.2934 321.854 97.9407 321.311 98.891L319.884 99.0006L319.142 99.0307L310.717 99.0195L305.366 99.0101L305.356 84.1337L310.685 84.1282Z" fill="#E63E59"/>
<path d="M305.356 84.1337L310.685 84.1282L310.717 99.0195L305.366 99.0101L305.356 84.1337Z" fill="#C82456"/>
<path d="M84.0412 183.406L86.3289 183.447C86.2094 184.899 85.4403 186.398 84.3947 187.323C83.6987 187.939 82.7899 188.326 81.8948 188.407C78.9655 188.672 75.8553 188.445 72.9097 188.439L55.0724 188.425L37.0723 188.456C34.2239 188.465 31.1966 188.691 28.3643 188.471C28.1929 188.458 28.0479 188.411 27.8843 188.359C28.2378 188.122 34.1015 188.287 34.995 188.284L34.9907 183.553L79.9751 183.463L84.0412 183.406Z" fill="#1F2EA4"/>
<path d="M269.484 153.185L269.505 149.37C266.866 149.013 264.624 148.017 262.95 145.659C261.509 143.627 260.981 141.093 261.324 138.579C261.653 136.156 263.072 133.737 264.927 132.34C266.799 130.93 269.118 130.285 271.377 130.756C273.813 131.264 275.685 132.592 277.059 134.819C278.336 136.887 278.93 139.546 278.425 142.006C277.909 144.517 276.521 146.719 274.475 148.059C273.371 148.784 272.249 149.074 270.995 149.336L270.993 153.162L269.484 153.185Z" fill="#FDFDFC"/>
<path d="M270.491 141.831L272.459 144.527L272.17 144.911C271.741 145.1 271.269 145.177 270.816 145.278L270.554 145.02L270.491 141.831Z" fill="#F49E28"/>
<path d="M272.658 145.215C273.189 145.226 273.357 145.6 273.719 145.996L273.615 146.318C272.916 146.817 272.198 147.066 271.402 147.335C271.013 147.425 270.973 147.492 270.617 147.266C270.586 146.771 270.513 146.321 270.725 145.862C271.373 145.758 271.893 145.61 272.487 145.304L272.658 145.215Z" fill="#F49E28"/>
<path d="M269.387 141.7L269.623 141.67C270.123 142.475 269.905 144.033 269.917 145.02L269.641 145.306L268.759 145.104C268.429 144.905 268.149 144.827 268.006 144.434L269.387 141.7Z" fill="#F8B23B"/>
<path d="M268.234 141.114L268.83 141.048L268.929 141.309C268.625 141.997 267.986 143.95 267.382 144.301L266.931 143.944C266.4 143.442 266.016 142.808 265.61 142.191L268.234 141.114Z" fill="#F49E28"/>
<path d="M275.197 141.7C275.309 141.656 275.319 141.644 275.457 141.631C275.87 141.589 276.297 141.691 276.579 141.992C276.191 143.412 275.606 144.346 274.701 145.429L274.158 145.767L273.41 144.853C273.695 144.323 274.124 143.94 274.455 143.447C274.792 142.946 275 142.277 275.197 141.7Z" fill="#F49E28"/>
<path d="M270.47 140.874L274.821 141.559L273.839 143.515C273.563 143.814 273.341 144.204 272.943 144.209L270.47 140.874Z" fill="#F49E28"/>
<path d="M270.354 135.238C271.574 135.56 272.493 135.997 273.563 136.702L272.166 137.935L270.308 139.584L270.354 135.238Z" fill="#F49E28"/>
<path d="M275.234 136.035C275.417 136.002 275.461 135.943 275.624 136.065C276.22 136.509 276.628 138.236 276.744 138.998C276.85 139.687 276.986 140.777 276.6 141.364L276.144 141.279L275.4 141.114C275.12 139.582 275.087 138.402 274.388 136.973L274.311 136.817L275.234 136.035Z" fill="#F49E28"/>
<path d="M265.902 137.793L265.967 137.782C266.722 137.737 268.273 139.582 268.895 140.184L267.096 141.025C266.638 141.25 266.047 141.645 265.547 141.663C265.427 141.491 265.343 141.323 265.29 141.114C264.981 139.901 265.362 138.828 265.902 137.793Z" fill="#F49E28"/>
<path d="M273.565 137.403L273.918 137.41C274.589 138.471 274.78 139.552 274.774 140.821L274.52 141.031L272.306 140.528L270.596 140.111L273.565 137.403Z" fill="#F49E28"/>
<path d="M268.974 135.449L269.551 135.374L269.775 135.645C269.757 136.698 269.97 138.643 269.371 139.413C268.787 139.431 268.387 138.906 267.931 138.527L266.439 137.053C266.88 136.18 268.157 135.728 268.974 135.449Z" fill="#F49E28"/>
<path d="M270.487 132.715C270.8 132.598 271.044 132.595 271.361 132.678C272.648 133.016 274.433 133.98 275.128 135.254L274.701 135.73C274.408 135.991 274.136 136.194 273.796 136.376C272.784 135.444 271.93 135.064 270.635 134.751C270.271 134.301 270.46 133.327 270.487 132.715Z" fill="#F49E28"/>
<path d="M264.176 135.747L265.64 137.163L265.272 137.875C264.587 139.266 264.595 140.406 265.01 141.895L264.583 142.207C264.247 142.408 264.038 142.528 263.65 142.528L263.406 141.89C262.711 139.678 263.28 137.73 264.176 135.747Z" fill="#F49E28"/>
<path d="M266.36 146.231C265.258 145.662 264.388 144.273 263.733 143.197L265.132 142.453C265.738 143.375 266.419 144.155 267.183 144.922L266.758 146.188C267.189 145.898 267.445 145.616 267.744 145.174L267.842 145.218C268.49 145.506 269.285 145.601 269.873 145.996L269.877 147.364C269.314 147.67 268.494 147.384 267.923 147.18C267.397 146.992 266.754 146.657 266.36 146.231Z" fill="#F49E28"/>
<path d="M268.826 132.65C269.269 132.591 269.464 132.509 269.875 132.715C269.893 133.362 269.956 134.039 269.795 134.668C268.155 134.979 267.181 135.572 265.951 136.777L264.412 135.365C265.677 133.88 266.996 133.06 268.826 132.65Z" fill="#F49E28"/>
<path d="M269.196 153.116L269.484 153.185L270.993 153.162L280.885 153.128L280.869 164.924C280.9 166.661 280.837 168.232 280.521 169.939C279.468 173.365 277.724 176.488 274.66 178.211L273.526 178.7C272.351 179.294 270.503 179.303 269.224 179.399L269.196 153.116Z" fill="#FAD472"/>
<path d="M263.985 183.363C264.886 181.777 265.886 180.34 267.022 178.945C265.378 178.299 263.985 177.563 262.723 176.206C261.117 174.477 259.99 172.294 259.435 169.916C258.909 167.654 259.059 165.304 259.059 162.99L259.067 153.198L269.196 153.116L269.224 179.399C270.503 179.303 272.351 179.294 273.526 178.7L276.551 183.382L263.985 183.363Z" fill="#F8B23B"/>
<path d="M344.607 84.0001C345.117 84.5428 345.426 84.8456 345.432 85.6674L345.422 94.3422C345.416 95.5533 345.611 97.2988 345.206 98.4254C344.836 98.7969 344.684 99.0277 344.162 99.1241C342.385 99.4524 340.073 99.0839 338.235 99.0751L322.057 99.0382L319.884 99.0006L321.311 98.891C321.854 97.9407 321.47 86.2934 321.421 84.1223L344.607 84.0001Z" fill="#F37463"/>
<path d="M334.194 86.6212C334.832 86.3402 341.279 86.2828 342.096 86.5188C342.472 86.6278 342.527 86.8737 342.71 87.2072L342.728 93.3636C342.72 93.8762 342.824 94.8434 342.692 95.3127C342.651 95.4538 342.364 95.7573 342.269 95.8889L342.151 95.9234C341.132 96.1567 334.82 96.28 334.228 95.881C333.987 95.7179 333.893 95.5182 333.846 95.215C333.728 94.4523 333.824 93.4824 333.822 92.7013C333.82 91.2825 333.464 87.7069 334.194 86.6212Z" fill="#FDFDFC"/>
<path d="M235.343 118.905C236.876 119.4 238.77 119.173 240.366 119.154C243.125 119.57 246.095 122.185 247.724 124.526C250.236 128.143 251.678 132.971 251.047 137.509C250.291 142.947 247.496 146.8 243.505 149.976C243.267 150.166 243.131 150.236 242.836 150.271L242.076 144.141C240.7 137.7 237.274 131.517 232.72 127.122C230.797 125.266 228.721 123.81 226.542 122.344C226.977 121.731 227.648 121.419 228.272 121.075C230.582 119.8 232.797 119.359 235.343 118.905Z" fill="#4FB8E4"/>
<path d="M129.887 14.3207C131.029 14.355 132.072 14.4284 133.155 14.8503C135.554 15.7848 136.739 17.7749 137.784 20.1278L138.25 20.1125C139.848 20.0846 141.311 20.6486 142.458 21.868C143.494 22.9689 144.037 24.3359 144.04 25.8992C144.042 27.2681 143.651 28.2771 142.745 29.2487C142.246 29.7846 141.667 30.2177 140.978 30.4093C139.555 30.8048 137.636 30.602 136.165 30.6058L126.558 30.613L119.04 30.6038C117.137 30.5981 114.89 31.0378 113.448 29.4269C112.71 28.6025 112.164 27.4788 112.19 26.3077C112.217 25.1038 112.689 24.0731 113.492 23.2557C114.849 21.874 116.321 21.8614 118.064 21.9095L118.266 21.5993C119.074 20.4055 120.465 19.5167 121.859 19.6533C122.275 19.6941 122.859 19.8951 123.259 19.8007C123.36 19.7768 124.288 17.7928 124.481 17.5154C125.891 15.4933 127.627 14.6348 129.887 14.3207Z" fill="#76ADFF"/>
<path d="M306.326 19.7772C309.89 19.2064 313.61 21.4182 315.497 24.6224C315.928 25.3548 316.249 26.1519 316.564 26.9484C316.582 26.9935 316.574 27.0662 316.617 27.0838C316.733 27.1324 317.808 26.8047 318.056 26.7839C318.668 26.7325 319.388 26.8641 319.961 27.0939C320.969 27.498 321.925 28.3272 322.516 29.2969C322.63 29.4841 323.075 30.555 323.177 30.6157C323.311 30.6968 324.07 30.6572 324.236 30.6574C325.338 30.6581 326.582 30.5148 327.607 31.0244L328.353 31.412C329.766 32.2926 330.705 33.7233 331.102 35.4187C331.571 37.4255 330.803 39.129 329.88 40.7921L314.626 40.7398L301.01 40.7688C298.91 40.7789 296.498 41.0402 294.429 40.7071C292.841 40.4515 291.347 39.3632 290.406 37.9759C289.45 36.5659 289.015 34.7459 289.29 33.0166C289.56 31.3087 290.54 29.7535 291.847 28.7691C293.841 27.2688 295.685 27.4846 297.938 27.9308C298.32 26.5371 298.753 25.2893 299.526 24.0808C301.154 21.5385 303.575 20.3102 306.326 19.7772Z" fill="#76ADFF"/>
<path d="M63.1253 95.0779L96.6522 95.093L96.6466 61.0852L96.6531 51.5425C96.6545 50.2434 96.4935 48.6478 96.6791 47.3775C96.7925 46.6023 97.279 45.7241 97.7872 45.1684C98.2546 44.6575 98.9904 44.1656 99.6434 44.0039C100.916 43.6888 102.614 43.9294 103.934 43.9283L114.331 43.9186L115.292 50.3865L108.685 50.4164C107.482 50.4245 106.102 50.317 104.926 50.5554L100.459 50.5814L100.479 109.515L124.509 109.413C125.002 110.237 125.026 111.58 125.206 112.557L126.471 118.938L109.512 118.939C106.776 118.937 103.823 119.17 101.116 118.866C100.415 118.787 99.7867 118.558 99.166 118.198C97.7356 117.367 97.0166 116.114 96.5538 114.482C96.8393 113.464 96.6244 111.407 96.6295 110.272L96.6699 97.3428L63.0084 97.4698L63.1253 95.0779Z" fill="#0C147F"/>
<path d="M118.877 111.817C119.337 111.724 119.851 111.835 120.266 112.059C120.843 112.37 121.285 112.928 121.486 113.589C121.672 114.202 121.58 114.874 121.305 115.44C120.944 116.181 120.378 116.405 119.69 116.64C119.185 116.722 118.762 116.699 118.291 116.477C117.817 116.253 117.265 115.684 117.102 115.147C116.921 114.553 116.98 113.584 117.255 113.043C117.613 112.338 118.193 112.029 118.877 111.817Z" fill="#FDFDFC"/>
<path d="M304.567 63.3895L317.979 63.2704L317.967 72.8246L320.693 72.8533L325.946 72.8366L325.966 73.0394L332.643 73.039L335.42 73.0518L337.886 73.0405L344.759 73.0583C343.972 74.2381 343.173 74.9579 341.811 75.204C341.12 75.3288 340.4 75.4068 339.699 75.3899C340.622 76.227 341.344 76.9484 341.433 78.3204C341.492 79.212 341.218 80.3632 340.648 81.0287C340.311 81.424 339.831 81.7253 339.412 82.0124C340.592 82.0212 341.99 81.8734 343.058 82.4785L343.173 82.5433C343.82 82.9087 344.19 83.3671 344.607 84.0001L321.421 84.1223L310.685 84.1282L305.356 84.1337L299.898 84.1387L294.356 84.1695L292.92 83.9656C292.258 83.5652 291.534 83.1612 290.965 82.6171C289.873 81.5714 289.326 80.1415 289.263 78.5761C289.206 77.1563 289.904 75.6265 290.79 74.6136C291.835 73.4189 293.077 73.0955 294.537 73.0269L294.709 73.0049C295.47 72.7991 296.444 72.8953 297.234 72.8779L297.157 63.42L301.575 63.3789L304.567 63.3895Z" fill="#0C147F"/>
<path d="M301.575 63.3789L304.567 63.3895L304.638 72.8281L317.967 72.8246L320.693 72.8533L325.946 72.8366L325.966 73.0395L294.709 73.005C295.47 72.7991 296.444 72.8953 297.234 72.878L297.157 63.42L301.575 63.3789Z" fill="#087BBB"/>
<path d="M301.575 63.3789L304.567 63.3895L304.639 72.8281L301.679 72.8505L301.717 66.4C301.721 65.5138 301.876 64.1913 301.575 63.3789Z" fill="#4FB8E4"/>
<path d="M304.567 63.3895L317.979 63.2704L317.967 72.8246L304.639 72.8281L304.567 63.3895Z" fill="#0591C6"/>
<path d="M339.412 82.0124L307.292 82.0219L297.405 82.0417C296.311 82.0406 294.26 82.3145 293.307 81.7477L293.213 81.6899C292.707 81.3822 292.268 81.0193 291.951 80.4849C291.499 79.7295 291.249 78.7209 291.457 77.8321C291.656 76.9923 292.494 75.8394 293.195 75.4197C293.575 75.1919 293.925 75.086 294.356 75.077L304.923 75.1758L323.393 75.2L334.247 75.207C335.979 75.2092 338.032 74.9482 339.699 75.3899C340.622 76.227 341.344 76.9484 341.433 78.3204C341.492 79.212 341.218 80.3632 340.649 81.0287C340.311 81.424 339.831 81.7252 339.412 82.0124Z" fill="#FDFDFC"/>
<path d="M310.227 78.0275L310.449 77.9598C311.284 77.795 312.376 77.9301 313.234 77.9297L319.426 77.9418C320.085 77.9446 321.341 77.7631 321.943 77.9541C322.073 77.9949 322.325 78.2538 322.445 78.3489C322.472 78.9585 322.443 78.9367 322.061 79.3946L321.742 79.4596C320.831 79.5662 319.821 79.4676 318.896 79.468L312.896 79.461C312.317 79.4592 310.88 79.648 310.382 79.4513C310.268 79.4065 310.032 79.1195 309.93 79.0211C309.871 78.4619 309.904 78.4772 310.227 78.0275Z" fill="#0C147F"/>
<path d="M163.218 51.3867C161.399 49.9 159.756 48.3085 158.769 46.0317C157.271 42.5785 157.749 38.7915 158.926 35.3288C160.193 36.844 161.67 38.4792 163.682 38.6089L166.046 38.5107C164.653 36.6173 164.045 35.391 163.471 33.054C166.19 35.2719 168.039 36.307 171.429 37.0049C169.554 34.2447 168.856 31.4985 168.959 28.0717C171.726 32.1493 173.712 34.6261 178.337 36.2389C177.134 33.9924 176.156 32.2392 176.137 29.5654C176.134 29.2118 176.07 28.6555 176.15 28.3204L176.227 28.1576C183.135 34.4769 191.994 37.4525 200.907 38.3927L205.356 38.7396C206.111 38.762 207.245 38.6021 207.944 38.8378C209.156 39.2463 209.819 41.1362 209.906 42.3746C210.026 44.0544 209.849 45.5694 209.414 47.1859C209.347 47.4406 208.678 49.1476 208.699 49.2257C208.784 49.5818 210.715 51.2583 211.069 51.7193C211.535 52.3273 211.72 52.9878 212.014 53.6887C212.338 54.4556 210.52 67.8319 210.209 69.6181C209.225 69.2804 208.203 69.3619 207.184 69.3814L206.487 61.5236C206.245 58.9881 206.324 55.9392 204.942 53.7896C201.98 49.1826 193.977 52.7942 190.079 53.8959C187.408 54.6509 184.567 55.3668 181.813 55.6274C178.621 55.9293 175.421 55.7454 172.266 55.1519C171.057 54.9247 169.898 54.4947 168.688 54.2743C168.052 53.7672 167.199 53.6035 166.482 53.2462C165.373 52.6929 164.308 51.9907 163.218 51.3867Z" fill="#74300D"/>
<path d="M63.0085 97.4698L96.67 97.3428L96.6295 110.272C96.6244 111.407 96.8393 113.464 96.5539 114.482C94.3479 115.334 92.1318 116.177 90.0797 117.416C84.5449 120.755 80.3084 126.253 77.5969 132.384L77.3527 133.008C77.6213 133.174 77.8837 133.285 78.1752 133.395L59.5819 133.376L59.5764 100.691L60.4437 100.375C61.673 99.8046 62.3382 98.6519 63.0085 97.4698Z" fill="#3F9AE1"/>
<path d="M53.8465 32.4919C56.3946 32.869 58.3072 33.7404 59.8834 36.0322L60.0538 36.3158L63.8451 36.3497L74.7932 36.369C76.4078 36.373 78.2978 36.1761 79.8834 36.4721C80.32 36.5536 80.7244 36.7595 81.0304 37.1132C81.2702 37.3907 81.4516 37.7698 81.491 38.1499C81.8775 41.8725 81.5856 45.9766 81.5841 49.7275C81.5825 54.2787 81.8385 59.0962 81.4853 63.627C81.4424 64.1792 81.1975 64.7261 80.8094 65.0902C80.5126 65.3688 80.1182 65.6052 79.7223 65.6524C77.7359 65.8893 75.5198 65.6577 73.5094 65.6588L59.5284 65.672L56.8579 65.6929L41.2039 65.6815L36.4912 65.6571C35.5093 65.65 34.493 65.7425 33.5505 65.4083L33.4021 64.9704C33.1037 64.1394 33.2269 63.0847 33.2245 62.1907L33.2171 56.5375L33.1812 37.7076C33.2377 37.3859 33.2259 37.171 33.4467 36.933C33.7085 36.6507 33.9919 36.4677 34.3607 36.405C35.9627 36.133 37.8584 36.3424 39.4976 36.3418L51.0522 36.3455C51.6033 34.7191 52.5499 33.4829 53.8465 32.4919Z" fill="#F89545"/>
<path d="M53.8464 32.4919C56.3946 32.869 58.3072 33.7404 59.8833 36.0322L60.0537 36.3158L51.0521 36.3455C51.6033 34.7191 52.5498 33.4829 53.8464 32.4919Z" fill="#E63E59"/>
<path d="M61.9565 46.5248L67.9955 46.5195L68.0138 55.6654L61.8964 55.6725L61.9565 46.5248Z" fill="#FDFDFC"/>
<path d="M46.4062 46.5193L52.5846 46.5872L52.5714 55.6566L46.4182 55.6637L46.4062 46.5193Z" fill="#FDFDFC"/>
<path d="M54.203 46.538L60.3747 46.5399L60.3665 55.6336L54.1804 55.6494L54.203 46.538Z" fill="#FDFDFC"/>
<path d="M69.5691 46.5529L75.8427 46.5279L75.85 55.6894L69.5437 55.6782L69.5691 46.5529Z" fill="#DCCED0"/>
<path d="M38.135 46.4947L44.7595 46.4927L44.7548 55.6892L38.1133 55.6966L38.135 46.4947Z" fill="#3F9AE1"/>
<path d="M168.688 54.2743C169.898 54.4947 171.057 54.9247 172.266 55.1519C175.421 55.7454 178.621 55.9293 181.813 55.6274C184.567 55.3668 187.408 54.6509 190.079 53.896C193.977 52.7942 201.98 49.1826 204.942 53.7896C206.324 55.9392 206.245 58.9881 206.487 61.5236L207.184 69.3814L207.522 73.7874C207.615 76.5663 207.747 79.4781 207.15 82.208L206.176 85.8445C204.684 90.9841 202.544 94.8397 198.356 97.8871C193.165 101.33 187.086 102.4 181.13 100.881C179.25 100.401 176.246 99.3696 174.719 98.0116L173.43 97.1092C170.128 94.5547 166.88 89.9866 166.158 85.5727L165.592 81.6877C165.244 79.5695 165.196 77.4276 165.154 75.282C165.441 73.5976 165.349 71.6822 165.509 69.9611L166.433 61.23C166.597 59.617 166.62 57.5678 167.221 56.0871C167.488 55.4268 168.209 54.779 168.688 54.2743Z" fill="#F7BB9A"/>
<path d="M196.934 76.4786C196.663 76.3088 196.419 76.1007 196.19 75.8711C195.655 75.3367 195.324 74.7199 195.32 73.9144C195.316 73.2214 195.602 72.5787 196.047 72.0911C196.478 71.618 197.101 71.297 197.727 71.3253C198.364 71.3544 198.969 71.716 199.388 72.2225C199.816 72.7417 200.031 73.3163 199.986 74.0166C199.917 75.0871 199.34 75.5999 198.627 76.2683L196.934 76.4786Z" fill="#2C1544"/>
<path d="M172.04 65.9181C173.145 65.9045 178.569 65.5883 179.219 66.0025C179.393 66.1132 179.583 66.3545 179.737 66.5041L179.774 67.2852C179.529 67.7801 179.404 67.8317 178.948 68.1182C176.713 68.29 173.931 68.3799 171.722 68.0883C171.297 67.6225 171.247 67.5318 171.114 66.8946C171.424 66.2538 171.433 66.2092 172.04 65.9181Z" fill="#0C147F"/>
<path d="M175.486 71.3869C175.959 71.3858 176.431 71.4486 176.857 71.684C177.41 71.9894 177.936 72.6567 178.101 73.3069C178.252 73.9043 178.193 74.6485 177.908 75.1899C177.513 75.9423 176.889 76.2314 176.156 76.465C175.761 76.5511 175.247 76.4797 174.871 76.3099C174.261 76.0335 173.715 75.4031 173.503 74.7228C173.301 74.0785 173.384 73.3851 173.687 72.7953C174.096 71.9986 174.696 71.6121 175.486 71.3869Z" fill="#2C1544"/>
<path d="M193.56 65.9181C195.242 65.6292 197.304 65.8315 199.024 65.8227C199.661 65.8197 200.728 65.6784 201.315 65.8695C201.813 66.0315 201.918 66.4408 202.122 66.8946C201.936 67.5729 201.882 67.5995 201.35 68.0224C200.681 68.3008 199.795 68.1802 199.075 68.1852C197.212 68.1986 195.246 68.3338 193.401 68.1037C192.987 67.6471 192.866 67.5511 192.765 66.8946C192.974 66.269 193.027 66.2659 193.56 65.9181Z" fill="#0C147F"/>
<path d="M186.799 71.9729L187.35 71.8479L187.8 72.2526C188.226 73.3506 186.305 80.0004 185.92 81.4405C186.904 81.4326 188.057 81.2959 189.007 81.58C189.441 82.0012 189.473 81.9973 189.541 82.6173L189.065 83.1451C187.882 83.2897 186.244 83.3253 185.091 82.9988C184.933 82.823 184.534 82.469 184.497 82.2462C184.296 81.0206 186.134 72.9839 186.799 71.9729Z" fill="#F37463"/>
<path d="M181.457 86.2305C182.22 86.4089 182.926 87.5827 183.512 88.1626C184.515 89.1549 186.059 89.6822 187.402 89.6091C189.803 89.4781 191.079 88.1531 192.588 86.3098C193.155 86.3114 193.182 86.3553 193.633 86.7372C193.702 87.2382 193.646 87.3327 193.454 87.8031L192.656 88.813C191.041 90.5108 189.332 91.2803 187.086 91.2181C184.796 91.1546 183.022 90.0821 181.479 88.3107C180.966 87.7209 180.838 87.4258 180.858 86.6212L181.457 86.2305Z" fill="#F37463"/>
<path d="M59.5818 133.376L78.1752 133.395C79.3878 133.84 79.9445 134.485 80.5627 135.676L80.6503 148.86L80.6525 169.629L80.7015 176.858C80.7119 178.029 80.6261 179.358 80.7739 180.507C80.5511 181.555 80.2488 182.389 79.7908 183.336L79.975 183.463L34.9906 183.553L28.9694 183.594C28.6581 182.968 28.4249 182.334 28.4089 181.615L28.3778 152.075L28.3792 141.725C28.3802 140.031 28.243 138.197 28.4164 136.526C28.5001 135.718 28.8996 134.883 29.4355 134.31C29.7004 134.027 30.452 133.469 30.8074 133.392C31.402 133.263 32.2742 133.382 32.8912 133.379L37.7343 133.365L56.8245 133.392L59.5818 133.376Z" fill="#3846D6"/>
<path d="M47.5631 179.1L32.7621 179.102L32.7548 138.142L46.3362 138.093L46.3423 142.383L45.0016 142.382C43.672 142.403 42.6551 142.402 41.6494 143.492C41.2123 143.966 40.773 144.544 40.6486 145.215C40.4652 146.205 40.5528 147.341 40.5534 148.351L40.5642 153.969L40.565 170.313C40.5833 171.399 40.9442 172.24 41.6838 172.976C42.4331 173.722 43.5106 174.214 44.5301 174.258L47.1067 174.345L47.5631 179.1Z" fill="#6882FB"/>
<path d="M46.3362 138.093L76.3565 138.098L76.3959 179.107L67.4549 179.11L47.5631 179.1L47.1067 174.345L44.5302 174.258L59.4967 174.255C61.1401 174.255 63.2841 174.545 64.8558 174.143C65.5911 173.955 66.2319 173.338 66.7916 172.818C67.5956 171.37 67.6198 170.542 67.5779 168.903C67.8355 166.848 67.583 164.327 67.5824 162.228V150.616C67.5869 149.09 67.8914 146.648 67.4629 145.213L67.3986 145.02C67.2022 144.416 66.9847 143.989 66.5612 143.529C66.0607 142.985 65.3478 142.478 64.6332 142.357C63.0979 142.096 61.1651 142.369 59.5817 142.371L46.3423 142.383L46.3362 138.093Z" fill="#3F9AE1"/>
<path d="M46.3423 142.383L59.5816 142.371C61.1651 142.369 63.0978 142.096 64.6331 142.357C65.3477 142.478 66.0607 142.985 66.5612 143.529C66.9847 143.989 67.2022 144.416 67.3986 145.02L67.4628 145.213C67.8914 146.648 67.5869 149.09 67.5824 150.616V162.228C67.583 164.327 67.8355 166.848 67.5779 168.903C67.6198 170.542 67.5956 171.37 66.7916 172.818C66.2319 173.338 65.5911 173.955 64.8558 174.143C63.2841 174.545 61.1401 174.255 59.4966 174.255L44.5301 174.258C43.5106 174.214 42.4331 173.722 41.6838 172.976C40.9442 172.24 40.5833 171.399 40.565 170.313L40.5642 153.969L40.5534 148.351C40.5528 147.341 40.4652 146.205 40.6486 145.215C40.773 144.544 41.2123 143.966 41.6494 143.492C42.6551 142.402 43.672 142.403 45.0016 142.382L46.3423 142.383Z" fill="#FAD472"/>
<path d="M47.023 165.252C49.8202 165.261 52.9888 164.956 55.7349 165.425C56.0968 165.876 56.2033 165.979 56.2984 166.557C56.075 167.046 55.8947 167.273 55.4639 167.558L47.3471 167.607L46.9734 167.62C46.1954 167.641 45.6652 167.51 44.9419 167.203C44.8977 166.526 45.0055 166.056 45.1921 165.419L45.2679 165.233L47.023 165.252Z" fill="#F49E28"/>
<path d="M45.1921 165.419L46.753 165.504C47.0476 166.058 46.9624 166.978 46.9734 167.62C46.1954 167.641 45.6652 167.51 44.9419 167.203C44.8977 166.526 45.0055 166.056 45.1921 165.419Z" fill="#F89545"/>
<path d="M44.5301 174.258C43.5106 174.214 42.4331 173.722 41.6838 172.976C40.9442 172.24 40.5833 171.399 40.565 170.313L40.5642 153.969L40.5534 148.351C40.5528 147.341 40.4652 146.205 40.6486 145.215C40.773 144.544 41.2123 143.966 41.6494 143.492C42.6551 142.402 43.672 142.403 45.0016 142.382L45.1445 151.289C45.5816 152.704 45.6806 154.128 45.8916 155.591L52.1257 155.701C53.289 155.723 54.5403 155.655 55.6893 155.829L61.6231 155.812C62.4666 155.811 63.6303 155.662 64.4197 155.957C64.7454 156.515 64.76 156.581 64.7315 157.24C64.4662 157.673 64.3833 157.902 63.8649 157.974L54.4128 158.028L54.3028 158.052C52.6766 158.39 51.0338 158.305 49.3859 158.302C48.5414 158.301 47.5924 158.173 46.7928 158.494L46.621 158.559L46.5196 158.604L46.557 160.1C46.9551 160.362 47.5529 160.265 48.0118 160.266L51.3861 160.276L60.2094 160.555C61.282 160.568 62.9848 160.345 63.9812 160.712C64.4784 160.874 64.5319 160.886 64.8446 161.328C64.8003 162.124 64.7275 162.153 64.2261 162.679C62.382 163.095 60.2076 162.84 58.3175 162.839L46.8764 162.86L47.023 165.252L45.2679 165.233L45.1921 165.42C45.0054 166.056 44.8977 166.526 44.9418 167.203C45.6651 167.51 46.1953 167.641 46.9733 167.62L47.347 167.607C46.9223 168.672 47.3824 171.178 47.5322 172.357C48.7579 172.097 50.3054 172.287 51.5628 172.289L60.8492 172.308C61.8813 172.313 63.2867 172.498 64.2678 172.239C65.9239 171.801 66.7905 170.427 67.5779 168.903C67.6198 170.542 67.5956 171.37 66.7916 172.817C66.2319 173.338 65.5911 173.955 64.8558 174.143C63.2841 174.545 61.1401 174.255 59.4966 174.255L44.5301 174.258Z" fill="#F8B23B"/>
<path d="M45.361 160.801L46.432 160.655L46.4879 162.5C46.1716 162.713 45.8959 162.726 45.5302 162.759C45.1703 162.581 45.1291 162.506 44.9085 162.17C44.8752 161.395 44.9256 161.363 45.361 160.801Z" fill="#F89545"/>
<path d="M44.9419 167.203C45.6652 167.51 46.1954 167.641 46.9735 167.62L47.3471 167.607C46.9224 168.672 47.3825 171.178 47.5323 172.357L47.2916 172.313L47.1613 172.281C46.5427 172.135 46.1552 171.93 45.7171 171.42C44.7299 170.268 44.8728 168.654 44.9419 167.203Z" fill="#F2C24E"/>
<path d="M46.432 160.655L58.6505 160.757C60.3473 160.761 62.317 160.965 63.9812 160.712C64.4784 160.874 64.5319 160.886 64.8446 161.328C64.8003 162.124 64.7275 162.153 64.2262 162.679C62.3821 163.095 60.2076 162.84 58.3175 162.839L46.8764 162.86L45.5476 162.845L45.5302 162.759C45.8959 162.726 46.1716 162.713 46.4879 162.5L46.432 160.655Z" fill="#F49E28"/>
<path d="M55.6893 155.829L61.6232 155.812C62.4666 155.811 63.6303 155.662 64.4197 155.957C64.7454 156.515 64.76 156.581 64.7316 157.24C64.4663 157.673 64.3833 157.902 63.8649 157.974L54.4128 158.028L46.3407 158.012L45.1835 158.056C45.0898 157.828 44.978 157.574 44.9471 157.325C44.8699 156.7 45.0225 156.387 45.3496 155.894L46.0972 155.835C49.2151 155.862 52.5976 156.166 55.6893 155.829Z" fill="#F49E28"/>
<path d="M114.331 43.9186L131.885 43.9188C134.188 43.9227 136.954 43.6136 139.212 44.0084C140.041 44.1532 140.772 44.6112 141.361 45.2459C141.966 45.8974 142.425 46.8765 142.52 47.8029C142.731 49.8697 142.549 52.2049 142.551 54.3016L142.559 68.1182L142.565 113.727C142.054 115.691 141.342 117.107 139.634 118.134C137.702 119.295 135.263 118.943 133.122 118.945L126.471 118.938L125.206 112.557C125.026 111.58 125.002 110.237 124.509 109.413L100.479 109.515L100.459 50.5814L104.926 50.5554C106.102 50.317 107.482 50.4245 108.685 50.4163L115.292 50.3865L114.331 43.9186Z" fill="#3F9AE1"/>
<path d="M116.753 72.0131C118.737 71.99 131.117 71.6158 131.893 72.3634C132.396 72.8487 132.372 73.1645 132.433 73.8283C132.218 74.2396 132.099 74.5365 131.643 74.6922C130.736 75.0021 129.179 74.7676 128.196 74.7685L119.069 74.7733L110.906 74.7724C110.096 74.7707 108.589 74.9706 107.857 74.6454C107.356 74.4233 107.244 74.1016 107.029 73.6143C107.103 73.1256 107.082 72.8446 107.428 72.491C108.03 71.8764 109.279 72.0588 110.067 72.0498L116.753 72.0131Z" fill="#FDFDFC"/>
<path d="M110.105 81.5985L124.626 81.6033C126.714 81.5998 129.081 81.3612 131.14 81.633C131.678 81.7037 131.848 81.8415 132.286 82.1981C132.481 82.8074 132.449 82.9904 132.337 83.5995C132.185 83.761 131.968 84.0601 131.795 84.1776C131.121 84.6344 122.191 84.3591 120.694 84.3576L108.218 84.3661C107.673 84.3035 107.497 83.9847 107.191 83.5523C107.122 82.9225 107.093 82.7287 107.342 82.1291C108.208 81.4574 109.059 81.6281 110.105 81.5985Z" fill="#FDFDFC"/>
<path d="M114.331 43.9186L131.885 43.9188C134.188 43.9227 136.954 43.6136 139.213 44.0084C140.041 44.1532 140.772 44.6112 141.361 45.2459C141.966 45.8974 142.425 46.8765 142.52 47.8029C142.731 49.8697 142.549 52.2049 142.551 54.3016L142.559 68.1182L142.565 113.727C142.054 115.691 141.342 117.107 139.634 118.134C137.702 119.295 135.263 118.943 133.122 118.945L126.471 118.938L125.206 112.557C125.026 111.58 125.002 110.237 124.509 109.413L124.712 109.393C126.149 109.611 127.752 109.461 129.216 109.466L138.315 109.493L138.29 50.5084L115.286 50.5592L104.926 50.5554C106.102 50.317 107.483 50.4245 108.685 50.4163L115.292 50.3865L114.331 43.9186Z" fill="#1F2EA4"/>
<path d="M104.926 50.5555L115.286 50.5592L118.712 71.8006L116.81 71.8808L116.753 72.0131L110.067 72.0498C109.279 72.0588 108.03 71.8764 107.428 72.491C107.082 72.8446 107.103 73.1256 107.029 73.6143C107.244 74.1016 107.356 74.4233 107.857 74.6454C108.589 74.9706 110.096 74.7707 110.906 74.7724L119.069 74.7733L120.338 81.4387L113.419 81.4295C112.413 81.4295 111.051 81.2623 110.105 81.5985C109.059 81.6281 108.208 81.4574 107.342 82.1291C107.093 82.7288 107.122 82.9226 107.191 83.5523C107.497 83.9847 107.673 84.3035 108.218 84.3662L120.694 84.3576C120.801 86.6856 121.409 88.9365 121.734 91.232L128.573 91.2194C129.552 91.221 130.958 91.0263 131.855 91.4576C132.277 91.9388 132.525 92.1357 132.493 92.8714C132.472 93.3585 132.115 93.6751 131.795 93.9612C130.802 94.2668 129.543 94.1198 128.509 94.1198L122.303 94.1053C122.457 96.842 122.971 99.5792 123.431 102.273L124.712 109.393L124.509 109.414L100.479 109.515L100.459 50.5814L104.926 50.5555Z" fill="#6882FB"/>
<path d="M121.734 91.232L128.573 91.2194C129.552 91.221 130.958 91.0263 131.855 91.4576C132.277 91.9388 132.525 92.1357 132.493 92.8713C132.472 93.3585 132.115 93.6751 131.795 93.9612C130.802 94.2668 129.543 94.1198 128.509 94.1198L122.303 94.1053L111.607 94.1022C110.53 94.1007 108.854 94.3514 107.857 93.9869C107.358 93.8047 107.276 93.44 107.068 92.9689C107.129 92.3134 107.19 92.1998 107.552 91.6655C108.905 90.8294 119.525 91.2348 121.734 91.232Z" fill="#FDFDFC"/>
<path d="M322.081 132.451L333.204 132.425C334.733 132.425 336.835 132.152 338.296 132.492C339.254 132.715 340.037 133.283 340.547 134.193C340.856 134.747 341.041 135.387 341.057 136.035L341.025 148.25L340.98 178.38L341.051 191.481C341.059 193.059 341.338 195.271 340.98 196.748C340.718 197.839 339.949 198.905 339.02 199.415C338.646 199.62 338.231 199.779 337.813 199.821C334.838 200.123 331.626 199.909 328.632 199.929L308.402 199.912L303.896 199.863C303.093 199.853 302.146 199.917 301.382 199.617C300.357 199.215 299.572 198.34 299.129 197.277C298.871 196.654 298.7 195.997 298.676 195.313V182.424L298.686 157.347V142.961L298.668 138.079C298.668 137.117 298.57 136.013 298.901 135.103C299.306 133.989 300.001 133.277 301.002 132.796L301.119 132.74C302.63 132.013 305.696 132.426 307.383 132.425L319.128 132.449L322.081 132.451Z" fill="url(#paint0_linear_12_1373)"/>
<path d="M319.073 192.09C319.516 191.906 320.136 191.86 320.595 192.019C321.195 192.226 321.65 192.786 321.911 193.388C322.165 193.973 322.207 194.585 321.992 195.191C321.713 195.972 321.274 196.375 320.589 196.717C320.313 196.811 320.048 196.883 319.758 196.845C319.071 196.756 318.497 196.327 318.111 195.714C317.778 195.182 317.607 194.535 317.741 193.899C317.918 193.049 318.42 192.541 319.073 192.09Z" fill="#FDFDFC"/>
<path d="M314.23 140.076L337.337 140.074L337.396 190.063L329.044 190.061L302.986 190.054L302.976 140.105L314.23 140.076Z" fill="#6882FB"/>
<path d="M324.377 173.316L330.045 173.324L330.034 176.034L324.759 176.099L310.723 176.077L310.721 173.346L324.377 173.316Z" fill="#FDFDFC"/>
<path d="M314.23 140.076L337.337 140.074L337.396 190.063L329.044 190.061L324.759 176.099L330.034 176.034L330.045 173.324L324.377 173.316C323.446 171.502 322.88 168.931 322.289 166.949L314.263 167.007C313.317 167.012 311.734 167.236 310.894 166.819C310.565 166.213 310.733 164.783 310.733 164.06L321.467 164.078L319.414 157.471L310.701 157.511C310.689 156.703 310.522 155.46 310.833 154.732L311.913 154.656C313.897 154.124 316.672 154.492 318.737 154.497L314.23 140.076Z" fill="#3F9AE1"/>
<path d="M321.467 164.078L330.059 164.054L330.065 166.866L310.894 166.819C310.565 166.213 310.733 164.783 310.733 164.06L321.467 164.078Z" fill="#FDFDFC"/>
<path d="M311.913 154.656L330.036 154.675L330.024 157.478L319.414 157.471L310.701 157.511C310.689 156.703 310.522 155.46 310.833 154.732L311.913 154.656Z" fill="#FDFDFC"/>
<path d="M235.343 118.905L234.859 118.457C234.158 117.708 233.757 116.758 233.749 115.689L233.775 69.5069L233.761 54.6457C233.759 52.3686 233.552 49.8732 233.8 47.6223C233.905 46.6716 234.42 45.7406 235.042 45.0761C235.636 44.4442 236.532 43.8527 237.351 43.6591C238.451 43.3985 239.903 43.5734 241.037 43.5721L249.183 43.5886L267.22 43.5864L272.329 43.58C273.191 43.5807 274.144 43.4893 274.99 43.6483C275.852 43.8105 276.657 44.3055 277.273 44.974C277.921 45.6782 278.425 46.6283 278.543 47.6203C278.795 49.7763 278.592 52.201 278.598 54.3888L278.619 69.4445L278.59 115.196C278.572 116.309 278.057 117.286 277.336 118.054C276.844 118.578 276.193 119.002 275.504 119.124C273.829 119.419 271.668 119.161 269.934 119.162L256.256 119.172L240.366 119.154C238.77 119.173 236.876 119.4 235.343 118.905Z" fill="#1F2EA4"/>
<path d="M255.662 112.308C256.319 112.094 256.809 112.046 257.447 112.381C257.961 112.652 258.399 113.218 258.561 113.812C258.73 114.426 258.647 115.02 258.358 115.574C258.13 116.011 257.742 116.418 257.291 116.564C256.884 116.696 256.392 116.643 255.971 116.642C255.705 116.507 255.42 116.362 255.197 116.152C254.766 115.746 254.4 114.992 254.412 114.364C254.43 113.46 255.077 112.837 255.662 112.308Z" fill="#FDFDFC"/>
<path d="M250.468 50.435C252.072 50.4322 254.032 50.1808 255.595 50.4421L274.583 50.4506L274.465 109.375L255.613 109.349L255.457 109.374L238.337 109.389L238.315 50.4346L250.468 50.435Z" fill="#3F9AE1"/>
<path d="M250.844 94.8854C252.462 94.9008 266.272 94.641 266.817 95.1174L266.831 96.8752C266.638 97.0684 266.654 97.1371 266.38 97.1363L254.353 97.0989L246.788 97.0618C246.439 96.6052 246.593 95.7203 246.605 95.1174C247.301 94.6087 249.893 94.8933 250.844 94.8854Z" fill="#FDFDFC"/>
<path d="M253.235 86.3309L263.654 86.3345C264.463 86.3347 266.234 86.0824 266.821 86.5237C266.856 87.1286 267.008 87.935 266.75 88.4854L246.758 88.5234C246.459 88.0301 246.581 87.1984 246.587 86.6212C246.683 86.5298 246.764 86.4114 246.878 86.3472C247.067 86.2411 248.004 86.3444 248.268 86.3437L253.235 86.3309Z" fill="#FDFDFC"/>
<path d="M251.737 58.4067C254.564 57.102 257.323 56.6379 260.273 57.9093C262.725 58.9662 264.811 61.1841 265.821 63.8241C266.868 66.5562 266.852 69.5258 265.788 72.2399C264.733 74.9298 262.544 76.9271 260.051 77.9675C257.421 79.065 254.908 78.793 252.369 77.6124C250.675 76.6113 249.226 75.2558 248.167 73.5018C246.756 71.1615 246.166 68.2989 246.744 65.5481C247.437 62.2564 249.159 60.1395 251.737 58.4067Z" fill="#FDFDFC"/>
<path d="M255.469 60.9674C255.994 60.9391 256.591 60.8635 257.108 60.9813C257.97 61.1781 258.826 61.745 259.316 62.544C259.753 63.2541 260.027 64.1642 259.862 65.0126C259.484 66.9791 258.512 67.6875 257.069 68.7262C259.915 69.5317 261.568 70.3139 263.217 72.9882C261.241 74.0526 259.529 74.8698 257.309 75.1455C254.81 75.3039 251.836 74.5894 249.769 73.0032C249.765 72.7026 249.854 72.4688 249.988 72.2106C251.1 70.0872 253.635 69.3463 255.644 68.7444C254.786 68.0218 253.908 67.3474 253.389 66.2839C253.003 65.4967 252.798 64.5154 253.048 63.6492C253.465 62.2122 254.278 61.6279 255.469 60.9674Z" fill="#1F2EA4"/>
<path d="M250.468 50.435C252.072 50.4322 254.032 50.1808 255.595 50.4421C254.924 50.9626 251.515 50.6247 250.509 50.6251C250.954 53.1636 251.084 55.9372 251.737 58.4067C249.159 60.1395 247.437 62.2564 246.744 65.5481C246.166 68.2989 246.756 71.1615 248.167 73.5018C249.226 75.2558 250.675 76.6113 252.369 77.6124L253.235 86.331L248.268 86.3437C248.004 86.3444 247.067 86.2411 246.878 86.3472C246.764 86.4114 246.683 86.5298 246.587 86.6212C246.581 87.1984 246.459 88.0301 246.758 88.5234L246.841 88.568C247.402 88.8409 248.116 88.7394 248.722 88.7405L253.497 88.7245C253.646 90.7642 253.831 92.7545 254.302 94.7415C253.233 94.7428 251.867 94.5828 250.844 94.8854C249.893 94.8933 247.301 94.6087 246.605 95.1174C246.593 95.7203 246.439 96.6052 246.788 97.0618L254.353 97.0989L255.154 106.055C255.219 106.875 255.144 108.725 255.613 109.349L255.457 109.374L238.337 109.389L238.315 50.4346L250.468 50.435Z" fill="#6882FB"/>
<path d="M159.101 83.3003C161.006 85.1271 162.683 85.8122 165.218 85.6483L166.158 85.5727C166.88 89.9866 170.128 94.5547 173.43 97.1092L174.718 98.0116L174.733 101.412C174.58 103.169 174.33 104.549 173.377 106.042L166.746 111.845L166.716 112.301L166.392 111.77C164.516 112.234 163.021 113.465 162.005 115.222C161.754 115.656 161.487 116.322 161.01 116.456C157.035 117.719 153.074 119.005 149.319 120.93C142.536 124.406 137.075 129.686 133.481 136.834C131.872 140.034 130.743 143.503 130.124 147.084C129.986 147.884 129.706 148.961 129.77 149.762C129.275 153.15 129.457 156.7 129.453 160.122L129.425 175.563L124.326 173.287C124.024 174.138 124.409 175.447 124.782 176.273C124.845 176.411 124.915 176.498 125.008 176.614C125.123 177.607 125.418 180.292 126.061 180.946C126.417 181.679 126.605 182.242 126.359 183.062C126.221 183.522 125.96 183.9 125.558 184.127C124.975 184.457 124.046 184.42 123.392 184.455C121.963 188.122 120.008 190.748 116.53 192.281C113.312 193.699 109.777 193.42 106.618 191.948L104.066 190.643C104.477 192.223 104.779 194.04 105.712 195.366C104.608 195.355 103.312 194.557 102.299 194.068C98.2949 192.131 94.3184 189.802 90.7095 187.098C89.2344 185.992 87.915 184.538 86.426 183.512L86.3288 183.447L84.0411 183.406L79.975 183.463L79.7908 183.336C80.2488 182.389 80.5511 181.555 80.7739 180.507C80.6262 179.358 80.7119 178.029 80.7016 176.858L80.6526 169.629L80.6503 148.86L80.5627 135.676C79.9445 134.485 79.3879 133.84 78.1752 133.395C77.8837 133.285 77.6212 133.174 77.3527 133.008L77.5968 132.384C80.3084 126.253 84.5449 120.755 90.0797 117.416C92.1317 116.177 94.3479 115.334 96.5539 114.482C97.0166 116.114 97.7356 117.367 99.166 118.198C99.7867 118.558 100.415 118.787 101.116 118.866C103.823 119.17 106.776 118.937 109.512 118.939L126.471 118.938L133.122 118.945C135.263 118.943 137.702 119.295 139.634 118.134C141.342 117.107 142.054 115.691 142.565 113.727C143.072 112.239 142.751 109.532 142.751 107.915L142.681 93.2304C143.746 92.1243 145.07 91.2122 146.283 90.3071C150.158 87.4147 154.633 84.9238 159.101 83.3003Z" fill="#4FB8E4"/>
<path d="M80.7739 180.507C81.7689 181.686 82.8341 182.504 84.0411 183.406L79.975 183.463L79.7908 183.336C80.2488 182.389 80.5511 181.555 80.7739 180.507Z" fill="#3F9AE1"/>
<path d="M89.0787 143.115L106.28 142.727C109.235 142.656 112.559 142.245 115.476 142.588C115.827 142.629 116.135 142.789 116.438 142.972L116.567 143.049C117.59 143.669 118.326 144.593 118.646 145.82C119.203 147.957 119.544 150.189 119.992 152.358L122.978 167.198L123.78 171.24C123.907 171.889 123.984 172.73 124.326 173.287C124.024 174.138 124.409 175.447 124.783 176.273C124.845 176.411 124.915 176.498 125.008 176.614C125.123 177.607 125.418 180.292 126.061 180.946C126.417 181.679 126.605 182.242 126.359 183.062C126.221 183.522 125.96 183.9 125.558 184.127C124.975 184.457 124.046 184.42 123.392 184.455C121.963 188.122 120.008 190.748 116.53 192.281C113.312 193.699 109.777 193.42 106.618 191.948L104.067 190.643C102.015 189.337 100.519 187.645 99.1622 185.553C97.6314 185.673 94.0345 186.29 92.7919 185.485C91.8334 184.863 91.7181 183.269 91.4959 182.183C91.0147 181.913 90.4804 181.564 90.17 181.067C89.7965 180.469 89.6538 179.589 89.8032 178.885C89.9848 178.029 90.6028 177.546 91.2371 177.088L91.2763 176.594C90.6506 176.509 89.9557 176.475 89.4645 176.002C88.9215 175.48 88.602 174.799 88.5656 174.01C88.5198 173.02 89.0701 172.367 89.6414 171.666L89.2704 171.04C88.9248 170.87 88.5412 170.695 88.2448 170.435C87.7032 169.96 87.334 169.162 87.2834 168.411C87.2145 167.388 87.7432 166.713 88.3525 166.013C88.0093 165.314 87.9587 163.991 87.8237 163.182L86.5619 155.645L85.4673 149.414C85.2537 148.238 84.928 146.991 84.882 145.792C84.8534 145.049 85.0823 144.379 85.5677 143.848C86.4647 142.868 87.8955 143.119 89.0787 143.115Z" fill="#1F2EA4"/>
<path d="M100.994 152.051L106.165 151.883C106.341 153.062 106.94 154.784 106.863 155.922L106.321 156.048L101.06 156.269L100.464 152.246L100.994 152.051Z" fill="#0C147F"/>
<path d="M91.237 177.088C92.9817 176.811 102.234 176.356 103.472 177.343C103.999 177.763 104.351 178.396 104.409 179.102C104.462 179.744 104.317 180.401 103.931 180.903C103.477 181.493 102.826 181.803 102.13 181.846C101.165 181.905 100.068 181.792 99.1304 182.015L91.4958 182.183C91.0146 181.913 90.4803 181.564 90.1699 181.067C89.7964 180.469 89.6537 179.589 89.8031 178.885C89.9847 178.029 90.6027 177.546 91.237 177.088Z" fill="#F7BB9A"/>
<path d="M91.6519 165.68L96.9781 165.526C98.4293 165.483 100.381 165.065 101.544 166.229C102.03 166.715 102.339 167.478 102.365 168.191C102.39 168.884 102.117 169.552 101.668 170.043C100.398 171.431 96.0576 170.913 94.305 170.95C93.1584 170.974 92.0299 171.133 90.8812 171.108L89.2703 171.04C88.9247 170.87 88.5411 170.694 88.2447 170.435C87.7031 169.96 87.3339 169.162 87.2833 168.411C87.2144 167.388 87.7431 166.713 88.3524 166.013C89.2534 165.615 90.6682 165.734 91.6519 165.68Z" fill="#F7BB9A"/>
<path d="M89.6414 171.666C90.4141 171.309 91.3696 171.325 92.2001 171.289L97.8572 171.248C99.1656 171.208 101.633 170.696 102.819 171.278C103.447 171.586 103.959 172.157 104.172 172.87C104.364 173.512 104.348 174.396 104.052 174.999C103.771 175.574 103.235 176.068 102.651 176.236C101.788 176.483 100.679 176.362 99.7863 176.391C96.9928 176.482 94.0454 176.335 91.2763 176.594C90.6505 176.509 89.9557 176.475 89.4645 176.002C88.9215 175.48 88.6019 174.799 88.5655 174.01C88.5198 173.02 89.0701 172.367 89.6414 171.666Z" fill="#F7BB9A"/>
<path d="M88.3525 166.013C88.0093 165.314 87.9587 163.991 87.8237 163.182L86.5619 155.645L85.4673 149.414C85.2537 148.238 84.928 146.991 84.882 145.792C84.8534 145.049 85.0823 144.379 85.5677 143.848C86.4647 142.868 87.8955 143.119 89.0787 143.115C88.6306 143.743 88.2212 144.286 88.3147 145.129L91.652 165.68C90.6683 165.734 89.2535 165.615 88.3525 166.013Z" fill="#0C147F"/>
<path d="M99.1305 182.015C100.912 182.362 103.112 182.151 104.923 182.077L113.296 181.746L119.641 181.512C121.648 181.475 124.177 181.73 126.061 180.946C126.417 181.679 126.605 182.242 126.359 183.062C126.221 183.522 125.96 183.9 125.558 184.127C124.975 184.457 124.046 184.42 123.392 184.455L99.1622 185.553C97.6314 185.673 94.0344 186.29 92.7919 185.485C91.8333 184.863 91.7181 183.269 91.4958 182.183L99.1305 182.015Z" fill="#0C147F"/>
<path d="M99.1622 185.553L123.392 184.455C121.963 188.122 120.008 190.748 116.53 192.281C113.312 193.699 109.777 193.42 106.618 191.948L104.067 190.643C102.015 189.337 100.519 187.645 99.1622 185.553Z" fill="url(#paint1_linear_12_1373)"/>
<path d="M174.719 98.0116C176.246 99.3696 179.25 100.401 181.13 100.881C187.085 102.4 193.165 101.33 198.356 97.8871L198.404 99.2094L198.36 99.9378C198.442 101.781 198.42 104.541 199.715 105.944L199.791 106.014C200.37 106.023 201.476 107.376 201.942 107.83C203.296 109.152 205.011 110.508 206.21 111.978C206.296 112.084 206.328 112.198 206.371 112.329C206.964 111.981 207.357 112.028 208.005 112.249C209.699 112.824 210.872 114.296 211.63 115.96L212.006 116.889L217.188 118.108C219.089 118.728 220.909 119.365 222.716 120.252L226.542 122.344C228.721 123.81 230.797 125.266 232.72 127.122C237.274 131.517 240.7 137.7 242.076 144.141L242.836 150.271L242.867 225H142.205L142.185 208.843L140.839 209.99C136.313 213.546 129.885 214.577 124.456 213.627C118.391 212.566 113.054 208.832 109.483 203.462C108.247 201.603 107.162 199.491 106.305 197.395C106.052 196.776 105.689 196.132 105.793 195.443L105.712 195.366C104.779 194.04 104.477 192.223 104.067 190.643L106.618 191.948C109.777 193.42 113.312 193.699 116.53 192.281C120.008 190.748 121.963 188.122 123.392 184.455C124.046 184.419 124.975 184.457 125.558 184.127C125.96 183.9 126.221 183.522 126.359 183.062C126.605 182.242 126.417 181.679 126.061 180.946C125.418 180.292 125.123 177.607 125.008 176.614C124.915 176.498 124.845 176.411 124.782 176.273C124.409 175.447 124.024 174.138 124.326 173.287L129.425 175.563L129.453 160.122C129.457 156.7 129.275 153.15 129.77 149.762C129.706 148.961 129.986 147.884 130.124 147.084C130.743 143.503 131.872 140.034 133.481 136.834C137.075 129.686 142.536 124.406 149.319 120.93C153.074 119.005 157.035 117.719 161.01 116.456C161.487 116.322 161.754 115.656 162.005 115.222C163.021 113.465 164.516 112.234 166.392 111.77L166.716 112.301L166.746 111.845L173.377 106.042C174.33 104.549 174.58 103.169 174.733 101.412L174.719 98.0116Z" fill="#1C1C1C"/>
<path d="M129.77 149.762L129.8 149.964C129.956 151.049 129.801 151.941 129.735 153.01C129.664 154.161 129.719 155.356 129.718 156.512L129.717 175.459L132.611 177.637C133.075 177.96 133.363 178.443 133.782 178.811C137.408 181.994 139.984 186.164 142.002 190.7V157.52L142.094 157.617L142.172 189.861L142.265 204.274C142.269 205.427 142.575 207.881 142.185 208.843L140.839 209.99C136.313 213.546 129.885 214.577 124.456 213.627C118.391 212.566 113.054 208.833 109.483 203.462C108.247 201.603 107.162 199.491 106.305 197.395C106.052 196.776 105.689 196.132 105.793 195.443L105.712 195.366C104.779 194.04 104.477 192.223 104.067 190.643L106.618 191.948C109.777 193.42 113.312 193.699 116.53 192.281C120.008 190.748 121.963 188.122 123.392 184.455C124.046 184.42 124.975 184.457 125.558 184.127C125.96 183.9 126.221 183.522 126.359 183.062C126.605 182.242 126.417 181.679 126.061 180.946C125.418 180.292 125.123 177.607 125.008 176.614C124.915 176.498 124.845 176.411 124.782 176.273C124.409 175.447 124.024 174.138 124.326 173.287L129.425 175.563L129.453 160.122C129.457 156.7 129.275 153.15 129.77 149.762Z" fill="#1C1C1C"/>
<path d="M125.008 176.614C126.712 179.024 127.508 182.071 127.137 185.094C126.651 189.058 124.527 192.908 121.59 195.309C118.78 197.605 115.14 198.74 111.631 198.177C109.433 197.824 107.597 196.785 105.793 195.443L105.712 195.366C104.779 194.04 104.477 192.223 104.067 190.643L106.618 191.948C109.777 193.42 113.312 193.699 116.53 192.281C120.008 190.748 121.963 188.122 123.392 184.455C124.046 184.42 124.975 184.457 125.558 184.127C125.96 183.9 126.221 183.522 126.359 183.062C126.605 182.242 126.417 181.679 126.061 180.946C125.418 180.292 125.123 177.607 125.008 176.614Z" fill="#FDFDFC"/>
<path d="M174.718 98.0116C176.246 99.3696 179.25 100.401 181.13 100.881C187.085 102.4 193.165 101.33 198.356 97.8871L198.404 99.2094L198.36 99.9378C198.442 101.781 198.42 104.541 199.715 105.944L199.791 106.014C200.37 106.023 201.476 107.376 201.942 107.83C203.296 109.152 205.011 110.508 206.21 111.978C206.296 112.084 206.328 112.198 206.371 112.329C206.964 111.981 207.357 112.028 208.005 112.249C209.699 112.824 210.872 114.296 211.63 115.96L212.006 116.889L215.23 140.853L202.068 140.761L212.903 148.678L186.258 188.968L159.061 149.105L168.926 141.016L156.146 141.017L161.292 116.706L161.01 116.456C161.487 116.322 161.754 115.656 162.004 115.222C163.021 113.465 164.516 112.234 166.392 111.77L166.715 112.301L166.746 111.845L173.377 106.042C174.33 104.549 174.58 103.169 174.733 101.412L174.718 98.0116Z" fill="#2C2C2C"/>
<path d="M171.2 131.335C172.11 130.811 172.942 129.932 173.755 129.243C175.768 127.536 177.807 125.579 179.908 124.028L183.058 126.631C184.332 127.631 185.41 128.402 187.078 128.092C187.642 127.987 188.162 127.718 188.666 127.437C188.812 127.356 188.922 127.337 189.084 127.336C189.298 126.496 191.759 124.737 192.519 124.126L200.81 131.492L195.414 149.961C194.48 153.233 193.752 156.923 192.41 160.013L187.091 177.34L186.314 179.991C185.921 179.492 185.679 178.187 185.471 177.531L179.821 160.034C178.488 157.207 177.791 153.61 176.904 150.574L171.2 131.335Z" fill="#1C1C1C"/>
<path d="M183.058 126.631C184.332 127.631 185.41 128.402 187.078 128.092C187.642 127.987 188.162 127.718 188.666 127.437C188.812 127.356 188.922 127.337 189.084 127.336L189.253 129.163C188.545 129.471 187.849 129.755 187.083 129.827C185.414 129.984 184.154 129.812 182.849 128.647L183.058 126.631Z" fill="#2C1544"/>
<path d="M192.519 124.126L200.81 131.492L195.414 149.961C194.48 153.233 193.752 156.923 192.41 160.013L189.253 129.163L189.084 127.336C189.298 126.496 191.759 124.737 192.519 124.126Z" fill="#C5D3F4"/>
<path d="M171.2 131.335C172.11 130.811 172.942 129.932 173.755 129.243C175.768 127.536 177.807 125.579 179.908 124.028L183.058 126.631L182.849 128.647L179.821 160.034C178.488 157.207 177.791 153.61 176.904 150.574L171.2 131.335Z" fill="#C5D3F4"/>
<path d="M174.719 98.0116C176.246 99.3696 179.25 100.401 181.13 100.881C187.086 102.4 193.165 101.33 198.356 97.8871L198.404 99.2094L198.36 99.9378C198.443 101.781 198.42 104.541 199.715 105.944L199.791 106.014C200.37 106.023 201.476 107.376 201.942 107.83C203.296 109.152 205.011 110.508 206.21 111.978C206.296 112.084 206.328 112.198 206.371 112.329L200.81 131.492L192.519 124.126C191.759 124.737 189.298 126.496 189.084 127.336C188.922 127.337 188.812 127.356 188.666 127.437C188.162 127.718 187.642 127.987 187.078 128.092C185.41 128.402 184.332 127.631 183.058 126.631L179.908 124.028C177.807 125.579 175.768 127.536 173.755 129.243C172.942 129.932 172.11 130.811 171.2 131.335L166.716 112.301L166.746 111.845L173.377 106.042C174.33 104.549 174.58 103.169 174.733 101.412L174.719 98.0116Z" fill="#FDFDFC"/>
<path d="M179.908 124.028L186.252 118.704L192.519 124.126C191.759 124.737 189.298 126.496 189.084 127.336C188.922 127.337 188.812 127.356 188.666 127.437C188.162 127.718 187.642 127.987 187.078 128.092C185.41 128.402 184.332 127.631 183.058 126.631L179.908 124.028Z" fill="#1C1C1C"/>
<path d="M174.719 98.0116C176.246 99.3696 179.25 100.401 181.13 100.881C187.086 102.4 193.165 101.33 198.356 97.8871L198.404 99.2094L198.36 99.9378C198.442 101.781 198.42 104.541 199.715 105.944L199.791 106.014L186.321 118.398C185.026 117.681 183.603 115.903 182.485 114.843C179.443 111.958 176.212 109.163 173.377 106.042C174.33 104.549 174.58 103.169 174.733 101.412L174.719 98.0116Z" fill="#F79079"/>
<path d="M174.719 98.0116C176.246 99.3696 179.25 100.401 181.13 100.881C187.085 102.4 193.165 101.33 198.356 97.8871L198.404 99.2094L198.36 99.9378C195.064 103.54 190.613 105.828 185.87 105.855C181.584 105.879 178.13 104.113 174.733 101.412L174.719 98.0116Z" fill="#F37463"/>
</g>
<defs>
<linearGradient id="paint0_linear_12_1373" x1="293.546" y1="173.519" x2="346.735" y2="160.575" gradientUnits="userSpaceOnUse">
<stop stop-color="#091991"/>
<stop offset="1" stop-color="#233AB5"/>
</linearGradient>
<linearGradient id="paint1_linear_12_1373" x1="102.349" y1="180.727" x2="120.139" y2="190.031" gradientUnits="userSpaceOnUse">
<stop stop-color="#EE9668"/>
<stop offset="1" stop-color="#DD8373"/>
</linearGradient>
<clipPath id="clip0_12_1373">
<rect width="370" height="225" fill="white"/>
</clipPath>
</defs>
</svg>
