<svg width="350" height="250" viewBox="0 0 350 250" fill="none" xmlns="http://www.w3.org/2000/svg">
<g clip-path="url(#clip0_6_345)">
<path d="M0 0H350.001V250H0V0Z" fill="#FEFEFE"/>
<path d="M300.161 182.125C300.669 182.109 301.174 182.086 301.657 182.266C302.421 182.549 302.939 183.07 303.285 183.794C303.585 184.426 303.666 185.356 303.388 186.018C303 186.941 302.148 187.513 301.245 187.842C300.637 187.942 300.112 187.901 299.556 187.639C298.855 187.307 298.138 186.55 297.913 185.796C297.698 185.072 297.818 184.138 298.194 183.484C298.667 182.665 299.29 182.366 300.161 182.125Z" fill="#6DBEFA"/>
<path d="M80.8904 118.362C81.4252 118.386 82.1874 118.452 82.6509 118.738C83.2328 119.098 83.9028 119.833 84.046 120.508C84.2088 121.276 84.1681 122.195 83.7285 122.863C83.2177 123.639 82.4986 124.04 81.6041 124.213C81.0615 124.201 80.6022 124.107 80.1148 123.857C79.3369 123.459 78.6279 122.775 78.3877 121.915C78.1732 121.148 78.3006 120.437 78.7167 119.765C79.2346 118.927 79.9939 118.607 80.8904 118.362Z" fill="#6DBEFA"/>
<path d="M53.3412 60.7232C53.8381 60.7027 54.3138 60.682 54.7907 60.8517C55.6606 61.1612 56.3745 61.816 56.7558 62.659C57.067 63.347 57.0047 64.203 56.727 64.8942C56.3438 65.8473 55.5127 66.2821 54.6382 66.6905C54.2657 66.7125 53.9077 66.7015 53.5403 66.6349C52.7188 66.4857 52.0256 66.1295 51.5609 65.4071C51.1135 64.7123 50.8912 63.4859 51.1665 62.671C51.5101 61.6537 52.4388 61.1483 53.3412 60.7232Z" fill="#6DBEFA"/>
<path d="M212.628 67.7218C213.061 67.7035 213.504 67.6793 213.931 67.7669C214.752 67.9352 215.472 68.3812 215.906 69.1107C216.305 69.7818 216.469 70.5807 216.254 71.3409C215.899 72.5963 215.067 73.2709 213.965 73.8578C213.416 73.8788 212.793 73.9342 212.271 73.7411C211.442 73.4342 210.758 72.7306 210.411 71.9278C210.077 71.1542 210.13 70.1808 210.472 69.4151C210.89 68.4808 211.735 68.0821 212.628 67.7218Z" fill="#6DBEFA"/>
<path d="M129.107 32.1453C129.606 32.1229 130.043 32.19 130.516 32.3526C131.36 32.6429 132.054 33.317 132.411 34.1365C132.713 34.8287 132.721 35.8196 132.421 36.5084C131.937 37.6199 131.093 38.0181 130.038 38.4217C129.493 38.3868 128.92 38.3677 128.405 38.1715C127.62 37.8729 126.924 37.3077 126.583 36.5281C126.241 35.7437 126.275 34.8887 126.628 34.1143C127.144 32.9781 128.027 32.5892 129.107 32.1453Z" fill="#6DBEFA"/>
<path d="M255.339 115.252C256.072 115.228 256.701 115.282 257.373 115.6C258.149 115.965 258.72 116.668 258.998 117.476C259.223 118.134 259.149 119.16 258.827 119.765C258.261 120.821 257.57 121.247 256.445 121.584C256.02 121.584 255.574 121.59 255.166 121.469C254.339 121.225 253.514 120.559 253.118 119.785C252.735 119.033 252.579 118.67 252.845 117.87C253.319 116.452 254.068 115.898 255.339 115.252Z" fill="#6DBEFA"/>
<path d="M193.482 64.8329C193.336 63.7423 193.464 62.4564 193.463 61.3473L193.455 54.2127C194.897 54.1915 196.041 54.1773 197.421 54.6888C198.809 55.6986 200.017 56.7992 200.274 58.588C200.487 60.069 200.211 61.4918 199.289 62.683C198.499 63.703 197.241 64.6136 195.935 64.7875C195.146 64.8927 194.276 64.9068 193.482 64.8329Z" fill="#E19E70"/>
<path d="M60.688 171.335L60.2899 168.931C59.71 163.328 61.3726 156.742 64.9632 152.361C68.4002 148.167 73.0933 145.654 78.2557 144.205C79.5553 143.84 80.8672 143.436 82.214 143.3C75.5618 149.293 69.1781 155.673 64.6237 163.475C63.1388 166.019 62.0863 168.757 60.688 171.335Z" fill="#0575E6"/>
<path d="M32.2831 143.45C33.4483 143.517 34.6374 143.838 35.7657 144.13C41.0563 145.498 45.8101 148.468 49.4514 152.528C53.7083 157.274 55.7534 163.895 55.3538 170.23L54.9274 172.859C51.2465 163.439 44.9456 155.829 37.9512 148.671C36.8162 147.51 35.619 146.449 34.387 145.394C33.6828 144.791 32.8315 144.197 32.2831 143.45Z" fill="#0575E6"/>
<path d="M93.703 96.851C95.0105 96.8888 97.3719 96.6303 98.5123 97.0988C99.1395 97.3568 99.7119 97.8571 99.9213 98.516C100.124 99.1544 100.013 99.9076 99.6399 100.453C99.326 100.912 98.7605 101.381 98.1947 101.463C96.8318 101.661 95.2158 101.493 93.8324 101.488L84.2757 101.465L68.7102 101.463C65.8384 101.475 62.893 101.63 60.028 101.486C59.4208 101.456 58.94 101.394 58.4389 101.014C57.9654 100.653 57.6103 100.12 57.5456 99.5214C57.4697 98.8188 57.763 98.1151 58.2358 97.6017C58.5534 97.2567 59.0803 96.9472 59.5477 96.8805C60.6167 96.7282 61.8449 96.8871 62.9318 96.8866L71.1263 96.8463L93.703 96.851Z" fill="#021B79"/>
<path d="M82.5152 143.819C82.6966 151.892 80.8065 160.091 75.059 166.073C71.6093 169.665 66.9849 172.022 62.0075 172.435C64.9034 167.063 67.7732 161.737 71.3421 156.768C74.691 152.105 78.5373 147.939 82.5152 143.819Z" fill="#0575E6"/>
<path d="M58.3801 180.715L69.9252 180.712C71.5083 180.715 73.3901 180.52 74.9434 180.763C75.5467 180.857 76.1552 181.176 76.5806 181.612C77.1324 182.178 77.3785 182.784 77.3477 183.567C77.3135 184.444 76.9296 185.231 76.266 185.803C75.7649 186.236 75.173 186.417 74.5199 186.407C73.154 186.252 71.6581 186.365 70.2757 186.363L62.2594 186.353L42.6164 186.298L42.3494 186.326C41.3677 186.367 40.6445 186.097 39.9438 185.417C39.3075 184.799 39.0927 184.219 39.0973 183.354C39.1017 182.535 39.3612 181.999 39.946 181.43C40.3372 181.05 40.8671 180.774 41.4045 180.677C42.6542 180.45 44.2748 180.689 45.5614 180.694L56.7743 180.726L58.3801 180.715Z" fill="#0575E6"/>
<path d="M100.464 71.9694C101.03 70.6356 101.929 69.3756 102.662 68.1241L106.753 61.1644C108.335 58.5248 109.778 55.6683 111.51 53.1341L119.409 66.1913L121.53 69.6334C122.001 70.3741 122.59 71.132 122.863 71.9694H100.464Z" fill="#FEFEFE"/>
<path d="M31.6497 143.638C35.5834 147.319 39.1242 151.622 42.4204 155.877C46.7146 161.42 50.9878 167.48 54.0412 173.806C48.4785 173.51 43.1167 170.426 39.3192 166.466C34.9024 161.861 32.2926 155.126 31.6892 148.854C31.523 147.129 31.6087 145.369 31.6497 143.638Z" fill="#0575E6"/>
<path d="M56.8505 117.265C57.0208 117.1 57.2227 116.987 57.4221 116.859L57.7482 117.161L58.2553 143.499C60.3136 141.251 62.4844 139.164 64.7706 137.15C66.0833 135.994 67.3107 134.82 68.8581 133.981C68.0139 135.118 66.9153 136.015 65.9519 137.046L59.6331 144.205C59.2431 144.684 58.3068 145.66 58.1787 146.252C58.0576 146.812 58.1814 147.706 58.1824 148.296C58.1858 150.595 58.4389 153.272 58.1321 155.534L58.2231 177.383L60.8877 172.281L60.688 171.335C62.0863 168.757 63.1388 166.019 64.6237 163.475C69.1781 155.673 75.5618 149.293 82.214 143.3C82.4379 143.511 82.4615 143.519 82.5152 143.819C78.5373 147.939 74.691 152.105 71.3421 156.768C67.7732 161.737 64.9034 167.063 62.0075 172.435C60.5098 175.114 59.3039 177.784 58.3801 180.715L56.7743 180.726C56.6833 178.466 55.3113 175.643 54.0412 173.806C50.9878 167.48 46.7146 161.42 42.4204 155.877C39.1242 151.622 35.5834 147.319 31.6497 143.638L31.8083 143.361L32.2831 143.45C32.8315 144.197 33.6828 144.791 34.387 145.394C35.619 146.449 36.8162 147.51 37.9512 148.671C44.9456 155.829 51.2465 163.439 54.9274 172.859L56.8322 176.901C57.1353 173.919 56.806 170.6 56.7743 167.587C56.7323 163.577 56.9271 159.46 56.6371 155.465C56.384 153.873 56.5466 151.993 56.53 150.368L56.4995 147.31C56.4963 146.996 56.5739 146.368 56.4878 146.102C56.2896 145.491 55.4856 144.631 55.087 144.084L50.2456 137.654L50.3298 137.426L56.5481 144.65L56.8505 117.265Z" fill="#021B79"/>
<path d="M185.771 79.2828L185.844 88.3783L177.298 95.2304C176.246 96.0568 174.447 97.078 173.677 98.1039L173.557 98.0937C173.239 97.391 171.218 96.1842 170.543 95.6591L161.485 88.5309L161.478 79.4476C164.31 81.9086 167.635 83.4772 171.383 83.9042C176.899 84.5326 181.506 82.6788 185.771 79.2828Z" fill="#E19E70"/>
<path d="M56.8505 117.265L56.548 144.65L50.3298 137.426L50.2456 137.654L55.087 144.084C55.4856 144.631 56.2896 145.491 56.4878 146.102C56.5739 146.368 56.4963 146.996 56.4995 147.31L56.53 150.368C56.5466 151.993 56.384 153.873 56.6371 155.465C54.3953 154.13 52.268 152.73 50.5473 150.738C47.243 146.91 45.4789 141.741 45.873 136.684C46.4673 129.057 51.1645 122.133 56.8505 117.265Z" fill="#0575E6"/>
<path d="M57.7482 117.161C63.6298 122.154 68.7959 129.392 69.4368 137.291C69.8693 142.624 68.2736 147.047 64.8197 151.098C63.0023 153.23 60.6297 154.399 58.1321 155.534C58.4389 153.272 58.1858 150.595 58.1824 148.296C58.1814 147.706 58.0576 146.812 58.1787 146.252C58.3068 145.66 59.2431 144.684 59.6331 144.205L65.9519 137.046C66.9153 136.015 68.0139 135.118 68.8581 133.981C67.3107 134.82 66.0833 135.994 64.7706 137.15C62.4844 139.164 60.3136 141.251 58.2553 143.499L57.7482 117.161Z" fill="#0575E6"/>
<path d="M42.6164 186.298L62.2594 186.353L70.2757 186.363C71.6581 186.365 73.154 186.252 74.5199 186.407L70.3538 208.437L47.057 208.442L42.6164 186.298Z" fill="#021B79"/>
<path d="M279.605 96.7955C279.156 96.4074 278.714 96.0636 278.399 95.5502C278.214 92.8893 278.299 90.1852 278.294 87.5175L278.285 74.1693L278.302 58.1556L278.263 47.8797C278.277 47.3765 278.331 46.7957 278.646 46.3843C278.919 46.0301 279.373 45.8768 279.803 45.845C281.975 45.6859 284.272 45.8297 286.459 45.8287C288.05 45.8279 289.89 45.66 291.455 45.868C291.784 45.9119 292.114 46.0645 292.363 46.2857C292.556 46.4568 292.734 46.6746 292.758 46.9393C292.907 48.5228 292.797 50.2181 292.802 51.814L292.829 61.2035L292.89 91.5797C292.885 93.3773 293.271 95.2374 291.916 96.6315L291.758 96.7887L279.605 96.7955Z" fill="#6DBEFA"/>
<path d="M281.309 52.5821C282.051 52.2921 288.79 52.2738 289.634 52.525C289.766 53.1051 289.673 53.7042 289.629 54.2921C289.056 54.4852 288.072 54.3653 287.442 54.3677L281.47 54.3536C281.116 53.9449 281.294 53.1263 281.309 52.5821Z" fill="#FEFEFE"/>
<path d="M281.204 56.857C281.912 56.5814 282.942 56.7235 283.715 56.7232L289.724 56.7357L289.761 58.6925L281.384 58.6641C281.018 58.2071 281.192 57.4417 281.204 56.857Z" fill="#FEFEFE"/>
<path d="M284.555 83.9757C285.304 83.9442 286.051 83.8805 286.769 84.1454C287.633 84.465 288.272 85.0875 288.633 85.9271C288.965 86.6967 289.063 87.6535 288.741 88.442C288.309 89.4899 287.469 90.0482 286.473 90.4855C285.968 90.5609 285.429 90.6815 284.921 90.5712C283.972 90.3651 283.159 89.7169 282.656 88.8925C282.209 88.1571 282.065 87.2252 282.305 86.3944C282.644 85.2145 283.54 84.5446 284.555 83.9757Z" fill="#FEFEFE"/>
<path d="M248.342 140.23L267.997 134.785C267.895 132.317 267.936 130.212 269.74 128.281C271.36 126.542 273.362 125.814 275.705 125.765C277.499 125.727 279.371 126.464 280.667 127.708C282.026 129.012 283.469 131.048 283.486 133.008L283.454 134.061L303.436 140.473C303.507 141.759 303.534 142.858 304.562 143.783L305.758 144.75L305.721 144.958L305.05 145.034L282.69 137.368C281.187 139.559 279.739 141.077 277.03 141.644L277.055 201.709L283.832 201.626C284.858 201.616 286.071 201.482 287.079 201.624C287.498 201.683 287.887 201.957 288.179 202.249C289.043 203.113 288.848 204.585 288.829 205.714C290.669 205.673 294.228 205.103 295.614 206.418C296.18 206.955 296.327 207.671 296.436 208.413C294.904 208.607 293.234 208.501 291.684 208.503L282.99 208.508L256.782 208.451L256.638 207.923C256.67 207.426 256.889 206.809 257.263 206.471C258.507 205.35 261.778 205.823 263.362 205.854C263.355 205.107 263.191 203.624 263.548 202.984C263.782 202.561 264.204 202.169 264.541 201.822C265.564 201.582 266.816 201.694 267.868 201.69L273.655 201.675L273.645 155.081L273.62 142.065C273.62 142.043 273.618 141.619 273.618 141.618C273.403 141.42 272.705 141.218 272.412 141.067C270.997 140.333 269.898 139.318 268.91 138.08L249.677 143.476L250.99 148.462L250.907 148.39C250.136 147.735 249.631 146.829 249.035 146.019C248.232 144.924 247.37 143.878 246.46 142.871C247.256 142.022 247.722 141.193 248.342 140.23Z" fill="#021B79"/>
<path d="M275.263 129.159C276.034 129.194 276.813 129.205 277.516 129.565C278.714 130.179 279.598 131.178 279.998 132.477C280.386 133.737 280.335 134.896 279.688 136.072C278.922 137.469 277.665 138.129 276.188 138.541C275.146 138.549 274.221 138.466 273.313 137.898C272.122 137.152 271.219 135.866 270.97 134.477C270.784 133.436 271.094 132.02 271.7 131.156C272.573 129.91 273.816 129.425 275.263 129.159Z" fill="#0575E6"/>
<path d="M224.794 96.8024C225.716 96.2775 228.554 96.6359 229.694 96.651C230.078 96.6561 230.65 96.7496 230.97 96.5272L230.858 96.4157C230.453 95.9967 230.311 95.7203 230.178 95.1608L230.131 94.9718C229.757 93.3173 229.99 91.1 229.988 89.3915L229.992 77.5677L230.003 54.2095L229.993 42.7283C230.002 42.4637 230.073 42.2984 230.189 42.0657C230.412 41.8472 230.628 41.6419 230.944 41.5794C231.991 41.3719 233.386 41.522 234.467 41.5154L242.334 41.49C243.031 41.5013 243.421 41.48 243.921 42.0284C244.117 42.2432 244.197 42.501 244.205 42.7886L244.183 53.1009L244.202 74.962L244.2 88.2711C244.195 90.3949 244.346 92.6564 244.166 94.7665C244.097 95.5592 243.675 96.1823 243.2 96.7933L224.794 96.8024Z" fill="#6DBEFA"/>
<path d="M232.808 48.6014L239.109 48.6226C239.786 48.6265 240.838 48.4786 241.419 48.7828C241.467 49.3924 241.477 49.9207 241.371 50.5301C240.525 50.7169 239.487 50.6019 238.609 50.6021L232.839 50.598L232.808 48.6014Z" fill="#FEFEFE"/>
<path d="M232.799 52.8951C234.381 52.9014 240.41 52.6165 241.482 53.095C241.542 53.7545 241.587 54.2891 241.395 54.9381L232.805 54.9656L232.799 52.8951Z" fill="#FEFEFE"/>
<path d="M235.662 83.9689C236.259 83.8854 236.943 83.8827 237.535 84.016C238.318 84.192 239.103 84.9 239.487 85.5958C239.929 86.3974 239.971 87.2846 239.726 88.153C239.399 89.3131 238.639 89.9142 237.635 90.4606C237.023 90.5678 236.425 90.6769 235.812 90.508C234.993 90.2824 234.223 89.6317 233.803 88.8998C233.352 88.1141 233.244 86.973 233.522 86.1046C233.864 85.0367 234.709 84.4508 235.662 83.9689Z" fill="#FEFEFE"/>
<path d="M247.156 96.8017C246.292 96.078 245.745 95.6327 245.603 94.4484C245.371 92.484 245.559 90.3058 245.562 88.3144L245.572 75.3612L245.533 56.1217L245.498 46.0843C245.52 45.4893 245.628 44.8175 246.009 44.3409C246.321 43.9488 246.873 43.8541 247.348 43.8275C248.959 43.7367 250.646 43.9 252.267 43.9002C254.488 43.9002 256.967 43.6798 259.157 43.9249C259.501 43.9637 259.821 44.1029 260.07 44.3458C260.433 44.6998 260.599 45.0355 260.638 45.5379C260.79 47.5616 260.653 49.6886 260.648 51.7206L260.616 64.2516L260.631 94.3915C260.611 95.3656 260.084 96.0641 259.376 96.7228L259.296 96.7951L247.156 96.8017Z" fill="#0575E6"/>
<path d="M248.769 56.857C249.75 56.6793 256.721 56.6641 257.363 57.0282C257.402 57.5838 257.397 58.0553 257.287 58.6029C256.274 58.7533 249.301 58.8426 248.693 58.4815C248.644 57.8968 248.627 57.4342 248.769 56.857Z" fill="#FEFEFE"/>
<path d="M248.574 52.4893L254.898 52.4779C255.603 52.4764 256.772 52.3087 257.336 52.6675C257.365 53.2525 257.39 53.7237 257.209 54.2921C256.328 54.4376 255.278 54.3287 254.373 54.3282L248.574 54.3231V52.4893Z" fill="#FEFEFE"/>
<path d="M252.105 83.9801C252.659 83.8971 253.36 83.8434 253.907 84.0111C254.832 84.2943 255.608 85.0568 256.008 85.9269C256.45 86.8786 256.418 87.473 256.072 88.4389C255.681 89.5199 254.885 90.0477 253.899 90.5009C253.262 90.5978 252.53 90.6029 251.905 90.4215C251.163 90.2067 250.536 89.5927 250.177 88.9227C249.706 88.0404 249.613 86.9852 249.938 86.0358C250.302 84.9691 251.168 84.4721 252.105 83.9801Z" fill="#FEFEFE"/>
<path d="M263.313 96.8036C262.706 96.1532 262.203 95.5914 262.059 94.6718C261.8 93.0075 262.005 90.9945 262 89.2987L261.983 77.5541L261.993 51.6878L262.015 39.5633C262.025 39.2408 262.086 38.8677 262.332 38.6358C262.598 38.3877 262.842 38.2095 263.208 38.158C264.67 37.9527 266.396 38.1246 267.882 38.1255C270.335 38.127 272.874 38.0074 275.317 38.1648C276.017 38.2098 276.225 38.5025 276.671 38.9878C276.996 39.9019 276.847 41.1356 276.847 42.1009L276.842 48.6444L276.859 71.1358L276.862 94.4769C276.85 94.7811 276.796 95.0551 276.662 95.3319C276.413 95.8532 276.012 96.3602 275.637 96.7953L263.313 96.8036Z" fill="#0575E6"/>
<path d="M264.78 53.0347C266.081 53.0394 272.817 52.7996 273.459 53.2662C273.481 53.8089 273.469 54.2742 273.347 54.8053C272.464 54.9617 271.412 54.8573 270.499 54.8597L264.814 54.8714L264.78 53.0347Z" fill="#FEFEFE"/>
<path d="M264.946 48.6439C266.245 48.64 272.805 48.3536 273.467 48.8201C273.489 49.4256 273.572 49.9801 273.274 50.5301L264.963 50.5855L264.946 48.6439Z" fill="#FEFEFE"/>
<path d="M268.146 83.9933C268.739 83.8773 269.425 83.8302 270.02 83.9686C270.85 84.1613 271.556 84.7257 272.005 85.4432C272.473 86.1967 272.686 87.0687 272.473 87.9386C272.171 89.1754 271.346 89.8021 270.306 90.4142C269.686 90.495 268.937 90.5465 268.319 90.4357C267.489 90.2865 266.782 89.7047 266.357 88.9916C265.908 88.2396 265.769 87.2128 265.991 86.3644C266.318 85.1146 267.084 84.5746 268.146 83.9933Z" fill="#FEFEFE"/>
<path d="M250.99 148.462L249.677 143.476L268.91 138.08C269.898 139.318 270.997 140.333 272.412 141.067C272.705 141.218 273.403 141.42 273.618 141.618C273.618 141.619 273.621 142.043 273.621 142.065L273.645 155.081L273.655 201.675L267.868 201.69C266.816 201.694 265.564 201.582 264.541 201.822C264.204 202.169 263.782 202.561 263.548 202.984C263.191 203.624 263.355 205.107 263.362 205.854C261.778 205.823 258.508 205.35 257.263 206.471C256.889 206.809 256.67 207.426 256.638 207.923L256.433 208.443C255.203 208.605 253.58 208.594 252.364 208.35L252.677 208.271C256.228 207.271 259.857 204.219 261.595 200.97C263.46 197.481 264.285 193.968 264.014 190.025C263.762 186.341 261.981 182.407 260.87 178.894L255.039 160.267C256.284 158.005 256.85 155.912 257.024 153.366L254.439 153.339L251.097 148.652L250.99 148.462Z" fill="#FEFEFE"/>
<path d="M149.093 55.3675C147.414 51.7193 145.437 48.756 144.591 44.7333C143.715 40.5689 145.368 35.8475 148.701 33.1981C149.25 32.7611 149.853 32.3565 150.483 32.0452C150.75 31.9132 151.332 31.7486 151.539 31.5736C152.016 31.1705 152.592 29.6651 152.984 29.0689C156.525 23.6742 162.318 19.6999 168.635 18.41C175.604 16.9871 182.646 18.6669 188.086 23.2541C188.869 23.9146 189.584 24.6038 190.25 25.3839C190.629 25.8272 191.013 26.501 191.492 26.8294C191.892 27.1038 192.417 27.2252 192.859 27.4202C193.597 27.7454 194.328 28.1866 194.998 28.6341C198.347 30.8726 201.042 34.7205 201.787 38.7127C202.893 44.6388 200.698 49.9032 197.421 54.6888C196.041 54.1774 194.897 54.1915 193.455 54.2128L193.463 61.3473C193.464 62.4564 193.336 63.7423 193.482 64.8329C192.732 70.934 190.135 75.131 185.771 79.2829C181.506 82.6789 176.899 84.5326 171.383 83.9042C167.635 83.4772 164.31 81.9086 161.478 79.4477C156.935 75.6515 154.182 71.0619 153.3 65.1554C151.623 65.1671 150.299 64.8578 148.997 63.7753C147.917 62.8768 147.203 61.6522 147.092 60.2374C146.93 58.1876 147.839 56.8744 149.093 55.3675Z" fill="#021B79"/>
<path d="M170.975 70.6871C172.78 70.6669 177.472 70.2071 178.729 71.392C178.01 72.1637 176.703 72.4166 175.715 72.6395L172.779 72.8341C171.402 72.8014 169.068 72.4825 168.079 71.4386L168.173 71.3265C168.796 70.7555 170.184 70.7486 170.975 70.6871Z" fill="#F4BE98"/>
<path d="M149.093 55.3675C150.637 54.6205 151.597 54.3326 153.338 54.1747L153.3 65.1554C151.623 65.1671 150.299 64.8578 148.997 63.7753C147.917 62.8768 147.203 61.6522 147.092 60.2374C146.93 58.1876 147.839 56.8744 149.093 55.3675Z" fill="#E19E70"/>
<path d="M183.039 39.7571C183.683 39.6905 183.719 40.2156 184.033 40.7425C185.757 43.638 188.256 45.2515 191.425 46.1739L191.409 57.764C191.404 59.472 191.641 61.5443 191.265 63.1837C191.051 64.1183 190.465 64.9625 189.921 65.7342C188.212 68.1576 185.876 70.1251 183.357 71.6603L182.22 69.8119C180.572 67.6483 177.743 66.4999 175.122 66.1376C171.51 65.638 168.207 66.8622 165.346 69.0296C164.581 69.7909 163.999 70.5724 163.415 71.4784C162.154 70.8307 160.922 69.7955 159.929 68.7892C158.519 67.3597 157.404 65.7103 156.41 63.974C156.161 63.5394 155.732 62.9156 155.631 62.4281C155.338 61.0174 155.583 58.9447 155.578 57.4662L155.56 44.1671C157.687 45.0711 160.096 45.6466 162.384 45.9188C169.886 46.8106 177.161 44.4053 183.039 39.7571Z" fill="#F4BE98"/>
<path d="M172.293 57.3702C172.773 57.2779 172.875 57.2093 173.331 57.42C174.009 58.7139 174.475 60.1988 174.979 61.5704C175.21 62.1988 175.629 63.0555 175.652 63.7191C175.664 64.0587 175.486 64.141 175.27 64.3812C175.009 64.4703 174.893 64.4527 174.628 64.3812C173.995 63.5848 173.689 62.3355 173.312 61.3885C172.869 60.2745 172.245 59.1112 172.027 57.9298C171.988 57.7147 172.174 57.5472 172.293 57.3702Z" fill="#021B79"/>
<path d="M182.268 50.6532C183.792 50.4681 185.844 50.5953 187.049 51.6944C187.468 52.0765 187.493 52.2249 187.502 52.7533C187.205 53.1768 187.171 53.172 186.707 53.3263L184.72 52.232L184.209 52.0765C182.775 51.7406 181.818 52.3136 180.643 53.0553C180.106 53.0365 180.074 52.9945 179.653 52.6532L179.611 52.1546C180.217 51.2567 181.288 50.9703 182.268 50.6532Z" fill="#021B79"/>
<path d="M163.962 50.4981C165.2 50.5084 166.679 50.8106 167.652 51.6387C168.064 51.9898 168.082 52.1639 168.129 52.6675L167.737 53.0845C166.893 53.2684 166.65 52.702 165.899 52.3709C165.465 52.18 164.96 52.0816 164.5 51.971C163.845 51.959 163.191 51.9747 162.581 52.2454C161.854 52.5684 161.408 53.2354 160.559 53.1915C160.116 52.7217 160.146 52.7203 160.152 52.0692C161.051 50.9024 162.6 50.6949 163.962 50.4981Z" fill="#021B79"/>
<path d="M182.155 54.9762C182.524 54.8546 182.99 54.8458 183.374 54.8851C183.938 54.9425 184.432 55.3648 184.732 55.8238C185.029 56.2772 185.184 56.8272 185.053 57.3639C184.853 58.1847 184.327 58.6239 183.631 59.0086C183.365 59.0995 183.059 59.1781 182.776 59.1625C182.178 59.1293 181.481 58.7001 181.153 58.2054C180.811 57.6893 180.727 57.0475 180.897 56.4571C181.124 55.6742 181.457 55.3426 182.155 54.9762Z" fill="#021B79"/>
<path d="M163.916 54.8053C164.251 54.7938 164.615 54.8057 164.924 54.9451C165.498 55.2034 166.057 55.7992 166.244 56.4046C166.387 56.8656 166.377 57.4774 166.143 57.9066C165.788 58.5572 165.161 58.8797 164.49 59.1129C164.039 59.1776 163.605 59.1302 163.191 58.9246C162.691 58.6761 162.145 58.1678 162.005 57.6053C161.879 57.1009 161.959 56.3089 162.233 55.8638C162.634 55.2152 163.207 54.9801 163.916 54.8053Z" fill="#021B79"/>
<path d="M252.364 208.35C253.58 208.594 255.203 208.605 256.433 208.443L256.638 207.923L256.782 208.451L282.99 208.508L291.684 208.503C293.234 208.501 294.904 208.607 296.436 208.413C300.752 208.12 305.279 208.371 309.612 208.373L314.927 208.38C315.879 208.382 316.934 208.297 317.871 208.448C318.354 208.525 318.757 208.75 319.125 209.069C319.643 209.519 319.985 210.076 320.016 210.767L320.026 221.392C320.024 223.523 320.265 226.019 319.931 228.112C319.848 228.632 319.626 229.033 319.255 229.408C318.774 229.893 318.144 230.195 317.463 230.201L286.454 230.174L219.9 230.169L34.8771 230.163L32.0673 230.162C31.7036 230.162 31.0873 230.244 30.7456 230.161C30.5679 230.118 29.9905 229.499 29.8396 229.348C29.3791 228.885 29.2143 228.288 29.2087 227.649L29.2011 214.149L29.2126 211.219C29.2151 210.922 29.1479 210.387 29.2229 210.111C29.3207 209.751 29.8374 209.237 30.1079 208.967C30.3471 208.729 30.597 208.539 30.9326 208.46C32.274 208.144 34.2522 208.4 35.6474 208.403L47.057 208.442L70.3538 208.437L90.5979 208.394L95.227 208.406C95.9336 208.408 96.9146 208.539 97.5496 208.219C98.8398 208.531 100.158 208.471 101.477 208.474L107.029 208.474L124.993 208.458L195.98 208.446L232.916 208.487L245.691 208.501C247.89 208.49 250.182 208.603 252.364 208.35Z" fill="#0575E6"/>
<path d="M193.682 92.6471L193.712 92.2538L190.562 90.0309L190.723 89.9359C191.718 90.4438 192.721 91.3893 193.855 91.3583C194.706 91.3351 195.907 91.8258 196.737 92.0546L204.002 94.1281L213.049 95.4074C215.407 95.7548 217.837 95.9865 220.135 96.6303C221.662 97.0583 223.087 97.7218 224.507 98.4157L224.712 98.2389C224.736 97.7699 224.721 97.2643 224.794 96.8024L243.2 96.7934L247.156 96.8017L259.296 96.7951L263.313 96.8036L275.636 96.7953L279.605 96.7956L291.758 96.7887L297.242 96.7599C297.93 96.7592 298.887 96.6396 299.548 96.8234C299.9 96.9213 300.239 97.1601 300.495 97.4152C300.993 97.914 301.35 98.6911 301.284 99.4064C301.213 100.19 300.674 100.898 300.041 101.34C299.653 101.611 299.263 101.695 298.801 101.722C296.585 101.85 294.308 101.742 292.087 101.743L279.205 101.749L229.405 101.77C230.667 103.084 232.019 104.393 233.118 105.845C239.739 114.601 240.407 126.05 244.008 136.111L244.146 136.184C244.478 136.35 244.627 137.452 245 137.5C246 139.5 245.607 139.117 246 140.23C246.188 140.757 248.103 139.734 248.342 140.23C247.722 141.193 247.256 142.022 246.46 142.871C247.37 143.878 248.232 144.924 249.035 146.019C249.631 146.829 250.136 147.735 250.907 148.39L250.99 148.462L251.097 148.652L254.439 153.339L256 155.5C255.827 158.046 256.284 158.005 255.039 160.267L260.87 178.894C261.981 182.407 263.762 186.341 264.014 190.025C264.285 193.968 263.46 197.481 261.595 200.97C259.857 204.219 256.228 207.271 252.677 208.271L252.364 208.35C250.182 208.603 247.89 208.49 245.691 208.501L232.916 208.487L195.98 208.446L124.993 208.458L107.029 208.474L101.477 208.474C100.158 208.471 98.8398 208.531 97.5496 208.219C95.4054 207.716 93.4717 206.733 91.6352 205.534C87.991 203.154 85.3955 199.031 84.5171 194.799C84.0585 192.59 84.0216 190.116 84.5486 187.913C85.3023 184.762 86.6113 181.694 87.6564 178.626L95.208 157.053L105.634 127.508L109.127 117.653C110.299 114.39 111.35 111.291 113.279 108.366C114.87 105.951 116.815 103.757 118.938 101.799C120.776 100.104 122.859 98.5155 125.137 97.4692C130.851 94.8444 137.736 94.8637 143.843 93.5988L155.074 91.4357L153.701 92.4066L153.609 92.4831L165.43 107.192L166.9 105.431C168.796 102.907 170.869 99.7763 173.557 98.0937L173.677 98.1039C176.522 99.4313 178.796 103.013 180.745 105.463C181.301 105.986 181.794 106.653 182.296 107.234L193.682 92.6471Z" fill="#021B79"/>
<path d="M222.121 178.437L222.181 162.34C223.085 164.266 223.596 166.408 224.232 168.434L228.093 181.08C227.582 181.302 226.841 181.21 226.284 181.212L222.137 181.216L222.121 178.437Z" fill="#FEFEFE"/>
<path d="M213.621 181.192L222.058 181.186L222.121 178.437L222.137 181.216L226.283 181.212C226.841 181.21 227.582 181.302 228.093 181.08L228.305 181.145C229.528 181.488 231.659 181.204 232.966 181.198C234.895 181.188 251.822 180.961 252.162 181.284C252.281 181.399 252.357 181.552 252.454 181.686C252.35 182.149 252.328 182.346 251.905 182.625C251.205 183.087 246.294 182.851 245.203 182.853L221.961 182.883L216.183 182.894C215.388 182.895 214.402 183.01 213.626 182.882L213.621 181.192Z" fill="#0575E6"/>
<path d="M134.621 166.535L134.559 182.991L111.084 182.998L101.875 183.076C101.168 183.081 99.6401 183.27 99.0248 183.029C98.6836 182.896 98.6519 182.649 98.5252 182.345C98.6026 181.733 98.6013 181.693 99.0358 181.262L120.06 181.24L126.861 181.268L126.862 170.911L126.948 181.247L134.559 181.252L134.621 166.535Z" fill="#0575E6"/>
<path d="M120.06 181.24L126.562 159.328L126.862 170.911L126.861 181.268L120.06 181.24Z" fill="#FEFEFE"/>
<path d="M193.682 92.6471L193.712 92.2538L190.562 90.0309L190.723 89.9359C191.718 90.4438 192.721 91.3893 193.855 91.3583C194.706 91.3351 195.907 91.8258 196.737 92.0546L204.002 94.1281C203.978 94.2509 203.885 94.538 203.903 94.6479C203.982 95.1117 204.24 95.6386 204.374 96.1015L205.286 99.5195C206.077 102.467 206.673 105.681 207.764 108.53L199.5 113.326L210.276 113.268L197.662 144.028L193.455 154.07C192.876 155.457 192.35 157.313 191.546 158.543L183.07 158.56L193.682 92.6471Z" fill="#0575E6"/>
<path d="M143.843 93.5988L155.074 91.4357L153.701 92.4066L153.609 92.483C153.529 92.775 153.508 92.9432 153.555 93.2482L157.565 114.801L165.095 158.559L156.558 158.553L136.917 113.367L145.183 113.374C146.359 113.375 147.799 113.536 148.945 113.312L139.722 109.336L143.843 93.5988Z" fill="#0575E6"/>
<path d="M156.558 158.553L165.095 158.559L157.565 114.801L153.555 93.2482C153.508 92.9433 153.529 92.7751 153.609 92.4831L165.43 107.192L166.9 105.431C168.796 102.907 170.869 99.7763 173.557 98.0937L173.677 98.1039C176.522 99.4313 178.796 103.013 180.745 105.463C181.301 105.986 181.794 106.653 182.296 107.234L193.682 92.6471L183.07 158.56L191.546 158.543L202.219 158.531C204.178 158.531 206.473 158.296 208.384 158.796C209.561 159.104 210.669 159.813 211.522 160.673C212.614 161.775 213.205 163.142 213.519 164.64C213.874 166.336 213.629 168.453 213.631 170.216L213.621 181.192L213.626 182.882L213.642 207.017L134.568 207.067L134.559 182.991L134.621 166.535C134.655 164.296 135.354 162.326 136.961 160.719C137.956 159.725 139.15 159.009 140.529 158.699C142.09 158.348 143.982 158.558 145.588 158.554L156.558 158.553Z" fill="#6DBEFA"/>
<path d="M173.789 177.707C174.361 177.674 174.882 177.668 175.45 177.774C176.997 178.063 178.328 178.914 179.216 180.223C180.032 181.425 180.224 182.755 179.983 184.166C179.872 184.818 179.657 185.419 179.335 185.996C178.502 187.486 176.988 188.317 175.405 188.776C174.063 188.962 172.813 188.802 171.637 188.11C170.253 187.297 169.339 185.897 168.956 184.355C168.64 183.082 168.863 181.626 169.541 180.505C170.504 178.913 172.028 178.115 173.789 177.707Z" fill="#FEFEFE"/>
<path d="M173.557 98.0937L173.677 98.1039C176.522 99.4313 178.796 103.013 180.745 105.463C179.315 106.68 177.748 107.63 176.161 108.619L180.553 158.563L165.918 158.579L171.975 108.544L166.9 105.431C168.796 102.907 170.869 99.7763 173.557 98.0937Z" fill="#021B79"/>
<path d="M247.845 141C248.813 141.314 249.487 141.273 250.478 141.042L258.504 159.869L262.046 159.887C261.986 161.167 261.847 162.35 261.452 163.575C260.372 166.921 258.066 169.639 254.908 171.204C252.103 172.594 248.528 172.793 245.558 171.783C242.405 170.711 239.752 168.167 238.305 165.196C237.719 163.994 236.654 161.354 237.111 160.011C237.75 159.653 238.804 159.804 239.532 159.82L247.845 141Z" fill="#0575E6"/>
<path d="M302.845 141C303.813 141.314 304.487 141.273 305.478 141.042L313.504 159.869L317.046 159.887C316.986 161.167 316.847 162.35 316.452 163.575C315.372 166.921 313.066 169.639 309.908 171.204C307.103 172.594 303.528 172.793 300.558 171.783C297.405 170.711 294.752 168.167 293.305 165.196C292.719 163.994 291.654 161.354 292.111 160.011C292.75 159.653 293.804 159.804 294.532 159.82L302.845 141Z" fill="#0575E6"/>
<path d="M249.005 141.639L257.055 159.883L249.393 159.86L240.947 159.854L249.005 141.639Z" fill="#021B79"/>
<path d="M304.005 141.639L312.055 159.883L304.393 159.86L295.947 159.854L304.005 141.639Z" fill="#FEFEFE"/>
<path d="M303.763 145C304.79 146.805 305.49 148.833 306.275 150.741L310 159.996L305.29 159.999L299 160L303.763 145Z" fill="#FEFEFE"/>
<path d="M248.763 138.004C249.262 137.982 249.699 138.049 250.172 138.211C251.016 138.502 251.71 139.176 252.067 139.995C252.369 140.688 252.377 141.679 252.077 142.367C251.593 143.479 250.749 143.877 249.694 144.281C249.149 144.246 248.576 144.227 248.061 144.03C247.276 143.732 246.58 143.167 246.239 142.387C245.897 141.603 245.931 140.748 246.284 139.973C246.8 138.837 247.683 138.448 248.763 138.004Z" fill="#0575E6"/>
<path d="M303.763 139.004C304.262 138.982 304.699 139.049 305.172 139.211C306.016 139.502 306.71 140.176 307.067 140.995C307.369 141.688 307.377 142.679 307.077 143.367C306.593 144.479 305.749 144.877 304.694 145.281C304.149 145.246 303.576 145.227 303.061 145.03C302.276 144.732 301.58 144.167 301.239 143.387C300.897 142.603 300.931 141.748 301.284 140.973C301.8 139.837 302.683 139.448 303.763 139.004Z" fill="#0575E6"/>
<path d="M71 90.4497C69.2029 92.1319 67.3085 93.8069 64.6836 93.9867C63.2468 94.0852 61.8412 93.6348 60.7588 92.7126C59.6846 91.7971 59.0665 90.4507 59.004 89.0764C58.8885 86.5281 61.2973 84.7182 62.9178 83L71 90.4497Z" fill="#0575E6"/>
<path d="M79.5534 65.7073L83.786 61C86.4924 63.5027 89.0604 66.4622 92 68.6565L88.9174 71.9446C88.4724 72.426 87.8835 72.9439 87.5194 73.4804L86.9903 74L79 66.3005L79.5534 65.7073Z" fill="#0575E6"/>
<path d="M79.5846 65C81.4421 66.4358 83.1029 68.2384 84.7406 69.9525C85.8258 71.0883 87.0041 72.2115 88 73.4361L87.4411 74L79 65.6437L79.5846 65Z" fill="#021B79"/>
<path d="M79.7489 65L88 72.4254L71.5934 89.3621L70.9139 90L63 82.6328L63.559 82.0673L79.7489 65Z" fill="#0575E6"/>
<path d="M63.5204 83C65.417 84.3386 67.1276 86.0136 68.8511 87.5448C69.5365 88.1537 70.3927 88.7722 71 89.4371L70.3674 90L63 83.499L63.5204 83Z" fill="#021B79"/>
<path d="M83.2291 70.0769L83.5407 70C83.8153 70.1592 83.8741 70.1639 84 70.4555L70.7387 83.953L70.4096 84L70 83.6081C70.1368 83.1937 70.5964 82.8347 70.907 82.5194L72.9002 80.4769L83.2291 70.0769Z" fill="#021B79"/>
<path d="M93.2763 63.9938L93.2895 57.0106L107.685 57L107.671 64.0418L107.683 64.9231L107.696 96.4048L116 96.4221C115.531 98.4651 114.797 99.952 112.936 101.095C112.101 101.608 111.197 101.862 110.223 101.915C106.425 102.118 102.492 101.894 98.6806 101.892L75.7856 101.915L64.0659 101.92L60.0224 101.895C59.0658 101.882 58.1051 101.908 57.1703 101.677C55.403 101.24 53.9172 100.22 52.9759 98.6552C52.5354 97.9227 52.2522 97.1809 52 96.3677L93.3496 96.3936L93.2799 65.1773L93.2763 63.9938Z" fill="#021B79"/>
</g>
<defs>
<clipPath id="clip0_6_345">
<rect width="350" height="250" fill="white"/>
</clipPath>
</defs>
</svg>
