<svg width="370" height="225" viewBox="0 0 370 225" fill="none" xmlns="http://www.w3.org/2000/svg">
<g clip-path="url(#clip0_10_1274)">
<path d="M0 0H370.001V225H0V0Z" fill="white"/>
<path d="M295.657 91.5585C294.831 91.0228 294.191 90.5857 293.882 89.5405C293.687 88.8793 293.766 88.1241 294.083 87.5203C294.437 86.8473 295.136 86.2121 295.838 86.026C296.98 85.7234 297.682 86.0888 298.639 86.7229C299.058 87.6728 299.215 88.3902 299.188 89.4498C298.56 90.428 298.027 91.1854 296.972 91.6176L296.616 91.5024L295.657 91.5585Z" fill="#1C67BD"/>
<path d="M331.195 86.5913C332.1 86.0244 332.87 85.532 333.958 85.8436C334.674 86.0488 335.284 86.5467 335.649 87.2448C336.042 87.9888 336.085 88.7047 335.873 89.5203C335.654 90.3689 334.952 91.05 334.259 91.466L333.118 91.6398C331.846 91.1847 331.36 90.6704 330.616 89.4671C330.557 88.2951 330.65 87.6142 331.195 86.5913Z" fill="#1C67BD"/>
<path d="M37.2696 202.16L24.2992 202.15C23.7908 202.095 23.5905 201.669 23.3126 201.27C23.2443 200.696 23.2431 200.402 23.5275 199.903C23.6963 199.774 23.9349 199.531 24.1187 199.451C24.4922 199.29 25.7229 199.436 26.1944 199.44L33.3628 199.52C34.485 200.262 36.5397 201.039 37.2696 202.16Z" fill="#1B1C57"/>
<path d="M313.35 97.8119L313.417 97.7812L313.49 94.0898L316.363 93.9896L316.375 135.135L313.449 135.132C313.468 132.818 313.826 112.535 313.348 111.765L313.35 97.8119Z" fill="#121433"/>
<path d="M313.348 111.765C313.826 112.534 313.468 132.818 313.449 135.132L316.375 135.135C319.25 135.145 323.246 135.365 325.363 137.735C326.353 138.842 326.56 140.087 326.55 141.578C325.944 142.048 305.244 141.753 302.961 141.746C302.949 140.064 302.957 138.845 304.084 137.566C306.279 135.07 310.345 135.179 313.309 135.114L313.348 111.765Z" fill="#15296B"/>
<path d="M298.639 86.7229C299.526 86.3729 301.016 86.5825 301.973 86.5825L309.67 86.5957C310.296 85.1341 311.264 83.8823 312.632 83.1897C313.891 82.5523 315.521 82.4211 316.828 82.9691C318.4 83.6279 319.304 84.9704 319.945 86.5836L331.022 86.6001L331.195 86.5913C330.65 87.6142 330.557 88.2951 330.616 89.4671L320.059 89.4915C319.64 91.1083 318.829 92.6022 317.452 93.4767C317.113 93.6927 316.731 93.8425 316.363 93.9895L313.49 94.0897L313.417 97.7811L313.35 97.8119L313.323 94.9291C313.321 94.7713 313.362 94.2332 313.313 94.1132C313.266 94.0034 312.191 93.4446 312.034 93.3433C311.512 93.0089 311.071 92.5541 310.687 92.0478C310.115 91.2946 309.837 90.3774 309.55 89.4684L299.188 89.4498C299.215 88.3902 299.058 87.6728 298.639 86.7229Z" fill="#15296B"/>
<path d="M298.639 86.723L309.68 86.7586L309.55 89.4684L299.188 89.4498C299.215 88.3903 299.058 87.6728 298.639 86.723Z" fill="#121433"/>
<path d="M331.022 86.6001L331.195 86.5913C330.65 87.6142 330.557 88.2951 330.616 89.4671L320.059 89.4915L320.004 86.7458L327.511 86.7665C328.581 86.7671 330.006 86.9559 331.022 86.6001Z" fill="#121433"/>
<path d="M286.425 118.582L308.119 118.564L309.28 119.03C309.721 120.038 309.869 120.881 309.516 121.959C308.558 124.884 305.763 127.315 303.236 128.555C299.038 130.617 294.584 130.355 290.284 128.82L289.629 128.462C285.884 126.267 283.727 122.894 282.542 118.545L286.425 118.582Z" fill="#1C67BD"/>
<path d="M337.371 118.523L345.613 118.56L346.542 118.586L347.87 118.579C348.146 119.137 347.908 119.598 347.742 120.192C346.794 123.598 344.245 126.623 341.356 128.275C337.601 130.423 332.964 130.839 328.924 129.457C325.594 128.318 321.903 125.704 320.305 122.242C319.689 120.909 319.847 120.256 320.252 118.899C320.526 118.719 320.809 118.565 321.13 118.522C322.608 118.329 324.332 118.507 325.84 118.513L337.371 118.523Z" fill="#1C67BD"/>
<path d="M295.657 91.5585L296.616 91.5024L296.972 91.6176L301.581 102.016C302.536 104.132 303.821 106.512 304.494 108.73C305.246 109.866 305.761 111.31 306.346 112.559C307.346 114.693 308.43 116.82 309.28 119.03L308.119 118.564L303.742 108.783L303.73 108.782L296.401 92.1144C295.287 93.745 294.531 95.9124 293.726 97.7519L288.631 109.348C287.755 111.317 286.899 113.565 285.791 115.379L285.653 114.756C285.986 113.956 286.496 113.024 286.545 112.142C287.112 111.297 287.486 110.173 287.889 109.221L290.046 104.185L295.657 91.5585Z" fill="#AFAC79"/>
<path d="M334.259 91.466L346.542 118.586L345.613 118.56C345.343 117.232 344.538 115.854 343.974 114.649L340.764 107.808L333.818 92.1594L327.487 105.836L321.256 118.337L337.371 118.523L325.84 118.513C324.332 118.507 322.608 118.329 321.13 118.523C320.809 118.565 320.526 118.719 320.252 118.899C320.784 117.26 321.691 115.705 322.441 114.17L326.678 105.661L331.071 96.3244C331.712 94.9803 332.964 93.1227 333.118 91.6398L334.259 91.466Z" fill="#AFAC79"/>
<path d="M256.898 29.9782L271.973 29.9189C274.211 29.9215 276.884 29.6271 279.074 30.1265C280.839 30.5291 282.489 31.4396 283.786 32.7986C285.708 34.8138 286.47 37.2938 286.494 40.1369L286.545 112.142C286.496 113.024 285.986 113.956 285.653 114.756C283.589 109.138 281.375 104.986 276.067 102.404L276.039 58.7148L276.033 48.0624C276.033 46.4461 276.254 44.3888 275.892 42.843C275.703 42.023 275.138 41.1918 274.469 40.7598L274.368 40.6956C273.231 39.9543 271.497 40.2094 270.204 40.2067L263.282 40.2039C262.499 36.1519 259.592 32.6921 256.898 29.9782Z" fill="#021B79"/>
<path d="M263.282 40.2039L270.204 40.2067C271.497 40.2094 273.231 39.9543 274.368 40.6956L274.469 40.7598C275.138 41.1918 275.703 42.023 275.892 42.843C276.254 44.3888 276.033 46.4461 276.033 48.0624L276.039 58.7148L276.067 102.404C271.985 100.595 267.482 100.232 263.229 99.1011L257.028 96.1565C256.207 95.5235 249.574 91.7147 249.002 91.7841C248.681 89.4408 248.947 86.6107 248.947 84.2161C249.08 84.1875 249.216 84.0952 249.336 84.03C253.578 81.7248 255.687 77.9583 257.128 73.2341C258.864 74.077 260.306 74.4795 262.217 73.9742C263.936 73.52 265.445 72.2895 266.331 70.6361C267.11 69.1821 267.539 67.1923 267.096 65.543L266.831 64.6793C266.006 62.4181 264.441 61.352 262.483 60.4465L262.452 54.2444C262.454 54.0586 262.406 53.1269 262.469 53.0274C262.873 52.3779 263.709 52.2553 264.119 51.4032C264.518 50.5787 264.392 49.492 264.382 48.5863C264.349 45.6272 264.103 43.0388 263.282 40.2039Z" fill="#9DBEF5"/>
<path d="M294.039 156.514L323.362 156.543C323.651 157.066 323.559 157.385 323.533 157.985L323.232 158.224C321.484 159.89 320.118 161.361 319.998 164.014C319.933 165.426 320.506 167.043 321.4 168.071C321.945 168.697 322.545 169.411 323.212 169.885L323.669 170.215L323.643 171.699C323.911 171.941 324.169 172.171 324.464 172.373C325.918 173.043 327.074 174.292 327.676 175.879C328.272 177.454 328.284 179.449 327.662 181.018C327.074 182.502 325.893 183.938 324.48 184.528L322.874 185.146C321.9 184.926 320.516 185.107 319.502 185.108L311.39 185.114L281.77 185.018L282.463 182.876C283.333 179.174 283.056 175.294 281.219 171.989C280.847 171.631 280.176 171.674 279.694 171.627L280.808 171.471L280.773 171.3L279.568 171.014C277.403 170.296 276.045 168.673 275.03 166.564C274.831 165.778 274.632 164.992 274.607 164.173C274.551 162.203 275.199 160.261 276.472 158.84C278.118 157 280.011 156.653 282.26 156.636C283.258 156.424 284.638 156.589 285.675 156.576L294.039 156.514Z" fill="#B51537"/>
<path d="M275.03 166.564C274.831 165.778 274.632 164.992 274.607 164.173C274.551 162.203 275.199 160.261 276.472 158.84C278.118 157 280.011 156.653 282.26 156.636L282.148 156.735C281.548 157.254 280.885 157.446 280.231 157.848C278.543 158.884 277.224 160.831 276.994 162.942C276.88 164.012 276.915 165.21 277.277 166.216C277.783 167.613 278.588 168.935 279.747 169.8C280.216 170.151 280.79 170.385 281.121 170.899C281.009 171.04 280.904 171.175 280.773 171.3L279.568 171.014C277.403 170.296 276.045 168.673 275.03 166.564Z" fill="#E83E47"/>
<path d="M286.5 158.1L299.971 158.179C298.493 159.847 297.411 161.449 297.393 163.868C297.373 166.508 298.464 168.262 300.095 170.073L295.295 170.084L287.277 170.105C285.828 170.106 283.996 170.328 282.603 169.854C281.266 169.399 279.942 168.197 279.316 166.84C278.708 165.522 278.472 163.721 278.942 162.305C279.477 160.691 280.629 159.312 282.073 158.591L282.186 158.535C283.376 157.939 285.187 158.122 286.5 158.1Z" fill="#E83E47"/>
<path d="M323.212 169.885C320.699 170.197 317.883 169.928 315.334 169.938L304.539 170.03C303.012 169.967 301.882 169.553 300.847 168.306C299.66 166.877 299.237 165.274 299.359 163.379C299.471 161.664 300.27 160.224 301.457 159.121C301.912 158.698 302.559 158.299 303.159 158.191C303.884 158.061 304.746 158.157 305.484 158.161L310.382 158.19C314.604 158.191 319.036 157.831 323.232 158.224C321.484 159.89 320.118 161.361 319.998 164.014C319.933 165.426 320.506 167.043 321.4 168.071C321.945 168.697 322.545 169.411 323.212 169.885Z" fill="#E83E47"/>
<path d="M307.729 160.538L312.913 160.545C313.006 161.931 312.951 163.357 312.957 164.748C312.961 165.795 313.149 166.769 312.64 167.672C311.691 168.021 309.083 167.864 308.072 167.676C307.987 167.558 307.759 167.317 307.718 167.188C307.617 166.86 307.708 166.011 307.704 165.633L307.729 160.538Z" fill="#0C4FAE"/>
<path d="M280.808 171.471L306.09 171.48L313.173 171.48C314.195 171.48 315.419 171.335 316.422 171.509C317.948 171.492 322.516 171.095 323.643 171.699C323.911 171.941 324.169 172.171 324.464 172.373C325.918 173.043 327.074 174.292 327.676 175.879C328.272 177.454 328.284 179.449 327.662 181.018C327.074 182.502 325.893 183.938 324.48 184.528L322.874 185.146C321.9 184.926 320.516 185.107 319.502 185.108L311.39 185.114L281.77 185.018L282.463 182.876C283.333 179.174 283.057 175.294 281.219 171.989C280.847 171.631 280.176 171.674 279.694 171.627L280.808 171.471Z" fill="#0C4FAE"/>
<path d="M280.808 171.471L306.09 171.48L313.173 171.48C314.195 171.48 315.419 171.335 316.422 171.509C317.948 171.492 322.516 171.095 323.643 171.699C323.911 171.941 324.169 172.171 324.464 172.373C323.671 172.446 322.88 172.135 322.079 172.091L316.58 172.023L281.219 171.989C280.847 171.631 280.176 171.674 279.694 171.627L280.808 171.471Z" fill="#2B90D4"/>
<path d="M286.366 174.448L310.719 174.437L318.044 174.437C319.38 174.438 320.849 174.314 322.167 174.53C322.982 174.663 323.728 175.052 324.316 175.684C325.019 176.441 325.35 177.551 325.346 178.614C325.34 179.881 324.698 180.734 323.911 181.591C323.33 181.964 322.718 182.339 322.035 182.42C320.847 182.562 319.534 182.437 318.337 182.436L310.882 182.434L286.427 182.389C287.244 179.513 287.259 177.306 286.366 174.448Z" fill="#FEFEFE"/>
<path d="M94.2491 75.4042L94.2925 39.8517C94.313 37.0798 95.2616 34.6571 97.1106 32.7228C98.4285 31.3438 100.352 30.2676 102.189 30.0411C103.598 29.8673 105.109 29.9859 106.531 29.9828L114.731 29.9679L141.758 29.9391L227.233 29.9861L225.43 32.2463C223.186 31.7057 221.287 32.0746 219.347 33.4407C217.455 34.7727 216.07 37.1114 215.653 39.4887L215.533 40.2777L143.377 40.2716L119.64 40.2834C115.779 40.2863 111.786 40.0354 107.948 40.319C107.069 40.3841 106.281 40.6954 105.651 41.3807C105.257 41.8086 104.883 42.5174 104.786 43.1126C104.629 44.0728 104.743 45.2238 104.745 46.2084L104.749 52.0894L104.762 75.4151L94.2491 75.4042Z" fill="#021B79"/>
<path d="M263.229 99.101C267.482 100.232 271.985 100.595 276.067 102.404C281.375 104.986 283.589 109.138 285.653 114.756L285.791 115.379L286.425 118.582L282.542 118.545C283.727 122.894 285.884 126.267 289.629 128.462L290.284 128.82L294.039 156.514L285.675 156.576C284.638 156.589 283.258 156.424 282.26 156.636C280.011 156.653 278.118 157 276.472 158.84C275.199 160.261 274.551 162.203 274.608 164.173C274.632 164.992 274.831 165.778 275.03 166.564C276.045 168.673 277.403 170.296 279.568 171.014L280.774 171.3L280.808 171.471L279.694 171.627C280.176 171.674 280.847 171.631 281.219 171.989C283.057 175.294 283.333 179.174 282.463 182.876L281.77 185.018L277.248 184.961L272.203 184.851L272.038 184.771C271.221 184.433 270.7 183.773 270.08 183.121L268.106 182.217C268.177 182.078 268.271 181.969 268.265 181.808C268.208 179.961 267.612 177.909 267.277 176.078L265.103 164.188L263.434 155.221C263.186 153.946 263.062 152.579 262.686 151.343C262.402 150.405 261.887 149.577 261.226 148.901C258.734 146.354 255.89 147 252.755 147.087L265.766 119.48L257.939 115.779L268.368 113.458C266.472 108.717 265.364 103.778 263.229 99.101Z" fill="#0C0C0C"/>
<path d="M275.03 166.564C276.045 168.673 277.403 170.296 279.568 171.014L280.773 171.3L280.808 171.471L279.694 171.627C280.176 171.674 280.847 171.631 281.219 171.989C283.057 175.294 283.333 179.174 282.463 182.876L281.77 185.018L277.248 184.961L272.202 184.851L272.038 184.771C271.221 184.433 270.7 183.773 270.08 183.121L270.218 178.571C270.222 175.785 269.73 172.283 271.011 169.778C271.95 167.936 273.211 167.112 275.03 166.564Z" fill="#121433"/>
<path d="M277.248 184.961C278.867 182.766 279.491 180.765 279.373 177.954C279.263 175.312 278.175 173.333 276.413 171.604L279.694 171.627C280.176 171.674 280.847 171.631 281.219 171.989C283.057 175.294 283.333 179.174 282.463 182.876L281.77 185.018L277.248 184.961Z" fill="#39B1D6"/>
<path d="M229.378 87.3527L242.354 92.9507C243.546 93.5253 244.9 94.0093 245.995 94.7599C247.047 93.8164 248.104 92.9026 249.002 91.7841C249.573 91.7147 256.207 95.5235 257.028 96.1565L263.229 99.1011C265.364 103.778 266.472 108.717 268.368 113.458L257.939 115.779L265.766 119.48L252.755 147.087L247.203 147.045C246.961 146.863 244.715 146.969 244.29 146.961L233.19 146.966L231.462 147L220.553 96.6381L225.948 93.2886C227.034 92.642 228.109 91.8982 229.262 91.4005C229.502 90.1845 229.362 88.6104 229.378 87.3527Z" fill="#FEFEFE"/>
<path d="M233.184 107.713C230.616 109.101 228.538 111.87 225.938 113.081L223.952 108.199L225.942 111.431C226.719 111.21 227.585 110.426 228.266 109.948L232.686 106.83L233.184 107.713Z" fill="#E2E5E9"/>
<path d="M243.977 106.791C244.721 107.114 245.394 107.722 246.056 108.213L250.068 111.137C250.787 109.281 251.887 107.395 252.863 105.679C253.442 104.657 253.997 103.534 254.733 102.635L254.827 102.521L253.387 111.284C252.365 111.934 251.517 112.921 250.657 113.797C249.72 113.198 248.886 112.275 248.047 111.525L243.649 107.606L243.977 106.791Z" fill="#E2E5E9"/>
<path d="M232.686 106.83L238.541 102.505C240.25 103.937 242.094 105.654 243.977 106.791L243.649 107.606L241.917 112.288L235.402 112.288C234.515 111.293 233.769 108.976 233.184 107.713L232.686 106.83Z" fill="#B51537"/>
<path d="M229.378 87.3527L242.354 92.9507C243.546 93.5253 244.9 94.0093 245.995 94.7599L238.526 101.638L229.262 91.4005C229.502 90.1845 229.362 88.6104 229.378 87.3527Z" fill="#F59966"/>
<path d="M235.402 112.288L241.917 112.288L244.29 146.961L233.19 146.965C233.47 145.431 233.513 143.799 233.627 142.239L234.194 133.721L235.003 120.69C235.17 117.894 235.416 115.092 235.402 112.288Z" fill="#E83E47"/>
<path d="M257.028 96.1565L263.229 99.1011C265.364 103.778 266.472 108.717 268.368 113.458L257.939 115.779L265.766 119.48L252.755 147.087L247.203 147.045C246.961 146.863 244.715 146.969 244.29 146.961L241.917 112.288L243.649 107.606L248.047 111.525C248.886 112.275 249.72 113.198 250.657 113.797C251.517 112.921 252.365 111.934 253.387 111.284L254.827 102.521L257.028 96.1565Z" fill="#1C1C1C"/>
<path d="M243.649 107.606L248.047 111.525C248.886 112.275 249.72 113.198 250.657 113.797C251.517 112.921 252.365 111.934 253.387 111.284L250.177 130.236L248.293 141.407C247.953 143.266 247.693 145.227 247.203 147.045C246.961 146.863 244.715 146.969 244.29 146.961L241.917 112.288L243.649 107.606Z" fill="#FEFEFE"/>
<path d="M227.233 29.9862C231.862 25.4875 237.138 23.6343 243.361 23.9957C248.433 24.2904 252.912 26.7335 256.898 29.9782C259.592 32.6921 262.499 36.1519 263.282 40.2039C264.103 43.0388 264.349 45.6272 264.382 48.5863C264.392 49.492 264.518 50.5787 264.119 51.4032C263.709 52.2553 262.873 52.3779 262.469 53.0274C262.406 53.1269 262.454 54.0586 262.452 54.2444L262.483 60.4465C264.441 61.352 266.006 62.4181 266.831 64.6793L267.096 65.543C267.539 67.1923 267.11 69.1821 266.331 70.6361C265.445 72.2895 263.936 73.52 262.216 73.9742C260.305 74.4795 258.864 74.077 257.128 73.2341C255.687 77.9583 253.578 81.7248 249.336 84.03C249.216 84.0952 249.079 84.1875 248.947 84.2161C248.947 86.6107 248.681 89.4408 249.002 91.7841C248.104 92.9026 247.046 93.8164 245.995 94.7599C244.9 94.0093 243.546 93.5253 242.354 92.9507L229.378 87.3527L229.433 84.0994L226.024 81.3728L225.92 81.2928L223.076 77.4924C222.338 76.0719 221.842 74.6314 221.38 73.0845C219.357 74.0471 218.003 74.1185 215.903 73.4205C214.509 72.6631 213.218 71.5194 212.466 70.0197C211.681 68.4511 211.594 66.6667 212.09 64.9794C212.653 63.0645 213.925 61.8582 215.533 60.9817V40.2777L215.653 39.4887C216.07 37.1115 217.455 34.7727 219.347 33.4407C221.287 32.0747 223.185 31.7057 225.43 32.2463L227.233 29.9862Z" fill="#F59966"/>
<path d="M236.908 75.6836C237.666 75.6265 238.528 76.4118 239.427 76.4116C240.47 76.4112 241.277 75.6608 242.163 75.6891C242.598 76.0679 242.706 76.0761 242.802 76.6603L242.287 77.2463C241.623 77.7313 240.716 77.9708 239.927 78.0464C238.988 78.1362 237.302 77.911 236.581 77.1387C236.229 76.7632 236.308 76.5004 236.349 76.0154L236.908 75.6836Z" fill="#E83E47"/>
<path d="M248.451 62.0118C248.919 61.8635 249.301 61.9345 249.769 62.0098C250.362 62.4051 250.625 62.7015 250.934 63.3789C250.97 63.9337 251.033 64.5178 250.803 65.0359C250.49 65.7395 250.074 66.0308 249.407 66.2644C249.098 66.3424 248.63 66.3075 248.323 66.2035C247.866 66.0497 247.461 65.5942 247.24 65.1491C246.988 64.6426 246.908 64.0201 247.075 63.4697C247.327 62.6341 247.772 62.3812 248.451 62.0118Z" fill="#1B1C57"/>
<path d="M239.435 63.9649C239.838 63.966 239.913 64.0581 240.244 64.2873C240.592 66.269 238.593 68.2687 238.748 70.1606C239.183 70.3843 239.51 70.6024 239.86 70.9613L239.874 71.7775L239.333 72.168C239.169 72.19 239.016 72.2124 238.85 72.1838C238.329 72.0944 237.851 71.7776 237.53 71.3293C237.144 70.7923 237.087 70.1516 237.191 69.5036C237.38 68.3241 237.949 67.0925 238.333 65.9572C238.484 65.5072 238.671 64.7353 238.927 64.3556C239.01 64.231 239.309 64.0625 239.435 63.9649Z" fill="#E83E47"/>
<path d="M228.681 62.0118C228.947 61.9415 229.185 61.9096 229.461 61.9439C230.049 62.0177 230.533 62.353 230.868 62.8773C231.224 63.4354 231.368 64.1432 231.204 64.8085C231.01 65.5885 230.51 65.9671 229.894 66.3182C229.512 66.4 229.004 66.4797 228.62 66.3661C228.083 66.2073 227.589 65.7078 227.369 65.1614C227.156 64.6233 227.142 63.783 227.371 63.2478C227.668 62.5605 228.063 62.2849 228.681 62.0118Z" fill="#1B1C57"/>
<path d="M246.052 57.3243C246.719 57.1193 247.713 57.2206 248.413 57.2455C249.569 57.2863 252.1 57.5399 252.928 58.4961C252.91 59.1402 253.046 59.7886 252.615 60.254C251.694 59.931 250.712 59.6389 249.75 59.5003C248.341 59.2971 246.687 59.8169 245.595 58.6915C245.581 57.9117 245.579 57.9123 246.052 57.3243Z" fill="#1B1C57"/>
<path d="M229.199 57.278C230.413 57.2431 232.242 56.9251 233.208 57.715C233.314 58.3555 233.324 58.4219 233.068 59.0068C232.251 59.5871 230.791 59.4674 229.825 59.5252C228.534 59.5665 227.225 59.6513 226.005 60.1386C225.863 60.1953 225.786 60.1162 225.647 60.0586C225.617 59.4586 225.593 58.8985 225.684 58.3008C226.808 57.7588 227.991 57.5081 229.199 57.278Z" fill="#1B1C57"/>
<path d="M258.195 53.9377L262.054 52.9072C262.389 53.2728 262.154 54.1203 262.452 54.2445L262.483 60.4465C260.861 60.1582 259.773 60.2586 258.161 60.6576L258.195 53.9377Z" fill="#1B1C57"/>
<path d="M258.828 62.7931C259.643 62.6303 260.739 62.4864 261.527 62.7978L261.692 62.8689C262.393 63.1675 262.908 63.6828 263.385 64.3077C264.02 65.1352 264.349 66.3292 264.233 67.3953C264.073 68.8644 263.357 69.6563 262.337 70.5455C260.639 71.4893 259.36 71.19 257.567 70.8037C257.777 69.5229 258.059 68.1918 258.128 66.8946C258.197 65.6267 258.079 64.3 258.26 63.0476L258.828 62.7931Z" fill="#E83E47"/>
<path d="M216.782 62.9179C217.936 62.7622 219.069 62.7356 220.059 63.4875C220.189 63.585 220.376 63.7942 220.413 63.9649C220.581 64.7579 220.4 65.9899 220.435 66.8396C220.486 68.1138 220.693 69.3994 220.87 70.6602C219.906 71.1017 219.075 71.2669 218.03 71.3612C216.688 71.0347 215.56 70.5405 214.785 69.23C214.214 68.263 214.037 66.9657 214.31 65.857C214.669 64.3846 215.592 63.6149 216.782 62.9179Z" fill="#E83E47"/>
<path d="M229.433 84.0994C234.743 86.6204 241.218 87.5839 246.756 85.2928L248.947 84.2161C248.947 86.6107 248.681 89.4408 249.002 91.7842C248.104 92.9026 247.046 93.8164 245.995 94.7599C244.9 94.0093 243.546 93.5253 242.354 92.9507L229.378 87.3527L229.433 84.0994Z" fill="#E83E47"/>
<path d="M227.233 29.9862C231.862 25.4875 237.138 23.6343 243.361 23.9957C248.433 24.2904 252.912 26.7335 256.898 29.9782C259.592 32.6921 262.499 36.1519 263.282 40.2039C264.103 43.0388 264.349 45.6272 264.382 48.5863C264.392 49.492 264.518 50.5787 264.119 51.4032C263.709 52.2553 262.873 52.3779 262.469 53.0274C262.406 53.1269 262.454 54.0586 262.452 54.2445C262.154 54.1203 262.389 53.2728 262.054 52.9072L258.195 53.9377C249.515 55.5597 239.018 53.0375 231.799 47.5217L229.492 45.5048C227.91 48.9106 226.107 51.2219 222.665 52.4535C221.913 52.7228 221.161 52.8661 220.376 52.9764L220.411 60.9211C218.615 60.3746 217.306 60.3118 215.533 60.9817V40.2777L215.653 39.4887C216.07 37.1115 217.455 34.7727 219.347 33.4407C221.287 32.0747 223.186 31.7057 225.43 32.2463L227.233 29.9862Z" fill="#1C1C1C"/>
<path d="M220.553 96.6381L231.462 147L233.19 146.965L244.29 146.961C244.715 146.969 246.961 146.863 247.203 147.045L252.755 147.087C255.89 147 258.734 146.354 261.227 148.901C261.887 149.577 262.402 150.405 262.686 151.343C263.062 152.579 263.186 153.946 263.434 155.221L265.103 164.188L267.277 176.078C267.612 177.909 268.208 179.961 268.265 181.808C268.271 181.969 268.177 182.078 268.106 182.217C265.711 183.511 263.388 185.75 261.208 187.461C260.106 188.325 259.118 189.196 257.813 189.664C253.302 189.33 248.569 189.579 244.032 189.565L216.182 189.553L207.373 189.586C205.747 189.591 204.031 189.711 202.415 189.501C201.374 189.366 200.648 188.882 199.788 188.264C198.803 188.798 196.375 188.472 195.213 188.468L195.073 188.47C191.135 187.039 187.818 184.729 185.441 180.995C182.382 176.192 182.396 171.132 183.291 165.643L183.97 160.087L185.284 150.141L187.049 138.06L187.582 134.13L188.125 130.283L188.685 126.212L189.253 122.218L189.808 118.251C190.169 115.965 190.531 113.899 191.472 111.796C194.016 106.118 199.093 101.752 204.986 101.098C207.513 100.818 209.841 101.169 212.307 100.25L220.553 96.6381Z" fill="#1C1C1C"/>
<path d="M227.721 165.476C228.494 165.52 229.309 165.551 230.029 165.892C231.448 166.564 232.631 167.995 233.147 169.568C233.458 170.512 233.403 171.925 232.976 172.817C232.33 174.164 231.441 174.745 230.146 175.219C229.175 175.243 228.242 175.272 227.331 174.836C226.16 174.274 225.027 173.163 224.55 171.862L224.503 171.73L224.324 171.21C224.072 170.304 224.066 168.825 224.487 167.982L224.544 167.871L224.804 167.368C225.485 166.204 226.538 165.769 227.721 165.476Z" fill="#262626"/>
<path d="M189.808 118.251C190.169 115.965 190.531 113.899 191.472 111.796C194.016 106.118 199.093 101.752 204.986 101.098C207.513 100.818 209.841 101.169 212.307 100.25L210.166 110.776L219.386 115.384L212.045 120.828L225.17 147.13L203.897 147.109L197.714 147.084C196.711 147.083 195.521 146.958 194.538 147.142C193.661 147.305 192.828 147.844 192.209 148.521C191.411 149.393 190.913 150.554 190.934 151.788C190.953 152.936 191.333 154.126 191.558 155.245L193.144 162.891L196.363 178.178C196.868 180.536 197.236 183.089 197.941 185.382C198.26 186.419 198.787 187.281 199.528 188.028L199.788 188.264C198.803 188.798 196.375 188.472 195.213 188.468L195.073 188.47C191.135 187.039 187.818 184.729 185.441 180.995C182.382 176.192 182.396 171.132 183.291 165.643L183.97 160.087L185.284 150.141L187.049 138.06L187.582 134.13L188.125 130.283L188.685 126.212L189.253 122.218L189.808 118.251Z" fill="#0C0C0C"/>
<path d="M165.926 159.975L183.97 160.087L183.291 165.643C182.396 171.132 182.382 176.192 185.441 180.995C187.818 184.729 191.135 187.039 195.073 188.47L195.213 188.468C196.375 188.472 198.803 188.798 199.788 188.264C200.648 188.882 201.374 189.366 202.415 189.501C204.031 189.711 205.747 189.591 207.373 189.586L216.182 189.553L244.032 189.566C248.569 189.579 253.302 189.33 257.813 189.664C259.118 189.196 260.106 188.325 261.208 187.461C263.388 185.75 265.711 183.511 268.106 182.217L270.08 183.121C270.7 183.773 271.221 184.433 272.038 184.771L272.203 184.851L277.248 184.961L281.77 185.018L311.39 185.114L319.502 185.108C320.516 185.107 321.9 184.926 322.874 185.146L322.992 185.185C325.08 185.826 327.591 185.561 329.752 185.552L329.76 188.492L324.055 188.659C325.702 189.293 327.904 190.246 328.699 192.064C328.947 192.633 328.898 193.569 328.66 194.135C328.01 195.691 326.292 196.842 324.852 197.374L324.647 197.444L329.817 197.597L329.86 199.724C331.699 199.613 344.631 199.211 345.617 199.789C345.928 200.299 346.042 200.466 346.075 201.097C345.825 201.53 345.664 201.948 345.16 202.072C343.918 202.375 342.116 202.142 340.823 202.145L329.431 202.166L283.337 202.177L105.45 202.141C106.311 201.066 108.247 200.503 109.387 199.612C110.248 198.41 111.112 197.125 111.411 195.609C111.71 194.093 111.636 192.54 111.637 191L111.639 184.136L111.623 160.001L165.926 159.975Z" fill="#121433"/>
<path d="M199.788 188.264C200.648 188.882 201.374 189.366 202.415 189.501C204.031 189.711 205.747 189.591 207.373 189.586L216.182 189.553L244.032 189.566C248.569 189.579 253.302 189.33 257.813 189.664C257.498 191.622 257.136 195.187 258.212 196.884C258.88 197.939 259.734 198.229 260.702 198.833L218.197 198.841L206.259 198.807C204.881 198.804 202.625 198.492 201.349 198.915L201.33 198.972C200.167 198.676 199.033 198.592 198.022 197.828C195.724 196.091 195.649 191.24 195.213 188.468C196.375 188.472 198.803 188.798 199.788 188.264Z" fill="#15296B"/>
<path d="M257.813 189.664C259.118 189.196 260.106 188.325 261.208 187.461C263.388 185.75 265.711 183.511 268.106 182.217L270.08 183.121C270.7 183.773 271.221 184.433 272.038 184.771L272.203 184.851L277.248 184.961L281.77 185.018L311.39 185.114L319.502 185.108C320.516 185.107 321.9 184.926 322.874 185.146L322.992 185.185C325.08 185.826 327.591 185.561 329.752 185.552L329.76 188.491L324.055 188.659C325.702 189.293 327.904 190.246 328.699 192.064C328.947 192.633 328.898 193.569 328.66 194.135C328.01 195.691 326.292 196.842 324.852 197.374L324.647 197.444L329.817 197.597L329.86 199.724L329.748 199.786C328.333 200.159 326.07 199.91 324.592 199.923L306.749 199.823L284.099 199.922C280.387 199.937 276.531 200.178 272.831 199.907C271.493 199.81 270.582 199.393 269.411 198.707C267.921 199.072 266.382 198.877 264.868 198.868C263.505 198.86 262.054 198.981 260.702 198.833C259.734 198.229 258.88 197.939 258.212 196.884C257.136 195.187 257.498 191.622 257.813 189.664Z" fill="#E83E47"/>
<path d="M273.337 197.187L273.056 197.516C272.579 197.561 272.076 197.638 271.611 197.472C270.633 197.123 269.895 196.595 269.36 195.599C268.724 194.416 268.391 192.758 268.783 191.413C268.909 190.978 269.047 190.533 269.259 190.137C269.726 189.257 270.651 188.423 271.562 188.155L271.719 188.112C271.934 188.045 272.123 187.969 272.351 187.956C273.005 187.92 273.251 188.046 273.695 188.543C272.45 189.073 271.393 189.707 270.818 191.083C270.426 192.022 270.285 193.336 270.625 194.312C271.101 195.674 272.125 196.63 273.337 197.187Z" fill="#B51537"/>
<path d="M257.813 189.664C259.118 189.196 260.106 188.325 261.208 187.461C263.388 185.75 265.711 183.511 268.106 182.217L270.08 183.121C270.7 183.773 271.221 184.433 272.038 184.771L272.203 184.851C270.243 185.365 268.511 186.624 267.462 188.517C266.451 190.336 266.248 192.696 266.75 194.718C267.167 196.394 268.183 197.635 269.411 198.707C267.921 199.072 266.382 198.877 264.868 198.868C263.505 198.86 262.054 198.981 260.702 198.833C259.734 198.229 258.88 197.939 258.212 196.884C257.136 195.187 257.498 191.622 257.813 189.664Z" fill="#1B1C57"/>
<path d="M273.695 188.543L324.055 188.659C325.702 189.293 327.904 190.246 328.699 192.064C328.947 192.633 328.898 193.569 328.66 194.135C328.01 195.691 326.292 196.842 324.852 197.374L324.647 197.444C322.866 197.609 320.978 197.475 319.184 197.469L309.272 197.455L284.982 197.449L277.696 197.446C276.297 197.443 274.687 197.618 273.337 197.187C272.125 196.63 271.101 195.674 270.625 194.312C270.285 193.336 270.426 192.022 270.818 191.083C271.393 189.707 272.451 189.073 273.695 188.543Z" fill="#FEFEFE"/>
<path d="M274.282 191.699C275.093 191.614 276.817 191.483 277.588 191.716C278.068 191.862 278.161 192.242 278.368 192.676C278.179 193.358 278.129 193.382 277.59 193.803C276.744 194.1 274.937 194.002 274.069 193.755C273.546 193.279 273.56 193.174 273.451 192.481C273.717 191.97 273.786 191.951 274.282 191.699Z" fill="#E83E47"/>
<path d="M165.926 159.975L183.97 160.087L183.291 165.643C182.396 171.132 182.382 176.192 185.441 180.995C187.818 184.729 191.135 187.039 195.073 188.47L195.213 188.468C195.649 191.241 195.724 196.091 198.022 197.828C199.033 198.592 200.167 198.676 201.33 198.972L200.989 199.785C199.829 199.985 198.53 199.858 197.354 199.848L191.051 199.793L169.383 199.698L147.982 199.713L141.249 199.756C140.004 199.761 138.616 199.862 137.394 199.662L141.6 199.658L141.609 194.031C141.613 193.202 141.499 192.108 141.767 191.322C142.214 190.011 143.346 189.009 144.573 188.621C145.606 188.295 147.031 188.484 148.125 188.484L158.49 188.524C159.566 188.528 161.779 188.829 162.712 188.342L164.927 168.363L165.926 159.975Z" fill="#021B79"/>
<path d="M165.926 159.975L183.97 160.087L183.291 165.643C182.396 171.132 182.382 176.192 185.441 180.995C187.818 184.729 191.135 187.039 195.073 188.47C192.874 188.662 190.521 188.494 188.308 188.495L173.616 188.465L166.132 188.489C165.131 188.493 163.633 188.696 162.712 188.342L164.927 168.363L165.926 159.975Z" fill="#2C377F"/>
<path d="M165.926 159.975L183.97 160.087L183.291 165.643C177.299 167.496 171.17 168.47 164.927 168.363L165.926 159.975Z" fill="#1B1C57"/>
<path d="M111.623 160.001L165.926 159.975L164.927 168.363L162.712 188.342C161.779 188.829 159.566 188.528 158.489 188.524L148.125 188.484C147.031 188.484 145.606 188.295 144.573 188.621C143.346 189.009 142.214 190.011 141.767 191.322C141.499 192.108 141.613 193.202 141.609 194.031L141.6 199.658L137.394 199.662L109.387 199.612C110.248 198.41 111.112 197.125 111.411 195.609C111.71 194.093 111.636 192.54 111.637 191L111.639 184.136L111.623 160.001Z" fill="white"/>
<path d="M104.762 75.4151C106.876 75.3787 108.412 75.4745 110.033 77.1666C110.837 78.0055 111.194 78.8657 111.513 80.0022C111.953 81.5706 111.658 84.0709 111.658 85.763L111.641 98.9793L111.642 150.122L111.623 160.001L111.639 184.136L111.637 191C111.636 192.54 111.71 194.093 111.411 195.609C111.112 197.125 110.248 198.41 109.387 199.612C108.247 200.503 106.311 201.066 105.45 202.14C103.328 202.379 100.915 202.16 98.768 202.162L84.1575 202.164L37.2697 202.16C36.5398 201.039 34.4851 200.262 33.3629 199.52C32.741 198.686 32.1448 197.841 31.8089 196.82C31.1946 194.952 31.4582 192.647 31.4718 190.693L31.5347 181.819L31.5727 163.535L31.5097 106.958L31.5141 81.698C31.5369 80.5326 31.5702 79.4245 32.0567 78.3593C32.6132 77.1409 33.6441 76.1732 34.8413 75.7496L34.9586 75.7091C36.8354 75.0475 39.6167 75.4094 41.5999 75.409L53.1108 75.4061L94.2492 75.4042L104.762 75.4151Z" fill="#15296B"/>
<path d="M63.8595 80.5667C65.9264 80.2045 68.5168 80.5064 70.6358 80.5045L76.8197 80.5027C77.9878 80.5036 79.2499 80.3913 80.3957 80.6185C80.9619 81.2142 80.909 81.3181 80.9379 82.1291C80.6785 82.6266 80.5776 82.7088 80.1247 83.0107L68.1724 83.045C66.9268 83.0452 64.3051 83.3994 63.3228 82.8006C62.9912 82.3726 62.9268 82.096 62.8934 81.5431C63.1963 80.9534 63.3328 80.8758 63.8595 80.5667Z" fill="#FEFEFE"/>
<path d="M70.6701 186.547C71.7022 186.422 72.7718 186.393 73.7439 186.835C74.9082 187.364 75.9192 188.477 76.3888 189.747C76.9274 191.202 76.8674 192.661 76.2606 194.087C75.6194 195.594 74.3947 196.331 73.0342 196.901C72.0356 197.08 70.9946 197.068 70.0289 196.697C68.9183 196.271 67.8601 195.239 67.3594 194.079C66.7847 192.748 66.6727 191.21 67.1744 189.828C67.826 188.035 69.1193 187.255 70.6701 186.547Z" fill="#121433"/>
<path d="M37.9116 89.0971L105.658 89.1013L105.646 181.63L37.9309 181.634L37.9116 89.0971Z" fill="#39B1D6"/>
<path d="M49.4377 162.598L49.6309 162.553C50.5772 162.348 51.847 162.507 52.8259 162.509L59.903 162.522L86.7185 162.542L92.9307 162.547C93.3641 162.547 94.4129 162.41 94.7583 162.548C94.9234 162.614 95.148 162.837 95.3003 162.95C95.3867 163.501 95.3725 163.494 95.0889 163.965L94.864 164.015C93.9781 164.187 92.9012 164.068 91.9919 164.07L86.5034 164.073L65.5734 164.072L53.785 164.066C52.6415 164.065 50.7392 164.316 49.6827 164.032C49.5749 164.003 49.334 163.764 49.231 163.685C49.1342 163.088 49.1255 163.1 49.4377 162.598Z" fill="#FEFEFE"/>
<path d="M49.5479 168.262C50.6878 167.884 94.7524 168.128 95.0293 168.242C95.3963 168.392 95.3983 168.684 95.5097 169.043L95.1216 169.629C94.0821 169.878 92.7231 169.716 91.6473 169.717L84.2867 169.724L57.2592 169.722L51.7226 169.714C51.1849 169.713 50.1578 169.847 49.6839 169.649C49.3253 169.498 49.3088 169.199 49.1903 168.848L49.5479 168.262Z" fill="#FEFEFE"/>
<path d="M49.714 156.934C51.7285 156.611 54.1046 156.861 56.1528 156.858L70.1547 156.845L87.386 156.854C89.7924 156.858 92.7739 156.502 95.1198 156.989C95.4632 157.489 95.406 157.522 95.3347 158.151L94.7583 158.47L50.4957 158.508C49.7957 158.489 49.6384 158.469 49.1564 157.911C49.2379 157.31 49.2747 157.323 49.714 156.934Z" fill="#FEFEFE"/>
<path d="M90.478 112.056C92.7944 114.537 95.1463 115.24 98.2799 115.63C98.2828 119.476 98.8036 124.166 97.3065 127.72C95.9818 130.865 93.339 132.815 90.4432 134.015C88.619 133.255 86.9677 132.361 85.5503 130.868C81.6594 126.769 82.4175 121.025 82.4069 115.68C85.6714 115.537 88.1547 114.587 90.478 112.056Z" fill="#FACA6B"/>
<path d="M90.042 115.528C90.164 115.496 90.497 115.365 90.6031 115.384C91.1911 115.492 92.1275 116.252 92.7412 116.517C93.9785 117.051 95.2735 117.288 96.5801 117.524C96.6425 120.476 96.7897 123.63 95.8462 126.438C94.9872 128.996 93.1291 130.437 90.9309 131.543L90.8379 131.578L90.6804 131.616C90.5419 131.651 90.408 131.684 90.264 131.675C89.1563 131.603 87.3896 130.16 86.623 129.305C83.6817 126.021 84.217 121.711 84.2893 117.531C85.206 117.393 86.1946 117.338 87.0776 117.042C88.1024 116.698 89.0926 116.064 90.042 115.528Z" fill="#FEFEFE"/>
<path d="M55.3442 113.556C57.506 113.661 59.2599 114.217 60.9743 115.721C62.8481 117.365 64.227 119.731 64.4541 122.364C64.6708 124.877 63.8095 127.487 62.3043 129.398C60.4392 131.767 58.1997 132.657 55.4221 132.928C53.2226 132.792 51.3067 132.331 49.5701 130.754C47.7567 129.108 46.5563 126.71 46.3698 124.157C46.18 121.555 46.836 118.915 48.4323 116.925C50.2896 114.609 52.6288 113.804 55.3442 113.556Z" fill="#E83E47"/>
<path d="M58.9159 119.043C59.1684 119.018 59.3719 119.061 59.6193 119.105C60.0355 119.55 60.0721 119.595 60.1699 120.215C59.9771 121.06 59.1359 121.854 58.6144 122.495C57.1035 124.354 55.5961 126.293 53.8969 127.953L51.1368 125.378C50.6484 124.854 50.2404 124.381 49.8987 123.731C49.9196 123.543 49.9387 123.317 50.0144 123.145C50.2294 122.656 50.549 122.546 50.9743 122.345C51.8888 122.361 53.2175 123.981 53.9097 124.645L56.897 121.075C57.5115 120.351 58.1056 119.512 58.9159 119.043Z" fill="#FEFEFE"/>
<path d="M49.0064 142.286L49.4662 142.172C51.2339 141.95 53.249 142.158 55.0364 142.162L66.9274 142.176L84.9009 142.175C87.7637 142.176 90.7697 141.98 93.6158 142.193C94.246 142.24 94.4018 142.287 94.9047 142.723C95.2788 143.651 95.1444 145.271 95.1172 146.289C95.0918 147.24 95.0281 147.511 94.3971 148.142L94.1104 148.207C92.5662 148.434 90.7036 148.23 89.1285 148.23L77.6135 148.221L59.0273 148.23C55.9788 148.232 52.8373 148.406 49.798 148.21C49.1688 148.169 49.0444 148.128 48.5443 147.695C48.1832 146.743 48.2908 145.357 48.3164 144.336C48.342 143.306 48.317 142.988 49.0064 142.286Z" fill="#FEFEFE"/>
<path d="M48.8722 98.7306C48.9935 98.7007 49.1068 98.6715 49.2316 98.664C52.5462 98.461 55.9804 98.6598 59.3039 98.6642L80.1952 98.6869C81.9803 98.6858 94.3153 98.3727 94.9757 99.0707L95.0671 99.1808L95.1645 99.2929C95.5912 99.8571 95.4973 102.998 95.3951 103.809C95.32 104.404 94.9673 104.613 94.5778 104.971C94.4227 105.013 94.2838 105.051 94.1232 105.063C91.9829 105.218 89.7385 105.067 87.5895 105.064L74.3784 105.058L58.0067 105.058L49.7012 105.042C49.2383 105.017 48.9336 104.919 48.5817 104.59C48.0071 103.782 48.2247 101.829 48.2344 100.805C48.2438 99.8202 48.198 99.4436 48.8722 98.7306Z" fill="#FEFEFE"/>
<path d="M104.762 75.4151L104.749 52.0893L104.745 46.2084C104.743 45.2238 104.629 44.0728 104.786 43.1126C104.883 42.5174 105.257 41.8085 105.651 41.3807C106.281 40.6954 107.069 40.3841 107.948 40.319C111.786 40.0353 115.779 40.2863 119.64 40.2834L143.377 40.2715L215.533 40.2777V60.9817C213.925 61.8582 212.653 63.0645 212.09 64.9794C211.594 66.6667 211.681 68.4511 212.466 70.0197C213.218 71.5194 214.509 72.663 215.903 73.4204C218.004 74.1185 219.357 74.0471 221.38 73.0845C221.842 74.6314 222.338 76.0719 223.076 77.4924L225.92 81.2928L226.024 81.3728L229.433 84.0994L229.378 87.3527C229.362 88.6104 229.502 90.1845 229.262 91.4005C228.109 91.8982 227.034 92.6419 225.948 93.2886L220.553 96.6381L212.307 100.25C209.841 101.169 207.513 100.818 204.986 101.098C199.093 101.752 194.015 106.118 191.472 111.796C190.531 113.899 190.169 115.965 189.808 118.251L189.253 122.218L188.685 126.212L188.125 130.283L187.582 134.13L187.049 138.06L185.284 150.141L183.97 160.087L165.926 159.975L111.623 160.001L111.642 150.122L111.641 98.9793L111.658 85.7629C111.658 84.0708 111.953 81.5706 111.513 80.0021C111.194 78.8657 110.837 78.0055 110.033 77.1666C108.412 75.4744 106.876 75.3786 104.762 75.4151Z" fill="#9DBEF5"/>
<path d="M215.903 73.4205C218.004 74.1185 219.357 74.0471 221.38 73.0845C221.842 74.6314 222.338 76.0719 223.076 77.4924L188.613 77.3129C188.21 77.0633 187.909 76.7337 187.716 76.2697C187.451 75.6353 187.546 75.1396 187.741 74.5119C188.118 74.0788 188.354 73.6793 188.898 73.5046C189.463 73.3229 190.383 73.4438 190.982 73.4422L195.994 73.4424L215.903 73.4205Z" fill="#7C98E5"/>
<path d="M225.92 81.2928L226.024 81.3728L226.03 85.1411L198.965 85.1469L191.938 85.1409C190.813 85.1389 189.521 85.2941 188.433 84.9691C187.999 84.6252 187.698 84.3558 187.6 83.7593C187.506 83.1812 187.547 82.6143 187.887 82.1291C188.115 81.8033 188.489 81.5108 188.86 81.4401C189.761 81.268 190.851 81.3913 191.776 81.3886L197.673 81.3895L216.139 81.4196C219.372 81.4144 222.7 81.5723 225.92 81.2928Z" fill="#7C98E5"/>
<path d="M189.007 88.9528L226.066 88.9569C226.052 89.795 226.327 92.0584 226.011 92.7358L225.154 92.805L188.523 92.74C188.221 92.4658 187.865 92.1649 187.697 91.7701C187.485 91.2718 187.436 90.4339 187.663 89.9369C187.94 89.3283 188.442 89.1345 189.007 88.9528Z" fill="#7C98E5"/>
<path d="M187.582 134.13L187.048 138.06L142.348 138.055C140.043 138.058 125.532 138.451 124.387 137.82C124.017 137.434 123.881 137.067 123.822 136.527C123.737 135.747 123.877 135.079 124.306 134.473C125.427 133.881 128.034 134.22 129.318 134.218L140.598 134.206L187.582 134.13Z" fill="#7C98E5"/>
<path d="M189.253 122.218L177.206 122.213L150.462 122.118L133.687 122.14C130.745 122.151 127.575 122.419 124.658 122.039C124.441 121.854 124.105 121.639 123.989 121.372C123.758 120.84 123.865 119.483 124.075 118.945C124.473 118.531 124.637 118.367 125.201 118.297C127.122 118.059 129.33 118.279 131.277 118.285L144.567 118.321L189.808 118.251L189.253 122.218Z" fill="#7C98E5"/>
<path d="M188.125 130.283L173.476 130.216L138.388 130.222L129.283 130.231C127.788 130.233 125.809 130.481 124.388 130.021C124.007 129.493 123.851 129.243 123.803 128.574C123.734 127.626 123.936 127.15 124.473 126.465C125.901 125.954 128.241 126.255 129.766 126.248L141.653 126.223L188.685 126.212L188.125 130.283Z" fill="#7C98E5"/>
<path d="M111.642 150.122L185.284 150.141L183.97 160.087L165.926 159.975L111.623 160.001L111.642 150.122Z" fill="#021B79"/>
<path d="M123.078 70.4987L123.135 53.9819C123.661 53.3504 132.312 48.1934 133.212 47.9431L156.221 48.0264L156.134 50.3786L156.098 58.5014L156.089 60.6108L133.3 60.6106L133.341 108.456L131.882 108.465L126.515 108.504C125.8 108.505 124.882 108.629 124.209 108.385C123.879 108.265 123.598 107.971 123.352 107.715C123.23 107.508 123.113 107.28 123.089 107.031C122.976 105.839 123.085 104.506 123.093 103.303L123.138 95.7656L123.078 70.4987Z" fill="#B51537"/>
<path d="M133.212 47.9431L156.221 48.0264L156.134 50.3786L156.098 58.5014L133.202 58.4946L133.212 47.9431Z" fill="#E83E47"/>
<path d="M141.586 53.0274L146.7 53.0162C147.393 53.0212 148.359 52.9283 148.958 53.3198C149.292 53.7536 149.356 54.0307 149.385 54.5899C149.059 55.1776 148.971 55.2723 148.416 55.6021C146.722 55.8315 144.802 55.676 143.086 55.6639C142.707 55.6613 141.766 55.7496 141.46 55.6123C141.278 55.5303 141.052 55.3031 140.885 55.1759C140.67 54.6685 140.563 54.382 140.737 53.8087C140.895 53.2891 141.163 53.2135 141.586 53.0274Z" fill="#FEFEFE"/>
<path d="M123.078 70.4987L131.9 61.012L131.882 108.465L126.515 108.504C125.8 108.505 124.882 108.629 124.209 108.385C123.879 108.265 123.598 107.971 123.352 107.715C123.23 107.508 123.113 107.28 123.089 107.031C122.976 105.839 123.085 104.506 123.093 103.303L123.138 95.7656L123.078 70.4987Z" fill="#E83E47"/>
<path d="M133.341 108.456L133.3 60.6106L156.089 60.6108L156.097 108.456L133.341 108.456Z" fill="#E83E47"/>
<path d="M144.175 73.0748C145.904 72.996 147.386 73.121 148.912 74.1394C150.465 75.1767 151.759 76.8915 152.154 78.8407C152.56 80.8453 152.237 83.0397 151.203 84.7659C150.028 86.7298 148.398 87.7609 146.321 88.2531C144.701 88.3916 143.276 88.1378 141.841 87.278C140.117 86.2453 138.877 84.2932 138.36 82.2634C137.92 80.5328 138.232 78.3951 139.056 76.8647C140.186 74.767 142.082 73.691 144.175 73.0748Z" fill="#F8F13E"/>
<path d="M141.268 84.2047C141.387 84.2998 141.518 84.4191 141.662 84.4716C143.107 84.9998 143.984 82.5831 145.125 81.916C145.671 82.1441 145.874 82.5503 146.242 83.0304C146.732 83.6716 147.133 84.3466 147.941 84.4288C148.34 84.4532 148.743 84.4294 149.09 84.6681C148.609 85.1666 148.085 85.5448 147.481 85.8506C146.085 86.5575 144.645 86.3822 143.236 85.8284C142.443 85.5169 141.64 85.0568 141.268 84.2047Z" fill="#E83E47"/>
<path d="M141.268 84.2047C140.801 83.865 140.587 83.2614 140.376 82.7149C139.822 81.2856 139.86 79.6647 140.423 78.2465C140.973 76.8612 142.081 75.8766 143.357 75.3358C144.277 74.946 145.366 74.8553 146.342 75.053C147.635 75.3149 149.013 76.1771 149.757 77.3615C150.736 78.9185 150.679 80.6534 150.357 82.4242C150.141 83.2031 149.709 83.9126 149.335 84.6142C148.762 82.9199 147.854 80.6776 146.664 79.4016L146.563 79.2971L146.665 79.0162C146.876 78.3764 147.011 77.4755 146.692 76.8557C146.459 76.4052 145.998 75.9664 145.525 75.8544C144.984 75.7263 144.322 75.8421 143.899 76.242C143.305 76.8036 143.17 77.5166 143.372 78.3151C143.396 78.4111 143.585 78.9626 143.568 79.0244C143.49 79.3243 143.109 79.833 142.952 80.112C142.254 81.3491 141.291 82.7149 141.268 84.2047Z" fill="#E83E47"/>
<path d="M156.134 50.3786L158.09 50.3645L172.518 50.3509C174.624 50.3513 176.969 50.1228 179.052 50.3711C179.426 50.4157 179.797 50.7013 180.06 50.9843C180.244 51.1825 180.516 51.589 180.602 51.8556C180.859 52.651 180.656 54.4477 180.655 55.3316L180.64 65.8185L180.653 93.0304L180.648 106.641C180.631 107.286 180.388 107.664 180.032 108.147C179.763 108.361 179.499 108.48 179.167 108.512C177.496 108.675 175.714 108.551 174.033 108.553L164.238 108.553L158.931 108.548C158.19 108.547 157.138 108.672 156.426 108.505L156.249 108.443L156.097 108.456L156.089 60.6108L156.097 58.5014L156.134 50.3786Z" fill="#0C4FAE"/>
<path d="M165.508 55.7619C166.082 55.5903 166.882 55.685 167.483 55.6806L171.782 55.7322C172.312 56.1383 172.333 56.1631 172.515 56.8361C172.445 57.3863 172.267 57.6052 171.902 57.9827C171.169 58.2116 170.285 58.1171 169.524 58.1193C168.216 58.1228 166.88 58.1866 165.579 58.0156C165.165 57.6586 165.096 57.5623 164.899 57.0315C164.992 56.285 164.993 56.2661 165.508 55.7619Z" fill="#FEFEFE"/>
<path d="M161.967 77.6368L171.989 77.6104C172.933 77.6098 174.566 77.3505 175.375 77.7686C175.429 78.3823 175.489 78.441 175.154 78.9259L165.599 78.9547C164.474 78.9563 162.856 79.2072 161.831 78.8088C161.795 78.287 161.737 78.1092 161.967 77.6368Z" fill="#FEFEFE"/>
<path d="M161.811 82.9102C163 82.6053 164.634 82.8191 165.869 82.8182L175.244 82.8551C175.513 83.3209 175.399 83.5784 175.335 84.0952C173.97 84.3859 172.291 84.1776 170.882 84.18L164.964 84.1838C163.961 84.1831 162.8 84.3132 161.818 84.0823C161.635 83.6712 161.734 83.3435 161.811 82.9102Z" fill="#FEFEFE"/>
<path d="M156.134 50.3786L158.09 50.3645L158.062 61.3443L175.986 61.3603L180.303 61.3577C180.647 61.778 180.498 62.3625 180.472 62.9146C180.463 63.1115 180.468 63.0403 180.426 63.2495L180.248 63.3367C179.841 63.5196 179.177 63.4356 178.733 63.4394L175.349 63.4596L158.074 63.4752L158.083 95.7489L158.106 104.395C158.108 105.569 158.291 107.198 158.007 108.308L156.249 108.443L156.097 108.456L156.089 60.6108L156.097 58.5014L156.134 50.3786Z" fill="#2C377F"/>
<path d="M175.986 61.3603L180.303 61.3577C180.647 61.778 180.498 62.3625 180.472 62.9147C180.463 63.1115 180.468 63.0403 180.426 63.2495L162.259 63.3251L159.357 63.3293C159.177 63.3293 158.589 63.4 158.443 63.3297C158.323 63.2721 158.228 63.1673 158.121 63.086L158.141 61.7389C158.241 61.6607 158.325 61.548 158.443 61.5038C158.666 61.4199 159.296 61.5084 159.551 61.5095L162.417 61.5165L175.986 61.3603Z" fill="#15296B"/>
</g>
<defs>
<clipPath id="clip0_10_1274">
<rect width="370" height="225" fill="white"/>
</clipPath>
</defs>
</svg>
