<svg width="351" height="250" viewBox="0 0 351 250" fill="none" xmlns="http://www.w3.org/2000/svg">
<g clip-path="url(#clip0_6_773)">
<path d="M0 0H351V250H0V0Z" fill="#FEFEFE"/>
<path d="M35.787 194.682C36.2207 194.591 36.6589 194.55 37.0926 194.657C37.751 194.819 38.3199 195.323 38.6378 195.91C38.9391 196.467 38.9915 197.214 38.804 197.818C38.4937 198.821 37.7053 199.322 36.8515 199.809C36.3456 199.853 35.9067 199.84 35.4272 199.651C34.7382 199.378 34.3465 198.851 34.0668 198.188C33.8286 197.623 33.8337 196.83 34.0775 196.262C34.4312 195.436 34.9741 195.012 35.787 194.682Z" fill="#F5C950"/>
<path d="M89.2232 158.602C89.5881 158.548 89.9979 158.511 90.3557 158.616C91.067 158.824 91.7472 159.322 92.0982 159.977C92.4571 160.647 92.5956 161.464 92.3381 162.192C91.991 163.174 91.1661 163.585 90.286 163.981C89.781 163.99 89.2369 163.942 88.7576 163.777C88.1489 163.567 87.6667 163.131 87.4013 162.546C87.0508 161.772 86.9524 160.899 87.3169 160.114C87.7039 159.281 88.402 158.895 89.2232 158.602Z" fill="#F5C950"/>
<path d="M35.3449 112.537C35.8658 112.5 36.4195 112.447 36.9161 112.643C37.6272 112.923 38.3032 113.594 38.5955 114.291C38.8571 114.915 38.8449 115.862 38.5477 116.472C38.1497 117.289 37.5973 117.705 36.7624 118.011C36.3105 118.071 35.7116 118.066 35.2654 117.958C34.6336 117.807 34.0393 117.296 33.705 116.751C33.2698 116.042 33.2191 115.24 33.4671 114.457C33.7706 113.499 34.5108 112.995 35.3449 112.537Z" fill="#0575E6"/>
<path d="M217.463 32.9173C217.916 32.7776 218.633 32.7586 219.097 32.8758C219.875 33.0718 220.554 33.6358 220.93 34.336C221.315 35.0543 221.297 35.7825 221.031 36.5347C220.696 37.4815 219.992 37.9688 219.113 38.3558C218.6 38.4117 217.961 38.4195 217.466 38.2608C216.775 38.0396 216.137 37.4754 215.816 36.8336C215.463 36.126 215.392 35.4 215.684 34.6587C216.026 33.7911 216.627 33.2847 217.463 32.9173Z" fill="#F5C950"/>
<path d="M82.6477 198.036C83.174 198.006 83.7365 198.044 84.2365 198.221C84.9456 198.473 85.5255 199.111 85.8016 199.798C86.1169 200.583 86.0887 201.394 85.7424 202.163C85.3825 202.963 84.6737 203.424 83.8938 203.748C83.3585 203.832 82.9101 203.864 82.389 203.684C81.6481 203.427 80.9233 202.81 80.6125 202.085C80.3031 201.363 80.3202 200.507 80.6159 199.784C81.0048 198.833 81.7736 198.442 82.6477 198.036Z" fill="#0575E6"/>
<path d="M48.5064 124.157C48.937 124.115 49.4407 124.073 49.8735 124.128C50.5307 124.21 51.2036 124.766 51.5739 125.3C52.0451 125.979 52.2952 126.831 52.0813 127.651C51.8116 128.685 51.0241 129.297 50.1305 129.759C49.7078 129.79 49.2376 129.85 48.8171 129.789C48.0632 129.678 47.2642 129.175 46.8525 128.531C46.4445 127.893 46.3275 127.018 46.5272 126.285C46.8366 125.15 47.5499 124.698 48.5064 124.157Z" fill="#F46069"/>
<path d="M116.084 128.279C116.52 128.266 116.976 128.297 117.4 128.405C118.095 128.584 118.785 129.074 119.148 129.693C119.597 130.458 119.662 131.241 119.394 132.076C119.032 133.204 118.211 133.685 117.204 134.191C116.642 134.222 116.174 134.223 115.639 134.011C114.736 133.654 114.112 133.042 113.784 132.124C113.527 131.403 113.589 130.59 113.935 129.91C114.43 128.936 115.095 128.595 116.084 128.279Z" fill="#0575E6"/>
<path d="M257.961 155.303C258.538 155.222 259.221 155.137 259.787 155.305C260.653 155.562 261.314 156.259 261.74 157.028C262.119 157.714 262.178 158.77 261.926 159.51C261.519 160.699 260.712 161.245 259.632 161.758C259.135 161.781 258.504 161.854 258.027 161.715C257.17 161.465 256.436 160.841 256.01 160.062C255.594 159.295 255.412 158.419 255.689 157.575C256.095 156.347 256.854 155.849 257.961 155.303Z" fill="#0575E6"/>
<path d="M313.474 147.145L313.697 147.138C314.351 147.761 314.725 150.282 314.967 151.244C316.453 151.378 318.025 151.894 319.43 152.378C318.003 153.035 316.431 153.378 314.911 153.757L313.648 157.917L313.408 157.922C312.799 157.392 312.334 154.939 312.165 154.098L312.131 153.922C311.751 153.602 311.159 153.505 310.689 153.364L307.541 152.353C308.917 151.836 310.393 151.421 311.859 151.288L312.065 151.271L313.474 147.145Z" fill="#0575E6"/>
<path d="M136.965 116.374L138.413 121.179L143.355 122.437C141.851 123.107 140.076 123.489 138.498 123.986L136.925 129.132L135.286 123.869L130.253 122.49L135.347 121.195L136.965 116.374Z" fill="#0575E6"/>
<path d="M199.553 16.2009C200.284 17.5537 200.759 19.227 201.342 20.6657L205.508 22.2655C205.277 22.5242 204.772 22.6379 204.44 22.7686L201.305 23.9336L199.563 28.4283L197.739 23.8786L193.165 22.365L197.568 20.7054C198.224 20.3244 199.246 17.0162 199.553 16.2009Z" fill="#0575E6"/>
<path d="M217.512 115.893L246.983 115.913C246.88 116.96 246.833 118.071 246.615 119.101C246.07 121.682 244.657 124.229 242.937 126.214C240.562 128.954 236.979 131.026 233.305 131.277C229.225 131.557 225.449 130.262 222.397 127.531C218.773 124.289 217.782 120.534 217.512 115.893Z" fill="#F5C950"/>
<path d="M130.232 16.9838C132.74 16.6003 135.332 17.2936 137.452 18.6291C140.052 20.2664 141.859 22.7774 142.513 25.773C143.147 28.6766 142.499 31.7691 140.89 34.2491C139.132 36.9591 136.301 38.4791 133.201 39.1446C130.261 39.4583 127.539 38.991 125.071 37.2615C122.608 35.5357 120.916 32.8206 120.399 29.865C119.899 27.0018 120.647 24.0031 122.333 21.6439C124.291 18.9048 126.981 17.5213 130.232 16.9838Z" fill="#0575E6"/>
<path d="M137.253 24.7093C137.699 24.7166 137.793 24.8172 138.161 25.0513C138.316 25.3511 138.495 25.5479 138.447 25.8941C138.41 26.1588 138.313 26.4017 138.132 26.6019C137.522 27.2781 136.478 27.8475 135.738 28.3907L130.562 32.2027L126.55 29.4742C126.22 29.2506 125.75 28.9923 125.524 28.6612C125.331 28.3792 125.335 28.0157 125.462 27.7017C125.666 27.1939 125.937 27.0701 126.398 26.866C127.629 27.0726 129.363 28.6016 130.435 29.3218C131.167 29.0487 131.853 28.4158 132.482 27.9522C133.933 26.8834 135.477 25.5601 137.095 24.7833L137.253 24.7093Z" fill="#FEFEFE"/>
<path d="M263.257 221.4L273.317 221.284L302.496 221.261C306.689 221.311 311.174 221.001 315.327 221.453C316.407 221.572 317.445 221.652 318.301 222.403C318.852 222.885 319.08 223.462 319.133 224.18C319.266 225.962 319.616 229.509 318.301 230.861C317.675 231.505 316.742 231.867 315.858 231.952C313.905 232.14 311.827 231.997 309.862 231.995L298.759 231.999L261.483 231.994L261.495 224.69C261.5 224.287 261.385 223.068 261.581 222.754C261.965 222.143 262.565 221.6 263.257 221.4Z" fill="#021B79"/>
<path d="M314.852 208.594C315.349 208.961 316.111 209.426 316.218 210.072C316.522 211.914 316.257 214.218 316.25 216.098C316.245 217.385 316.429 218.983 316.174 220.218C316.11 220.527 315.915 220.771 315.719 221.008L315.327 221.453C311.173 221.001 306.689 221.311 302.496 221.261L273.317 221.284L263.257 221.4C264.068 221.067 265.24 221.647 266.009 221.187C265.813 221.029 265.644 220.851 265.49 220.652C265.26 220.354 265.056 220.016 265 219.638C264.782 218.153 264.949 216.361 264.949 214.847C264.949 213.51 264.785 211.887 264.988 210.583C265.142 209.606 265.778 209.202 266.515 208.644C268.601 208.968 270.87 208.758 272.982 208.745L283.86 208.713L314.123 208.784C314.419 208.775 314.588 208.718 314.852 208.594Z" fill="#0575E6"/>
<path d="M311.33 213.492C311.7 213.396 312.162 213.326 312.539 213.395C313.139 213.503 313.58 213.877 313.9 214.375C314.17 214.793 314.248 215.493 314.118 215.987C313.913 216.759 313.357 217.147 312.696 217.496C312.356 217.524 311.991 217.563 311.656 217.505C311.134 217.417 310.569 217.004 310.275 216.575C309.969 216.123 309.803 215.535 309.942 215C310.133 214.266 310.686 213.827 311.33 213.492Z" fill="#021B79"/>
<path d="M268.738 212.759L305.125 212.827L305.13 217.842L268.792 217.879C268.603 217.51 268.699 216.859 268.701 216.439L268.738 212.759Z" fill="#FEFEFE"/>
<path d="M248.814 64.5021L233.711 56.972C233.69 55.6075 233.336 53.5155 234.258 52.4471C234.997 52.1925 235.797 52.2586 236.57 52.2535L240.589 52.2337L256.808 52.2115C257.231 52.9039 257.18 53.8338 257.62 54.5853C258.472 56.0411 259.899 57.2169 261.551 57.6295C263.275 58.0597 265.115 57.756 266.611 56.8128C268.265 55.7696 269.022 53.9879 269.44 52.1654L293.242 52.3463C293.538 53.599 293.266 55.2391 293.687 56.3724L293.773 56.5895C293.778 58.5306 294.037 74.4032 293.584 74.9535L292.813 74.9288C292.554 74.2457 292.671 73.3236 292.669 72.5978C292.657 70.6517 292.835 68.5167 292.6 66.6034L292.551 57.0611L277.324 64.495L263.02 71.4969C261.588 70.9716 260.193 70.0631 258.815 69.3944L248.814 64.5021Z" fill="#021B79"/>
<path d="M264.865 206.594L264.883 206.463C265.171 203.979 264.944 201.24 264.949 198.729C264.949 197.954 264.836 196.953 264.995 196.209C265.098 195.717 265.402 195.351 265.781 195.035C266.102 194.768 266.344 194.61 266.762 194.578C269.788 194.348 272.933 194.524 275.968 194.532L293.447 194.552L308.422 194.528C310.344 194.532 312.701 194.281 314.581 194.581C315.078 194.66 315.552 194.847 315.863 195.259C316.069 195.535 316.253 195.874 316.314 196.216C316.561 197.625 316.37 199.435 316.375 200.883C316.38 202.585 316.595 204.637 316.343 206.303C316.255 206.882 316.022 207.025 315.609 207.401L314.848 207.565L314.852 208.594C314.588 208.718 314.419 208.775 314.123 208.784L283.86 208.713L272.982 208.745C270.87 208.758 268.601 208.968 266.515 208.644L266.405 208.589C265.453 208.092 265.164 207.569 264.865 206.594Z" fill="#0575E6"/>
<path d="M311.981 199.299C312.378 199.31 312.716 199.349 313.073 199.54C313.584 199.814 314.03 200.327 314.152 200.905C314.265 201.442 314.238 202.103 313.91 202.562C313.46 203.19 312.911 203.394 312.182 203.496C311.812 203.514 311.396 203.476 311.068 203.294C310.53 202.993 310.087 202.371 309.977 201.766C309.871 201.178 310.055 200.626 310.41 200.157C310.836 199.596 311.308 199.419 311.981 199.299Z" fill="#021B79"/>
<path d="M264.865 206.594C265.394 206.911 265.938 207.22 266.557 207.304C269.421 207.691 272.63 207.415 275.533 207.416C279.26 207.417 314.028 207.098 314.848 207.565L314.852 208.594C314.588 208.718 314.419 208.775 314.123 208.784L283.86 208.713L272.982 208.745C270.87 208.758 268.601 208.968 266.515 208.644L266.405 208.589C265.453 208.092 265.164 207.569 264.865 206.594Z" fill="#021B79"/>
<path d="M268.586 198.37L305.289 198.356L305.27 203.491L268.576 203.575L268.586 198.37Z" fill="#FEFEFE"/>
<path d="M61.2367 208.857C63.8168 208.807 66.325 209.417 68.6097 210.608C71.2806 212.001 73.8803 214.412 75.2774 217.107C76.084 218.663 76.5138 220.233 77.0386 221.888L80.1024 221.331C82.5552 221.108 85.443 222.342 87.2609 223.927C89.8772 226.207 90.8052 228.72 91.0374 232.064L61.6134 232.078L40.0482 232.066L33.9994 232.088C33.3337 232.091 32.2745 232.25 31.6726 231.999C31.4027 229.948 31.385 227.896 31.95 225.89C32.9366 222.385 35.3486 219.292 38.5502 217.538C41.6465 215.843 44.7676 215.692 48.1092 216.659C48.6102 215.773 49.2227 214.943 49.8933 214.176C52.8379 210.809 56.8284 209.165 61.2367 208.857Z" fill="#0575E6"/>
<path d="M231.402 100.521L231.37 55.7223L221.629 50.9684L249.489 36.4346L257.706 32.1329C259.319 31.286 261.077 30.493 262.56 29.438L304.675 51.242L294.444 56.172C294.448 54.9227 294.767 52.7562 293.814 51.8023C293.557 51.5443 293.266 51.3614 292.899 51.3148C290.772 51.0438 288.366 51.2762 286.202 51.2757L271.181 51.2791C270.906 51.2789 269.665 51.3831 269.479 51.2784C269.345 51.2025 269.423 50.9747 269.391 50.8231C269.259 50.1605 269.105 49.525 268.814 48.912C267.852 46.8934 265.367 45.2125 263.084 45.3236C261.414 45.4051 259.645 46.1739 258.524 47.4212C257.518 48.5387 257.175 49.8509 256.857 51.2752L241.155 51.2711C238.994 51.2706 236.438 51.002 234.314 51.3062C233.978 51.3543 233.644 51.5348 233.397 51.764C232.943 52.1859 232.833 52.7772 232.787 53.368C232.646 55.1866 232.783 57.1092 232.794 58.9364L232.856 70.1949L232.846 100.285L232.852 100.533C237.3 101.079 240.946 102.81 243.784 106.389C245.673 108.773 246.557 111.42 247.002 114.387L246.983 115.913L217.512 115.894L217.586 114.396C218.042 111.099 218.989 108.376 221.156 105.774C223.713 102.704 227.451 100.881 231.402 100.521Z" fill="#021B79"/>
<path d="M217.586 114.396C218.042 111.099 218.989 108.376 221.156 105.774C223.713 102.704 227.451 100.881 231.402 100.521L231.408 114.409L217.586 114.396Z" fill="#0575E6"/>
<path d="M232.852 100.533C237.3 101.079 240.946 102.81 243.784 106.389C245.673 108.773 246.557 111.42 247.002 114.387L232.826 114.407L232.852 100.533Z" fill="#0575E6"/>
<path d="M293.773 56.5894L293.795 56.7684C294.047 58.8253 293.893 61.0382 293.895 63.1122L293.9 75.0189C294.823 75.0219 298.338 74.7577 298.869 75.2396L298.859 76.8304L298.886 80.7826C300 81.1725 300.918 81.8234 301.985 82.2372L305.101 80.213C305.647 79.8302 306.31 79.2206 306.951 79.0341L310.975 83.0958C311.506 83.6146 312.503 84.3622 312.816 85.0131L310.197 89.6569C310.505 90.2611 310.828 90.8676 311.066 91.5023C311.125 91.6547 311.262 92.2209 311.35 92.3158C311.357 92.3236 311.626 92.4186 311.668 92.4308L316.801 93.5136L316.845 102.677C315.244 102.987 312.99 103.184 311.553 103.876L311.499 104.083C311.298 104.845 311.012 105.542 310.694 106.259C310.635 106.39 310.358 106.902 310.368 106.984C310.385 107.137 310.718 107.616 310.804 107.774L312.231 110.324L313.288 112.164L307.544 118.007L301.725 114.995L298.279 116.763L298.193 122.095L288.78 122.076L288.738 116.997L285.47 115.607L281.615 118.973L278.188 115.706C277.633 115.175 277.048 114.481 276.419 114.047C276.23 114.211 275.976 114.505 275.763 114.617C275.271 114.877 273.508 114.708 272.899 114.71L263.079 114.724L261.693 114.685C258.137 114.586 253.486 115.724 250.706 112.95C249.736 111.983 249.051 110.645 248.862 109.287C248.691 108.024 248.833 106.547 248.833 105.266L248.836 95.9233L248.813 64.5021L258.815 69.3944C260.193 70.0631 261.588 70.9716 263.02 71.4969L277.324 64.495L292.551 57.0611L292.6 66.6034C292.835 68.5167 292.657 70.6517 292.669 72.5978C292.671 73.3236 292.554 74.2457 292.813 74.9288L293.584 74.9535C294.037 74.4032 293.778 58.5306 293.773 56.5894Z" fill="#0575E6"/>
<path d="M274.798 83.0721L277.782 87.4418C277.266 88.1102 276.744 88.7633 276.328 89.4996L272.686 85.41L274.798 83.0721Z" fill="#021B79"/>
<path d="M276.054 106.913C276.284 107.348 277.121 108.479 277.168 108.878C277.217 109.284 276.898 110.214 276.825 110.671C276.656 111.71 276.693 112.802 276.414 113.821L276.384 113.911C275.195 112.979 274.098 111.746 273.004 110.694L276.054 106.913Z" fill="#021B79"/>
<path d="M277.324 64.495L292.551 57.0611L292.6 66.6034L292.578 74.9823L288.067 74.9752L288.084 80.6896C287.059 80.9537 286.131 81.3292 285.164 81.7557L280.33 76.9408L277.444 79.6495L277.324 64.495Z" fill="#FEFEFE"/>
<path d="M292.074 87.0846C295.048 86.963 297.349 87.4738 299.882 89.1454C302.396 90.8041 304.012 93.5236 304.562 96.4476C305.101 99.3148 304.381 102.277 302.724 104.652C300.634 107.649 298.093 109.106 294.539 109.729C291.643 109.876 289.183 109.253 286.743 107.677C284.41 106.17 282.729 103.629 282.203 100.908C281.593 97.7467 282.305 94.4108 284.158 91.7765C286.063 89.0712 288.87 87.64 292.074 87.0846Z" fill="#021B79"/>
<path d="M261.693 114.685L263.079 114.724L263.088 143.815L286.136 143.787C286.29 143.372 286.447 142.94 286.677 142.56C287.406 141.352 288.613 140.291 290.008 139.952C291.222 139.657 292.632 139.96 293.67 140.635C294.789 141.359 295.577 142.563 295.812 143.87C296.103 145.486 295.518 146.613 294.617 147.894L308.951 178.064L312.383 178.078C310.165 183.369 306.413 187.299 301.065 189.553C295.085 192.072 287.404 192.242 281.378 189.774C275.684 187.441 271.827 183.733 269.418 178.058L274.096 178.035C275.227 174.888 276.756 171.798 278.132 168.75L284.058 155.563L286.897 149.178C287.002 148.914 287.392 148.165 287.389 147.925C287.387 147.848 287.037 147.339 286.988 147.254C286.618 146.631 286.324 146.073 286.119 145.373L286.065 145.187L248.762 145.185L236.891 145.186C234.777 145.188 232.585 145.079 230.478 145.235C229.733 145.29 229.073 145.441 228.414 145.796L228.287 145.865C227.402 146.344 226.756 146.971 226.051 147.681C228.885 148.736 231.727 149.607 234.469 150.908C238.027 152.594 241.381 155.035 244.163 157.809C249.854 163.483 253.486 171.217 254.402 179.171C254.698 181.733 254.524 184.452 254.524 187.034L254.529 201.271L254.514 232.022L229.094 232.024L229.035 203.478L229.018 196.797C229.015 196.397 229.128 195.352 229.004 195.024C228.965 194.92 228.869 194.847 228.801 194.758L228.281 194.7L228.007 194.969L227.985 232.03L177.651 232.019L216.438 184.253C215.735 182.657 214.209 180.985 213.179 179.568L206.307 169.983L214.039 169.979C215.423 169.977 216.925 170.091 218.293 169.887L218.604 169.432C218.416 166.149 217.485 162.675 216.888 159.43L213.968 143.214L224.488 147.034L225.226 146.276C226.433 145.071 227.822 144.187 229.514 143.87C230.524 143.681 231.703 143.786 232.736 143.782L238.761 143.773L261.686 143.791L261.693 114.685Z" fill="#021B79"/>
<path d="M288.669 148.835L290.287 149.425L290.329 178.03L277.097 178.034C276.595 178.043 276.125 178.076 275.64 177.924C275.79 177.158 276.233 176.361 276.548 175.645L278.585 171.078L288.669 148.835Z" fill="#FEFEFE"/>
<path d="M293.408 148.971C293.907 149.622 294.255 150.603 294.615 151.347L296.965 156.25L304.572 172.038L306.594 176.306C306.763 176.665 307.184 177.326 307.243 177.692C307.262 177.803 307.221 177.916 307.211 178.029L306.139 178.069L291.685 178.033L291.69 157.524L291.692 152.331C291.692 151.393 291.602 150.348 291.761 149.426L293.408 148.971Z" fill="#FEFEFE"/>
<path d="M87.6077 124.444C88.0657 124.42 88.459 124.396 88.905 124.514C89.0641 125.666 88.9865 126.896 88.9919 128.06L89.0239 135.486C89.0296 136.77 88.9297 138.153 89.0849 139.425L89.0949 143.645L109.514 143.641L116.422 143.649C118.02 143.653 119.731 143.549 121.29 143.971C123.217 144.492 124.342 145.757 125.924 146.814L138.675 143.018L133.475 168.573C133.364 169.153 133.289 169.352 133.632 169.855C134.535 170.268 136.415 170.022 137.43 170.021L146.316 169.996L136.245 183.804L174.957 232.018L124.244 232.02L124.212 195.623C123.892 195.283 123.879 195.224 123.398 195.14L123.017 195.433C122.709 196.238 122.886 197.625 122.885 198.51L122.885 205.431L122.882 232.018L96.8262 232.043L96.8226 197.437L96.8169 186.877C96.8147 184.648 96.7092 182.344 96.9643 180.127C97.3177 177.056 98.1335 174.013 99.2969 171.15C103.88 159.869 113.313 152.183 124.327 147.54L124.022 147.249C123.01 146.303 121.625 145.457 120.233 145.257C118.341 144.985 116.162 145.183 114.235 145.182L101.935 145.182L78.9113 145.183L65.9331 145.22C65.562 146.077 65.1089 146.826 64.5956 147.605L78.1397 177.929L81.5763 177.925L80.3774 181.089C78.0834 185.759 73.2453 188.974 68.4214 190.563C62.7023 192.446 56.0806 191.804 50.7385 189.093C46.0164 186.697 42.7954 182.914 41.1672 177.903L44.0817 177.908L58.2211 147.798C57.8148 147.297 57.3989 146.748 57.1348 146.155C56.6333 145.028 56.6012 143.794 57.1067 142.662C57.6126 141.53 58.5121 140.627 59.6887 140.196C60.8374 139.774 62.0571 139.812 63.1672 140.323C64.5719 140.97 65.3072 141.99 65.8151 143.413L65.8951 143.64L87.6011 143.662L87.6077 124.444Z" fill="#021B79"/>
<path d="M59.4589 148.684L59.5752 148.663C59.98 148.666 60.2253 148.758 60.5068 149.026L60.5183 177.908L46.7456 177.907C46.3865 177.929 46.1591 177.904 45.8127 177.806C46.0169 176.59 46.9238 175.189 47.4461 174.058L52.4152 163.514L59.4589 148.684Z" fill="#FEFEFE"/>
<path d="M62.8823 148.512C63.187 148.439 63.2433 148.421 63.5392 148.512L74.8031 173.878L75.9172 176.515C76.0262 176.773 76.3375 177.308 76.3615 177.569C76.3698 177.66 76.2986 177.741 76.267 177.827L75.6243 177.875L62.0165 177.942L61.9911 157.123L61.922 151.985C61.899 150.975 61.772 149.848 61.9387 148.854L62.8823 148.512Z" fill="#FEFEFE"/>
<path d="M87.6077 124.444C84.4974 123.9 81.3866 123.841 78.2661 123.143C68.4968 120.957 59.1946 114.839 53.4334 106.659C46.6401 97.0146 43.8411 84.8134 45.9936 73.1952C48.1031 61.8085 54.952 51.732 64.5095 45.2747C73.5613 39.159 85.4677 36.6712 96.2256 38.753C107.972 41.026 118.529 47.4749 125.273 57.4557C131.431 66.5697 133.79 78.4718 131.653 89.234C129.439 100.388 123.316 110.392 113.736 116.757C106.392 121.636 97.9297 124.226 89.1025 124.337L89.0849 139.425C88.9297 138.153 89.0296 136.77 89.024 135.486L88.9919 128.06C88.9865 126.896 89.0641 125.666 88.905 124.514C88.459 124.396 88.0657 124.42 87.6077 124.444Z" fill="#5CBCF7"/>
<path d="M71.541 111.181L69.2042 111.175C71.262 105.569 73.2427 100.14 73.8455 94.1427C73.8938 93.6627 74.1123 92.5372 73.9261 92.1129C73.4737 91.0819 72.5399 90.0018 71.9407 89.0199C69.9062 85.6852 68.3637 82.0363 67.82 78.1498C67.0123 72.3754 68.3637 66.5147 71.9101 61.8453C75.358 57.3057 80.3266 54.4935 85.9541 53.71L85.9898 48.7769C85.2215 48.6702 84.6636 48.7056 84.0652 48.1986C83.9293 47.6973 83.9144 47.6055 84.0593 47.1102C84.1621 47.0318 84.4761 46.7359 84.5792 46.7144C85.0748 46.6114 85.955 46.7723 86.5014 46.7738C88.4899 46.7789 90.5295 46.6707 92.5117 46.7891C93.1961 46.8301 93.2932 46.8504 93.736 47.3668C93.7654 47.8966 93.7769 47.9532 93.4915 48.3953C92.9513 48.7391 92.183 48.6475 91.5578 48.6592L91.5669 53.7498L92.3773 53.8629C100.803 55.3075 107.408 61.6851 109.518 69.8993C109.727 70.7106 109.887 71.5548 109.944 72.3905C109.999 73.1864 109.841 74.0331 110.331 74.7123L110.491 74.9383C111.742 76.8981 112.826 79.0475 113.965 81.08C114.478 81.9945 115.36 83.2252 115.637 84.2169C115.703 84.4532 115.681 84.6669 115.629 84.901C115.165 85.3248 114.541 85.4623 113.954 85.6537C112.724 85.8366 111.518 86.1246 110.351 86.5573C110.799 87.4679 111.698 88.6715 111.562 89.6888C111.253 90.1996 110.762 90.7799 110.551 91.3134C110.316 91.9064 110.345 92.8656 110.322 93.5045C110.953 94.9979 110.826 96.195 110.203 97.6832C109.637 99.0329 108.57 100.058 107.215 100.612C106.228 101.016 105.167 100.932 104.12 100.944L99.3555 100.959L99.39 111.184L97.167 111.181H71.541Z" fill="#021B79"/>
<path d="M85.8099 73.8058L85.7149 73.9818C85.4672 74.4337 85.2657 74.8346 84.7324 74.983C84.2127 75.1275 83.6654 75.0819 83.1918 74.8121C82.7204 74.5433 82.3474 74.0707 82.2641 73.5294C82.167 72.8956 82.2705 72.2152 82.6602 71.6927C83.0924 71.1131 83.7479 70.8097 84.4541 70.7394C85.7269 70.6126 86.869 70.8541 87.8544 71.682L88.6774 72.3783C89.9125 71.2396 91.0949 70.6119 92.8233 70.7081C93.5659 70.7494 94.3318 71.0082 94.8062 71.6048C95.2808 72.2022 95.4257 72.9596 95.2661 73.7005C95.1667 74.161 94.7699 74.6637 94.3484 74.8749C93.9436 75.0775 93.387 75.1439 92.9576 74.983C92.6018 74.8495 92.321 74.6246 92.1619 74.2757C92.0444 74.0174 91.9967 73.7215 91.947 73.4439C91.7881 73.336 91.7585 73.2552 91.5603 73.2914C90.9131 73.4098 90.4235 73.7032 89.8611 74.0267L89.9619 76.5392C89.8141 77.0904 89.9254 77.9044 89.9274 78.482L89.9475 83.786L87.6266 83.7731L87.6016 74.128C87.4711 73.9872 87.3759 73.8824 87.2073 73.786C86.8019 73.5543 86.2343 73.3212 85.8057 73.4762L85.8099 73.8058Z" fill="#FEFEFE"/>
<path d="M85.1673 85.4039L94.086 85.3695L94.0914 87.7567C93.7279 87.9459 93.188 87.8917 92.7851 87.9052L89.4638 87.9481L89.3287 88.2355C89.9616 88.6722 93.1576 88.3798 94.0978 88.3776C94.1039 89.3768 94.1832 90.4386 94.0229 91.4247C93.6797 91.4765 93.4317 91.526 93.114 91.6771C93.172 92.4262 93.6227 92.0553 94.0987 92.5958L94.0985 93.88C94.076 94.7775 93.8393 95.11 93.208 95.7118C92.5751 96.0121 91.8919 95.9323 91.207 95.9352L87.6182 95.9291C86.7153 95.9235 85.6287 96.0307 84.7507 95.861C84.296 95.7733 84.0022 95.4552 83.754 95.0807C83.1343 94.1461 83.2464 89.7887 83.5004 88.6139C83.8647 88.5724 84.0916 88.5438 84.3997 88.3209C84.1613 87.7433 83.8299 88.0709 83.3795 87.6798C83.3592 87.0211 83.1901 86.0792 83.5509 85.5099L85.1673 85.4039Z" fill="#FEFEFE"/>
<path d="M85.5497 79.8685L85.497 82.757C82.6927 81.6512 80.2367 79.4686 79.0283 76.693C77.9887 74.3058 77.9067 71.5104 78.8679 69.0868C79.941 66.3817 82.0495 64.1239 84.7454 62.9832C87.4016 61.8595 90.2177 61.8824 92.8754 62.9688C95.3466 63.9791 97.5982 65.9264 98.6385 68.4171C99.7042 70.9693 99.9267 74.1947 98.8089 76.776C97.4607 79.8895 95.0377 81.559 91.9763 82.7518L91.9504 79.941C93.8317 79.4015 95.35 78.3285 96.297 76.5904C97.3038 74.7425 97.5006 72.4549 96.8928 70.4454C96.2703 68.3885 94.8 66.544 92.8903 65.5323C90.8394 64.4461 88.3631 64.2096 86.1476 64.9342C84.1753 65.5792 82.4301 66.9415 81.5009 68.8194C80.5661 70.7084 80.2318 73.1188 80.948 75.1393C81.6933 77.243 83.4021 78.8746 85.4092 79.8053L85.5497 79.8685Z" fill="#FEFEFE"/>
<path d="M176.268 143.725L176.702 143.62L185.456 151.495L179.677 158.934L176.353 158.875L173.028 159.025C172.241 158.478 171.526 157.182 170.964 156.39L167.184 151.251L176.268 143.725Z" fill="#0575E6"/>
<path d="M180.604 160.395L186.597 152.488C187.043 152.488 189.581 155.273 190.073 155.763L194.512 160.081L203.464 147.752L185.526 200.778C185.075 200.064 184.155 189.5 183.963 187.903L180.604 160.395Z" fill="#FEFEFE"/>
<path d="M166.187 198.671L147.703 146.746L157.159 160.426L166.052 152.177L172.115 160.389L170.971 167.787L167.989 187.323L166.791 195.651C166.653 196.554 166.622 197.888 166.187 198.671Z" fill="#FEFEFE"/>
<path d="M172.115 160.389C172.784 160.613 179.957 160.71 180.514 160.452L180.604 160.395L183.963 187.903C184.155 189.5 185.075 200.064 185.526 200.778L176.391 225.093C175.606 224.109 175.147 222.281 174.657 221.091L166.187 198.671C166.622 197.888 166.653 196.554 166.791 195.651L167.989 187.323L170.971 167.787L172.115 160.389Z" fill="#0575E6"/>
<path d="M144.437 140.066C145.841 139.378 147.514 139.176 148.871 138.434C150.277 137.665 151.775 136.037 153.029 134.973L159.992 129.174L160.012 116.958C156.427 114.054 153.569 110.467 151.707 106.233C151.162 104.995 150.716 103.71 150.345 102.411C150.271 102.151 150.37 101.756 150.131 101.628C149.804 101.454 148.262 101.603 147.762 101.515C144.444 100.928 141.477 97.9606 141.098 94.5824C140.834 92.2311 141.424 90.0673 142.921 88.2257C143.526 87.4816 144.227 86.9408 145.009 86.3934C143.658 77.4108 141.491 66.0399 147.262 58.1239C149.543 54.9947 152.89 52.9583 156.584 51.9058C158.538 46.6382 160.818 42.263 166.19 39.8023C169.461 38.3038 173.18 37.962 176.741 38.0032C180.831 38.0506 184.918 38.5672 188.758 40.0159C199.05 43.8992 208.205 51.6917 219.641 52.045C217.243 57.2152 212.658 62.7345 207.656 65.5675C208.206 67.1024 208.644 68.6139 208.76 70.2525C209.04 74.2013 208.433 78.3878 207.858 82.2945L207.342 85.5553C207.316 85.7069 207.161 86.371 207.2 86.4586C207.331 86.7535 208.399 87.4254 208.697 87.7418C210.981 90.1698 211.522 93.9208 210.076 96.9061C209.069 98.9833 207.397 100.423 205.215 101.156C204.149 101.513 203.006 101.565 201.888 101.568C200.588 106.466 198.611 110.694 195.021 114.347L192.892 116.33C192.706 116.496 192.194 116.895 192.114 117.097C191.868 117.721 192.038 119.398 192.035 120.109L192.025 129.662L203.729 138.897C204.608 139.657 206.79 139.587 207.332 140.555L207.612 140.26C208.091 140.34 208.411 140.502 208.829 140.742L224.565 145.569C227.351 146.478 230.291 147.231 232.979 148.392C239.168 151.066 244.41 156.014 247.638 161.901C249.012 164.405 250.125 167.137 250.72 169.931C251.281 172.559 251.415 175.367 251.702 178.042C250.593 179.851 249.349 181.92 248.664 183.927C248.148 184.741 247.925 185.917 247.337 186.615L244.073 186.608C244.566 191.598 246.319 195.483 250.245 198.694C251.149 199.434 252.27 200.286 253.322 200.798L253.327 219.189L253.329 224.434C253.327 225.424 253.408 226.494 253.222 227.471C253.011 228.583 252.394 229.734 251.592 230.531C251.085 231.034 250.507 231.42 249.859 231.719L249.739 231.776C249.173 232.033 248.603 232.081 247.991 232.096L222.271 232.107L171.248 232.103L125.133 232.115L105.62 232.159C104.877 232.142 104.108 232.062 103.407 231.801C101.736 231.177 100.357 229.933 99.6452 228.293C99.0991 227.036 99.1414 225.715 99.1373 224.375L99.129 219.797L99.1297 208.857L99.1084 186.684C99.1067 182.366 98.692 177.547 99.4961 173.297C100.394 168.551 102.364 163.862 105.108 159.885C107.989 155.71 111.867 152.259 116.502 150.137C118.935 149.023 121.585 148.253 124.114 147.379L132.356 144.425L139.535 141.857C140.684 141.443 141.878 140.836 143.077 140.616C143.179 140.486 143.287 140.33 143.428 140.237C143.728 140.039 144.095 140.006 144.437 140.066Z" fill="#021B79"/>
<path d="M148.471 86.9359L149.255 86.9823L149.327 87.11C149.565 87.693 149.4 88.9982 149.398 89.6664C149.39 92.244 149.231 94.9152 149.406 97.483C149.449 98.1034 149.892 99.5275 149.654 100.021C148.114 100.243 146.75 99.5839 145.472 98.8146C144.155 97.7746 143.271 96.7177 142.85 95.069C142.412 93.3539 142.684 91.4877 143.631 89.9835C144.732 88.235 146.506 87.3578 148.471 86.9359Z" fill="#F2B17B"/>
<path d="M202.478 86.8724C204.154 87.0336 205.577 87.2218 206.901 88.3568C208.247 89.5104 209.154 91.2914 209.267 93.0585C209.395 95.0668 208.511 96.6776 207.219 98.1276C206.232 98.9401 205.186 99.7106 203.9 99.9516C203.371 100.051 202.716 100.204 202.27 99.9008L202.478 86.8724Z" fill="#F2B17B"/>
<path d="M175.987 146.498C176.837 146.85 177.716 147.971 178.391 148.618L183.522 153.506C183.195 154.674 182.855 155.641 182.142 156.641C180.682 158.69 178.864 159.705 176.429 160.109C174.944 160.043 173.457 159.827 172.18 159.007C170.223 157.749 169.187 155.715 168.699 153.513L173.192 149.038C174.074 148.172 174.945 147.173 175.987 146.498Z" fill="#0575E6"/>
<path d="M159.474 131.862L175.323 144.705L166.15 153.654C165.844 153.954 165.804 154.078 165.366 154.116L150.808 138.931L159.474 131.862Z" fill="#FEFEFE"/>
<path d="M192.195 131.866L201.534 139L186.875 154.448L186.416 154.193L176.646 144.717C176.883 144.27 177.38 143.958 177.765 143.637L180.72 141.206L192.195 131.866Z" fill="#FEFEFE"/>
<path d="M161.512 118.12C164.317 120.038 167.453 121.585 170.801 122.283C177.761 123.734 184.557 122.126 190.446 118.252L190.494 131.188L186.442 134.478L175.999 142.967L161.483 131.288L161.512 118.12Z" fill="#F4BE98"/>
<path d="M202.152 140.579C201.863 142.863 201.147 145.198 200.614 147.438L196.421 163.977L185.279 207.054L184.614 201.092L180.489 160.658C182.675 158.981 183.863 157.27 184.745 154.705L186.871 156.749L202.152 140.579Z" fill="#FEFEFE"/>
<path d="M148.994 139.561L165.433 156.454L167.295 154.875C168.026 157.138 169.604 159.196 171.526 160.573L167.283 200.951L166.681 206.437C166.377 206.027 166.25 205.35 166.121 204.855L165.263 201.471L162.386 190.188L157.904 173.284L151.556 149.887L148.994 139.561Z" fill="#FEFEFE"/>
<path d="M173.049 161.214C175.326 161.795 176.717 161.823 178.984 161.199L183.969 210.71C183.99 211.762 183.364 213.209 183.07 214.237L180.931 221.907C180.476 223.547 180.172 225.444 179.552 227.015C179.335 227.565 178.868 228.009 178.465 228.43C177.551 229.022 176.631 229.464 175.512 229.329C174.466 229.202 173.424 228.49 172.794 227.662C172.515 227.295 172.315 226.898 172.162 226.463C171.327 224.086 170.859 221.532 170.193 219.101L168.403 212.835C168.206 212.143 167.734 210.991 167.865 210.284C168.184 208.573 168.262 206.767 168.448 205.032L169.533 194.979L173.049 161.214Z" fill="#0575E6"/>
<path d="M160.468 66.0479C164.042 65.723 167.646 68.1778 170.791 69.638C180.068 73.9457 189.449 73.0956 198.965 70.2042C200.03 72.6305 200.347 75.4571 200.564 78.0782C200.882 81.9239 200.906 85.7806 200.907 89.6364C200.908 93.2592 201.042 96.9689 200.427 100.553C199.28 107.235 195.187 112.964 189.687 116.809C187.661 118.098 185.573 119.244 183.299 120.038C177.683 121.998 171.365 121.554 166.041 118.961C159.507 115.778 154.65 109.997 152.327 103.173C151.697 101.323 151.206 99.3912 151.014 97.4428C150.834 95.6171 150.985 93.6703 151.01 91.8275C151.083 86.5223 151.207 80.9759 152.419 75.7899C152.816 74.0909 153.274 72.2855 154.066 70.7245C155.366 68.1637 157.841 66.9005 160.468 66.0479Z" fill="#F4BE98"/>
<path d="M172.769 108.878C173.651 108.675 174.773 108.791 175.684 108.785C176.969 108.778 178.471 108.616 179.726 108.878C180.12 109.366 180.142 109.359 180.105 109.98L179.591 110.39C178.81 110.56 177.82 110.457 177.016 110.459C175.624 110.461 174.007 110.625 172.65 110.316C172.263 109.912 172.335 109.843 172.329 109.306L172.769 108.878Z" fill="#021B79"/>
<path d="M162.564 82.5113L162.818 82.4806C164.571 82.349 166.897 82.5055 168.279 83.693C168.435 84.2103 168.401 84.2211 168.21 84.6942C168.065 84.777 167.935 84.8961 167.775 84.9423C167.521 85.0153 165.773 84.3131 165.395 84.2257C164.684 84.0619 163.884 84.0743 163.156 84.0399C162.103 84.1515 161.082 84.3102 160.117 84.7728C159.493 85.0721 159.038 85.5721 158.339 85.6957C157.865 85.3971 157.824 85.3715 157.622 84.8529C157.683 84.6974 157.7 84.6271 157.789 84.4962C158.602 83.3055 161.206 82.7284 162.564 82.5113Z" fill="#021B79"/>
<path d="M186.585 82.4933C188.793 82.2955 190.803 82.5548 192.859 83.4C193.324 83.5912 193.936 83.7845 194.311 84.1102C194.662 84.4147 194.653 84.4767 194.701 84.9384C194.281 85.338 194.214 85.3785 193.644 85.4835L191.236 84.4571C189.464 84.0245 187.407 83.7777 185.634 84.3424C184.968 84.5546 184.385 84.934 183.704 85.1324L183.19 84.8163C183.028 84.3671 182.973 84.306 183.102 83.8268C183.964 83.027 185.464 82.7462 186.585 82.4933Z" fill="#021B79"/>
<path d="M176.314 92.4623L176.849 92.3715C177.321 92.5729 177.332 92.643 177.591 93.0609L177.604 97.9814C177.602 98.7348 177.72 99.7524 177.445 100.464C177.261 100.939 176.847 101.377 176.355 101.537C175.683 101.756 175.066 101.521 174.489 101.183C174.172 100.903 173.868 100.53 173.764 100.111C173.634 99.5895 173.829 99.3695 174.106 98.9696C174.579 98.8564 174.64 98.7961 175.1 98.9999C175.24 99.4032 175.336 99.6779 175.649 99.9762C176.025 99.6117 175.906 99.2172 175.908 98.7116L175.923 94.2721C175.925 93.9235 175.819 93.1745 175.928 92.8898C175.969 92.7809 176.225 92.5605 176.314 92.4623Z" fill="#021B79"/>
<path d="M163.44 87.7767C163.967 87.7379 164.535 87.7269 165.038 87.9125C165.725 88.1654 166.429 88.7743 166.732 89.4432C167.059 90.1652 167.037 90.9244 166.765 91.6556C166.395 92.6534 165.686 93.0621 164.779 93.4786L164.642 93.4794L164.413 93.4733L163.604 93.4266C162.902 93.3268 162.173 92.859 161.766 92.2858C161.304 91.6364 161.138 90.8427 161.331 90.0682C161.639 88.8368 162.407 88.3507 163.44 87.7767Z" fill="#021B79"/>
<path d="M186.719 87.7789C187.226 87.7548 187.861 87.6896 188.348 87.8417C189.113 88.0804 189.775 88.6476 190.122 89.372C190.432 90.0187 190.458 91.0621 190.19 91.7396C189.847 92.608 189.106 93.0746 188.298 93.4347L188.179 93.4374C187.735 93.4415 187.224 93.4826 186.789 93.3971C186.182 93.2777 185.589 92.84 185.243 92.3351C184.749 91.6124 184.59 90.7445 184.807 89.8973C185.09 88.7938 185.794 88.3109 186.719 87.7789Z" fill="#021B79"/>
</g>
<defs>
<clipPath id="clip0_6_773">
<rect width="351" height="250" fill="white"/>
</clipPath>
</defs>
</svg>
