<svg width="350" height="250" viewBox="0 0 350 250" fill="none" xmlns="http://www.w3.org/2000/svg">
<g clip-path="url(#clip0_6_280)">
<path d="M0 0H350.001V250H0V0Z" fill="#FEFEFE"/>
<path d="M195.904 99.4198L196.968 99.7777L197.071 100.034L196.988 100.16L185.029 120.749L182.345 118.172C181.753 117.575 181.165 116.855 180.462 116.392L181.039 115.553L184.663 118.945C185.066 118.689 185.436 117.861 185.69 117.44L189.102 111.338L195.904 99.4198Z" fill="#0575E6"/>
<path d="M284.613 83.0936C285.124 84.2633 286.415 86.4305 286.249 87.6368C284.75 90.0914 280.706 90.0997 278.531 91.8251L276.989 91.8786C276.061 90.5087 275.409 89.027 274.792 87.5013L284.613 83.0936Z" fill="#0575E6"/>
<path d="M146.07 62.2462C147.938 61.8353 149.194 62.2974 150.923 62.9349C150.931 65.8726 150.765 68.9288 151.129 71.8446L149.145 71.7538C147.349 71.5643 145.813 70.9393 144.669 69.4754C143.827 68.3971 143.466 67.1007 143.648 65.7491C143.88 64.0238 144.768 63.2452 146.07 62.2462Z" fill="#E59142"/>
<path d="M196.14 62.4462C197.688 61.8668 198.907 61.6027 200.504 62.193C201.826 62.9816 202.692 63.7604 203.209 65.2362L203.272 65.4115C203.662 66.5948 203.436 68.1698 202.86 69.2545C202.216 70.4655 201.199 71.3575 199.865 71.7218C198.928 71.9777 197.621 71.8961 196.662 71.7499C196.552 71.6158 196.289 71.5553 196.126 71.4891C196.536 68.6749 196.771 65.2352 196.14 62.4462Z" fill="#E59142"/>
<path d="M229.658 48.2056L229.66 41.5318L243.206 41.511L243.192 48.1761C241.879 48.3416 240.354 48.1917 239.021 48.1937L229.658 48.2056Z" fill="#0575E6"/>
<path d="M246.035 48.1851L245.999 41.5569L260.497 41.5591L260.484 48.1824L246.035 48.1851Z" fill="#0575E6"/>
<path d="M283.112 148.09C282.624 143.51 282.905 138.632 282.964 134.026C282.988 132.145 282.737 129.581 283.23 127.782L283.52 127.566C283.823 127.712 283.908 127.715 284.016 128.057C284.367 129.178 284.223 130.729 284.291 131.926L284.701 143.961C284.706 145.233 284.85 146.752 284.616 147.995C284.243 150.491 284.513 153.372 284.511 155.906C284.509 157.282 284.284 159.135 284.577 160.458L286.674 157.658C286.932 157.318 287.345 156.929 287.423 156.505C288.394 154.079 290.991 151.551 292.707 149.607C294.447 147.633 296.488 144.879 298.816 143.585C299.246 143.766 299.312 143.948 299.573 144.323C299.431 145.216 295.072 149.497 294.218 150.479L288.467 157.37L285.431 161.211C285.233 161.469 284.628 162.127 284.567 162.44C284.391 163.319 284.572 164.63 284.574 165.546L284.594 174.771L283.296 174.784L283.261 165.33C283.254 164.396 283.432 162.957 283.193 162.084C283.134 161.863 282.544 161.284 282.38 161.082L279.307 157.325L272.947 149.524C271.536 147.891 269.74 146.389 268.554 144.595C268.641 144.104 268.717 144.068 269.051 143.725L269.359 143.762C272.093 146.092 279.405 153.361 280.445 156.774C281.27 158.104 282.319 159.301 283.3 160.517L283.247 152.113C283.237 150.854 283.396 149.311 283.112 148.09Z" fill="#021B79"/>
<path d="M90.4369 91.8915C93.4878 92.3334 96.9685 92.0192 100.064 92.0216C101.844 92.0233 104.221 92.3031 105.937 91.9293C109.225 92.2372 112.791 91.9623 116.107 91.9669C117.319 91.9686 119.375 91.6886 120.398 92.3541C121.057 92.7828 121.556 93.5018 121.705 94.2789C121.849 95.0302 121.715 95.8597 121.273 96.4891C121.022 96.8458 120.275 97.5536 119.85 97.6112C118.207 97.8344 116.395 97.6993 114.734 97.7003L104.753 97.6991L76.2284 97.6696C75.8018 97.6581 75.4166 97.6825 75.0671 97.4034L74.9392 97.2955C74.2319 96.7599 73.6236 96.2074 73.4604 95.2755C73.3137 94.4388 73.6066 93.6705 74.1118 93.0167C74.4667 92.5575 75.1772 92.1122 75.7542 92.0082C76.7485 91.8287 78.0104 91.9762 79.0338 91.9769C82.6934 91.9801 86.6264 92.2904 90.2548 91.9115L90.4369 91.8915Z" fill="#0575E6"/>
<path d="M279.307 157.325L277.626 157.619C274.118 157.857 270.001 155.259 267.472 153.028C262.295 148.464 259.777 142.168 259.347 135.374C262.044 135.224 264.578 135.422 267.174 136.198C272.302 137.73 276.313 141.121 278.812 145.847C280.057 148.201 281.236 151.512 281.065 154.218C281.011 155.077 280.701 155.955 280.445 156.774C279.405 153.361 272.093 146.092 269.359 143.762L269.051 143.725C268.717 144.068 268.641 144.104 268.554 144.595C269.74 146.389 271.536 147.891 272.947 149.524L279.307 157.325Z" fill="#0575E6"/>
<path d="M287.423 156.505C286.285 152.622 287.647 148.45 289.515 145.022C292.09 140.294 295.926 137.374 301.057 135.901C303.761 135.124 306.348 135.063 309.14 135.086C308.401 142.071 305.965 148.998 300.329 153.553C298.038 155.405 295.477 156.9 292.568 157.52C291.845 157.674 291.013 157.864 290.274 157.798C289.661 157.743 289.039 157.587 288.467 157.37L294.218 150.479C295.072 149.497 299.431 145.216 299.573 144.323C299.312 143.948 299.246 143.766 298.816 143.585C296.488 144.879 294.447 147.633 292.707 149.607C290.991 151.551 288.394 154.079 287.423 156.505Z" fill="#0575E6"/>
<path d="M273.567 56.7215L283.92 81.4318L284.613 83.0936L274.792 87.5014L274.072 85.8832L263.811 61.4662L273.567 56.7215Z" fill="#0575E6"/>
<path d="M274.072 85.8832L283.92 81.4318L284.614 83.0936L274.792 87.5014L274.072 85.8832Z" fill="#021B79"/>
<path d="M186.698 96.3236C187.668 96.5807 195.769 99.278 195.904 99.4198L189.102 111.338L185.69 117.44C185.436 117.861 185.066 118.689 184.663 118.946L181.039 115.553L180.462 116.392L177.825 119.75C177.027 120.305 176.062 120.935 175.086 121.081C173.51 121.319 172.245 120.397 171.058 119.509C170.128 118.515 169.301 117.443 168.815 116.161L168.62 114.939L174.31 109.234L174.487 109.25C174.647 108.613 176.466 107.091 176.979 106.568L184.273 98.9804L186.698 96.3236Z" fill="#E1EEF5"/>
<path d="M174.31 109.234L174.487 109.25L181.039 115.553L180.462 116.392L177.825 119.75C177.027 120.305 176.062 120.935 175.086 121.082C173.51 121.319 172.245 120.397 171.058 119.509C170.128 118.515 169.301 117.443 168.815 116.161L168.62 114.939L174.31 109.234Z" fill="#021B79"/>
<path d="M283.112 148.09C278.968 145.444 276.613 141.069 275.554 136.349C274.236 130.465 276.234 123.999 279.42 119.044C280.579 117.24 281.97 115.427 283.486 113.91C288.709 119.949 292.421 126.579 291.85 134.833C291.535 139.388 289.566 143.854 286.09 146.862L284.616 147.995C284.85 146.752 284.706 145.233 284.701 143.961L284.291 131.926C284.223 130.729 284.367 129.178 284.016 128.057C283.908 127.715 283.823 127.712 283.52 127.566L283.23 127.782C282.737 129.581 282.988 132.145 282.964 134.026C282.905 138.632 282.624 143.51 283.112 148.09Z" fill="#0575E6"/>
<path d="M243.316 91.8273L245.965 91.8346L260.445 91.8669L276.989 91.8786L278.531 91.8251L287.567 91.8415C288.956 91.8376 290.54 91.6654 291.897 91.8925C292.297 91.9594 292.644 92.1171 292.951 92.3849C293.42 92.7943 293.732 93.2951 293.781 93.9186C293.854 94.8747 293.966 95.8273 293.29 96.5817C292.741 97.1952 292.136 97.5343 291.296 97.5754C287.084 97.7809 282.754 97.5505 278.531 97.5412L252.674 97.517L233.47 97.5082C230.48 97.506 227.27 97.7577 224.309 97.4677C223.79 97.4167 223.313 97.1752 222.938 96.8183C222.261 96.1762 222.021 95.3774 222.002 94.4726C221.987 93.7265 222.169 93.0807 222.716 92.5465C223.99 91.3022 227.876 91.8168 229.63 91.8283L243.316 91.8273Z" fill="#021B79"/>
<path d="M38.3573 142.866C39.3248 143.18 39.9992 143.139 40.9903 142.908L49.0162 161.735L52.5579 161.752C52.4984 163.032 52.3593 164.216 51.9639 165.441C50.8843 168.787 48.5783 171.505 45.4205 173.07C42.6149 174.46 39.0407 174.659 36.0703 173.649C32.9174 172.577 30.2638 170.033 28.8167 167.062C28.2314 165.86 27.166 163.219 27.6232 161.876C28.2624 161.519 29.3161 161.67 30.0439 161.686L38.3573 142.866Z" fill="#0575E6"/>
<path d="M39.5176 143.505L47.5669 161.749L39.9049 161.726L31.4588 161.72L39.5176 143.505Z" fill="#FEFEFE"/>
<path d="M229.658 48.2056L239.021 48.1937C240.354 48.1917 241.879 48.3416 243.192 48.1761L243.195 49.9527L243.197 52.223L243.204 54.2071L243.316 91.8273L229.63 91.8283L229.637 54.2025L229.639 52.2825L229.655 49.9456L229.658 48.2056Z" fill="#0575E6"/>
<path d="M236.352 79.3602C236.775 79.3405 237.234 79.3024 237.651 79.3995C238.418 79.5785 239.136 80.11 239.509 80.8141C239.823 81.4083 239.869 82.4586 239.614 83.087C239.265 83.9447 238.62 84.3947 237.806 84.766C237.443 84.8077 236.97 84.8627 236.609 84.7868C235.9 84.6376 235.114 83.994 234.747 83.372C234.325 82.6552 234.255 81.9269 234.509 81.1403C234.809 80.212 235.555 79.7963 236.352 79.3602Z" fill="#021B79"/>
<path d="M229.639 52.2826L243.197 52.223L243.204 54.2071L229.637 54.2025L229.639 52.2826Z" fill="#021B79"/>
<path d="M229.658 48.2056L239.021 48.1937C240.354 48.1917 241.879 48.3416 243.192 48.1761L243.195 49.9527L243.197 52.223L229.639 52.2825L229.655 49.9456L229.658 48.2056Z" fill="#0575E6"/>
<path d="M229.658 48.2056L239.021 48.1937C240.354 48.1917 241.879 48.3416 243.192 48.1761L243.195 49.9527L229.655 49.9456L229.658 48.2056Z" fill="#021B79"/>
<path d="M171.058 119.509C172.245 120.397 173.51 121.319 175.086 121.081C176.062 120.935 177.027 120.305 177.825 119.75L180.401 152.178L181.532 168.587C181.584 169.166 181.571 170.372 181.9 170.81L177.372 188.196C176.719 190.583 176.274 193.156 175.41 195.46L174.229 195.464C174.102 194.497 173.71 193.473 173.453 192.528L171.758 186.393L167.209 169.491L171.058 119.509Z" fill="#0575E6"/>
<path d="M151.543 99.6786L161.168 95.7677L171.369 106.127C172.013 106.776 174.088 108.483 174.31 109.234L168.62 114.939L168.815 116.161C169.301 117.443 170.128 118.515 171.058 119.509L167.209 169.491C166.409 167.305 165.95 164.934 165.379 162.677L162.914 153.495L152.407 115.735L149.907 106.719C149.419 104.879 149.06 102.851 148.33 101.096L150.425 100.132L151.543 99.6786Z" fill="#E1EEF5"/>
<path d="M151.542 99.6786L163.992 119.458L168.62 114.939L168.815 116.161C166.955 117.541 165.383 119.454 163.714 121.07L150.425 100.132L151.542 99.6786Z" fill="#0575E6"/>
<path d="M151.542 99.6786L161.168 95.7677L171.369 106.127C172.013 106.776 174.088 108.483 174.31 109.234L168.62 114.939L163.992 119.458L151.542 99.6786Z" fill="#E1EEF5"/>
<path d="M246.035 48.1851L260.484 48.1824L260.489 49.9112L260.492 52.3187L260.484 53.699L260.643 53.6375L270.296 48.9044L272.783 54.9339L273.567 56.7215L263.811 61.4661L274.072 85.8832L274.792 87.5013C275.41 89.027 276.061 90.5087 276.989 91.8786L260.445 91.8668L245.965 91.8346L246.035 54.1961L246.028 52.2884L246.043 49.9429L246.035 48.1851Z" fill="#0575E6"/>
<path d="M272.783 54.9339L273.567 56.7215L263.811 61.4662L263.062 59.8285C264.002 59.2291 265.198 58.8053 266.213 58.3316C268.422 57.3004 270.718 56.2296 272.783 54.9339Z" fill="#021B79"/>
<path d="M253.104 79.3617C253.609 79.3356 254.112 79.3248 254.605 79.4633C255.305 79.6603 255.869 80.2177 256.186 80.8615C256.513 81.5199 256.601 82.2401 256.343 82.9345C256.018 83.8168 255.322 84.3312 254.514 84.7299C253.956 84.8749 253.384 84.8676 252.835 84.6627C252.184 84.4188 251.493 83.788 251.21 83.1466C250.944 82.5475 250.931 81.6288 251.183 81.0265C251.537 80.1801 252.31 79.723 253.104 79.3617Z" fill="#021B79"/>
<path d="M246.028 52.2884L260.492 52.3187L260.484 53.6991L260.345 54.1212L246.035 54.1961L246.028 52.2884Z" fill="#021B79"/>
<path d="M246.035 48.1851L260.484 48.1824L260.489 49.9112L260.492 52.3187L246.028 52.2884L246.043 49.9429L246.035 48.1851Z" fill="#0575E6"/>
<path d="M246.035 48.1851L260.484 48.1824L260.489 49.9112L246.043 49.9429L246.035 48.1851Z" fill="#021B79"/>
<path d="M260.445 91.8669L260.47 54.2035L263.062 59.8285L263.811 61.4662L274.072 85.8832L274.792 87.5014C275.41 89.027 276.061 90.5087 276.989 91.8786L260.445 91.8669Z" fill="#FEFEFE"/>
<path d="M90.4369 91.8915C87.9178 90.7748 85.7621 89.4555 83.8154 87.4909C80.0398 83.6806 78.151 78.6046 78.1878 73.2731C78.2222 68.288 80.6632 63.048 84.214 59.5841C87.8204 56.0658 92.7236 53.8175 97.8179 53.8946C103.158 53.9757 108.095 56.1065 111.778 60.006C115.837 64.3033 117.454 69.7089 117.24 75.5228C117.061 80.3927 114.506 85.1815 110.986 88.4352C109.435 89.869 107.628 90.7226 105.937 91.9294C104.221 92.3031 101.844 92.0234 100.064 92.0216C96.9685 92.0192 93.4878 92.3334 90.4369 91.8915Z" fill="#021B79"/>
<path d="M97.873 66.1755C98.0766 65.7586 98.4167 65.3412 98.8709 65.1878C99.39 65.0127 99.8757 65.166 100.334 65.417C100.565 65.658 100.783 65.9139 100.871 66.244C101.141 67.2567 101.073 68.5555 101.13 69.6141L101.458 76.3304C101.479 77.0639 101.406 77.7929 100.841 78.3269C99.9893 79.1303 97.2973 78.8436 96.1009 78.8583C95.2084 78.9114 93.5948 79.1781 92.8444 78.6689C92.4274 78.3862 92.216 77.9017 92.1702 77.4148C92.1251 76.9355 92.2299 76.515 92.5672 76.1611C93.4305 75.2554 96.7086 75.5804 97.9925 75.5295C98.0785 73.5443 97.9304 71.4866 97.8419 69.4981C97.7928 68.3984 97.6497 67.2595 97.873 66.1755Z" fill="#FEFEFE"/>
<path d="M155.335 28.7354C156.011 27.7969 156.598 26.8304 157.387 25.9744C160.58 22.5077 165.01 20.4204 169.622 19.6619C176.783 18.4842 183.6 20.4698 189.391 24.6739C192.226 26.7322 194.645 29.7002 196.451 32.6844C196.953 33.513 197.543 35.0777 198.206 35.7178C198.506 36.0081 199.41 36.2933 199.831 36.535C201.933 37.7442 202.96 39.9664 203.335 42.2808C204.385 48.7608 202.184 55.994 200.504 62.193C198.907 61.6026 197.688 61.8668 196.14 62.4461L196.936 53.5267C193.433 53.6258 189.873 53.6878 186.385 53.2967C180.387 52.6238 174.695 50.5924 169.603 47.3555C168.393 46.5862 167.207 45.7435 166.098 44.8343C165.243 44.1331 164.32 43.064 163.32 42.6099C161.964 46.6268 160.164 50.1495 156.202 52.1466C154.535 52.9866 152.724 53.3963 150.905 53.7506L150.923 62.9349C149.194 62.2975 147.938 61.8353 146.07 62.2462C144.886 56.6868 143.289 51.2139 143.267 45.4857C143.249 40.6795 144.749 35.6429 148.231 32.1951C150.013 30.4307 152.77 28.7276 155.335 28.7354Z" fill="#021B79"/>
<path d="M163.32 42.6099C164.32 43.064 165.243 44.1331 166.098 44.8343C167.207 45.7435 168.393 46.5862 169.603 47.3555C174.695 50.5924 180.387 52.6239 186.385 53.2967C189.873 53.6878 193.433 53.6258 196.936 53.5267L196.14 62.4461C196.771 65.2352 196.536 68.6749 196.126 71.4891C196.289 71.5553 196.552 71.6158 196.662 71.7499L196.097 71.9051C194.855 77.1236 192.478 81.6185 188.204 84.9569C187.743 85.3178 186.172 86.2538 185.957 86.6622C185.818 86.9269 185.902 95.129 185.964 96.0504L186.698 96.3236L184.273 98.9804L176.979 106.568C176.466 107.091 174.647 108.613 174.487 109.25L174.31 109.234C174.088 108.483 172.013 106.776 171.369 106.127L161.168 95.7677C161.47 95.5709 161.718 95.3222 161.978 95.0753L162.025 87.1373C162.013 87.0499 161.996 86.6676 161.957 86.6173C161.751 86.3468 161.016 85.976 160.714 85.7645C159.817 85.1359 158.945 84.4725 158.136 83.7328C154.573 80.474 152.534 76.3934 151.129 71.8446C150.765 68.9288 150.931 65.8727 150.923 62.9349L150.905 53.7506C152.724 53.3963 154.535 52.9866 156.202 52.1466C160.164 50.1495 161.964 46.6268 163.32 42.6099Z" fill="#F2B17B"/>
<path d="M161.431 62.5001C161.868 62.3893 162.33 62.3692 162.768 62.5001C163.433 62.6983 164.053 63.2826 164.373 63.888C164.664 64.4371 164.661 65.1959 164.444 65.7704C164.118 66.6358 163.466 67.0084 162.688 67.3895C162.301 67.401 161.917 67.4042 161.536 67.3221C160.812 67.1661 160.26 66.7396 159.876 66.1061C159.541 65.5548 159.478 64.7811 159.683 64.1732C159.98 63.2874 160.637 62.8678 161.431 62.5001Z" fill="#021B79"/>
<path d="M169.277 78.745C169.557 78.7294 169.773 78.7789 170.044 78.8351C170.853 79.6136 171.589 80.0792 172.709 80.2843C174.831 80.6732 175.978 79.8912 177.634 78.7355C178.228 78.87 178.27 78.9066 178.675 79.3656C178.746 79.9813 178.611 80.0353 178.275 80.5331C177.24 81.3375 176.221 81.9135 174.928 82.1859C173.244 82.5409 171.389 82.1173 169.973 81.1583C169.249 80.6686 168.848 80.3029 168.677 79.4291C168.85 78.9645 168.873 78.9791 169.277 78.745Z" fill="#021B79"/>
<path d="M185.167 62.3292C185.65 62.2757 186.042 62.3133 186.497 62.4999C187.189 62.7835 187.693 63.3651 187.948 64.0619C188.173 64.6793 188.126 65.4037 187.813 65.9828C187.41 66.7281 186.816 67.1537 186.023 67.4042C185.588 67.5221 185.015 67.421 184.609 67.244C183.933 66.9503 183.302 66.3514 183.094 65.6295C182.896 64.9461 183.027 64.2608 183.371 63.6537C183.77 62.9496 184.404 62.5533 185.167 62.3292Z" fill="#021B79"/>
<path d="M157.657 57.5194L166.553 57.5706L166.525 60.1678L157.641 60.1773L157.657 57.5194Z" fill="#021B79"/>
<path d="M175.019 63.013C175.147 62.9473 175.202 62.9088 175.357 62.8826C175.863 62.7977 176.047 63.0365 176.37 63.3551C176.543 64.422 175.533 66.0636 175.098 67.025L172.951 71.964L175.427 71.9947C175.857 72.5243 175.843 72.5843 175.863 73.273L175.396 73.6151C174.614 73.714 173.312 73.858 172.607 73.4957C171.8 73.0809 171.517 72.3697 171.267 71.5631C171.43 70.0497 172.652 68.0748 173.292 66.682C173.849 65.4686 174.277 64.1253 175.019 63.013Z" fill="#021B79"/>
<path d="M180.777 57.4749L189.864 57.4698L189.854 60.1834H180.771L180.777 57.4749Z" fill="#021B79"/>
<path d="M162.112 87.1569L162.442 86.8734C168.098 89.9586 174.247 90.7657 180.463 88.9513C182.329 88.4066 184.182 87.5721 185.846 86.5685C185.828 87.934 185.416 95.285 185.964 96.0504L186.698 96.3236L184.273 98.9804C180.517 97.2299 176.264 96.0643 172.311 94.8053C168.62 93.6298 165.105 92.6405 162.156 90.0092L162.112 87.1569Z" fill="#E59142"/>
<path d="M260.733 174.769L283.296 174.784L284.594 174.772L304.427 174.888L310.397 174.863C311.488 174.86 312.675 174.765 313.749 174.987C315.747 175.401 317.61 176.579 319.03 178.018C321.041 180.053 322.071 183.01 322.015 185.838C321.957 188.68 320.609 191.547 318.552 193.488C318.21 193.808 316.631 194.915 316.59 195.235L317.173 195.366C317.539 196.02 317.332 197.658 317.329 198.439L317.036 198.726L316.87 198.754L314.818 198.904L314.735 214.301L317.273 214.303L317.153 217.861C314.803 218.133 312.184 217.951 309.807 217.964L293.832 217.972L271.094 217.98L263.892 217.983C262.066 217.98 260.221 218.062 258.437 217.615L256.75 216.904C254.248 215.633 252.118 213.433 251.256 210.719C250.263 207.585 250.609 204.038 252.132 201.137C253.533 198.471 255.813 196.879 258.639 196.023L258.856 195.959L256.518 194.798C253.658 193.117 252.127 190.259 251.32 187.144C250.997 183.85 251.63 180.692 253.802 178.095C255.757 175.758 257.827 175.074 260.733 174.769Z" fill="#0575E6"/>
<path d="M261.114 178.207C263.594 178 266.201 178.142 268.693 178.143L282.912 178.152L301.757 178.168L311.454 178.2C312.282 178.24 313.05 178.364 313.812 178.709C315.743 179.587 317.339 181.049 318.088 183.068C318.737 184.82 318.601 186.989 317.79 188.668C316.726 190.871 314.739 191.94 312.518 192.702C311.23 193.003 309.714 192.851 308.386 192.858L300.564 192.908L275.832 192.874L262.815 192.792C261.968 192.763 261.129 192.728 260.331 192.424C258.717 191.81 257.285 190.894 256.35 189.396C255.337 187.773 254.807 185.715 255.269 183.819C255.791 181.687 257.182 180.005 259.091 178.955C259.733 178.603 260.411 178.398 261.114 178.207Z" fill="#E1EEF5"/>
<path d="M310.327 181.292C311.098 181.283 311.894 181.49 312.57 181.867C313.534 182.404 314.383 183.42 314.659 184.497C314.932 185.564 314.686 186.793 314.117 187.73C313.419 188.876 312.374 189.323 311.132 189.647C310.158 189.668 309.321 189.599 308.469 189.085C307.503 188.503 306.724 187.474 306.495 186.365C306.263 185.241 306.468 184.141 307.11 183.195C307.913 182.009 308.977 181.57 310.327 181.292Z" fill="#021B79"/>
<path d="M314.735 214.301L276.557 214.426L266.015 214.44C264.417 214.441 262.549 214.622 260.978 214.378C259.403 214.133 258.012 213.417 256.877 212.302C255.313 210.767 254.602 208.98 254.61 206.812C254.617 204.56 255.361 202.787 256.992 201.198C258.161 200.057 259.581 199.264 261.202 199.02C263.565 198.665 266.237 198.905 268.632 198.912L282.947 198.956L309.289 198.861L317.036 198.726L316.87 198.754L314.818 198.904L314.735 214.301Z" fill="#AED4E8"/>
<path d="M165.198 195.44L168.163 195.443L174.229 195.464L175.41 195.46L181.711 195.464L184.559 195.459L196.026 195.448C197.134 195.447 198.69 195.219 199.723 195.444C200.117 195.53 203.057 198.608 203.615 199.157L203.606 200.25L207.484 200.191L207.456 217.89L210.194 217.901L210.301 217.845L219.78 217.829L237.38 217.723L251.039 217.722C253.467 217.722 256.028 217.882 258.437 217.615C260.221 218.062 262.066 217.98 263.892 217.983L271.094 217.98L293.832 217.972L309.807 217.964C312.184 217.951 314.803 218.133 317.153 217.861L319.838 217.848C320.26 218.068 320.375 218.29 320.59 218.708L320.639 225.486C320.636 226.487 320.756 227.645 320.6 228.622C320.536 229.009 320.378 229.38 320.146 229.696C319.806 230.159 319.211 230.563 318.632 230.633C316.797 230.855 314.691 230.663 312.833 230.659L300.239 230.633L259.242 230.634L120.253 230.617L59.1672 230.615L39.8974 230.637C36.7037 230.642 33.418 230.799 30.2333 230.633C29.8033 230.611 29.3732 230.534 29.0369 230.246C28.5687 229.846 28.3442 229.416 28.3039 228.8C28.1543 226.518 28.2407 224.159 28.2366 221.87C28.2351 220.984 28.0803 219.708 28.2754 218.868C28.3596 218.505 28.5368 218.232 28.7933 217.963C28.9942 217.752 29.2451 217.529 29.5409 217.474C30.9665 217.209 32.7539 217.409 34.2242 217.403L46.0483 217.321C48.0665 217.743 50.5143 217.485 52.6016 217.489L65.9668 217.502L84.1285 217.512L90.4356 217.447C91.3875 217.429 92.4138 217.49 93.3567 217.372L117.86 217.336L125.422 217.344C126.767 217.347 128.195 217.255 129.527 217.407L129.712 217.678L140.848 217.856L140.82 200.182L142.003 200.261C142.069 199.775 142.114 199.343 142.479 198.981C143.103 198.364 145.887 195.642 146.521 195.471C146.901 195.368 147.52 195.449 147.918 195.448L150.941 195.445L165.198 195.44Z" fill="#064FAC"/>
<path d="M165.198 195.44L168.163 195.443L174.229 195.464L175.41 195.46L181.711 195.464L184.559 195.459L196.026 195.448C197.134 195.447 198.69 195.219 199.723 195.444C200.117 195.53 203.057 198.608 203.615 199.157L203.606 200.25L207.484 200.191L207.456 217.89L210.194 217.901C208.626 218.227 206.482 217.973 204.86 217.981L191.279 218.007L140.848 217.856L140.82 200.182L142.003 200.261C142.069 199.775 142.114 199.343 142.479 198.981C143.103 198.364 145.887 195.642 146.521 195.471C146.901 195.368 147.52 195.449 147.919 195.448L150.941 195.445L165.198 195.44Z" fill="#0575E6"/>
<path d="M165.198 195.44L168.163 195.443L174.229 195.464L175.41 195.46L181.711 195.464L184.559 195.459L196.026 195.448C197.134 195.447 198.69 195.219 199.723 195.444C200.117 195.53 203.057 198.608 203.615 199.157L203.606 200.25L142.003 200.261C142.069 199.775 142.114 199.343 142.479 198.981C143.103 198.364 145.887 195.642 146.521 195.471C146.901 195.368 147.52 195.449 147.919 195.448L150.941 195.445L165.198 195.44Z" fill="#E8C33B"/>
<path d="M181.9 170.81L198.777 100.509L205.234 102.453L207.875 103.269L221.281 107.285C223.698 107.993 226.276 108.514 228.627 109.393C234.455 111.572 239.603 116.353 242.478 121.83C243.739 124.232 244.549 126.911 245.411 129.478L248.53 138.628L260.733 174.769C257.827 175.074 255.757 175.758 253.802 178.095C251.63 180.692 250.997 183.85 251.32 187.144C252.127 190.259 253.658 193.117 256.518 194.798L258.857 195.959L258.639 196.023C255.813 196.879 253.533 198.471 252.132 201.137C250.609 204.038 250.263 207.585 251.256 210.719C252.118 213.433 254.248 215.633 256.75 216.904L258.437 217.615C256.028 217.882 253.467 217.722 251.039 217.722L237.38 217.723L219.78 217.829L210.301 217.845L210.194 217.901L207.456 217.89L207.484 200.191L203.606 200.25L203.615 199.157C203.057 198.608 200.117 195.53 199.723 195.444C198.69 195.219 197.134 195.447 196.026 195.448L184.559 195.459L181.711 195.464L175.41 195.46C176.274 193.156 176.719 190.583 177.372 188.196L181.9 170.81Z" fill="#021B79"/>
<path d="M203.615 199.157L203.63 193.218L203.64 193.109L210.408 193.069L210.424 207.177L210.364 214.453C210.355 215.53 210.475 216.792 210.301 217.845L210.194 217.901L207.456 217.89L207.484 200.191L203.606 200.25L203.615 199.157Z" fill="#FEFEFE"/>
<path d="M224.039 189.915L224.067 160.077C224.442 160.504 224.712 161.683 224.908 162.251L227.581 170.527L233.395 188.776L224.039 189.915Z" fill="#FEFEFE"/>
<path d="M148.329 101.096C149.06 102.851 149.419 104.879 149.907 106.719L152.406 115.735L162.914 153.495L165.379 162.677C165.95 164.934 166.409 167.305 167.209 169.491L171.758 186.393L173.453 192.528C173.71 193.473 174.102 194.497 174.229 195.464L168.163 195.443L165.198 195.44L150.941 195.445L147.918 195.448C147.52 195.449 146.901 195.368 146.521 195.471C145.887 195.642 143.103 198.364 142.479 198.981C142.114 199.343 142.069 199.775 142.003 200.261L140.82 200.182L140.848 217.856L129.712 217.678L129.527 217.407C128.195 217.254 126.767 217.347 125.422 217.344L117.86 217.336L93.3567 217.372C92.4138 217.49 91.3875 217.429 90.4356 217.447L84.1285 217.512L65.9668 217.502L52.6016 217.489C50.5143 217.485 48.0665 217.743 46.0483 217.321C45.5245 216.537 45.1491 215.847 45.1196 214.884C45.1008 214.278 45.2252 213.877 45.6599 213.442C46.7844 212.32 49.0323 212.7 50.526 212.711C51.9365 210.567 53.472 208.015 55.3089 206.217C55.5076 206.022 55.5761 206.024 55.8449 205.994C56.8976 205.876 58.0537 205.979 59.1174 205.984L65.5726 206.019L65.6197 152.431C63.4739 151.334 62.6896 150.042 61.9477 147.802L48.59 144.018C46.6394 143.449 44.5455 142.989 42.681 142.189L42.4977 142.109C42.032 142.367 41.4931 142.754 40.9903 142.908C39.9992 143.139 39.3248 143.18 38.3573 142.866L37.9899 142.651C36.9063 142.001 36.1338 141.122 35.8433 139.871C35.5949 138.802 35.7591 137.762 36.3451 136.836C36.926 135.918 37.9328 135.211 38.9975 134.987C40.0299 134.77 41.0662 135.025 41.9281 135.617C43.2221 136.505 43.5392 137.65 43.794 139.129L62.5244 144.5C63.4231 143.332 64.321 142.722 65.6171 142.017L65.6315 137.96C65.6322 137.747 65.7103 136.988 65.6356 136.824C65.599 136.744 64.7711 136.361 64.6034 136.266C63.5275 135.655 62.6469 134.669 62.1297 133.544C61.4476 132.062 61.2872 130.301 61.8749 128.762C62.5002 127.125 63.7702 125.893 65.3688 125.201C66.7403 124.607 68.5308 124.671 69.9018 125.248C71.4292 125.89 72.5827 127.103 73.1865 128.641C73.7557 130.089 73.7286 131.872 73.0928 133.294C72.2644 135.145 70.8827 136.091 69.0468 136.805L69.0363 140.96C69.0365 141.141 69.0002 142.003 69.0927 142.121C69.3401 142.438 70.3884 142.725 70.7917 143.067C71.3411 143.533 71.7848 144.218 72.2153 144.793C74.2394 144.108 91.212 139.086 91.4375 138.791C91.8922 138.196 91.8437 137.214 92.3994 136.553C93.1021 135.718 94.1211 135.169 95.2231 135.116C96.6109 135.049 97.481 135.915 98.4385 136.782C100.066 132.116 101.899 127.373 104.389 123.095C105.743 120.769 107.19 118.569 109.035 116.599C114.133 111.153 120.752 109.079 127.721 107.087L140.394 103.485L143.399 102.643L148.329 101.096Z" fill="#021B79"/>
<path d="M125.176 159.204L125.44 190.05L117.368 188.784L115.504 188.497L125.176 159.204Z" fill="#E1EEF5"/>
<path d="M75.9814 205.885L76.1632 205.976C76.821 206.281 78.3618 206.068 79.1111 206.058C79.2329 206.057 79.7308 206.003 79.8263 206.048C80.6368 206.429 83.5003 211.553 84.0219 212.539C82.72 212.734 81.3158 212.641 79.9996 212.646L73.3405 212.664L50.526 212.711C51.9365 210.567 53.472 208.015 55.3089 206.217C55.5076 206.022 55.5761 206.024 55.8449 205.994C56.8976 205.876 58.0537 205.979 59.1174 205.984L65.5726 206.019L68.8442 206.028L73.6893 206.051C74.3837 206.051 75.3497 206.19 75.9814 205.885Z" fill="#0575E6"/>
<path d="M129.527 217.407L129.541 192.382L140.864 192.314L140.82 200.182L140.848 217.856L129.712 217.678L129.527 217.407Z" fill="#FEFEFE"/>
<path d="M94.4033 143.241C94.5014 142.878 94.5483 142.529 94.8487 142.275C95.7428 142.204 96.0647 142.081 96.8618 142.528C97.2255 143.154 97.0229 143.445 97.1376 144.085C97.1403 144.1 97.1652 144.097 97.1791 144.103L97.2213 144.271C97.7422 146.287 98.75 148.343 99.5203 150.289L103.939 161.638L107.51 161.691C107.012 165.465 105.589 168.777 102.49 171.168C99.562 173.427 95.9883 174.184 92.3709 173.653C89.3995 173.217 87.1873 171.736 85.1202 169.635C83.0798 167.495 82.2306 164.609 82.0239 161.731L86.1297 161.713L91.222 150.308C92.2159 148.147 93.8746 145.536 94.4033 143.241Z" fill="#0575E6"/>
<path d="M95.5741 143.834C95.4032 145.657 94.7547 147.45 94.26 149.206L90.4879 161.706L88.2692 161.669L87.9932 161.549C87.9551 161.45 87.8707 161.358 87.879 161.252C87.9092 160.865 88.4279 160.004 88.5978 159.62L91.3455 153.566L95.5741 143.834Z" fill="#FEFEFE"/>
<path d="M96.3844 146.566C97.3632 148.391 98.0302 150.442 98.7785 152.371L102.33 161.729L97.8396 161.732L91.8434 161.733L96.3844 146.566Z" fill="#FEFEFE"/>
<path d="M68.8442 206.028L68.9035 161.208L68.9394 154.293C68.9418 153.949 68.8279 152.813 68.9531 152.536C69.0143 152.4 70.354 151.671 70.563 151.524C70.9989 151.216 71.3767 150.834 71.6921 150.404C72.1885 149.727 72.4133 148.837 72.6576 148.045L92.8097 141.913L94.4033 143.241C93.8746 145.536 92.2159 148.147 91.222 150.308L86.1297 161.713L82.0239 161.731C82.2306 164.609 83.0798 167.495 85.1202 169.635L76.6897 191.823C75.8579 194.034 74.517 196.417 74.1989 198.758C73.9114 200.874 74.4469 202.819 75.3812 204.696L75.9814 205.885C75.3497 206.19 74.3837 206.051 73.6893 206.051L68.8442 206.028Z" fill="#FEFEFE"/>
</g>
<defs>
<clipPath id="clip0_6_280">
<rect width="350" height="250" fill="white"/>
</clipPath>
</defs>
</svg>
