<svg width="50" height="50" viewBox="0 0 50 50" fill="none" xmlns="http://www.w3.org/2000/svg">
<path d="M43.6923 6.15381H19.6923V7.30765H43.6923V6.15381Z" fill="#212222"/>
<path d="M38.4616 10.8462H24.8462V12H38.4616V10.8462Z" fill="#212222"/>
<path d="M43.6923 15.5386H19.6923V16.6924H43.6923V15.5386Z" fill="#212222"/>
<path d="M4.9231 46.077C5.15386 47.9232 6.69233 49.3847 8.53848 49.3847H37.2308C37.5385 49.3847 37.8462 49.154 37.8462 48.7693C37.8462 48.3847 37.6154 48.154 37.2308 48.154C34 48.154 33.9231 43.2309 37.2308 43.2309C37.5385 43.2309 37.8462 43.0001 37.8462 42.6155V39.0001H47.5385C47.8462 39.0001 48.1539 38.7693 48.1539 38.3847C48.1539 38.0001 47.9231 37.7693 47.5385 37.7693C46.1539 37.7693 45.0769 36.6924 45.0769 35.3078C45.0769 33.9232 46.1539 32.8463 47.5385 32.8463C47.8462 32.8463 48.1539 32.6155 48.1539 32.2309V1.15396C48.1539 0.846267 47.9231 0.538574 47.5385 0.538574H20.3846C17.5385 0.538574 15.2308 2.84627 15.2308 5.69242V7.84627H10.0769V9.00011H15.2308V10.8463H10.0769C7.23079 10.8463 4.9231 13.154 4.9231 16.0001V46.077ZM8.53848 48.3078C7.15386 48.3078 6.07694 47.2309 6.07694 45.8463C6.07694 44.4616 7.23079 43.3847 8.53848 43.3847H34.5385C33.2308 44.7693 33.2308 46.9232 34.5385 48.3078H8.53848ZM44.8462 38.0001H18.8462C17.4616 38.0001 16.3846 36.9232 16.3846 35.5386C16.3846 34.154 17.4616 33.077 18.8462 33.077H44.8462C44.2308 33.6924 43.8462 34.6155 43.8462 35.5386C43.9231 36.4616 44.2308 37.3078 44.8462 38.0001ZM16.3846 5.69242C16.3846 3.46165 18.1539 1.69242 20.3846 1.69242H46.9231V31.8463H18.8462C17.8462 31.8463 17 32.2309 16.3846 32.8463V5.69242ZM10.0769 12.0001H15.2308V35.4616C15.2308 35.5386 15.3846 39.077 18.8462 39.077H36.6923V42.077H8.53848C7.6154 42.077 6.76925 42.4616 6.07694 43.077V16.0001C6.07694 13.8463 7.84617 12.0001 10.0769 12.0001ZM3.07694 16.0001C3.07694 13.7693 4.07694 11.7693 5.84617 10.3847L5.15386 9.46165C3.07694 11.0001 1.9231 13.3847 1.9231 15.9232V19.2309H3.07694V16.0001Z" fill="#212222"/>
<path d="M3.07694 21H1.9231V24.8462H3.07694V21Z" fill="#212222"/>
<path d="M31.1538 45.1538H8.46153C8.23076 45.1538 8.07692 45.2307 8 45.3846C7.76923 45.7692 8 46.3846 8.53846 46.3846H31.1538C31.4615 46.3846 31.7692 46.1538 31.7692 45.7692C31.7692 45.6923 31.8461 45.4615 31.6154 45.2307C31.4615 45.2307 31.3077 45.1538 31.1538 45.1538Z" fill="#212222"/>
</svg>
