<svg width="50" height="50" viewBox="0 0 50 50" fill="none" xmlns="http://www.w3.org/2000/svg">
<g clip-path="url(#clip0_11617_93094)">
<path d="M25 0C11.1933 0 0 11.1933 0 25C0 38.8067 11.1933 50 25 50C38.8067 50 50 38.8067 50 25C50 11.1933 38.8067 0 25 0ZM25 47.6331C12.5247 47.6331 2.36686 37.4753 2.36686 25C2.36686 12.5247 12.5247 2.36686 25 2.36686C37.4753 2.36686 47.6331 12.5247 47.6331 25C47.6331 37.4753 37.4753 47.6331 25 47.6331Z" fill="white"/>
<path d="M26.1834 24.5067V10.7C26.1834 10.059 25.641 9.5166 25 9.5166C24.3589 9.5166 23.8165 10.059 23.8165 10.7V24.9998C23.8165 25.2957 23.9645 25.6409 24.1617 25.8381L33.6785 35.3549C33.925 35.6014 34.2209 35.7 34.5167 35.7C34.8126 35.7 35.1084 35.6014 35.355 35.3549C35.7988 34.9111 35.7988 34.1221 35.355 33.6783L26.1834 24.5067Z" fill="white"/>
</g>
<defs>
<clipPath id="clip0_11617_93094">
<rect width="50" height="50" fill="white"/>
</clipPath>
</defs>
</svg>
