<svg width="50" height="50" viewBox="0 0 50 50" fill="none" xmlns="http://www.w3.org/2000/svg">
<g clip-path="url(#clip0_11528_219709)">
<path d="M25 49.4793C11.4584 49.4793 0.520874 38.5418 0.520874 25.0002C0.520874 11.4585 11.4584 0.520996 25 0.520996C38.5417 0.520996 49.4792 11.4585 49.4792 25.0002C49.4792 38.5418 38.5417 49.4793 25 49.4793ZM25 2.60433C12.6042 2.60433 2.60421 12.6043 2.60421 25.0002C2.60421 37.396 12.6042 47.396 25 47.396C37.3959 47.396 47.3959 37.396 47.3959 25.0002C47.3959 12.6043 37.3959 2.60433 25 2.60433Z" fill="#212222"/>
<path d="M11.0417 38.9585L21.2501 21.3543L38.8542 11.146L28.6459 28.7502L11.0417 38.9585ZM22.8126 22.8127L16.7709 33.2293L27.1876 27.1877L33.2292 16.771L22.8126 22.8127Z" fill="#212222"/>
<path d="M26.1459 23.9585H23.9584V26.0418H26.1459V23.9585Z" fill="#212222"/>
</g>
<defs>
<clipPath id="clip0_11528_219709">
<rect width="50" height="50" fill="white"/>
</clipPath>
</defs>
</svg>
