<svg width="50" height="50" viewBox="0 0 50 50" fill="none" xmlns="http://www.w3.org/2000/svg">
<path d="M26.6561 41.2043C26.1872 41.2043 25.7008 41.1776 25.2106 41.126C24.9711 41.1011 24.7887 40.8985 24.7887 40.6571C24.7887 40.4157 24.9702 40.2139 25.2106 40.1881C26.8008 40.0186 28.3246 39.5598 29.7406 38.8237C29.8705 38.7555 30.0234 38.7537 30.1552 38.8136C30.2869 38.8744 30.3837 38.9923 30.4168 39.1342C30.4813 39.405 30.5863 39.6906 30.7402 40.0076C30.801 40.1329 30.8038 40.2775 30.7476 40.4046C30.6914 40.5318 30.5827 40.6276 30.4491 40.6663C29.2321 41.0237 27.9552 41.2043 26.6561 41.2043ZM40.0241 27.365C40.0241 27.5159 40.0241 27.6574 40.0147 27.8083C39.1562 28.9027 38.0619 30.0536 36.6845 31.0348C36.7128 30.931 36.7411 30.8178 36.7694 30.7046C36.8261 30.4876 36.8827 30.2706 36.9204 30.0536C36.9581 29.8838 36.9864 29.714 37.0147 29.5442C37.1373 28.8366 37.1939 28.1102 37.1939 27.365C37.1939 26.6197 37.1279 25.8838 37.0147 25.1668C36.9864 24.997 36.9581 24.8367 36.9204 24.6669C36.8827 24.4593 36.8261 24.2518 36.7789 24.0442C36.694 23.714 36.5902 23.3744 36.477 23.0442C36.4204 22.8649 36.3544 22.6857 36.2789 22.5064C36.2789 22.4876 36.2694 22.4687 36.26 22.4404C36.1845 22.2612 36.1091 22.082 36.0336 21.9121C35.9487 21.7235 35.8638 21.5442 35.7694 21.365C35.6845 21.1857 35.5902 21.0065 35.4864 20.8272C34.9015 19.7706 34.1657 18.8083 33.3166 17.9593C33.1845 17.8178 33.0336 17.6763 32.8921 17.5442C32.76 17.4216 32.6279 17.2989 32.4864 17.1951C32.3543 17.0819 32.2128 16.9782 32.0808 16.8744V16.8649C31.7411 16.5914 31.4015 16.3366 31.0336 16.1102C31.5619 15.6102 32.0336 14.9216 32.3921 13.997C32.3921 13.997 35.9487 6.90269 27.8355 4.91213C27.1845 4.75171 26.5147 4.63851 25.8544 4.58191C27.4487 4.41211 29.0808 4.51587 30.6657 4.91213C38.7788 6.90269 35.2223 13.997 35.2223 13.997C34.8543 14.9216 34.3921 15.6102 33.8638 16.1197C37.5713 18.4876 40.0241 22.6385 40.0241 27.365Z" fill="#212222"/>
<path d="M36.6844 31.5069C36.5895 31.5069 36.4955 31.4783 36.4144 31.4221C36.2504 31.3079 36.1767 31.1025 36.2293 30.9108L36.3113 30.593C36.3665 30.3811 36.42 30.1766 36.4559 29.973C36.4955 29.7896 36.5231 29.6275 36.5499 29.4663C36.6641 28.8057 36.7221 28.0991 36.7221 27.3648C36.7221 26.6877 36.6641 25.9727 36.5489 25.2394C36.5231 25.0837 36.4955 24.9308 36.4596 24.7695C36.4329 24.6212 36.4006 24.4913 36.3693 24.3605L36.3195 24.1486C36.2403 23.8437 36.1399 23.5166 36.0312 23.1969C35.975 23.0219 35.9142 22.856 35.8442 22.6902C35.834 22.6653 35.8248 22.6386 35.8193 22.611C35.7299 22.3982 35.6673 22.248 35.6028 22.1024C35.5226 21.9274 35.4416 21.756 35.3522 21.5847C35.2637 21.3986 35.1744 21.2309 35.0786 21.0632C34.5221 20.0581 33.8183 19.1285 32.9836 18.2929C32.8555 18.1556 32.7219 18.0313 32.5966 17.9133C32.4446 17.7724 32.3304 17.6655 32.2069 17.5752C32.0973 17.4831 32.0098 17.4158 31.9241 17.3504L31.7887 17.2445C31.7656 17.2261 31.7444 17.2067 31.726 17.1855C31.3676 16.899 31.0756 16.6899 30.7863 16.5121C30.661 16.4356 30.579 16.3048 30.5643 16.1592C30.5486 16.0127 30.603 15.8681 30.7089 15.7677C31.2239 15.2812 31.6422 14.628 31.9526 13.8265C31.984 13.7574 33.3797 10.9014 32.2594 8.48491C31.5648 6.98597 30.0382 5.93847 27.723 5.37004C27.0837 5.2125 26.4415 5.10563 25.815 5.0522C25.5728 5.03193 25.3857 4.83017 25.383 4.58787C25.3802 4.34465 25.5626 4.1392 25.8049 4.11341C27.4826 3.93283 29.1566 4.04892 30.7799 4.45428C33.3889 5.09457 35.1283 6.31988 35.9483 8.09428C37.2574 10.9282 35.7106 14.0753 35.6442 14.2079C35.3688 14.9035 35.0113 15.5217 34.5848 16.0339C38.2966 18.6181 40.4957 22.8127 40.4957 27.3648C40.4957 27.526 40.4957 27.6771 40.4856 27.8365C40.4801 27.9323 40.4451 28.0235 40.3861 28.0991C39.3496 29.4202 38.1962 30.5377 36.958 31.4194C36.876 31.4774 36.7802 31.5069 36.6844 31.5069ZM36.7332 22.3705C36.806 22.5465 36.8705 22.7243 36.9267 22.9003C37.0409 23.2328 37.1469 23.5839 37.2362 23.9266L37.286 24.1394C37.3219 24.2868 37.3578 24.4351 37.3845 24.5834C37.4205 24.7428 37.45 24.9105 37.4804 25.0883C37.6038 25.8751 37.6655 26.6388 37.6655 27.3648C37.6655 28.1534 37.6029 28.9135 37.4794 29.6247C37.4675 29.6966 37.4555 29.7675 37.4435 29.8394C38.187 29.1982 38.8918 28.4602 39.5505 27.6347C39.5523 27.5454 39.5523 27.4569 39.5523 27.3648C39.5523 22.9482 37.3311 18.8936 33.6091 16.5176C33.4875 16.4393 33.4083 16.3103 33.3945 16.1666C33.3797 16.0229 33.4322 15.8801 33.5363 15.7796C34.0412 15.2932 34.4613 14.6345 34.7838 13.8228C34.8142 13.7574 36.2099 10.9014 35.0896 8.48491C34.395 6.98597 32.8684 5.93847 30.5532 5.37004C30.474 5.35069 30.3948 5.33135 30.3155 5.31292C31.6394 5.99467 32.5782 6.92517 33.1181 8.09428C34.4272 10.9282 32.8804 14.0753 32.8141 14.2079C32.5487 14.8971 32.1922 15.5134 31.7592 16.0265C31.9508 16.1629 32.1516 16.3168 32.3764 16.4973C32.3958 16.513 32.4142 16.5305 32.4308 16.5489L32.4999 16.6033C32.5985 16.6779 32.698 16.7553 32.7919 16.8354C32.9172 16.9257 33.0591 17.0556 33.201 17.1864C33.3825 17.3578 33.5308 17.4969 33.6616 17.637C34.5479 18.5242 35.3043 19.5247 35.8994 20.5989C36.0054 20.7813 36.1058 20.9729 36.1961 21.1646C36.2855 21.3322 36.3739 21.5202 36.4633 21.7164C36.5342 21.8749 36.6015 22.037 36.6696 22.1992C36.6724 22.2047 36.7056 22.2867 36.7074 22.2922C36.7139 22.3097 36.724 22.3364 36.7332 22.3705Z" fill="#212222"/>
<path d="M23.826 41.2045C20.033 41.2045 16.4944 39.6992 13.8632 36.9657C13.7904 36.8902 13.7453 36.7925 13.7342 36.6884C13.6227 35.6409 13.6329 34.5731 13.7637 33.5146C13.9387 32.0553 13.6771 30.6429 13.0073 29.4333C12.3541 28.2633 11.4577 27.506 10.3457 27.1863C10.1366 27.1255 9.99563 26.9292 10.0058 26.7118C10.2821 20.6451 14.5882 15.3883 20.4771 13.9262C20.5794 13.9013 20.6881 13.9105 20.7848 13.9539C21.7798 14.4044 22.702 14.9488 23.5256 15.5744C24.6828 16.4422 26.073 16.9342 27.4383 16.9591C27.922 16.9692 28.3753 16.9195 28.8184 16.8117C29.5398 16.6366 30.1745 16.2875 30.7043 15.7725C30.8618 15.6195 31.1004 15.5947 31.2847 15.7117C31.8236 16.0507 32.3184 16.4201 32.7974 16.8402C32.9172 16.9259 33.0591 17.0558 33.201 17.1866C33.3825 17.358 33.5308 17.4971 33.6616 17.6371C34.5479 18.5243 35.3043 19.5249 35.8994 20.5991C36.0054 20.7815 36.1058 20.9731 36.1961 21.1647C36.2854 21.3324 36.3739 21.5204 36.4632 21.7166C36.5342 21.8751 36.6014 22.0372 36.6696 22.1994C36.6724 22.2049 36.7055 22.2869 36.7074 22.2924C36.7138 22.3099 36.724 22.3366 36.7332 22.3707C36.806 22.5467 36.8704 22.7245 36.9266 22.9005C37.0409 23.233 37.1468 23.584 37.2362 23.9268C37.2942 24.1414 37.344 24.3616 37.3845 24.5836C37.4205 24.743 37.4499 24.9107 37.4803 25.0885C37.6038 25.8753 37.6655 26.639 37.6655 27.365C37.6655 28.1536 37.6029 28.9137 37.4794 29.6249C37.4499 29.8009 37.4205 29.9778 37.3808 30.1565C37.3311 30.3859 37.2832 30.6061 37.2251 30.8253C37.1966 30.9424 37.1643 31.0676 37.1229 31.1939C37.0916 31.2878 37.0307 31.3698 36.9497 31.4279C36.0689 32.0599 35.1375 32.5878 34.1812 32.9968C32.8463 33.5699 31.7241 34.528 31.023 35.6934C30.3293 36.8478 30.1248 38.0022 30.415 39.1243C30.4694 39.3371 30.3708 39.5591 30.1755 39.6605C28.6544 40.4519 27.0182 40.9447 25.3102 41.1262C24.7988 41.1788 24.3004 41.2045 23.826 41.2045ZM14.6564 36.4277C17.096 38.9013 20.3463 40.2612 23.826 40.2612C24.2682 40.2612 24.7353 40.2363 25.2125 40.1884C26.681 40.0318 28.0952 39.6273 29.4191 38.9852C29.1943 37.7313 29.4605 36.4618 30.2142 35.207C31.0286 33.8536 32.2714 32.7895 33.8099 32.1299C34.6566 31.7669 35.4839 31.3044 36.2698 30.7535C36.2845 30.7001 36.2974 30.6466 36.3112 30.5932C36.3674 30.3785 36.4116 30.1722 36.4568 29.9667C36.4955 29.7898 36.5231 29.6277 36.5498 29.4665C36.6641 28.8059 36.7221 28.0993 36.7221 27.365C36.7221 26.6879 36.6641 25.9729 36.5489 25.2396C36.5231 25.0839 36.4955 24.931 36.4595 24.7697C36.4209 24.5569 36.3766 24.3625 36.3241 24.1681C36.2403 23.8438 36.1399 23.5168 36.0312 23.1971C35.975 23.0221 35.9141 22.8562 35.8441 22.6904C35.834 22.6655 35.8248 22.6388 35.8193 22.6112C35.7299 22.3984 35.6672 22.2482 35.6028 22.1026C35.5226 21.9276 35.4415 21.7562 35.3522 21.5849C35.2637 21.3988 35.1744 21.2311 35.0785 21.0634C34.5221 20.0583 33.8182 19.1287 32.9835 18.2931C32.8555 18.1558 32.7219 18.0315 32.5966 17.9135C32.4446 17.7726 32.3303 17.6657 32.2069 17.5754C31.8301 17.2465 31.4643 16.9637 31.0792 16.7039C30.4878 17.1995 29.8042 17.5441 29.0414 17.7293C28.519 17.8555 27.981 17.9172 27.4199 17.9025C25.8592 17.8739 24.2746 17.3147 22.9581 16.328C22.2294 15.7752 21.4186 15.2897 20.5453 14.8825C15.2552 16.2681 11.3711 20.9519 10.9694 26.3986C12.1606 26.8389 13.1225 27.704 13.8319 28.9745C14.5993 30.361 14.8987 31.9696 14.6997 33.6288C14.5846 34.563 14.5698 35.5036 14.6564 36.4277Z" fill="#212222"/>
<path d="M27.5563 17.9033C27.5112 17.9033 27.4661 17.9033 27.42 17.9024C25.8593 17.8738 24.2747 17.3146 22.9582 16.3279C19.3025 13.5806 15.0038 13.3245 12.7513 13.4212C12.2796 13.4424 11.8171 13.2103 11.5591 12.8003C11.3003 12.3894 11.2837 11.8919 11.5158 11.469C12.3597 9.97286 13.5565 8.58817 15.0748 7.34812C18.1141 4.90211 22.0627 3.72471 25.9026 4.11349C26.5706 4.16969 27.2615 4.28485 27.9488 4.45436C30.5588 5.09466 32.2982 6.31997 33.1181 8.09436C34.3877 10.8416 32.9717 13.8846 32.8242 14.1877C32.0633 16.1095 30.791 17.3008 29.0424 17.7282C28.5615 17.8452 28.063 17.9033 27.5563 17.9033ZM13.4966 12.4622C16.0025 12.4622 20.0313 12.9477 23.5248 15.5734C24.6828 16.4421 26.0731 16.9341 27.4384 16.959C27.9221 16.9691 28.3754 16.9194 28.8185 16.8116C30.2566 16.4606 31.3115 15.4554 31.9536 13.8248C31.9582 13.8119 31.9638 13.798 31.9702 13.7861C31.984 13.7575 33.3798 10.9015 32.2595 8.48499C31.5648 6.98606 30.0383 5.93856 27.7231 5.37012C27.0837 5.21258 26.4416 5.10571 25.8151 5.05228C22.2055 4.68469 18.513 5.79115 15.669 8.08147C14.2447 9.24413 13.1235 10.5385 12.3404 11.9278C12.2501 12.0927 12.322 12.2411 12.357 12.2963C12.4344 12.4189 12.5624 12.4824 12.7052 12.4788C12.9466 12.4686 13.2119 12.4622 13.4966 12.4622Z" fill="#212222"/>
<path d="M35.8156 18.6761C35.6092 18.6761 35.4194 18.5398 35.3614 18.3316C33.014 9.9405 22.3261 9.73045 22.2183 9.72953C21.9576 9.72677 21.7485 9.51395 21.7512 9.25322C21.754 8.99434 21.965 8.78613 22.2229 8.78613H22.2276C22.3418 8.78705 33.7298 8.99987 36.2698 18.0773C36.3398 18.3279 36.1933 18.5886 35.9427 18.6586C35.9003 18.6706 35.857 18.6761 35.8156 18.6761Z" fill="#212222"/>
<path d="M22.6735 11.8605C22.551 11.8605 22.4763 11.8522 22.4616 11.8504C22.2036 11.8163 22.0221 11.5795 22.0553 11.3206C22.0894 11.0645 22.3262 10.8756 22.5804 10.9143C22.6495 10.9199 23.9734 11.0405 25.0734 9.40434C25.2199 9.18784 25.5138 9.13256 25.7285 9.27628C25.944 9.42185 26.0021 9.71481 25.8565 9.93132C24.6782 11.6845 23.2143 11.8605 22.6735 11.8605ZM27.1334 13.3705C27.0109 13.3705 26.9354 13.3622 26.9206 13.3603C26.6626 13.3263 26.4802 13.0895 26.5143 12.8306C26.5484 12.5745 26.7741 12.3902 27.0404 12.4243C27.1021 12.4308 28.4315 12.5533 29.5325 10.9143C29.6799 10.6969 29.9747 10.6425 30.1866 10.7863C30.4031 10.9318 30.4611 11.2248 30.3155 11.4404C29.1381 13.1945 27.6751 13.3705 27.1334 13.3705ZM27.2753 10.5716C27.2477 10.5716 27.22 10.5698 27.1924 10.5642C26.9363 10.5191 26.7649 10.275 26.8101 10.0179C27.1528 8.06848 26.1044 7.23656 26.0592 7.20155C25.8547 7.04401 25.8123 6.7492 25.968 6.54283C26.1228 6.33738 26.4139 6.2904 26.623 6.44517C26.6866 6.49216 28.1883 7.63179 27.7387 10.1819C27.6982 10.4104 27.4992 10.5716 27.2753 10.5716Z" fill="#212222"/>
<path d="M16.0826 45.9696C14.4067 45.9696 12.6489 45.6223 10.8552 44.9378C6.53897 43.2739 3.19654 39.6496 1.91043 35.2422C1.16326 32.6607 1.35673 30.5418 2.48531 28.9442C4.2855 26.3941 7.78178 26.1574 7.93011 26.1491C8.88087 26.009 9.79479 26.0523 10.6037 26.279C11.9663 26.6714 13.0515 27.578 13.8319 28.9747C14.5993 30.3612 14.8987 31.9697 14.6997 33.629C14.5781 34.6175 14.5689 35.6125 14.6721 36.5891C14.9706 39.6846 16.2558 42.2872 17.2821 43.9262C17.5391 44.3177 17.5631 44.8327 17.3392 45.2611C17.1153 45.6905 16.6952 45.9549 16.2161 45.9687C16.1728 45.9687 16.1277 45.9696 16.0826 45.9696ZM9.0034 27.0142C8.69109 27.0142 8.36403 27.0381 8.025 27.0869C7.95498 27.0925 4.78668 27.3145 3.25182 29.4933C2.30105 30.8449 2.15457 32.6902 2.81697 34.9796C4.02017 39.1051 7.15162 42.4991 11.1933 44.057C12.8774 44.7001 14.5228 45.0262 16.0826 45.0262C16.1194 45.0262 16.1563 45.0253 16.194 45.0253C16.382 45.0188 16.4723 44.8834 16.5027 44.8244C16.5699 44.6973 16.5644 44.5517 16.4879 44.4357C15.4027 42.7018 14.0484 39.9582 13.7333 36.684C13.6227 35.6411 13.6329 34.5733 13.7637 33.5147C13.9387 32.0554 13.6771 30.6431 13.0073 29.4335C12.3541 28.2634 11.4577 27.5061 10.3457 27.1864C9.93482 27.0713 9.48616 27.0142 9.0034 27.0142Z" fill="#212222"/>
<path d="M8.94263 38.272C8.77864 38.272 8.61833 38.1854 8.53173 38.0325C8.47553 37.9321 2.96533 27.9628 9.55712 21.2246C9.73954 21.0385 10.038 21.0357 10.2241 21.2172C10.4102 21.3996 10.4139 21.6981 10.2315 21.8842C4.13812 28.113 9.30101 37.4751 9.35352 37.5682C9.48158 37.7957 9.40143 38.0832 9.17387 38.2112C9.10109 38.2527 9.02186 38.272 8.94263 38.272Z" fill="#212222"/>
<path d="M10.6323 36.9491C10.4489 36.9491 10.2739 36.8414 10.1983 36.6617C10.1716 36.6018 9.61241 35.3922 7.64454 35.2577C7.38474 35.2402 7.18851 35.0144 7.20601 34.7546C7.22444 34.4948 7.45015 34.2903 7.70903 34.3161C10.2914 34.493 11.0376 36.2232 11.068 36.2969C11.1675 36.5373 11.0533 36.8137 10.8128 36.9132C10.7539 36.9381 10.6931 36.9491 10.6323 36.9491ZM9.71099 32.3326C9.52765 32.3326 9.35261 32.2248 9.27706 32.0451C9.25126 31.9871 8.69203 30.7747 6.72234 30.6411C6.46253 30.6236 6.2663 30.3979 6.2838 30.1381C6.30223 29.8783 6.53255 29.6802 6.78683 29.6995C9.36919 29.8746 10.1164 31.6066 10.1468 31.6803C10.2463 31.9208 10.132 32.1972 9.89156 32.2967C9.8326 32.3215 9.77179 32.3326 9.71099 32.3326ZM4.77658 35.9201C4.75908 35.9201 4.74065 35.9191 4.72315 35.9173C4.46427 35.8878 4.27817 35.6547 4.30673 35.3959C4.31594 35.3166 4.55271 33.4464 6.9849 32.5611C7.22996 32.4726 7.4999 32.5979 7.58927 32.843C7.67863 33.0871 7.55241 33.358 7.30735 33.4473C5.41872 34.1355 5.24552 35.4871 5.24459 35.5009C5.21696 35.7423 5.01335 35.9201 4.77658 35.9201Z" fill="#212222"/>
<path d="M44.0903 42.0726C41.6657 44.6009 39.4865 44.8934 37.7789 44.3839C38.8544 44.0632 40.0242 43.3556 41.2601 42.0726C44.3544 38.8367 45.7506 34.2896 45.062 29.8745C44.8638 28.6575 44.5337 27.3839 43.9865 26.1575C44.2601 25.7235 44.4865 25.3179 44.6752 24.9688C44.977 24.3745 45.8261 24.3273 46.1657 24.9028C47.1186 26.4971 47.628 28.233 47.8922 29.8745C48.5808 34.2896 47.1846 38.8367 44.0903 42.0726Z" fill="#212222"/>
<path d="M39.2114 45.0703C38.69 45.0703 38.1676 44.992 37.6443 44.8363C37.4444 44.7764 37.3071 44.5922 37.3071 44.3839C37.3071 44.1757 37.4444 43.9915 37.6443 43.9316C38.7333 43.6073 39.8361 42.8712 40.9204 41.7454C43.8897 38.6397 45.2643 34.2295 44.5954 29.9474C44.3808 28.6254 44.0307 27.4139 43.5553 26.3498C43.4917 26.2051 43.5037 26.0393 43.5875 25.9057C43.8547 25.4819 44.0758 25.0858 44.2591 24.7449C44.4757 24.3202 44.9169 24.0401 45.4071 24.0254C45.8797 23.9987 46.3274 24.2493 46.5716 24.6638C47.4431 26.1204 48.0447 27.8496 48.3579 29.8C49.071 34.3723 47.6034 39.081 44.4314 42.3986C42.7271 44.1767 40.9775 45.0703 39.2114 45.0703ZM44.5171 26.1959C44.9741 27.2775 45.314 28.4881 45.5268 29.7991C46.2408 34.3723 44.7732 39.081 41.6012 42.3986C40.9167 43.1089 40.2193 43.6801 39.5155 44.1094C40.9241 44.0044 42.342 43.2139 43.7497 41.7463C46.7199 38.6397 48.0945 34.2295 47.4256 29.9474C47.1317 28.1177 46.5716 26.5018 45.7608 25.1457C45.6623 24.9798 45.5029 24.966 45.4356 24.9679C45.2882 24.9725 45.1611 25.0526 45.0948 25.1825C44.9298 25.4902 44.7391 25.832 44.5171 26.1959Z" fill="#212222"/>
<path d="M36.3554 45.0675C32.9596 45.0675 30.7402 41.7666 30.7153 41.7288C28.636 39.1197 29.2929 36.7391 30.2141 35.207C31.0286 33.8537 32.2714 32.7896 33.8099 32.1299C38.0156 30.3362 40.387 26.7367 41.4262 24.7504C41.6454 24.3202 42.0867 24.0401 42.5769 24.0254C43.0532 23.9987 43.4972 24.2493 43.7414 24.6638C44.0003 25.1005 44.2214 25.5262 44.4176 25.9656C44.9252 27.1034 45.2983 28.3932 45.5268 29.7991C46.2408 34.3723 44.7732 39.081 41.6012 42.3986L41.6003 42.3995C40.4008 43.6442 39.1607 44.4641 37.9133 44.8363C37.3716 44.9966 36.8502 45.0675 36.3554 45.0675ZM42.6165 24.9679C42.6128 24.9679 42.6091 24.9679 42.6054 24.9679C42.458 24.9725 42.3309 25.0526 42.2646 25.1825C41.1645 27.2849 38.655 31.0898 34.1812 32.9969C32.8463 33.5699 31.7241 34.528 31.023 35.6935C29.9064 37.5489 30.0594 39.3933 31.4781 41.1751C31.6053 41.364 34.0642 44.9938 37.6443 43.9316C38.7333 43.6073 39.836 42.8712 40.9204 41.7454C43.8897 38.6388 45.2643 34.2286 44.5954 29.9474C44.3807 28.6254 44.0307 27.4139 43.5553 26.3498C43.3747 25.9444 43.1702 25.5501 42.9297 25.1438C42.8376 24.9881 42.6874 24.9679 42.6165 24.9679Z" fill="#212222"/>
<path d="M28.4554 43.1475C27.5563 43.1475 26.6156 43.036 25.6391 42.7855C25.3866 42.721 25.2346 42.4639 25.2991 42.2115C25.3636 41.96 25.617 41.8071 25.8731 41.8715C34.3056 44.0338 39.8407 34.8836 39.895 34.7905C40.0268 34.5658 40.317 34.4911 40.5409 34.6238C40.7657 34.7565 40.8403 35.0457 40.7076 35.2696C40.6551 35.3581 35.9621 43.1475 28.4554 43.1475Z" fill="#212222"/>
<path d="M38.3251 38.1046C38.151 38.1046 37.9833 38.0079 37.9013 37.8402C36.7626 35.5158 37.8884 34.0049 37.9372 33.9414C38.0966 33.735 38.3933 33.6954 38.5987 33.8548C38.8042 34.0123 38.8438 34.3062 38.6881 34.5126C38.6494 34.5651 37.8811 35.654 38.7489 37.4257C38.8631 37.6597 38.7664 37.9416 38.5324 38.0567C38.4661 38.089 38.3951 38.1046 38.3251 38.1046ZM34.7874 41.2112C34.6133 41.2112 34.4456 41.1145 34.3636 40.9468C33.2249 38.6224 34.3507 37.1106 34.3995 37.047C34.5589 36.8406 34.8546 36.801 35.061 36.9604C35.2664 37.1179 35.3061 37.4118 35.1504 37.6182C35.1117 37.6707 34.3433 38.7606 35.2112 40.5322C35.3254 40.7662 35.2287 41.0482 34.9947 41.1633C34.9283 41.1956 34.8574 41.2112 34.7874 41.2112Z" fill="#212222"/>
<path d="M39.4648 40.4336C38.7637 40.4336 37.7872 40.2208 36.7434 39.3446C36.5434 39.1769 36.5176 38.8794 36.6853 38.6804C36.853 38.4805 37.1497 38.4547 37.3496 38.6223C38.8642 39.8928 40.1116 39.4008 40.1641 39.3806C40.4027 39.2801 40.6782 39.3925 40.7804 39.6311C40.8818 39.8688 40.774 40.1434 40.5372 40.2466C40.5022 40.2622 40.095 40.4336 39.4648 40.4336Z" fill="#212222"/>
<path d="M16.15 27.7511H19.5623V26.7643H16.15V25.1596H19.8396V24.1304H15.0623V30.5823H19.9028V29.5747H16.15V27.7511Z" fill="#212222"/>
<path d="M25.1202 28.1473C25.04 28.534 24.9184 28.8485 24.7572 29.0828C24.4586 29.5214 24.0341 29.7346 23.4606 29.7346C22.8291 29.7346 22.3701 29.532 22.0566 29.1136C21.7377 28.689 21.5765 28.1244 21.5765 27.4338C21.5765 26.5882 21.7536 25.9575 22.105 25.5567C22.4547 25.1568 22.9039 24.9622 23.4774 24.9622C23.9416 24.9622 24.3036 25.0687 24.5529 25.2793C24.8048 25.4907 24.9757 25.7849 25.0611 26.1522L25.0858 26.257H26.1578L26.1446 26.109C26.0944 25.5541 25.8381 25.0529 25.3835 24.6186C24.9281 24.1835 24.2834 23.9624 23.4686 23.9624C22.5128 23.9624 21.7518 24.2998 21.2065 24.963C20.7053 25.5691 20.4517 26.3521 20.4517 27.2911C20.4517 28.5261 20.7917 29.4563 21.4611 30.0552C21.9702 30.5098 22.6097 30.7414 23.3593 30.7414C24.227 30.7414 24.929 30.4595 25.4434 29.9037C25.8715 29.443 26.127 28.867 26.2036 28.1896L26.2203 28.039H25.1422L25.1202 28.1473ZM32.285 25.0687C31.7353 24.335 30.8836 23.9624 29.7534 23.9624C28.6682 23.9624 27.8358 24.3676 27.2782 25.1648C26.8493 25.7805 26.6308 26.5283 26.6308 27.388C26.6308 28.3402 26.8863 29.1409 27.3919 29.7734C27.96 30.4296 28.7493 30.7626 29.7367 30.7626C30.7946 30.7626 31.6217 30.382 32.1951 29.6324C32.6796 29 32.9262 28.1984 32.9262 27.2489C32.9262 26.3698 32.7104 25.6369 32.285 25.0687ZM31.797 27.2621C31.797 27.9201 31.6376 28.5093 31.324 29.0141C31.0174 29.5047 30.5321 29.7425 29.838 29.7425C29.1104 29.7425 28.5793 29.5241 28.2621 29.0933C27.9345 28.6494 27.7689 28.0936 27.7689 27.4426C27.7689 26.6261 27.96 26.0033 28.3388 25.5929C28.7193 25.1797 29.1985 24.9789 29.8036 24.9789C30.4273 24.9789 30.9038 25.1806 31.2597 25.5955C31.6164 26.0113 31.797 26.5724 31.797 27.2621Z" fill="#212222"/>
</svg>
