<svg width="50" height="50" viewBox="0 0 50 50" fill="none" xmlns="http://www.w3.org/2000/svg">
<g clip-path="url(#clip0_11528_219706)">
<path d="M39.3987 37.1552C39.2411 37.0184 39.036 36.9494 38.8279 36.963C38.6197 36.9765 38.4253 37.0716 38.2868 37.2276C38.2186 37.3045 38.1664 37.3942 38.1331 37.4914C38.0998 37.5887 38.0862 37.6916 38.093 37.7941C38.0998 37.8967 38.1269 37.9969 38.1727 38.0889C38.2186 38.1809 38.2822 38.2629 38.3599 38.3301L40.893 40.5327C41.0506 40.6693 41.2557 40.7384 41.4638 40.7248C41.6719 40.7112 41.8663 40.6162 42.0048 40.4602C42.073 40.3833 42.1253 40.2936 42.1586 40.1964C42.1918 40.0992 42.2055 39.9963 42.1987 39.8937C42.1919 39.7912 42.1648 39.691 42.119 39.599C42.0731 39.507 42.0095 39.425 41.9318 39.3578L39.3987 37.1552ZM41.6201 34.3845L39.8611 34.6607C39.6658 34.6901 39.4889 34.7924 39.366 34.947C39.2431 35.1016 39.1834 35.2971 39.1988 35.494C39.2143 35.6909 39.3038 35.8746 39.4493 36.0082C39.5949 36.1417 39.7856 36.2151 39.9831 36.2137C40.0247 36.2137 40.0663 36.2105 40.1074 36.2041L41.8663 35.928C41.9683 35.9125 42.0663 35.8771 42.1545 35.8236C42.2427 35.7701 42.3195 35.6997 42.3804 35.6165C42.4412 35.5332 42.485 35.4387 42.5092 35.3384C42.5334 35.2381 42.5375 35.134 42.5212 35.0321C42.505 34.9303 42.4687 34.8326 42.4145 34.7448C42.3603 34.6571 42.2893 34.5809 42.2056 34.5207C42.1218 34.4604 42.0269 34.4174 41.9264 34.3941C41.826 34.3707 41.7219 34.3675 41.6201 34.3845ZM37.7956 39.2059C37.7646 39.0004 37.6537 38.8155 37.487 38.6914C37.3203 38.5673 37.1113 38.5141 36.9056 38.5434C36.6998 38.5726 36.514 38.682 36.3886 38.8477C36.2631 39.0134 36.2082 39.222 36.2359 39.4279L36.5379 41.5173C36.5656 41.7039 36.6595 41.8743 36.8024 41.9973C36.9454 42.1204 37.1279 42.1879 37.3166 42.1875C37.3544 42.1875 37.3922 42.1848 37.4297 42.1795C37.5317 42.1655 37.6299 42.1315 37.7187 42.0794C37.8075 42.0273 37.8852 41.9582 37.9473 41.8761C38.0093 41.7939 38.0545 41.7003 38.0803 41.6006C38.1061 41.501 38.112 41.3972 38.0976 41.2952L37.7956 39.2059ZM12.1071 37.2276C11.9687 37.0714 11.7743 36.9762 11.566 36.9626C11.3578 36.9491 11.1526 37.0182 10.9951 37.1551L8.46189 39.3578C8.3842 39.425 8.32063 39.507 8.27486 39.599C8.2291 39.691 8.20204 39.7912 8.19526 39.8938C8.18847 39.9963 8.2021 40.0992 8.23536 40.1964C8.26861 40.2936 8.32082 40.3833 8.38898 40.4602C8.52752 40.6162 8.72195 40.7112 8.93012 40.7248C9.13829 40.7384 9.34341 40.6693 9.50103 40.5327L12.0342 38.3301C12.1119 38.2628 12.1755 38.1808 12.2212 38.0888C12.267 37.9968 12.2941 37.8966 12.3009 37.7941C12.3076 37.6915 12.294 37.5887 12.2608 37.4914C12.2275 37.3942 12.1753 37.3045 12.1071 37.2276ZM10.286 36.2041C10.3271 36.2105 10.3687 36.2137 10.4103 36.2137C10.6078 36.2152 10.7985 36.1418 10.9441 36.0083C11.0896 35.8748 11.1791 35.6911 11.1947 35.4942C11.2102 35.2973 11.1505 35.1018 11.0277 34.9472C10.9048 34.7925 10.7279 34.6902 10.5327 34.6607L8.77387 34.3845C8.67212 34.3674 8.56799 34.3706 8.46749 34.394C8.36699 34.4173 8.2721 34.4603 8.1883 34.5205C8.1045 34.5807 8.03344 34.6568 7.97924 34.7446C7.92503 34.8324 7.88874 34.9301 7.87246 35.0319C7.85618 35.1338 7.86024 35.2379 7.88439 35.3382C7.90855 35.4385 7.95233 35.5331 8.01321 35.6164C8.07408 35.6997 8.15085 35.7701 8.23908 35.8236C8.32731 35.8771 8.42526 35.9125 8.52727 35.928L10.286 36.2041ZM13.4899 38.5437C13.2837 38.5133 13.074 38.5661 12.9068 38.6903C12.7395 38.8146 12.6285 39.0002 12.5981 39.2063L12.2962 41.2956C12.2819 41.3976 12.2879 41.5013 12.3137 41.601C12.3396 41.7006 12.3848 41.7942 12.4469 41.8763C12.509 41.9584 12.5867 42.0274 12.6755 42.0795C12.7643 42.1315 12.8625 42.1655 12.9645 42.1795C13.0018 42.1848 13.0395 42.1875 13.0772 42.1875C13.266 42.1879 13.4486 42.1204 13.5916 41.9972C13.7347 41.8741 13.8286 41.7036 13.8563 41.5169L14.1581 39.4276C14.1724 39.3256 14.1665 39.2219 14.1406 39.1222C14.1148 39.0226 14.0695 38.929 14.0074 38.8469C13.9454 38.7648 13.8677 38.6958 13.7789 38.6437C13.69 38.5917 13.5918 38.5577 13.4899 38.5437ZM41.3493 22.1069C41.3493 13.3633 34.1033 6.25 25.1969 6.25C16.2905 6.25 9.04452 13.3633 9.04452 22.1069C9.04853 25.931 10.4496 29.6218 12.9841 32.4852L13.2867 32.8278C15.6307 35.4782 18.2874 38.4823 18.7949 41.9174C18.8737 42.4266 19.1317 42.8909 19.5224 43.2269C19.9131 43.5628 20.4108 43.7483 20.9261 43.75H29.4662C29.9823 43.7486 30.4808 43.5627 30.8718 43.2259C31.2627 42.889 31.5203 42.4234 31.598 41.9132C31.995 39.1869 33.7159 36.2968 36.8591 33.078C39.7383 30.1524 41.3511 26.2117 41.3493 22.1069ZM30.0383 41.6901C30.018 41.8276 29.9492 41.9534 29.8443 42.0446C29.7393 42.1358 29.6052 42.1865 29.4662 42.1875H20.9261C20.7872 42.1863 20.6533 42.1357 20.5485 42.0446C20.4437 41.9536 20.3747 41.8281 20.3541 41.6908C19.779 37.7991 16.9593 34.6107 14.4717 31.7974L14.17 31.456C11.8865 28.8767 10.6242 25.5518 10.6204 22.1069C10.6204 14.225 17.1594 7.8125 25.1969 7.8125C33.2346 7.8125 39.7734 14.225 39.7734 22.1069C39.7748 25.805 38.3215 29.3553 35.7272 31.9908C32.3451 35.4546 30.4846 38.6269 30.0383 41.6901Z" fill="#212222"/>
<path d="M19.8675 25.8214L19.7217 25.6593C18.6854 24.5154 18.1097 23.0281 18.1057 21.4845C18.1057 19.0301 19.5357 16.9626 21.9312 15.9536C22.0261 15.914 22.1123 15.8561 22.1847 15.7831C22.2571 15.7101 22.3144 15.6234 22.3532 15.5282C22.3919 15.4329 22.4115 15.3309 22.4106 15.2281C22.4098 15.1252 22.3886 15.0236 22.3482 14.929C22.2653 14.7377 22.1102 14.5869 21.9167 14.5095C21.7231 14.432 21.5068 14.4342 21.3149 14.5154C18.3634 15.7587 16.5298 18.4293 16.5298 21.4845C16.5339 23.4121 17.252 25.2699 18.5454 26.6992L18.6924 26.8625C19.7904 28.0809 21.0348 29.4622 21.2625 30.9747C21.2912 31.1605 21.3854 31.3298 21.5282 31.452C21.671 31.5742 21.8529 31.6412 22.0408 31.6408C22.0801 31.6408 22.1193 31.638 22.1582 31.6324C22.2601 31.6177 22.3581 31.5831 22.4466 31.5305C22.5351 31.478 22.6124 31.4084 22.6739 31.3259C22.7355 31.2434 22.7802 31.1496 22.8055 31.0498C22.8307 30.95 22.836 30.8462 22.8211 30.7443C22.5239 28.7694 21.1127 27.2035 19.8675 25.8214ZM29.1365 45.3126H21.2573C21.1542 45.3118 21.0519 45.3313 20.9564 45.3702C20.8608 45.4091 20.7739 45.4665 20.7007 45.5391C20.6274 45.6118 20.5693 45.6982 20.5296 45.7934C20.49 45.8886 20.4695 45.9907 20.4695 46.0939C20.4695 46.197 20.49 46.2992 20.5296 46.3944C20.5693 46.4896 20.6274 46.576 20.7007 46.6486C20.7739 46.7213 20.8608 46.7787 20.9564 46.8176C21.0519 46.8564 21.1542 46.876 21.2573 46.8751H29.1365C29.2397 46.876 29.342 46.8564 29.4375 46.8176C29.5331 46.7787 29.62 46.7213 29.6932 46.6486C29.7665 46.576 29.8246 46.4896 29.8643 46.3944C29.9039 46.2992 29.9244 46.197 29.9244 46.0939C29.9244 45.9907 29.9039 45.8886 29.8643 45.7934C29.8246 45.6982 29.7665 45.6118 29.6932 45.5391C29.62 45.4665 29.5331 45.4091 29.4375 45.3702C29.342 45.3313 29.2397 45.3118 29.1365 45.3126ZM27.5607 48.4376H22.8332C22.73 48.4368 22.6277 48.4563 22.5322 48.4952C22.4367 48.5341 22.3498 48.5915 22.2765 48.6641C22.2033 48.7368 22.1451 48.8232 22.1055 48.9184C22.0658 49.0136 22.0454 49.1157 22.0454 49.2189C22.0454 49.322 22.0658 49.4242 22.1055 49.5194C22.1451 49.6146 22.2033 49.701 22.2765 49.7736C22.3498 49.8463 22.4367 49.9037 22.5322 49.9426C22.6277 49.9814 22.73 50.001 22.8332 50.0001H27.5607C27.6638 50.001 27.7661 49.9814 27.8617 49.9426C27.9572 49.9037 28.0441 49.8463 28.1174 49.7736C28.1906 49.701 28.2487 49.6146 28.2884 49.5194C28.3281 49.4242 28.3485 49.322 28.3485 49.2189C28.3485 49.1157 28.3281 49.0136 28.2884 48.9184C28.2487 48.8232 28.1906 48.7368 28.1174 48.6641C28.0441 48.5915 27.9572 48.5341 27.8617 48.4952C27.7661 48.4563 27.6638 48.4368 27.5607 48.4376ZM24.803 4.65063C25.0111 4.65151 25.211 4.56969 25.3587 4.42318C25.5065 4.27667 25.59 4.07747 25.5909 3.86938V0.781389C25.5892 0.573555 25.5054 0.374822 25.3578 0.22847C25.2102 0.0821177 25.0108 0 24.803 0C24.5951 0 24.3957 0.0821177 24.2481 0.22847C24.1006 0.374822 24.0168 0.573555 24.0151 0.781389V3.86938C24.016 4.07747 24.0995 4.27667 24.2472 4.42318C24.395 4.56969 24.5949 4.6515 24.803 4.65063ZM16.7949 5.39603C16.8682 5.59114 17.0156 5.74936 17.2051 5.83619C17.3946 5.92301 17.6107 5.9314 17.8064 5.85951C17.9031 5.82468 17.992 5.77104 18.068 5.70168C18.1439 5.63232 18.2054 5.54862 18.2489 5.45539C18.2923 5.36217 18.3169 5.26127 18.3212 5.1585C18.3254 5.05574 18.3093 4.95314 18.2738 4.85663L17.1969 1.95479C17.1237 1.75965 16.9762 1.6014 16.7867 1.51457C16.5972 1.42774 16.3811 1.41937 16.1855 1.49131C16.0887 1.52614 15.9998 1.57979 15.9238 1.64915C15.8479 1.71851 15.7864 1.80221 15.743 1.89543C15.6995 1.98866 15.6749 2.08956 15.6707 2.19232C15.6664 2.29508 15.6825 2.39768 15.718 2.49419L16.7949 5.39603ZM10.5415 9.25154C10.6775 9.40965 10.8704 9.50781 11.0782 9.52473C11.2861 9.54165 11.4923 9.47598 11.6521 9.34195C11.7309 9.27597 11.7958 9.19501 11.8431 9.10375C11.8904 9.01249 11.9191 8.91275 11.9276 8.81031C11.9361 8.70787 11.9241 8.60477 11.8924 8.50698C11.8608 8.4092 11.81 8.31867 11.7431 8.24065L9.71917 5.87514C9.5831 5.71715 9.39029 5.61908 9.18246 5.60216C8.97464 5.58524 8.76851 5.65083 8.60867 5.78473C8.52985 5.85071 8.46491 5.93167 8.41761 6.02293C8.37032 6.11419 8.3416 6.21393 8.33314 6.31637C8.32467 6.41881 8.33662 6.52191 8.36829 6.6197C8.39997 6.71748 8.45073 6.80801 8.51765 6.88603L10.5415 9.25154ZM7.57588 13.6133L4.84914 12.0691C4.66773 11.9665 4.45321 11.9395 4.25203 11.9939C4.05084 12.0483 3.87918 12.1797 3.7742 12.3598C3.72294 12.4489 3.68986 12.5473 3.67688 12.6493C3.6639 12.7513 3.67127 12.8548 3.69857 12.9539C3.72587 13.053 3.77255 13.1458 3.83592 13.2267C3.89929 13.3077 3.97808 13.3753 4.06774 13.4256L6.79449 14.9698C6.97585 15.0726 7.19044 15.0997 7.39168 15.0453C7.59293 14.9909 7.7646 14.8593 7.86942 14.6791C7.92068 14.59 7.95376 14.4916 7.96674 14.3896C7.97972 14.2876 7.97235 14.184 7.94506 14.0849C7.91776 13.9858 7.87107 13.8931 7.8077 13.8121C7.74434 13.7312 7.66554 13.6636 7.57588 13.6133ZM5.97733 20.3241L2.87662 19.7878C2.77526 19.7693 2.67125 19.7711 2.57057 19.793C2.4699 19.8149 2.37454 19.8565 2.29 19.9154C2.20545 19.9742 2.13338 20.0493 2.07793 20.1361C2.02248 20.2229 1.98475 20.3199 1.9669 20.4214C1.94905 20.5228 1.95143 20.6268 1.97392 20.7274C1.99641 20.8279 2.03855 20.923 2.09792 21.0072C2.1573 21.0914 2.23273 21.1631 2.31989 21.218C2.40705 21.2729 2.50421 21.3101 2.60578 21.3274L5.70649 21.8637C5.75156 21.8713 5.79718 21.8751 5.84289 21.8751C6.03933 21.8766 6.22913 21.804 6.37443 21.6718C6.51972 21.5396 6.60984 21.3575 6.6268 21.1617C6.64377 20.966 6.58633 20.7711 6.46596 20.6158C6.34558 20.4606 6.17111 20.3564 5.97733 20.3241ZM48.0351 20.4233C47.9978 20.2184 47.8809 20.0367 47.7101 19.9176C47.5393 19.7986 47.3284 19.7519 47.1233 19.7877L44.0228 20.324C43.8289 20.3563 43.6544 20.4605 43.5339 20.6158C43.4135 20.7711 43.3561 20.9661 43.3731 21.1618C43.3901 21.3576 43.4803 21.5398 43.6257 21.672C43.771 21.8042 43.9609 21.8768 44.1575 21.8751C44.2031 21.8751 44.2486 21.8712 44.2936 21.8637L47.3942 21.3274C47.4957 21.3102 47.5928 21.2732 47.68 21.2185C47.7672 21.1637 47.8427 21.0923 47.9022 21.0083C47.9618 20.9243 48.0042 20.8294 48.027 20.729C48.0498 20.6286 48.0525 20.5247 48.0351 20.4233ZM45.8314 12.3598C45.7266 12.1795 45.555 12.0478 45.3537 11.9934C45.1524 11.9389 44.9378 11.9662 44.7565 12.0691L42.0299 13.6133C41.9403 13.6636 41.8615 13.7312 41.7982 13.8122C41.7349 13.8932 41.6882 13.9859 41.661 14.085C41.6337 14.1841 41.6264 14.2877 41.6394 14.3896C41.6524 14.4916 41.6855 14.59 41.7367 14.6791C41.8416 14.8593 42.0132 14.9909 42.2145 15.0453C42.4157 15.0997 42.6303 15.0726 42.8117 14.9698L45.5382 13.4256C45.6279 13.3752 45.7066 13.3076 45.7699 13.2266C45.8333 13.1457 45.8799 13.0529 45.9072 12.9538C45.9344 12.8547 45.9418 12.7512 45.9288 12.6492C45.9158 12.5472 45.8827 12.4489 45.8314 12.3598ZM38.4631 9.52735C38.5773 9.5276 38.6902 9.50308 38.794 9.45546C38.8979 9.40784 38.9901 9.33827 39.0644 9.25154L41.0885 6.88605C41.1553 6.80799 41.206 6.71745 41.2376 6.61966C41.2692 6.52188 41.2812 6.4188 41.2727 6.31638C41.2642 6.21396 41.2355 6.11424 41.1882 6.02298C41.141 5.93173 41.0761 5.85076 40.9973 5.78475C40.8375 5.65075 40.6313 5.5851 40.4234 5.60202C40.2155 5.61894 40.0226 5.71707 39.8866 5.87516L37.8625 8.24065C37.7957 8.31871 37.745 8.40925 37.7134 8.50704C37.6817 8.60482 37.6698 8.7079 37.6783 8.81032C37.6868 8.91274 37.7155 9.01246 37.7628 9.10372C37.81 9.19497 37.8749 9.27594 37.9537 9.34195C38.0963 9.46187 38.2768 9.52754 38.4631 9.52735ZM31.7996 5.85951C31.9953 5.9314 32.2114 5.92301 32.4009 5.83619C32.5903 5.74936 32.7378 5.59114 32.8111 5.39603L33.8879 2.49419C33.9235 2.39768 33.9397 2.29508 33.9354 2.1923C33.9311 2.08952 33.9066 1.98861 33.8631 1.89537C33.8197 1.80214 33.7582 1.71843 33.6822 1.64908C33.6062 1.57973 33.5173 1.52611 33.4205 1.49131C33.2248 1.41948 33.0087 1.42788 32.8193 1.5147C32.6298 1.60152 32.4823 1.75971 32.409 1.95479L31.3322 4.85663C31.2966 4.95314 31.2804 5.05575 31.2847 5.15852C31.289 5.2613 31.3135 5.36222 31.357 5.45546C31.4004 5.54869 31.4619 5.6324 31.5379 5.70175C31.6139 5.7711 31.7028 5.82472 31.7996 5.85951Z" fill="#212222"/>
</g>
<defs>
<clipPath id="clip0_11528_219706">
<rect width="50" height="50" fill="white"/>
</clipPath>
</defs>
</svg>
