<svg width="50" height="50" viewBox="0 0 50 50" fill="none" xmlns="http://www.w3.org/2000/svg">
<path d="M19.1797 24.0154H30.8203C30.9757 24.0154 31.1247 23.9537 31.2346 23.8438C31.3445 23.7339 31.4063 23.5849 31.4063 23.4295V19.0256C31.4063 16.9522 29.2148 15.7053 27.9172 15.1455C28.4116 14.584 28.7335 13.8918 28.8444 13.1519C28.9552 12.412 28.8503 11.6558 28.5422 10.974C28.2341 10.2922 27.7359 9.71379 27.1073 9.30806C26.4787 8.90233 25.7464 8.68652 24.9982 8.68652C24.2501 8.68652 23.5178 8.90233 22.8892 9.30806C22.2606 9.71379 21.7624 10.2922 21.4543 10.974C21.1462 11.6558 21.0413 12.412 21.1521 13.1519C21.263 13.8918 21.5849 14.584 22.0793 15.1455C20.7836 15.7029 18.5937 16.9529 18.5937 19.0256V23.4295C18.5937 23.5849 18.6555 23.7339 18.7654 23.8438C18.8753 23.9537 19.0243 24.0154 19.1797 24.0154ZM25 9.8674C25.5374 9.8674 26.0627 10.0268 26.5096 10.3253C26.9564 10.6239 27.3047 11.0483 27.5104 11.5448C27.716 12.0413 27.7698 12.5876 27.665 13.1147C27.5601 13.6418 27.3013 14.1259 26.9213 14.5059C26.5413 14.8859 26.0572 15.1447 25.5301 15.2496C25.003 15.3544 24.4567 15.3006 23.9602 15.0949C23.4637 14.8893 23.0393 14.541 22.7407 14.0942C22.4422 13.6473 22.2828 13.122 22.2828 12.5846C22.2836 11.8642 22.5702 11.1735 23.0796 10.6642C23.589 10.1548 24.2796 9.86822 25 9.8674ZM19.7656 19.0256C19.7656 17.4658 22.025 16.3693 23.1312 15.992C23.7034 16.3071 24.3459 16.4726 24.9991 16.473C25.6522 16.4735 26.295 16.309 26.8676 15.9947C27.6238 16.2635 30.2375 17.319 30.2375 19.0256V22.8436H19.7656V19.0256ZM12.8703 32.4338C13.3647 31.8722 13.6867 31.1799 13.7975 30.4399C13.9084 29.7 13.8034 28.9437 13.4953 28.2619C13.1871 27.5801 12.6889 27.0016 12.0602 26.5958C11.4315 26.1901 10.6992 25.9743 9.95098 25.9743C9.20275 25.9743 8.4704 26.1901 7.84175 26.5958C7.2131 27.0016 6.71483 27.5801 6.40668 28.2619C6.09853 28.9437 5.99359 29.7 6.10444 30.4399C6.21529 31.1799 6.53723 31.8722 7.03164 32.4338C5.73437 32.992 3.54297 34.2412 3.54297 36.3135V40.7182C3.54297 40.8736 3.6047 41.0226 3.71459 41.1325C3.82447 41.2424 3.97351 41.3041 4.12891 41.3041H15.7727C15.9281 41.3041 16.0771 41.2424 16.187 41.1325C16.2969 41.0226 16.3586 40.8736 16.3586 40.7182V36.3135C16.3586 34.2412 14.1676 32.992 12.8703 32.4338ZM9.95117 27.1557C10.4885 27.1558 11.0138 27.3152 11.4606 27.6138C11.9074 27.9124 12.2556 28.3367 12.4612 28.8332C12.6668 29.3297 12.7206 29.876 12.6157 30.4031C12.5109 30.9301 12.2521 31.4142 11.8721 31.7942C11.4921 32.1742 11.008 32.433 10.481 32.5378C9.95393 32.6427 9.40762 32.5889 8.91114 32.3833C8.41465 32.1777 7.99028 31.8295 7.69169 31.3827C7.39309 30.9359 7.23367 30.4106 7.23359 29.8733C7.23432 29.1527 7.52087 28.4619 8.03035 27.9524C8.53984 27.4429 9.23065 27.1564 9.95117 27.1557ZM15.1855 40.1326H4.71484V36.3135C4.71484 34.7549 6.97305 33.6592 8.07969 33.2803C8.65276 33.5961 9.29645 33.7617 9.95078 33.7617C10.6051 33.7617 11.2488 33.5961 11.8219 33.2803C12.9285 33.6592 15.1863 34.7549 15.1863 36.3135L15.1855 40.1326ZM42.9688 32.4338C43.463 31.8722 43.7848 31.18 43.8956 30.4401C44.0064 29.7003 43.9014 28.9442 43.5933 28.2625C43.2851 27.5807 42.7869 27.0024 42.1583 26.5967C41.5298 26.191 40.7975 25.9752 40.0494 25.9752C39.3013 25.9752 38.5691 26.191 37.9405 26.5967C37.3119 27.0024 36.8137 27.5807 36.5056 28.2625C36.1974 28.9442 36.0924 29.7003 36.2032 30.4401C36.314 31.18 36.6358 31.8722 37.1301 32.4338C35.8332 32.992 33.6418 34.2412 33.6418 36.3135V40.7182C33.6418 40.8736 33.7035 41.0226 33.8134 41.1325C33.9233 41.2424 34.0723 41.3041 34.2277 41.3041H45.8711C46.0265 41.3041 46.1755 41.2424 46.2854 41.1325C46.3953 41.0226 46.457 40.8736 46.457 40.7182V36.3135C46.457 34.2412 44.2656 32.992 42.9688 32.4338ZM40.0492 27.1553C40.5866 27.1553 41.1119 27.3146 41.5588 27.6132C42.0056 27.9117 42.3539 28.3361 42.5595 28.8326C42.7652 29.329 42.819 29.8754 42.7142 30.4024C42.6094 30.9295 42.3507 31.4137 41.9707 31.7937C41.5907 32.1737 41.1066 32.4325 40.5796 32.5374C40.0525 32.6423 39.5062 32.5885 39.0097 32.3829C38.5132 32.1773 38.0888 31.8291 37.7901 31.3823C37.4915 30.9356 37.3321 30.4103 37.332 29.8729C37.333 29.1526 37.6195 28.462 38.1288 27.9527C38.6381 27.4433 39.3285 27.1567 40.0488 27.1557L40.0492 27.1553ZM45.2836 40.1322H34.8133V36.3135C34.8133 34.7549 37.0711 33.6592 38.1777 33.2803C38.7508 33.5961 39.3945 33.7617 40.0488 33.7617C40.7032 33.7617 41.3469 33.5961 41.9199 33.2803C43.0266 33.6592 45.2848 34.7549 45.2848 36.3135L45.2836 40.1322ZM31.9277 36.1838L25.5859 32.3315V25.1006C25.5859 24.9452 25.5242 24.7962 25.4143 24.6863C25.3044 24.5764 25.1554 24.5147 25 24.5147C24.8446 24.5147 24.6956 24.5764 24.5857 24.6863C24.4758 24.7962 24.4141 24.9452 24.4141 25.1006V32.3205L18.0547 36.1838C17.9888 36.2237 17.9314 36.2762 17.8858 36.3383C17.8402 36.4004 17.8073 36.4708 17.7889 36.5457C17.7705 36.6205 17.7671 36.6982 17.7787 36.7743C17.7904 36.8505 17.8169 36.9236 17.8568 36.9895C17.8967 37.0554 17.9492 37.1127 18.0113 37.1583C18.0734 37.2039 18.1439 37.2369 18.2187 37.2552C18.2935 37.2736 18.3712 37.2771 18.4474 37.2654C18.5235 37.2538 18.5966 37.2272 18.6625 37.1873L24.9906 33.3428L31.3188 37.1873C31.3845 37.2285 31.4579 37.2562 31.5344 37.2688C31.611 37.2814 31.6893 37.2787 31.7649 37.2608C31.8404 37.2429 31.9116 37.2101 31.9744 37.1645C32.0371 37.1188 32.0902 37.0611 32.1305 36.9948C32.1708 36.9284 32.1975 36.8548 32.209 36.778C32.2206 36.7013 32.2168 36.623 32.1979 36.5477C32.1789 36.4724 32.1452 36.4017 32.0987 36.3396C32.0522 36.2774 31.9938 36.2251 31.927 36.1858L31.9277 36.1838Z" fill="white"/>
</svg>
