<svg width="50" height="50" viewBox="0 0 50 50" fill="none" xmlns="http://www.w3.org/2000/svg">
<path d="M37.7905 47.0134H32.6418C32.4626 47.0134 32.2908 46.9423 32.1641 46.8155C32.0373 46.6888 31.9662 46.517 31.9662 46.3378V42.6959C28.0417 43.6021 23.9556 43.5394 20.0608 42.5134V46.3378C20.0608 46.517 19.9896 46.6888 19.8628 46.8155C19.7361 46.9423 19.5643 47.0134 19.3851 47.0134H14.2364C14.0572 47.0134 13.8854 46.9423 13.7587 46.8155C13.6319 46.6888 13.5608 46.517 13.5608 46.3378V39.581C9.34453 36.6891 6.93237 32.5405 6.93237 28.1418C6.93237 21.8175 11.7972 16.2499 19.3175 13.9526C19.404 13.9204 19.4961 13.9062 19.5883 13.9109C19.6804 13.9156 19.7706 13.9392 19.8533 13.9801C19.936 14.021 20.0095 14.0784 20.0691 14.1488C20.1288 14.2192 20.1734 14.3011 20.2002 14.3894C20.227 14.4776 20.2355 14.5705 20.225 14.6622C20.2146 14.7539 20.1855 14.8424 20.1395 14.9224C20.0935 15.0024 20.0316 15.0722 19.9576 15.1273C19.8837 15.1825 19.7992 15.2219 19.7094 15.2432C12.7702 17.3445 8.28372 22.4053 8.28372 28.1215C8.28372 32.1756 10.5878 35.9932 14.608 38.6351C14.7019 38.6969 14.7789 38.7812 14.832 38.8803C14.8851 38.9794 14.9126 39.0902 14.9121 39.2026V45.6621H18.7094V41.608C18.7102 41.5026 18.7356 41.3987 18.7838 41.3049C18.8319 41.211 18.9013 41.1297 18.9864 41.0675C19.0717 41.0046 19.1706 40.9627 19.275 40.9451C19.3795 40.9275 19.4866 40.9347 19.5878 40.9661C23.7751 42.2348 28.2342 42.305 32.4594 41.1688C32.5619 41.14 32.6698 41.1358 32.7742 41.1566C32.8786 41.1774 32.9766 41.2226 33.0603 41.2884C33.144 41.3543 33.2109 41.439 33.2556 41.5357C33.3003 41.6323 33.3215 41.7381 33.3175 41.8445V45.6756H37.1148V39.6621C37.1148 39.5448 37.1454 39.4296 37.2034 39.3277C37.2615 39.2258 37.345 39.1408 37.4459 39.081C40.2718 37.4995 42.4882 35.019 43.7432 32.0337C43.779 31.9384 43.8359 31.8525 43.9096 31.7823C43.9833 31.7121 44.0719 31.6595 44.1689 31.6283L47.2972 30.6418V25.6013L44.1689 24.6148C44.0719 24.5836 43.9833 24.531 43.9096 24.4608C43.8359 24.3906 43.779 24.3047 43.7432 24.2094C42.9859 22.3129 41.7995 20.6176 40.277 19.2567C40.2038 19.1891 40.1465 19.1063 40.1091 19.014C40.0718 18.9217 40.0552 18.8223 40.0607 18.7229L40.3918 12.4526L36.0743 15.831C35.9853 15.9499 35.8597 16.0361 35.7168 16.0764C35.5739 16.1167 35.4217 16.1088 35.2837 16.054C33.979 15.4859 32.6209 15.049 31.2297 14.7499C31.0553 14.7126 30.9027 14.6078 30.8053 14.4585C30.7078 14.3091 30.6733 14.1273 30.7094 13.9526C30.7278 13.8656 30.7633 13.783 30.8138 13.7097C30.8642 13.6364 30.9286 13.5738 31.0033 13.5254C31.078 13.4771 31.1616 13.444 31.2491 13.428C31.3366 13.412 31.4265 13.4135 31.5135 13.4324C32.8531 13.7152 34.1647 14.1177 35.4324 14.6351L40.7567 10.4594C40.8588 10.3784 40.9821 10.3286 41.1118 10.3161C41.2415 10.3036 41.372 10.3288 41.4877 10.3888C41.6034 10.4488 41.6993 10.541 41.7638 10.6542C41.8283 10.7674 41.8587 10.8969 41.8513 11.027L41.4526 18.4594C42.9369 19.8471 44.1152 21.5294 44.9121 23.3986L48.1756 24.4594C48.3123 24.5024 48.4318 24.5877 48.5169 24.7031C48.6019 24.8185 48.648 24.958 48.6486 25.1013V31.1418C48.648 31.2851 48.6019 31.4246 48.5169 31.54C48.4318 31.6554 48.3123 31.7407 48.1756 31.7837L44.8851 32.8243C43.5436 35.8376 41.3011 38.3611 38.4662 40.0472V46.3378C38.4662 46.517 38.395 46.6888 38.2683 46.8155C38.1415 46.9423 37.9697 47.0134 37.7905 47.0134Z" fill="white"/>
<path d="M7.03387 28.8174C6.02712 28.8174 4.04739 28.6485 2.70279 27.466C2.26212 27.0624 1.91339 26.5687 1.68023 26.0184C1.44708 25.4682 1.33495 24.8742 1.35144 24.2769C1.35144 24.0977 1.42263 23.9258 1.54934 23.7991C1.67606 23.6724 1.84792 23.6012 2.02712 23.6012C2.20632 23.6012 2.37818 23.6724 2.50489 23.7991C2.63161 23.9258 2.70279 24.0977 2.70279 24.2769C2.68614 24.6859 2.75779 25.0938 2.91286 25.4727C3.06792 25.8517 3.30278 26.1928 3.60144 26.4728C4.75685 27.4998 6.83793 27.5471 7.54063 27.4728C7.62944 27.4635 7.71922 27.4718 7.80478 27.4974C7.89034 27.523 7.96997 27.5653 8.03909 27.6218C8.1082 27.6784 8.16542 27.7481 8.20744 27.8269C8.24945 27.9057 8.27543 27.992 8.28388 28.0809C8.30081 28.2592 8.24628 28.4369 8.13225 28.575C8.01822 28.7131 7.85404 28.8003 7.67577 28.8174C7.46198 28.8298 7.24766 28.8298 7.03387 28.8174ZM38.7096 23.7363H38.2028C38.0236 23.7363 37.8517 23.6651 37.725 23.5384C37.5983 23.4117 37.5271 23.2398 37.5271 23.0606C37.5271 22.8814 37.5983 22.7096 37.725 22.5829C37.8517 22.4562 38.0236 22.385 38.2028 22.385H38.7096C38.8888 22.385 39.0606 22.4562 39.1873 22.5829C39.314 22.7096 39.3852 22.8814 39.3852 23.0606C39.3852 23.2398 39.314 23.4117 39.1873 23.5384C39.0606 23.6651 38.8888 23.7363 38.7096 23.7363ZM22.8312 17.8647C22.7507 17.8638 22.6709 17.8502 22.5947 17.8242C20.9464 17.2073 19.5606 16.0419 18.6704 14.5236C17.7802 13.0054 17.4398 11.2271 17.7064 9.48741C17.973 7.74776 18.8303 6.15292 20.1343 4.97095C21.4383 3.78898 23.1094 3.09194 24.8668 2.997C26.6242 2.90206 28.3607 3.415 29.7844 4.44961C31.2082 5.48422 32.2323 6.97741 32.6848 8.67821C33.1372 10.379 32.9904 12.1837 32.2689 13.789C31.5474 15.3943 30.2953 16.7023 28.7231 17.4931C28.6436 17.533 28.5571 17.5569 28.4685 17.5634C28.3798 17.5699 28.2908 17.5589 28.2064 17.531C28.122 17.503 28.0439 17.4588 27.9767 17.4007C27.9094 17.3426 27.8542 17.2718 27.8143 17.1924C27.7744 17.113 27.7505 17.0265 27.744 16.9378C27.7375 16.8492 27.7485 16.7601 27.7764 16.6757C27.8328 16.5053 27.9546 16.3643 28.115 16.2836C29.4122 15.6327 30.4458 14.555 31.0418 13.2317C31.6379 11.9084 31.7602 10.4202 31.3881 9.01729C31.016 7.61443 30.1722 6.38246 28.9986 5.52855C27.825 4.67464 26.3932 4.25085 24.9439 4.32846C23.4946 4.40607 22.1162 4.98033 21.0405 5.95469C19.9648 6.92904 19.2574 8.24407 19.0373 9.67865C18.8171 11.1132 19.0976 12.5799 19.8316 13.832C20.5656 15.0841 21.7083 16.0452 23.0677 16.5539C23.2175 16.6083 23.3433 16.7139 23.4229 16.8521C23.5024 16.9903 23.5305 17.1521 23.5021 17.309C23.4738 17.4659 23.391 17.6077 23.2682 17.7094C23.1454 17.8111 22.9906 17.8661 22.8312 17.8647Z" fill="white"/>
<path d="M19.9256 18.8245C19.7787 18.8215 19.6368 18.7708 19.5213 18.68C19.4059 18.5891 19.3231 18.4631 19.2857 18.3211C19.2483 18.179 19.2582 18.0286 19.3139 17.8926C19.3696 17.7567 19.4682 17.6426 19.5945 17.5677C19.7972 17.4596 24.6891 14.9799 31.4256 16.7772C31.5684 16.845 31.6829 16.9607 31.7492 17.1043C31.8154 17.2478 31.8293 17.41 31.7883 17.5627C31.7473 17.7153 31.6541 17.8488 31.5249 17.9399C31.3956 18.0309 31.2386 18.0738 31.081 18.061C27.4881 17.043 23.6553 17.2814 20.2162 18.7366C20.1272 18.7876 20.0279 18.8176 19.9256 18.8245ZM25.277 11.1015C24.852 11.1015 24.4366 10.9755 24.0832 10.7394C23.7299 10.5033 23.4545 10.1677 23.2919 9.7751C23.1293 9.38249 23.0867 8.95047 23.1696 8.53367C23.2525 8.11687 23.4572 7.73402 23.7576 7.43352C24.0581 7.13303 24.441 6.92839 24.8578 6.84549C25.2746 6.76258 25.7066 6.80513 26.0992 6.96776C26.4918 7.13038 26.8274 7.40578 27.0635 7.75912C27.2996 8.11247 27.4256 8.52789 27.4256 8.95285C27.4256 9.13205 27.3544 9.30391 27.2277 9.43062C27.101 9.55734 26.9291 9.62852 26.7499 9.62852C26.5707 9.62852 26.3989 9.55734 26.2722 9.43062C26.1455 9.30391 26.0743 9.13205 26.0743 8.95285C26.0743 8.79516 26.0275 8.64101 25.9399 8.50989C25.8523 8.37878 25.7278 8.27659 25.5821 8.21624C25.4364 8.1559 25.2761 8.14011 25.1214 8.17087C24.9668 8.20164 24.8247 8.27757 24.7132 8.38907C24.6017 8.50058 24.5258 8.64264 24.495 8.7973C24.4642 8.95196 24.48 9.11227 24.5404 9.25796C24.6007 9.40365 24.7029 9.52817 24.834 9.61578C24.9651 9.70339 25.1193 9.75015 25.277 9.75015C25.4562 9.75015 25.628 9.82133 25.7547 9.94805C25.8815 10.0748 25.9526 10.2466 25.9526 10.4258C25.9526 10.605 25.8815 10.7769 25.7547 10.9036C25.628 11.0303 25.4562 11.1015 25.277 11.1015Z" fill="white"/>
<path d="M25.2771 14.0473C24.7078 14.0455 24.1623 13.8186 23.7597 13.416C23.3571 13.0134 23.1302 12.468 23.1284 11.8986C23.1284 11.7194 23.1996 11.5476 23.3263 11.4209C23.453 11.2942 23.6249 11.223 23.8041 11.223C23.9833 11.223 24.1552 11.2942 24.2819 11.4209C24.4086 11.5476 24.4798 11.7194 24.4798 11.8986C24.4798 12.0563 24.5265 12.2105 24.6141 12.3416C24.7017 12.4727 24.8263 12.5749 24.972 12.6353C25.1176 12.6956 25.278 12.7114 25.4326 12.6806C25.5873 12.6499 25.7293 12.5739 25.8408 12.4624C25.9523 12.3509 26.0283 12.2089 26.059 12.0542C26.0898 11.8995 26.074 11.7392 26.0137 11.5935C25.9533 11.4478 25.8511 11.3233 25.72 11.2357C25.5889 11.1481 25.4348 11.1014 25.2771 11.1014C25.0979 11.1014 24.926 11.0302 24.7993 10.9034C24.6726 10.7767 24.6014 10.6049 24.6014 10.4257C24.6014 10.2465 24.6726 10.0746 24.7993 9.9479C24.926 9.82119 25.0979 9.75 25.2771 9.75C25.8469 9.75 26.3934 9.97637 26.7964 10.3793C27.1993 10.7823 27.4257 11.3288 27.4257 11.8986C27.4257 12.4685 27.1993 13.015 26.7964 13.418C26.3934 13.8209 25.8469 14.0473 25.2771 14.0473Z" fill="white"/>
<path d="M25.277 14.5268C25.0978 14.5268 24.9259 14.4557 24.7992 14.3289C24.6725 14.2022 24.6013 14.0304 24.6013 13.8512V13.3714C24.6013 13.1922 24.6725 13.0204 24.7992 12.8937C24.9259 12.7669 25.0978 12.6958 25.277 12.6958C25.4562 12.6958 25.6281 12.7669 25.7548 12.8937C25.8815 13.0204 25.9527 13.1922 25.9527 13.3714V13.8512C25.9527 14.0304 25.8815 14.2022 25.7548 14.3289C25.6281 14.4557 25.4562 14.5268 25.277 14.5268ZM25.277 8.15522C25.0978 8.15522 24.9259 8.08403 24.7992 7.95732C24.6725 7.83061 24.6013 7.65874 24.6013 7.47954V6.99306C24.6013 6.81386 24.6725 6.642 24.7992 6.51528C24.9259 6.38857 25.0978 6.31738 25.277 6.31738C25.4562 6.31738 25.6281 6.38857 25.7548 6.51528C25.8815 6.642 25.9527 6.81386 25.9527 6.99306V7.47954C25.9527 7.65874 25.8815 7.83061 25.7548 7.95732C25.6281 8.08403 25.4562 8.15522 25.277 8.15522Z" fill="white"/>
</svg>
