<svg width="50" height="50" viewBox="0 0 50 50" fill="none" xmlns="http://www.w3.org/2000/svg">
<path d="M14.4531 23.2813C14.1406 22.9688 13.6719 22.9688 13.3594 23.2813C13.0469 23.5938 13.0469 24.0625 13.3594 24.375L21.5625 32.5781C21.875 32.8906 22.3437 32.8906 22.6562 32.5781L36.7187 18.5156C37.0312 18.2031 37.0312 17.7344 36.7187 17.4219C36.4062 17.1094 35.9375 17.1094 35.625 17.4219L22.1094 30.9375L14.4531 23.2813Z" fill="#212222"/>
<path d="M45.3125 8.35938L25.3125 0.078125C25.0781 1.16415e-09 24.9219 1.16415e-09 24.6875 0.078125L4.6875 8.35938C4.375 8.51563 4.21875 8.75 4.21875 9.0625C4.21875 25.3125 8.04687 42.8906 24.6094 49.8437C24.8438 49.9219 25 49.9219 25.2344 49.8437C42.0313 42.9687 45.9375 25.4688 45.9375 9.0625C45.8594 8.75 45.625 8.51563 45.3125 8.35938ZM24.8438 48.3594C9.375 41.6406 5.85938 24.9219 5.78125 9.60938L25 1.64062L44.2188 9.60938C44.1406 25.1563 40.5469 41.7188 24.8438 48.3594Z" fill="#212222"/>
</svg>
