<svg width="50" height="50" viewBox="0 0 50 50" fill="none" xmlns="http://www.w3.org/2000/svg">
<g clip-path="url(#clip0_11528_219751)">
<path d="M27.5391 50C21.543 50 15.8984 47.666 11.6602 43.418C7.42188 39.1699 5.07812 33.5352 5.07812 27.5391C5.07812 22.5391 6.68945 17.8125 9.72656 13.8574L10.498 14.4531C7.58789 18.2324 6.05469 22.7539 6.05469 27.5391C6.05469 39.3848 15.6934 49.0234 27.5391 49.0234C39.3848 49.0234 49.0234 39.3848 49.0234 27.5391C49.0234 15.6934 39.3848 6.05469 27.5391 6.05469C23.5449 6.05469 19.6484 7.1582 16.2695 9.24805L15.752 8.41797C19.2871 6.23047 23.3691 5.07812 27.5391 5.07812C33.5352 5.07812 39.1797 7.41211 43.418 11.6602C47.6563 15.9082 50 21.543 50 27.5391C50 33.5352 47.666 39.1797 43.418 43.418C39.1699 47.6563 33.5352 50 27.5391 50Z" fill="#212222"/>
<path d="M27.5391 44.3066C18.291 44.3066 10.7715 36.7871 10.7715 27.5391C10.7715 18.291 18.291 10.7715 27.5391 10.7715C36.7871 10.7715 44.3066 18.291 44.3066 27.5391C44.3066 36.7871 36.7871 44.3066 27.5391 44.3066ZM27.5391 11.748C18.8379 11.748 11.748 18.8281 11.748 27.5391C11.748 36.25 18.8379 43.3301 27.5391 43.3301C36.2402 43.3301 43.3301 36.2402 43.3301 27.5391C43.3301 18.8379 36.2402 11.748 27.5391 11.748Z" fill="#212222"/>
<path d="M27.5391 38.6035C21.4355 38.6035 16.4746 33.6426 16.4746 27.5391C16.4746 21.4355 21.4355 16.4746 27.5391 16.4746C33.6426 16.4746 38.6035 21.4844 38.6035 27.5391H37.627C37.627 21.9727 33.0957 17.4512 27.5391 17.4512C21.9824 17.4512 17.4512 21.9727 17.4512 27.5391C17.4512 33.1055 21.9727 37.627 27.5391 37.627C32.3926 37.627 36.5723 34.1699 37.4609 29.4043L38.418 29.5801C37.4414 34.8145 32.8711 38.6035 27.5391 38.6035Z" fill="#212222"/>
<path d="M27.5391 32.9102C24.5801 32.9102 22.168 30.498 22.168 27.5391C22.168 24.5801 24.5801 22.168 27.5391 22.168C30.498 22.168 32.9102 24.5801 32.9102 27.5391C32.9102 30.498 30.498 32.9102 27.5391 32.9102ZM27.5391 23.1445C25.1172 23.1445 23.1445 25.1172 23.1445 27.5391C23.1445 29.9609 25.1172 31.9336 27.5391 31.9336C29.9609 31.9336 31.9336 29.9609 31.9336 27.5391C31.9336 25.1172 29.9609 23.1445 27.5391 23.1445Z" fill="#212222"/>
<path d="M27.8807 27.197L6.42615 5.7417L5.7356 6.43222L27.1901 27.8875L27.8807 27.197Z" fill="#212222"/>
<path d="M14.1602 14.6486H8.56451C8.43755 14.6486 8.3106 14.5998 8.22271 14.5021L0.146538 6.42596C0.00981921 6.28924 -0.0390089 6.07439 0.0391161 5.89861C0.117241 5.71307 0.293022 5.59588 0.488335 5.59588H5.59576V0.488457C5.59576 0.293144 5.71294 0.117363 5.89849 0.0392381C6.08404 -0.0388869 6.28912 0.00994128 6.42583 0.14666L14.502 8.22283C14.5899 8.31072 14.6485 8.43768 14.6485 8.56463V14.1603C14.6485 14.4338 14.4336 14.6486 14.1602 14.6486ZM8.76958 13.6721H13.6719V8.76971L6.57232 1.6701V6.08416C6.57232 6.3576 6.35748 6.57244 6.08404 6.57244H1.66998L8.76958 13.6721Z" fill="#212222"/>
<path d="M8.74023 9.22852H3.14453V8.25195H8.25195V3.14453H9.22852V8.74023C9.22852 9.00391 9.00391 9.22852 8.74023 9.22852Z" fill="#212222"/>
<path d="M11.3867 11.875H5.79102V10.8984H10.8984V5.79102H11.875V11.3867C11.875 11.6602 11.6602 11.875 11.3867 11.875Z" fill="#212222"/>
<path d="M28.0273 14.0625H27.0508V19.9219H28.0273V14.0625Z" fill="#212222"/>
<path d="M28.0273 35.1562H27.0508V41.0156H28.0273V35.1562Z" fill="#212222"/>
<path d="M19.9219 27.0508H14.0625V28.0273H19.9219V27.0508Z" fill="#212222"/>
<path d="M41.0156 27.0508H35.1562V28.0273H41.0156V27.0508Z" fill="#212222"/>
</g>
<defs>
<clipPath id="clip0_11528_219751">
<rect width="50" height="50" fill="white"/>
</clipPath>
</defs>
</svg>
