<svg width="50" height="50" viewBox="0 0 50 50" fill="none" xmlns="http://www.w3.org/2000/svg">
<path d="M25 5.19531C14.0625 5.19531 5.19531 14.0625 5.19531 25C5.19531 35.9375 14.0625 44.8047 25 44.8047C35.9375 44.8047 44.8047 35.9375 44.8047 25C44.8047 14.0625 35.9375 5.19531 25 5.19531ZM25 42.9297C15.1172 42.9297 7.07031 34.8828 7.07031 25C7.07031 15.1172 15.1172 7.07031 25 7.07031C34.8828 7.07031 42.9297 15.1172 42.9297 25C42.9297 34.8828 34.8828 42.9297 25 42.9297Z" fill="white"/>
<path d="M25.9375 24.6094V13.6719C25.9375 13.1641 25.5078 12.7344 25 12.7344C24.4922 12.7344 24.0625 13.1641 24.0625 13.6719V25C24.0625 25.2344 24.1797 25.5078 24.3359 25.6641L31.875 33.2031C32.0703 33.3984 32.3047 33.4766 32.5391 33.4766C32.7734 33.4766 33.0078 33.3984 33.2031 33.2031C33.5547 32.8516 33.5547 32.2266 33.2031 31.875L25.9375 24.6094Z" fill="white"/>
</svg>
